<svg width="151" height="151" viewBox="0 0 151 151" fill="none" xmlns="http://www.w3.org/2000/svg">
<path d="M124.229 104.664L131.783 108.547L134.304 103.642L126.75 99.76L127.591 98.1252L136.669 102.791L132.467 110.965L123.388 106.299L124.229 104.664Z" fill="white"/>
<path d="M119.037 116.309C118.552 115.4 118.361 114.435 118.464 113.412C118.558 112.4 118.959 111.437 119.667 110.521C120.292 109.713 121.041 109.122 121.916 108.748C122.8 108.383 123.717 108.265 124.665 108.396C125.613 108.527 126.486 108.901 127.282 109.517C128.057 110.117 128.631 110.854 129.005 111.728C129.378 112.602 129.516 113.492 129.418 114.398C129.322 115.322 128.991 116.151 128.425 116.883C127.867 117.605 127.234 118.123 126.527 118.437C125.822 118.77 125.099 118.882 124.358 118.773C123.618 118.683 122.915 118.38 122.248 117.863C121.839 117.547 121.477 117.181 121.162 116.765L125.785 110.786C124.984 110.287 124.146 110.113 123.273 110.263C122.399 110.414 121.671 110.866 121.088 111.62C120.58 112.278 120.303 112.958 120.257 113.663C120.222 114.376 120.394 115.043 120.774 115.664L119.037 116.309ZM127.052 115.822C127.544 115.186 127.778 114.515 127.756 113.81C127.745 113.112 127.476 112.448 126.949 111.817L123.388 116.422C123.975 116.91 124.601 117.101 125.266 116.997C125.932 116.892 126.528 116.5 127.052 115.822Z" fill="white"/>
<path d="M119.139 126.603C118.415 127.243 117.604 127.641 116.707 127.798C115.809 127.974 114.917 127.9 114.031 127.575C113.145 127.25 112.369 126.71 111.703 125.954C111.036 125.199 110.597 124.362 110.384 123.442C110.172 122.522 110.204 121.622 110.48 120.742C110.756 119.881 111.256 119.13 111.98 118.49C112.46 118.066 113 117.762 113.599 117.577C114.189 117.402 114.8 117.333 115.434 117.373L111.301 112.689L112.679 111.472L122.81 122.952L121.432 124.169L120.675 123.311C120.636 123.946 120.492 124.545 120.245 125.108C119.988 125.681 119.619 126.179 119.139 126.603ZM113.23 119.783C112.761 120.198 112.436 120.684 112.257 121.242C112.086 121.811 112.074 122.394 112.22 122.991C112.375 123.599 112.682 124.163 113.141 124.683C113.601 125.204 114.118 125.573 114.692 125.792C115.276 126.021 115.855 126.081 116.431 125.972C117.016 125.873 117.543 125.616 118.012 125.202C118.481 124.787 118.801 124.295 118.972 123.727C119.151 123.169 119.164 122.586 119.009 121.978C118.863 121.381 118.56 120.822 118.101 120.301C117.642 119.781 117.12 119.406 116.537 119.177C115.962 118.958 115.383 118.898 114.798 118.997C114.222 119.106 113.7 119.368 113.23 119.783Z" fill="white"/>
<path d="M100.961 129.514C100.843 128.49 101.02 127.522 101.49 126.608C101.949 125.701 102.675 124.951 103.669 124.359C104.547 123.836 105.46 123.561 106.41 123.533C107.367 123.518 108.263 123.744 109.097 124.214C109.931 124.684 110.605 125.351 111.12 126.217C111.621 127.059 111.885 127.955 111.911 128.906C111.938 129.856 111.74 130.735 111.317 131.542C110.889 132.367 110.277 133.017 109.481 133.491C108.698 133.958 107.92 134.207 107.147 134.24C106.369 134.291 105.656 134.131 105.006 133.757C104.351 133.403 103.808 132.863 103.377 132.138C103.113 131.693 102.91 131.22 102.77 130.717L109.262 126.849C108.7 126.09 107.985 125.621 107.117 125.441C106.25 125.261 105.407 125.415 104.588 125.903C103.874 126.328 103.367 126.86 103.066 127.499C102.771 128.149 102.687 128.833 102.813 129.551L100.961 129.514ZM108.594 131.999C109.285 131.588 109.749 131.05 109.987 130.385C110.232 129.732 110.226 129.015 109.967 128.234L104.967 131.214C105.333 131.883 105.845 132.291 106.502 132.438C107.16 132.585 107.857 132.438 108.594 131.999Z" fill="white"/>
<path d="M99.8542 135.989L96.6685 128.116L98.3718 127.425L102.201 136.888L95.8606 139.46L95.2173 137.87L99.8542 135.989Z" fill="white"/>
<path d="M83.7626 131.885L85.5471 131.445L87.5756 139.692L91.6998 138.674L91.0177 135.73C90.5955 133.9 90.4738 132.493 90.6526 131.509C90.8181 130.529 91.4296 129.908 92.4871 129.647C92.6986 129.595 92.9909 129.558 93.364 129.536L94.2092 131.262C93.8163 131.261 93.4795 131.288 93.1986 131.343C92.7889 131.445 92.5353 131.696 92.4381 132.099C92.3276 132.505 92.3175 132.977 92.4079 133.515C92.485 134.057 92.6373 134.819 92.8646 135.8L93.8542 139.909L86.2008 141.798L83.7626 131.885Z" fill="white"/>
<path d="M77.4447 132.22L77.7282 136.335L82.2116 131.888L84.7173 131.714L80.1805 135.98C81.4173 135.908 82.394 136.119 83.1105 136.615C83.8279 137.125 84.2193 137.855 84.2848 138.806C84.3531 139.797 84.0533 140.596 83.3855 141.202C82.7177 141.808 81.7454 142.155 80.4688 142.244L76.313 142.534L75.6113 132.348L77.4447 132.22ZM82.3699 138.939C82.3362 138.45 82.1403 138.082 81.782 137.834C81.4102 137.587 80.8916 137.486 80.2261 137.533L77.8223 137.7L78.0356 140.797L80.4394 140.629C81.1049 140.583 81.6048 140.411 81.9392 140.115C82.26 139.82 82.4036 139.428 82.3699 138.939Z" fill="white"/>
<path d="M63.841 131.274L65.6672 131.479L65.191 135.7L70.6696 136.315L71.1459 132.094L72.9722 132.299L71.8272 142.445L70.001 142.24L70.4773 138.019L64.9986 137.405L64.5223 141.626L62.6961 141.421L63.841 131.274Z" fill="white"/>
<path d="M57.6123 129.5C57.5903 128.91 57.593 128.428 57.6205 128.052C57.648 127.677 57.7185 127.3 57.832 126.922C58.0865 126.074 58.5417 125.457 59.1977 125.071C59.8406 124.681 60.5988 124.617 61.4724 124.879C62.0982 125.066 62.6829 125.462 63.2265 126.065L62.6041 128.139C62.3734 127.771 62.1159 127.445 61.8317 127.161C61.5475 126.877 61.262 126.692 60.9752 126.606C60.584 126.489 60.262 126.52 60.009 126.7C59.7429 126.876 59.5492 127.166 59.4278 127.571C59.2752 128.079 59.2418 128.687 59.3277 129.395L60.696 140.956L58.7402 140.37L57.9247 131.725L52.4232 138.477L50.5261 137.908L57.6123 129.5Z" fill="white"/>
<path d="M45.937 133.691L49.5389 125.996L51.2032 126.774L47.6013 134.47L51.0224 136.07L50.2951 137.624L41.7887 133.644L42.516 132.091L45.937 133.691Z" fill="white"/>
<path d="M39.717 132.115L43.9145 125.929L35.1057 128.985L33.6362 127.987L39.3704 119.537L40.8906 120.569L36.6932 126.755L45.5019 123.699L46.9715 124.696L41.2373 133.147L39.717 132.115Z" fill="white"/>
<path d="M22.6518 112.79L30.4819 110.034L31.6079 111.408L27.535 118.554L33.9115 114.218L35.0245 115.576L26.4185 121.187L25.0337 119.497L29.2256 112.175L21.2806 114.919L19.8828 113.214L27.0653 105.866L28.2301 107.287L22.6518 112.79Z" fill="white"/>
<path d="M20.1932 98.0062C21.221 97.9447 22.1777 98.1737 23.0635 98.6933C23.943 99.2009 24.6505 99.9674 25.186 100.993C25.6585 101.898 25.8818 102.825 25.8559 103.776C25.8179 104.733 25.5412 105.615 25.0258 106.422C24.5103 107.23 23.8062 107.867 22.9134 108.334C22.0448 108.788 21.1354 109.003 20.1852 108.978C19.2351 108.953 18.3693 108.707 17.5879 108.24C16.7882 107.768 16.1741 107.121 15.7457 106.301C15.3236 105.493 15.118 104.702 15.1287 103.928C15.1211 103.148 15.3218 102.444 15.7308 101.816C16.1214 101.181 16.6908 100.668 17.4388 100.277C17.8973 100.037 18.3812 99.8606 18.8906 99.7477L22.3871 106.443C23.1754 105.923 23.6838 105.235 23.9123 104.378C24.1407 103.521 24.0345 102.671 23.5935 101.826C23.2092 101.09 22.7066 100.554 22.0859 100.219C21.453 99.8893 20.7751 99.7678 20.0522 99.8542L20.1932 98.0062ZM17.284 105.496C17.6557 106.208 18.1666 106.701 18.8167 106.975C19.4548 107.256 20.1707 107.288 20.9644 107.073L18.2712 101.915C17.583 102.244 17.1472 102.734 16.9638 103.383C16.7803 104.031 16.8871 104.736 17.284 105.496Z" fill="white"/>
<path d="M19.7427 86.9379L20.269 88.6985L16.2 89.9185L17.7787 95.2002L21.8477 93.9801L22.374 95.7407L12.5927 98.6735L12.0664 96.9129L16.1354 95.6929L14.5567 90.4112L10.4877 91.6312L9.96141 89.8707L19.7427 86.9379Z" fill="white"/>
<path d="M8.21439 77.0047C8.13683 76.0413 8.30383 75.1468 8.71539 74.3212C9.11229 73.4831 9.70657 72.8065 10.4982 72.2915C11.2888 71.7629 12.1862 71.4577 13.1903 71.3761C14.1944 71.2945 15.1289 71.4507 15.9938 71.8447C16.8575 72.2252 17.5591 72.7964 18.0985 73.5584C18.6232 74.3079 18.9243 75.1643 19.0019 76.1277C19.0729 77.0097 18.9479 77.8325 18.627 78.5961C18.2925 79.3608 17.7983 80.0087 17.1445 80.5399C16.4907 81.071 15.7345 81.433 14.8759 81.6257L15.0857 84.2309L19.3193 83.8868L19.4667 85.7186L9.28987 86.5459L9.14239 84.7141L13.376 84.3699L13.1662 81.7647C12.288 81.7132 11.4837 81.4781 10.7534 81.0594C10.0232 80.6408 9.43858 80.0805 8.99965 79.3787C8.54716 78.678 8.2854 77.8866 8.21439 77.0047ZM17.2108 76.2733C17.1605 75.6491 16.9597 75.1055 16.6083 74.6424C16.2557 74.1657 15.7966 73.807 15.2309 73.5662C14.6652 73.3253 14.0363 73.233 13.3443 73.2893C12.6523 73.3456 12.0464 73.5382 11.5265 73.8673C11.0067 74.1964 10.611 74.6246 10.3393 75.152C10.0665 75.6659 9.95527 76.2349 10.0055 76.859C10.0558 77.4832 10.2572 78.0336 10.6097 78.5103C10.9611 78.9734 11.4197 79.3254 11.9854 79.5662C12.5511 79.807 13.1799 79.8993 13.872 79.8431C14.564 79.7868 15.1699 79.5941 15.6897 79.2651C16.2096 78.936 16.6059 78.5145 16.8786 78.0007C17.1503 77.4733 17.261 76.8975 17.2108 76.2733Z" fill="white"/>
<path d="M26.2709 47.2196L18.6604 43.45L16.212 48.3913L23.8225 52.1609L23.0064 53.8079L13.8592 49.2772L17.9398 41.0418L27.087 45.5725L26.2709 47.2196Z" fill="white"/>
<path d="M31.3044 35.4375C31.8021 36.3389 32.0072 37.3016 31.9196 38.3255C31.8402 39.3385 31.4531 40.308 30.7586 41.2338C30.1457 42.0507 29.405 42.6525 28.5364 43.0392C27.657 43.4176 26.7423 43.5483 25.7923 43.4312C24.8423 43.314 23.9646 42.9532 23.1591 42.3486C22.3754 41.7603 21.7905 41.0318 21.4044 40.1631C21.0183 39.2944 20.8676 38.4066 20.9525 37.4998C21.0346 36.574 21.3535 35.7407 21.9091 35C22.4566 34.2702 23.0816 33.7433 23.7841 33.4193C24.4839 33.0762 25.2053 32.9537 25.9484 33.0518C26.6888 33.1308 27.3964 33.4235 28.0712 33.9301C28.4849 34.2406 28.8522 34.6014 29.1732 35.0126L24.6379 41.0579C25.4461 41.5453 26.2858 41.7074 27.157 41.5441C28.0282 41.3807 28.7498 40.9178 29.3218 40.1554C29.8203 39.4909 30.0874 38.8061 30.1231 38.1007C30.1479 37.3873 29.9659 36.7228 29.5769 36.1073L31.3044 35.4375ZM23.2969 36.0417C22.8148 36.6843 22.5899 37.3583 22.6222 38.0636C22.6437 38.7607 22.9224 39.4211 23.4583 40.0448L26.9517 35.3883C26.3585 34.909 25.7298 34.7265 25.0655 34.8408C24.4013 34.9552 23.8117 35.3555 23.2969 36.0417Z" fill="white"/>
<path d="M30.8498 25.3014C31.5626 24.6482 32.3659 24.2351 33.2598 24.0621C34.1545 23.8698 35.0478 23.928 35.9396 24.2368C36.8315 24.5456 37.6174 25.0714 38.2974 25.8143C38.9774 26.5572 39.432 27.3866 39.6613 28.3025C39.8906 29.2185 39.8749 30.119 39.6142 31.0039C39.3544 31.8696 38.8681 32.6291 38.1553 33.2823C37.6835 33.7147 37.1494 34.0287 36.5532 34.2244C35.967 34.4108 35.3566 34.4902 34.7221 34.4625L38.94 39.0703L37.5847 40.3123L27.2467 29.0186L28.602 27.7766L29.3739 28.6199C29.4019 27.985 29.5345 27.3836 29.7715 26.8157C30.0185 26.2385 30.378 25.7338 30.8498 25.3014ZM36.8821 32.0123C37.3439 31.5892 37.6595 31.0969 37.8287 30.5357C37.9888 29.9644 37.9905 29.3814 37.8338 28.7866C37.6678 28.1818 37.3505 27.6234 36.8819 27.1115C36.4132 26.5995 35.8897 26.2393 35.3113 26.031C34.7237 25.8126 34.1431 25.7631 33.5695 25.8827C32.9867 25.9922 32.4644 26.2585 32.0026 26.6817C31.5408 27.1049 31.2298 27.6021 31.0697 28.1734C30.9004 28.7347 30.8988 29.3177 31.0647 29.9225C31.2214 30.5172 31.5342 31.0706 32.0028 31.5826C32.4715 32.0946 32.9996 32.4598 33.5872 32.6782C34.1656 32.8865 34.7462 32.9359 35.329 32.8264C35.9026 32.7069 36.4203 32.4355 36.8821 32.0123Z" fill="white"/>
<path d="M48.8203 22.1303C48.9566 23.1512 48.798 24.1228 48.3445 25.0453C47.9027 25.9606 47.1901 26.7235 46.2069 27.3341C45.3393 27.8729 44.4308 28.1648 43.4814 28.2097C42.5247 28.2431 41.6253 28.0327 40.7829 27.5785C39.9406 27.1244 39.2541 26.4693 38.7234 25.6133C38.207 24.7805 37.9268 23.8892 37.8826 22.9393C37.8384 21.9895 38.0205 21.1074 38.4288 20.293C38.8415 19.4599 39.4412 18.7991 40.2278 18.3106C41.0028 17.8293 41.7763 17.5652 42.5483 17.5183C43.3247 17.4527 44.0412 17.6005 44.6978 17.9618C45.3587 18.3043 45.9115 18.8341 46.3561 19.5513C46.6287 19.9908 46.8398 20.4605 46.9895 20.9604L40.5695 24.9474C41.1454 25.6953 41.8687 26.1513 42.7394 26.3154C43.6102 26.4795 44.4505 26.3101 45.2602 25.8073C45.9658 25.369 46.4633 24.8278 46.7528 24.1834C47.035 23.5275 47.1067 22.8421 46.9679 22.1272L48.8203 22.1303ZM41.1422 19.7855C40.4597 20.2093 40.0054 20.7558 39.7794 21.4248C39.5462 22.0823 39.566 22.799 39.8387 23.5749L44.7838 20.5038C44.4053 19.8416 43.8859 19.4432 43.2257 19.3086C42.5654 19.1739 41.8709 19.3329 41.1422 19.7855Z" fill="white"/>
<path d="M50.0135 15.5032L53.3166 23.3276L51.6237 24.0439L47.6537 14.6396L53.9548 11.9733L54.6218 13.5532L50.0135 15.5032Z" fill="white"/>
<path d="M66.2411 19.3091L64.4635 19.7766L62.3099 11.5606L58.2017 12.6411L58.9283 15.5745C59.3783 17.3985 59.5214 18.8035 59.3576 19.7895C59.207 20.7721 58.605 21.402 57.5516 21.679C57.3409 21.7344 57.0492 21.776 56.6764 21.8037L55.8051 20.0906C56.198 20.0858 56.5344 20.0536 56.8143 19.994C57.2225 19.8866 57.4722 19.631 57.5633 19.227C57.6677 18.8195 57.6706 18.3473 57.572 17.8102C57.4866 17.2697 57.3228 16.5105 57.0806 15.5327L56.0287 11.4393L63.6526 9.43405L66.2411 19.3091Z" fill="white"/>
<path d="M72.2325 18.8732L71.8698 14.7645L67.4728 19.297L64.9709 19.5198L69.4248 15.1668C68.1896 15.2631 67.2091 15.0702 66.4832 14.5882C65.7561 14.0926 65.3506 13.3702 65.2669 12.421C65.1795 11.4312 65.4638 10.6269 66.1199 10.0081C66.7759 9.38936 67.7413 9.02323 69.016 8.90972L73.1654 8.54022L74.0632 18.7102L72.2325 18.8732ZM67.1789 12.2508C67.2219 12.7389 67.425 13.1035 67.7879 13.3445C68.1644 13.5843 68.6849 13.6747 69.3494 13.6155L71.7495 13.4018L71.4766 10.3101L69.0765 10.5238C68.412 10.583 67.9155 10.7639 67.5868 11.0665C67.2718 11.3679 67.1358 11.7626 67.1789 12.2508Z" fill="white"/>
<path d="M85.972 19.5487L84.1428 19.3719L84.5541 15.1443L79.0666 14.6139L78.6553 18.8415L76.8261 18.6647L77.8148 8.50219L79.644 8.67899L79.2327 12.9066L84.7202 13.437L85.1315 9.20939L86.9607 9.38619L85.972 19.5487Z" fill="white"/>
<path d="M92.1147 21.1297C92.1479 21.7186 92.1543 22.201 92.134 22.577C92.1136 22.953 92.0502 23.3311 91.9439 23.7113C91.7055 24.5636 91.262 25.189 90.6135 25.5875C89.9781 25.9897 89.2212 26.0681 88.3428 25.8229C87.7135 25.6472 87.1214 25.2628 86.5665 24.6696L87.1496 22.5848C87.3872 22.948 87.6508 23.269 87.9403 23.5477C88.2298 23.8265 88.5188 24.0061 88.8072 24.0866C89.2005 24.1964 89.5219 24.1589 89.7715 23.9742C90.0342 23.7931 90.2223 23.4993 90.336 23.0928C90.4791 22.5814 90.5009 21.9726 90.4017 21.2664L88.8148 9.73367L90.7813 10.2827L91.7602 18.9104L97.1331 12.0561L99.0406 12.5886L92.1147 21.1297Z" fill="white"/>
<path d="M103.986 16.8099L100.499 24.5578L98.8237 23.8041L102.311 16.0562L98.8662 14.5069L99.5703 12.9424L108.135 16.7948L107.431 18.3593L103.986 16.8099Z" fill="white"/>
<path d="M110.236 18.2555L106.129 24.5023L114.893 21.3176L116.377 22.2934L110.767 30.8271L109.232 29.8177L113.338 23.571L104.575 26.7557L103.091 25.7798L108.701 17.2461L110.236 18.2555Z" fill="white"/>
<path d="M127.711 37.3746L119.922 40.2438L118.776 38.8868L122.745 31.6825L116.432 36.1104L115.299 34.769L123.823 29.0334L125.232 30.7024L121.147 38.0854L129.052 35.2258L130.474 36.9104L123.399 44.3617L122.214 42.9579L127.711 37.3746Z" fill="white"/>
<path d="M130.41 52.1098C129.384 52.1866 128.423 51.9717 127.53 51.4652C126.643 50.9707 125.924 50.2148 125.374 49.1973C124.888 48.2996 124.651 47.3753 124.663 46.4245C124.687 45.4672 124.95 44.5811 125.454 43.7662C125.957 42.9514 126.652 42.3038 127.538 41.8236C128.399 41.3563 129.306 41.1282 130.256 41.1392C131.206 41.1503 132.076 41.3834 132.864 41.8385C133.671 42.2991 134.294 42.9364 134.735 43.7503C135.169 44.5523 135.386 45.3402 135.387 46.1139C135.406 46.8931 135.216 47.6001 134.816 48.2348C134.435 48.875 133.873 49.3963 133.131 49.7987C132.676 50.0453 132.195 50.2288 131.687 50.3493L128.092 43.706C127.311 44.2376 126.813 44.9335 126.597 45.7936C126.382 46.6537 126.5 47.5027 126.954 48.3406C127.349 49.0708 127.859 49.5991 128.485 49.9256C129.123 50.2456 129.802 50.3571 130.524 50.26L130.41 52.1098ZM133.208 44.5779C132.826 43.8716 132.308 43.3862 131.654 43.1216C131.012 42.8505 130.295 42.8286 129.505 43.0559L132.274 48.173C132.958 47.8335 133.386 47.338 133.56 46.6864C133.734 46.0348 133.617 45.332 133.208 44.5779Z" fill="white"/>
<path d="M131 62.9558L130.441 61.2055L134.486 59.9088L132.808 54.6579L128.762 55.9546L128.203 54.2043L137.927 51.0873L138.487 52.8376L134.441 54.1343L136.119 59.3851L140.165 58.0885L140.724 59.8387L131 62.9558Z" fill="white"/>
<path d="M142.746 72.9447C142.838 73.9068 142.685 74.8038 142.286 75.6356C141.902 76.4797 141.318 77.1653 140.535 77.6925C139.752 78.2332 138.86 78.5521 137.857 78.6492C136.854 78.7463 135.918 78.6045 135.047 78.2238C134.177 77.8567 133.467 77.2964 132.916 76.5428C132.38 75.8015 132.065 74.9498 131.973 73.9878C131.888 73.107 132.001 72.2824 132.31 71.5139C132.633 70.7442 133.117 70.0887 133.762 69.5475C134.408 69.0064 135.158 68.6328 136.014 68.4269L135.764 65.8252L131.536 66.2346L131.361 64.4053L141.524 63.4213L141.699 65.2506L137.471 65.6599L137.721 68.2616C138.6 68.2996 139.408 68.5222 140.145 68.9296C140.881 69.3369 141.474 69.8881 141.924 70.5831C142.387 71.2767 142.661 72.064 142.746 72.9447ZM133.762 73.8146C133.822 74.4379 134.031 74.9784 134.389 75.436C134.749 75.9072 135.214 76.2588 135.783 76.4909C136.352 76.723 136.983 76.8056 137.674 76.7386C138.365 76.6717 138.968 76.4698 139.482 76.1327C139.997 75.7957 140.386 75.3614 140.65 74.8299C140.914 74.3119 141.017 73.7412 140.957 73.1179C140.897 72.4946 140.687 71.9474 140.328 71.4762C139.969 71.0185 139.505 70.6737 138.936 70.4416C138.366 70.2095 137.736 70.1269 137.045 70.1938C136.354 70.2608 135.751 70.4627 135.236 70.7998C134.722 71.1368 134.332 71.5643 134.067 72.0823C133.804 72.6138 133.702 73.1913 133.762 73.8146Z" fill="white"/>
</svg>
