<svg width="43" height="17" viewBox="0 0 43 17" fill="none" xmlns="http://www.w3.org/2000/svg">
<g clip-path="url(#clip0_369_40868)">
<path d="M1.28619 9.43616C1.71249 9.59054 2.11946 9.82082 2.56511 9.89928C4.80002 10.2842 7.01574 10.7585 9.28223 10.9586C16.5335 11.5897 23.8361 10.8155 31.1323 9.48975C33.6809 9.0232 36.2364 8.57618 38.7852 8.12309C38.9331 8.09544 39.0742 8.06171 39.3969 7.99038C38.4469 7.42164 37.6194 6.9489 36.805 6.44797C34.6331 5.0942 32.4612 3.74044 30.3024 2.35849C29.9427 2.1304 29.6822 1.7514 29.3754 1.43745L29.5739 1.12217C29.9391 1.23528 30.3506 1.26989 30.6627 1.45541C32.6579 2.678 34.6201 3.96434 36.6153 5.18692C37.7554 5.88554 38.9421 6.53256 40.1551 7.1232C40.704 7.38702 41.3847 7.39581 41.9665 7.59587C42.386 7.74417 42.773 7.99657 43.1133 8.28712C43.195 8.36008 43.086 8.84856 42.9455 8.93609C39.6617 11.1025 36.3507 13.2445 33.0463 15.3792C32.8122 15.5296 32.4778 15.7502 32.2884 15.6875C31.9704 15.5766 31.6909 15.3005 31.4924 15.03C31.4512 14.9666 31.7228 14.5568 31.9166 14.4103C33.8145 13.0299 35.7262 11.6751 37.6379 10.3203C37.7649 10.234 37.8784 10.1356 37.9635 9.91874C37.1967 10.0461 36.43 10.1735 35.6498 10.3022C30.007 11.2539 24.3781 12.2447 18.7062 12.425C14.2132 12.5663 9.75136 12.4959 5.39543 11.6679C4.20687 11.4453 3.06319 11.023 1.93978 10.6056C1.57429 10.4656 1.33337 10.0241 1.04014 9.72233L1.293 9.44224L1.28619 9.43616Z" fill="#EB8A15"/>
</g>
<defs>
<clipPath id="clip0_369_40868">
<rect width="43" height="17" fill="white"/>
</clipPath>
</defs>
</svg>
