<svg width="44" height="17" viewBox="0 0 44 17" fill="none" xmlns="http://www.w3.org/2000/svg">
<path d="M1.28406 9.50827C1.71153 9.66121 2.12018 9.89016 2.56647 9.9671C4.80453 10.3444 7.02401 10.8112 9.29236 11.0035C16.5496 11.6098 23.8483 10.8101 31.1369 9.45884C33.6828 8.98337 36.2358 8.52742 38.7819 8.0654C38.9297 8.03723 39.0706 8.00301 39.3929 7.93054C38.4388 7.36494 37.6078 6.89493 36.7897 6.39667C34.608 5.05004 32.4262 3.70342 30.2574 2.32855C29.896 2.10164 29.6329 1.72344 29.3238 1.41047L29.5202 1.09442C29.8862 1.20629 30.298 1.23949 30.6115 1.42399C32.6156 2.64001 34.5872 3.91992 36.5913 5.13594C37.7365 5.83081 38.9279 6.47391 40.1453 7.06052C40.6961 7.32251 41.377 7.32896 41.9603 7.52706C42.3809 7.67395 42.7697 7.92509 43.1121 8.21454C43.1943 8.28723 43.0887 8.77622 42.9488 8.86426C39.6793 11.0426 36.3824 13.1966 33.0921 15.3433C32.859 15.4945 32.5261 15.7163 32.3362 15.6543C32.0174 15.5445 31.7359 15.2692 31.5355 14.9993C31.4939 14.9361 31.7627 14.5252 31.9554 14.378C33.8442 12.9907 35.7469 11.6289 37.6496 10.2671C37.7761 10.1804 37.8889 10.0816 37.9725 9.86437C37.2065 9.99443 36.4405 10.1245 35.661 10.2559C30.0236 11.2274 24.4004 12.2379 18.7285 12.4378C14.2355 12.5946 9.77226 12.5396 5.40966 11.7265C4.2193 11.5078 3.07245 11.0894 1.94591 10.6758C1.57937 10.537 1.33533 10.0962 1.03995 9.79536L1.29092 9.51433L1.28406 9.50827Z" fill="white"/>
</svg>
