<svg width="95" height="80" viewBox="0 0 95 80" fill="none" xmlns="http://www.w3.org/2000/svg">
<g clip-path="url(#clip0_369_38135)">
<path fill-rule="evenodd" clip-rule="evenodd" d="M10.0688 50.765C9.87764 52.0457 9.97081 53.3525 10.3417 54.5929C10.7127 55.8334 11.3523 56.977 12.2152 57.9427C4.10482 75.0536 28.4395 74.5032 40.7983 74.1357C42.1488 74.2698 43.5056 74.3307 44.8627 74.3182C44.978 74.3026 45.088 74.2603 45.1841 74.1948C45.2801 74.1292 45.3596 74.0422 45.416 73.9406C47.0899 73.9371 48.9596 73.9878 50.9441 74.0417C65.2083 74.429 85.4069 74.9774 81.4975 56.6819C82.5771 56.1149 83.4755 55.2563 84.0903 54.2039C84.705 53.1516 85.0113 51.9479 84.9741 50.7304C84.9396 49.683 85.1319 48.6405 85.5379 47.674C85.9438 46.7075 86.5538 45.8398 87.3262 45.1303C87.9949 44.3206 88.3438 43.2945 88.3071 42.2458C88.5097 39.3519 84.756 37.3045 82.4365 36.5894C82.3422 36.4832 82.2244 36.4006 82.0924 36.3481C81.9604 36.2956 81.818 36.2747 81.6764 36.287C80.521 28.4307 78.6584 19.893 72.7669 14.1357C69.2531 10.9089 65.1152 8.43456 60.6078 6.8648C56.1004 5.29503 51.3187 4.66307 46.5568 5.00776C37.7317 5.53632 28.7624 7.90842 22.0724 13.9742C15.7242 19.691 11.7364 27.5655 10.8881 36.0594C10.3929 36.0125 9.89459 36.1081 9.45196 36.3349C9.00933 36.5617 8.6409 36.9104 8.39019 37.3396C6.44522 40.3976 4.92362 49.9392 10.0688 50.765ZM80.3697 37.3464C72.2279 44.9295 61.8733 49.7149 50.8182 51.0039C39.6517 52.6845 26.6817 47.0298 23.7356 45.0927C22.1431 44.0486 20.6669 42.7445 19.19 41.4397C17.3054 39.7747 15.4197 38.1088 13.2898 36.9809C13.0461 36.8211 12.8025 36.6614 12.504 36.6181C14.338 18.8108 29.1774 7.24412 46.6699 6.75858C55.7748 6.50058 66.2982 8.95815 72.4576 16.1976C77.3841 21.9972 79.032 29.4359 80.0985 36.8638C80.1354 37.0494 80.2303 37.2184 80.3697 37.3464ZM26.4572 48.445C44.4598 57.5266 67.8194 51.8293 81.9413 38.072C85.3498 39.1527 87.5811 42.4883 84.6027 45.1955C83.344 46.345 83.3675 48.1378 83.3907 49.9102C83.4097 51.3626 83.4285 52.8013 82.7416 53.8612C82.3027 54.5873 81.6673 55.1746 80.9086 55.5555C80.7568 55.5193 80.5982 55.5227 80.4481 55.5653C80.2979 55.608 80.1612 55.6884 80.0511 55.799C78.1214 56.0761 75.9634 54.6576 74.0256 53.3838C73.0635 52.7514 72.1556 52.1546 71.3569 51.8188C69.7705 51.1488 67.0524 52.0015 66.7065 53.8869C66.6642 54.105 66.6293 54.327 66.5944 54.5492C66.4035 55.7639 66.2112 56.9874 64.8017 57.6463C63.8326 57.9545 62.792 57.9565 61.8221 57.6518C60.8522 57.3471 60.0002 56.7508 59.3826 55.9441C58.5664 54.8739 57.5781 53.9463 56.458 53.1991C53.571 51.524 50.637 54.0642 48.8358 55.9754C46.2803 58.7109 43.3027 58.1568 40.2547 57.5896C38.1267 57.1936 35.9644 56.7913 33.8874 57.4974C32.0245 58.3118 30.1118 59.0069 28.1606 59.5784C24.3505 60.3684 23.3589 57.998 24.7444 55.1611C24.8697 54.8991 25.0207 54.6119 25.1811 54.3068C25.9138 52.9131 26.8421 51.1472 26.4053 49.7174C26.0823 48.7062 25.5571 48.0259 24.8856 47.5908C25.4038 47.8851 25.9278 48.1699 26.4572 48.445ZM24.8856 47.5908C24.781 47.5231 24.673 47.4613 24.5616 47.4051C24.6693 47.4674 24.7773 47.5293 24.8856 47.5908ZM24.5616 47.4051C22.5961 46.4141 19.5926 47.1709 16.7074 47.8978C12.9944 48.8333 9.47747 49.7194 8.62143 46.7674C7.81659 44.1332 8.08215 41.288 9.3607 38.8469L9.39116 38.8669C11.0112 36.4025 14.0171 39.2298 15.614 40.7317C15.8215 40.9269 16.0053 41.0997 16.1591 41.2356C18.7283 43.5929 21.5461 45.6613 24.5616 47.4051ZM13.5472 59.0991C19.1422 63.6167 30.0524 64.2593 35.981 64.3575C45.2314 64.5496 54.4852 64.189 63.693 63.2777C64.2963 63.2172 64.968 63.1634 65.6868 63.1058C70.5281 62.7178 77.5048 62.1587 80.083 58.2369C82.525 73.6213 64.0203 72.9121 51.0912 72.4166C48.558 72.3195 46.2389 72.2306 44.3332 72.2726C43.9795 72.2802 43.6258 72.2878 43.2369 72.3159C42.986 72.334 40.8541 72.2803 40.497 72.2036C40.3888 72.1803 39.6828 72.1911 39.0395 72.201C38.5141 72.209 38.0304 72.2164 37.9481 72.2041C23.5043 73.056 8.87851 69.5823 13.5167 59.0791L13.5472 59.0991ZM24.5949 51.775C24.8101 50.7184 24.7438 49.891 23.9823 49.3918C21.4456 47.8787 18.4546 48.8218 15.5757 49.7296C14.2795 50.1384 13.006 50.5399 11.8069 50.7069L11.7765 50.687C10.1283 62.4102 30.6485 62.7557 38.2495 62.7964C45.8505 62.837 53.6273 62.7098 61.2081 62.0187C61.8742 61.9642 62.6638 61.921 63.5356 61.8732C68.6922 61.5908 76.7255 61.1509 79.1113 57.2949C77.442 57.2204 75.8282 56.6756 74.4562 55.7235C74.1199 55.503 73.7786 55.2304 73.4285 54.9508C72.1934 53.9642 70.8499 52.8911 69.2372 53.717C68.6934 53.9935 68.321 55.1412 67.9597 56.2546C67.712 57.0179 67.4696 57.7651 67.1807 58.2045C64.9969 61.0623 61.6727 59.7538 59.1838 57.9042C58.601 57.4711 58.0867 56.9504 57.5911 56.4487C55.9697 54.8073 54.5486 53.3687 51.5893 55.8645C50.4964 57.0262 49.3289 58.1155 48.0942 59.1256C45.9044 60.5401 43.2159 60.0408 40.5215 59.5403C38.2757 59.1232 36.0257 58.7053 34.057 59.3942C33.8055 59.4764 33.5187 59.5741 33.204 59.6813C29.3869 60.982 21.4644 63.6815 22.5486 57.0094C22.8834 55.9368 24.0334 52.7487 24.5949 51.775Z" fill="white" fill-opacity="0.15"/>
<path d="M59 25.5C59 26.8806 57.8806 28 56.5 28C55.1194 28 54 26.8806 54 25.5C54 24.1194 55.1194 23 56.5 23C57.8806 23 59 24.1194 59 25.5Z" fill="white" fill-opacity="0.15"/>
<path d="M40 25.5C40 26.8806 38.8806 28 37.5 28C36.1194 28 35 26.8806 35 25.5C35 24.1194 36.1194 23 37.5 23C38.8806 23 40 24.1194 40 25.5Z" fill="white" fill-opacity="0.15"/>
<path d="M30.9911 21C30.3626 20.9976 29.7366 20.9417 29.1256 20.8332C28.3448 20.7009 27.8578 20.1268 28.0372 19.551C28.2165 18.9755 28.995 18.616 29.7759 18.7486C31.1435 18.98 32.5802 18.8031 33.7718 18.2562C34.9634 17.7094 35.8134 16.8372 36.1362 15.8301C36.3155 15.2546 37.094 14.8951 37.8744 15.0274C38.6552 15.16 39.1422 15.7337 38.9628 16.3096C38.544 17.6221 37.5379 18.7923 36.1074 19.6317C34.6767 20.4713 32.9045 20.9313 31.076 20.9376L30.9911 21Z" fill="white" fill-opacity="0.15"/>
<path d="M62.8394 20.9975C61.0179 20.9751 59.2593 20.5011 57.8448 19.6522C56.4303 18.803 55.4418 17.6274 55.0371 16.3137C54.8578 15.7361 55.3452 15.1602 56.1256 15.0275C56.9059 14.8948 57.6844 15.255 57.8643 15.8326C58.187 16.8429 59.0369 17.7177 60.2286 18.2662C61.4202 18.8144 62.8564 18.9923 64.2245 18.7598C65.0048 18.6272 65.7833 18.9877 65.9627 19.565C66.1425 20.1426 65.6551 20.7181 64.8743 20.8511C64.207 20.9628 63.5232 21.0122 62.8394 20.9975V20.9975Z" fill="white" fill-opacity="0.15"/>
<path d="M47.4936 37.0001C44.0823 37.0361 40.9611 38.1517 39.2965 39.928C38.6724 40.5922 39.0654 41.4321 40.1764 41.8067C40.5261 41.932 40.9261 41.9991 41.3339 42C42.1565 41.9972 42.5891 40.925 43 40.5C43.8381 39.588 45.7508 39.0286 47.4936 39C49.2271 39.0231 51.6495 39.5986 52.5 40.5C53.1396 41.1637 53.8876 42.3816 55 42C56.1125 41.6189 56.3301 40.5645 55.6905 39.9008C54.8928 39.0193 53.7089 38.284 52.2653 37.7729C50.8217 37.2623 49.1721 36.995 47.4936 37.0001Z" fill="white" fill-opacity="0.15"/>
</g>
<defs>
<clipPath id="clip0_369_38135">
<rect width="95" height="80" fill="white"/>
</clipPath>
</defs>
</svg>
