<svg width="15" height="15" viewBox="0 0 15 15" fill="none" xmlns="http://www.w3.org/2000/svg">
<path d="M13.2776 0.603812C12.4712 -0.201271 11.1652 -0.201271 10.3588 0.603812L9.62819 1.33851L1.85072 9.11259L1.83419 9.12925C1.83019 9.13325 1.83019 9.13751 1.82593 9.13751C1.81766 9.14991 1.80527 9.16218 1.79713 9.17457C1.79713 9.17871 1.79287 9.17871 1.79287 9.18284C1.78461 9.19524 1.7806 9.2035 1.77221 9.2159C1.76821 9.22003 1.76821 9.22404 1.76407 9.2283C1.75994 9.2407 1.75581 9.24896 1.75155 9.26136C1.75155 9.26536 1.74755 9.26536 1.74755 9.26962L0.0219598 14.4591C-0.0286598 14.6069 0.00982144 14.7705 0.121004 14.8802C0.199128 14.9573 0.3045 15.0004 0.414133 15C0.458941 14.9992 0.503362 14.9922 0.546234 14.9793L5.73126 13.2495C5.73526 13.2495 5.73526 13.2495 5.73952 13.2454C5.75256 13.2416 5.76509 13.236 5.77658 13.2288C5.77981 13.2284 5.78265 13.227 5.78497 13.2248C5.79724 13.2165 5.81377 13.2081 5.82617 13.1999C5.83844 13.1917 5.85096 13.1793 5.86336 13.1711C5.86749 13.1668 5.87149 13.1668 5.87149 13.1628C5.87575 13.1587 5.88402 13.1547 5.88815 13.1463L14.3962 4.63736C15.2013 3.83086 15.2013 2.52483 14.3962 1.71845L13.2776 0.603812ZM5.59915 12.2792L2.72598 9.40587L9.91719 2.21398L12.7904 5.0873L5.59915 12.2792ZM2.32128 10.1696L4.83134 12.6798L1.06224 13.9348L2.32128 10.1696ZM13.8142 4.05932L13.3766 4.50112L10.5033 1.62754L10.9452 1.18586C11.4285 0.702866 12.212 0.702866 12.6955 1.18586L13.8183 2.30877C14.298 2.79435 14.2962 3.57606 13.8142 4.05932Z" fill="#6D6D6D"/>
</svg>
