<svg width="14" height="14" viewBox="0 0 14 14" fill="none" xmlns="http://www.w3.org/2000/svg">
<rect x="0.5" y="0.5" width="13" height="13" rx="3.5" fill="white" stroke="white"/>
<g clip-path="url(#clip0_484_7076)">
<path fill-rule="evenodd" clip-rule="evenodd" d="M6.43119 9.17444C6.31263 9.35272 6.16972 9.56761 5.98117 9.60444C5.77614 9.64432 5.62004 9.45766 5.49427 9.30728C5.47103 9.27949 5.44883 9.25295 5.42755 9.22929C5.14689 8.91714 4.865 8.60576 4.58154 8.29617C4.50805 8.21598 4.51006 8.10496 4.58154 8.025C4.74554 7.84148 4.91688 7.66462 5.08819 7.4878C5.13644 7.438 5.18469 7.38819 5.23277 7.33825C5.27347 7.29602 5.31346 7.25294 5.35346 7.20984C5.5001 7.05187 5.64681 6.89382 5.82828 6.77781C5.56895 6.56114 5.31129 6.34258 5.05386 6.12356C5.00778 6.08442 4.95272 6.04319 4.8948 5.99983C4.73425 5.87963 4.55173 5.74298 4.47779 5.58859C4.32693 5.27366 4.73516 4.93512 5.01996 4.69894C5.09108 4.63996 5.1545 4.58737 5.1996 4.54311C5.24053 4.50297 5.28284 4.45833 5.32648 4.41229C5.59644 4.1275 5.91751 3.78878 6.27881 4.12374C6.40606 4.24177 6.50841 4.40347 6.6075 4.56002C6.65262 4.63129 6.69706 4.7015 6.74286 4.76604C6.9172 5.01141 7.08585 5.2589 7.24411 5.51432C7.29329 5.29109 7.46463 5.13158 7.63198 4.97579C7.6721 4.93843 7.712 4.90129 7.74993 4.86354C7.98994 4.62487 8.23743 4.39971 8.50145 4.18796C8.53373 4.11972 8.61236 4.06901 8.68841 4.11514C9.11918 4.37637 9.49679 4.70126 9.83463 5.0744C9.90946 5.15704 9.91382 5.27956 9.83475 5.36132C9.41783 5.79253 9.04491 6.25345 8.67445 6.72353C9.1853 7.08405 9.67794 7.46747 10.1494 7.87925C10.2337 7.95307 10.2232 8.09424 10.1494 8.16941C9.68799 8.63904 9.21657 9.09706 8.73621 9.54726C8.65982 9.61896 8.5459 9.61874 8.46973 9.54726C8.40857 9.48983 8.34728 9.43243 8.28596 9.37499C7.88167 8.99629 7.47568 8.616 7.09166 8.21743C6.95668 8.4736 6.77731 8.70831 6.6013 8.93861C6.57619 8.97147 6.55114 9.00424 6.52631 9.03697C6.49622 9.07665 6.46468 9.12409 6.43119 9.17444ZM5.52885 7.6341C5.34759 7.81447 5.16565 7.9944 4.98081 8.17119C5.10673 8.31576 5.233 8.46012 5.35929 8.60448L5.45223 8.71074C5.48104 8.74366 5.50978 8.77663 5.53853 8.8096C5.60186 8.88223 5.66519 8.95487 5.7291 9.02692C5.75267 9.05355 5.77062 9.07624 5.7854 9.09492C5.84177 9.16616 5.85189 9.17895 5.95091 9.12878C6.02621 9.09036 6.10676 8.97056 6.17573 8.86797C6.20742 8.82084 6.23666 8.77734 6.26184 8.74704C6.3101 8.68892 6.35886 8.63121 6.4076 8.57351C6.44944 8.524 6.49127 8.47449 6.53279 8.42472C6.69138 8.23463 6.84304 8.0566 7.04006 7.9065L7.04129 7.90616C7.11109 7.8214 7.23997 7.78342 7.34552 7.88137C7.44808 7.97666 7.54939 8.07348 7.64975 8.17141C7.94854 8.46298 8.23889 8.76449 8.52845 9.06518L8.60498 9.14464C8.96617 8.76826 9.33317 8.39814 9.70653 8.03371C9.6439 7.97664 9.5801 7.92087 9.51629 7.86509C9.46484 7.82012 9.41339 7.77515 9.36254 7.72948L9.2702 7.64686C8.96336 7.37227 8.59053 7.03864 8.29338 6.78362C8.24849 6.7452 8.25072 6.69427 8.26837 6.64781C8.26513 6.61062 8.27026 6.57243 8.29573 6.53579C8.62609 6.06158 9.01275 5.6278 9.41693 5.21467C9.3239 5.10533 9.22495 5.00214 9.12588 4.89928L9.12364 4.89706C9.00376 4.77876 8.76021 4.53841 8.63346 4.42919C8.42383 4.62609 8.21766 4.82824 8.02925 5.04547C7.97019 5.11351 7.91691 5.18997 7.86345 5.26669C7.74797 5.43243 7.6316 5.59942 7.45419 5.68554C7.42157 5.7014 7.38907 5.70262 7.35847 5.69682C7.42358 5.81397 7.2622 5.93627 7.16827 5.83944C6.99114 5.65672 6.82585 5.46373 6.66435 5.26761C6.5616 5.14119 6.36917 4.90319 6.26731 4.77609C6.1888 4.66273 6.02786 4.43389 5.91048 4.46438C5.81557 4.48911 5.67894 4.65319 5.57115 4.78265C5.5266 4.83615 5.48698 4.88373 5.45726 4.91312C5.40361 4.96626 5.34495 5.01927 5.28548 5.07301C5.16434 5.18249 5.03982 5.29501 4.94731 5.41794C4.94108 5.42625 4.93696 5.4286 4.93274 5.431C4.93061 5.43222 4.92845 5.43345 4.92598 5.43547C4.92833 5.43647 4.93055 5.43721 4.93276 5.43795C4.93999 5.44036 4.94708 5.44273 4.95803 5.45368C5.0064 5.5019 5.06131 5.54568 5.11575 5.58909C5.14276 5.61063 5.16966 5.63208 5.19558 5.65393L5.3389 5.77465C5.62773 6.01789 5.9166 6.26117 6.20276 6.50765C6.35208 6.63642 6.2529 6.81713 6.10581 6.86549C6.12134 6.9096 6.12536 6.95718 6.09822 7.00398C5.98674 7.19583 5.8236 7.35133 5.66214 7.50522C5.61719 7.54805 5.57238 7.59076 5.52885 7.6341Z" fill="#E42614"/>
<path fill-rule="evenodd" clip-rule="evenodd" d="M7.34552 7.88137C7.44808 7.97666 7.54939 8.07348 7.64975 8.17141L6.4076 8.57351M7.34552 7.88137C7.23997 7.78342 7.11109 7.8214 7.04129 7.90616L7.34552 7.88137ZM7.04129 7.90616L7.04006 7.9065L7.04129 7.90616ZM7.04006 7.9065C6.84304 8.0566 6.69138 8.23463 6.53279 8.42472L7.04006 7.9065Z" fill="#E42614"/>
</g>
<defs>
<clipPath id="clip0_484_7076">
<rect width="7" height="7" fill="white" transform="translate(4 3)"/>
</clipPath>
</defs>
</svg>
