<svg width="48" height="29" viewBox="0 0 48 29" fill="none" xmlns="http://www.w3.org/2000/svg">
<path d="M47.9999 14.0019C47.9999 21.7056 41.5999 28.0018 33.5999 28.0018C25.6761 28.0018 19.2 21.7056 19.2 14.0019C19.2 6.29822 25.5999 0.00195312 33.5238 0.00195312C41.5999 0.00195312 47.9999 6.29822 47.9999 14.0019Z" fill="#FFB600"/>
<path d="M33.5999 0.00195312C41.5237 0.00195312 47.9999 6.29822 47.9999 14.0019C47.9999 21.7056 41.5999 28.0018 33.5999 28.0018C25.6761 28.0018 19.2 21.7056 19.2 14.0019" fill="#F7981D"/>
<path d="M33.6001 0.00195312C41.5239 0.00195312 48.0001 6.29822 48.0001 14.0019C48.0001 21.7056 41.6001 28.0018 33.6001 28.0018" fill="#FF8500"/>
<path d="M14.2476 0.00195312C6.4 0.0760268 0 6.29822 0 14.0019C0 21.7056 6.4 28.0018 14.4 28.0018C18.1333 28.0018 21.4857 26.5944 24.0762 24.3722C24.6095 23.9278 25.0667 23.4092 25.5238 22.8907H22.5524C22.1714 22.4463 21.7905 21.9278 21.4857 21.4833H26.5905C26.8952 21.0389 27.2 20.5204 27.4286 20.0019H20.6476C20.419 19.5574 20.1905 19.0389 20.0381 18.5204H27.9619C28.419 17.113 28.7238 15.6315 28.7238 14.076C28.7238 13.0389 28.5714 12.076 28.419 11.113H19.5809C19.6571 10.5945 19.8095 10.1501 19.9619 9.63154H27.8857C27.7333 9.11302 27.5047 8.5945 27.2762 8.15006H20.5714C20.8 7.63155 21.1047 7.1871 21.4095 6.66859H26.5143C26.2095 6.15007 25.8286 5.63156 25.3714 5.18711H22.5524C23.0095 4.6686 23.4667 4.22415 24 3.77971C21.4857 1.48343 18.0571 0.1501 14.3238 0.1501C14.3238 0.00195298 14.3238 0.00195312 14.2476 0.00195312Z" fill="#FF5050"/>
<path d="M0 14.0022C0 21.7058 6.4 28.0021 14.4 28.0021C18.1333 28.0021 21.4857 26.5947 24.0762 24.3725C24.6095 23.9281 25.0667 23.4095 25.5238 22.891H22.5524C22.1714 22.4466 21.7905 21.9281 21.4857 21.4836H26.5905C26.8952 21.0392 27.2 20.5207 27.4286 20.0021H20.6476C20.419 19.5577 20.1905 19.0392 20.0381 18.5207H27.9619C28.419 17.1133 28.7238 15.6318 28.7238 14.0762C28.7238 13.0392 28.5714 12.0763 28.419 11.1133H19.5809C19.6571 10.5948 19.8095 10.1503 19.9619 9.63183H27.8857C27.7333 9.11331 27.5047 8.59479 27.2762 8.15035H20.5714C20.8 7.63184 21.1047 7.18739 21.4095 6.66888H26.5143C26.2095 6.15036 25.8286 5.63185 25.3714 5.1874H22.5524C23.0095 4.66889 23.4667 4.22445 24 3.78C21.4857 1.48372 18.0571 0.150391 14.3238 0.150391H14.2476" fill="#E52836"/>
<path d="M14.1958 28.0006C17.9044 28.0006 21.2346 26.5858 23.8079 24.3519C24.3377 23.9051 24.7918 23.3838 25.246 22.8626H22.2942C21.9158 22.4158 21.5373 21.8945 21.2346 21.4477H26.3056C26.6083 21.001 26.911 20.4797 27.1381 19.9585H20.4021C20.175 19.5117 19.9479 18.9904 19.7966 18.4692H27.6679C28.122 17.0543 28.4248 15.565 28.4248 14.0013C28.4248 12.9588 28.2734 11.9907 28.122 11.0227H19.3424C19.4181 10.5015 19.5695 10.0547 19.7209 9.53342H27.5922C27.4408 9.01216 27.2138 8.49091 26.9867 8.04412H20.3264C20.5534 7.52287 20.8562 7.07609 21.1589 6.55483H26.2299C25.9271 6.03358 25.5487 5.51233 25.0946 5.06554H22.2942C22.7483 4.54429 23.2024 4.0975 23.7322 3.65072C21.2346 1.34232 17.8287 0.00195312 14.1201 0.00195312H14.0444" fill="#CB2026"/>
<path d="M19.5044 17.5575L19.733 16.2983C19.6568 16.2983 19.5044 16.3724 19.3521 16.3724C18.8187 16.3724 18.7425 16.0761 18.8187 15.9279L19.2759 13.3353H20.114L20.3425 11.9279H19.5806L19.733 11.0391H18.2092C18.2092 11.0391 17.2949 15.9279 17.2949 16.5205C17.2949 17.4094 17.8283 17.7798 18.514 17.7798C18.9711 17.7798 19.3521 17.6316 19.5044 17.5575Z" fill="white"/>
<path d="M20.0381 15.1864C20.0381 17.2605 21.4857 17.779 22.7048 17.779C23.8476 17.779 24.3048 17.5568 24.3048 17.5568L24.6095 16.1494C24.6095 16.1494 23.7714 16.5198 23.0095 16.5198C21.3333 16.5198 21.6381 15.3346 21.6381 15.3346H24.7619C24.7619 15.3346 24.9905 14.3716 24.9905 14.0013C24.9905 13.0383 24.4571 11.8531 22.7809 11.8531C21.1809 11.705 20.0381 13.3346 20.0381 15.1864ZM22.7048 13.0383C23.5428 13.0383 23.3905 14.0013 23.3905 14.0753H21.7143C21.7143 14.0013 21.8667 13.0383 22.7048 13.0383Z" fill="white"/>
<path d="M32.3809 17.5572L32.6857 15.9276C32.6857 15.9276 31.9238 16.298 31.3904 16.298C30.3238 16.298 29.8666 15.4832 29.8666 14.5943C29.8666 12.8165 30.7809 11.8535 31.8476 11.8535C32.6095 11.8535 33.219 12.298 33.219 12.298L33.4476 10.7424C33.4476 10.7424 32.5333 10.3721 31.6952 10.3721C29.9428 10.3721 28.1904 11.8535 28.1904 14.6683C28.1904 16.5202 29.1047 17.7794 30.9333 17.7794C31.5428 17.7794 32.3809 17.5572 32.3809 17.5572Z" fill="white"/>
<path d="M11.1238 11.7051C10.0571 11.7051 9.29518 12.0014 9.29518 12.0014L9.06661 13.2606C9.06661 13.2606 9.75232 12.9643 10.7428 12.9643C11.2761 12.9643 11.7333 13.0384 11.7333 13.4828C11.7333 13.7791 11.6571 13.8532 11.6571 13.8532C11.6571 13.8532 11.1999 13.8532 10.9714 13.8532C9.67613 13.8532 8.22852 14.3717 8.22852 16.0754C8.22852 17.4088 9.1428 17.705 9.67613 17.705C10.7428 17.705 11.1999 17.0384 11.2761 17.0384L11.1999 17.631H12.5714L13.1809 13.5569C13.1809 11.7792 11.6571 11.7051 11.1238 11.7051ZM11.4285 15.0384C11.4285 15.2606 11.2761 16.4458 10.3618 16.4458C9.90471 16.4458 9.75232 16.0754 9.75232 15.8532C9.75232 15.4828 9.9809 14.9643 11.1238 14.9643C11.3523 15.0384 11.4285 15.0384 11.4285 15.0384Z" fill="white"/>
<path d="M14.6286 17.7049C15.0096 17.7049 16.9143 17.779 16.9143 15.779C16.9143 13.9271 15.0857 14.2975 15.0857 13.5568C15.0857 13.1864 15.3905 13.0383 15.9238 13.0383C16.1524 13.0383 16.9905 13.1123 16.9905 13.1123L17.2191 11.779C17.2191 11.779 16.6857 11.6309 15.7715 11.6309C14.6286 11.6309 13.4857 12.0753 13.4857 13.5568C13.4857 15.2605 15.3905 15.1123 15.3905 15.779C15.3905 16.2234 14.8572 16.2975 14.4762 16.2975C13.7905 16.2975 13.1048 16.0753 13.1048 16.0753L12.8762 17.4086C12.9524 17.5568 13.3334 17.7049 14.6286 17.7049Z" fill="white"/>
<path d="M45.0284 10.5205L44.7236 12.5205C44.7236 12.5205 44.1141 11.7798 43.276 11.7798C41.9046 11.7798 40.6855 13.4094 40.6855 15.3353C40.6855 16.5205 41.2951 17.7797 42.5903 17.7797C43.5046 17.7797 44.0379 17.1871 44.0379 17.1871L43.9617 17.7057H45.4855L46.6284 10.5946L45.0284 10.5205ZM44.3427 14.4464C44.3427 15.2612 43.9617 16.2983 43.1236 16.2983C42.5903 16.2983 42.2855 15.8538 42.2855 15.1131C42.2855 13.9279 42.8189 13.1872 43.5046 13.1872C44.0379 13.1872 44.3427 13.5575 44.3427 14.4464Z" fill="white"/>
<path d="M2.8192 17.6316L3.73349 12.2983L3.88587 17.6316H4.95253L6.93348 12.2983L6.09539 17.6316H7.69539L8.91443 10.5205H6.40015L4.87634 14.8909L4.80015 10.5205H2.59063L1.37158 17.6316H2.8192Z" fill="white"/>
<path d="M26.4382 17.6313C26.8953 15.1868 26.9715 13.1868 28.0382 13.5572C28.1905 12.5943 28.4191 12.2239 28.5715 11.8535C28.5715 11.8535 28.4953 11.8535 28.2667 11.8535C27.581 11.8535 27.0477 12.7424 27.0477 12.7424L27.2001 11.9276H25.7524L24.762 17.7053H26.4382V17.6313Z" fill="white"/>
<path d="M35.8855 11.7051C34.8188 11.7051 34.0569 12.0014 34.0569 12.0014L33.8283 13.2606C33.8283 13.2606 34.514 12.9643 35.5045 12.9643C36.0379 12.9643 36.495 13.0384 36.495 13.4828C36.495 13.7791 36.4188 13.8532 36.4188 13.8532C36.4188 13.8532 35.9617 13.8532 35.7331 13.8532C34.4379 13.8532 32.9902 14.3717 32.9902 16.0754C32.9902 17.4088 33.9045 17.705 34.4379 17.705C35.5045 17.705 35.9617 17.0384 36.0379 17.0384L35.9617 17.631H37.3331L37.9426 13.5569C38.0188 11.7792 36.4188 11.7051 35.8855 11.7051ZM36.2664 15.0384C36.2664 15.2606 36.114 16.4458 35.1998 16.4458C34.7426 16.4458 34.5902 16.0754 34.5902 15.8532C34.5902 15.4828 34.8188 14.9643 35.9617 14.9643C36.1902 15.0384 36.1902 15.0384 36.2664 15.0384Z" fill="white"/>
<path d="M39.2382 17.6313C39.6953 15.1868 39.7715 13.1868 40.8382 13.5572C40.9906 12.5943 41.2192 12.2239 41.3715 11.8535C41.3715 11.8535 41.2953 11.8535 41.0668 11.8535C40.3811 11.8535 39.8477 12.7424 39.8477 12.7424L40.0001 11.9276H38.5525L37.562 17.7053H39.2382V17.6313Z" fill="white"/>
<path d="M17.1426 16.5205C17.1426 17.4094 17.6759 17.7798 18.3616 17.7798C18.895 17.7798 19.3521 17.6316 19.5045 17.5575L19.7331 16.2983C19.6569 16.2983 19.5045 16.3724 19.3521 16.3724C18.8188 16.3724 18.7426 16.0761 18.8188 15.9279L19.2759 13.3353H20.114L20.3426 11.9279H19.5807L19.7331 11.0391" fill="#DCE5E5"/>
<path d="M20.7998 15.1864C20.7998 17.2605 21.4855 17.779 22.7046 17.779C23.8474 17.779 24.3046 17.5568 24.3046 17.5568L24.6093 16.1494C24.6093 16.1494 23.7712 16.5198 23.0093 16.5198C21.3331 16.5198 21.6379 15.3346 21.6379 15.3346H24.7617C24.7617 15.3346 24.9903 14.3716 24.9903 14.0013C24.9903 13.0383 24.4569 11.8531 22.7808 11.8531C21.1808 11.705 20.7998 13.3346 20.7998 15.1864ZM22.7046 13.0383C23.5427 13.0383 23.695 14.0013 23.695 14.0753H21.7141C21.7141 14.0013 21.8665 13.0383 22.7046 13.0383Z" fill="#DCE5E5"/>
<path d="M32.381 17.5572L32.6857 15.9276C32.6857 15.9276 31.9238 16.298 31.3905 16.298C30.3238 16.298 29.8667 15.4832 29.8667 14.5943C29.8667 12.8165 30.781 11.8535 31.8476 11.8535C32.6095 11.8535 33.2191 12.298 33.2191 12.298L33.4476 10.7424C33.4476 10.7424 32.5333 10.3721 31.6952 10.3721C29.9429 10.3721 28.9524 11.8535 28.9524 14.6683C28.9524 16.5202 29.1048 17.7794 30.9333 17.7794C31.5429 17.7794 32.381 17.5572 32.381 17.5572Z" fill="#DCE5E5"/>
<path d="M9.06661 13.335C9.06661 13.335 9.75232 13.0387 10.7428 13.0387C11.2761 13.0387 11.7333 13.1128 11.7333 13.5572C11.7333 13.8535 11.6571 13.9276 11.6571 13.9276C11.6571 13.9276 11.1999 13.9276 10.9714 13.9276C9.67613 13.9276 8.22852 14.4461 8.22852 16.1498C8.22852 17.4831 9.1428 17.7794 9.67613 17.7794C10.7428 17.7794 11.1999 17.1127 11.2761 17.1127L11.1999 17.7053H12.5714L13.1809 13.6313C13.1809 11.9276 11.6571 11.8535 11.0476 11.8535L9.06661 13.335ZM12.1904 15.0387C12.1904 15.2609 11.2761 16.4461 10.3618 16.4461C9.90471 16.4461 9.75232 16.0757 9.75232 15.8535C9.75232 15.4831 9.9809 14.9646 11.1238 14.9646C11.3523 15.0387 12.1904 15.0387 12.1904 15.0387Z" fill="#DCE5E5"/>
<path d="M12.9524 17.5568C12.9524 17.5568 13.4095 17.7049 14.7048 17.7049C15.0857 17.7049 16.9905 17.779 16.9905 15.779C16.9905 13.9271 15.1619 14.2975 15.1619 13.5568C15.1619 13.1864 15.4667 13.0383 16 13.0383C16.2286 13.0383 17.0667 13.1123 17.0667 13.1123L17.2952 11.779C17.2952 11.779 16.7619 11.6309 15.8476 11.6309C14.7048 11.6309 14.3238 12.0753 14.3238 13.5568C14.3238 15.2605 15.4667 15.1123 15.4667 15.779C15.4667 16.2234 14.9333 16.2975 14.5524 16.2975" fill="#DCE5E5"/>
<path d="M44.7236 12.5197C44.7236 12.5197 44.1141 11.7789 43.276 11.7789C41.9046 11.7789 41.4474 13.4086 41.4474 15.3345C41.4474 16.5196 41.295 17.7789 42.5903 17.7789C43.5046 17.7789 44.0379 17.1863 44.0379 17.1863L43.9617 17.7048H45.4855L46.6284 10.5938L44.7236 12.5197ZM44.6474 14.4456C44.6474 15.2604 43.9617 16.2974 43.1236 16.2974C42.5903 16.2974 42.2855 15.853 42.2855 15.1122C42.2855 13.9271 42.8188 13.1863 43.5046 13.1863C44.0379 13.1863 44.6474 13.5567 44.6474 14.4456Z" fill="#DCE5E5"/>
<path d="M2.8192 17.6316L3.73349 12.2983L3.88587 17.6316H4.95253L6.93348 12.2983L6.09539 17.6316H7.69539L8.91443 10.5205H7.00967L4.87634 14.8909L4.80015 10.5205H3.96206L1.37158 17.6316H2.8192Z" fill="#DCE5E5"/>
<path d="M24.8381 17.6313H26.4381C26.8953 15.1868 26.9715 13.1868 28.0381 13.5572C28.1905 12.5943 28.4191 12.2239 28.5715 11.8535C28.5715 11.8535 28.4953 11.8535 28.2667 11.8535C27.581 11.8535 27.0477 12.7424 27.0477 12.7424L27.2 11.9276" fill="#DCE5E5"/>
<path d="M33.8283 13.335C33.8283 13.335 34.514 13.0387 35.5045 13.0387C36.0379 13.0387 36.495 13.1128 36.495 13.5572C36.495 13.8535 36.4188 13.9276 36.4188 13.9276C36.4188 13.9276 35.9617 13.9276 35.7331 13.9276C34.4379 13.9276 32.9902 14.4461 32.9902 16.1498C32.9902 17.4831 33.9045 17.7794 34.4379 17.7794C35.5045 17.7794 35.9617 17.1127 36.0379 17.1127L35.9617 17.7053H37.3331L37.9426 13.6313C37.9426 11.9276 36.4188 11.8535 35.8093 11.8535L33.8283 13.335ZM36.9521 15.0387C36.9521 15.2609 36.0379 16.4461 35.1236 16.4461C34.6664 16.4461 34.514 16.0757 34.514 15.8535C34.514 15.4831 34.7426 14.9646 35.8855 14.9646C36.1902 15.0387 36.9521 15.0387 36.9521 15.0387Z" fill="#DCE5E5"/>
<path d="M37.6382 17.6313H39.2382C39.6953 15.1868 39.7715 13.1868 40.8382 13.5572C40.9906 12.5943 41.2191 12.2239 41.3715 11.8535C41.3715 11.8535 41.2953 11.8535 41.0668 11.8535C40.381 11.8535 39.8477 12.7424 39.8477 12.7424L40.0001 11.9276" fill="#DCE5E5"/>
</svg>
