<svg width="48" height="48" viewBox="0 0 48 48" fill="none" xmlns="http://www.w3.org/2000/svg">
<mask id="path-1-outside-1_98_2074" maskUnits="userSpaceOnUse" x="10" y="2" width="29" height="44" fill="black">
<rect fill="white" x="10" y="2" width="29" height="44"/>
<path fill-rule="evenodd" clip-rule="evenodd" d="M25.7852 43.0884C25.8921 42.5666 25.8141 42.8205 26.0727 42.7007C25.9761 42.9454 26.0382 42.8139 25.8984 42.9875C25.8835 43.0061 25.8075 43.0616 25.7852 43.0888V43.0884ZM23.9922 41.9229C24.1984 41.8057 24.3717 41.7141 24.6319 41.7101C24.8643 42.3219 24.7866 42.1918 24.6648 42.7482C25.0725 42.7097 24.9785 42.6293 25.2258 42.7246C25.1395 43.0994 24.8716 43.5283 24.6442 43.8404C24.4118 43.5725 24.2103 43.3786 23.9799 43.1087L23.3269 42.3246L23.9922 41.9226L23.9922 41.9229ZM26.5358 41.8246C26.7851 41.5099 27.1055 41.2297 27.5991 41.0903C27.304 42.3346 26.7513 42.8225 26.0495 43.4549C25.8331 43.6498 25.6468 43.7912 25.4367 43.9589C25.4948 43.4081 26.0718 43.3434 26.4316 42.8879C26.7407 42.4971 26.5186 42.4626 26.752 42.1429C26.9591 41.8581 27.064 41.966 27.2128 41.5557C26.825 41.6729 26.988 41.7675 26.5355 41.8246L26.5358 41.8246ZM26.1677 41.2344C26.0983 41.6035 25.7949 42.0699 25.5306 42.2668C25.2298 42.0709 25.2514 42.0683 25.0858 41.6662C25.275 41.552 24.8544 41.6616 25.3809 41.5351C26.418 41.2858 25.7378 41.39 26.168 41.2343L26.1677 41.2344ZM24.8205 41.1371C24.8759 40.8831 24.8026 40.9695 25.0266 40.8503C25.7331 40.4791 25.7517 41.0405 25.8137 41.2055C25.0887 41.1869 25.0897 41.3506 24.8208 41.1371H24.8205ZM26.1677 41.2344L26.0345 40.515L26.6059 40.3643C26.5401 40.5668 26.5076 40.667 26.4156 40.8682L26.1673 41.2344L26.1677 41.2344ZM26.7533 41.1846C26.7712 40.9502 26.9136 40.5711 27.1121 40.3938L27.8551 39.8597L26.7533 41.1842L26.7533 41.1846ZM25.11 39.1947L25.4801 40.2899L24.5573 40.6515L24.1825 39.5094L25.11 39.1947ZM24.1927 39.2229C23.9753 39.0364 24.1917 39.3747 23.9886 38.971L23.8492 38.0866L24.7814 38.0631L24.9819 38.8395L24.1931 39.2226L24.1927 39.2229ZM25.0864 38.0677C25.362 37.8907 25.8218 37.8081 26.1996 37.7387L26.3496 38.2811C26.109 38.478 25.6993 38.6473 25.2837 38.7167L25.0868 38.0673L25.0864 38.0677ZM28.7411 37.3174L29.1335 37.5827L29.5505 37.3898L29.3742 37.8731C29.1362 37.9425 29.1325 37.8705 28.9423 37.7878C28.769 38.0212 28.4477 38.2685 28.3454 38.4511C28.0981 38.8933 28.4072 38.7817 27.8282 39.1004L28.7408 37.3177L28.7411 37.3174ZM25.7461 36.362L26.0582 37.4506L24.9105 37.7241L24.622 36.5512L25.7461 36.362ZM27.7539 37.757C28.1081 37.0694 27.2911 37.5003 28.5596 36.8387C28.2794 37.3878 28.0434 37.917 27.7296 38.4717C27.4149 39.0291 27.0262 39.4722 26.8376 40.1458C26.2288 40.0465 26.3646 40.1103 25.8042 40.2132L25.4238 39.0413L26.3776 38.6901C26.3925 38.7137 26.4048 38.7492 26.4114 38.7668L26.4722 38.9221C26.6943 39.533 26.505 39.2969 26.8012 39.4739C27.0495 39.1283 26.8151 38.9371 26.7842 38.4949C27.5581 38.3468 27.4701 38.3554 27.6284 38.0912L26.6309 38.1483L26.5137 37.7502C27.0741 37.072 27.6587 37.722 27.754 37.7569L27.7539 37.757ZM26.8993 36.0144L27.1965 37.0993L26.3496 37.3241C26.2155 37.0057 26.0807 36.6515 26.0771 36.2392L26.8997 36.0144H26.8993ZM27.8587 34.006C28.0423 34.2928 27.8983 34.0192 28.0105 34.3293L28.2033 35.1294C27.7313 35.2698 27.5719 35.4759 27.0182 35.5566L26.7503 34.3349L27.8584 34.006H27.8587ZM30.6769 35.1443C30.7124 34.8203 30.7462 34.8163 31.0224 34.6889C30.9325 34.892 30.8764 35.0879 30.6769 35.1443ZM26.4668 34.4575L26.7712 35.7279C26.1013 36.0015 26.2138 35.8684 25.8663 35.9022L25.5459 34.5803L26.4668 34.4575ZM27.5702 32.5406L27.7877 33.7181L26.6952 34.0225C26.4834 33.6945 26.4592 33.2055 26.3795 32.784L27.5703 32.5403L27.5702 32.5406ZM29.1039 32.1509L29.3503 33.0054L28.126 33.5057L27.8694 32.4527L29.1039 32.1509ZM29.4376 32.0357C29.8921 31.7847 30.7519 31.5514 31.2372 31.408C30.9159 32.1463 29.2136 36.289 28.6581 36.5127L27.5434 36.9024L27.1612 35.9327C27.5042 35.693 27.9792 35.5666 28.4015 35.4202C28.7255 35.3086 29.1305 35.0381 29.2391 34.5696C28.7312 34.6241 29.0041 34.7373 28.5151 34.7728L28.2143 33.8509L29.4473 33.328C29.8211 33.6268 29.5558 33.746 30.0514 33.7028C29.8519 32.9778 29.6252 33.343 30.1646 32.8945C29.8489 32.6173 29.8602 32.9253 29.6083 32.6143C29.5219 32.5084 29.4632 32.1797 29.4376 32.0353L29.4376 32.0357ZM28.675 30.5591L29.003 31.8604L27.7475 32.1575L27.4318 30.8329L28.6751 30.5594L28.675 30.5591ZM29.9763 30.1133C30.2067 30.4094 30.3491 30.9611 30.4447 31.3257L29.3018 31.6918L28.9496 30.4459L29.9763 30.1133ZM29.6005 28.4139L29.9435 29.8078L28.8755 30.0937L28.6189 28.6257L29.6009 28.4139L29.6005 28.4139ZM31.1343 27.8386L31.5625 29.1821L30.294 29.6326C30.0909 29.3159 29.9587 28.7632 29.8966 28.2978L31.1343 27.8386ZM33.7735 29.4941L33.4558 30.1179C33.1268 30.5478 33.4979 30.1853 32.9283 30.4372C32.7098 30.5338 31.8959 31.0106 32.2042 31.2927C32.5492 31.4228 32.5472 30.9637 33.0491 30.7981C32.9489 31.304 32.1674 32.5011 31.9138 33.0213C31.4417 33.989 31.2346 34.2243 30.2695 34.6748L30.2931 35.4477C29.6401 35.8308 29.5202 35.9084 29.5727 36.3433C30.1414 36.3629 29.7629 36.1823 30.3953 35.8354C30.239 36.257 29.9963 36.6627 29.6759 36.8921C29.5458 36.7039 29.5943 37.0561 29.6431 36.506C29.4472 36.5883 29.3752 36.6614 29.2148 36.5857L30.1928 34.5799C30.2669 34.4298 30.3641 34.2024 30.4411 34.0889C30.7071 33.6965 31.0782 34.0534 31.5944 33.3048C31.3743 33.168 31.8474 33.1809 31.2647 33.2231C31.0417 33.239 30.8797 33.3834 30.7635 33.5594C30.7711 33.2971 30.8431 33.2025 30.9733 32.925C31.1316 32.5867 31.0613 32.6036 31.3003 32.51C31.6186 32.3855 32.1023 32.3948 32.2643 31.9666C31.8082 31.8374 31.778 31.9872 31.3876 32.1213L32.6777 29.339C33.5385 27.6828 33.4516 27.2094 34.6702 27.1065C34.5616 27.634 34.0733 29.2321 33.7735 29.4937L33.7735 29.4941ZM35.174 25.8799C35.1149 26.279 34.9596 26.4748 34.8723 26.8832L33.9009 26.841C34.1286 26.1243 33.9467 26.5383 34.4742 26.2641C34.8264 26.0805 34.7534 25.9859 35.174 25.88L35.174 25.8799ZM18.9283 24.159C18.6471 24.0335 18.7586 24.0803 18.7015 23.908L18.9283 24.159ZM30.8457 23.0629C31.9333 21.9856 31.5117 21.5105 32.7456 21.4973L33.4248 23.0104C33.0434 23.3384 31.2335 24.1205 30.6226 24.3735L30.3079 23.6747L30.8457 23.0629ZM16.9405 22.5101C17.3378 22.3096 17.2917 22.5251 17.5065 22.1934C17.1682 21.9959 17.0952 22.1157 16.6201 22.0968L16.2642 21.487C17.2565 20.7527 17.2077 21.2987 17.6648 22.2213C17.7707 22.4357 18.1753 23.0907 18.2783 23.2218C17.8361 23.0615 18.3081 23.0485 17.6103 22.9436C17.2654 22.8922 17.0755 22.8387 16.9404 22.5097L16.9405 22.5101ZM32.401 20.7178C32.5892 20.9482 32.5573 20.9137 32.6174 21.2679L32.0683 21.4272L32.401 20.7181L32.401 20.7178ZM15.8884 20.817C16.1018 20.6371 16.0852 20.6428 16.4056 20.578C16.784 20.5013 16.5865 20.4449 16.8195 20.7111L16.0364 21.1035L15.8884 20.8167V20.817ZM32.9406 21.1158C32.358 20.3101 32.8825 19.9599 33.0409 19.1177C33.3098 19.3819 33.4157 19.7228 33.5289 20.1218C33.1561 20.2652 33.2882 20.162 33.084 20.4993L33.6846 20.3147L33.8672 20.7954L32.9406 21.1158ZM34.0677 20.0591C34.4322 19.7208 35.278 19.2674 35.7455 19.1784C35.4616 21.2346 34.6457 23.9618 33.8904 25.8966L31.715 30.6003C31.5294 30.9535 31.1649 31.0697 30.7808 31.1607L30.3668 30.0244C30.3884 30.0074 30.4193 29.9869 30.4352 29.9776L31.3392 29.5905C31.7608 29.4311 31.9052 29.391 32.112 29.0723C31.9408 28.5776 31.7382 28.5551 31.5012 27.7324C31.9573 27.4804 33.0648 27.3606 33.2149 26.849C32.8318 26.6007 32.0167 27.2603 31.3788 27.3426L31.1756 26.3195C31.9889 25.6273 33.8689 25.4978 34.1043 24.4139C33.424 24.3831 31.8737 25.7903 31.3648 25.8747C31.082 25.8089 31.2852 25.8551 31.0959 25.7246L30.9293 25.5832C30.5977 26.1648 31.3556 26.044 29.5672 26.5004L29.0341 25.2506C30.4692 24.9734 29.94 24.6397 30.7617 24.9451C30.7843 24.4628 30.9426 24.5318 31.4718 24.3184C31.7792 24.1946 32.0169 24.0767 32.3376 23.9193C34.2092 23.0011 33.1562 23.4798 34.1259 23.6617L33.9347 23.0848C34.3347 22.7568 34.7882 22.7521 34.6588 22.2977C34.2607 22.1054 34.1717 22.5111 33.8016 22.8072C33.4982 22.5722 33.0869 21.815 33.0879 21.4067C34.0744 20.8211 34.1286 21.2241 34.4227 21.3888C34.432 21.3662 34.436 21.3297 34.4377 21.3157C34.4722 20.9446 34.4141 21.0601 34.3769 20.8792C34.7929 20.6478 35.0926 20.6083 35.237 20.2122C34.584 20.1522 34.3142 21.1454 33.9572 20.1814L34.0678 20.0585L34.0677 20.0591ZM16.2302 18.8216C16.2657 18.873 16.2106 18.7326 16.3387 19.0118L16.4755 19.5449C16.4672 19.9928 16.4154 19.3424 16.4297 19.9562C16.4317 20.0266 16.4672 20.1548 16.4868 20.2447C16.0765 20.3244 15.6343 20.5315 15.6153 20.2792C15.5865 19.8716 16.036 20.0133 16.3583 19.6525C16.2282 19.5794 16.4961 19.5363 16.0134 19.5532C15.7239 19.5635 15.5264 19.8185 15.3418 19.9589L15.1469 19.5187C15.7202 19.3115 15.4215 19.0812 16.1475 19.0662L16.2298 18.8216L16.2302 18.8216ZM33.9819 17.3387L34.438 18.3196L33.5901 18.7001C33.7362 18.8229 33.5705 18.792 33.8693 18.7824L34.6355 18.5988L34.8603 19.1233C34.689 19.291 33.9994 19.7471 33.795 19.8494C33.291 18.7505 33.2207 19.054 33.2319 17.5402L33.9815 17.3387L33.9819 17.3387ZM35.1743 25.8797C34.9495 25.472 35.0169 25.8236 34.601 25.5507L35.5095 24.8031C35.1029 24.6822 34.9475 24.891 34.5923 25.058L34.9475 23.7803C35.0458 23.6455 35.5115 23.8832 35.9604 23.2836C35.6493 23.2245 35.327 23.4486 35.0375 23.5901C35.3964 22.3863 35.3147 22.7525 35.6427 22.5735C35.9255 22.4182 36.4016 22.2814 36.5085 22.0095C36.0746 21.7838 35.8622 22.0912 35.5033 22.2718C35.7639 21.2918 36.0607 21.8362 36.5872 21.2403C36.2735 21.0932 36.1394 21.2038 35.819 21.2665C35.8911 20.4701 36.3492 20.9395 36.7399 20.3935C36.4365 20.2202 36.2957 20.3859 35.9522 20.4685C36.1245 19.5981 36.6838 20.0768 36.9518 19.5466C36.6314 19.4268 36.3907 19.5446 36.0963 19.6515C36.5411 16.4698 36.1693 17.3114 37.4003 17.004L37.3761 17.8539C37.1045 17.9701 37.1108 17.8848 36.8738 17.9598C36.5422 18.0647 36.7154 17.9372 36.5339 18.1716L36.6839 18.2483C36.7101 18.2549 36.7393 18.2679 36.7702 18.2725C36.8021 18.2782 36.8303 18.2808 36.8658 18.2828C36.8685 18.2838 37.3146 18.2211 37.3362 18.2181C37.3296 19.3422 37.1321 20.4403 36.7974 21.3894C36.6427 21.8239 36.6082 22.4078 36.4555 22.8517C36.3048 23.2893 36.1239 23.605 35.9881 24.0621C35.4954 23.8589 34.9294 24.0647 34.8667 24.6384C35.3922 24.6307 35.3145 24.3741 35.8749 24.1988C35.7464 24.7536 35.519 25.5835 35.1751 25.8796L35.1743 25.8797ZM16.2303 18.8216C15.4312 18.64 15.5746 19.0051 14.9273 19.2159L14.6527 17.5361C14.9329 17.3545 15.4153 17.0734 15.8256 17.1315L15.9866 17.8349C15.6991 18.057 15.0976 17.6915 14.8416 18.2771C15.1234 18.4215 15.7074 18.2406 16.126 18.219L16.2299 18.8215L16.2303 18.8216ZM33.2868 17.2713C33.2363 16.9144 33.3083 16.4918 33.4498 16.2043C33.6466 16.4639 33.7572 16.7072 33.803 17.1123L33.2868 17.2716V17.2713ZM14.9002 16.4373C15.2853 16.2106 15.3368 16.0121 15.8391 16.1206L15.8577 16.6574C15.3491 16.7305 15.0005 16.9516 14.6725 17.167L14.6277 16.5834L14.9002 16.4373ZM14.6191 15.4189C14.6406 15.403 14.6715 15.3824 14.6864 15.3731L14.8889 15.2502C15.4211 14.9355 15.2767 14.9223 15.6319 14.9159L15.7292 15.7592C14.8428 15.8322 15.1661 15.9952 14.5723 16.278L14.6191 15.4189ZM23.404 7.01267C23.9511 6.93764 26.7532 7.02495 27.3657 7.34232C29.5109 8.45443 29.8532 9.19542 31.0755 10.2989C32.6334 11.7041 32.5614 13.0287 32.8668 15.0955C32.9793 15.8498 32.7928 16.2103 32.7788 17.0047C32.7675 17.6653 32.0621 19.8677 31.77 20.4877C31.3251 21.4328 30.5201 22.2987 29.8203 22.9882C29.2948 23.507 29.0906 23.5147 28.4536 23.8443C27.778 24.1939 26.1039 25.0099 25.3238 25.0706C24.6362 25.1251 23.9335 25.1991 23.2871 25.2316C22.4207 25.2758 20.6217 24.7868 19.9537 24.3818C18.8719 23.7278 18.5119 23.0084 17.9459 21.9421C17.1645 20.4675 16.4255 18.8196 16.2579 17.0591C16.0395 14.7762 15.7828 14.0677 17.1011 11.7509C17.9217 10.3061 17.8852 9.43503 20.0401 8.02216C21.4977 7.06675 21.4642 7.27721 23.4043 7.01126L23.404 7.01267ZM36.5129 15.2071C37.0328 14.9505 37.2101 15.2353 37.4431 14.9213C37.6257 15.2781 37.6745 15.0879 37.6406 15.5676C37.6705 14.8595 37.5938 15.2283 37.4955 15.3286C37.4657 15.3904 37.3455 16.5436 37.3747 16.8145L36.5484 16.6797C36.4399 16.453 36.4574 16.5907 36.5006 16.2262C37.1207 16.0453 37.0235 16.3348 37.2446 15.948C36.9823 15.7475 37.2117 15.8946 36.8625 15.8216L36.5823 15.7635C36.5663 15.7306 36.5242 15.7475 36.4933 15.7362L36.5129 15.2071ZM36.3602 14.1833C37.0703 14.2162 37.2867 14.0548 37.3926 14.752L36.4877 14.7277L36.3602 14.1833ZM34.8255 15.1016C34.4872 15.4173 34.0928 15.735 33.5653 15.8538C33.1935 15.0883 33.1211 14.172 33.0106 13.1642C33.3545 13.2372 33.4265 13.303 33.6327 13.5662L34.8251 15.1016L34.8255 15.1016ZM33.7246 16.0075C35.7427 15.4322 36.2035 13.9071 34.8152 14.7334C34.6465 14.3586 34.4039 14.1704 34.1801 13.7899L35.1704 13.3029C35.1468 13.2889 35.1123 13.2787 35.0953 13.274L34.862 13.2299C34.5997 13.2335 34.2531 13.4689 33.9139 13.5137C33.7472 13.2206 33.7529 13.3265 33.6768 12.9789L35.4897 12.6612C36.1427 14.6062 36.1885 15.8202 35.991 17.8167C35.8861 18.8877 36.0707 18.7854 35.1385 18.9298L34.8892 18.4754C35.3895 17.9611 35.4559 18.482 35.7802 17.5303C35.174 17.5698 35.3559 17.845 34.7617 18.1242C34.5556 17.8572 34.4142 17.6059 34.2671 17.1853C35.0064 17.0403 35.6723 16.8152 35.662 16.1838C35.2574 16.2661 35.5936 16.2933 34.9078 16.6455C34.5931 16.8066 34.4337 16.8424 34.1124 16.9715L33.7246 16.0075ZM36.3469 13.9081C36.1962 13.1698 36.7552 13.9333 37.1068 13.3029C36.6553 12.9975 36.5792 13.3029 36.1782 13.0911C36.0939 12.7847 36.061 12.545 37.1336 12.7097C37.2046 13.0732 37.2544 13.5499 37.2574 13.9294C36.8508 13.8733 36.5932 13.788 36.3468 13.9078L36.3469 13.9081ZM15.2017 12.9261C15.7677 12.8746 15.5569 12.8361 16.0881 12.6546C15.8547 13.9632 15.7219 13.4144 14.9744 14.2351C15.5271 14.3184 15.3087 14.1292 15.8345 13.9157C15.7651 14.5687 15.8402 14.3908 15.3213 14.6325C15.057 14.7553 14.8857 14.9754 14.6992 15.0335C14.911 14.5183 14.7815 14.507 14.8754 13.9646C14.9362 13.6093 15.0909 13.2946 15.2024 12.9265L15.2017 12.9261ZM33.3409 11.4159C33.5255 11.6699 33.4814 11.5311 33.6155 11.8422L32.7985 12.2226L32.5435 11.5182L33.3409 11.4159ZM15.3827 12.6714C15.722 11.9172 15.719 11.4358 16.8461 11.0939C16.6625 12.1609 16.0573 12.1552 15.3827 12.6714ZM34.5086 10.245C34.8778 10.9129 35.3555 11.4554 35.3817 12.3783C33.4725 12.4898 33.7507 13.1717 33.1681 12.456L33.4566 12.2236C34.0787 11.8704 34.2248 12.2395 34.5434 12.3687C34.4412 12.0483 34.4442 12.0961 34.2792 11.871C34.7655 11.7943 34.5471 11.8119 34.6802 11.5497C34.2194 11.5563 34.1218 11.6416 33.8088 11.4889C33.8473 10.7788 34.3286 11.4046 34.6274 10.7629C34.0259 10.4435 33.431 11.6025 32.9354 10.6431L34.5083 10.245L34.5086 10.245ZM16.785 10.2476C17.2282 10.2908 17.0313 10.3798 17.3762 10.1607C17.0307 10.8173 17.0887 10.736 16.3325 10.9524C16.4842 10.6779 16.6061 10.4764 16.785 10.248L16.785 10.2476ZM34.1687 9.97112C33.8556 9.79683 33.7265 9.66935 33.5954 9.31812C33.9177 9.3407 33.8258 9.32377 34.0123 9.58901C34.1687 9.81276 34.1415 9.68628 34.1687 9.97112H34.1687ZM34.7457 8.5828L35.0531 8.96324C34.6839 9.1704 34.5405 8.70763 34.4329 9.28094C34.7158 9.44294 35.0202 9.39414 35.3838 9.45988C35.2403 9.84496 35.4512 9.41872 35.2274 9.65209C35.0017 9.88812 35.0408 9.59134 34.9406 10.0222L35.8907 10.2254C35.9047 10.2254 35.9405 10.2188 35.9525 10.2188L36.966 12.3952L35.8615 12.3709C35.6106 10.9826 36.0481 12.0207 36.5484 11.8208C36.4106 11.224 35.8625 11.5549 35.3997 11.0666C35.8559 10.8651 35.6872 11.2306 36.0856 10.9746C35.7904 10.6075 35.6145 10.7771 35.2948 10.644C34.9771 10.5119 34.0655 8.98942 34.0047 8.74211L34.7457 8.5828ZM33.5738 9.10168C32.8299 8.96856 32.8411 8.74481 32.4458 8.32884L32.9657 8.24717C33.2701 8.56288 33.4958 8.67442 33.5738 9.1017L33.5738 9.10168ZM33.4699 8.12834C34.0658 7.93613 34.0572 7.968 34.5933 8.15722C34.2185 8.34545 34.2252 8.20967 33.8945 8.55991L33.4702 8.12801L33.4699 8.12834ZM17.276 9.58235C17.7145 9.01734 18.4273 8.28301 19.2967 8.0805C19.1636 8.33246 19.2525 8.20034 19.0643 8.42608C18.3383 9.29454 18.0395 9.62615 17.276 9.58205L17.276 9.58235ZM32.9659 7.61308L33.6827 7.61042C33.3942 7.88397 33.5017 7.632 33.3155 8.06025L32.9659 7.61341V7.61308ZM32.7345 6.71274C32.2054 6.67988 32.0271 6.8213 31.6825 6.61149C32.3458 6.22541 31.9514 6.86346 32.4965 6.54211C32.4142 6.27885 32.4975 6.31537 32.1854 6.21312C31.5427 6.00331 31.406 6.49596 30.8682 5.93759C31.5288 5.84762 31.7104 6.02855 32.1141 5.67633C32.7578 6.27387 33.7255 6.53909 34.0103 7.39362C33.4987 7.23626 33.0339 7.12937 32.6482 7.44607C32.4786 7.23328 32.4739 7.29702 32.3315 7.05268C33.4144 6.89732 33.1156 7.3591 33.5758 7.05833C33.4934 6.93085 33.6591 6.93184 33.2132 6.78744C33.0426 6.732 32.9191 6.7237 32.7345 6.71241L32.7345 6.71274ZM28.7034 5.76831C29.0274 5.68398 29.2747 5.54621 29.5635 5.49841C29.7301 5.62124 29.9662 5.77196 30.091 6.03986L29.0015 6.31075L28.7037 5.76831H28.7034ZM30.1518 5.36728C31.0942 5.26437 31.5411 5.18834 31.8203 5.61924C31.0464 5.70257 30.429 5.76265 30.1518 5.36728ZM27.1219 5.35798C27.7569 5.20163 27.8263 5.05622 28.0567 5.62024L27.413 5.78622L27.1215 5.35797L27.1219 5.35798ZM28.3801 5.49011C28.23 5.17706 28.2161 5.31782 28.2141 4.98418C29.1284 4.85405 28.9063 5.38222 28.9063 5.38421L28.3797 5.49011H28.3801ZM26.4885 5.15282C26.2767 5.3862 25.9593 5.45923 25.6379 5.53492C25.3511 5.34205 25.3053 5.28959 25.1526 5.04692C25.4338 4.85969 25.8899 4.79296 26.2617 4.85006L26.4885 5.15282ZM29.2409 4.83512C29.6605 4.70399 30.4692 4.77437 30.7819 4.96359C30.365 5.12759 29.712 5.2212 29.3382 4.94666L29.2409 4.83512ZM27.503 4.83512C26.9944 5.21092 26.7863 5.19099 26.613 4.72922C26.6787 4.6532 27.0037 4.51643 27.1282 4.51643C27.4701 4.51543 27.4101 4.58747 27.503 4.83479L27.503 4.83512ZM29.8451 4.41152C29.6904 4.49119 29.2353 4.56058 28.9684 4.58846C28.5813 4.62962 28.5375 4.51542 28.3772 4.31027C28.8091 4.27475 29.7422 4.35508 29.8451 4.41152ZM24.7908 4.72722C24.7513 4.68041 24.594 4.51277 24.5867 4.50414C24.4575 4.34113 24.5604 4.4882 24.433 4.26811C24.7862 4.19773 25.2639 4.00385 25.5729 4.25682C25.8624 4.49385 25.6666 4.34944 25.7838 4.58382L24.7908 4.72722ZM26.626 4.33483C26.0816 4.36205 26.2578 4.42579 25.9757 4.08751C26.1463 4.0978 26.1387 4.05929 26.3448 4.13166C26.8647 4.31258 26.4003 4.12801 26.626 4.33482L26.626 4.33483ZM23.1841 42.1158C22.8657 40.9579 21.5999 39.547 20.8832 38.4837C20.456 37.8493 20.292 37.8878 19.9746 37.4811C19.6609 37.0791 19.6111 36.5874 19.2337 36.2163C18.737 35.7283 18.8897 35.5802 18.574 34.9675C18.1083 34.0635 17.6681 33.3016 17.1874 32.4378C16.9344 31.9843 16.7977 31.5282 16.553 31.0608L14.5874 27.2029C14.4676 26.9134 14.4553 26.6445 14.3477 26.3786C14.2335 26.0967 14.1528 26.0808 14.0264 25.7611C13.8288 25.2635 13.7117 24.8562 13.558 24.3214C13.2592 23.276 12.1142 19.2296 12.0066 18.1391C11.8755 16.8218 11.5269 16.183 11.6113 14.6879C11.7593 12.0302 12.3841 10.7946 13.6592 8.94673C14.1164 8.28444 14.9194 7.43196 15.5282 6.89876C17.4899 5.18147 19.4462 4.1885 22.1544 3.81576C23.0783 3.68828 23.1765 3.59732 23.7153 4.10159C23.4445 4.33197 23.3014 4.29845 22.981 4.406C23.1301 4.52319 22.9697 4.4631 23.2257 4.50891C23.7831 4.60818 22.7958 4.53049 23.4083 4.5192C23.6011 4.51555 23.6997 4.44617 23.8588 4.44883C24.1868 4.45347 24.2578 4.63805 24.448 4.81898C24.0347 5.15627 24.1333 4.7393 23.959 5.28175C24.4855 5.25187 24.4218 5.03907 24.8032 5.23594C25.1209 5.39993 25.6717 5.98719 25.9385 6.2272C26.1576 6.42472 26.2327 6.52697 26.5935 6.52233C26.4418 6.17011 26.5241 6.38921 26.2433 6.13923C25.8957 5.83017 26.0886 6.10073 25.9266 5.71563L26.8166 5.46267L27.0547 5.84111C26.6248 5.88062 26.7071 5.78202 26.6443 6.04727C27.4378 6.13259 27.1051 5.95532 27.6495 6.41278L27.7545 5.96793L28.3832 5.88826L28.6634 6.38854C28.2345 6.60963 28.284 6.39418 28.0967 6.72482C28.4433 6.8596 28.686 6.62756 28.9615 6.72682C29.3297 6.86093 29.1199 7.10526 29.6192 7.11855C29.4741 6.78226 29.4834 7.00535 29.3214 6.59967L30.2798 6.30189C30.6207 6.1286 30.8484 6.42638 31.0977 6.68034C31.2176 6.80317 31.1651 6.72914 31.2428 6.84698C30.6891 7.12352 29.3363 7.15704 29.3815 7.86052C29.7928 7.81271 29.6205 7.65801 30.1224 7.51295C30.383 7.43792 30.794 7.41468 31.1117 7.35459C32.0908 7.17201 32.0569 7.42962 32.5797 7.86981C31.4573 8.19017 32.2461 7.75263 31.3713 7.70782C31.3534 8.20611 31.3779 7.87281 31.5174 8.35052C30.9955 8.43583 31.1997 8.28213 31.0639 8.64564C31.5509 8.87603 31.4639 8.41127 32.0598 8.55202C32.3184 8.61277 32.6388 8.92383 32.7991 9.17513C32.4177 9.52736 32.1451 9.30062 31.9045 9.79061C32.5416 9.83941 32.8871 9.1685 33.3977 9.65483L33.7303 10.0728C32.2192 10.6039 33.1534 10.4194 32.0684 10.2235C32.1162 10.8991 32.43 10.6806 32.8469 11.0807C32.7101 11.1932 33.069 11.15 32.5857 11.2287C32.3045 11.2735 32.2006 10.9834 32.0356 10.7218C31.5708 9.99113 30.7794 9.35507 30.1384 8.80301C29.3861 8.15566 28.9881 7.65639 27.9192 7.21787C25.9864 6.42611 24.6777 6.49284 22.673 6.50014C21.711 6.50379 20.9856 6.79427 20.1998 7.12325C19.2912 7.5037 18.936 7.28924 18.0346 8.02622C16.7174 9.10349 16.1806 9.95436 15.3984 11.4233C14.675 12.7808 15.0292 11.4794 14.4437 13.537C13.9706 15.2035 13.9454 17.3142 14.4437 18.9913C14.9871 20.8162 15.6663 21.5021 16.7379 22.8362C16.958 23.1098 17.2223 23.5201 17.4629 23.7056C18.2603 24.3185 19.3768 25.167 20.3953 25.3021L19.9362 24.9572C21.6385 25.3721 21.674 26.6529 25.3118 25.7881C29.0966 24.8877 28.839 24.2209 29.9943 23.8009L30.3127 24.5505C29.3785 24.9794 27.7624 25.2373 26.9335 25.7917C27.2651 26.0417 28.1963 25.5208 28.602 25.4179C28.8576 25.6436 29.1322 26.2066 29.2062 26.5316C28.6807 26.838 27.8487 26.7809 27.2611 26.9336C27.8653 27.239 30.1287 26.5824 30.865 26.3958L31.0635 27.5219L29.8718 27.9697C29.5906 27.578 29.9571 27.6839 29.5541 27.3682C29.423 27.668 29.5222 27.6746 29.5345 28.1101L27.2645 28.8428L28.3494 28.7303L28.5874 30.2527L27.3658 30.5329C27.2947 30.2491 27.3103 29.9858 27.1204 29.7919C26.9349 30.1066 27.0388 30.2115 27.0803 30.6464L25.4463 31.083C25.7912 31.3472 25.6899 31.1859 25.8333 31.1832C26.241 31.1739 26.7542 30.9648 27.1141 30.8911L27.4523 32.2476C26.0893 32.9361 26.3844 32.4172 26.2636 31.8495C26.1819 31.4618 26.2759 31.7513 26.168 31.5909C26.0003 31.8505 25.989 32.2187 26.1192 32.9258C26.2061 33.3952 26.2832 33.7212 26.3429 34.1819L25.4699 34.316C25.3912 33.9768 25.3726 33.5499 25.2149 33.2733C24.9038 33.7829 25.1558 33.2235 25.1034 33.6275C25.0967 33.68 25.1044 33.9827 25.109 34.0435C25.1691 34.7658 25.4911 35.4142 25.6309 36.0857L24.533 36.3676L24.3063 36.0884C24.1931 36.4303 24.4384 35.8328 24.2585 36.2524C24.1413 36.5259 24.384 36.3666 24.0713 36.4987C24.46 36.7254 24.6539 37.2885 24.5463 37.8036C24.1473 37.8382 24.2223 37.9086 23.9129 37.7841C23.7114 37.7034 23.7735 37.6025 23.57 37.5835C23.4239 38.2757 23.6476 38.6001 23.7695 39.2324L23.2383 39.6756L23.9139 39.5837L24.2887 40.8232L23.9674 41.0911C23.9972 41.0994 24.0264 41.1034 24.0573 41.1127C24.0872 41.121 24.1174 41.122 24.1473 41.1307L24.4723 41.2432C24.373 41.3461 24.4517 41.2834 24.3 41.3876C24.1868 41.4653 24.3797 41.3481 24.1699 41.4673C24.0377 41.5433 23.9571 41.5619 23.8146 41.6416C23.6424 41.7388 23.6198 41.768 23.5036 41.8607L23.2536 42.0658C23.2423 42.0452 23.2095 42.1013 23.1852 42.1163L23.1841 42.1158ZM28.3668 3.88271C27.8948 4.44208 27.4243 4.02147 26.8577 3.81631L28.3668 3.88271ZM25.5301 3.49032L26.8998 3.48832C26.7332 3.63074 26.6807 3.66925 26.4802 3.79108L25.5301 3.49032ZM24.5793 44.9605C25.2333 44.7338 25.4776 44.6103 25.9039 44.1548C27.4787 42.475 26.7959 44.4592 27.743 41.762C28.1507 40.6004 28.725 39.8425 29.1885 38.8672L29.9802 37.4338C30.4888 36.5673 31.0096 35.4439 31.4482 34.5596C32.0719 33.3004 34.0498 30.0036 34.4047 28.9432C34.8047 27.7488 35.217 26.9411 35.6638 25.8618L36.8198 22.6878C37.1129 21.6049 37.3802 20.3325 37.6179 19.2655C37.7752 18.56 38.0206 16.4411 37.9588 15.565C37.8005 13.3457 36.8477 10.5379 35.7751 9.09147C34.4187 7.26259 34.3473 7.01826 32.8062 5.60445C32.4298 5.25886 31.8721 5.06566 31.3871 4.80174C29.4646 3.75702 27.2414 2.76609 24.4807 3.04892C20.5196 3.45359 18.1251 4.14608 15.1808 6.65679C14.7827 6.99607 13.4758 8.40859 13.1467 8.96133C9.86783 14.4661 10.9331 16.2173 12.4741 22.4306C12.8612 23.9896 14.0152 27.1616 14.7442 28.7431C15.2209 29.7765 15.757 30.6738 16.1982 31.6296C16.6815 32.6769 17.1247 33.6055 17.7017 34.4673C18.0287 34.9573 18.1794 35.2757 18.5027 35.7836C18.8035 36.2586 18.911 36.7785 19.2626 37.2433C20.5217 38.9097 22.9528 42.915 23.5975 43.7074L24.5795 44.9609L24.5793 44.9605Z"/>
</mask>
<path fill-rule="evenodd" clip-rule="evenodd" d="M25.7852 43.0884C25.8921 42.5666 25.8141 42.8205 26.0727 42.7007C25.9761 42.9454 26.0382 42.8139 25.8984 42.9875C25.8835 43.0061 25.8075 43.0616 25.7852 43.0888V43.0884ZM23.9922 41.9229C24.1984 41.8057 24.3717 41.7141 24.6319 41.7101C24.8643 42.3219 24.7866 42.1918 24.6648 42.7482C25.0725 42.7097 24.9785 42.6293 25.2258 42.7246C25.1395 43.0994 24.8716 43.5283 24.6442 43.8404C24.4118 43.5725 24.2103 43.3786 23.9799 43.1087L23.3269 42.3246L23.9922 41.9226L23.9922 41.9229ZM26.5358 41.8246C26.7851 41.5099 27.1055 41.2297 27.5991 41.0903C27.304 42.3346 26.7513 42.8225 26.0495 43.4549C25.8331 43.6498 25.6468 43.7912 25.4367 43.9589C25.4948 43.4081 26.0718 43.3434 26.4316 42.8879C26.7407 42.4971 26.5186 42.4626 26.752 42.1429C26.9591 41.8581 27.064 41.966 27.2128 41.5557C26.825 41.6729 26.988 41.7675 26.5355 41.8246L26.5358 41.8246ZM26.1677 41.2344C26.0983 41.6035 25.7949 42.0699 25.5306 42.2668C25.2298 42.0709 25.2514 42.0683 25.0858 41.6662C25.275 41.552 24.8544 41.6616 25.3809 41.5351C26.418 41.2858 25.7378 41.39 26.168 41.2343L26.1677 41.2344ZM24.8205 41.1371C24.8759 40.8831 24.8026 40.9695 25.0266 40.8503C25.7331 40.4791 25.7517 41.0405 25.8137 41.2055C25.0887 41.1869 25.0897 41.3506 24.8208 41.1371H24.8205ZM26.1677 41.2344L26.0345 40.515L26.6059 40.3643C26.5401 40.5668 26.5076 40.667 26.4156 40.8682L26.1673 41.2344L26.1677 41.2344ZM26.7533 41.1846C26.7712 40.9502 26.9136 40.5711 27.1121 40.3938L27.8551 39.8597L26.7533 41.1842L26.7533 41.1846ZM25.11 39.1947L25.4801 40.2899L24.5573 40.6515L24.1825 39.5094L25.11 39.1947ZM24.1927 39.2229C23.9753 39.0364 24.1917 39.3747 23.9886 38.971L23.8492 38.0866L24.7814 38.0631L24.9819 38.8395L24.1931 39.2226L24.1927 39.2229ZM25.0864 38.0677C25.362 37.8907 25.8218 37.8081 26.1996 37.7387L26.3496 38.2811C26.109 38.478 25.6993 38.6473 25.2837 38.7167L25.0868 38.0673L25.0864 38.0677ZM28.7411 37.3174L29.1335 37.5827L29.5505 37.3898L29.3742 37.8731C29.1362 37.9425 29.1325 37.8705 28.9423 37.7878C28.769 38.0212 28.4477 38.2685 28.3454 38.4511C28.0981 38.8933 28.4072 38.7817 27.8282 39.1004L28.7408 37.3177L28.7411 37.3174ZM25.7461 36.362L26.0582 37.4506L24.9105 37.7241L24.622 36.5512L25.7461 36.362ZM27.7539 37.757C28.1081 37.0694 27.2911 37.5003 28.5596 36.8387C28.2794 37.3878 28.0434 37.917 27.7296 38.4717C27.4149 39.0291 27.0262 39.4722 26.8376 40.1458C26.2288 40.0465 26.3646 40.1103 25.8042 40.2132L25.4238 39.0413L26.3776 38.6901C26.3925 38.7137 26.4048 38.7492 26.4114 38.7668L26.4722 38.9221C26.6943 39.533 26.505 39.2969 26.8012 39.4739C27.0495 39.1283 26.8151 38.9371 26.7842 38.4949C27.5581 38.3468 27.4701 38.3554 27.6284 38.0912L26.6309 38.1483L26.5137 37.7502C27.0741 37.072 27.6587 37.722 27.754 37.7569L27.7539 37.757ZM26.8993 36.0144L27.1965 37.0993L26.3496 37.3241C26.2155 37.0057 26.0807 36.6515 26.0771 36.2392L26.8997 36.0144H26.8993ZM27.8587 34.006C28.0423 34.2928 27.8983 34.0192 28.0105 34.3293L28.2033 35.1294C27.7313 35.2698 27.5719 35.4759 27.0182 35.5566L26.7503 34.3349L27.8584 34.006H27.8587ZM30.6769 35.1443C30.7124 34.8203 30.7462 34.8163 31.0224 34.6889C30.9325 34.892 30.8764 35.0879 30.6769 35.1443ZM26.4668 34.4575L26.7712 35.7279C26.1013 36.0015 26.2138 35.8684 25.8663 35.9022L25.5459 34.5803L26.4668 34.4575ZM27.5702 32.5406L27.7877 33.7181L26.6952 34.0225C26.4834 33.6945 26.4592 33.2055 26.3795 32.784L27.5703 32.5403L27.5702 32.5406ZM29.1039 32.1509L29.3503 33.0054L28.126 33.5057L27.8694 32.4527L29.1039 32.1509ZM29.4376 32.0357C29.8921 31.7847 30.7519 31.5514 31.2372 31.408C30.9159 32.1463 29.2136 36.289 28.6581 36.5127L27.5434 36.9024L27.1612 35.9327C27.5042 35.693 27.9792 35.5666 28.4015 35.4202C28.7255 35.3086 29.1305 35.0381 29.2391 34.5696C28.7312 34.6241 29.0041 34.7373 28.5151 34.7728L28.2143 33.8509L29.4473 33.328C29.8211 33.6268 29.5558 33.746 30.0514 33.7028C29.8519 32.9778 29.6252 33.343 30.1646 32.8945C29.8489 32.6173 29.8602 32.9253 29.6083 32.6143C29.5219 32.5084 29.4632 32.1797 29.4376 32.0353L29.4376 32.0357ZM28.675 30.5591L29.003 31.8604L27.7475 32.1575L27.4318 30.8329L28.6751 30.5594L28.675 30.5591ZM29.9763 30.1133C30.2067 30.4094 30.3491 30.9611 30.4447 31.3257L29.3018 31.6918L28.9496 30.4459L29.9763 30.1133ZM29.6005 28.4139L29.9435 29.8078L28.8755 30.0937L28.6189 28.6257L29.6009 28.4139L29.6005 28.4139ZM31.1343 27.8386L31.5625 29.1821L30.294 29.6326C30.0909 29.3159 29.9587 28.7632 29.8966 28.2978L31.1343 27.8386ZM33.7735 29.4941L33.4558 30.1179C33.1268 30.5478 33.4979 30.1853 32.9283 30.4372C32.7098 30.5338 31.8959 31.0106 32.2042 31.2927C32.5492 31.4228 32.5472 30.9637 33.0491 30.7981C32.9489 31.304 32.1674 32.5011 31.9138 33.0213C31.4417 33.989 31.2346 34.2243 30.2695 34.6748L30.2931 35.4477C29.6401 35.8308 29.5202 35.9084 29.5727 36.3433C30.1414 36.3629 29.7629 36.1823 30.3953 35.8354C30.239 36.257 29.9963 36.6627 29.6759 36.8921C29.5458 36.7039 29.5943 37.0561 29.6431 36.506C29.4472 36.5883 29.3752 36.6614 29.2148 36.5857L30.1928 34.5799C30.2669 34.4298 30.3641 34.2024 30.4411 34.0889C30.7071 33.6965 31.0782 34.0534 31.5944 33.3048C31.3743 33.168 31.8474 33.1809 31.2647 33.2231C31.0417 33.239 30.8797 33.3834 30.7635 33.5594C30.7711 33.2971 30.8431 33.2025 30.9733 32.925C31.1316 32.5867 31.0613 32.6036 31.3003 32.51C31.6186 32.3855 32.1023 32.3948 32.2643 31.9666C31.8082 31.8374 31.778 31.9872 31.3876 32.1213L32.6777 29.339C33.5385 27.6828 33.4516 27.2094 34.6702 27.1065C34.5616 27.634 34.0733 29.2321 33.7735 29.4937L33.7735 29.4941ZM35.174 25.8799C35.1149 26.279 34.9596 26.4748 34.8723 26.8832L33.9009 26.841C34.1286 26.1243 33.9467 26.5383 34.4742 26.2641C34.8264 26.0805 34.7534 25.9859 35.174 25.88L35.174 25.8799ZM18.9283 24.159C18.6471 24.0335 18.7586 24.0803 18.7015 23.908L18.9283 24.159ZM30.8457 23.0629C31.9333 21.9856 31.5117 21.5105 32.7456 21.4973L33.4248 23.0104C33.0434 23.3384 31.2335 24.1205 30.6226 24.3735L30.3079 23.6747L30.8457 23.0629ZM16.9405 22.5101C17.3378 22.3096 17.2917 22.5251 17.5065 22.1934C17.1682 21.9959 17.0952 22.1157 16.6201 22.0968L16.2642 21.487C17.2565 20.7527 17.2077 21.2987 17.6648 22.2213C17.7707 22.4357 18.1753 23.0907 18.2783 23.2218C17.8361 23.0615 18.3081 23.0485 17.6103 22.9436C17.2654 22.8922 17.0755 22.8387 16.9404 22.5097L16.9405 22.5101ZM32.401 20.7178C32.5892 20.9482 32.5573 20.9137 32.6174 21.2679L32.0683 21.4272L32.401 20.7181L32.401 20.7178ZM15.8884 20.817C16.1018 20.6371 16.0852 20.6428 16.4056 20.578C16.784 20.5013 16.5865 20.4449 16.8195 20.7111L16.0364 21.1035L15.8884 20.8167V20.817ZM32.9406 21.1158C32.358 20.3101 32.8825 19.9599 33.0409 19.1177C33.3098 19.3819 33.4157 19.7228 33.5289 20.1218C33.1561 20.2652 33.2882 20.162 33.084 20.4993L33.6846 20.3147L33.8672 20.7954L32.9406 21.1158ZM34.0677 20.0591C34.4322 19.7208 35.278 19.2674 35.7455 19.1784C35.4616 21.2346 34.6457 23.9618 33.8904 25.8966L31.715 30.6003C31.5294 30.9535 31.1649 31.0697 30.7808 31.1607L30.3668 30.0244C30.3884 30.0074 30.4193 29.9869 30.4352 29.9776L31.3392 29.5905C31.7608 29.4311 31.9052 29.391 32.112 29.0723C31.9408 28.5776 31.7382 28.5551 31.5012 27.7324C31.9573 27.4804 33.0648 27.3606 33.2149 26.849C32.8318 26.6007 32.0167 27.2603 31.3788 27.3426L31.1756 26.3195C31.9889 25.6273 33.8689 25.4978 34.1043 24.4139C33.424 24.3831 31.8737 25.7903 31.3648 25.8747C31.082 25.8089 31.2852 25.8551 31.0959 25.7246L30.9293 25.5832C30.5977 26.1648 31.3556 26.044 29.5672 26.5004L29.0341 25.2506C30.4692 24.9734 29.94 24.6397 30.7617 24.9451C30.7843 24.4628 30.9426 24.5318 31.4718 24.3184C31.7792 24.1946 32.0169 24.0767 32.3376 23.9193C34.2092 23.0011 33.1562 23.4798 34.1259 23.6617L33.9347 23.0848C34.3347 22.7568 34.7882 22.7521 34.6588 22.2977C34.2607 22.1054 34.1717 22.5111 33.8016 22.8072C33.4982 22.5722 33.0869 21.815 33.0879 21.4067C34.0744 20.8211 34.1286 21.2241 34.4227 21.3888C34.432 21.3662 34.436 21.3297 34.4377 21.3157C34.4722 20.9446 34.4141 21.0601 34.3769 20.8792C34.7929 20.6478 35.0926 20.6083 35.237 20.2122C34.584 20.1522 34.3142 21.1454 33.9572 20.1814L34.0678 20.0585L34.0677 20.0591ZM16.2302 18.8216C16.2657 18.873 16.2106 18.7326 16.3387 19.0118L16.4755 19.5449C16.4672 19.9928 16.4154 19.3424 16.4297 19.9562C16.4317 20.0266 16.4672 20.1548 16.4868 20.2447C16.0765 20.3244 15.6343 20.5315 15.6153 20.2792C15.5865 19.8716 16.036 20.0133 16.3583 19.6525C16.2282 19.5794 16.4961 19.5363 16.0134 19.5532C15.7239 19.5635 15.5264 19.8185 15.3418 19.9589L15.1469 19.5187C15.7202 19.3115 15.4215 19.0812 16.1475 19.0662L16.2298 18.8216L16.2302 18.8216ZM33.9819 17.3387L34.438 18.3196L33.5901 18.7001C33.7362 18.8229 33.5705 18.792 33.8693 18.7824L34.6355 18.5988L34.8603 19.1233C34.689 19.291 33.9994 19.7471 33.795 19.8494C33.291 18.7505 33.2207 19.054 33.2319 17.5402L33.9815 17.3387L33.9819 17.3387ZM35.1743 25.8797C34.9495 25.472 35.0169 25.8236 34.601 25.5507L35.5095 24.8031C35.1029 24.6822 34.9475 24.891 34.5923 25.058L34.9475 23.7803C35.0458 23.6455 35.5115 23.8832 35.9604 23.2836C35.6493 23.2245 35.327 23.4486 35.0375 23.5901C35.3964 22.3863 35.3147 22.7525 35.6427 22.5735C35.9255 22.4182 36.4016 22.2814 36.5085 22.0095C36.0746 21.7838 35.8622 22.0912 35.5033 22.2718C35.7639 21.2918 36.0607 21.8362 36.5872 21.2403C36.2735 21.0932 36.1394 21.2038 35.819 21.2665C35.8911 20.4701 36.3492 20.9395 36.7399 20.3935C36.4365 20.2202 36.2957 20.3859 35.9522 20.4685C36.1245 19.5981 36.6838 20.0768 36.9518 19.5466C36.6314 19.4268 36.3907 19.5446 36.0963 19.6515C36.5411 16.4698 36.1693 17.3114 37.4003 17.004L37.3761 17.8539C37.1045 17.9701 37.1108 17.8848 36.8738 17.9598C36.5422 18.0647 36.7154 17.9372 36.5339 18.1716L36.6839 18.2483C36.7101 18.2549 36.7393 18.2679 36.7702 18.2725C36.8021 18.2782 36.8303 18.2808 36.8658 18.2828C36.8685 18.2838 37.3146 18.2211 37.3362 18.2181C37.3296 19.3422 37.1321 20.4403 36.7974 21.3894C36.6427 21.8239 36.6082 22.4078 36.4555 22.8517C36.3048 23.2893 36.1239 23.605 35.9881 24.0621C35.4954 23.8589 34.9294 24.0647 34.8667 24.6384C35.3922 24.6307 35.3145 24.3741 35.8749 24.1988C35.7464 24.7536 35.519 25.5835 35.1751 25.8796L35.1743 25.8797ZM16.2303 18.8216C15.4312 18.64 15.5746 19.0051 14.9273 19.2159L14.6527 17.5361C14.9329 17.3545 15.4153 17.0734 15.8256 17.1315L15.9866 17.8349C15.6991 18.057 15.0976 17.6915 14.8416 18.2771C15.1234 18.4215 15.7074 18.2406 16.126 18.219L16.2299 18.8215L16.2303 18.8216ZM33.2868 17.2713C33.2363 16.9144 33.3083 16.4918 33.4498 16.2043C33.6466 16.4639 33.7572 16.7072 33.803 17.1123L33.2868 17.2716V17.2713ZM14.9002 16.4373C15.2853 16.2106 15.3368 16.0121 15.8391 16.1206L15.8577 16.6574C15.3491 16.7305 15.0005 16.9516 14.6725 17.167L14.6277 16.5834L14.9002 16.4373ZM14.6191 15.4189C14.6406 15.403 14.6715 15.3824 14.6864 15.3731L14.8889 15.2502C15.4211 14.9355 15.2767 14.9223 15.6319 14.9159L15.7292 15.7592C14.8428 15.8322 15.1661 15.9952 14.5723 16.278L14.6191 15.4189ZM23.404 7.01267C23.9511 6.93764 26.7532 7.02495 27.3657 7.34232C29.5109 8.45443 29.8532 9.19542 31.0755 10.2989C32.6334 11.7041 32.5614 13.0287 32.8668 15.0955C32.9793 15.8498 32.7928 16.2103 32.7788 17.0047C32.7675 17.6653 32.0621 19.8677 31.77 20.4877C31.3251 21.4328 30.5201 22.2987 29.8203 22.9882C29.2948 23.507 29.0906 23.5147 28.4536 23.8443C27.778 24.1939 26.1039 25.0099 25.3238 25.0706C24.6362 25.1251 23.9335 25.1991 23.2871 25.2316C22.4207 25.2758 20.6217 24.7868 19.9537 24.3818C18.8719 23.7278 18.5119 23.0084 17.9459 21.9421C17.1645 20.4675 16.4255 18.8196 16.2579 17.0591C16.0395 14.7762 15.7828 14.0677 17.1011 11.7509C17.9217 10.3061 17.8852 9.43503 20.0401 8.02216C21.4977 7.06675 21.4642 7.27721 23.4043 7.01126L23.404 7.01267ZM36.5129 15.2071C37.0328 14.9505 37.2101 15.2353 37.4431 14.9213C37.6257 15.2781 37.6745 15.0879 37.6406 15.5676C37.6705 14.8595 37.5938 15.2283 37.4955 15.3286C37.4657 15.3904 37.3455 16.5436 37.3747 16.8145L36.5484 16.6797C36.4399 16.453 36.4574 16.5907 36.5006 16.2262C37.1207 16.0453 37.0235 16.3348 37.2446 15.948C36.9823 15.7475 37.2117 15.8946 36.8625 15.8216L36.5823 15.7635C36.5663 15.7306 36.5242 15.7475 36.4933 15.7362L36.5129 15.2071ZM36.3602 14.1833C37.0703 14.2162 37.2867 14.0548 37.3926 14.752L36.4877 14.7277L36.3602 14.1833ZM34.8255 15.1016C34.4872 15.4173 34.0928 15.735 33.5653 15.8538C33.1935 15.0883 33.1211 14.172 33.0106 13.1642C33.3545 13.2372 33.4265 13.303 33.6327 13.5662L34.8251 15.1016L34.8255 15.1016ZM33.7246 16.0075C35.7427 15.4322 36.2035 13.9071 34.8152 14.7334C34.6465 14.3586 34.4039 14.1704 34.1801 13.7899L35.1704 13.3029C35.1468 13.2889 35.1123 13.2787 35.0953 13.274L34.862 13.2299C34.5997 13.2335 34.2531 13.4689 33.9139 13.5137C33.7472 13.2206 33.7529 13.3265 33.6768 12.9789L35.4897 12.6612C36.1427 14.6062 36.1885 15.8202 35.991 17.8167C35.8861 18.8877 36.0707 18.7854 35.1385 18.9298L34.8892 18.4754C35.3895 17.9611 35.4559 18.482 35.7802 17.5303C35.174 17.5698 35.3559 17.845 34.7617 18.1242C34.5556 17.8572 34.4142 17.6059 34.2671 17.1853C35.0064 17.0403 35.6723 16.8152 35.662 16.1838C35.2574 16.2661 35.5936 16.2933 34.9078 16.6455C34.5931 16.8066 34.4337 16.8424 34.1124 16.9715L33.7246 16.0075ZM36.3469 13.9081C36.1962 13.1698 36.7552 13.9333 37.1068 13.3029C36.6553 12.9975 36.5792 13.3029 36.1782 13.0911C36.0939 12.7847 36.061 12.545 37.1336 12.7097C37.2046 13.0732 37.2544 13.5499 37.2574 13.9294C36.8508 13.8733 36.5932 13.788 36.3468 13.9078L36.3469 13.9081ZM15.2017 12.9261C15.7677 12.8746 15.5569 12.8361 16.0881 12.6546C15.8547 13.9632 15.7219 13.4144 14.9744 14.2351C15.5271 14.3184 15.3087 14.1292 15.8345 13.9157C15.7651 14.5687 15.8402 14.3908 15.3213 14.6325C15.057 14.7553 14.8857 14.9754 14.6992 15.0335C14.911 14.5183 14.7815 14.507 14.8754 13.9646C14.9362 13.6093 15.0909 13.2946 15.2024 12.9265L15.2017 12.9261ZM33.3409 11.4159C33.5255 11.6699 33.4814 11.5311 33.6155 11.8422L32.7985 12.2226L32.5435 11.5182L33.3409 11.4159ZM15.3827 12.6714C15.722 11.9172 15.719 11.4358 16.8461 11.0939C16.6625 12.1609 16.0573 12.1552 15.3827 12.6714ZM34.5086 10.245C34.8778 10.9129 35.3555 11.4554 35.3817 12.3783C33.4725 12.4898 33.7507 13.1717 33.1681 12.456L33.4566 12.2236C34.0787 11.8704 34.2248 12.2395 34.5434 12.3687C34.4412 12.0483 34.4442 12.0961 34.2792 11.871C34.7655 11.7943 34.5471 11.8119 34.6802 11.5497C34.2194 11.5563 34.1218 11.6416 33.8088 11.4889C33.8473 10.7788 34.3286 11.4046 34.6274 10.7629C34.0259 10.4435 33.431 11.6025 32.9354 10.6431L34.5083 10.245L34.5086 10.245ZM16.785 10.2476C17.2282 10.2908 17.0313 10.3798 17.3762 10.1607C17.0307 10.8173 17.0887 10.736 16.3325 10.9524C16.4842 10.6779 16.6061 10.4764 16.785 10.248L16.785 10.2476ZM34.1687 9.97112C33.8556 9.79683 33.7265 9.66935 33.5954 9.31812C33.9177 9.3407 33.8258 9.32377 34.0123 9.58901C34.1687 9.81276 34.1415 9.68628 34.1687 9.97112H34.1687ZM34.7457 8.5828L35.0531 8.96324C34.6839 9.1704 34.5405 8.70763 34.4329 9.28094C34.7158 9.44294 35.0202 9.39414 35.3838 9.45988C35.2403 9.84496 35.4512 9.41872 35.2274 9.65209C35.0017 9.88812 35.0408 9.59134 34.9406 10.0222L35.8907 10.2254C35.9047 10.2254 35.9405 10.2188 35.9525 10.2188L36.966 12.3952L35.8615 12.3709C35.6106 10.9826 36.0481 12.0207 36.5484 11.8208C36.4106 11.224 35.8625 11.5549 35.3997 11.0666C35.8559 10.8651 35.6872 11.2306 36.0856 10.9746C35.7904 10.6075 35.6145 10.7771 35.2948 10.644C34.9771 10.5119 34.0655 8.98942 34.0047 8.74211L34.7457 8.5828ZM33.5738 9.10168C32.8299 8.96856 32.8411 8.74481 32.4458 8.32884L32.9657 8.24717C33.2701 8.56288 33.4958 8.67442 33.5738 9.1017L33.5738 9.10168ZM33.4699 8.12834C34.0658 7.93613 34.0572 7.968 34.5933 8.15722C34.2185 8.34545 34.2252 8.20967 33.8945 8.55991L33.4702 8.12801L33.4699 8.12834ZM17.276 9.58235C17.7145 9.01734 18.4273 8.28301 19.2967 8.0805C19.1636 8.33246 19.2525 8.20034 19.0643 8.42608C18.3383 9.29454 18.0395 9.62615 17.276 9.58205L17.276 9.58235ZM32.9659 7.61308L33.6827 7.61042C33.3942 7.88397 33.5017 7.632 33.3155 8.06025L32.9659 7.61341V7.61308ZM32.7345 6.71274C32.2054 6.67988 32.0271 6.8213 31.6825 6.61149C32.3458 6.22541 31.9514 6.86346 32.4965 6.54211C32.4142 6.27885 32.4975 6.31537 32.1854 6.21312C31.5427 6.00331 31.406 6.49596 30.8682 5.93759C31.5288 5.84762 31.7104 6.02855 32.1141 5.67633C32.7578 6.27387 33.7255 6.53909 34.0103 7.39362C33.4987 7.23626 33.0339 7.12937 32.6482 7.44607C32.4786 7.23328 32.4739 7.29702 32.3315 7.05268C33.4144 6.89732 33.1156 7.3591 33.5758 7.05833C33.4934 6.93085 33.6591 6.93184 33.2132 6.78744C33.0426 6.732 32.9191 6.7237 32.7345 6.71241L32.7345 6.71274ZM28.7034 5.76831C29.0274 5.68398 29.2747 5.54621 29.5635 5.49841C29.7301 5.62124 29.9662 5.77196 30.091 6.03986L29.0015 6.31075L28.7037 5.76831H28.7034ZM30.1518 5.36728C31.0942 5.26437 31.5411 5.18834 31.8203 5.61924C31.0464 5.70257 30.429 5.76265 30.1518 5.36728ZM27.1219 5.35798C27.7569 5.20163 27.8263 5.05622 28.0567 5.62024L27.413 5.78622L27.1215 5.35797L27.1219 5.35798ZM28.3801 5.49011C28.23 5.17706 28.2161 5.31782 28.2141 4.98418C29.1284 4.85405 28.9063 5.38222 28.9063 5.38421L28.3797 5.49011H28.3801ZM26.4885 5.15282C26.2767 5.3862 25.9593 5.45923 25.6379 5.53492C25.3511 5.34205 25.3053 5.28959 25.1526 5.04692C25.4338 4.85969 25.8899 4.79296 26.2617 4.85006L26.4885 5.15282ZM29.2409 4.83512C29.6605 4.70399 30.4692 4.77437 30.7819 4.96359C30.365 5.12759 29.712 5.2212 29.3382 4.94666L29.2409 4.83512ZM27.503 4.83512C26.9944 5.21092 26.7863 5.19099 26.613 4.72922C26.6787 4.6532 27.0037 4.51643 27.1282 4.51643C27.4701 4.51543 27.4101 4.58747 27.503 4.83479L27.503 4.83512ZM29.8451 4.41152C29.6904 4.49119 29.2353 4.56058 28.9684 4.58846C28.5813 4.62962 28.5375 4.51542 28.3772 4.31027C28.8091 4.27475 29.7422 4.35508 29.8451 4.41152ZM24.7908 4.72722C24.7513 4.68041 24.594 4.51277 24.5867 4.50414C24.4575 4.34113 24.5604 4.4882 24.433 4.26811C24.7862 4.19773 25.2639 4.00385 25.5729 4.25682C25.8624 4.49385 25.6666 4.34944 25.7838 4.58382L24.7908 4.72722ZM26.626 4.33483C26.0816 4.36205 26.2578 4.42579 25.9757 4.08751C26.1463 4.0978 26.1387 4.05929 26.3448 4.13166C26.8647 4.31258 26.4003 4.12801 26.626 4.33482L26.626 4.33483ZM23.1841 42.1158C22.8657 40.9579 21.5999 39.547 20.8832 38.4837C20.456 37.8493 20.292 37.8878 19.9746 37.4811C19.6609 37.0791 19.6111 36.5874 19.2337 36.2163C18.737 35.7283 18.8897 35.5802 18.574 34.9675C18.1083 34.0635 17.6681 33.3016 17.1874 32.4378C16.9344 31.9843 16.7977 31.5282 16.553 31.0608L14.5874 27.2029C14.4676 26.9134 14.4553 26.6445 14.3477 26.3786C14.2335 26.0967 14.1528 26.0808 14.0264 25.7611C13.8288 25.2635 13.7117 24.8562 13.558 24.3214C13.2592 23.276 12.1142 19.2296 12.0066 18.1391C11.8755 16.8218 11.5269 16.183 11.6113 14.6879C11.7593 12.0302 12.3841 10.7946 13.6592 8.94673C14.1164 8.28444 14.9194 7.43196 15.5282 6.89876C17.4899 5.18147 19.4462 4.1885 22.1544 3.81576C23.0783 3.68828 23.1765 3.59732 23.7153 4.10159C23.4445 4.33197 23.3014 4.29845 22.981 4.406C23.1301 4.52319 22.9697 4.4631 23.2257 4.50891C23.7831 4.60818 22.7958 4.53049 23.4083 4.5192C23.6011 4.51555 23.6997 4.44617 23.8588 4.44883C24.1868 4.45347 24.2578 4.63805 24.448 4.81898C24.0347 5.15627 24.1333 4.7393 23.959 5.28175C24.4855 5.25187 24.4218 5.03907 24.8032 5.23594C25.1209 5.39993 25.6717 5.98719 25.9385 6.2272C26.1576 6.42472 26.2327 6.52697 26.5935 6.52233C26.4418 6.17011 26.5241 6.38921 26.2433 6.13923C25.8957 5.83017 26.0886 6.10073 25.9266 5.71563L26.8166 5.46267L27.0547 5.84111C26.6248 5.88062 26.7071 5.78202 26.6443 6.04727C27.4378 6.13259 27.1051 5.95532 27.6495 6.41278L27.7545 5.96793L28.3832 5.88826L28.6634 6.38854C28.2345 6.60963 28.284 6.39418 28.0967 6.72482C28.4433 6.8596 28.686 6.62756 28.9615 6.72682C29.3297 6.86093 29.1199 7.10526 29.6192 7.11855C29.4741 6.78226 29.4834 7.00535 29.3214 6.59967L30.2798 6.30189C30.6207 6.1286 30.8484 6.42638 31.0977 6.68034C31.2176 6.80317 31.1651 6.72914 31.2428 6.84698C30.6891 7.12352 29.3363 7.15704 29.3815 7.86052C29.7928 7.81271 29.6205 7.65801 30.1224 7.51295C30.383 7.43792 30.794 7.41468 31.1117 7.35459C32.0908 7.17201 32.0569 7.42962 32.5797 7.86981C31.4573 8.19017 32.2461 7.75263 31.3713 7.70782C31.3534 8.20611 31.3779 7.87281 31.5174 8.35052C30.9955 8.43583 31.1997 8.28213 31.0639 8.64564C31.5509 8.87603 31.4639 8.41127 32.0598 8.55202C32.3184 8.61277 32.6388 8.92383 32.7991 9.17513C32.4177 9.52736 32.1451 9.30062 31.9045 9.79061C32.5416 9.83941 32.8871 9.1685 33.3977 9.65483L33.7303 10.0728C32.2192 10.6039 33.1534 10.4194 32.0684 10.2235C32.1162 10.8991 32.43 10.6806 32.8469 11.0807C32.7101 11.1932 33.069 11.15 32.5857 11.2287C32.3045 11.2735 32.2006 10.9834 32.0356 10.7218C31.5708 9.99113 30.7794 9.35507 30.1384 8.80301C29.3861 8.15566 28.9881 7.65639 27.9192 7.21787C25.9864 6.42611 24.6777 6.49284 22.673 6.50014C21.711 6.50379 20.9856 6.79427 20.1998 7.12325C19.2912 7.5037 18.936 7.28924 18.0346 8.02622C16.7174 9.10349 16.1806 9.95436 15.3984 11.4233C14.675 12.7808 15.0292 11.4794 14.4437 13.537C13.9706 15.2035 13.9454 17.3142 14.4437 18.9913C14.9871 20.8162 15.6663 21.5021 16.7379 22.8362C16.958 23.1098 17.2223 23.5201 17.4629 23.7056C18.2603 24.3185 19.3768 25.167 20.3953 25.3021L19.9362 24.9572C21.6385 25.3721 21.674 26.6529 25.3118 25.7881C29.0966 24.8877 28.839 24.2209 29.9943 23.8009L30.3127 24.5505C29.3785 24.9794 27.7624 25.2373 26.9335 25.7917C27.2651 26.0417 28.1963 25.5208 28.602 25.4179C28.8576 25.6436 29.1322 26.2066 29.2062 26.5316C28.6807 26.838 27.8487 26.7809 27.2611 26.9336C27.8653 27.239 30.1287 26.5824 30.865 26.3958L31.0635 27.5219L29.8718 27.9697C29.5906 27.578 29.9571 27.6839 29.5541 27.3682C29.423 27.668 29.5222 27.6746 29.5345 28.1101L27.2645 28.8428L28.3494 28.7303L28.5874 30.2527L27.3658 30.5329C27.2947 30.2491 27.3103 29.9858 27.1204 29.7919C26.9349 30.1066 27.0388 30.2115 27.0803 30.6464L25.4463 31.083C25.7912 31.3472 25.6899 31.1859 25.8333 31.1832C26.241 31.1739 26.7542 30.9648 27.1141 30.8911L27.4523 32.2476C26.0893 32.9361 26.3844 32.4172 26.2636 31.8495C26.1819 31.4618 26.2759 31.7513 26.168 31.5909C26.0003 31.8505 25.989 32.2187 26.1192 32.9258C26.2061 33.3952 26.2832 33.7212 26.3429 34.1819L25.4699 34.316C25.3912 33.9768 25.3726 33.5499 25.2149 33.2733C24.9038 33.7829 25.1558 33.2235 25.1034 33.6275C25.0967 33.68 25.1044 33.9827 25.109 34.0435C25.1691 34.7658 25.4911 35.4142 25.6309 36.0857L24.533 36.3676L24.3063 36.0884C24.1931 36.4303 24.4384 35.8328 24.2585 36.2524C24.1413 36.5259 24.384 36.3666 24.0713 36.4987C24.46 36.7254 24.6539 37.2885 24.5463 37.8036C24.1473 37.8382 24.2223 37.9086 23.9129 37.7841C23.7114 37.7034 23.7735 37.6025 23.57 37.5835C23.4239 38.2757 23.6476 38.6001 23.7695 39.2324L23.2383 39.6756L23.9139 39.5837L24.2887 40.8232L23.9674 41.0911C23.9972 41.0994 24.0264 41.1034 24.0573 41.1127C24.0872 41.121 24.1174 41.122 24.1473 41.1307L24.4723 41.2432C24.373 41.3461 24.4517 41.2834 24.3 41.3876C24.1868 41.4653 24.3797 41.3481 24.1699 41.4673C24.0377 41.5433 23.9571 41.5619 23.8146 41.6416C23.6424 41.7388 23.6198 41.768 23.5036 41.8607L23.2536 42.0658C23.2423 42.0452 23.2095 42.1013 23.1852 42.1163L23.1841 42.1158ZM28.3668 3.88271C27.8948 4.44208 27.4243 4.02147 26.8577 3.81631L28.3668 3.88271ZM25.5301 3.49032L26.8998 3.48832C26.7332 3.63074 26.6807 3.66925 26.4802 3.79108L25.5301 3.49032ZM24.5793 44.9605C25.2333 44.7338 25.4776 44.6103 25.9039 44.1548C27.4787 42.475 26.7959 44.4592 27.743 41.762C28.1507 40.6004 28.725 39.8425 29.1885 38.8672L29.9802 37.4338C30.4888 36.5673 31.0096 35.4439 31.4482 34.5596C32.0719 33.3004 34.0498 30.0036 34.4047 28.9432C34.8047 27.7488 35.217 26.9411 35.6638 25.8618L36.8198 22.6878C37.1129 21.6049 37.3802 20.3325 37.6179 19.2655C37.7752 18.56 38.0206 16.4411 37.9588 15.565C37.8005 13.3457 36.8477 10.5379 35.7751 9.09147C34.4187 7.26259 34.3473 7.01826 32.8062 5.60445C32.4298 5.25886 31.8721 5.06566 31.3871 4.80174C29.4646 3.75702 27.2414 2.76609 24.4807 3.04892C20.5196 3.45359 18.1251 4.14608 15.1808 6.65679C14.7827 6.99607 13.4758 8.40859 13.1467 8.96133C9.86783 14.4661 10.9331 16.2173 12.4741 22.4306C12.8612 23.9896 14.0152 27.1616 14.7442 28.7431C15.2209 29.7765 15.757 30.6738 16.1982 31.6296C16.6815 32.6769 17.1247 33.6055 17.7017 34.4673C18.0287 34.9573 18.1794 35.2757 18.5027 35.7836C18.8035 36.2586 18.911 36.7785 19.2626 37.2433C20.5217 38.9097 22.9528 42.915 23.5975 43.7074L24.5795 44.9609L24.5793 44.9605Z" fill="#F8F8F8"/>
<path fill-rule="evenodd" clip-rule="evenodd" d="M25.7852 43.0884C25.8921 42.5666 25.8141 42.8205 26.0727 42.7007C25.9761 42.9454 26.0382 42.8139 25.8984 42.9875C25.8835 43.0061 25.8075 43.0616 25.7852 43.0888V43.0884ZM23.9922 41.9229C24.1984 41.8057 24.3717 41.7141 24.6319 41.7101C24.8643 42.3219 24.7866 42.1918 24.6648 42.7482C25.0725 42.7097 24.9785 42.6293 25.2258 42.7246C25.1395 43.0994 24.8716 43.5283 24.6442 43.8404C24.4118 43.5725 24.2103 43.3786 23.9799 43.1087L23.3269 42.3246L23.9922 41.9226L23.9922 41.9229ZM26.5358 41.8246C26.7851 41.5099 27.1055 41.2297 27.5991 41.0903C27.304 42.3346 26.7513 42.8225 26.0495 43.4549C25.8331 43.6498 25.6468 43.7912 25.4367 43.9589C25.4948 43.4081 26.0718 43.3434 26.4316 42.8879C26.7407 42.4971 26.5186 42.4626 26.752 42.1429C26.9591 41.8581 27.064 41.966 27.2128 41.5557C26.825 41.6729 26.988 41.7675 26.5355 41.8246L26.5358 41.8246ZM26.1677 41.2344C26.0983 41.6035 25.7949 42.0699 25.5306 42.2668C25.2298 42.0709 25.2514 42.0683 25.0858 41.6662C25.275 41.552 24.8544 41.6616 25.3809 41.5351C26.418 41.2858 25.7378 41.39 26.168 41.2343L26.1677 41.2344ZM24.8205 41.1371C24.8759 40.8831 24.8026 40.9695 25.0266 40.8503C25.7331 40.4791 25.7517 41.0405 25.8137 41.2055C25.0887 41.1869 25.0897 41.3506 24.8208 41.1371H24.8205ZM26.1677 41.2344L26.0345 40.515L26.6059 40.3643C26.5401 40.5668 26.5076 40.667 26.4156 40.8682L26.1673 41.2344L26.1677 41.2344ZM26.7533 41.1846C26.7712 40.9502 26.9136 40.5711 27.1121 40.3938L27.8551 39.8597L26.7533 41.1842L26.7533 41.1846ZM25.11 39.1947L25.4801 40.2899L24.5573 40.6515L24.1825 39.5094L25.11 39.1947ZM24.1927 39.2229C23.9753 39.0364 24.1917 39.3747 23.9886 38.971L23.8492 38.0866L24.7814 38.0631L24.9819 38.8395L24.1931 39.2226L24.1927 39.2229ZM25.0864 38.0677C25.362 37.8907 25.8218 37.8081 26.1996 37.7387L26.3496 38.2811C26.109 38.478 25.6993 38.6473 25.2837 38.7167L25.0868 38.0673L25.0864 38.0677ZM28.7411 37.3174L29.1335 37.5827L29.5505 37.3898L29.3742 37.8731C29.1362 37.9425 29.1325 37.8705 28.9423 37.7878C28.769 38.0212 28.4477 38.2685 28.3454 38.4511C28.0981 38.8933 28.4072 38.7817 27.8282 39.1004L28.7408 37.3177L28.7411 37.3174ZM25.7461 36.362L26.0582 37.4506L24.9105 37.7241L24.622 36.5512L25.7461 36.362ZM27.7539 37.757C28.1081 37.0694 27.2911 37.5003 28.5596 36.8387C28.2794 37.3878 28.0434 37.917 27.7296 38.4717C27.4149 39.0291 27.0262 39.4722 26.8376 40.1458C26.2288 40.0465 26.3646 40.1103 25.8042 40.2132L25.4238 39.0413L26.3776 38.6901C26.3925 38.7137 26.4048 38.7492 26.4114 38.7668L26.4722 38.9221C26.6943 39.533 26.505 39.2969 26.8012 39.4739C27.0495 39.1283 26.8151 38.9371 26.7842 38.4949C27.5581 38.3468 27.4701 38.3554 27.6284 38.0912L26.6309 38.1483L26.5137 37.7502C27.0741 37.072 27.6587 37.722 27.754 37.7569L27.7539 37.757ZM26.8993 36.0144L27.1965 37.0993L26.3496 37.3241C26.2155 37.0057 26.0807 36.6515 26.0771 36.2392L26.8997 36.0144H26.8993ZM27.8587 34.006C28.0423 34.2928 27.8983 34.0192 28.0105 34.3293L28.2033 35.1294C27.7313 35.2698 27.5719 35.4759 27.0182 35.5566L26.7503 34.3349L27.8584 34.006H27.8587ZM30.6769 35.1443C30.7124 34.8203 30.7462 34.8163 31.0224 34.6889C30.9325 34.892 30.8764 35.0879 30.6769 35.1443ZM26.4668 34.4575L26.7712 35.7279C26.1013 36.0015 26.2138 35.8684 25.8663 35.9022L25.5459 34.5803L26.4668 34.4575ZM27.5702 32.5406L27.7877 33.7181L26.6952 34.0225C26.4834 33.6945 26.4592 33.2055 26.3795 32.784L27.5703 32.5403L27.5702 32.5406ZM29.1039 32.1509L29.3503 33.0054L28.126 33.5057L27.8694 32.4527L29.1039 32.1509ZM29.4376 32.0357C29.8921 31.7847 30.7519 31.5514 31.2372 31.408C30.9159 32.1463 29.2136 36.289 28.6581 36.5127L27.5434 36.9024L27.1612 35.9327C27.5042 35.693 27.9792 35.5666 28.4015 35.4202C28.7255 35.3086 29.1305 35.0381 29.2391 34.5696C28.7312 34.6241 29.0041 34.7373 28.5151 34.7728L28.2143 33.8509L29.4473 33.328C29.8211 33.6268 29.5558 33.746 30.0514 33.7028C29.8519 32.9778 29.6252 33.343 30.1646 32.8945C29.8489 32.6173 29.8602 32.9253 29.6083 32.6143C29.5219 32.5084 29.4632 32.1797 29.4376 32.0353L29.4376 32.0357ZM28.675 30.5591L29.003 31.8604L27.7475 32.1575L27.4318 30.8329L28.6751 30.5594L28.675 30.5591ZM29.9763 30.1133C30.2067 30.4094 30.3491 30.9611 30.4447 31.3257L29.3018 31.6918L28.9496 30.4459L29.9763 30.1133ZM29.6005 28.4139L29.9435 29.8078L28.8755 30.0937L28.6189 28.6257L29.6009 28.4139L29.6005 28.4139ZM31.1343 27.8386L31.5625 29.1821L30.294 29.6326C30.0909 29.3159 29.9587 28.7632 29.8966 28.2978L31.1343 27.8386ZM33.7735 29.4941L33.4558 30.1179C33.1268 30.5478 33.4979 30.1853 32.9283 30.4372C32.7098 30.5338 31.8959 31.0106 32.2042 31.2927C32.5492 31.4228 32.5472 30.9637 33.0491 30.7981C32.9489 31.304 32.1674 32.5011 31.9138 33.0213C31.4417 33.989 31.2346 34.2243 30.2695 34.6748L30.2931 35.4477C29.6401 35.8308 29.5202 35.9084 29.5727 36.3433C30.1414 36.3629 29.7629 36.1823 30.3953 35.8354C30.239 36.257 29.9963 36.6627 29.6759 36.8921C29.5458 36.7039 29.5943 37.0561 29.6431 36.506C29.4472 36.5883 29.3752 36.6614 29.2148 36.5857L30.1928 34.5799C30.2669 34.4298 30.3641 34.2024 30.4411 34.0889C30.7071 33.6965 31.0782 34.0534 31.5944 33.3048C31.3743 33.168 31.8474 33.1809 31.2647 33.2231C31.0417 33.239 30.8797 33.3834 30.7635 33.5594C30.7711 33.2971 30.8431 33.2025 30.9733 32.925C31.1316 32.5867 31.0613 32.6036 31.3003 32.51C31.6186 32.3855 32.1023 32.3948 32.2643 31.9666C31.8082 31.8374 31.778 31.9872 31.3876 32.1213L32.6777 29.339C33.5385 27.6828 33.4516 27.2094 34.6702 27.1065C34.5616 27.634 34.0733 29.2321 33.7735 29.4937L33.7735 29.4941ZM35.174 25.8799C35.1149 26.279 34.9596 26.4748 34.8723 26.8832L33.9009 26.841C34.1286 26.1243 33.9467 26.5383 34.4742 26.2641C34.8264 26.0805 34.7534 25.9859 35.174 25.88L35.174 25.8799ZM18.9283 24.159C18.6471 24.0335 18.7586 24.0803 18.7015 23.908L18.9283 24.159ZM30.8457 23.0629C31.9333 21.9856 31.5117 21.5105 32.7456 21.4973L33.4248 23.0104C33.0434 23.3384 31.2335 24.1205 30.6226 24.3735L30.3079 23.6747L30.8457 23.0629ZM16.9405 22.5101C17.3378 22.3096 17.2917 22.5251 17.5065 22.1934C17.1682 21.9959 17.0952 22.1157 16.6201 22.0968L16.2642 21.487C17.2565 20.7527 17.2077 21.2987 17.6648 22.2213C17.7707 22.4357 18.1753 23.0907 18.2783 23.2218C17.8361 23.0615 18.3081 23.0485 17.6103 22.9436C17.2654 22.8922 17.0755 22.8387 16.9404 22.5097L16.9405 22.5101ZM32.401 20.7178C32.5892 20.9482 32.5573 20.9137 32.6174 21.2679L32.0683 21.4272L32.401 20.7181L32.401 20.7178ZM15.8884 20.817C16.1018 20.6371 16.0852 20.6428 16.4056 20.578C16.784 20.5013 16.5865 20.4449 16.8195 20.7111L16.0364 21.1035L15.8884 20.8167V20.817ZM32.9406 21.1158C32.358 20.3101 32.8825 19.9599 33.0409 19.1177C33.3098 19.3819 33.4157 19.7228 33.5289 20.1218C33.1561 20.2652 33.2882 20.162 33.084 20.4993L33.6846 20.3147L33.8672 20.7954L32.9406 21.1158ZM34.0677 20.0591C34.4322 19.7208 35.278 19.2674 35.7455 19.1784C35.4616 21.2346 34.6457 23.9618 33.8904 25.8966L31.715 30.6003C31.5294 30.9535 31.1649 31.0697 30.7808 31.1607L30.3668 30.0244C30.3884 30.0074 30.4193 29.9869 30.4352 29.9776L31.3392 29.5905C31.7608 29.4311 31.9052 29.391 32.112 29.0723C31.9408 28.5776 31.7382 28.5551 31.5012 27.7324C31.9573 27.4804 33.0648 27.3606 33.2149 26.849C32.8318 26.6007 32.0167 27.2603 31.3788 27.3426L31.1756 26.3195C31.9889 25.6273 33.8689 25.4978 34.1043 24.4139C33.424 24.3831 31.8737 25.7903 31.3648 25.8747C31.082 25.8089 31.2852 25.8551 31.0959 25.7246L30.9293 25.5832C30.5977 26.1648 31.3556 26.044 29.5672 26.5004L29.0341 25.2506C30.4692 24.9734 29.94 24.6397 30.7617 24.9451C30.7843 24.4628 30.9426 24.5318 31.4718 24.3184C31.7792 24.1946 32.0169 24.0767 32.3376 23.9193C34.2092 23.0011 33.1562 23.4798 34.1259 23.6617L33.9347 23.0848C34.3347 22.7568 34.7882 22.7521 34.6588 22.2977C34.2607 22.1054 34.1717 22.5111 33.8016 22.8072C33.4982 22.5722 33.0869 21.815 33.0879 21.4067C34.0744 20.8211 34.1286 21.2241 34.4227 21.3888C34.432 21.3662 34.436 21.3297 34.4377 21.3157C34.4722 20.9446 34.4141 21.0601 34.3769 20.8792C34.7929 20.6478 35.0926 20.6083 35.237 20.2122C34.584 20.1522 34.3142 21.1454 33.9572 20.1814L34.0678 20.0585L34.0677 20.0591ZM16.2302 18.8216C16.2657 18.873 16.2106 18.7326 16.3387 19.0118L16.4755 19.5449C16.4672 19.9928 16.4154 19.3424 16.4297 19.9562C16.4317 20.0266 16.4672 20.1548 16.4868 20.2447C16.0765 20.3244 15.6343 20.5315 15.6153 20.2792C15.5865 19.8716 16.036 20.0133 16.3583 19.6525C16.2282 19.5794 16.4961 19.5363 16.0134 19.5532C15.7239 19.5635 15.5264 19.8185 15.3418 19.9589L15.1469 19.5187C15.7202 19.3115 15.4215 19.0812 16.1475 19.0662L16.2298 18.8216L16.2302 18.8216ZM33.9819 17.3387L34.438 18.3196L33.5901 18.7001C33.7362 18.8229 33.5705 18.792 33.8693 18.7824L34.6355 18.5988L34.8603 19.1233C34.689 19.291 33.9994 19.7471 33.795 19.8494C33.291 18.7505 33.2207 19.054 33.2319 17.5402L33.9815 17.3387L33.9819 17.3387ZM35.1743 25.8797C34.9495 25.472 35.0169 25.8236 34.601 25.5507L35.5095 24.8031C35.1029 24.6822 34.9475 24.891 34.5923 25.058L34.9475 23.7803C35.0458 23.6455 35.5115 23.8832 35.9604 23.2836C35.6493 23.2245 35.327 23.4486 35.0375 23.5901C35.3964 22.3863 35.3147 22.7525 35.6427 22.5735C35.9255 22.4182 36.4016 22.2814 36.5085 22.0095C36.0746 21.7838 35.8622 22.0912 35.5033 22.2718C35.7639 21.2918 36.0607 21.8362 36.5872 21.2403C36.2735 21.0932 36.1394 21.2038 35.819 21.2665C35.8911 20.4701 36.3492 20.9395 36.7399 20.3935C36.4365 20.2202 36.2957 20.3859 35.9522 20.4685C36.1245 19.5981 36.6838 20.0768 36.9518 19.5466C36.6314 19.4268 36.3907 19.5446 36.0963 19.6515C36.5411 16.4698 36.1693 17.3114 37.4003 17.004L37.3761 17.8539C37.1045 17.9701 37.1108 17.8848 36.8738 17.9598C36.5422 18.0647 36.7154 17.9372 36.5339 18.1716L36.6839 18.2483C36.7101 18.2549 36.7393 18.2679 36.7702 18.2725C36.8021 18.2782 36.8303 18.2808 36.8658 18.2828C36.8685 18.2838 37.3146 18.2211 37.3362 18.2181C37.3296 19.3422 37.1321 20.4403 36.7974 21.3894C36.6427 21.8239 36.6082 22.4078 36.4555 22.8517C36.3048 23.2893 36.1239 23.605 35.9881 24.0621C35.4954 23.8589 34.9294 24.0647 34.8667 24.6384C35.3922 24.6307 35.3145 24.3741 35.8749 24.1988C35.7464 24.7536 35.519 25.5835 35.1751 25.8796L35.1743 25.8797ZM16.2303 18.8216C15.4312 18.64 15.5746 19.0051 14.9273 19.2159L14.6527 17.5361C14.9329 17.3545 15.4153 17.0734 15.8256 17.1315L15.9866 17.8349C15.6991 18.057 15.0976 17.6915 14.8416 18.2771C15.1234 18.4215 15.7074 18.2406 16.126 18.219L16.2299 18.8215L16.2303 18.8216ZM33.2868 17.2713C33.2363 16.9144 33.3083 16.4918 33.4498 16.2043C33.6466 16.4639 33.7572 16.7072 33.803 17.1123L33.2868 17.2716V17.2713ZM14.9002 16.4373C15.2853 16.2106 15.3368 16.0121 15.8391 16.1206L15.8577 16.6574C15.3491 16.7305 15.0005 16.9516 14.6725 17.167L14.6277 16.5834L14.9002 16.4373ZM14.6191 15.4189C14.6406 15.403 14.6715 15.3824 14.6864 15.3731L14.8889 15.2502C15.4211 14.9355 15.2767 14.9223 15.6319 14.9159L15.7292 15.7592C14.8428 15.8322 15.1661 15.9952 14.5723 16.278L14.6191 15.4189ZM23.404 7.01267C23.9511 6.93764 26.7532 7.02495 27.3657 7.34232C29.5109 8.45443 29.8532 9.19542 31.0755 10.2989C32.6334 11.7041 32.5614 13.0287 32.8668 15.0955C32.9793 15.8498 32.7928 16.2103 32.7788 17.0047C32.7675 17.6653 32.0621 19.8677 31.77 20.4877C31.3251 21.4328 30.5201 22.2987 29.8203 22.9882C29.2948 23.507 29.0906 23.5147 28.4536 23.8443C27.778 24.1939 26.1039 25.0099 25.3238 25.0706C24.6362 25.1251 23.9335 25.1991 23.2871 25.2316C22.4207 25.2758 20.6217 24.7868 19.9537 24.3818C18.8719 23.7278 18.5119 23.0084 17.9459 21.9421C17.1645 20.4675 16.4255 18.8196 16.2579 17.0591C16.0395 14.7762 15.7828 14.0677 17.1011 11.7509C17.9217 10.3061 17.8852 9.43503 20.0401 8.02216C21.4977 7.06675 21.4642 7.27721 23.4043 7.01126L23.404 7.01267ZM36.5129 15.2071C37.0328 14.9505 37.2101 15.2353 37.4431 14.9213C37.6257 15.2781 37.6745 15.0879 37.6406 15.5676C37.6705 14.8595 37.5938 15.2283 37.4955 15.3286C37.4657 15.3904 37.3455 16.5436 37.3747 16.8145L36.5484 16.6797C36.4399 16.453 36.4574 16.5907 36.5006 16.2262C37.1207 16.0453 37.0235 16.3348 37.2446 15.948C36.9823 15.7475 37.2117 15.8946 36.8625 15.8216L36.5823 15.7635C36.5663 15.7306 36.5242 15.7475 36.4933 15.7362L36.5129 15.2071ZM36.3602 14.1833C37.0703 14.2162 37.2867 14.0548 37.3926 14.752L36.4877 14.7277L36.3602 14.1833ZM34.8255 15.1016C34.4872 15.4173 34.0928 15.735 33.5653 15.8538C33.1935 15.0883 33.1211 14.172 33.0106 13.1642C33.3545 13.2372 33.4265 13.303 33.6327 13.5662L34.8251 15.1016L34.8255 15.1016ZM33.7246 16.0075C35.7427 15.4322 36.2035 13.9071 34.8152 14.7334C34.6465 14.3586 34.4039 14.1704 34.1801 13.7899L35.1704 13.3029C35.1468 13.2889 35.1123 13.2787 35.0953 13.274L34.862 13.2299C34.5997 13.2335 34.2531 13.4689 33.9139 13.5137C33.7472 13.2206 33.7529 13.3265 33.6768 12.9789L35.4897 12.6612C36.1427 14.6062 36.1885 15.8202 35.991 17.8167C35.8861 18.8877 36.0707 18.7854 35.1385 18.9298L34.8892 18.4754C35.3895 17.9611 35.4559 18.482 35.7802 17.5303C35.174 17.5698 35.3559 17.845 34.7617 18.1242C34.5556 17.8572 34.4142 17.6059 34.2671 17.1853C35.0064 17.0403 35.6723 16.8152 35.662 16.1838C35.2574 16.2661 35.5936 16.2933 34.9078 16.6455C34.5931 16.8066 34.4337 16.8424 34.1124 16.9715L33.7246 16.0075ZM36.3469 13.9081C36.1962 13.1698 36.7552 13.9333 37.1068 13.3029C36.6553 12.9975 36.5792 13.3029 36.1782 13.0911C36.0939 12.7847 36.061 12.545 37.1336 12.7097C37.2046 13.0732 37.2544 13.5499 37.2574 13.9294C36.8508 13.8733 36.5932 13.788 36.3468 13.9078L36.3469 13.9081ZM15.2017 12.9261C15.7677 12.8746 15.5569 12.8361 16.0881 12.6546C15.8547 13.9632 15.7219 13.4144 14.9744 14.2351C15.5271 14.3184 15.3087 14.1292 15.8345 13.9157C15.7651 14.5687 15.8402 14.3908 15.3213 14.6325C15.057 14.7553 14.8857 14.9754 14.6992 15.0335C14.911 14.5183 14.7815 14.507 14.8754 13.9646C14.9362 13.6093 15.0909 13.2946 15.2024 12.9265L15.2017 12.9261ZM33.3409 11.4159C33.5255 11.6699 33.4814 11.5311 33.6155 11.8422L32.7985 12.2226L32.5435 11.5182L33.3409 11.4159ZM15.3827 12.6714C15.722 11.9172 15.719 11.4358 16.8461 11.0939C16.6625 12.1609 16.0573 12.1552 15.3827 12.6714ZM34.5086 10.245C34.8778 10.9129 35.3555 11.4554 35.3817 12.3783C33.4725 12.4898 33.7507 13.1717 33.1681 12.456L33.4566 12.2236C34.0787 11.8704 34.2248 12.2395 34.5434 12.3687C34.4412 12.0483 34.4442 12.0961 34.2792 11.871C34.7655 11.7943 34.5471 11.8119 34.6802 11.5497C34.2194 11.5563 34.1218 11.6416 33.8088 11.4889C33.8473 10.7788 34.3286 11.4046 34.6274 10.7629C34.0259 10.4435 33.431 11.6025 32.9354 10.6431L34.5083 10.245L34.5086 10.245ZM16.785 10.2476C17.2282 10.2908 17.0313 10.3798 17.3762 10.1607C17.0307 10.8173 17.0887 10.736 16.3325 10.9524C16.4842 10.6779 16.6061 10.4764 16.785 10.248L16.785 10.2476ZM34.1687 9.97112C33.8556 9.79683 33.7265 9.66935 33.5954 9.31812C33.9177 9.3407 33.8258 9.32377 34.0123 9.58901C34.1687 9.81276 34.1415 9.68628 34.1687 9.97112H34.1687ZM34.7457 8.5828L35.0531 8.96324C34.6839 9.1704 34.5405 8.70763 34.4329 9.28094C34.7158 9.44294 35.0202 9.39414 35.3838 9.45988C35.2403 9.84496 35.4512 9.41872 35.2274 9.65209C35.0017 9.88812 35.0408 9.59134 34.9406 10.0222L35.8907 10.2254C35.9047 10.2254 35.9405 10.2188 35.9525 10.2188L36.966 12.3952L35.8615 12.3709C35.6106 10.9826 36.0481 12.0207 36.5484 11.8208C36.4106 11.224 35.8625 11.5549 35.3997 11.0666C35.8559 10.8651 35.6872 11.2306 36.0856 10.9746C35.7904 10.6075 35.6145 10.7771 35.2948 10.644C34.9771 10.5119 34.0655 8.98942 34.0047 8.74211L34.7457 8.5828ZM33.5738 9.10168C32.8299 8.96856 32.8411 8.74481 32.4458 8.32884L32.9657 8.24717C33.2701 8.56288 33.4958 8.67442 33.5738 9.1017L33.5738 9.10168ZM33.4699 8.12834C34.0658 7.93613 34.0572 7.968 34.5933 8.15722C34.2185 8.34545 34.2252 8.20967 33.8945 8.55991L33.4702 8.12801L33.4699 8.12834ZM17.276 9.58235C17.7145 9.01734 18.4273 8.28301 19.2967 8.0805C19.1636 8.33246 19.2525 8.20034 19.0643 8.42608C18.3383 9.29454 18.0395 9.62615 17.276 9.58205L17.276 9.58235ZM32.9659 7.61308L33.6827 7.61042C33.3942 7.88397 33.5017 7.632 33.3155 8.06025L32.9659 7.61341V7.61308ZM32.7345 6.71274C32.2054 6.67988 32.0271 6.8213 31.6825 6.61149C32.3458 6.22541 31.9514 6.86346 32.4965 6.54211C32.4142 6.27885 32.4975 6.31537 32.1854 6.21312C31.5427 6.00331 31.406 6.49596 30.8682 5.93759C31.5288 5.84762 31.7104 6.02855 32.1141 5.67633C32.7578 6.27387 33.7255 6.53909 34.0103 7.39362C33.4987 7.23626 33.0339 7.12937 32.6482 7.44607C32.4786 7.23328 32.4739 7.29702 32.3315 7.05268C33.4144 6.89732 33.1156 7.3591 33.5758 7.05833C33.4934 6.93085 33.6591 6.93184 33.2132 6.78744C33.0426 6.732 32.9191 6.7237 32.7345 6.71241L32.7345 6.71274ZM28.7034 5.76831C29.0274 5.68398 29.2747 5.54621 29.5635 5.49841C29.7301 5.62124 29.9662 5.77196 30.091 6.03986L29.0015 6.31075L28.7037 5.76831H28.7034ZM30.1518 5.36728C31.0942 5.26437 31.5411 5.18834 31.8203 5.61924C31.0464 5.70257 30.429 5.76265 30.1518 5.36728ZM27.1219 5.35798C27.7569 5.20163 27.8263 5.05622 28.0567 5.62024L27.413 5.78622L27.1215 5.35797L27.1219 5.35798ZM28.3801 5.49011C28.23 5.17706 28.2161 5.31782 28.2141 4.98418C29.1284 4.85405 28.9063 5.38222 28.9063 5.38421L28.3797 5.49011H28.3801ZM26.4885 5.15282C26.2767 5.3862 25.9593 5.45923 25.6379 5.53492C25.3511 5.34205 25.3053 5.28959 25.1526 5.04692C25.4338 4.85969 25.8899 4.79296 26.2617 4.85006L26.4885 5.15282ZM29.2409 4.83512C29.6605 4.70399 30.4692 4.77437 30.7819 4.96359C30.365 5.12759 29.712 5.2212 29.3382 4.94666L29.2409 4.83512ZM27.503 4.83512C26.9944 5.21092 26.7863 5.19099 26.613 4.72922C26.6787 4.6532 27.0037 4.51643 27.1282 4.51643C27.4701 4.51543 27.4101 4.58747 27.503 4.83479L27.503 4.83512ZM29.8451 4.41152C29.6904 4.49119 29.2353 4.56058 28.9684 4.58846C28.5813 4.62962 28.5375 4.51542 28.3772 4.31027C28.8091 4.27475 29.7422 4.35508 29.8451 4.41152ZM24.7908 4.72722C24.7513 4.68041 24.594 4.51277 24.5867 4.50414C24.4575 4.34113 24.5604 4.4882 24.433 4.26811C24.7862 4.19773 25.2639 4.00385 25.5729 4.25682C25.8624 4.49385 25.6666 4.34944 25.7838 4.58382L24.7908 4.72722ZM26.626 4.33483C26.0816 4.36205 26.2578 4.42579 25.9757 4.08751C26.1463 4.0978 26.1387 4.05929 26.3448 4.13166C26.8647 4.31258 26.4003 4.12801 26.626 4.33482L26.626 4.33483ZM23.1841 42.1158C22.8657 40.9579 21.5999 39.547 20.8832 38.4837C20.456 37.8493 20.292 37.8878 19.9746 37.4811C19.6609 37.0791 19.6111 36.5874 19.2337 36.2163C18.737 35.7283 18.8897 35.5802 18.574 34.9675C18.1083 34.0635 17.6681 33.3016 17.1874 32.4378C16.9344 31.9843 16.7977 31.5282 16.553 31.0608L14.5874 27.2029C14.4676 26.9134 14.4553 26.6445 14.3477 26.3786C14.2335 26.0967 14.1528 26.0808 14.0264 25.7611C13.8288 25.2635 13.7117 24.8562 13.558 24.3214C13.2592 23.276 12.1142 19.2296 12.0066 18.1391C11.8755 16.8218 11.5269 16.183 11.6113 14.6879C11.7593 12.0302 12.3841 10.7946 13.6592 8.94673C14.1164 8.28444 14.9194 7.43196 15.5282 6.89876C17.4899 5.18147 19.4462 4.1885 22.1544 3.81576C23.0783 3.68828 23.1765 3.59732 23.7153 4.10159C23.4445 4.33197 23.3014 4.29845 22.981 4.406C23.1301 4.52319 22.9697 4.4631 23.2257 4.50891C23.7831 4.60818 22.7958 4.53049 23.4083 4.5192C23.6011 4.51555 23.6997 4.44617 23.8588 4.44883C24.1868 4.45347 24.2578 4.63805 24.448 4.81898C24.0347 5.15627 24.1333 4.7393 23.959 5.28175C24.4855 5.25187 24.4218 5.03907 24.8032 5.23594C25.1209 5.39993 25.6717 5.98719 25.9385 6.2272C26.1576 6.42472 26.2327 6.52697 26.5935 6.52233C26.4418 6.17011 26.5241 6.38921 26.2433 6.13923C25.8957 5.83017 26.0886 6.10073 25.9266 5.71563L26.8166 5.46267L27.0547 5.84111C26.6248 5.88062 26.7071 5.78202 26.6443 6.04727C27.4378 6.13259 27.1051 5.95532 27.6495 6.41278L27.7545 5.96793L28.3832 5.88826L28.6634 6.38854C28.2345 6.60963 28.284 6.39418 28.0967 6.72482C28.4433 6.8596 28.686 6.62756 28.9615 6.72682C29.3297 6.86093 29.1199 7.10526 29.6192 7.11855C29.4741 6.78226 29.4834 7.00535 29.3214 6.59967L30.2798 6.30189C30.6207 6.1286 30.8484 6.42638 31.0977 6.68034C31.2176 6.80317 31.1651 6.72914 31.2428 6.84698C30.6891 7.12352 29.3363 7.15704 29.3815 7.86052C29.7928 7.81271 29.6205 7.65801 30.1224 7.51295C30.383 7.43792 30.794 7.41468 31.1117 7.35459C32.0908 7.17201 32.0569 7.42962 32.5797 7.86981C31.4573 8.19017 32.2461 7.75263 31.3713 7.70782C31.3534 8.20611 31.3779 7.87281 31.5174 8.35052C30.9955 8.43583 31.1997 8.28213 31.0639 8.64564C31.5509 8.87603 31.4639 8.41127 32.0598 8.55202C32.3184 8.61277 32.6388 8.92383 32.7991 9.17513C32.4177 9.52736 32.1451 9.30062 31.9045 9.79061C32.5416 9.83941 32.8871 9.1685 33.3977 9.65483L33.7303 10.0728C32.2192 10.6039 33.1534 10.4194 32.0684 10.2235C32.1162 10.8991 32.43 10.6806 32.8469 11.0807C32.7101 11.1932 33.069 11.15 32.5857 11.2287C32.3045 11.2735 32.2006 10.9834 32.0356 10.7218C31.5708 9.99113 30.7794 9.35507 30.1384 8.80301C29.3861 8.15566 28.9881 7.65639 27.9192 7.21787C25.9864 6.42611 24.6777 6.49284 22.673 6.50014C21.711 6.50379 20.9856 6.79427 20.1998 7.12325C19.2912 7.5037 18.936 7.28924 18.0346 8.02622C16.7174 9.10349 16.1806 9.95436 15.3984 11.4233C14.675 12.7808 15.0292 11.4794 14.4437 13.537C13.9706 15.2035 13.9454 17.3142 14.4437 18.9913C14.9871 20.8162 15.6663 21.5021 16.7379 22.8362C16.958 23.1098 17.2223 23.5201 17.4629 23.7056C18.2603 24.3185 19.3768 25.167 20.3953 25.3021L19.9362 24.9572C21.6385 25.3721 21.674 26.6529 25.3118 25.7881C29.0966 24.8877 28.839 24.2209 29.9943 23.8009L30.3127 24.5505C29.3785 24.9794 27.7624 25.2373 26.9335 25.7917C27.2651 26.0417 28.1963 25.5208 28.602 25.4179C28.8576 25.6436 29.1322 26.2066 29.2062 26.5316C28.6807 26.838 27.8487 26.7809 27.2611 26.9336C27.8653 27.239 30.1287 26.5824 30.865 26.3958L31.0635 27.5219L29.8718 27.9697C29.5906 27.578 29.9571 27.6839 29.5541 27.3682C29.423 27.668 29.5222 27.6746 29.5345 28.1101L27.2645 28.8428L28.3494 28.7303L28.5874 30.2527L27.3658 30.5329C27.2947 30.2491 27.3103 29.9858 27.1204 29.7919C26.9349 30.1066 27.0388 30.2115 27.0803 30.6464L25.4463 31.083C25.7912 31.3472 25.6899 31.1859 25.8333 31.1832C26.241 31.1739 26.7542 30.9648 27.1141 30.8911L27.4523 32.2476C26.0893 32.9361 26.3844 32.4172 26.2636 31.8495C26.1819 31.4618 26.2759 31.7513 26.168 31.5909C26.0003 31.8505 25.989 32.2187 26.1192 32.9258C26.2061 33.3952 26.2832 33.7212 26.3429 34.1819L25.4699 34.316C25.3912 33.9768 25.3726 33.5499 25.2149 33.2733C24.9038 33.7829 25.1558 33.2235 25.1034 33.6275C25.0967 33.68 25.1044 33.9827 25.109 34.0435C25.1691 34.7658 25.4911 35.4142 25.6309 36.0857L24.533 36.3676L24.3063 36.0884C24.1931 36.4303 24.4384 35.8328 24.2585 36.2524C24.1413 36.5259 24.384 36.3666 24.0713 36.4987C24.46 36.7254 24.6539 37.2885 24.5463 37.8036C24.1473 37.8382 24.2223 37.9086 23.9129 37.7841C23.7114 37.7034 23.7735 37.6025 23.57 37.5835C23.4239 38.2757 23.6476 38.6001 23.7695 39.2324L23.2383 39.6756L23.9139 39.5837L24.2887 40.8232L23.9674 41.0911C23.9972 41.0994 24.0264 41.1034 24.0573 41.1127C24.0872 41.121 24.1174 41.122 24.1473 41.1307L24.4723 41.2432C24.373 41.3461 24.4517 41.2834 24.3 41.3876C24.1868 41.4653 24.3797 41.3481 24.1699 41.4673C24.0377 41.5433 23.9571 41.5619 23.8146 41.6416C23.6424 41.7388 23.6198 41.768 23.5036 41.8607L23.2536 42.0658C23.2423 42.0452 23.2095 42.1013 23.1852 42.1163L23.1841 42.1158ZM28.3668 3.88271C27.8948 4.44208 27.4243 4.02147 26.8577 3.81631L28.3668 3.88271ZM25.5301 3.49032L26.8998 3.48832C26.7332 3.63074 26.6807 3.66925 26.4802 3.79108L25.5301 3.49032ZM24.5793 44.9605C25.2333 44.7338 25.4776 44.6103 25.9039 44.1548C27.4787 42.475 26.7959 44.4592 27.743 41.762C28.1507 40.6004 28.725 39.8425 29.1885 38.8672L29.9802 37.4338C30.4888 36.5673 31.0096 35.4439 31.4482 34.5596C32.0719 33.3004 34.0498 30.0036 34.4047 28.9432C34.8047 27.7488 35.217 26.9411 35.6638 25.8618L36.8198 22.6878C37.1129 21.6049 37.3802 20.3325 37.6179 19.2655C37.7752 18.56 38.0206 16.4411 37.9588 15.565C37.8005 13.3457 36.8477 10.5379 35.7751 9.09147C34.4187 7.26259 34.3473 7.01826 32.8062 5.60445C32.4298 5.25886 31.8721 5.06566 31.3871 4.80174C29.4646 3.75702 27.2414 2.76609 24.4807 3.04892C20.5196 3.45359 18.1251 4.14608 15.1808 6.65679C14.7827 6.99607 13.4758 8.40859 13.1467 8.96133C9.86783 14.4661 10.9331 16.2173 12.4741 22.4306C12.8612 23.9896 14.0152 27.1616 14.7442 28.7431C15.2209 29.7765 15.757 30.6738 16.1982 31.6296C16.6815 32.6769 17.1247 33.6055 17.7017 34.4673C18.0287 34.9573 18.1794 35.2757 18.5027 35.7836C18.8035 36.2586 18.911 36.7785 19.2626 37.2433C20.5217 38.9097 22.9528 42.915 23.5975 43.7074L24.5795 44.9609L24.5793 44.9605Z" stroke="#F8F8F8" stroke-width="0.3" mask="url(#path-1-outside-1_98_2074)"/>
<path d="M32.9224 29.2888H32.9306L32.9387 29.287C33.1673 29.2362 33.3195 29.1716 33.4687 29.064C33.5964 28.9719 33.7213 28.8486 33.89 28.6819C33.9132 28.6589 33.9373 28.6352 33.9623 28.6106L33.9623 28.6106C34.0372 28.5368 34.0841 28.4966 34.1132 28.4719C34.1149 28.4705 34.1166 28.469 34.1183 28.4676C34.1301 28.4576 34.1414 28.4481 34.1498 28.4399C34.1597 28.4302 34.1744 28.4144 34.1818 28.3906C34.1888 28.3683 34.1863 28.3479 34.1851 28.3386L34.1851 28.3382C34.1845 28.3341 34.1841 28.3305 34.1836 28.327C34.1826 28.3202 34.1817 28.3137 34.1808 28.3036C34.1783 28.2764 34.1768 28.2286 34.1867 28.1421L34.1959 28.061L34.1144 28.0586C33.9 28.0522 33.7616 28.0856 33.6466 28.156C33.5637 28.2068 33.494 28.2775 33.4196 28.3529C33.3969 28.3759 33.3738 28.3993 33.3497 28.4228L33.3497 28.4228L33.3495 28.4229C33.3108 28.4609 33.2752 28.4939 33.2408 28.5259C33.2215 28.5438 33.2026 28.5613 33.1837 28.5791C33.1324 28.6277 33.0838 28.6765 33.0403 28.7322C32.9512 28.8461 32.8878 28.9828 32.8486 29.2005L32.8326 29.2888H32.9224H32.9224Z" fill="#F8F8F8" stroke="#F8F8F8" stroke-width="0.15"/>
<path d="M33.767 29.5949L33.8945 29.7214L33.8456 29.4795L33.8014 29.261L33.7869 29.1889L33.7144 29.2021C33.49 29.2432 33.2889 29.2846 33.1426 29.3815C32.9872 29.4843 32.9013 29.643 32.8875 29.8919L32.8828 29.9768L32.9677 29.9708C33.2858 29.9483 33.5577 29.7637 33.767 29.5949Z" fill="#F8F8F8" stroke="#F8F8F8" stroke-width="0.15"/>
<path d="M36.4506 19.0253V19.0548L36.4623 19.0629C36.4582 19.0727 36.4494 19.0962 36.4543 19.1235C36.4612 19.1627 36.4895 19.1847 36.5135 19.1952C36.5351 19.2047 36.5607 19.2089 36.5868 19.2112C36.6404 19.2158 36.7247 19.2142 36.8546 19.2055L36.8546 19.2055L36.8548 19.2055C36.9568 19.1983 37.0177 19.1806 37.0686 19.1508C37.0905 19.138 37.1092 19.1237 37.1252 19.1114C37.1265 19.1105 37.1278 19.1095 37.129 19.1085C37.1464 19.0952 37.1632 19.0827 37.1852 19.0695L37.2598 19.0249L37.2048 18.9577C37.0923 18.8202 36.8909 18.7083 36.7267 18.6868C36.6457 18.6762 36.5522 18.6853 36.4904 18.7518C36.4287 18.8181 36.422 18.9156 36.4506 19.0253Z" fill="#F8F8F8" stroke="#F8F8F8" stroke-width="0.15"/>
</svg>
