<svg width="50" height="50" viewBox="0 0 50 50" fill="none" xmlns="http://www.w3.org/2000/svg">
<mask id="path-1-outside-1_406_10" maskUnits="userSpaceOnUse" x="2.99121" y="1" width="43" height="44" fill="black">
<rect fill="white" x="2.99121" y="1" width="43" height="44"/>
<path d="M45.6072 18.9401C45.4661 16.0847 44.4141 15.6305 42.5588 15.5997L37.05 15.5144C35.5556 12.9221 34.0049 10.2313 32.5302 7.66004C32.9023 6.95192 33.0697 6.16898 32.9843 5.42804C32.584 1.78504 27.6094 0.637207 25.6905 4.04001C24.244 6.60409 26.0298 9.58884 28.9502 9.73782C29.951 11.7506 30.6145 13.1104 31.7729 15.4448C27.0404 15.3707 22.9243 15.3136 17.9543 15.2361L20.6739 9.73782C21.7876 9.68072 22.8422 9.18326 23.5248 8.37407C24.5833 7.13305 24.7395 5.47266 23.9316 4.04001C23.0982 2.56207 21.489 1.78307 19.8424 2.0528C18.1971 2.32056 16.8196 3.77159 16.6384 5.42607C16.5525 6.16898 16.7205 6.95323 17.0932 7.66201C15.6599 10.1624 14.2181 12.6622 12.7736 15.1574L8.72765 15.1016C5.49351 15.0419 4.17177 15.9574 4.00704 19.8786C3.87316 22.6291 4.55438 24.1366 7.36259 24.1779C7.82133 28.3991 8.2886 32.6209 8.75718 36.8414C9.25661 41.4341 10.4609 43.0623 15.4335 43.5217C21.7869 44.1018 28.1909 44.1544 34.48 43.6786C38.8016 43.3583 40.0308 42.0464 40.758 37.6802L43.0694 23.8393C45.4142 23.1515 45.7365 21.3546 45.6072 18.9401ZM26.2621 4.36224C27.8667 1.51728 32.0006 2.48594 32.3327 5.50154C32.3878 5.98194 32.3182 6.48793 32.1351 6.96898C32.0754 6.86463 32.0157 6.76028 31.9546 6.65528L31.9166 6.59096C31.5261 5.92615 31.1225 5.23837 30.4879 4.73698C29.2186 3.73287 27.5628 4.05642 27.1809 5.26003C27.0332 5.72468 27.0936 6.26085 27.3463 6.73272C27.8831 7.72961 28.0288 7.93699 28.6063 9.04807C26.3618 8.69105 25.1379 6.35536 26.2621 4.36224ZM27.9251 6.42296C27.2137 5.09465 28.7586 4.20999 30.079 5.25281C30.8245 5.84215 30.8731 6.10663 35.3017 13.7949C37.764 18.0673 38.0593 18.4473 38.1978 19.1036C38.5056 20.5244 37.1051 21.3618 35.4611 19.9101C34.1479 18.7702 33.3302 17.115 32.6096 15.6555C32.607 15.6502 32.6044 15.645 32.6017 15.6404C32.6011 15.6391 32.5998 15.6371 32.5991 15.6351C27.572 5.53239 30.4216 11.0642 27.9251 6.42296ZM30.3717 16.0801L29.9116 16.5401C29.8795 16.5723 29.8637 16.6136 29.8637 16.6556L29.2711 16.063C29.638 16.0689 30.0048 16.0742 30.3717 16.0801ZM25.5973 16.0079L25.4614 16.1437L25.321 16.0033C25.4129 16.0046 25.5047 16.0066 25.5973 16.0079ZM23.616 15.9777L23.5654 16.0282L23.5129 15.9757C23.5471 15.9771 23.5818 15.9771 23.616 15.9777ZM20.4278 15.9298C20.7192 15.9344 21.0099 15.939 21.3013 15.9429L21.4207 16.0624L20.8819 16.6012C20.8747 16.5867 20.876 16.569 20.8635 16.5572L20.332 16.0256L20.4278 15.9298ZM17.2895 5.50023C17.4397 4.12598 18.5823 2.92302 19.9474 2.70055C21.3256 2.47807 22.6631 3.12713 23.3594 4.36224C23.8837 5.29153 24.0708 6.72156 23.024 7.9488C22.5338 8.52961 21.8106 8.92009 21.0204 9.04741C21.5119 8.09712 21.8125 7.59769 22.2772 6.73337C23.3154 4.79735 21.0335 3.2341 19.1336 4.73829C18.499 5.23969 18.0954 5.92747 17.7049 6.59228L17.487 6.96964C17.3032 6.48793 17.2337 5.98128 17.2895 5.50023ZM19.5438 5.25281C20.8563 4.21589 22.4078 5.09399 21.6957 6.42296C21.3433 7.07923 20.2532 8.91222 17.0151 15.6542V15.6548L17.0145 15.6561C16.2932 17.1164 15.4762 18.7715 14.1603 19.9128C13.0204 20.9195 12.0642 20.7843 11.6382 20.2881C10.9058 19.4265 11.8857 18.0227 12.37 17.1826C18.8888 5.89925 18.7359 5.89203 19.5438 5.25281ZM16.5255 18.7485L16.2328 18.4558C16.5177 18.0155 16.7769 17.562 17.0145 17.1098C17.0197 17.1419 17.0269 17.1754 17.0519 17.2004C17.0827 17.2312 17.1241 17.2463 17.1648 17.247L17.5953 17.6775L16.5255 18.7485ZM16.7231 19.41C16.6811 19.41 16.6391 19.4258 16.6076 19.458L15.5201 20.5454L15.0095 20.0348C15.0043 20.0296 14.9958 20.0309 14.9899 20.0263C15.3856 19.6273 15.7354 19.1915 16.0484 18.7347L16.7231 19.41ZM17.1766 16.7948C17.3452 16.4647 17.4765 16.2008 17.6314 15.8871C17.6491 15.8871 17.6675 15.8878 17.6852 15.8878L17.909 16.1116L17.2015 16.8191L17.1766 16.7948ZM13.4988 21.1157L12.9974 21.6171L12.6903 21.31C12.9403 21.2955 13.0906 21.287 13.4988 21.1157ZM40.1096 37.5719C39.4152 41.736 38.3474 42.7322 34.4295 43.0236C28.1784 43.4961 21.8066 43.4443 15.4919 42.8674C10.8829 42.4421 9.87745 41.0863 9.40821 36.7693C8.94291 32.5684 8.47695 28.3682 8.02018 24.1674C14.2292 24.0086 40.649 24.2672 42.3763 23.9974L40.1096 37.5719ZM42.7051 23.267C41.5376 23.5334 8.31091 23.5223 7.65267 23.5223C5.10631 23.5577 4.53338 22.5477 4.66201 19.9075C4.81361 16.2894 5.90697 15.7093 8.71649 15.7572L12.3995 15.8084C11.4683 17.4432 9.98836 19.3589 11.1395 20.7141C11.404 21.0212 11.7944 21.2174 12.2243 21.2883C12.2729 21.3677 12.6994 21.7838 12.7657 21.8494L12.6017 22.0135C12.5373 22.0778 12.5373 22.1815 12.6017 22.2458C12.666 22.3101 12.7697 22.3101 12.8333 22.2458L13.7232 21.3566L14.3415 21.9748C14.4058 22.0391 14.5095 22.0391 14.5731 21.9748C14.6374 21.9105 14.6374 21.8068 14.5731 21.7425L13.9549 21.1242L14.7943 20.2849L15.2878 20.7784L14.9419 21.1242C14.8776 21.1886 14.8776 21.2922 14.9419 21.3559C15.0063 21.4202 15.11 21.4202 15.1743 21.3559L15.5201 21.01L15.7669 21.2568C15.8312 21.3211 15.9349 21.3211 15.9992 21.2568C16.0635 21.1925 16.0635 21.0888 15.9992 21.0251L15.7524 20.7784L16.8399 19.6909C16.8721 19.6588 16.8878 19.6168 16.8878 19.5754L16.9187 19.6069C16.983 19.6712 17.0867 19.6712 17.151 19.6069C17.2153 19.5426 17.2153 19.4389 17.151 19.3746L16.7579 18.9815L17.8283 17.9111L18.2076 18.2904C18.2719 18.3547 18.3756 18.3547 18.4393 18.2904C18.5036 18.2261 18.5036 18.1224 18.4393 18.0588L18.0599 17.6794L18.6499 17.0894C18.7142 17.0251 18.7142 16.9214 18.6499 16.8571C18.5856 16.7928 18.4819 16.7928 18.4176 16.8571L17.8276 17.4471L17.4332 17.0527L18.1406 16.3452L19.3324 17.537C19.3968 17.6013 19.5005 17.6013 19.5648 17.537C19.6291 17.4727 19.6291 17.369 19.5648 17.3047L18.373 16.1129C18.4393 16.046 18.5173 15.9797 18.558 15.9022C18.959 15.9088 19.36 15.9141 19.761 15.9206L19.8673 16.0269L19.3521 16.5421C19.2878 16.6064 19.2878 16.7101 19.3521 16.7744C19.4164 16.8387 19.5201 16.8387 19.5845 16.7744L20.0996 16.2593L20.6319 16.7908C20.6437 16.8033 20.6614 16.8013 20.6758 16.8092L20.416 17.0691C20.3516 17.1334 20.3516 17.2371 20.416 17.3014C20.4803 17.3657 20.584 17.3657 20.6483 17.3014L21.653 16.2967L22.3336 16.9772C22.3979 17.0415 22.5016 17.0415 22.5653 16.9772C22.6296 16.9129 22.6296 16.8092 22.5653 16.7449L21.8847 16.0643L21.9234 16.0256C21.9431 16.0059 21.9451 15.979 21.953 15.9541C22.3375 15.96 22.7228 15.9659 23.1074 15.9718C23.1093 16.0112 23.1225 16.0512 23.1526 16.0814L23.3338 16.2625L22.6913 16.905C22.627 16.9693 22.627 17.073 22.6913 17.1367C22.7556 17.201 22.8593 17.201 22.9236 17.1367L23.5661 16.4942L24.227 17.1551C24.2913 17.2194 24.395 17.2194 24.4593 17.1551C24.5236 17.0908 24.5236 16.9871 24.4593 16.9227L23.7984 16.2619L23.8621 16.1982C23.9211 16.1392 23.9198 16.0479 23.8693 15.9836C24.0045 15.9856 24.9292 15.9994 25.0112 16.0007C24.9837 16.0611 24.983 16.1306 25.0329 16.1805L25.2304 16.3774L25.0329 16.5749C24.9686 16.6392 24.9686 16.7429 25.0329 16.8072C25.0972 16.8716 25.2009 16.8716 25.2652 16.8072L25.4621 16.6097L25.9471 17.0947C26.0114 17.159 26.1151 17.159 26.1794 17.0947C26.2437 17.0304 26.2437 16.9267 26.1794 16.863L25.6944 16.378L26.0554 16.0171C26.3146 16.021 26.5732 16.025 26.8324 16.0289L26.4176 16.4437C26.3533 16.508 26.3533 16.6117 26.4176 16.6753C26.4819 16.7396 26.5856 16.7396 26.6493 16.6753L27.0608 16.2638L27.9212 17.1242C27.9855 17.1885 28.0892 17.1885 28.1535 17.1242C28.2178 17.0599 28.2178 16.9562 28.1535 16.8919L27.2964 16.0355C27.7591 16.042 28.2211 16.0492 28.6838 16.0565L28.1981 16.5421C28.1338 16.6064 28.1338 16.7101 28.1981 16.7738C28.2624 16.8381 28.3661 16.8381 28.4304 16.7738L28.9804 16.2238C28.9856 16.2304 28.9837 16.2402 28.9896 16.2461L29.718 16.9746C29.7824 17.0389 29.8861 17.0389 29.9504 16.9746C29.9989 16.926 29.9989 16.8584 29.9733 16.7987C30.0331 16.8217 30.077 16.8414 30.1446 16.7738L30.688 16.2304L31.3115 16.8538C31.3758 16.9182 31.4795 16.9182 31.5438 16.8538C31.6081 16.7895 31.6081 16.6858 31.5438 16.6215L31.0135 16.0912C31.3765 16.0965 31.7387 16.1017 32.1023 16.1077C32.8321 17.5836 33.6682 19.2237 35.0306 20.4056C37.1694 22.2964 39.2813 21.0022 38.8416 18.9684C38.6959 18.2806 38.3724 17.8074 37.4339 16.1785L42.5503 16.2579C44.0046 16.2816 44.8282 16.4259 44.9535 18.9762C45.0697 21.1689 44.8597 22.7288 42.7051 23.267Z"/>
</mask>
<path d="M45.6072 18.9401C45.4661 16.0847 44.4141 15.6305 42.5588 15.5997L37.05 15.5144C35.5556 12.9221 34.0049 10.2313 32.5302 7.66004C32.9023 6.95192 33.0697 6.16898 32.9843 5.42804C32.584 1.78504 27.6094 0.637207 25.6905 4.04001C24.244 6.60409 26.0298 9.58884 28.9502 9.73782C29.951 11.7506 30.6145 13.1104 31.7729 15.4448C27.0404 15.3707 22.9243 15.3136 17.9543 15.2361L20.6739 9.73782C21.7876 9.68072 22.8422 9.18326 23.5248 8.37407C24.5833 7.13305 24.7395 5.47266 23.9316 4.04001C23.0982 2.56207 21.489 1.78307 19.8424 2.0528C18.1971 2.32056 16.8196 3.77159 16.6384 5.42607C16.5525 6.16898 16.7205 6.95323 17.0932 7.66201C15.6599 10.1624 14.2181 12.6622 12.7736 15.1574L8.72765 15.1016C5.49351 15.0419 4.17177 15.9574 4.00704 19.8786C3.87316 22.6291 4.55438 24.1366 7.36259 24.1779C7.82133 28.3991 8.2886 32.6209 8.75718 36.8414C9.25661 41.4341 10.4609 43.0623 15.4335 43.5217C21.7869 44.1018 28.1909 44.1544 34.48 43.6786C38.8016 43.3583 40.0308 42.0464 40.758 37.6802L43.0694 23.8393C45.4142 23.1515 45.7365 21.3546 45.6072 18.9401ZM26.2621 4.36224C27.8667 1.51728 32.0006 2.48594 32.3327 5.50154C32.3878 5.98194 32.3182 6.48793 32.1351 6.96898C32.0754 6.86463 32.0157 6.76028 31.9546 6.65528L31.9166 6.59096C31.5261 5.92615 31.1225 5.23837 30.4879 4.73698C29.2186 3.73287 27.5628 4.05642 27.1809 5.26003C27.0332 5.72468 27.0936 6.26085 27.3463 6.73272C27.8831 7.72961 28.0288 7.93699 28.6063 9.04807C26.3618 8.69105 25.1379 6.35536 26.2621 4.36224ZM27.9251 6.42296C27.2137 5.09465 28.7586 4.20999 30.079 5.25281C30.8245 5.84215 30.8731 6.10663 35.3017 13.7949C37.764 18.0673 38.0593 18.4473 38.1978 19.1036C38.5056 20.5244 37.1051 21.3618 35.4611 19.9101C34.1479 18.7702 33.3302 17.115 32.6096 15.6555C32.607 15.6502 32.6044 15.645 32.6017 15.6404C32.6011 15.6391 32.5998 15.6371 32.5991 15.6351C27.572 5.53239 30.4216 11.0642 27.9251 6.42296ZM30.3717 16.0801L29.9116 16.5401C29.8795 16.5723 29.8637 16.6136 29.8637 16.6556L29.2711 16.063C29.638 16.0689 30.0048 16.0742 30.3717 16.0801ZM25.5973 16.0079L25.4614 16.1437L25.321 16.0033C25.4129 16.0046 25.5047 16.0066 25.5973 16.0079ZM23.616 15.9777L23.5654 16.0282L23.5129 15.9757C23.5471 15.9771 23.5818 15.9771 23.616 15.9777ZM20.4278 15.9298C20.7192 15.9344 21.0099 15.939 21.3013 15.9429L21.4207 16.0624L20.8819 16.6012C20.8747 16.5867 20.876 16.569 20.8635 16.5572L20.332 16.0256L20.4278 15.9298ZM17.2895 5.50023C17.4397 4.12598 18.5823 2.92302 19.9474 2.70055C21.3256 2.47807 22.6631 3.12713 23.3594 4.36224C23.8837 5.29153 24.0708 6.72156 23.024 7.9488C22.5338 8.52961 21.8106 8.92009 21.0204 9.04741C21.5119 8.09712 21.8125 7.59769 22.2772 6.73337C23.3154 4.79735 21.0335 3.2341 19.1336 4.73829C18.499 5.23969 18.0954 5.92747 17.7049 6.59228L17.487 6.96964C17.3032 6.48793 17.2337 5.98128 17.2895 5.50023ZM19.5438 5.25281C20.8563 4.21589 22.4078 5.09399 21.6957 6.42296C21.3433 7.07923 20.2532 8.91222 17.0151 15.6542V15.6548L17.0145 15.6561C16.2932 17.1164 15.4762 18.7715 14.1603 19.9128C13.0204 20.9195 12.0642 20.7843 11.6382 20.2881C10.9058 19.4265 11.8857 18.0227 12.37 17.1826C18.8888 5.89925 18.7359 5.89203 19.5438 5.25281ZM16.5255 18.7485L16.2328 18.4558C16.5177 18.0155 16.7769 17.562 17.0145 17.1098C17.0197 17.1419 17.0269 17.1754 17.0519 17.2004C17.0827 17.2312 17.1241 17.2463 17.1648 17.247L17.5953 17.6775L16.5255 18.7485ZM16.7231 19.41C16.6811 19.41 16.6391 19.4258 16.6076 19.458L15.5201 20.5454L15.0095 20.0348C15.0043 20.0296 14.9958 20.0309 14.9899 20.0263C15.3856 19.6273 15.7354 19.1915 16.0484 18.7347L16.7231 19.41ZM17.1766 16.7948C17.3452 16.4647 17.4765 16.2008 17.6314 15.8871C17.6491 15.8871 17.6675 15.8878 17.6852 15.8878L17.909 16.1116L17.2015 16.8191L17.1766 16.7948ZM13.4988 21.1157L12.9974 21.6171L12.6903 21.31C12.9403 21.2955 13.0906 21.287 13.4988 21.1157ZM40.1096 37.5719C39.4152 41.736 38.3474 42.7322 34.4295 43.0236C28.1784 43.4961 21.8066 43.4443 15.4919 42.8674C10.8829 42.4421 9.87745 41.0863 9.40821 36.7693C8.94291 32.5684 8.47695 28.3682 8.02018 24.1674C14.2292 24.0086 40.649 24.2672 42.3763 23.9974L40.1096 37.5719ZM42.7051 23.267C41.5376 23.5334 8.31091 23.5223 7.65267 23.5223C5.10631 23.5577 4.53338 22.5477 4.66201 19.9075C4.81361 16.2894 5.90697 15.7093 8.71649 15.7572L12.3995 15.8084C11.4683 17.4432 9.98836 19.3589 11.1395 20.7141C11.404 21.0212 11.7944 21.2174 12.2243 21.2883C12.2729 21.3677 12.6994 21.7838 12.7657 21.8494L12.6017 22.0135C12.5373 22.0778 12.5373 22.1815 12.6017 22.2458C12.666 22.3101 12.7697 22.3101 12.8333 22.2458L13.7232 21.3566L14.3415 21.9748C14.4058 22.0391 14.5095 22.0391 14.5731 21.9748C14.6374 21.9105 14.6374 21.8068 14.5731 21.7425L13.9549 21.1242L14.7943 20.2849L15.2878 20.7784L14.9419 21.1242C14.8776 21.1886 14.8776 21.2922 14.9419 21.3559C15.0063 21.4202 15.11 21.4202 15.1743 21.3559L15.5201 21.01L15.7669 21.2568C15.8312 21.3211 15.9349 21.3211 15.9992 21.2568C16.0635 21.1925 16.0635 21.0888 15.9992 21.0251L15.7524 20.7784L16.8399 19.6909C16.8721 19.6588 16.8878 19.6168 16.8878 19.5754L16.9187 19.6069C16.983 19.6712 17.0867 19.6712 17.151 19.6069C17.2153 19.5426 17.2153 19.4389 17.151 19.3746L16.7579 18.9815L17.8283 17.9111L18.2076 18.2904C18.2719 18.3547 18.3756 18.3547 18.4393 18.2904C18.5036 18.2261 18.5036 18.1224 18.4393 18.0588L18.0599 17.6794L18.6499 17.0894C18.7142 17.0251 18.7142 16.9214 18.6499 16.8571C18.5856 16.7928 18.4819 16.7928 18.4176 16.8571L17.8276 17.4471L17.4332 17.0527L18.1406 16.3452L19.3324 17.537C19.3968 17.6013 19.5005 17.6013 19.5648 17.537C19.6291 17.4727 19.6291 17.369 19.5648 17.3047L18.373 16.1129C18.4393 16.046 18.5173 15.9797 18.558 15.9022C18.959 15.9088 19.36 15.9141 19.761 15.9206L19.8673 16.0269L19.3521 16.5421C19.2878 16.6064 19.2878 16.7101 19.3521 16.7744C19.4164 16.8387 19.5201 16.8387 19.5845 16.7744L20.0996 16.2593L20.6319 16.7908C20.6437 16.8033 20.6614 16.8013 20.6758 16.8092L20.416 17.0691C20.3516 17.1334 20.3516 17.2371 20.416 17.3014C20.4803 17.3657 20.584 17.3657 20.6483 17.3014L21.653 16.2967L22.3336 16.9772C22.3979 17.0415 22.5016 17.0415 22.5653 16.9772C22.6296 16.9129 22.6296 16.8092 22.5653 16.7449L21.8847 16.0643L21.9234 16.0256C21.9431 16.0059 21.9451 15.979 21.953 15.9541C22.3375 15.96 22.7228 15.9659 23.1074 15.9718C23.1093 16.0112 23.1225 16.0512 23.1526 16.0814L23.3338 16.2625L22.6913 16.905C22.627 16.9693 22.627 17.073 22.6913 17.1367C22.7556 17.201 22.8593 17.201 22.9236 17.1367L23.5661 16.4942L24.227 17.1551C24.2913 17.2194 24.395 17.2194 24.4593 17.1551C24.5236 17.0908 24.5236 16.9871 24.4593 16.9227L23.7984 16.2619L23.8621 16.1982C23.9211 16.1392 23.9198 16.0479 23.8693 15.9836C24.0045 15.9856 24.9292 15.9994 25.0112 16.0007C24.9837 16.0611 24.983 16.1306 25.0329 16.1805L25.2304 16.3774L25.0329 16.5749C24.9686 16.6392 24.9686 16.7429 25.0329 16.8072C25.0972 16.8716 25.2009 16.8716 25.2652 16.8072L25.4621 16.6097L25.9471 17.0947C26.0114 17.159 26.1151 17.159 26.1794 17.0947C26.2437 17.0304 26.2437 16.9267 26.1794 16.863L25.6944 16.378L26.0554 16.0171C26.3146 16.021 26.5732 16.025 26.8324 16.0289L26.4176 16.4437C26.3533 16.508 26.3533 16.6117 26.4176 16.6753C26.4819 16.7396 26.5856 16.7396 26.6493 16.6753L27.0608 16.2638L27.9212 17.1242C27.9855 17.1885 28.0892 17.1885 28.1535 17.1242C28.2178 17.0599 28.2178 16.9562 28.1535 16.8919L27.2964 16.0355C27.7591 16.042 28.2211 16.0492 28.6838 16.0565L28.1981 16.5421C28.1338 16.6064 28.1338 16.7101 28.1981 16.7738C28.2624 16.8381 28.3661 16.8381 28.4304 16.7738L28.9804 16.2238C28.9856 16.2304 28.9837 16.2402 28.9896 16.2461L29.718 16.9746C29.7824 17.0389 29.8861 17.0389 29.9504 16.9746C29.9989 16.926 29.9989 16.8584 29.9733 16.7987C30.0331 16.8217 30.077 16.8414 30.1446 16.7738L30.688 16.2304L31.3115 16.8538C31.3758 16.9182 31.4795 16.9182 31.5438 16.8538C31.6081 16.7895 31.6081 16.6858 31.5438 16.6215L31.0135 16.0912C31.3765 16.0965 31.7387 16.1017 32.1023 16.1077C32.8321 17.5836 33.6682 19.2237 35.0306 20.4056C37.1694 22.2964 39.2813 21.0022 38.8416 18.9684C38.6959 18.2806 38.3724 17.8074 37.4339 16.1785L42.5503 16.2579C44.0046 16.2816 44.8282 16.4259 44.9535 18.9762C45.0697 21.1689 44.8597 22.7288 42.7051 23.267Z" fill="#E42614"/>
<path d="M45.6072 18.9401C45.4661 16.0847 44.4141 15.6305 42.5588 15.5997L37.05 15.5144C35.5556 12.9221 34.0049 10.2313 32.5302 7.66004C32.9023 6.95192 33.0697 6.16898 32.9843 5.42804C32.584 1.78504 27.6094 0.637207 25.6905 4.04001C24.244 6.60409 26.0298 9.58884 28.9502 9.73782C29.951 11.7506 30.6145 13.1104 31.7729 15.4448C27.0404 15.3707 22.9243 15.3136 17.9543 15.2361L20.6739 9.73782C21.7876 9.68072 22.8422 9.18326 23.5248 8.37407C24.5833 7.13305 24.7395 5.47266 23.9316 4.04001C23.0982 2.56207 21.489 1.78307 19.8424 2.0528C18.1971 2.32056 16.8196 3.77159 16.6384 5.42607C16.5525 6.16898 16.7205 6.95323 17.0932 7.66201C15.6599 10.1624 14.2181 12.6622 12.7736 15.1574L8.72765 15.1016C5.49351 15.0419 4.17177 15.9574 4.00704 19.8786C3.87316 22.6291 4.55438 24.1366 7.36259 24.1779C7.82133 28.3991 8.2886 32.6209 8.75718 36.8414C9.25661 41.4341 10.4609 43.0623 15.4335 43.5217C21.7869 44.1018 28.1909 44.1544 34.48 43.6786C38.8016 43.3583 40.0308 42.0464 40.758 37.6802L43.0694 23.8393C45.4142 23.1515 45.7365 21.3546 45.6072 18.9401ZM26.2621 4.36224C27.8667 1.51728 32.0006 2.48594 32.3327 5.50154C32.3878 5.98194 32.3182 6.48793 32.1351 6.96898C32.0754 6.86463 32.0157 6.76028 31.9546 6.65528L31.9166 6.59096C31.5261 5.92615 31.1225 5.23837 30.4879 4.73698C29.2186 3.73287 27.5628 4.05642 27.1809 5.26003C27.0332 5.72468 27.0936 6.26085 27.3463 6.73272C27.8831 7.72961 28.0288 7.93699 28.6063 9.04807C26.3618 8.69105 25.1379 6.35536 26.2621 4.36224ZM27.9251 6.42296C27.2137 5.09465 28.7586 4.20999 30.079 5.25281C30.8245 5.84215 30.8731 6.10663 35.3017 13.7949C37.764 18.0673 38.0593 18.4473 38.1978 19.1036C38.5056 20.5244 37.1051 21.3618 35.4611 19.9101C34.1479 18.7702 33.3302 17.115 32.6096 15.6555C32.607 15.6502 32.6044 15.645 32.6017 15.6404C32.6011 15.6391 32.5998 15.6371 32.5991 15.6351C27.572 5.53239 30.4216 11.0642 27.9251 6.42296ZM30.3717 16.0801L29.9116 16.5401C29.8795 16.5723 29.8637 16.6136 29.8637 16.6556L29.2711 16.063C29.638 16.0689 30.0048 16.0742 30.3717 16.0801ZM25.5973 16.0079L25.4614 16.1437L25.321 16.0033C25.4129 16.0046 25.5047 16.0066 25.5973 16.0079ZM23.616 15.9777L23.5654 16.0282L23.5129 15.9757C23.5471 15.9771 23.5818 15.9771 23.616 15.9777ZM20.4278 15.9298C20.7192 15.9344 21.0099 15.939 21.3013 15.9429L21.4207 16.0624L20.8819 16.6012C20.8747 16.5867 20.876 16.569 20.8635 16.5572L20.332 16.0256L20.4278 15.9298ZM17.2895 5.50023C17.4397 4.12598 18.5823 2.92302 19.9474 2.70055C21.3256 2.47807 22.6631 3.12713 23.3594 4.36224C23.8837 5.29153 24.0708 6.72156 23.024 7.9488C22.5338 8.52961 21.8106 8.92009 21.0204 9.04741C21.5119 8.09712 21.8125 7.59769 22.2772 6.73337C23.3154 4.79735 21.0335 3.2341 19.1336 4.73829C18.499 5.23969 18.0954 5.92747 17.7049 6.59228L17.487 6.96964C17.3032 6.48793 17.2337 5.98128 17.2895 5.50023ZM19.5438 5.25281C20.8563 4.21589 22.4078 5.09399 21.6957 6.42296C21.3433 7.07923 20.2532 8.91222 17.0151 15.6542V15.6548L17.0145 15.6561C16.2932 17.1164 15.4762 18.7715 14.1603 19.9128C13.0204 20.9195 12.0642 20.7843 11.6382 20.2881C10.9058 19.4265 11.8857 18.0227 12.37 17.1826C18.8888 5.89925 18.7359 5.89203 19.5438 5.25281ZM16.5255 18.7485L16.2328 18.4558C16.5177 18.0155 16.7769 17.562 17.0145 17.1098C17.0197 17.1419 17.0269 17.1754 17.0519 17.2004C17.0827 17.2312 17.1241 17.2463 17.1648 17.247L17.5953 17.6775L16.5255 18.7485ZM16.7231 19.41C16.6811 19.41 16.6391 19.4258 16.6076 19.458L15.5201 20.5454L15.0095 20.0348C15.0043 20.0296 14.9958 20.0309 14.9899 20.0263C15.3856 19.6273 15.7354 19.1915 16.0484 18.7347L16.7231 19.41ZM17.1766 16.7948C17.3452 16.4647 17.4765 16.2008 17.6314 15.8871C17.6491 15.8871 17.6675 15.8878 17.6852 15.8878L17.909 16.1116L17.2015 16.8191L17.1766 16.7948ZM13.4988 21.1157L12.9974 21.6171L12.6903 21.31C12.9403 21.2955 13.0906 21.287 13.4988 21.1157ZM40.1096 37.5719C39.4152 41.736 38.3474 42.7322 34.4295 43.0236C28.1784 43.4961 21.8066 43.4443 15.4919 42.8674C10.8829 42.4421 9.87745 41.0863 9.40821 36.7693C8.94291 32.5684 8.47695 28.3682 8.02018 24.1674C14.2292 24.0086 40.649 24.2672 42.3763 23.9974L40.1096 37.5719ZM42.7051 23.267C41.5376 23.5334 8.31091 23.5223 7.65267 23.5223C5.10631 23.5577 4.53338 22.5477 4.66201 19.9075C4.81361 16.2894 5.90697 15.7093 8.71649 15.7572L12.3995 15.8084C11.4683 17.4432 9.98836 19.3589 11.1395 20.7141C11.404 21.0212 11.7944 21.2174 12.2243 21.2883C12.2729 21.3677 12.6994 21.7838 12.7657 21.8494L12.6017 22.0135C12.5373 22.0778 12.5373 22.1815 12.6017 22.2458C12.666 22.3101 12.7697 22.3101 12.8333 22.2458L13.7232 21.3566L14.3415 21.9748C14.4058 22.0391 14.5095 22.0391 14.5731 21.9748C14.6374 21.9105 14.6374 21.8068 14.5731 21.7425L13.9549 21.1242L14.7943 20.2849L15.2878 20.7784L14.9419 21.1242C14.8776 21.1886 14.8776 21.2922 14.9419 21.3559C15.0063 21.4202 15.11 21.4202 15.1743 21.3559L15.5201 21.01L15.7669 21.2568C15.8312 21.3211 15.9349 21.3211 15.9992 21.2568C16.0635 21.1925 16.0635 21.0888 15.9992 21.0251L15.7524 20.7784L16.8399 19.6909C16.8721 19.6588 16.8878 19.6168 16.8878 19.5754L16.9187 19.6069C16.983 19.6712 17.0867 19.6712 17.151 19.6069C17.2153 19.5426 17.2153 19.4389 17.151 19.3746L16.7579 18.9815L17.8283 17.9111L18.2076 18.2904C18.2719 18.3547 18.3756 18.3547 18.4393 18.2904C18.5036 18.2261 18.5036 18.1224 18.4393 18.0588L18.0599 17.6794L18.6499 17.0894C18.7142 17.0251 18.7142 16.9214 18.6499 16.8571C18.5856 16.7928 18.4819 16.7928 18.4176 16.8571L17.8276 17.4471L17.4332 17.0527L18.1406 16.3452L19.3324 17.537C19.3968 17.6013 19.5005 17.6013 19.5648 17.537C19.6291 17.4727 19.6291 17.369 19.5648 17.3047L18.373 16.1129C18.4393 16.046 18.5173 15.9797 18.558 15.9022C18.959 15.9088 19.36 15.9141 19.761 15.9206L19.8673 16.0269L19.3521 16.5421C19.2878 16.6064 19.2878 16.7101 19.3521 16.7744C19.4164 16.8387 19.5201 16.8387 19.5845 16.7744L20.0996 16.2593L20.6319 16.7908C20.6437 16.8033 20.6614 16.8013 20.6758 16.8092L20.416 17.0691C20.3516 17.1334 20.3516 17.2371 20.416 17.3014C20.4803 17.3657 20.584 17.3657 20.6483 17.3014L21.653 16.2967L22.3336 16.9772C22.3979 17.0415 22.5016 17.0415 22.5653 16.9772C22.6296 16.9129 22.6296 16.8092 22.5653 16.7449L21.8847 16.0643L21.9234 16.0256C21.9431 16.0059 21.9451 15.979 21.953 15.9541C22.3375 15.96 22.7228 15.9659 23.1074 15.9718C23.1093 16.0112 23.1225 16.0512 23.1526 16.0814L23.3338 16.2625L22.6913 16.905C22.627 16.9693 22.627 17.073 22.6913 17.1367C22.7556 17.201 22.8593 17.201 22.9236 17.1367L23.5661 16.4942L24.227 17.1551C24.2913 17.2194 24.395 17.2194 24.4593 17.1551C24.5236 17.0908 24.5236 16.9871 24.4593 16.9227L23.7984 16.2619L23.8621 16.1982C23.9211 16.1392 23.9198 16.0479 23.8693 15.9836C24.0045 15.9856 24.9292 15.9994 25.0112 16.0007C24.9837 16.0611 24.983 16.1306 25.0329 16.1805L25.2304 16.3774L25.0329 16.5749C24.9686 16.6392 24.9686 16.7429 25.0329 16.8072C25.0972 16.8716 25.2009 16.8716 25.2652 16.8072L25.4621 16.6097L25.9471 17.0947C26.0114 17.159 26.1151 17.159 26.1794 17.0947C26.2437 17.0304 26.2437 16.9267 26.1794 16.863L25.6944 16.378L26.0554 16.0171C26.3146 16.021 26.5732 16.025 26.8324 16.0289L26.4176 16.4437C26.3533 16.508 26.3533 16.6117 26.4176 16.6753C26.4819 16.7396 26.5856 16.7396 26.6493 16.6753L27.0608 16.2638L27.9212 17.1242C27.9855 17.1885 28.0892 17.1885 28.1535 17.1242C28.2178 17.0599 28.2178 16.9562 28.1535 16.8919L27.2964 16.0355C27.7591 16.042 28.2211 16.0492 28.6838 16.0565L28.1981 16.5421C28.1338 16.6064 28.1338 16.7101 28.1981 16.7738C28.2624 16.8381 28.3661 16.8381 28.4304 16.7738L28.9804 16.2238C28.9856 16.2304 28.9837 16.2402 28.9896 16.2461L29.718 16.9746C29.7824 17.0389 29.8861 17.0389 29.9504 16.9746C29.9989 16.926 29.9989 16.8584 29.9733 16.7987C30.0331 16.8217 30.077 16.8414 30.1446 16.7738L30.688 16.2304L31.3115 16.8538C31.3758 16.9182 31.4795 16.9182 31.5438 16.8538C31.6081 16.7895 31.6081 16.6858 31.5438 16.6215L31.0135 16.0912C31.3765 16.0965 31.7387 16.1017 32.1023 16.1077C32.8321 17.5836 33.6682 19.2237 35.0306 20.4056C37.1694 22.2964 39.2813 21.0022 38.8416 18.9684C38.6959 18.2806 38.3724 17.8074 37.4339 16.1785L42.5503 16.2579C44.0046 16.2816 44.8282 16.4259 44.9535 18.9762C45.0697 21.1689 44.8597 22.7288 42.7051 23.267Z" stroke="#E42614" stroke-width="0.3" mask="url(#path-1-outside-1_406_10)"/>
<path d="M29.8357 6.05619L29.8357 6.05619L29.8356 6.05593C29.7926 5.8944 29.6941 5.78874 29.5722 5.7349C29.4527 5.68211 29.3162 5.68128 29.1956 5.71671C29.0754 5.75206 28.9634 5.82582 28.897 5.93176C28.8305 6.03796 28.8138 6.17065 28.8728 6.31251C28.8918 6.46494 28.9719 6.57199 29.0822 6.63132C29.1923 6.69052 29.3261 6.6991 29.448 6.67008C29.5702 6.641 29.6884 6.57237 29.7659 6.46693C29.845 6.35944 29.8782 6.2184 29.8357 6.05619Z" fill="#E42614" stroke="#E42614" stroke-width="0.15"/>
<path d="M19.786 6.05677L19.786 6.05677L19.7859 6.05709C19.7428 6.22066 19.7755 6.36208 19.855 6.4694C19.9329 6.5746 20.0517 6.64186 20.1742 6.66963C20.2965 6.69734 20.4303 6.68744 20.5402 6.62824C20.6501 6.56897 20.7307 6.46287 20.7495 6.31217C20.8085 6.16983 20.7921 6.03703 20.7255 5.93086C20.659 5.82499 20.5469 5.75177 20.4265 5.71697C20.3058 5.68209 20.1692 5.68353 20.0498 5.73648C19.928 5.79045 19.8292 5.89586 19.786 6.05677Z" fill="#E42614" stroke="#E42614" stroke-width="0.15"/>
<path d="M37.0051 19.2313L37.005 19.2314C36.8941 19.3453 36.7429 19.4037 36.5883 19.4037C36.4828 19.4037 36.3757 19.376 36.2788 19.322L36.2782 19.3217L36.2782 19.3217C36.1398 19.2428 36.0598 19.0898 36.076 18.9307L36.076 18.9307L36.1506 18.9382L36.076 18.9306L36.0924 18.7673L36.0925 18.7661L36.0925 18.7661C36.096 18.736 36.1022 18.706 36.1121 18.6771C36.1211 18.6141 36.145 18.5517 36.186 18.4961L37.0051 19.2313ZM37.0051 19.2313C37.1301 19.1025 37.1826 18.912 37.144 18.734L37.0051 19.2313ZM36.8293 18.3583L36.8293 18.3583C36.99 18.4204 37.1068 18.5624 37.144 18.7339L36.8293 18.3583ZM36.8293 18.3583L36.8286 18.358M36.8293 18.3583L36.8286 18.358M36.8286 18.358L36.8207 18.3551M36.8286 18.358L36.8207 18.3551M36.8207 18.3551L36.8168 18.3536M36.8207 18.3551L36.8168 18.3536M36.8168 18.3536C36.7693 18.3296 36.717 18.3119 36.6611 18.3036C36.6612 18.3036 36.6612 18.3036 36.6612 18.3036L36.65 18.3777L36.6611 18.3036L36.8168 18.3536Z" fill="#E42614" stroke="#E42614" stroke-width="0.15"/>
<path d="M13.83 18.7332C13.87 18.9174 13.8183 19.0769 13.7189 19.1942C13.621 19.3098 13.4783 19.3832 13.3342 19.404C13.19 19.4248 13.0362 19.3937 12.9239 19.2881C12.8104 19.1813 12.7527 19.0112 12.7757 18.7816L12.783 18.7101L12.7915 18.7106C12.7936 18.6012 12.8356 18.5096 12.9051 18.4411C12.9909 18.3567 13.1124 18.3133 13.235 18.3066C13.4781 18.2932 13.7632 18.4248 13.83 18.7332ZM13.83 18.7332C13.83 18.7332 13.83 18.7332 13.83 18.7333L13.7567 18.7491L13.83 18.7332Z" fill="#E42614" stroke="#E42614" stroke-width="0.15"/>
<mask id="path-6-outside-2_406_10" maskUnits="userSpaceOnUse" x="30.9302" y="25.5708" width="8" height="14" fill="black">
<rect fill="white" x="30.9302" y="25.5708" width="8" height="14"/>
<path d="M36.816 26.5779C35.6616 26.5497 33.908 26.5051 33.3298 28.6176C33.2537 28.8972 33.0457 30.1487 32.7136 32.1681C32.4642 33.6861 32.1905 35.3445 31.9976 36.3912C31.7377 37.8009 32.2175 38.3916 33.6396 38.4625C34.9745 38.5287 35.5756 38.2885 36.184 36.8152C37.2452 34.2505 38.0426 31.5656 38.5558 28.8355C38.8636 27.1981 38.2382 26.6153 36.816 26.5779ZM37.6153 27.3687L37.3128 27.6713L37.1002 27.4586C37.133 27.3963 37.1349 27.3215 37.0824 27.269C37.066 27.2526 37.0431 27.2526 37.0227 27.2447C37.2465 27.2578 37.4532 27.2887 37.6153 27.3687ZM36.9203 27.2401C36.9105 27.2434 36.9013 27.2467 36.8921 27.2519L36.8783 27.2381C36.8928 27.2388 36.9066 27.2394 36.9203 27.2401ZM36.4084 27.2316L36.648 27.4711L36.2536 27.8649L35.6577 27.269C35.8926 27.2381 36.1459 27.2309 36.4084 27.2316ZM33.9632 28.7909C34.0281 28.5527 34.1482 28.2586 34.3392 27.9948L34.7251 28.3807L33.9317 29.1742C33.9067 29.1984 33.9002 29.2312 33.8949 29.2634L33.8726 29.2411C33.9133 29.0173 33.9448 28.8578 33.9632 28.7909ZM33.8024 29.6349L34.4114 30.2439L33.555 31.1003C33.6462 30.5484 33.7321 30.0391 33.8024 29.6349ZM33.3613 32.2751C33.4027 32.0237 33.444 31.7724 33.4854 31.5243L34.0393 32.0782L33.4211 32.6964L33.3102 32.5855C33.3272 32.4818 33.3443 32.3774 33.3613 32.2751ZM33.0234 34.3128L33.1737 34.4631L32.9623 34.6744C32.9833 34.5556 33.003 34.4349 33.0234 34.3128ZM32.7805 35.7396L33.4125 36.3716L33.0332 36.7509L32.7917 36.5094C32.7523 36.47 32.7005 36.4634 32.6499 36.472C32.69 36.2521 32.7339 36.0047 32.7805 35.7396ZM32.5994 36.7811L32.8015 36.9832L32.5935 37.1912C32.5791 37.0626 32.5804 36.9248 32.5994 36.7811ZM37.9113 28.7148C37.4066 31.4002 36.6217 34.0418 35.5776 36.5645C35.09 37.7438 34.7573 37.8606 33.6718 37.8068C33.3095 37.7891 32.9118 37.7478 32.7202 37.5279L33.0326 37.2155L33.2603 37.4433C33.3246 37.5076 33.4283 37.5076 33.4919 37.4433C33.5563 37.3789 33.5563 37.2752 33.4919 37.2109L33.2642 36.9832L33.6435 36.6039L33.6803 36.6406C33.7446 36.7049 33.8483 36.7049 33.912 36.6406C33.9763 36.5763 33.9763 36.4726 33.912 36.4083L33.8752 36.3716L34.2578 35.9889C34.3221 35.9246 34.3221 35.8209 34.2578 35.7566C34.0878 35.5866 33.826 35.9568 33.6435 36.1392L32.9394 35.4357C32.9118 35.4081 32.875 35.3976 32.8389 35.3944C32.8481 35.3412 32.8573 35.288 32.8665 35.2336L33.4047 34.6954L33.7846 35.0754C33.849 35.1397 33.9527 35.1397 34.017 35.0754C34.0813 35.0111 34.0813 34.9074 34.017 34.8431L33.637 34.4631L34.1325 33.9676C34.1968 33.9033 34.1968 33.7996 34.1325 33.7353C34.0682 33.671 33.9645 33.671 33.9002 33.7353L33.4047 34.2308L33.089 33.9151C33.1172 33.7464 33.1454 33.5765 33.1737 33.4058L33.4198 33.1597L33.8424 33.5824C33.9067 33.6467 34.0104 33.6467 34.0747 33.5824C34.139 33.5181 34.139 33.4144 34.0747 33.35L33.6521 32.9274L34.2919 32.2875C34.3484 32.3026 34.3858 32.3184 34.4481 32.256C34.4915 32.2127 34.4947 32.155 34.4796 32.0998L34.5249 32.0546C34.5892 31.9902 34.5892 31.8865 34.5249 31.8222C34.4606 31.7579 34.3569 31.7579 34.2926 31.8222L34.2696 31.8452L33.7709 31.3464L34.6417 30.4756L34.7618 30.5957C34.8262 30.66 34.9299 30.66 34.9942 30.5957C35.0585 30.5313 35.0585 30.4276 34.9942 30.3633L34.8741 30.2432L34.9824 30.1349C35.0467 30.0706 35.0467 29.9669 34.9824 29.9026C34.918 29.8383 34.8143 29.8383 34.75 29.9026L34.6417 30.0109L34.0728 29.4419C34.1049 29.436 34.1371 29.4294 34.162 29.4052L34.9554 28.6117L35.3755 29.0317C35.4398 29.0961 35.5435 29.0961 35.6078 29.0317C35.6721 28.9674 35.6721 28.8637 35.6078 28.7994L35.1878 28.3794L35.2042 28.363C35.2685 28.2987 35.2685 28.195 35.2042 28.1307C35.1399 28.0664 35.0362 28.0664 34.9725 28.1307L34.9561 28.1471L34.5571 27.7481C34.733 27.582 34.8439 27.477 35.2796 27.3543L36.0317 28.1064C35.995 28.1694 35.9937 28.2475 36.0475 28.3013C36.1151 28.3689 36.1768 28.3551 36.2424 28.3164C36.3835 28.4562 36.6145 28.2685 36.4806 28.1005L36.8797 27.7015L37.2708 28.0926C37.3351 28.1569 37.4388 28.1569 37.5031 28.0926C37.551 28.0447 37.551 27.9784 37.5274 27.9193L37.8516 27.5951C38.0235 27.878 37.9868 28.3098 37.9113 28.7148Z"/>
</mask>
<path d="M36.816 26.5779C35.6616 26.5497 33.908 26.5051 33.3298 28.6176C33.2537 28.8972 33.0457 30.1487 32.7136 32.1681C32.4642 33.6861 32.1905 35.3445 31.9976 36.3912C31.7377 37.8009 32.2175 38.3916 33.6396 38.4625C34.9745 38.5287 35.5756 38.2885 36.184 36.8152C37.2452 34.2505 38.0426 31.5656 38.5558 28.8355C38.8636 27.1981 38.2382 26.6153 36.816 26.5779ZM37.6153 27.3687L37.3128 27.6713L37.1002 27.4586C37.133 27.3963 37.1349 27.3215 37.0824 27.269C37.066 27.2526 37.0431 27.2526 37.0227 27.2447C37.2465 27.2578 37.4532 27.2887 37.6153 27.3687ZM36.9203 27.2401C36.9105 27.2434 36.9013 27.2467 36.8921 27.2519L36.8783 27.2381C36.8928 27.2388 36.9066 27.2394 36.9203 27.2401ZM36.4084 27.2316L36.648 27.4711L36.2536 27.8649L35.6577 27.269C35.8926 27.2381 36.1459 27.2309 36.4084 27.2316ZM33.9632 28.7909C34.0281 28.5527 34.1482 28.2586 34.3392 27.9948L34.7251 28.3807L33.9317 29.1742C33.9067 29.1984 33.9002 29.2312 33.8949 29.2634L33.8726 29.2411C33.9133 29.0173 33.9448 28.8578 33.9632 28.7909ZM33.8024 29.6349L34.4114 30.2439L33.555 31.1003C33.6462 30.5484 33.7321 30.0391 33.8024 29.6349ZM33.3613 32.2751C33.4027 32.0237 33.444 31.7724 33.4854 31.5243L34.0393 32.0782L33.4211 32.6964L33.3102 32.5855C33.3272 32.4818 33.3443 32.3774 33.3613 32.2751ZM33.0234 34.3128L33.1737 34.4631L32.9623 34.6744C32.9833 34.5556 33.003 34.4349 33.0234 34.3128ZM32.7805 35.7396L33.4125 36.3716L33.0332 36.7509L32.7917 36.5094C32.7523 36.47 32.7005 36.4634 32.6499 36.472C32.69 36.2521 32.7339 36.0047 32.7805 35.7396ZM32.5994 36.7811L32.8015 36.9832L32.5935 37.1912C32.5791 37.0626 32.5804 36.9248 32.5994 36.7811ZM37.9113 28.7148C37.4066 31.4002 36.6217 34.0418 35.5776 36.5645C35.09 37.7438 34.7573 37.8606 33.6718 37.8068C33.3095 37.7891 32.9118 37.7478 32.7202 37.5279L33.0326 37.2155L33.2603 37.4433C33.3246 37.5076 33.4283 37.5076 33.4919 37.4433C33.5563 37.3789 33.5563 37.2752 33.4919 37.2109L33.2642 36.9832L33.6435 36.6039L33.6803 36.6406C33.7446 36.7049 33.8483 36.7049 33.912 36.6406C33.9763 36.5763 33.9763 36.4726 33.912 36.4083L33.8752 36.3716L34.2578 35.9889C34.3221 35.9246 34.3221 35.8209 34.2578 35.7566C34.0878 35.5866 33.826 35.9568 33.6435 36.1392L32.9394 35.4357C32.9118 35.4081 32.875 35.3976 32.8389 35.3944C32.8481 35.3412 32.8573 35.288 32.8665 35.2336L33.4047 34.6954L33.7846 35.0754C33.849 35.1397 33.9527 35.1397 34.017 35.0754C34.0813 35.0111 34.0813 34.9074 34.017 34.8431L33.637 34.4631L34.1325 33.9676C34.1968 33.9033 34.1968 33.7996 34.1325 33.7353C34.0682 33.671 33.9645 33.671 33.9002 33.7353L33.4047 34.2308L33.089 33.9151C33.1172 33.7464 33.1454 33.5765 33.1737 33.4058L33.4198 33.1597L33.8424 33.5824C33.9067 33.6467 34.0104 33.6467 34.0747 33.5824C34.139 33.5181 34.139 33.4144 34.0747 33.35L33.6521 32.9274L34.2919 32.2875C34.3484 32.3026 34.3858 32.3184 34.4481 32.256C34.4915 32.2127 34.4947 32.155 34.4796 32.0998L34.5249 32.0546C34.5892 31.9902 34.5892 31.8865 34.5249 31.8222C34.4606 31.7579 34.3569 31.7579 34.2926 31.8222L34.2696 31.8452L33.7709 31.3464L34.6417 30.4756L34.7618 30.5957C34.8262 30.66 34.9299 30.66 34.9942 30.5957C35.0585 30.5313 35.0585 30.4276 34.9942 30.3633L34.8741 30.2432L34.9824 30.1349C35.0467 30.0706 35.0467 29.9669 34.9824 29.9026C34.918 29.8383 34.8143 29.8383 34.75 29.9026L34.6417 30.0109L34.0728 29.4419C34.1049 29.436 34.1371 29.4294 34.162 29.4052L34.9554 28.6117L35.3755 29.0317C35.4398 29.0961 35.5435 29.0961 35.6078 29.0317C35.6721 28.9674 35.6721 28.8637 35.6078 28.7994L35.1878 28.3794L35.2042 28.363C35.2685 28.2987 35.2685 28.195 35.2042 28.1307C35.1399 28.0664 35.0362 28.0664 34.9725 28.1307L34.9561 28.1471L34.5571 27.7481C34.733 27.582 34.8439 27.477 35.2796 27.3543L36.0317 28.1064C35.995 28.1694 35.9937 28.2475 36.0475 28.3013C36.1151 28.3689 36.1768 28.3551 36.2424 28.3164C36.3835 28.4562 36.6145 28.2685 36.4806 28.1005L36.8797 27.7015L37.2708 28.0926C37.3351 28.1569 37.4388 28.1569 37.5031 28.0926C37.551 28.0447 37.551 27.9784 37.5274 27.9193L37.8516 27.5951C38.0235 27.878 37.9868 28.3098 37.9113 28.7148Z" fill="#E42614"/>
<path d="M36.816 26.5779C35.6616 26.5497 33.908 26.5051 33.3298 28.6176C33.2537 28.8972 33.0457 30.1487 32.7136 32.1681C32.4642 33.6861 32.1905 35.3445 31.9976 36.3912C31.7377 37.8009 32.2175 38.3916 33.6396 38.4625C34.9745 38.5287 35.5756 38.2885 36.184 36.8152C37.2452 34.2505 38.0426 31.5656 38.5558 28.8355C38.8636 27.1981 38.2382 26.6153 36.816 26.5779ZM37.6153 27.3687L37.3128 27.6713L37.1002 27.4586C37.133 27.3963 37.1349 27.3215 37.0824 27.269C37.066 27.2526 37.0431 27.2526 37.0227 27.2447C37.2465 27.2578 37.4532 27.2887 37.6153 27.3687ZM36.9203 27.2401C36.9105 27.2434 36.9013 27.2467 36.8921 27.2519L36.8783 27.2381C36.8928 27.2388 36.9066 27.2394 36.9203 27.2401ZM36.4084 27.2316L36.648 27.4711L36.2536 27.8649L35.6577 27.269C35.8926 27.2381 36.1459 27.2309 36.4084 27.2316ZM33.9632 28.7909C34.0281 28.5527 34.1482 28.2586 34.3392 27.9948L34.7251 28.3807L33.9317 29.1742C33.9067 29.1984 33.9002 29.2312 33.8949 29.2634L33.8726 29.2411C33.9133 29.0173 33.9448 28.8578 33.9632 28.7909ZM33.8024 29.6349L34.4114 30.2439L33.555 31.1003C33.6462 30.5484 33.7321 30.0391 33.8024 29.6349ZM33.3613 32.2751C33.4027 32.0237 33.444 31.7724 33.4854 31.5243L34.0393 32.0782L33.4211 32.6964L33.3102 32.5855C33.3272 32.4818 33.3443 32.3774 33.3613 32.2751ZM33.0234 34.3128L33.1737 34.4631L32.9623 34.6744C32.9833 34.5556 33.003 34.4349 33.0234 34.3128ZM32.7805 35.7396L33.4125 36.3716L33.0332 36.7509L32.7917 36.5094C32.7523 36.47 32.7005 36.4634 32.6499 36.472C32.69 36.2521 32.7339 36.0047 32.7805 35.7396ZM32.5994 36.7811L32.8015 36.9832L32.5935 37.1912C32.5791 37.0626 32.5804 36.9248 32.5994 36.7811ZM37.9113 28.7148C37.4066 31.4002 36.6217 34.0418 35.5776 36.5645C35.09 37.7438 34.7573 37.8606 33.6718 37.8068C33.3095 37.7891 32.9118 37.7478 32.7202 37.5279L33.0326 37.2155L33.2603 37.4433C33.3246 37.5076 33.4283 37.5076 33.4919 37.4433C33.5563 37.3789 33.5563 37.2752 33.4919 37.2109L33.2642 36.9832L33.6435 36.6039L33.6803 36.6406C33.7446 36.7049 33.8483 36.7049 33.912 36.6406C33.9763 36.5763 33.9763 36.4726 33.912 36.4083L33.8752 36.3716L34.2578 35.9889C34.3221 35.9246 34.3221 35.8209 34.2578 35.7566C34.0878 35.5866 33.826 35.9568 33.6435 36.1392L32.9394 35.4357C32.9118 35.4081 32.875 35.3976 32.8389 35.3944C32.8481 35.3412 32.8573 35.288 32.8665 35.2336L33.4047 34.6954L33.7846 35.0754C33.849 35.1397 33.9527 35.1397 34.017 35.0754C34.0813 35.0111 34.0813 34.9074 34.017 34.8431L33.637 34.4631L34.1325 33.9676C34.1968 33.9033 34.1968 33.7996 34.1325 33.7353C34.0682 33.671 33.9645 33.671 33.9002 33.7353L33.4047 34.2308L33.089 33.9151C33.1172 33.7464 33.1454 33.5765 33.1737 33.4058L33.4198 33.1597L33.8424 33.5824C33.9067 33.6467 34.0104 33.6467 34.0747 33.5824C34.139 33.5181 34.139 33.4144 34.0747 33.35L33.6521 32.9274L34.2919 32.2875C34.3484 32.3026 34.3858 32.3184 34.4481 32.256C34.4915 32.2127 34.4947 32.155 34.4796 32.0998L34.5249 32.0546C34.5892 31.9902 34.5892 31.8865 34.5249 31.8222C34.4606 31.7579 34.3569 31.7579 34.2926 31.8222L34.2696 31.8452L33.7709 31.3464L34.6417 30.4756L34.7618 30.5957C34.8262 30.66 34.9299 30.66 34.9942 30.5957C35.0585 30.5313 35.0585 30.4276 34.9942 30.3633L34.8741 30.2432L34.9824 30.1349C35.0467 30.0706 35.0467 29.9669 34.9824 29.9026C34.918 29.8383 34.8143 29.8383 34.75 29.9026L34.6417 30.0109L34.0728 29.4419C34.1049 29.436 34.1371 29.4294 34.162 29.4052L34.9554 28.6117L35.3755 29.0317C35.4398 29.0961 35.5435 29.0961 35.6078 29.0317C35.6721 28.9674 35.6721 28.8637 35.6078 28.7994L35.1878 28.3794L35.2042 28.363C35.2685 28.2987 35.2685 28.195 35.2042 28.1307C35.1399 28.0664 35.0362 28.0664 34.9725 28.1307L34.9561 28.1471L34.5571 27.7481C34.733 27.582 34.8439 27.477 35.2796 27.3543L36.0317 28.1064C35.995 28.1694 35.9937 28.2475 36.0475 28.3013C36.1151 28.3689 36.1768 28.3551 36.2424 28.3164C36.3835 28.4562 36.6145 28.2685 36.4806 28.1005L36.8797 27.7015L37.2708 28.0926C37.3351 28.1569 37.4388 28.1569 37.5031 28.0926C37.551 28.0447 37.551 27.9784 37.5274 27.9193L37.8516 27.5951C38.0235 27.878 37.9868 28.3098 37.9113 28.7148Z" stroke="#E42614" stroke-width="0.3" mask="url(#path-6-outside-2_406_10)"/>
<mask id="path-7-outside-3_406_10" maskUnits="userSpaceOnUse" x="10.4028" y="25.5735" width="8" height="14" fill="black">
<rect fill="white" x="10.4028" y="25.5735" width="8" height="14"/>
<path d="M17.3218 32.168C16.9897 30.1486 16.7817 28.8971 16.7055 28.6175C16.17 26.6605 14.675 26.5443 13.2194 26.5778C11.8104 26.6145 11.1692 27.1848 11.4796 28.8354C11.9928 31.5655 12.7902 34.2503 13.8514 36.8151C14.4486 38.2615 15.0373 38.5293 16.3964 38.4623C17.8199 38.3914 18.2983 37.7995 18.0384 36.3911C17.8448 35.345 17.5712 33.6859 17.3218 32.168ZM15.2276 27.5576L15.1981 27.5871L15.095 27.4841C15.1403 27.5071 15.1849 27.5314 15.2276 27.5576ZM13.6512 27.2275C13.8875 27.2275 14.1093 27.2419 14.3226 27.2682L13.9557 27.635L13.5502 27.2295C13.5836 27.2288 13.6184 27.2275 13.6512 27.2275ZM12.9582 27.2472L12.3794 27.826L12.1707 27.6173C12.3354 27.3227 12.6189 27.2715 12.9582 27.2472ZM12.0643 27.975L12.147 28.0577L12.0604 28.1443C12.0597 28.0866 12.0604 28.0301 12.0643 27.975ZM12.1241 28.7146C12.1149 28.6661 12.1096 28.6168 12.1017 28.5683L12.38 28.29L13.2227 29.1327L12.7856 29.5691L12.1766 28.9601C12.1608 28.8787 12.1392 28.7973 12.1241 28.7146ZM12.3997 29.999C12.3669 29.85 12.3347 29.701 12.3039 29.552L12.5539 29.8014L12.4312 29.9241C12.4102 29.9451 12.4069 29.9727 12.3997 29.999ZM12.7954 31.6134C12.7902 31.5944 12.7849 31.576 12.7803 31.557L12.8164 31.5931L12.7954 31.6134ZM13.1223 32.8039C13.0396 32.5296 12.9693 32.2513 12.8932 31.975C12.8958 31.973 12.8991 31.9737 12.9017 31.9711L13.0488 31.8247L13.5574 32.3333L13.1479 32.7429C13.1308 32.7599 13.1301 32.7829 13.1223 32.8039ZM13.5357 34.0744C13.5049 33.9832 13.476 33.8907 13.4465 33.7995L13.6289 33.9819L13.5357 34.0744ZM16.3636 37.8067C15.2781 37.8645 14.9428 37.7391 14.4578 36.5644C14.379 36.374 14.3121 36.1791 14.2366 35.9875L14.2668 35.9573L14.6048 36.2953C14.6691 36.3596 14.7728 36.3596 14.8365 36.2953C14.9008 36.231 14.9008 36.1273 14.8365 36.063L14.4985 35.725L15.0812 35.1422C15.1456 35.0779 15.1456 34.9742 15.0812 34.9099C15.0169 34.8456 14.9132 34.8456 14.8489 34.9099L14.2662 35.4927L13.9091 35.1357C13.8179 34.8876 13.7254 34.6408 13.6387 34.3908C13.665 34.3836 13.6926 34.3803 13.7136 34.3599L13.8606 34.2129L13.9603 34.3127C14.0246 34.377 14.1283 34.377 14.1926 34.3127C14.257 34.2484 14.257 34.1447 14.1926 34.0804L14.0929 33.9806L14.9605 33.113C15.0248 33.0487 15.0248 32.945 14.9605 32.8807C14.8962 32.8164 14.7925 32.8164 14.7282 32.8807L13.8606 33.7483L13.222 33.1097C13.2095 33.069 13.1951 33.029 13.1826 32.9883C13.2082 33.0041 13.2345 33.0218 13.2634 33.0218C13.3054 33.0218 13.3474 33.006 13.3795 32.9739L14.7872 31.5662C14.8516 31.5018 14.8516 31.3981 14.7872 31.3338C14.7229 31.2695 14.6192 31.2695 14.5549 31.3338L13.789 32.0997L13.2804 31.5911L14.4099 30.4616C14.4742 30.3973 14.4742 30.2936 14.4099 30.2293C14.3456 30.165 14.2419 30.165 14.1776 30.2293L13.0481 31.3588L12.609 30.9197C12.546 30.6657 12.4916 30.4104 12.4338 30.1552C12.5021 30.2208 12.6012 30.2149 12.6622 30.1538L12.7849 30.0311L13.4209 30.6671C13.4852 30.7314 13.5889 30.7314 13.6532 30.6671C13.7175 30.6027 13.7175 30.499 13.6532 30.4347L13.0173 29.7988L13.9465 28.8695C14.0109 28.8052 14.0109 28.7015 13.9465 28.6372C13.8822 28.5729 13.7785 28.5729 13.7142 28.6372L13.4537 28.8977L12.611 28.0551L13.2627 27.4034L13.7234 27.8641L13.6243 27.9632C13.56 28.0275 13.56 28.1312 13.6243 28.1955C13.6886 28.2598 13.7923 28.2598 13.8566 28.1955L13.9557 28.0964L14.3442 28.4849C14.4086 28.5492 14.5123 28.5492 14.5759 28.4849C14.6402 28.4206 14.6402 28.3169 14.5759 28.2526L14.1874 27.8641L14.6002 27.4513L14.9657 27.8168L14.9146 27.868C14.8502 27.9323 14.8502 28.036 14.9146 28.1003C14.9789 28.1647 15.0826 28.1647 15.1469 28.1003L15.1981 28.0492L15.4717 28.3228C15.536 28.3871 15.6397 28.3871 15.7041 28.3228C15.7684 28.2585 15.7684 28.1548 15.7041 28.0905L15.4304 27.8168L15.4888 27.7584C15.8097 28.0669 15.9863 28.4751 16.0722 28.7888C16.1431 29.0493 16.4128 30.6881 16.674 32.2723C16.9247 33.7942 17.1984 35.4579 17.3927 36.5079C17.5771 37.5094 17.3881 37.7562 16.3636 37.8067Z"/>
</mask>
<path d="M17.3218 32.168C16.9897 30.1486 16.7817 28.8971 16.7055 28.6175C16.17 26.6605 14.675 26.5443 13.2194 26.5778C11.8104 26.6145 11.1692 27.1848 11.4796 28.8354C11.9928 31.5655 12.7902 34.2503 13.8514 36.8151C14.4486 38.2615 15.0373 38.5293 16.3964 38.4623C17.8199 38.3914 18.2983 37.7995 18.0384 36.3911C17.8448 35.345 17.5712 33.6859 17.3218 32.168ZM15.2276 27.5576L15.1981 27.5871L15.095 27.4841C15.1403 27.5071 15.1849 27.5314 15.2276 27.5576ZM13.6512 27.2275C13.8875 27.2275 14.1093 27.2419 14.3226 27.2682L13.9557 27.635L13.5502 27.2295C13.5836 27.2288 13.6184 27.2275 13.6512 27.2275ZM12.9582 27.2472L12.3794 27.826L12.1707 27.6173C12.3354 27.3227 12.6189 27.2715 12.9582 27.2472ZM12.0643 27.975L12.147 28.0577L12.0604 28.1443C12.0597 28.0866 12.0604 28.0301 12.0643 27.975ZM12.1241 28.7146C12.1149 28.6661 12.1096 28.6168 12.1017 28.5683L12.38 28.29L13.2227 29.1327L12.7856 29.5691L12.1766 28.9601C12.1608 28.8787 12.1392 28.7973 12.1241 28.7146ZM12.3997 29.999C12.3669 29.85 12.3347 29.701 12.3039 29.552L12.5539 29.8014L12.4312 29.9241C12.4102 29.9451 12.4069 29.9727 12.3997 29.999ZM12.7954 31.6134C12.7902 31.5944 12.7849 31.576 12.7803 31.557L12.8164 31.5931L12.7954 31.6134ZM13.1223 32.8039C13.0396 32.5296 12.9693 32.2513 12.8932 31.975C12.8958 31.973 12.8991 31.9737 12.9017 31.9711L13.0488 31.8247L13.5574 32.3333L13.1479 32.7429C13.1308 32.7599 13.1301 32.7829 13.1223 32.8039ZM13.5357 34.0744C13.5049 33.9832 13.476 33.8907 13.4465 33.7995L13.6289 33.9819L13.5357 34.0744ZM16.3636 37.8067C15.2781 37.8645 14.9428 37.7391 14.4578 36.5644C14.379 36.374 14.3121 36.1791 14.2366 35.9875L14.2668 35.9573L14.6048 36.2953C14.6691 36.3596 14.7728 36.3596 14.8365 36.2953C14.9008 36.231 14.9008 36.1273 14.8365 36.063L14.4985 35.725L15.0812 35.1422C15.1456 35.0779 15.1456 34.9742 15.0812 34.9099C15.0169 34.8456 14.9132 34.8456 14.8489 34.9099L14.2662 35.4927L13.9091 35.1357C13.8179 34.8876 13.7254 34.6408 13.6387 34.3908C13.665 34.3836 13.6926 34.3803 13.7136 34.3599L13.8606 34.2129L13.9603 34.3127C14.0246 34.377 14.1283 34.377 14.1926 34.3127C14.257 34.2484 14.257 34.1447 14.1926 34.0804L14.0929 33.9806L14.9605 33.113C15.0248 33.0487 15.0248 32.945 14.9605 32.8807C14.8962 32.8164 14.7925 32.8164 14.7282 32.8807L13.8606 33.7483L13.222 33.1097C13.2095 33.069 13.1951 33.029 13.1826 32.9883C13.2082 33.0041 13.2345 33.0218 13.2634 33.0218C13.3054 33.0218 13.3474 33.006 13.3795 32.9739L14.7872 31.5662C14.8516 31.5018 14.8516 31.3981 14.7872 31.3338C14.7229 31.2695 14.6192 31.2695 14.5549 31.3338L13.789 32.0997L13.2804 31.5911L14.4099 30.4616C14.4742 30.3973 14.4742 30.2936 14.4099 30.2293C14.3456 30.165 14.2419 30.165 14.1776 30.2293L13.0481 31.3588L12.609 30.9197C12.546 30.6657 12.4916 30.4104 12.4338 30.1552C12.5021 30.2208 12.6012 30.2149 12.6622 30.1538L12.7849 30.0311L13.4209 30.6671C13.4852 30.7314 13.5889 30.7314 13.6532 30.6671C13.7175 30.6027 13.7175 30.499 13.6532 30.4347L13.0173 29.7988L13.9465 28.8695C14.0109 28.8052 14.0109 28.7015 13.9465 28.6372C13.8822 28.5729 13.7785 28.5729 13.7142 28.6372L13.4537 28.8977L12.611 28.0551L13.2627 27.4034L13.7234 27.8641L13.6243 27.9632C13.56 28.0275 13.56 28.1312 13.6243 28.1955C13.6886 28.2598 13.7923 28.2598 13.8566 28.1955L13.9557 28.0964L14.3442 28.4849C14.4086 28.5492 14.5123 28.5492 14.5759 28.4849C14.6402 28.4206 14.6402 28.3169 14.5759 28.2526L14.1874 27.8641L14.6002 27.4513L14.9657 27.8168L14.9146 27.868C14.8502 27.9323 14.8502 28.036 14.9146 28.1003C14.9789 28.1647 15.0826 28.1647 15.1469 28.1003L15.1981 28.0492L15.4717 28.3228C15.536 28.3871 15.6397 28.3871 15.7041 28.3228C15.7684 28.2585 15.7684 28.1548 15.7041 28.0905L15.4304 27.8168L15.4888 27.7584C15.8097 28.0669 15.9863 28.4751 16.0722 28.7888C16.1431 29.0493 16.4128 30.6881 16.674 32.2723C16.9247 33.7942 17.1984 35.4579 17.3927 36.5079C17.5771 37.5094 17.3881 37.7562 16.3636 37.8067Z" fill="#E42614"/>
<path d="M17.3218 32.168C16.9897 30.1486 16.7817 28.8971 16.7055 28.6175C16.17 26.6605 14.675 26.5443 13.2194 26.5778C11.8104 26.6145 11.1692 27.1848 11.4796 28.8354C11.9928 31.5655 12.7902 34.2503 13.8514 36.8151C14.4486 38.2615 15.0373 38.5293 16.3964 38.4623C17.8199 38.3914 18.2983 37.7995 18.0384 36.3911C17.8448 35.345 17.5712 33.6859 17.3218 32.168ZM15.2276 27.5576L15.1981 27.5871L15.095 27.4841C15.1403 27.5071 15.1849 27.5314 15.2276 27.5576ZM13.6512 27.2275C13.8875 27.2275 14.1093 27.2419 14.3226 27.2682L13.9557 27.635L13.5502 27.2295C13.5836 27.2288 13.6184 27.2275 13.6512 27.2275ZM12.9582 27.2472L12.3794 27.826L12.1707 27.6173C12.3354 27.3227 12.6189 27.2715 12.9582 27.2472ZM12.0643 27.975L12.147 28.0577L12.0604 28.1443C12.0597 28.0866 12.0604 28.0301 12.0643 27.975ZM12.1241 28.7146C12.1149 28.6661 12.1096 28.6168 12.1017 28.5683L12.38 28.29L13.2227 29.1327L12.7856 29.5691L12.1766 28.9601C12.1608 28.8787 12.1392 28.7973 12.1241 28.7146ZM12.3997 29.999C12.3669 29.85 12.3347 29.701 12.3039 29.552L12.5539 29.8014L12.4312 29.9241C12.4102 29.9451 12.4069 29.9727 12.3997 29.999ZM12.7954 31.6134C12.7902 31.5944 12.7849 31.576 12.7803 31.557L12.8164 31.5931L12.7954 31.6134ZM13.1223 32.8039C13.0396 32.5296 12.9693 32.2513 12.8932 31.975C12.8958 31.973 12.8991 31.9737 12.9017 31.9711L13.0488 31.8247L13.5574 32.3333L13.1479 32.7429C13.1308 32.7599 13.1301 32.7829 13.1223 32.8039ZM13.5357 34.0744C13.5049 33.9832 13.476 33.8907 13.4465 33.7995L13.6289 33.9819L13.5357 34.0744ZM16.3636 37.8067C15.2781 37.8645 14.9428 37.7391 14.4578 36.5644C14.379 36.374 14.3121 36.1791 14.2366 35.9875L14.2668 35.9573L14.6048 36.2953C14.6691 36.3596 14.7728 36.3596 14.8365 36.2953C14.9008 36.231 14.9008 36.1273 14.8365 36.063L14.4985 35.725L15.0812 35.1422C15.1456 35.0779 15.1456 34.9742 15.0812 34.9099C15.0169 34.8456 14.9132 34.8456 14.8489 34.9099L14.2662 35.4927L13.9091 35.1357C13.8179 34.8876 13.7254 34.6408 13.6387 34.3908C13.665 34.3836 13.6926 34.3803 13.7136 34.3599L13.8606 34.2129L13.9603 34.3127C14.0246 34.377 14.1283 34.377 14.1926 34.3127C14.257 34.2484 14.257 34.1447 14.1926 34.0804L14.0929 33.9806L14.9605 33.113C15.0248 33.0487 15.0248 32.945 14.9605 32.8807C14.8962 32.8164 14.7925 32.8164 14.7282 32.8807L13.8606 33.7483L13.222 33.1097C13.2095 33.069 13.1951 33.029 13.1826 32.9883C13.2082 33.0041 13.2345 33.0218 13.2634 33.0218C13.3054 33.0218 13.3474 33.006 13.3795 32.9739L14.7872 31.5662C14.8516 31.5018 14.8516 31.3981 14.7872 31.3338C14.7229 31.2695 14.6192 31.2695 14.5549 31.3338L13.789 32.0997L13.2804 31.5911L14.4099 30.4616C14.4742 30.3973 14.4742 30.2936 14.4099 30.2293C14.3456 30.165 14.2419 30.165 14.1776 30.2293L13.0481 31.3588L12.609 30.9197C12.546 30.6657 12.4916 30.4104 12.4338 30.1552C12.5021 30.2208 12.6012 30.2149 12.6622 30.1538L12.7849 30.0311L13.4209 30.6671C13.4852 30.7314 13.5889 30.7314 13.6532 30.6671C13.7175 30.6027 13.7175 30.499 13.6532 30.4347L13.0173 29.7988L13.9465 28.8695C14.0109 28.8052 14.0109 28.7015 13.9465 28.6372C13.8822 28.5729 13.7785 28.5729 13.7142 28.6372L13.4537 28.8977L12.611 28.0551L13.2627 27.4034L13.7234 27.8641L13.6243 27.9632C13.56 28.0275 13.56 28.1312 13.6243 28.1955C13.6886 28.2598 13.7923 28.2598 13.8566 28.1955L13.9557 28.0964L14.3442 28.4849C14.4086 28.5492 14.5123 28.5492 14.5759 28.4849C14.6402 28.4206 14.6402 28.3169 14.5759 28.2526L14.1874 27.8641L14.6002 27.4513L14.9657 27.8168L14.9146 27.868C14.8502 27.9323 14.8502 28.036 14.9146 28.1003C14.9789 28.1647 15.0826 28.1647 15.1469 28.1003L15.1981 28.0492L15.4717 28.3228C15.536 28.3871 15.6397 28.3871 15.7041 28.3228C15.7684 28.2585 15.7684 28.1548 15.7041 28.0905L15.4304 27.8168L15.4888 27.7584C15.8097 28.0669 15.9863 28.4751 16.0722 28.7888C16.1431 29.0493 16.4128 30.6881 16.674 32.2723C16.9247 33.7942 17.1984 35.4579 17.3927 36.5079C17.5771 37.5094 17.3881 37.7562 16.3636 37.8067Z" stroke="#E42614" stroke-width="0.3" mask="url(#path-7-outside-3_406_10)"/>
<mask id="path-8-outside-4_406_10" maskUnits="userSpaceOnUse" x="24.9131" y="25.5503" width="7" height="14" fill="black">
<rect fill="white" x="24.9131" y="25.5503" width="7" height="14"/>
<path d="M29.3783 26.5642C26.6055 26.3889 26.0162 27.8833 26.156 30.4612C26.259 32.4753 26.0431 33.7202 25.9269 35.6996C25.6867 39.7442 28.6393 39.5677 29.7406 37.9211C30.4388 36.8769 30.385 36.1662 31.1732 28.787C31.3274 27.3517 30.9068 26.658 29.3783 26.5642ZM28.89 27.229C28.8972 27.2224 28.8946 27.2119 28.9005 27.204H28.9038C28.972 27.204 29.0383 27.2086 29.1066 27.2113L29.3199 27.4246L28.9563 27.7881L28.6439 27.4757L28.89 27.229ZM28.4175 27.2369L28.4116 27.2428L28.407 27.2382C28.4103 27.2382 28.4142 27.2375 28.4175 27.2369ZM28.0257 27.3209L28.1799 27.4751L27.5958 28.0592L27.3038 27.7671C27.5348 27.5171 27.7455 27.4075 28.0257 27.3209ZM27.1043 28.0323L27.3635 28.2915L27.309 28.346C27.2447 28.4103 27.2447 28.514 27.309 28.5783C27.3734 28.6426 27.477 28.6426 27.5414 28.5783L27.5958 28.5238L27.9594 28.8874L26.9842 29.8633L26.7834 29.6625C26.7755 29.0593 26.8319 28.4851 27.1043 28.0323ZM26.9829 30.3266L27.6352 30.979L27.0341 31.5808L26.8949 31.4416C26.8792 31.4259 26.8575 31.4265 26.8385 31.4187C26.8378 30.8904 26.8339 30.872 26.8149 30.4953L26.9829 30.3266ZM26.8241 32.1924C26.8615 32.1898 26.8995 32.178 26.9284 32.1491L27.0334 32.0441L27.6011 32.6111L26.8976 33.3146L26.7715 33.1886C26.7945 32.8579 26.8122 32.5258 26.8241 32.1924ZM26.7171 33.9355C26.7309 33.9283 26.7473 33.9296 26.7591 33.9184L26.8982 33.7793L27.4652 34.3463L26.7105 35.101L26.6344 35.0249C26.6843 34.3686 26.6455 34.83 26.7171 33.9355ZM26.6094 37.0732C26.5989 37.0147 26.5878 36.957 26.5806 36.8979L26.683 37.0003L26.6094 37.0732ZM30.5209 28.7174C29.7274 36.1386 29.7799 36.6807 29.1952 37.5562C28.6124 38.4264 27.2145 38.8497 26.7066 37.44L26.9153 37.2313L27.0623 37.3783C27.1266 37.4426 27.2303 37.4426 27.2946 37.3783C27.3589 37.314 27.3589 37.2103 27.2946 37.146L27.1476 36.999L27.5755 36.5711C27.6398 36.5068 27.6398 36.4031 27.5755 36.3388C27.5112 36.2745 27.4075 36.2745 27.3432 36.3388L26.9153 36.7667L26.5569 36.4083C26.5576 36.1846 26.5694 35.9594 26.5825 35.737C26.5832 35.7212 26.5852 35.7048 26.5858 35.6891L26.7112 35.5637L27.2283 36.0802C27.2926 36.1445 27.3963 36.1445 27.4606 36.0802C27.525 36.0159 27.525 35.9122 27.4606 35.8479L26.9435 35.3314L27.7028 34.5721C27.7822 34.6351 27.8629 34.62 27.9181 34.5649C27.9778 34.5058 27.9758 34.4139 27.9253 34.3496L28.258 34.0169C28.3223 33.9525 28.3223 33.8489 28.258 33.7845C28.1937 33.7202 28.09 33.7202 28.0257 33.7845L27.6982 34.112L27.1312 33.545L27.8702 32.8054C27.9115 32.8047 27.9522 32.7896 27.9837 32.7581C28.0152 32.7266 28.0303 32.6853 28.0309 32.6446L28.6387 32.0369C28.703 31.9726 28.703 31.8689 28.6387 31.8046C28.5743 31.7402 28.4707 31.7402 28.407 31.8046L27.8347 32.3768L27.267 31.8098L28.699 30.3778C28.7634 30.3135 28.7634 30.2098 28.699 30.1455C28.6347 30.0812 28.531 30.0812 28.4667 30.1455L27.8682 30.744L27.2159 30.0917L28.1911 29.1158L28.3683 29.293C28.4326 29.3573 28.5363 29.3573 28.6006 29.293C28.6649 29.2287 28.6649 29.125 28.6006 29.0607L28.4234 28.8835L28.4267 28.8802C28.491 28.8159 28.491 28.7122 28.4267 28.6485C28.3624 28.5842 28.2587 28.5842 28.195 28.6485L28.1917 28.6518L27.8282 28.2889L28.4122 27.7048L28.7443 28.0369C28.7259 28.094 28.7273 28.1556 28.7725 28.2009C28.8401 28.2685 28.8795 28.2475 28.9366 28.2291L29.2438 28.5363C29.3081 28.6006 29.4118 28.6006 29.4761 28.5363C29.5404 28.472 29.5404 28.3683 29.4761 28.304L29.1886 28.0165L29.5522 27.6529L29.8981 27.9988C29.9624 28.0631 30.0661 28.0631 30.1304 27.9988C30.1947 27.9345 30.1947 27.8308 30.1304 27.7671L29.7786 27.4154C29.8108 27.3727 29.8154 27.3241 29.8009 27.2749C30.5274 27.4265 30.616 27.8282 30.5209 28.7174Z"/>
</mask>
<path d="M29.3783 26.5642C26.6055 26.3889 26.0162 27.8833 26.156 30.4612C26.259 32.4753 26.0431 33.7202 25.9269 35.6996C25.6867 39.7442 28.6393 39.5677 29.7406 37.9211C30.4388 36.8769 30.385 36.1662 31.1732 28.787C31.3274 27.3517 30.9068 26.658 29.3783 26.5642ZM28.89 27.229C28.8972 27.2224 28.8946 27.2119 28.9005 27.204H28.9038C28.972 27.204 29.0383 27.2086 29.1066 27.2113L29.3199 27.4246L28.9563 27.7881L28.6439 27.4757L28.89 27.229ZM28.4175 27.2369L28.4116 27.2428L28.407 27.2382C28.4103 27.2382 28.4142 27.2375 28.4175 27.2369ZM28.0257 27.3209L28.1799 27.4751L27.5958 28.0592L27.3038 27.7671C27.5348 27.5171 27.7455 27.4075 28.0257 27.3209ZM27.1043 28.0323L27.3635 28.2915L27.309 28.346C27.2447 28.4103 27.2447 28.514 27.309 28.5783C27.3734 28.6426 27.477 28.6426 27.5414 28.5783L27.5958 28.5238L27.9594 28.8874L26.9842 29.8633L26.7834 29.6625C26.7755 29.0593 26.8319 28.4851 27.1043 28.0323ZM26.9829 30.3266L27.6352 30.979L27.0341 31.5808L26.8949 31.4416C26.8792 31.4259 26.8575 31.4265 26.8385 31.4187C26.8378 30.8904 26.8339 30.872 26.8149 30.4953L26.9829 30.3266ZM26.8241 32.1924C26.8615 32.1898 26.8995 32.178 26.9284 32.1491L27.0334 32.0441L27.6011 32.6111L26.8976 33.3146L26.7715 33.1886C26.7945 32.8579 26.8122 32.5258 26.8241 32.1924ZM26.7171 33.9355C26.7309 33.9283 26.7473 33.9296 26.7591 33.9184L26.8982 33.7793L27.4652 34.3463L26.7105 35.101L26.6344 35.0249C26.6843 34.3686 26.6455 34.83 26.7171 33.9355ZM26.6094 37.0732C26.5989 37.0147 26.5878 36.957 26.5806 36.8979L26.683 37.0003L26.6094 37.0732ZM30.5209 28.7174C29.7274 36.1386 29.7799 36.6807 29.1952 37.5562C28.6124 38.4264 27.2145 38.8497 26.7066 37.44L26.9153 37.2313L27.0623 37.3783C27.1266 37.4426 27.2303 37.4426 27.2946 37.3783C27.3589 37.314 27.3589 37.2103 27.2946 37.146L27.1476 36.999L27.5755 36.5711C27.6398 36.5068 27.6398 36.4031 27.5755 36.3388C27.5112 36.2745 27.4075 36.2745 27.3432 36.3388L26.9153 36.7667L26.5569 36.4083C26.5576 36.1846 26.5694 35.9594 26.5825 35.737C26.5832 35.7212 26.5852 35.7048 26.5858 35.6891L26.7112 35.5637L27.2283 36.0802C27.2926 36.1445 27.3963 36.1445 27.4606 36.0802C27.525 36.0159 27.525 35.9122 27.4606 35.8479L26.9435 35.3314L27.7028 34.5721C27.7822 34.6351 27.8629 34.62 27.9181 34.5649C27.9778 34.5058 27.9758 34.4139 27.9253 34.3496L28.258 34.0169C28.3223 33.9525 28.3223 33.8489 28.258 33.7845C28.1937 33.7202 28.09 33.7202 28.0257 33.7845L27.6982 34.112L27.1312 33.545L27.8702 32.8054C27.9115 32.8047 27.9522 32.7896 27.9837 32.7581C28.0152 32.7266 28.0303 32.6853 28.0309 32.6446L28.6387 32.0369C28.703 31.9726 28.703 31.8689 28.6387 31.8046C28.5743 31.7402 28.4707 31.7402 28.407 31.8046L27.8347 32.3768L27.267 31.8098L28.699 30.3778C28.7634 30.3135 28.7634 30.2098 28.699 30.1455C28.6347 30.0812 28.531 30.0812 28.4667 30.1455L27.8682 30.744L27.2159 30.0917L28.1911 29.1158L28.3683 29.293C28.4326 29.3573 28.5363 29.3573 28.6006 29.293C28.6649 29.2287 28.6649 29.125 28.6006 29.0607L28.4234 28.8835L28.4267 28.8802C28.491 28.8159 28.491 28.7122 28.4267 28.6485C28.3624 28.5842 28.2587 28.5842 28.195 28.6485L28.1917 28.6518L27.8282 28.2889L28.4122 27.7048L28.7443 28.0369C28.7259 28.094 28.7273 28.1556 28.7725 28.2009C28.8401 28.2685 28.8795 28.2475 28.9366 28.2291L29.2438 28.5363C29.3081 28.6006 29.4118 28.6006 29.4761 28.5363C29.5404 28.472 29.5404 28.3683 29.4761 28.304L29.1886 28.0165L29.5522 27.6529L29.8981 27.9988C29.9624 28.0631 30.0661 28.0631 30.1304 27.9988C30.1947 27.9345 30.1947 27.8308 30.1304 27.7671L29.7786 27.4154C29.8108 27.3727 29.8154 27.3241 29.8009 27.2749C30.5274 27.4265 30.616 27.8282 30.5209 28.7174Z" fill="#E42614"/>
<path d="M29.3783 26.5642C26.6055 26.3889 26.0162 27.8833 26.156 30.4612C26.259 32.4753 26.0431 33.7202 25.9269 35.6996C25.6867 39.7442 28.6393 39.5677 29.7406 37.9211C30.4388 36.8769 30.385 36.1662 31.1732 28.787C31.3274 27.3517 30.9068 26.658 29.3783 26.5642ZM28.89 27.229C28.8972 27.2224 28.8946 27.2119 28.9005 27.204H28.9038C28.972 27.204 29.0383 27.2086 29.1066 27.2113L29.3199 27.4246L28.9563 27.7881L28.6439 27.4757L28.89 27.229ZM28.4175 27.2369L28.4116 27.2428L28.407 27.2382C28.4103 27.2382 28.4142 27.2375 28.4175 27.2369ZM28.0257 27.3209L28.1799 27.4751L27.5958 28.0592L27.3038 27.7671C27.5348 27.5171 27.7455 27.4075 28.0257 27.3209ZM27.1043 28.0323L27.3635 28.2915L27.309 28.346C27.2447 28.4103 27.2447 28.514 27.309 28.5783C27.3734 28.6426 27.477 28.6426 27.5414 28.5783L27.5958 28.5238L27.9594 28.8874L26.9842 29.8633L26.7834 29.6625C26.7755 29.0593 26.8319 28.4851 27.1043 28.0323ZM26.9829 30.3266L27.6352 30.979L27.0341 31.5808L26.8949 31.4416C26.8792 31.4259 26.8575 31.4265 26.8385 31.4187C26.8378 30.8904 26.8339 30.872 26.8149 30.4953L26.9829 30.3266ZM26.8241 32.1924C26.8615 32.1898 26.8995 32.178 26.9284 32.1491L27.0334 32.0441L27.6011 32.6111L26.8976 33.3146L26.7715 33.1886C26.7945 32.8579 26.8122 32.5258 26.8241 32.1924ZM26.7171 33.9355C26.7309 33.9283 26.7473 33.9296 26.7591 33.9184L26.8982 33.7793L27.4652 34.3463L26.7105 35.101L26.6344 35.0249C26.6843 34.3686 26.6455 34.83 26.7171 33.9355ZM26.6094 37.0732C26.5989 37.0147 26.5878 36.957 26.5806 36.8979L26.683 37.0003L26.6094 37.0732ZM30.5209 28.7174C29.7274 36.1386 29.7799 36.6807 29.1952 37.5562C28.6124 38.4264 27.2145 38.8497 26.7066 37.44L26.9153 37.2313L27.0623 37.3783C27.1266 37.4426 27.2303 37.4426 27.2946 37.3783C27.3589 37.314 27.3589 37.2103 27.2946 37.146L27.1476 36.999L27.5755 36.5711C27.6398 36.5068 27.6398 36.4031 27.5755 36.3388C27.5112 36.2745 27.4075 36.2745 27.3432 36.3388L26.9153 36.7667L26.5569 36.4083C26.5576 36.1846 26.5694 35.9594 26.5825 35.737C26.5832 35.7212 26.5852 35.7048 26.5858 35.6891L26.7112 35.5637L27.2283 36.0802C27.2926 36.1445 27.3963 36.1445 27.4606 36.0802C27.525 36.0159 27.525 35.9122 27.4606 35.8479L26.9435 35.3314L27.7028 34.5721C27.7822 34.6351 27.8629 34.62 27.9181 34.5649C27.9778 34.5058 27.9758 34.4139 27.9253 34.3496L28.258 34.0169C28.3223 33.9525 28.3223 33.8489 28.258 33.7845C28.1937 33.7202 28.09 33.7202 28.0257 33.7845L27.6982 34.112L27.1312 33.545L27.8702 32.8054C27.9115 32.8047 27.9522 32.7896 27.9837 32.7581C28.0152 32.7266 28.0303 32.6853 28.0309 32.6446L28.6387 32.0369C28.703 31.9726 28.703 31.8689 28.6387 31.8046C28.5743 31.7402 28.4707 31.7402 28.407 31.8046L27.8347 32.3768L27.267 31.8098L28.699 30.3778C28.7634 30.3135 28.7634 30.2098 28.699 30.1455C28.6347 30.0812 28.531 30.0812 28.4667 30.1455L27.8682 30.744L27.2159 30.0917L28.1911 29.1158L28.3683 29.293C28.4326 29.3573 28.5363 29.3573 28.6006 29.293C28.6649 29.2287 28.6649 29.125 28.6006 29.0607L28.4234 28.8835L28.4267 28.8802C28.491 28.8159 28.491 28.7122 28.4267 28.6485C28.3624 28.5842 28.2587 28.5842 28.195 28.6485L28.1917 28.6518L27.8282 28.2889L28.4122 27.7048L28.7443 28.0369C28.7259 28.094 28.7273 28.1556 28.7725 28.2009C28.8401 28.2685 28.8795 28.2475 28.9366 28.2291L29.2438 28.5363C29.3081 28.6006 29.4118 28.6006 29.4761 28.5363C29.5404 28.472 29.5404 28.3683 29.4761 28.304L29.1886 28.0165L29.5522 27.6529L29.8981 27.9988C29.9624 28.0631 30.0661 28.0631 30.1304 27.9988C30.1947 27.9345 30.1947 27.8308 30.1304 27.7671L29.7786 27.4154C29.8108 27.3727 29.8154 27.3241 29.8009 27.2749C30.5274 27.4265 30.616 27.8282 30.5209 28.7174Z" stroke="#E42614" stroke-width="0.3" mask="url(#path-8-outside-4_406_10)"/>
<mask id="path-9-outside-5_406_10" maskUnits="userSpaceOnUse" x="17.6235" y="25.5471" width="7" height="14" fill="black">
<rect fill="white" x="17.6235" y="25.5471" width="7" height="14"/>
<path d="M23.6701 30.4599C23.7351 29.2543 23.8158 27.7534 22.5571 26.9448C21.9165 26.534 21.1329 26.5209 20.4478 26.5635C18.9272 26.6574 18.4993 27.3439 18.6529 28.7864L19.3452 35.2625C19.4332 36.0848 19.5428 37.108 20.0862 37.9204C20.6427 38.7533 21.7997 39.3242 22.7736 38.8333C23.9293 38.2492 23.9681 36.8697 23.8998 35.6996C23.7843 33.7452 23.5677 32.4714 23.6701 30.4599ZM20.4878 27.2192C20.6289 27.2106 20.7753 27.2041 20.9223 27.2041C20.9741 27.2041 21.026 27.208 21.0778 27.21L21.5753 27.7074L21.2524 28.0303L20.7687 27.5467C20.7969 27.4863 20.7982 27.4154 20.7477 27.3649C20.6978 27.315 20.627 27.3156 20.5659 27.3439L20.4445 27.2224C20.4596 27.2218 20.474 27.2198 20.4878 27.2192ZM20.035 27.2769L20.3198 27.5617L19.8945 27.987L19.4621 27.5545C19.5933 27.4003 19.804 27.3229 20.035 27.2769ZM19.3164 27.8728L19.6622 28.2187L19.3256 28.5554C19.3065 28.5744 19.3046 28.6006 19.2967 28.6243C19.2711 28.3572 19.2639 28.0953 19.3164 27.8728ZM19.3288 28.9393L19.3078 28.7437C19.3151 28.7581 19.3137 28.7752 19.3256 28.787C19.3899 28.8513 19.4936 28.8513 19.5572 28.787L19.8939 28.4503L20.3625 28.9189L19.8348 29.4466L19.3288 28.9393ZM19.3846 29.459L19.6045 29.6789L19.4273 29.8561L19.3846 29.459ZM19.4712 30.2755L19.8355 29.9112L20.2338 30.3096C20.266 30.3417 20.308 30.3575 20.35 30.3575C20.39 30.3575 20.4288 30.3404 20.4603 30.3122L19.953 30.8195L19.4791 30.3457L19.4712 30.2755ZM19.5349 30.8654L19.7213 31.0518L19.571 31.2021L19.5349 30.8654ZM19.6156 31.6208L19.953 31.2835L20.3841 31.7147C20.4045 31.735 20.432 31.7383 20.4583 31.7455L19.909 32.2948L19.6609 32.0467L19.6156 31.6208ZM20.1991 36.4943L20.6991 36.9944L20.4642 37.2294C20.352 36.9964 20.2608 36.7516 20.1991 36.4943ZM22.477 38.2479C21.8391 38.5695 21.022 38.1403 20.6309 37.5562C20.627 37.5503 20.625 37.5424 20.621 37.5365L20.9308 37.2268L21.2596 37.5555C21.3239 37.6199 21.4276 37.6199 21.4919 37.5555C21.5562 37.4912 21.5562 37.3875 21.4919 37.3232L21.1631 36.9944L21.7341 36.4235C21.7984 36.3592 21.7984 36.2555 21.7341 36.1911C21.6698 36.1268 21.5661 36.1268 21.5018 36.1911L20.9308 36.7621L20.3303 36.1616L21.2176 35.2743C21.2819 35.21 21.2819 35.1063 21.2176 35.042C21.1533 34.9777 21.0496 34.9777 20.9853 35.042L20.098 35.9293L20.0881 35.9194C20.0514 35.6733 20.0212 35.4285 19.9963 35.1923L19.9464 34.7231L20.453 35.2297C20.5174 35.294 20.621 35.294 20.6854 35.2297C20.7497 35.1654 20.7497 35.0617 20.6854 34.9974L20.1407 34.4527L21.0719 33.5214C21.1362 33.4571 21.1362 33.3534 21.0719 33.2891C21.0076 33.2248 20.9039 33.2248 20.8396 33.2891L19.9083 34.2203L19.8906 34.2026L19.7528 32.9117L19.9083 32.7562L20.3848 33.2326C20.4491 33.297 20.5528 33.297 20.6171 33.2326C20.6814 33.1683 20.6814 33.0646 20.6171 33.0003L20.1407 32.5239L20.7989 31.865C20.8632 31.8006 20.8632 31.697 20.7989 31.6326C20.7608 31.5952 20.7116 31.5867 20.6624 31.5933C20.6617 31.5519 20.6466 31.5112 20.6151 31.4797L20.184 31.0486L20.9761 30.2564C21.0404 30.1921 21.0404 30.0884 20.9761 30.0241C20.9118 29.9598 20.8081 29.9598 20.7438 30.0241L20.4675 30.3004C20.5265 30.2361 20.5272 30.137 20.4649 30.0746L20.0665 29.6763L20.6558 29.0869C20.6742 29.0686 20.6749 29.0443 20.6827 29.0213C20.686 29.0187 20.6913 29.02 20.6939 29.0167C20.7582 28.9524 20.7582 28.8487 20.6939 28.7844L20.1249 28.2154L20.5502 27.7901L21.0194 28.2594L20.9308 28.348C20.8665 28.4123 20.8665 28.516 20.9308 28.5796C20.9951 28.6439 21.0988 28.6439 21.1625 28.5796L21.2511 28.491L21.3685 28.6085C21.4329 28.6728 21.5366 28.6728 21.6009 28.6085C21.6652 28.5442 21.6652 28.4405 21.6009 28.3762L21.4834 28.2587L21.8063 27.9358L22.1581 28.2876C22.2224 28.3519 22.3261 28.3519 22.3904 28.2876C22.4547 28.2233 22.4547 28.1196 22.3904 28.0553L22.0104 27.6753C22.0163 27.6267 22.0071 27.5775 21.9704 27.5407C21.9329 27.5033 21.8844 27.4941 21.8358 27.5007L21.595 27.2599C23.2796 27.6005 23.067 29.4098 22.9974 30.767C22.9252 32.4175 23.1477 34.1081 23.2442 35.735C23.2823 36.3946 23.401 37.7807 22.477 38.2479Z"/>
</mask>
<path d="M23.6701 30.4599C23.7351 29.2543 23.8158 27.7534 22.5571 26.9448C21.9165 26.534 21.1329 26.5209 20.4478 26.5635C18.9272 26.6574 18.4993 27.3439 18.6529 28.7864L19.3452 35.2625C19.4332 36.0848 19.5428 37.108 20.0862 37.9204C20.6427 38.7533 21.7997 39.3242 22.7736 38.8333C23.9293 38.2492 23.9681 36.8697 23.8998 35.6996C23.7843 33.7452 23.5677 32.4714 23.6701 30.4599ZM20.4878 27.2192C20.6289 27.2106 20.7753 27.2041 20.9223 27.2041C20.9741 27.2041 21.026 27.208 21.0778 27.21L21.5753 27.7074L21.2524 28.0303L20.7687 27.5467C20.7969 27.4863 20.7982 27.4154 20.7477 27.3649C20.6978 27.315 20.627 27.3156 20.5659 27.3439L20.4445 27.2224C20.4596 27.2218 20.474 27.2198 20.4878 27.2192ZM20.035 27.2769L20.3198 27.5617L19.8945 27.987L19.4621 27.5545C19.5933 27.4003 19.804 27.3229 20.035 27.2769ZM19.3164 27.8728L19.6622 28.2187L19.3256 28.5554C19.3065 28.5744 19.3046 28.6006 19.2967 28.6243C19.2711 28.3572 19.2639 28.0953 19.3164 27.8728ZM19.3288 28.9393L19.3078 28.7437C19.3151 28.7581 19.3137 28.7752 19.3256 28.787C19.3899 28.8513 19.4936 28.8513 19.5572 28.787L19.8939 28.4503L20.3625 28.9189L19.8348 29.4466L19.3288 28.9393ZM19.3846 29.459L19.6045 29.6789L19.4273 29.8561L19.3846 29.459ZM19.4712 30.2755L19.8355 29.9112L20.2338 30.3096C20.266 30.3417 20.308 30.3575 20.35 30.3575C20.39 30.3575 20.4288 30.3404 20.4603 30.3122L19.953 30.8195L19.4791 30.3457L19.4712 30.2755ZM19.5349 30.8654L19.7213 31.0518L19.571 31.2021L19.5349 30.8654ZM19.6156 31.6208L19.953 31.2835L20.3841 31.7147C20.4045 31.735 20.432 31.7383 20.4583 31.7455L19.909 32.2948L19.6609 32.0467L19.6156 31.6208ZM20.1991 36.4943L20.6991 36.9944L20.4642 37.2294C20.352 36.9964 20.2608 36.7516 20.1991 36.4943ZM22.477 38.2479C21.8391 38.5695 21.022 38.1403 20.6309 37.5562C20.627 37.5503 20.625 37.5424 20.621 37.5365L20.9308 37.2268L21.2596 37.5555C21.3239 37.6199 21.4276 37.6199 21.4919 37.5555C21.5562 37.4912 21.5562 37.3875 21.4919 37.3232L21.1631 36.9944L21.7341 36.4235C21.7984 36.3592 21.7984 36.2555 21.7341 36.1911C21.6698 36.1268 21.5661 36.1268 21.5018 36.1911L20.9308 36.7621L20.3303 36.1616L21.2176 35.2743C21.2819 35.21 21.2819 35.1063 21.2176 35.042C21.1533 34.9777 21.0496 34.9777 20.9853 35.042L20.098 35.9293L20.0881 35.9194C20.0514 35.6733 20.0212 35.4285 19.9963 35.1923L19.9464 34.7231L20.453 35.2297C20.5174 35.294 20.621 35.294 20.6854 35.2297C20.7497 35.1654 20.7497 35.0617 20.6854 34.9974L20.1407 34.4527L21.0719 33.5214C21.1362 33.4571 21.1362 33.3534 21.0719 33.2891C21.0076 33.2248 20.9039 33.2248 20.8396 33.2891L19.9083 34.2203L19.8906 34.2026L19.7528 32.9117L19.9083 32.7562L20.3848 33.2326C20.4491 33.297 20.5528 33.297 20.6171 33.2326C20.6814 33.1683 20.6814 33.0646 20.6171 33.0003L20.1407 32.5239L20.7989 31.865C20.8632 31.8006 20.8632 31.697 20.7989 31.6326C20.7608 31.5952 20.7116 31.5867 20.6624 31.5933C20.6617 31.5519 20.6466 31.5112 20.6151 31.4797L20.184 31.0486L20.9761 30.2564C21.0404 30.1921 21.0404 30.0884 20.9761 30.0241C20.9118 29.9598 20.8081 29.9598 20.7438 30.0241L20.4675 30.3004C20.5265 30.2361 20.5272 30.137 20.4649 30.0746L20.0665 29.6763L20.6558 29.0869C20.6742 29.0686 20.6749 29.0443 20.6827 29.0213C20.686 29.0187 20.6913 29.02 20.6939 29.0167C20.7582 28.9524 20.7582 28.8487 20.6939 28.7844L20.1249 28.2154L20.5502 27.7901L21.0194 28.2594L20.9308 28.348C20.8665 28.4123 20.8665 28.516 20.9308 28.5796C20.9951 28.6439 21.0988 28.6439 21.1625 28.5796L21.2511 28.491L21.3685 28.6085C21.4329 28.6728 21.5366 28.6728 21.6009 28.6085C21.6652 28.5442 21.6652 28.4405 21.6009 28.3762L21.4834 28.2587L21.8063 27.9358L22.1581 28.2876C22.2224 28.3519 22.3261 28.3519 22.3904 28.2876C22.4547 28.2233 22.4547 28.1196 22.3904 28.0553L22.0104 27.6753C22.0163 27.6267 22.0071 27.5775 21.9704 27.5407C21.9329 27.5033 21.8844 27.4941 21.8358 27.5007L21.595 27.2599C23.2796 27.6005 23.067 29.4098 22.9974 30.767C22.9252 32.4175 23.1477 34.1081 23.2442 35.735C23.2823 36.3946 23.401 37.7807 22.477 38.2479Z" fill="#E42614"/>
<path d="M23.6701 30.4599C23.7351 29.2543 23.8158 27.7534 22.5571 26.9448C21.9165 26.534 21.1329 26.5209 20.4478 26.5635C18.9272 26.6574 18.4993 27.3439 18.6529 28.7864L19.3452 35.2625C19.4332 36.0848 19.5428 37.108 20.0862 37.9204C20.6427 38.7533 21.7997 39.3242 22.7736 38.8333C23.9293 38.2492 23.9681 36.8697 23.8998 35.6996C23.7843 33.7452 23.5677 32.4714 23.6701 30.4599ZM20.4878 27.2192C20.6289 27.2106 20.7753 27.2041 20.9223 27.2041C20.9741 27.2041 21.026 27.208 21.0778 27.21L21.5753 27.7074L21.2524 28.0303L20.7687 27.5467C20.7969 27.4863 20.7982 27.4154 20.7477 27.3649C20.6978 27.315 20.627 27.3156 20.5659 27.3439L20.4445 27.2224C20.4596 27.2218 20.474 27.2198 20.4878 27.2192ZM20.035 27.2769L20.3198 27.5617L19.8945 27.987L19.4621 27.5545C19.5933 27.4003 19.804 27.3229 20.035 27.2769ZM19.3164 27.8728L19.6622 28.2187L19.3256 28.5554C19.3065 28.5744 19.3046 28.6006 19.2967 28.6243C19.2711 28.3572 19.2639 28.0953 19.3164 27.8728ZM19.3288 28.9393L19.3078 28.7437C19.3151 28.7581 19.3137 28.7752 19.3256 28.787C19.3899 28.8513 19.4936 28.8513 19.5572 28.787L19.8939 28.4503L20.3625 28.9189L19.8348 29.4466L19.3288 28.9393ZM19.3846 29.459L19.6045 29.6789L19.4273 29.8561L19.3846 29.459ZM19.4712 30.2755L19.8355 29.9112L20.2338 30.3096C20.266 30.3417 20.308 30.3575 20.35 30.3575C20.39 30.3575 20.4288 30.3404 20.4603 30.3122L19.953 30.8195L19.4791 30.3457L19.4712 30.2755ZM19.5349 30.8654L19.7213 31.0518L19.571 31.2021L19.5349 30.8654ZM19.6156 31.6208L19.953 31.2835L20.3841 31.7147C20.4045 31.735 20.432 31.7383 20.4583 31.7455L19.909 32.2948L19.6609 32.0467L19.6156 31.6208ZM20.1991 36.4943L20.6991 36.9944L20.4642 37.2294C20.352 36.9964 20.2608 36.7516 20.1991 36.4943ZM22.477 38.2479C21.8391 38.5695 21.022 38.1403 20.6309 37.5562C20.627 37.5503 20.625 37.5424 20.621 37.5365L20.9308 37.2268L21.2596 37.5555C21.3239 37.6199 21.4276 37.6199 21.4919 37.5555C21.5562 37.4912 21.5562 37.3875 21.4919 37.3232L21.1631 36.9944L21.7341 36.4235C21.7984 36.3592 21.7984 36.2555 21.7341 36.1911C21.6698 36.1268 21.5661 36.1268 21.5018 36.1911L20.9308 36.7621L20.3303 36.1616L21.2176 35.2743C21.2819 35.21 21.2819 35.1063 21.2176 35.042C21.1533 34.9777 21.0496 34.9777 20.9853 35.042L20.098 35.9293L20.0881 35.9194C20.0514 35.6733 20.0212 35.4285 19.9963 35.1923L19.9464 34.7231L20.453 35.2297C20.5174 35.294 20.621 35.294 20.6854 35.2297C20.7497 35.1654 20.7497 35.0617 20.6854 34.9974L20.1407 34.4527L21.0719 33.5214C21.1362 33.4571 21.1362 33.3534 21.0719 33.2891C21.0076 33.2248 20.9039 33.2248 20.8396 33.2891L19.9083 34.2203L19.8906 34.2026L19.7528 32.9117L19.9083 32.7562L20.3848 33.2326C20.4491 33.297 20.5528 33.297 20.6171 33.2326C20.6814 33.1683 20.6814 33.0646 20.6171 33.0003L20.1407 32.5239L20.7989 31.865C20.8632 31.8006 20.8632 31.697 20.7989 31.6326C20.7608 31.5952 20.7116 31.5867 20.6624 31.5933C20.6617 31.5519 20.6466 31.5112 20.6151 31.4797L20.184 31.0486L20.9761 30.2564C21.0404 30.1921 21.0404 30.0884 20.9761 30.0241C20.9118 29.9598 20.8081 29.9598 20.7438 30.0241L20.4675 30.3004C20.5265 30.2361 20.5272 30.137 20.4649 30.0746L20.0665 29.6763L20.6558 29.0869C20.6742 29.0686 20.6749 29.0443 20.6827 29.0213C20.686 29.0187 20.6913 29.02 20.6939 29.0167C20.7582 28.9524 20.7582 28.8487 20.6939 28.7844L20.1249 28.2154L20.5502 27.7901L21.0194 28.2594L20.9308 28.348C20.8665 28.4123 20.8665 28.516 20.9308 28.5796C20.9951 28.6439 21.0988 28.6439 21.1625 28.5796L21.2511 28.491L21.3685 28.6085C21.4329 28.6728 21.5366 28.6728 21.6009 28.6085C21.6652 28.5442 21.6652 28.4405 21.6009 28.3762L21.4834 28.2587L21.8063 27.9358L22.1581 28.2876C22.2224 28.3519 22.3261 28.3519 22.3904 28.2876C22.4547 28.2233 22.4547 28.1196 22.3904 28.0553L22.0104 27.6753C22.0163 27.6267 22.0071 27.5775 21.9704 27.5407C21.9329 27.5033 21.8844 27.4941 21.8358 27.5007L21.595 27.2599C23.2796 27.6005 23.067 29.4098 22.9974 30.767C22.9252 32.4175 23.1477 34.1081 23.2442 35.735C23.2823 36.3946 23.401 37.7807 22.477 38.2479Z" stroke="#E42614" stroke-width="0.3" mask="url(#path-9-outside-5_406_10)"/>
</svg>
