<svg width="48" height="48" viewBox="0 0 48 48" fill="none" xmlns="http://www.w3.org/2000/svg">
<mask id="path-1-outside-1_98_2084" maskUnits="userSpaceOnUse" x="1.31982" y="6.07617" width="45" height="35" fill="black">
<rect fill="white" x="1.31982" y="6.07617" width="45" height="35"/>
<path fill-rule="evenodd" clip-rule="evenodd" d="M28.2455 38.9775C28.6526 39.1741 28.594 39.0843 28.8133 39.5169L27.9147 39.5568L28.2455 38.9775ZM26.4662 39.1202L26.7384 39.4064C26.6041 39.5076 26.7799 39.5226 26.4615 39.5464C26.1836 39.5672 26.3473 39.5491 26.1136 39.4925L26.4662 39.1202ZM23.7873 39.2996C23.7421 39.8183 23.9507 39.463 23.4689 39.6237C23.4906 39.5832 23.5191 39.4717 23.5342 39.5039L23.7873 39.2996ZM40.2813 38.6307C40.6677 38.9575 40.5666 39.016 40.7962 39.3723C39.4158 39.911 39.1155 39.1456 40.2813 38.6307ZM24.0813 39.1239C24.1549 38.9216 23.9661 38.847 24.7955 38.4549C25.0174 38.696 24.9816 38.7288 25.1932 38.9886C25.4219 39.2712 25.439 39.2032 25.66 39.5698L24.3521 39.6087L24.0809 39.1239L24.0813 39.1239ZM15.7523 38.6862L16.4212 39.5186C15.8289 39.5253 14.2687 39.5186 15.7523 38.6862ZM35.3474 38.0096C35.5912 38.2617 36.534 39.4024 36.7051 39.6385C35.8209 39.6847 34.8201 39.683 33.9291 39.6726C32.5352 39.6546 32.4635 38.9762 33.3736 38.4405C33.9388 38.8004 33.9462 39.2531 34.7474 39.5233C34.7785 38.706 34.4544 38.5738 35.3474 38.0096L35.3474 38.0096ZM31.4005 38.2336C31.8693 38.8185 32.1452 38.776 31.9325 39.5528C29.9738 39.7624 30.2574 38.8072 31.4005 38.2336ZM21.6385 38.8165C21.9228 38.6283 22.2111 38.3752 22.6601 38.2242C23.0729 38.4653 23.0344 38.5255 23.3612 38.7997C22.937 39.8534 22.1006 40.0159 21.6385 38.8168L21.6385 38.8165ZM19.6808 38.5131L20.4047 38.1485L20.9809 38.8242L20.2637 39.5434C19.9681 39.2939 19.7732 38.9558 19.6808 38.5134V38.5131ZM28.7734 38.6086L29.2525 38.2249C29.6041 38.6397 29.966 39.0867 30.205 39.5581L29.2846 39.5488L28.7734 38.6086ZM27.3125 39.5307L26.7504 38.7295C27.0216 38.3327 27.2576 38.1097 27.7879 37.9366L28.0732 38.5744C27.8767 38.9183 27.5696 39.2926 27.3125 39.5307L27.3125 39.5307ZM14.6954 39.4902L11.9759 39.4222L12.7762 38.7968C13.4669 39.0649 13.0765 39.153 13.8553 39.2976C13.7334 38.9046 12.9463 38.1194 13.7344 38.2771C14.0321 38.3367 14.5387 39.1889 14.6954 39.4905L14.6954 39.4902ZM11.2447 38.4244C11.5236 38.0598 11.6274 38.0333 12.0865 37.8622C12.4775 38.258 12.3161 37.9814 12.5344 38.4244L11.8049 39.0063C11.5772 38.787 11.4222 38.6464 11.2447 38.4244ZM25.199 38.1418L25.4977 37.9178C25.713 38.0879 25.9353 38.3337 26.1298 38.5915L25.8238 39.0773C25.3815 38.6039 25.4752 38.5171 25.1993 38.1418L25.199 38.1418ZM17.705 38.1097L18.4118 37.7243L19.0165 38.5426C18.7121 38.8533 18.4948 38.9015 18.5052 39.3354C18.8293 39.2956 19.0222 39.1238 19.2763 38.9765C19.5656 39.2504 19.5351 39.1814 19.7146 39.5651C19.1213 39.5839 18.5919 39.5671 18.0023 39.5377C17.0715 39.4931 17.2757 39.6927 16.7464 39.1295L17.3029 38.5777C17.7204 38.8546 17.4636 38.8546 18.0124 38.9688C17.9765 38.7174 17.8101 38.249 17.7043 38.11L17.705 38.1097ZM10.2686 38.8503C11.254 38.7368 10.9007 38.6943 11.4857 39.3616C10.348 39.4061 9.3398 39.4731 9.03071 38.4244L9.8614 37.7725C10.519 38.3537 10.38 38.0882 10.2685 38.8506L10.2686 38.8503ZM38.9872 38.7549C38.8171 38.2379 38.7746 38.1927 39.2242 37.9205C39.7552 37.5984 39.7968 37.7514 39.9896 38.1415L39.8594 38.2928C39.5627 38.5603 39.4218 38.6698 38.9872 38.7549L38.9872 38.7549ZM37.8645 38.786C38.9728 38.4458 38.4779 38.7632 39.0086 39.6997L37.3191 39.7168L36.7211 38.8466C37.1018 38.4452 37.4326 38.0464 37.8615 37.7374C38.1043 38.2544 37.9238 38.1663 37.8642 38.786L37.8645 38.786ZM16.3133 38.6886C16.095 38.113 16.3984 38.0933 17.0342 37.8676C16.9559 38.3002 16.676 38.5044 16.3133 38.6886ZM31.7479 37.8676L31.8972 37.6777C31.9049 37.67 32.1089 37.4718 32.1279 37.4558C32.3322 37.2894 32.3272 37.3074 32.5267 37.209L33.0869 37.9828L32.4075 38.7123L31.7479 37.8676ZM14.2056 37.9081C14.58 37.587 14.5458 37.6094 15.0768 37.5462L15.5 38.3039C15.1883 38.5248 15.1997 38.6156 14.7648 38.712L14.2053 37.9078L14.2056 37.9081ZM28.1462 37.7323L28.7104 37.3476L28.9997 37.8445L28.4609 38.3085L28.1462 37.7323ZM23.1149 37.8806L23.9077 37.431C24.2857 37.7266 24.3139 37.7363 24.4625 38.1716L23.82 38.6648C23.4015 38.4174 23.3221 38.2312 23.1152 37.8806H23.1149ZM33.8891 38.1415L34.3371 37.8288C34.5099 37.7551 34.684 37.725 34.8983 37.6841C34.2842 38.9946 34.0951 38.5259 33.8892 38.1415H33.8891ZM30.1304 38.5941L29.656 37.878C30.0859 37.4876 30.2975 37.2703 30.8352 37.0191L31.1044 37.8618C30.788 38.13 30.5801 38.3949 30.1301 38.5941L30.1304 38.5941ZM21.2864 38.5356C21.1541 38.3306 21.0323 38.1719 20.9379 37.8599C21.2931 37.5539 21.6182 37.363 22.1928 37.3148L22.3883 37.7183C22.1757 38.1207 21.7127 38.3635 21.2865 38.5356H21.2864ZM38.4661 37.8231C38.297 37.4705 38.1731 37.5177 38.4547 37.1768C38.6486 36.9415 38.9469 36.8765 39.2871 36.8517C39.4448 37.3185 39.6387 37.4906 38.4661 37.823V37.8231ZM42.118 35.4703C42.7407 35.9012 43.3454 36.7647 42.8171 37.877C42.2512 37.7183 41.8816 37.1769 41.4149 36.7486C41.6312 36.0201 41.7343 35.9635 42.118 35.4703H42.118ZM43.6628 36.913C43.3832 36.5189 43.3169 36.0429 44.0636 35.865C44.0522 36.379 44.1533 36.8457 43.6628 36.913ZM42.513 34.9995L42.9279 34.8191L42.9761 35.6317C42.8247 35.5259 42.8355 35.5882 42.7189 35.4274C42.6526 35.3357 42.5411 35.0391 42.513 34.9995ZM41.3897 35.5751C41.4463 35.1582 41.4343 35.2105 41.6894 34.958C41.9067 35.3257 41.595 35.3605 41.3897 35.5751ZM44.0864 35.4288L43.6176 35.3749C43.475 34.3155 44.0238 34.0406 44.3887 33.7855C44.3934 34.3316 44.3472 35.0129 44.0864 35.4288V35.4288ZM42.038 34.5596C42.4123 34.1685 42.5188 34.0483 43.0746 33.7433C42.9812 34.212 42.9943 34.1799 42.6276 34.4367C42.1381 34.7805 42.3253 34.7779 42.038 34.5596H42.038ZM41.7507 34.0088C41.9124 33.7556 41.9416 33.7443 42.1297 33.5099C42.4264 33.1406 42.3186 33.1838 42.6608 33.0619C42.6484 33.7158 42.8573 33.2548 42.3065 33.6883C41.9854 33.9415 42.0855 33.9301 41.7511 34.0088H41.7507ZM44.4607 33.1801L43.7898 33.4985L43.8323 32.2674C44.1621 32.4867 43.5366 32.2751 44.1015 32.3648C44.2461 32.3876 44.3483 32.3695 44.5863 32.397L44.4607 33.1801ZM43.2021 33.0488C43.0444 32.9099 42.9791 32.8305 42.8345 32.6594C43.4164 31.4377 42.6607 31.8639 43.3136 31.3044L43.2021 33.0485L43.2021 33.0488ZM42.3811 31.7457L42.0068 31.3771C42.0209 30.7262 42.3055 30.2963 42.6634 29.9883L43.0762 30.6686C42.9316 31.1591 42.6671 31.4009 42.3808 31.7457L42.3811 31.7457ZM44.1687 30.8132C44.7054 31.4859 44.6421 30.5296 44.6411 31.659L43.8597 32.0075C43.9209 30.8481 43.6196 30.8651 44.3197 30.2189C43.9748 29.6983 44.1315 30.2189 43.9936 29.6889C44.5578 29.9782 44.3639 29.7817 44.8855 29.549C44.6257 30.833 44.5179 29.7465 44.1684 30.8133L44.1687 30.8132ZM44.0977 29.426L44.1506 28.6995L44.8933 28.1182L44.9073 28.9687L44.0977 29.426ZM43.3645 30.3274L42.8977 29.5516C43.0544 28.9885 43.2058 28.7635 43.63 28.4019L43.3645 30.3274ZM42.7136 29.0025C42.4122 28.806 42.6332 29.0902 42.3215 28.6312C42.5087 28.3101 42.8525 27.8139 43.0631 27.5795C43.0641 27.5795 43.561 27.5614 43.1793 28.2013C42.9423 28.598 42.8806 28.5207 42.7136 29.0025V29.0025ZM42.1126 28.1173C41.9077 27.9348 41.7761 27.8263 41.5882 27.5682C41.7168 27.0994 41.9907 26.782 42.3459 26.4776C42.3687 26.4579 42.4139 26.4274 42.4481 26.403C42.6098 26.7629 42.6928 26.8319 42.8582 27.1486C42.6493 27.5229 42.4548 27.8082 42.1126 28.1173V28.1173ZM24.0689 26.7555L24.5423 27.4168L24.1984 28.1501L23.8214 27.3847C23.6597 26.8811 23.6212 26.932 24.0689 26.7555ZM26.0125 25.291C26.0416 25.3155 26.0882 25.3128 26.1012 25.3647L26.26 25.5167C26.7287 26.0658 26.651 26.3849 26.5228 26.9406C26.2044 26.8934 25.9995 26.6497 25.8565 26.336C25.6355 25.8521 25.8481 25.6281 26.0125 25.291L26.0125 25.291ZM42.6762 25.8796C42.7717 25.7095 42.9474 25.3486 43.1808 25.2662C43.7004 25.0811 43.7704 26.3424 43.2441 26.8235C42.769 26.4729 42.9324 26.3152 42.6762 25.8796V25.8796ZM24.5845 26.8028C24.5031 26.2744 24.8577 26.0196 25.2592 25.802C25.1222 26.0116 25.1611 26.043 25.0533 26.2821C24.7328 26.9963 25.0221 26.5664 24.5845 26.8028V26.8028ZM19.1534 25.0641C19.3961 25.1009 21.7972 26.6742 21.5165 27.2494C21.2105 26.9123 21.3702 26.8704 20.9638 26.7847C20.5744 26.7023 20.5613 26.9481 20.2864 26.4248C19.4022 24.74 19.5465 26.3407 19.1534 25.064L19.1534 25.0641ZM42.394 25.4561C42.1984 25.0631 42.48 24.6305 42.7673 24.3864C42.8343 24.4792 43.4051 24.7172 42.394 25.4561ZM44.5512 24.9251L44.5248 24.0304L45.259 23.3765C45.482 24.5785 45.1589 26.1877 45.0086 27.3981C44.5606 27.6693 44.6239 27.5983 44.2837 27.9462C44.265 26.9012 44.362 27.2149 44.9527 26.7254C44.7732 26.3032 44.6607 26.4428 44.415 26.3032L44.4508 25.5984C45.1224 25.2251 44.8723 25.5673 45.2567 25.0004L44.5509 24.9257L44.5512 24.9251ZM27.0501 24.1426C27.1191 24.8816 27.0236 24.8946 26.8043 25.5211C26.5482 25.1317 26.5254 25.1742 26.3557 24.7188L27.0501 24.1426ZM18.0544 24.222C18.8405 24.1718 18.2897 24.293 18.9707 24.6234L18.6192 24.7641C18.3925 24.8253 18.5191 24.7858 18.3671 24.8029L18.0543 24.2216L18.0544 24.222ZM27.3758 23.9809C27.4836 23.5162 28.0458 23.2373 28.469 22.9822C28.7138 23.548 28.6468 23.2393 28.8885 23.5848C29.2381 24.0827 29.001 23.8892 29.1872 24.5769C30.0661 24.7356 29.5528 23.9484 30.1046 24.7527C30.3483 25.1099 30.4203 25.4508 30.7508 25.8174L32.3128 27.6382C32.7417 28.207 33.3587 28.8569 33.9136 29.4248C34.9776 30.5143 36.0886 31.9165 37.2527 32.9937C38.5103 34.1589 39.3048 35.39 40.4898 36.522C40.9244 36.9369 41.9496 38.028 42.1757 38.4232L41.2713 39.0781C40.9047 38.8172 40.6003 38.2467 40.3348 37.8064C40.0609 37.3527 39.8074 36.5354 39.5496 36.2267C38.4394 36.3305 37.2357 37.883 36.3323 38.4774C36.3039 38.4536 36.2644 38.3753 36.252 38.4L35.6707 37.5978L37.3083 36.7494C37.6588 36.6134 37.4131 36.7665 37.621 36.5917C36.7856 36.0419 36.1093 36.9178 35.5602 37.0397C35.2511 37.1086 35.1822 36.9764 34.6277 37.2607C34.2232 37.4686 33.8747 37.6122 33.4665 37.717L32.9904 36.8251C33.4535 36.6021 33.7424 36.6275 34.0126 36.4507C33.562 35.8792 32.7219 36.5425 32.3563 36.8448C32.0529 37.0953 31.9026 37.3712 31.5899 37.2094C30.7301 36.7655 31.6977 37.0762 31.7884 36.4846C30.9286 36.4675 30.1284 36.804 29.5662 37.4284L29.2846 36.8418C28.9066 36.8844 27.8958 37.1887 27.665 37.333L27.1283 37.8205C26.893 38.0218 26.7296 38.1627 26.465 38.2411C26.1316 37.8915 26.1918 37.9936 26.0777 37.5778C26.5936 37.111 26.9573 37.0836 27.4658 36.732C27.3289 36.6386 27.6105 36.2736 26.2999 37.0126C25.4732 37.4783 26.1526 37.0675 25.337 36.8897C24.9854 37.6106 25.8332 37.2952 24.9148 37.8061C24.4564 37.4954 24.5907 37.4689 24.3988 36.9888C23.7111 37.0634 23.4322 37.344 22.8135 37.5386C22.5972 37.117 22.7294 37.2134 22.4053 36.8903C21.7959 36.9168 21.3557 37.3929 20.8387 37.3544C20.0981 37.2995 20.8521 37.2647 20.2632 37.123C19.767 37.945 20.7232 37.5493 19.5584 38.2038C19.1539 37.9591 19.1161 37.7967 18.9443 37.3564C19.3441 37.2439 19.618 37.2734 19.9384 37.0162C19.1486 36.6392 18.1364 37.3828 17.5846 37.7361L17.7262 37.2663C16.6492 37.2275 17.3767 37.0102 16.7161 36.605C15.8268 36.06 16.6819 37.4431 16.7285 37.5897L15.9169 37.9808C15.3999 37.1059 15.7421 36.5869 14.6754 37.1977C13.9281 37.6249 13.8571 37.3564 13.4499 37.8003C13.2959 37.9677 13.5993 37.8626 13.0739 38.1214C12.7197 37.9068 12.799 37.9343 12.5787 37.5402C12.9775 37.2228 13.2648 37.2405 13.5718 37.0128C13.1777 36.7229 12.6845 37.0751 11.9496 37.0279C11.8023 37.7016 11.3817 37.9587 10.8186 37.9992C10.5239 37.6949 10.5728 37.8489 10.4058 37.4153C10.7808 37.1357 11.1457 37.0647 11.6748 36.7831C11.0302 36.2397 10.0676 37.1176 9.52418 37.5506C9.31257 37.7196 9.04973 37.885 8.84483 37.9955C8.64628 37.8084 8.60308 37.5573 8.30141 37.4391C8.25789 37.9162 8.37608 38.1345 8.30141 38.3679C8.1407 38.8647 7.9753 38.2698 7.99439 39.1085C8.47251 38.9156 8.24651 38.8882 8.69818 38.7408C8.88802 38.9571 8.99951 39.0593 9.15923 39.4031C8.04631 39.4815 6.83191 39.6412 6.18365 39.1035C6.30553 38.5035 6.27808 38.8758 6.72975 38.4459C7.24671 38.7917 7.23432 39.0931 7.88621 39.1754C7.65953 38.6511 7.5112 38.7455 7.29089 38.1398C7.73687 37.432 8.85749 36.8708 9.63998 36.5582L10.1529 36.3077C10.0585 36.2377 10.015 35.8892 9.14107 36.3154C8.54676 36.6064 8.16136 37.0155 7.61896 37.3454C7.17398 37.6155 7.12208 37.42 6.56056 37.4351C6.57931 38.3193 6.55687 38.0247 6.05698 38.5688C6.02585 38.5481 5.98801 38.4657 5.97562 38.4915C5.96323 38.5159 5.91335 38.4302 5.89727 38.4141C5.71413 38.2364 5.80453 38.0817 5.42116 38.073L5.40777 38.7496C5.44928 39.207 5.41915 39.1132 5.38801 39.6178C4.69158 39.5602 3.9433 39.2003 3.52844 38.6757C4.01125 37.2818 4.10768 37.7375 4.90124 36.8757C5.22233 36.5271 5.3566 36.2927 5.6941 35.978C6.59375 35.1416 7.42878 34.3942 8.21333 33.422C8.55149 33.0024 8.61779 32.8069 8.9814 32.4988L11.4437 30.0261C12.0836 29.3495 15.862 25.0628 16.4055 24.8056C16.3639 24.5163 16.0077 25.0654 16.98 24.885C17.6359 24.7631 17.1739 24.8358 17.5402 24.5676C18.1998 24.0817 17.048 24.6744 17.7196 24.439L18.021 25.0266C17.7036 25.8469 17.7052 24.9027 17.5268 25.9055C18.0444 25.792 17.9443 25.7592 18.3461 25.5633C18.4643 25.9745 18.4442 25.9243 18.5209 26.3532C19.5933 26.4145 18.9367 25.8108 19.5658 27.1186L20.0326 27.4162C20.1762 27.3188 20.1176 26.9485 20.4029 27.4229C20.6326 27.8026 20.4578 28.0106 20.4273 28.402C21.3712 28.5419 20.7862 28.4673 21.3902 28.0809C21.6708 28.4211 21.5998 28.5439 21.9902 28.7961L22.5845 29.0579C22.848 28.2831 22.6856 28.4361 22.5166 27.736L23.2043 27.3289C23.3764 27.6908 23.6616 28.0912 23.7845 28.4117C24.0946 29.2243 23.5719 29.2471 24.6216 29.4276C24.4448 28.337 24.4203 28.841 24.7398 27.8101C25.5976 28.2902 25.1452 28.7586 26.0228 28.9535C25.9632 28.466 25.6391 28.1854 25.3756 27.8094C24.869 27.0855 25.093 27.3323 25.3237 26.5658C25.7442 26.8682 26.209 27.6523 26.8883 27.6835C27.0065 27.3282 26.7561 27.3925 27.029 26.8273C27.5258 27.0948 27.6082 27.434 28.1278 27.5425C28.0672 26.76 26.5509 26.522 27.4512 25.2115C27.8888 25.6227 28.1031 26.2357 28.8175 26.1433C28.5396 25.4562 27.5352 25.088 27.8659 24.3366C28.6548 24.6313 28.4053 25.5122 29.3927 25.4542C29.2895 25.1121 28.479 24.0765 28.1558 23.7356C27.7684 23.8243 27.7534 23.9047 27.3753 23.9803L27.3758 23.9809ZM42.6364 23.395C42.8008 23.0029 42.9652 22.7156 43.1701 22.4237C43.3147 22.2188 43.6238 21.9596 43.7607 21.7339L43.604 24.7215L43.002 23.9062C43.1202 23.5359 43.3184 23.414 43.5039 22.9406C42.853 22.8528 43.3583 22.7497 42.6364 23.3949L42.6364 23.395ZM28.7824 22.7789L28.9592 22.795C29.0686 23.2654 28.7834 22.8867 28.7824 22.7789ZM16.8784 23.0879C16.5884 22.9339 16.6129 23.175 16.5325 22.5927C17.0133 22.8924 16.7736 22.5265 16.8784 23.0879ZM16.1726 22.9443C16.339 23.4084 16.3614 23.2098 16.0262 23.4328C15.9158 23.2751 15.7219 22.9453 15.6342 22.7337C15.434 22.2489 15.4329 22.5013 15.7504 22.2743C15.9375 22.4585 16.0765 22.6731 16.1726 22.9443H16.1726ZM29.4497 22.587C29.2485 22.1665 29.5622 22.1223 29.9051 21.9161L29.4497 22.587ZM45.39 20.2483L45.323 22.7786C45.0337 22.9571 44.9366 22.946 44.6561 23.153L44.4341 20.9468L45.3903 20.2487L45.39 20.2483ZM31.1374 21.5297C31.0145 21.8029 31.1602 21.526 30.974 21.7952L30.6151 21.1574C30.9004 20.855 30.8645 20.9106 31.2586 20.7887C31.269 21.1155 31.2452 21.2886 31.1378 21.5293L31.1374 21.5297ZM12.1363 20.2938C12.0871 20.1927 11.8292 19.9122 11.7027 19.6918C12.0797 19.8288 11.78 19.5 12.0626 19.9818C12.1704 20.1643 12.1232 20.1492 12.1363 20.2935L12.1363 20.2938ZM43.1537 19.9604C43.2408 19.5596 43.5873 19.1089 43.9369 18.8786C43.7185 21.6395 44.0286 20.5915 43.0205 21.9947L42.2333 22.9386C42.4128 22.2639 42.9003 21.3947 43.3671 20.8165C43.3851 20.7937 43.4143 20.7616 43.4313 20.7381L43.5402 20.5567C43.9882 19.8281 43.3068 20.7552 43.6818 20.3099L43.1534 19.9603L43.1537 19.9604ZM44.4491 20.3026C44.346 18.8776 44.195 17.5058 45.3581 17.0428L45.3789 18.2692L44.7959 18.5592C44.4474 18.8133 44.5636 18.7169 44.4755 19.1763L45.3544 18.8702C45.4207 20.1476 45.3819 19.574 44.4491 20.3026L44.4491 20.3026ZM42.7938 19.4344C42.6247 18.8106 43.0158 18.3723 43.4296 17.7874L43.8341 18.2692C43.805 18.2919 43.7641 18.3201 43.7464 18.3371C42.9478 19.06 43.5328 19.0346 42.7938 19.434L42.7938 19.4344ZM33.9361 18.157C34.4273 17.9351 34.5341 17.6685 35.0625 17.3766C34.6155 18.4641 34.5656 17.6136 34.4758 19.7917C34.3094 19.6018 34.1035 19.3182 34.0885 18.9677C34.061 18.363 34.4842 18.6436 33.9364 18.1571L33.9361 18.157ZM42.2955 18.6399C42.2436 18.2545 42.7472 17.3257 42.9561 17.1261C43.0542 17.2915 43.2454 16.8908 42.9977 17.5835L42.2955 18.6399ZM3.19782 16.8513C3.33777 17.2159 3.40575 17.0401 3.20251 17.3756C3.05887 17.2102 3.12784 17.6063 3.08632 17.1308C3.0371 16.563 3.06456 17.0722 3.19782 16.8513H3.19782ZM9.13825 17.6769C8.79807 17.4094 8.91258 17.4198 8.72709 16.9634C9.23367 17.2413 9.41883 17.178 9.13825 17.6769ZM36.5248 16.3531L36.0487 17.2413C35.9513 17.0655 35.9081 16.9748 35.7832 16.7689L36.5248 16.3531ZM3.58739 16.3728C3.99286 15.7038 4.08829 16.2707 4.08996 16.2707C4.08996 16.337 4.1827 16.4371 3.92556 16.6032C3.36239 16.9661 3.6788 16.6504 3.575 16.6126C3.53817 16.4917 3.32288 16.8091 3.58739 16.3725L3.58739 16.3728ZM3.03192 15.3931C3.2663 15.5284 3.14073 15.444 3.33627 15.5917C3.35904 15.6087 3.51105 15.755 3.55558 15.7959L3.08784 16.2352L3.03192 15.3934L3.03192 15.3931ZM3.96269 14.4472L4.37753 14.8865L3.90878 15.3834C2.98469 14.758 3.4494 15.1775 3.06771 15.0272L3.96239 14.4469L3.96269 14.4472ZM37.981 15.3091C38.1832 14.9123 38.2428 14.7232 38.6084 14.6421L38.2381 15.8023C37.9405 15.3526 38.1768 15.8174 37.981 15.3091V15.3091ZM44.5337 16.8945C44.5736 16.6621 44.7209 16.1622 44.7484 15.9827C44.8806 15.1306 43.9706 13.8964 45.422 14.0127L45.3671 16.4884C44.8766 16.6444 44.9714 16.6538 44.5337 16.8945V16.8945ZM4.11346 13.8379C5.99386 12.9432 6.28675 15.5301 7.32509 16.2623C7.52264 16.4023 7.28926 16.2821 7.46504 16.3303C8.11426 16.5108 6.92833 16.2945 7.67297 16.3132C7.92442 16.3189 7.4925 16.0979 7.85913 16.333L8.7059 18.0413C8.7588 18.2398 8.56795 18.5921 9.09999 18.5525C9.49508 18.5234 9.21148 18.5432 9.40903 18.2047C9.54698 17.9683 9.28146 18.1755 9.54698 18.0091C10.4995 18.8368 9.58749 19.0203 9.83526 19.2594C10.386 19.7941 9.57544 18.5763 10.8263 19.6742L11.072 19.866C11.0965 19.8831 11.1327 19.9039 11.1571 19.921C12.1786 20.6351 11.5425 20.8819 12.6046 20.6931L12.9816 21.4585C13.6013 21.348 12.9266 21.4528 13.3425 21.2723L13.537 21.21C13.6361 21.8043 13.4473 21.1173 13.3689 21.9188C14.1836 21.8867 13.7781 21.5606 14.4813 23.0593C15.0946 22.9612 14.6088 22.9628 15.1861 22.8145C16.1574 24.436 15.4703 24.4417 14.1836 25.7237C13.8304 26.0753 13.6422 26.3331 13.287 26.6592C12.908 27.0061 12.7606 27.0751 12.3866 27.4501C10.8729 28.9695 9.4774 30.2733 8.08652 31.8891C7.74633 32.2842 7.67937 32.4191 7.25783 32.7526C6.2818 33.5254 3.60392 37.2228 3.13352 37.3731C3.10974 36.2498 3.40104 30.7705 3.28285 29.9927C3.22057 29.5846 3.05785 29.5665 2.97682 29.0857C2.86164 28.3969 3.07694 27.6493 3.03809 26.8682C2.97582 25.6511 2.8074 20.8548 3.18274 20.2862C3.59188 20.601 3.77705 20.9977 4.34862 20.6653C4.09349 20.1202 4.00643 20.4573 3.74092 19.8999C3.54171 19.4823 3.88825 19.8393 3.59159 19.5473C3.44896 19.4073 3.25141 19.397 3.02574 19.3062C3.12016 19.0199 3.10141 19.1211 3.18177 18.964C3.6994 17.9539 3.02875 19.396 3.34984 18.657C3.92339 18.9245 3.44326 18.9235 4.18891 19.0159C4.05867 18.2639 4.01882 18.7323 3.80621 18.1447L4.43534 17.6582C4.46179 17.6448 4.51369 17.6224 4.53444 17.611C4.55721 17.6006 4.60542 17.5866 4.63556 17.5648C4.13299 17.1188 4.29639 17.529 4.0754 17.0006C4.71993 16.2815 4.29571 16.8419 4.86357 16.5784C4.73868 16.1211 4.52339 16.0474 4.23611 15.7327C4.51971 15.3152 4.83143 15.0751 5.05709 14.6043C3.73418 14.0572 4.41826 14.4145 4.11424 13.8379L4.11346 13.8379ZM3.04872 14.5163C3.07316 13.7519 2.88131 13.044 3.35475 12.5649L3.84693 13.5202C3.02193 14.225 3.96312 13.9973 3.04839 14.5159L3.04872 14.5163ZM4.42152 13.2841C4.06059 13.2613 4.23067 13.5098 4.03212 12.9325C4.4791 13.1167 4.32408 12.9392 4.42152 13.2841ZM45.0638 12.2542C45.2915 12.5803 45.3879 12.9091 45.2945 13.421L44.8723 13.576L44.4933 12.7718L45.0641 12.2541L45.0638 12.2542ZM44.0962 11.5085C44.3597 11.3649 44.5951 11.2554 44.9881 11.1824C44.9798 11.9505 44.82 11.9287 44.3654 12.2133C44.1263 11.8969 44.1839 12.0194 44.0962 11.5085L44.0962 11.5085ZM42.2158 13.7157C42.5617 13.1836 42.265 12.9663 42.9906 12.4042L43.2561 12.1982L42.5285 11.3478C42.6711 11.243 42.7023 11.2021 42.8469 11.0937C43.0414 10.9463 42.8971 11.0341 43.1416 10.8857C44.2954 13.0343 43.7965 13.3878 43.8718 15.5129C43.9143 16.6912 44.0486 16.6922 43.3786 16.796C43.0686 16.3688 43.4134 16.1394 43.5487 15.5826C43.0404 15.7547 43.2577 15.9503 42.8382 16.1307C42.3477 15.287 42.7505 15.2123 41.9489 15.151C41.7882 15.7018 42.2419 16.1943 42.6802 16.5314C42.0517 18.7369 42.1056 17.8082 41.3925 18.082C41.5947 18.5913 41.8981 18.6743 42.0179 19.044C42.1134 19.3406 41.9567 19.7488 41.9443 20.2393C42.4847 20.0012 42.1435 20.1713 42.5037 19.7046C42.552 20.4415 41.8934 20.5409 41.8271 21.2457C41.7477 22.1008 41.7826 21.5879 41.9687 21.8343C42.3477 21.2966 42.3571 20.7167 42.9628 20.3651C42.8476 20.8499 42.4345 21.6501 42.1372 22.0998C41.9697 22.3529 41.6704 22.6385 41.6081 22.8501C41.4297 23.4481 41.7139 23.4066 41.802 23.5144C41.8181 23.5325 41.8736 23.6125 41.886 23.5881C41.8984 23.5636 41.9483 23.6326 41.9748 23.6597C41.1772 24.4904 41.813 25.2019 41.5251 26.1618L41.6641 26.1759C41.6744 26.1759 41.719 26.1769 41.7293 26.1769C42.626 26.1795 41.3503 25.8179 41.9446 26.1618C41.425 26.8412 41.0044 27.3437 40.9449 28.2755C40.9686 28.2839 41.0091 28.2792 41.0205 28.2782C41.3721 28.2735 41.1206 28.1175 41.5318 28.2507C41.6942 28.7155 41.5696 29.1152 41.4193 29.7068C41.8964 29.6057 41.717 29.5746 42.0012 29.2656C42.0183 29.2468 42.0645 29.2314 42.0769 29.1795C42.0893 29.1276 42.1231 29.1172 42.1536 29.0935C42.3511 29.5783 42.2687 29.7152 41.9373 30.2131C41.566 30.7695 41.6594 30.5117 41.1049 30.8121C41.2201 31.3146 41.5971 31.7646 41.9818 32.0422C41.9781 33.4047 42.028 33.1941 41.0038 33.6306C41.0453 34.2872 41.1899 34.2855 41.0747 34.8798C40.9793 35.372 40.9736 34.9923 41.053 35.5327C41.0597 35.5752 41.0727 35.6094 41.0804 35.6519C41.0871 35.6954 41.0992 35.7313 41.1059 35.7738L41.1437 36.3021C40.3934 35.895 38.9647 33.6506 38.2827 32.9505C38.0426 32.7038 37.8491 32.5159 37.5484 32.1285C37.0947 31.5446 37.3726 31.8101 36.7281 31.399C35.9295 30.8897 35.2739 29.7483 34.5796 29.0425L32.4311 26.5331C31.8026 25.8594 31.5826 25.5353 31.0298 24.8399L29.7042 23.1825L30.392 22.0997C30.6555 22.5872 30.9267 23.0975 31.4353 23.3081C31.665 23.4035 31.523 23.3402 31.677 23.3589C31.6884 23.36 31.7413 23.373 31.7497 23.3496C31.758 23.3251 31.7989 23.3429 31.8213 23.3335C31.9234 23.0338 31.5049 22.7827 31.2347 22.5256L31.6787 21.5476C32.3393 22.0304 32.0266 22.2751 32.8532 22.5199C32.6379 21.7207 32.3373 21.6922 31.9622 21.0875C32.207 20.5622 32.2676 20.823 32.3761 20.2418C31.6287 20.2019 31.9803 20.4762 31.5815 20.2418C31.8159 19.8015 31.987 19.758 32.5539 19.4519C32.8033 20.4564 32.6125 20.2729 32.7287 21.1689C33.2814 21.118 32.8967 21.2322 33.2296 20.8364C33.6122 21.1331 33.6407 21.2456 34.0355 21.0708C33.8202 20.5625 32.7805 20.0078 33.6528 19.3096C34.0479 19.8557 34.0599 20.3292 34.6392 20.4868C34.8451 20.0211 34.9378 19.6742 34.832 19.1565C35.207 19.4174 35.2827 19.7746 35.7059 19.8982C35.9573 18.9335 34.3067 18.8719 35.6717 17.55L35.7002 19.0383C35.9543 18.9957 35.7826 19.0363 35.9798 18.892L36.1894 18.6887C36.3527 18.8625 36.7884 19.4655 36.8017 18.8692C36.8074 18.6218 36.4833 18.4356 36.2416 17.9725L36.6005 17.2895C37.1315 17.7318 37.0294 18.0274 37.7787 18.1503C37.6123 17.6079 37.3063 17.4747 37.003 16.8596C37.1171 16.5328 37.2316 16.4504 37.3167 16.1849C37.4007 15.9231 37.3016 15.7804 37.4583 15.5886C37.8685 16.1538 38.2917 17.0833 38.8709 17.2734C39.0343 16.7159 38.8843 17.0219 38.7858 16.5354C38.7085 16.146 38.748 15.8758 38.7604 15.4553C39.267 15.7301 39.3386 16.3463 40.104 16.3C39.9624 15.5922 39.4605 15.8192 39.2764 15.1934C39.0685 14.4923 39.4438 15.2651 39.3075 14.634C39.2027 14.1481 39.2717 14.7729 39.0544 14.2352L39.5144 13.7099L39.8452 14.4659C39.9038 14.6246 39.9842 14.8703 40.091 15.0726C40.6977 15.24 40.4529 15.3448 40.8715 15.168C41.0473 14.4866 40.0304 14.8968 40.7004 13.8498C41.0161 14.1495 41.1417 14.4525 41.5612 14.5857C41.5923 13.9546 41.3258 13.8846 41.0037 13.4765C41.1852 13.0684 41.2127 13.2395 41.4149 12.7717L40.8876 12.6753C41.5991 12.2765 41.7966 11.9524 42.4097 11.5784C42.489 12.0876 42.5185 11.8958 42.4823 12.2909C42.0317 12.5356 42.2158 12.4355 41.6858 12.324L41.6613 14.1799L42.1602 13.7915C42.1763 13.7718 42.2027 13.7376 42.2161 13.7159L42.2158 13.7157ZM22.5161 27.0777C20.8142 25.1776 20.8691 25.3711 19.1976 23.9812C18.6355 23.5145 18.4125 23.624 17.8634 23.0591L13.0125 19.1698C11.0906 17.9672 12.0619 18.4593 11.2379 17.8469L5.90326 13.3144C5.55069 12.996 5.36855 12.6086 4.87906 12.2239C4.40094 11.8496 3.95292 11.6607 3.80661 11.0685C4.16754 10.8388 4.88172 10.4373 5.31363 10.2341C7.28841 9.30795 7.39418 9.69536 9.54775 9.65385C11.7569 9.61133 14.6096 9.34313 16.7374 9.38063C17.4877 9.39403 19.0071 9.69804 19.4927 9.57149C20.1757 9.39303 19.503 9.37127 21.1537 9.29459L28.5777 9.33242C29.4724 9.34179 30.2304 9.18509 31.1147 9.18878C34.4331 9.20016 37.3423 9.40139 40.7035 9.26713C40.815 9.48911 40.8046 9.56378 40.9576 9.69034C40.9804 9.70909 41.0162 9.73086 41.0417 9.74793C41.6199 10.1296 40.6098 9.53264 41.2362 9.83867C41.6946 10.0637 41.9628 10.1608 42.3749 10.658C41.4763 11.3544 39.4185 12.7348 38.5171 13.5475L25.192 25.0281C24.7242 25.4325 24.453 25.7613 24.0204 26.125L22.516 27.0775L22.5161 27.0777ZM41.5438 8.9671C42.7438 8.18562 43.7586 9.66721 44.0117 10.3231C44.2565 10.9552 44.2471 10.8153 43.8011 11.1273C43.6652 11.0225 43.698 11.0557 43.5537 10.91C42.5097 9.85635 43.0746 10.5066 42.3189 10.0295C42.4937 9.47302 42.9698 9.71208 42.8262 9.27179C42.7127 9.12046 42.9169 8.7766 41.9928 9.61666C41.6583 9.38797 41.6376 9.42113 41.5441 8.96744L41.5438 8.9671ZM22.7758 8.82145C22.9656 8.59378 23.4967 8.09388 23.7216 8.68552C23.4183 8.93295 23.2813 8.83116 22.7758 8.82145ZM19.8732 8.37547C19.7493 8.83183 19.6579 9.02268 19.1467 8.77893L19.8732 8.37547ZM39.9047 8.90851C40.5094 8.60885 41.1264 7.70748 41.8151 8.40293C40.8834 8.92458 40.6603 9.12581 39.9047 8.90851ZM37.5586 8.90382C37.7779 8.60416 37.5549 8.83485 37.8797 8.54087C38.7006 7.79623 39.1958 7.98071 40.3051 8.00416L39.2903 8.93767L37.5582 8.90352L37.5586 8.90382ZM36.1979 8.40293C36.3623 8.30081 36.5457 8.19131 36.7148 8.0825C36.9633 7.92279 36.9566 7.64321 37.9413 7.9171C37.8968 8.14377 37.4849 8.43875 37.1598 8.67212C36.8056 8.92726 36.3037 8.87436 35.6839 8.87636L36.1979 8.40293ZM11.543 9.10873C11.8624 8.75147 13.9279 7.84342 14.2832 7.98039C13.7853 8.26398 14.0783 7.95126 13.7013 8.32525C13.4699 8.55494 13.5218 8.61152 13.2101 8.81275C12.747 9.11041 12.2662 9.14356 11.5434 9.1084L11.543 9.10873ZM10.6841 9.11074C10.9969 8.81308 11.32 8.64199 11.6679 8.418C12.215 8.06543 11.9532 7.94288 12.6998 8.06643C12.5203 8.07681 12.4343 8.11733 12.2254 8.2392C11.9598 8.39322 11.9635 8.38082 11.6632 8.53886C10.7079 9.03875 11.7757 9.11041 10.6842 9.11041L10.6841 9.11074ZM7.57169 9.20617C8.3391 8.64969 10.6661 8.0042 11.6622 8.00882C10.6644 9.17565 9.08549 9.30422 7.57169 9.20617ZM33.5585 8.87838C33.8733 8.28608 34.2674 8.21409 34.7207 7.92309C35.2377 7.59061 35.5096 7.78514 36.2573 7.80959C35.7102 8.35769 35.6609 8.10825 35.3576 8.577L35.2016 8.92957L33.5583 8.87867L33.5585 8.87838ZM31.7689 8.85293C32.2812 8.01956 32.6703 8.44378 33.2297 7.71156L34.1669 7.7514C33.8361 8.01692 33.5954 8.185 33.138 8.31726L33.0878 8.86134L31.7686 8.85297L31.7689 8.85293ZM29.3783 8.84255C29.6193 8.41164 30.1805 7.95155 30.6181 7.76238C31.1066 7.55178 32.1884 7.62243 32.5571 7.71149C32.2433 7.96561 31.858 8.25558 31.3068 8.31986L31.2549 8.81875L29.3783 8.84255ZM26.399 8.74914C27.7229 8.45249 27.4752 7.46677 29.8139 7.7504C29.5711 7.93924 29.4727 8.0745 29.021 8.18968L28.9992 8.7763C27.7302 8.75922 26.0816 8.99661 24.2484 8.92563C24.7975 8.4023 25.6752 7.98646 26.6163 7.78623L26.399 8.74914ZM26.9207 8.0651C26.9973 7.61812 26.6126 7.71086 27.448 7.76074L26.9207 8.0651ZM15.6184 8.82849C17.7917 7.3884 16.652 8.52715 17.2352 7.55752C19.5077 7.65863 23.9156 7.49892 25.7223 7.72292L24.1265 8.47694L24.083 8.00451C23.0059 8.0025 22.7243 8.38922 21.9512 8.6641L21.6686 8.1247C20.9789 8.31187 20.7897 8.60651 20.0963 8.66879L20.4572 7.92415C18.9435 7.75506 19.142 9.23661 17.3534 8.92564C17.6454 8.7301 17.6531 8.78869 17.9534 8.64037C18.4212 8.40968 18.3267 8.63836 18.3652 8.18401L16.2874 8.84528C15.8424 8.96046 16.056 9.10611 15.6184 8.8282L15.6184 8.82849ZM13.5944 9.0277C13.7993 8.69221 13.5073 8.97179 13.89 8.66007C14.5363 8.13373 15.7921 7.68875 16.6272 7.73795C15.7109 8.35671 15.381 8.6875 14.9019 8.49666L14.6203 9.03137L13.5941 9.02769L13.5944 9.0277ZM2.3564 29.3137C3.27851 30.0979 2.6795 31.4803 2.61823 32.3609C2.58809 32.7918 2.65506 33.1943 2.5824 33.5987C2.47559 34.192 2.41901 33.5853 2.41432 34.3819L2.39725 37.6578C3.57848 40.9347 6.84873 39.8161 9.68699 39.6875C12.5574 39.5579 16.2596 39.9718 19.2733 39.9567C22.5626 39.9406 25.8448 40.0096 29.1416 39.953C32.2889 39.8991 35.7188 40.0267 38.8684 40.1817C41.5858 40.315 44.3819 38.1437 44.5858 36.0216L44.8798 34.161C45.0422 33.4475 44.9411 32.5555 45.0291 31.7911C45.1168 31.022 45.2237 30.4097 45.3295 29.6748C45.4296 28.9813 45.371 28.3188 45.4333 27.5449C45.5598 25.9602 45.7771 24.4843 45.8876 23.0502C45.9395 22.389 45.7875 21.6309 45.8103 20.8069C45.8347 19.9092 45.7754 19.2648 45.898 18.405C46.0681 17.2134 45.9747 14.7748 45.9338 13.4707C45.8742 11.5716 44.682 9.84699 43.4317 8.62925C42.8826 8.09454 42.517 8.00012 41.7131 7.8307C41.0307 7.68606 40.3373 7.43494 39.7165 7.38003C38.989 7.31574 37.9242 7.32244 37.1759 7.32244C34.0389 7.32445 30.7138 7.1259 27.7344 7.24108C26.4712 7.2903 24.0882 7.31574 22.8758 7.17981C21.2214 6.99364 15.2221 7.05224 13.6187 7.40481C11.6854 7.82902 10.3937 6.75559 5.63455 9.28418C4.29389 9.99668 3.65412 10.299 2.99549 11.7247C2.98143 11.7569 2.96235 11.7917 2.94728 11.8228C1.63114 14.6196 2.87931 27.8591 2.35666 29.3137L2.3564 29.3137Z"/>
</mask>
<path fill-rule="evenodd" clip-rule="evenodd" d="M28.2455 38.9775C28.6526 39.1741 28.594 39.0843 28.8133 39.5169L27.9147 39.5568L28.2455 38.9775ZM26.4662 39.1202L26.7384 39.4064C26.6041 39.5076 26.7799 39.5226 26.4615 39.5464C26.1836 39.5672 26.3473 39.5491 26.1136 39.4925L26.4662 39.1202ZM23.7873 39.2996C23.7421 39.8183 23.9507 39.463 23.4689 39.6237C23.4906 39.5832 23.5191 39.4717 23.5342 39.5039L23.7873 39.2996ZM40.2813 38.6307C40.6677 38.9575 40.5666 39.016 40.7962 39.3723C39.4158 39.911 39.1155 39.1456 40.2813 38.6307ZM24.0813 39.1239C24.1549 38.9216 23.9661 38.847 24.7955 38.4549C25.0174 38.696 24.9816 38.7288 25.1932 38.9886C25.4219 39.2712 25.439 39.2032 25.66 39.5698L24.3521 39.6087L24.0809 39.1239L24.0813 39.1239ZM15.7523 38.6862L16.4212 39.5186C15.8289 39.5253 14.2687 39.5186 15.7523 38.6862ZM35.3474 38.0096C35.5912 38.2617 36.534 39.4024 36.7051 39.6385C35.8209 39.6847 34.8201 39.683 33.9291 39.6726C32.5352 39.6546 32.4635 38.9762 33.3736 38.4405C33.9388 38.8004 33.9462 39.2531 34.7474 39.5233C34.7785 38.706 34.4544 38.5738 35.3474 38.0096L35.3474 38.0096ZM31.4005 38.2336C31.8693 38.8185 32.1452 38.776 31.9325 39.5528C29.9738 39.7624 30.2574 38.8072 31.4005 38.2336ZM21.6385 38.8165C21.9228 38.6283 22.2111 38.3752 22.6601 38.2242C23.0729 38.4653 23.0344 38.5255 23.3612 38.7997C22.937 39.8534 22.1006 40.0159 21.6385 38.8168L21.6385 38.8165ZM19.6808 38.5131L20.4047 38.1485L20.9809 38.8242L20.2637 39.5434C19.9681 39.2939 19.7732 38.9558 19.6808 38.5134V38.5131ZM28.7734 38.6086L29.2525 38.2249C29.6041 38.6397 29.966 39.0867 30.205 39.5581L29.2846 39.5488L28.7734 38.6086ZM27.3125 39.5307L26.7504 38.7295C27.0216 38.3327 27.2576 38.1097 27.7879 37.9366L28.0732 38.5744C27.8767 38.9183 27.5696 39.2926 27.3125 39.5307L27.3125 39.5307ZM14.6954 39.4902L11.9759 39.4222L12.7762 38.7968C13.4669 39.0649 13.0765 39.153 13.8553 39.2976C13.7334 38.9046 12.9463 38.1194 13.7344 38.2771C14.0321 38.3367 14.5387 39.1889 14.6954 39.4905L14.6954 39.4902ZM11.2447 38.4244C11.5236 38.0598 11.6274 38.0333 12.0865 37.8622C12.4775 38.258 12.3161 37.9814 12.5344 38.4244L11.8049 39.0063C11.5772 38.787 11.4222 38.6464 11.2447 38.4244ZM25.199 38.1418L25.4977 37.9178C25.713 38.0879 25.9353 38.3337 26.1298 38.5915L25.8238 39.0773C25.3815 38.6039 25.4752 38.5171 25.1993 38.1418L25.199 38.1418ZM17.705 38.1097L18.4118 37.7243L19.0165 38.5426C18.7121 38.8533 18.4948 38.9015 18.5052 39.3354C18.8293 39.2956 19.0222 39.1238 19.2763 38.9765C19.5656 39.2504 19.5351 39.1814 19.7146 39.5651C19.1213 39.5839 18.5919 39.5671 18.0023 39.5377C17.0715 39.4931 17.2757 39.6927 16.7464 39.1295L17.3029 38.5777C17.7204 38.8546 17.4636 38.8546 18.0124 38.9688C17.9765 38.7174 17.8101 38.249 17.7043 38.11L17.705 38.1097ZM10.2686 38.8503C11.254 38.7368 10.9007 38.6943 11.4857 39.3616C10.348 39.4061 9.3398 39.4731 9.03071 38.4244L9.8614 37.7725C10.519 38.3537 10.38 38.0882 10.2685 38.8506L10.2686 38.8503ZM38.9872 38.7549C38.8171 38.2379 38.7746 38.1927 39.2242 37.9205C39.7552 37.5984 39.7968 37.7514 39.9896 38.1415L39.8594 38.2928C39.5627 38.5603 39.4218 38.6698 38.9872 38.7549L38.9872 38.7549ZM37.8645 38.786C38.9728 38.4458 38.4779 38.7632 39.0086 39.6997L37.3191 39.7168L36.7211 38.8466C37.1018 38.4452 37.4326 38.0464 37.8615 37.7374C38.1043 38.2544 37.9238 38.1663 37.8642 38.786L37.8645 38.786ZM16.3133 38.6886C16.095 38.113 16.3984 38.0933 17.0342 37.8676C16.9559 38.3002 16.676 38.5044 16.3133 38.6886ZM31.7479 37.8676L31.8972 37.6777C31.9049 37.67 32.1089 37.4718 32.1279 37.4558C32.3322 37.2894 32.3272 37.3074 32.5267 37.209L33.0869 37.9828L32.4075 38.7123L31.7479 37.8676ZM14.2056 37.9081C14.58 37.587 14.5458 37.6094 15.0768 37.5462L15.5 38.3039C15.1883 38.5248 15.1997 38.6156 14.7648 38.712L14.2053 37.9078L14.2056 37.9081ZM28.1462 37.7323L28.7104 37.3476L28.9997 37.8445L28.4609 38.3085L28.1462 37.7323ZM23.1149 37.8806L23.9077 37.431C24.2857 37.7266 24.3139 37.7363 24.4625 38.1716L23.82 38.6648C23.4015 38.4174 23.3221 38.2312 23.1152 37.8806H23.1149ZM33.8891 38.1415L34.3371 37.8288C34.5099 37.7551 34.684 37.725 34.8983 37.6841C34.2842 38.9946 34.0951 38.5259 33.8892 38.1415H33.8891ZM30.1304 38.5941L29.656 37.878C30.0859 37.4876 30.2975 37.2703 30.8352 37.0191L31.1044 37.8618C30.788 38.13 30.5801 38.3949 30.1301 38.5941L30.1304 38.5941ZM21.2864 38.5356C21.1541 38.3306 21.0323 38.1719 20.9379 37.8599C21.2931 37.5539 21.6182 37.363 22.1928 37.3148L22.3883 37.7183C22.1757 38.1207 21.7127 38.3635 21.2865 38.5356H21.2864ZM38.4661 37.8231C38.297 37.4705 38.1731 37.5177 38.4547 37.1768C38.6486 36.9415 38.9469 36.8765 39.2871 36.8517C39.4448 37.3185 39.6387 37.4906 38.4661 37.823V37.8231ZM42.118 35.4703C42.7407 35.9012 43.3454 36.7647 42.8171 37.877C42.2512 37.7183 41.8816 37.1769 41.4149 36.7486C41.6312 36.0201 41.7343 35.9635 42.118 35.4703H42.118ZM43.6628 36.913C43.3832 36.5189 43.3169 36.0429 44.0636 35.865C44.0522 36.379 44.1533 36.8457 43.6628 36.913ZM42.513 34.9995L42.9279 34.8191L42.9761 35.6317C42.8247 35.5259 42.8355 35.5882 42.7189 35.4274C42.6526 35.3357 42.5411 35.0391 42.513 34.9995ZM41.3897 35.5751C41.4463 35.1582 41.4343 35.2105 41.6894 34.958C41.9067 35.3257 41.595 35.3605 41.3897 35.5751ZM44.0864 35.4288L43.6176 35.3749C43.475 34.3155 44.0238 34.0406 44.3887 33.7855C44.3934 34.3316 44.3472 35.0129 44.0864 35.4288V35.4288ZM42.038 34.5596C42.4123 34.1685 42.5188 34.0483 43.0746 33.7433C42.9812 34.212 42.9943 34.1799 42.6276 34.4367C42.1381 34.7805 42.3253 34.7779 42.038 34.5596H42.038ZM41.7507 34.0088C41.9124 33.7556 41.9416 33.7443 42.1297 33.5099C42.4264 33.1406 42.3186 33.1838 42.6608 33.0619C42.6484 33.7158 42.8573 33.2548 42.3065 33.6883C41.9854 33.9415 42.0855 33.9301 41.7511 34.0088H41.7507ZM44.4607 33.1801L43.7898 33.4985L43.8323 32.2674C44.1621 32.4867 43.5366 32.2751 44.1015 32.3648C44.2461 32.3876 44.3483 32.3695 44.5863 32.397L44.4607 33.1801ZM43.2021 33.0488C43.0444 32.9099 42.9791 32.8305 42.8345 32.6594C43.4164 31.4377 42.6607 31.8639 43.3136 31.3044L43.2021 33.0485L43.2021 33.0488ZM42.3811 31.7457L42.0068 31.3771C42.0209 30.7262 42.3055 30.2963 42.6634 29.9883L43.0762 30.6686C42.9316 31.1591 42.6671 31.4009 42.3808 31.7457L42.3811 31.7457ZM44.1687 30.8132C44.7054 31.4859 44.6421 30.5296 44.6411 31.659L43.8597 32.0075C43.9209 30.8481 43.6196 30.8651 44.3197 30.2189C43.9748 29.6983 44.1315 30.2189 43.9936 29.6889C44.5578 29.9782 44.3639 29.7817 44.8855 29.549C44.6257 30.833 44.5179 29.7465 44.1684 30.8133L44.1687 30.8132ZM44.0977 29.426L44.1506 28.6995L44.8933 28.1182L44.9073 28.9687L44.0977 29.426ZM43.3645 30.3274L42.8977 29.5516C43.0544 28.9885 43.2058 28.7635 43.63 28.4019L43.3645 30.3274ZM42.7136 29.0025C42.4122 28.806 42.6332 29.0902 42.3215 28.6312C42.5087 28.3101 42.8525 27.8139 43.0631 27.5795C43.0641 27.5795 43.561 27.5614 43.1793 28.2013C42.9423 28.598 42.8806 28.5207 42.7136 29.0025V29.0025ZM42.1126 28.1173C41.9077 27.9348 41.7761 27.8263 41.5882 27.5682C41.7168 27.0994 41.9907 26.782 42.3459 26.4776C42.3687 26.4579 42.4139 26.4274 42.4481 26.403C42.6098 26.7629 42.6928 26.8319 42.8582 27.1486C42.6493 27.5229 42.4548 27.8082 42.1126 28.1173V28.1173ZM24.0689 26.7555L24.5423 27.4168L24.1984 28.1501L23.8214 27.3847C23.6597 26.8811 23.6212 26.932 24.0689 26.7555ZM26.0125 25.291C26.0416 25.3155 26.0882 25.3128 26.1012 25.3647L26.26 25.5167C26.7287 26.0658 26.651 26.3849 26.5228 26.9406C26.2044 26.8934 25.9995 26.6497 25.8565 26.336C25.6355 25.8521 25.8481 25.6281 26.0125 25.291L26.0125 25.291ZM42.6762 25.8796C42.7717 25.7095 42.9474 25.3486 43.1808 25.2662C43.7004 25.0811 43.7704 26.3424 43.2441 26.8235C42.769 26.4729 42.9324 26.3152 42.6762 25.8796V25.8796ZM24.5845 26.8028C24.5031 26.2744 24.8577 26.0196 25.2592 25.802C25.1222 26.0116 25.1611 26.043 25.0533 26.2821C24.7328 26.9963 25.0221 26.5664 24.5845 26.8028V26.8028ZM19.1534 25.0641C19.3961 25.1009 21.7972 26.6742 21.5165 27.2494C21.2105 26.9123 21.3702 26.8704 20.9638 26.7847C20.5744 26.7023 20.5613 26.9481 20.2864 26.4248C19.4022 24.74 19.5465 26.3407 19.1534 25.064L19.1534 25.0641ZM42.394 25.4561C42.1984 25.0631 42.48 24.6305 42.7673 24.3864C42.8343 24.4792 43.4051 24.7172 42.394 25.4561ZM44.5512 24.9251L44.5248 24.0304L45.259 23.3765C45.482 24.5785 45.1589 26.1877 45.0086 27.3981C44.5606 27.6693 44.6239 27.5983 44.2837 27.9462C44.265 26.9012 44.362 27.2149 44.9527 26.7254C44.7732 26.3032 44.6607 26.4428 44.415 26.3032L44.4508 25.5984C45.1224 25.2251 44.8723 25.5673 45.2567 25.0004L44.5509 24.9257L44.5512 24.9251ZM27.0501 24.1426C27.1191 24.8816 27.0236 24.8946 26.8043 25.5211C26.5482 25.1317 26.5254 25.1742 26.3557 24.7188L27.0501 24.1426ZM18.0544 24.222C18.8405 24.1718 18.2897 24.293 18.9707 24.6234L18.6192 24.7641C18.3925 24.8253 18.5191 24.7858 18.3671 24.8029L18.0543 24.2216L18.0544 24.222ZM27.3758 23.9809C27.4836 23.5162 28.0458 23.2373 28.469 22.9822C28.7138 23.548 28.6468 23.2393 28.8885 23.5848C29.2381 24.0827 29.001 23.8892 29.1872 24.5769C30.0661 24.7356 29.5528 23.9484 30.1046 24.7527C30.3483 25.1099 30.4203 25.4508 30.7508 25.8174L32.3128 27.6382C32.7417 28.207 33.3587 28.8569 33.9136 29.4248C34.9776 30.5143 36.0886 31.9165 37.2527 32.9937C38.5103 34.1589 39.3048 35.39 40.4898 36.522C40.9244 36.9369 41.9496 38.028 42.1757 38.4232L41.2713 39.0781C40.9047 38.8172 40.6003 38.2467 40.3348 37.8064C40.0609 37.3527 39.8074 36.5354 39.5496 36.2267C38.4394 36.3305 37.2357 37.883 36.3323 38.4774C36.3039 38.4536 36.2644 38.3753 36.252 38.4L35.6707 37.5978L37.3083 36.7494C37.6588 36.6134 37.4131 36.7665 37.621 36.5917C36.7856 36.0419 36.1093 36.9178 35.5602 37.0397C35.2511 37.1086 35.1822 36.9764 34.6277 37.2607C34.2232 37.4686 33.8747 37.6122 33.4665 37.717L32.9904 36.8251C33.4535 36.6021 33.7424 36.6275 34.0126 36.4507C33.562 35.8792 32.7219 36.5425 32.3563 36.8448C32.0529 37.0953 31.9026 37.3712 31.5899 37.2094C30.7301 36.7655 31.6977 37.0762 31.7884 36.4846C30.9286 36.4675 30.1284 36.804 29.5662 37.4284L29.2846 36.8418C28.9066 36.8844 27.8958 37.1887 27.665 37.333L27.1283 37.8205C26.893 38.0218 26.7296 38.1627 26.465 38.2411C26.1316 37.8915 26.1918 37.9936 26.0777 37.5778C26.5936 37.111 26.9573 37.0836 27.4658 36.732C27.3289 36.6386 27.6105 36.2736 26.2999 37.0126C25.4732 37.4783 26.1526 37.0675 25.337 36.8897C24.9854 37.6106 25.8332 37.2952 24.9148 37.8061C24.4564 37.4954 24.5907 37.4689 24.3988 36.9888C23.7111 37.0634 23.4322 37.344 22.8135 37.5386C22.5972 37.117 22.7294 37.2134 22.4053 36.8903C21.7959 36.9168 21.3557 37.3929 20.8387 37.3544C20.0981 37.2995 20.8521 37.2647 20.2632 37.123C19.767 37.945 20.7232 37.5493 19.5584 38.2038C19.1539 37.9591 19.1161 37.7967 18.9443 37.3564C19.3441 37.2439 19.618 37.2734 19.9384 37.0162C19.1486 36.6392 18.1364 37.3828 17.5846 37.7361L17.7262 37.2663C16.6492 37.2275 17.3767 37.0102 16.7161 36.605C15.8268 36.06 16.6819 37.4431 16.7285 37.5897L15.9169 37.9808C15.3999 37.1059 15.7421 36.5869 14.6754 37.1977C13.9281 37.6249 13.8571 37.3564 13.4499 37.8003C13.2959 37.9677 13.5993 37.8626 13.0739 38.1214C12.7197 37.9068 12.799 37.9343 12.5787 37.5402C12.9775 37.2228 13.2648 37.2405 13.5718 37.0128C13.1777 36.7229 12.6845 37.0751 11.9496 37.0279C11.8023 37.7016 11.3817 37.9587 10.8186 37.9992C10.5239 37.6949 10.5728 37.8489 10.4058 37.4153C10.7808 37.1357 11.1457 37.0647 11.6748 36.7831C11.0302 36.2397 10.0676 37.1176 9.52418 37.5506C9.31257 37.7196 9.04973 37.885 8.84483 37.9955C8.64628 37.8084 8.60308 37.5573 8.30141 37.4391C8.25789 37.9162 8.37608 38.1345 8.30141 38.3679C8.1407 38.8647 7.9753 38.2698 7.99439 39.1085C8.47251 38.9156 8.24651 38.8882 8.69818 38.7408C8.88802 38.9571 8.99951 39.0593 9.15923 39.4031C8.04631 39.4815 6.83191 39.6412 6.18365 39.1035C6.30553 38.5035 6.27808 38.8758 6.72975 38.4459C7.24671 38.7917 7.23432 39.0931 7.88621 39.1754C7.65953 38.6511 7.5112 38.7455 7.29089 38.1398C7.73687 37.432 8.85749 36.8708 9.63998 36.5582L10.1529 36.3077C10.0585 36.2377 10.015 35.8892 9.14107 36.3154C8.54676 36.6064 8.16136 37.0155 7.61896 37.3454C7.17398 37.6155 7.12208 37.42 6.56056 37.4351C6.57931 38.3193 6.55687 38.0247 6.05698 38.5688C6.02585 38.5481 5.98801 38.4657 5.97562 38.4915C5.96323 38.5159 5.91335 38.4302 5.89727 38.4141C5.71413 38.2364 5.80453 38.0817 5.42116 38.073L5.40777 38.7496C5.44928 39.207 5.41915 39.1132 5.38801 39.6178C4.69158 39.5602 3.9433 39.2003 3.52844 38.6757C4.01125 37.2818 4.10768 37.7375 4.90124 36.8757C5.22233 36.5271 5.3566 36.2927 5.6941 35.978C6.59375 35.1416 7.42878 34.3942 8.21333 33.422C8.55149 33.0024 8.61779 32.8069 8.9814 32.4988L11.4437 30.0261C12.0836 29.3495 15.862 25.0628 16.4055 24.8056C16.3639 24.5163 16.0077 25.0654 16.98 24.885C17.6359 24.7631 17.1739 24.8358 17.5402 24.5676C18.1998 24.0817 17.048 24.6744 17.7196 24.439L18.021 25.0266C17.7036 25.8469 17.7052 24.9027 17.5268 25.9055C18.0444 25.792 17.9443 25.7592 18.3461 25.5633C18.4643 25.9745 18.4442 25.9243 18.5209 26.3532C19.5933 26.4145 18.9367 25.8108 19.5658 27.1186L20.0326 27.4162C20.1762 27.3188 20.1176 26.9485 20.4029 27.4229C20.6326 27.8026 20.4578 28.0106 20.4273 28.402C21.3712 28.5419 20.7862 28.4673 21.3902 28.0809C21.6708 28.4211 21.5998 28.5439 21.9902 28.7961L22.5845 29.0579C22.848 28.2831 22.6856 28.4361 22.5166 27.736L23.2043 27.3289C23.3764 27.6908 23.6616 28.0912 23.7845 28.4117C24.0946 29.2243 23.5719 29.2471 24.6216 29.4276C24.4448 28.337 24.4203 28.841 24.7398 27.8101C25.5976 28.2902 25.1452 28.7586 26.0228 28.9535C25.9632 28.466 25.6391 28.1854 25.3756 27.8094C24.869 27.0855 25.093 27.3323 25.3237 26.5658C25.7442 26.8682 26.209 27.6523 26.8883 27.6835C27.0065 27.3282 26.7561 27.3925 27.029 26.8273C27.5258 27.0948 27.6082 27.434 28.1278 27.5425C28.0672 26.76 26.5509 26.522 27.4512 25.2115C27.8888 25.6227 28.1031 26.2357 28.8175 26.1433C28.5396 25.4562 27.5352 25.088 27.8659 24.3366C28.6548 24.6313 28.4053 25.5122 29.3927 25.4542C29.2895 25.1121 28.479 24.0765 28.1558 23.7356C27.7684 23.8243 27.7534 23.9047 27.3753 23.9803L27.3758 23.9809ZM42.6364 23.395C42.8008 23.0029 42.9652 22.7156 43.1701 22.4237C43.3147 22.2188 43.6238 21.9596 43.7607 21.7339L43.604 24.7215L43.002 23.9062C43.1202 23.5359 43.3184 23.414 43.5039 22.9406C42.853 22.8528 43.3583 22.7497 42.6364 23.3949L42.6364 23.395ZM28.7824 22.7789L28.9592 22.795C29.0686 23.2654 28.7834 22.8867 28.7824 22.7789ZM16.8784 23.0879C16.5884 22.9339 16.6129 23.175 16.5325 22.5927C17.0133 22.8924 16.7736 22.5265 16.8784 23.0879ZM16.1726 22.9443C16.339 23.4084 16.3614 23.2098 16.0262 23.4328C15.9158 23.2751 15.7219 22.9453 15.6342 22.7337C15.434 22.2489 15.4329 22.5013 15.7504 22.2743C15.9375 22.4585 16.0765 22.6731 16.1726 22.9443H16.1726ZM29.4497 22.587C29.2485 22.1665 29.5622 22.1223 29.9051 21.9161L29.4497 22.587ZM45.39 20.2483L45.323 22.7786C45.0337 22.9571 44.9366 22.946 44.6561 23.153L44.4341 20.9468L45.3903 20.2487L45.39 20.2483ZM31.1374 21.5297C31.0145 21.8029 31.1602 21.526 30.974 21.7952L30.6151 21.1574C30.9004 20.855 30.8645 20.9106 31.2586 20.7887C31.269 21.1155 31.2452 21.2886 31.1378 21.5293L31.1374 21.5297ZM12.1363 20.2938C12.0871 20.1927 11.8292 19.9122 11.7027 19.6918C12.0797 19.8288 11.78 19.5 12.0626 19.9818C12.1704 20.1643 12.1232 20.1492 12.1363 20.2935L12.1363 20.2938ZM43.1537 19.9604C43.2408 19.5596 43.5873 19.1089 43.9369 18.8786C43.7185 21.6395 44.0286 20.5915 43.0205 21.9947L42.2333 22.9386C42.4128 22.2639 42.9003 21.3947 43.3671 20.8165C43.3851 20.7937 43.4143 20.7616 43.4313 20.7381L43.5402 20.5567C43.9882 19.8281 43.3068 20.7552 43.6818 20.3099L43.1534 19.9603L43.1537 19.9604ZM44.4491 20.3026C44.346 18.8776 44.195 17.5058 45.3581 17.0428L45.3789 18.2692L44.7959 18.5592C44.4474 18.8133 44.5636 18.7169 44.4755 19.1763L45.3544 18.8702C45.4207 20.1476 45.3819 19.574 44.4491 20.3026L44.4491 20.3026ZM42.7938 19.4344C42.6247 18.8106 43.0158 18.3723 43.4296 17.7874L43.8341 18.2692C43.805 18.2919 43.7641 18.3201 43.7464 18.3371C42.9478 19.06 43.5328 19.0346 42.7938 19.434L42.7938 19.4344ZM33.9361 18.157C34.4273 17.9351 34.5341 17.6685 35.0625 17.3766C34.6155 18.4641 34.5656 17.6136 34.4758 19.7917C34.3094 19.6018 34.1035 19.3182 34.0885 18.9677C34.061 18.363 34.4842 18.6436 33.9364 18.1571L33.9361 18.157ZM42.2955 18.6399C42.2436 18.2545 42.7472 17.3257 42.9561 17.1261C43.0542 17.2915 43.2454 16.8908 42.9977 17.5835L42.2955 18.6399ZM3.19782 16.8513C3.33777 17.2159 3.40575 17.0401 3.20251 17.3756C3.05887 17.2102 3.12784 17.6063 3.08632 17.1308C3.0371 16.563 3.06456 17.0722 3.19782 16.8513H3.19782ZM9.13825 17.6769C8.79807 17.4094 8.91258 17.4198 8.72709 16.9634C9.23367 17.2413 9.41883 17.178 9.13825 17.6769ZM36.5248 16.3531L36.0487 17.2413C35.9513 17.0655 35.9081 16.9748 35.7832 16.7689L36.5248 16.3531ZM3.58739 16.3728C3.99286 15.7038 4.08829 16.2707 4.08996 16.2707C4.08996 16.337 4.1827 16.4371 3.92556 16.6032C3.36239 16.9661 3.6788 16.6504 3.575 16.6126C3.53817 16.4917 3.32288 16.8091 3.58739 16.3725L3.58739 16.3728ZM3.03192 15.3931C3.2663 15.5284 3.14073 15.444 3.33627 15.5917C3.35904 15.6087 3.51105 15.755 3.55558 15.7959L3.08784 16.2352L3.03192 15.3934L3.03192 15.3931ZM3.96269 14.4472L4.37753 14.8865L3.90878 15.3834C2.98469 14.758 3.4494 15.1775 3.06771 15.0272L3.96239 14.4469L3.96269 14.4472ZM37.981 15.3091C38.1832 14.9123 38.2428 14.7232 38.6084 14.6421L38.2381 15.8023C37.9405 15.3526 38.1768 15.8174 37.981 15.3091V15.3091ZM44.5337 16.8945C44.5736 16.6621 44.7209 16.1622 44.7484 15.9827C44.8806 15.1306 43.9706 13.8964 45.422 14.0127L45.3671 16.4884C44.8766 16.6444 44.9714 16.6538 44.5337 16.8945V16.8945ZM4.11346 13.8379C5.99386 12.9432 6.28675 15.5301 7.32509 16.2623C7.52264 16.4023 7.28926 16.2821 7.46504 16.3303C8.11426 16.5108 6.92833 16.2945 7.67297 16.3132C7.92442 16.3189 7.4925 16.0979 7.85913 16.333L8.7059 18.0413C8.7588 18.2398 8.56795 18.5921 9.09999 18.5525C9.49508 18.5234 9.21148 18.5432 9.40903 18.2047C9.54698 17.9683 9.28146 18.1755 9.54698 18.0091C10.4995 18.8368 9.58749 19.0203 9.83526 19.2594C10.386 19.7941 9.57544 18.5763 10.8263 19.6742L11.072 19.866C11.0965 19.8831 11.1327 19.9039 11.1571 19.921C12.1786 20.6351 11.5425 20.8819 12.6046 20.6931L12.9816 21.4585C13.6013 21.348 12.9266 21.4528 13.3425 21.2723L13.537 21.21C13.6361 21.8043 13.4473 21.1173 13.3689 21.9188C14.1836 21.8867 13.7781 21.5606 14.4813 23.0593C15.0946 22.9612 14.6088 22.9628 15.1861 22.8145C16.1574 24.436 15.4703 24.4417 14.1836 25.7237C13.8304 26.0753 13.6422 26.3331 13.287 26.6592C12.908 27.0061 12.7606 27.0751 12.3866 27.4501C10.8729 28.9695 9.4774 30.2733 8.08652 31.8891C7.74633 32.2842 7.67937 32.4191 7.25783 32.7526C6.2818 33.5254 3.60392 37.2228 3.13352 37.3731C3.10974 36.2498 3.40104 30.7705 3.28285 29.9927C3.22057 29.5846 3.05785 29.5665 2.97682 29.0857C2.86164 28.3969 3.07694 27.6493 3.03809 26.8682C2.97582 25.6511 2.8074 20.8548 3.18274 20.2862C3.59188 20.601 3.77705 20.9977 4.34862 20.6653C4.09349 20.1202 4.00643 20.4573 3.74092 19.8999C3.54171 19.4823 3.88825 19.8393 3.59159 19.5473C3.44896 19.4073 3.25141 19.397 3.02574 19.3062C3.12016 19.0199 3.10141 19.1211 3.18177 18.964C3.6994 17.9539 3.02875 19.396 3.34984 18.657C3.92339 18.9245 3.44326 18.9235 4.18891 19.0159C4.05867 18.2639 4.01882 18.7323 3.80621 18.1447L4.43534 17.6582C4.46179 17.6448 4.51369 17.6224 4.53444 17.611C4.55721 17.6006 4.60542 17.5866 4.63556 17.5648C4.13299 17.1188 4.29639 17.529 4.0754 17.0006C4.71993 16.2815 4.29571 16.8419 4.86357 16.5784C4.73868 16.1211 4.52339 16.0474 4.23611 15.7327C4.51971 15.3152 4.83143 15.0751 5.05709 14.6043C3.73418 14.0572 4.41826 14.4145 4.11424 13.8379L4.11346 13.8379ZM3.04872 14.5163C3.07316 13.7519 2.88131 13.044 3.35475 12.5649L3.84693 13.5202C3.02193 14.225 3.96312 13.9973 3.04839 14.5159L3.04872 14.5163ZM4.42152 13.2841C4.06059 13.2613 4.23067 13.5098 4.03212 12.9325C4.4791 13.1167 4.32408 12.9392 4.42152 13.2841ZM45.0638 12.2542C45.2915 12.5803 45.3879 12.9091 45.2945 13.421L44.8723 13.576L44.4933 12.7718L45.0641 12.2541L45.0638 12.2542ZM44.0962 11.5085C44.3597 11.3649 44.5951 11.2554 44.9881 11.1824C44.9798 11.9505 44.82 11.9287 44.3654 12.2133C44.1263 11.8969 44.1839 12.0194 44.0962 11.5085L44.0962 11.5085ZM42.2158 13.7157C42.5617 13.1836 42.265 12.9663 42.9906 12.4042L43.2561 12.1982L42.5285 11.3478C42.6711 11.243 42.7023 11.2021 42.8469 11.0937C43.0414 10.9463 42.8971 11.0341 43.1416 10.8857C44.2954 13.0343 43.7965 13.3878 43.8718 15.5129C43.9143 16.6912 44.0486 16.6922 43.3786 16.796C43.0686 16.3688 43.4134 16.1394 43.5487 15.5826C43.0404 15.7547 43.2577 15.9503 42.8382 16.1307C42.3477 15.287 42.7505 15.2123 41.9489 15.151C41.7882 15.7018 42.2419 16.1943 42.6802 16.5314C42.0517 18.7369 42.1056 17.8082 41.3925 18.082C41.5947 18.5913 41.8981 18.6743 42.0179 19.044C42.1134 19.3406 41.9567 19.7488 41.9443 20.2393C42.4847 20.0012 42.1435 20.1713 42.5037 19.7046C42.552 20.4415 41.8934 20.5409 41.8271 21.2457C41.7477 22.1008 41.7826 21.5879 41.9687 21.8343C42.3477 21.2966 42.3571 20.7167 42.9628 20.3651C42.8476 20.8499 42.4345 21.6501 42.1372 22.0998C41.9697 22.3529 41.6704 22.6385 41.6081 22.8501C41.4297 23.4481 41.7139 23.4066 41.802 23.5144C41.8181 23.5325 41.8736 23.6125 41.886 23.5881C41.8984 23.5636 41.9483 23.6326 41.9748 23.6597C41.1772 24.4904 41.813 25.2019 41.5251 26.1618L41.6641 26.1759C41.6744 26.1759 41.719 26.1769 41.7293 26.1769C42.626 26.1795 41.3503 25.8179 41.9446 26.1618C41.425 26.8412 41.0044 27.3437 40.9449 28.2755C40.9686 28.2839 41.0091 28.2792 41.0205 28.2782C41.3721 28.2735 41.1206 28.1175 41.5318 28.2507C41.6942 28.7155 41.5696 29.1152 41.4193 29.7068C41.8964 29.6057 41.717 29.5746 42.0012 29.2656C42.0183 29.2468 42.0645 29.2314 42.0769 29.1795C42.0893 29.1276 42.1231 29.1172 42.1536 29.0935C42.3511 29.5783 42.2687 29.7152 41.9373 30.2131C41.566 30.7695 41.6594 30.5117 41.1049 30.8121C41.2201 31.3146 41.5971 31.7646 41.9818 32.0422C41.9781 33.4047 42.028 33.1941 41.0038 33.6306C41.0453 34.2872 41.1899 34.2855 41.0747 34.8798C40.9793 35.372 40.9736 34.9923 41.053 35.5327C41.0597 35.5752 41.0727 35.6094 41.0804 35.6519C41.0871 35.6954 41.0992 35.7313 41.1059 35.7738L41.1437 36.3021C40.3934 35.895 38.9647 33.6506 38.2827 32.9505C38.0426 32.7038 37.8491 32.5159 37.5484 32.1285C37.0947 31.5446 37.3726 31.8101 36.7281 31.399C35.9295 30.8897 35.2739 29.7483 34.5796 29.0425L32.4311 26.5331C31.8026 25.8594 31.5826 25.5353 31.0298 24.8399L29.7042 23.1825L30.392 22.0997C30.6555 22.5872 30.9267 23.0975 31.4353 23.3081C31.665 23.4035 31.523 23.3402 31.677 23.3589C31.6884 23.36 31.7413 23.373 31.7497 23.3496C31.758 23.3251 31.7989 23.3429 31.8213 23.3335C31.9234 23.0338 31.5049 22.7827 31.2347 22.5256L31.6787 21.5476C32.3393 22.0304 32.0266 22.2751 32.8532 22.5199C32.6379 21.7207 32.3373 21.6922 31.9622 21.0875C32.207 20.5622 32.2676 20.823 32.3761 20.2418C31.6287 20.2019 31.9803 20.4762 31.5815 20.2418C31.8159 19.8015 31.987 19.758 32.5539 19.4519C32.8033 20.4564 32.6125 20.2729 32.7287 21.1689C33.2814 21.118 32.8967 21.2322 33.2296 20.8364C33.6122 21.1331 33.6407 21.2456 34.0355 21.0708C33.8202 20.5625 32.7805 20.0078 33.6528 19.3096C34.0479 19.8557 34.0599 20.3292 34.6392 20.4868C34.8451 20.0211 34.9378 19.6742 34.832 19.1565C35.207 19.4174 35.2827 19.7746 35.7059 19.8982C35.9573 18.9335 34.3067 18.8719 35.6717 17.55L35.7002 19.0383C35.9543 18.9957 35.7826 19.0363 35.9798 18.892L36.1894 18.6887C36.3527 18.8625 36.7884 19.4655 36.8017 18.8692C36.8074 18.6218 36.4833 18.4356 36.2416 17.9725L36.6005 17.2895C37.1315 17.7318 37.0294 18.0274 37.7787 18.1503C37.6123 17.6079 37.3063 17.4747 37.003 16.8596C37.1171 16.5328 37.2316 16.4504 37.3167 16.1849C37.4007 15.9231 37.3016 15.7804 37.4583 15.5886C37.8685 16.1538 38.2917 17.0833 38.8709 17.2734C39.0343 16.7159 38.8843 17.0219 38.7858 16.5354C38.7085 16.146 38.748 15.8758 38.7604 15.4553C39.267 15.7301 39.3386 16.3463 40.104 16.3C39.9624 15.5922 39.4605 15.8192 39.2764 15.1934C39.0685 14.4923 39.4438 15.2651 39.3075 14.634C39.2027 14.1481 39.2717 14.7729 39.0544 14.2352L39.5144 13.7099L39.8452 14.4659C39.9038 14.6246 39.9842 14.8703 40.091 15.0726C40.6977 15.24 40.4529 15.3448 40.8715 15.168C41.0473 14.4866 40.0304 14.8968 40.7004 13.8498C41.0161 14.1495 41.1417 14.4525 41.5612 14.5857C41.5923 13.9546 41.3258 13.8846 41.0037 13.4765C41.1852 13.0684 41.2127 13.2395 41.4149 12.7717L40.8876 12.6753C41.5991 12.2765 41.7966 11.9524 42.4097 11.5784C42.489 12.0876 42.5185 11.8958 42.4823 12.2909C42.0317 12.5356 42.2158 12.4355 41.6858 12.324L41.6613 14.1799L42.1602 13.7915C42.1763 13.7718 42.2027 13.7376 42.2161 13.7159L42.2158 13.7157ZM22.5161 27.0777C20.8142 25.1776 20.8691 25.3711 19.1976 23.9812C18.6355 23.5145 18.4125 23.624 17.8634 23.0591L13.0125 19.1698C11.0906 17.9672 12.0619 18.4593 11.2379 17.8469L5.90326 13.3144C5.55069 12.996 5.36855 12.6086 4.87906 12.2239C4.40094 11.8496 3.95292 11.6607 3.80661 11.0685C4.16754 10.8388 4.88172 10.4373 5.31363 10.2341C7.28841 9.30795 7.39418 9.69536 9.54775 9.65385C11.7569 9.61133 14.6096 9.34313 16.7374 9.38063C17.4877 9.39403 19.0071 9.69804 19.4927 9.57149C20.1757 9.39303 19.503 9.37127 21.1537 9.29459L28.5777 9.33242C29.4724 9.34179 30.2304 9.18509 31.1147 9.18878C34.4331 9.20016 37.3423 9.40139 40.7035 9.26713C40.815 9.48911 40.8046 9.56378 40.9576 9.69034C40.9804 9.70909 41.0162 9.73086 41.0417 9.74793C41.6199 10.1296 40.6098 9.53264 41.2362 9.83867C41.6946 10.0637 41.9628 10.1608 42.3749 10.658C41.4763 11.3544 39.4185 12.7348 38.5171 13.5475L25.192 25.0281C24.7242 25.4325 24.453 25.7613 24.0204 26.125L22.516 27.0775L22.5161 27.0777ZM41.5438 8.9671C42.7438 8.18562 43.7586 9.66721 44.0117 10.3231C44.2565 10.9552 44.2471 10.8153 43.8011 11.1273C43.6652 11.0225 43.698 11.0557 43.5537 10.91C42.5097 9.85635 43.0746 10.5066 42.3189 10.0295C42.4937 9.47302 42.9698 9.71208 42.8262 9.27179C42.7127 9.12046 42.9169 8.7766 41.9928 9.61666C41.6583 9.38797 41.6376 9.42113 41.5441 8.96744L41.5438 8.9671ZM22.7758 8.82145C22.9656 8.59378 23.4967 8.09388 23.7216 8.68552C23.4183 8.93295 23.2813 8.83116 22.7758 8.82145ZM19.8732 8.37547C19.7493 8.83183 19.6579 9.02268 19.1467 8.77893L19.8732 8.37547ZM39.9047 8.90851C40.5094 8.60885 41.1264 7.70748 41.8151 8.40293C40.8834 8.92458 40.6603 9.12581 39.9047 8.90851ZM37.5586 8.90382C37.7779 8.60416 37.5549 8.83485 37.8797 8.54087C38.7006 7.79623 39.1958 7.98071 40.3051 8.00416L39.2903 8.93767L37.5582 8.90352L37.5586 8.90382ZM36.1979 8.40293C36.3623 8.30081 36.5457 8.19131 36.7148 8.0825C36.9633 7.92279 36.9566 7.64321 37.9413 7.9171C37.8968 8.14377 37.4849 8.43875 37.1598 8.67212C36.8056 8.92726 36.3037 8.87436 35.6839 8.87636L36.1979 8.40293ZM11.543 9.10873C11.8624 8.75147 13.9279 7.84342 14.2832 7.98039C13.7853 8.26398 14.0783 7.95126 13.7013 8.32525C13.4699 8.55494 13.5218 8.61152 13.2101 8.81275C12.747 9.11041 12.2662 9.14356 11.5434 9.1084L11.543 9.10873ZM10.6841 9.11074C10.9969 8.81308 11.32 8.64199 11.6679 8.418C12.215 8.06543 11.9532 7.94288 12.6998 8.06643C12.5203 8.07681 12.4343 8.11733 12.2254 8.2392C11.9598 8.39322 11.9635 8.38082 11.6632 8.53886C10.7079 9.03875 11.7757 9.11041 10.6842 9.11041L10.6841 9.11074ZM7.57169 9.20617C8.3391 8.64969 10.6661 8.0042 11.6622 8.00882C10.6644 9.17565 9.08549 9.30422 7.57169 9.20617ZM33.5585 8.87838C33.8733 8.28608 34.2674 8.21409 34.7207 7.92309C35.2377 7.59061 35.5096 7.78514 36.2573 7.80959C35.7102 8.35769 35.6609 8.10825 35.3576 8.577L35.2016 8.92957L33.5583 8.87867L33.5585 8.87838ZM31.7689 8.85293C32.2812 8.01956 32.6703 8.44378 33.2297 7.71156L34.1669 7.7514C33.8361 8.01692 33.5954 8.185 33.138 8.31726L33.0878 8.86134L31.7686 8.85297L31.7689 8.85293ZM29.3783 8.84255C29.6193 8.41164 30.1805 7.95155 30.6181 7.76238C31.1066 7.55178 32.1884 7.62243 32.5571 7.71149C32.2433 7.96561 31.858 8.25558 31.3068 8.31986L31.2549 8.81875L29.3783 8.84255ZM26.399 8.74914C27.7229 8.45249 27.4752 7.46677 29.8139 7.7504C29.5711 7.93924 29.4727 8.0745 29.021 8.18968L28.9992 8.7763C27.7302 8.75922 26.0816 8.99661 24.2484 8.92563C24.7975 8.4023 25.6752 7.98646 26.6163 7.78623L26.399 8.74914ZM26.9207 8.0651C26.9973 7.61812 26.6126 7.71086 27.448 7.76074L26.9207 8.0651ZM15.6184 8.82849C17.7917 7.3884 16.652 8.52715 17.2352 7.55752C19.5077 7.65863 23.9156 7.49892 25.7223 7.72292L24.1265 8.47694L24.083 8.00451C23.0059 8.0025 22.7243 8.38922 21.9512 8.6641L21.6686 8.1247C20.9789 8.31187 20.7897 8.60651 20.0963 8.66879L20.4572 7.92415C18.9435 7.75506 19.142 9.23661 17.3534 8.92564C17.6454 8.7301 17.6531 8.78869 17.9534 8.64037C18.4212 8.40968 18.3267 8.63836 18.3652 8.18401L16.2874 8.84528C15.8424 8.96046 16.056 9.10611 15.6184 8.8282L15.6184 8.82849ZM13.5944 9.0277C13.7993 8.69221 13.5073 8.97179 13.89 8.66007C14.5363 8.13373 15.7921 7.68875 16.6272 7.73795C15.7109 8.35671 15.381 8.6875 14.9019 8.49666L14.6203 9.03137L13.5941 9.02769L13.5944 9.0277ZM2.3564 29.3137C3.27851 30.0979 2.6795 31.4803 2.61823 32.3609C2.58809 32.7918 2.65506 33.1943 2.5824 33.5987C2.47559 34.192 2.41901 33.5853 2.41432 34.3819L2.39725 37.6578C3.57848 40.9347 6.84873 39.8161 9.68699 39.6875C12.5574 39.5579 16.2596 39.9718 19.2733 39.9567C22.5626 39.9406 25.8448 40.0096 29.1416 39.953C32.2889 39.8991 35.7188 40.0267 38.8684 40.1817C41.5858 40.315 44.3819 38.1437 44.5858 36.0216L44.8798 34.161C45.0422 33.4475 44.9411 32.5555 45.0291 31.7911C45.1168 31.022 45.2237 30.4097 45.3295 29.6748C45.4296 28.9813 45.371 28.3188 45.4333 27.5449C45.5598 25.9602 45.7771 24.4843 45.8876 23.0502C45.9395 22.389 45.7875 21.6309 45.8103 20.8069C45.8347 19.9092 45.7754 19.2648 45.898 18.405C46.0681 17.2134 45.9747 14.7748 45.9338 13.4707C45.8742 11.5716 44.682 9.84699 43.4317 8.62925C42.8826 8.09454 42.517 8.00012 41.7131 7.8307C41.0307 7.68606 40.3373 7.43494 39.7165 7.38003C38.989 7.31574 37.9242 7.32244 37.1759 7.32244C34.0389 7.32445 30.7138 7.1259 27.7344 7.24108C26.4712 7.2903 24.0882 7.31574 22.8758 7.17981C21.2214 6.99364 15.2221 7.05224 13.6187 7.40481C11.6854 7.82902 10.3937 6.75559 5.63455 9.28418C4.29389 9.99668 3.65412 10.299 2.99549 11.7247C2.98143 11.7569 2.96235 11.7917 2.94728 11.8228C1.63114 14.6196 2.87931 27.8591 2.35666 29.3137L2.3564 29.3137Z" fill="#F8F8F8"/>
<path fill-rule="evenodd" clip-rule="evenodd" d="M28.2455 38.9775C28.6526 39.1741 28.594 39.0843 28.8133 39.5169L27.9147 39.5568L28.2455 38.9775ZM26.4662 39.1202L26.7384 39.4064C26.6041 39.5076 26.7799 39.5226 26.4615 39.5464C26.1836 39.5672 26.3473 39.5491 26.1136 39.4925L26.4662 39.1202ZM23.7873 39.2996C23.7421 39.8183 23.9507 39.463 23.4689 39.6237C23.4906 39.5832 23.5191 39.4717 23.5342 39.5039L23.7873 39.2996ZM40.2813 38.6307C40.6677 38.9575 40.5666 39.016 40.7962 39.3723C39.4158 39.911 39.1155 39.1456 40.2813 38.6307ZM24.0813 39.1239C24.1549 38.9216 23.9661 38.847 24.7955 38.4549C25.0174 38.696 24.9816 38.7288 25.1932 38.9886C25.4219 39.2712 25.439 39.2032 25.66 39.5698L24.3521 39.6087L24.0809 39.1239L24.0813 39.1239ZM15.7523 38.6862L16.4212 39.5186C15.8289 39.5253 14.2687 39.5186 15.7523 38.6862ZM35.3474 38.0096C35.5912 38.2617 36.534 39.4024 36.7051 39.6385C35.8209 39.6847 34.8201 39.683 33.9291 39.6726C32.5352 39.6546 32.4635 38.9762 33.3736 38.4405C33.9388 38.8004 33.9462 39.2531 34.7474 39.5233C34.7785 38.706 34.4544 38.5738 35.3474 38.0096L35.3474 38.0096ZM31.4005 38.2336C31.8693 38.8185 32.1452 38.776 31.9325 39.5528C29.9738 39.7624 30.2574 38.8072 31.4005 38.2336ZM21.6385 38.8165C21.9228 38.6283 22.2111 38.3752 22.6601 38.2242C23.0729 38.4653 23.0344 38.5255 23.3612 38.7997C22.937 39.8534 22.1006 40.0159 21.6385 38.8168L21.6385 38.8165ZM19.6808 38.5131L20.4047 38.1485L20.9809 38.8242L20.2637 39.5434C19.9681 39.2939 19.7732 38.9558 19.6808 38.5134V38.5131ZM28.7734 38.6086L29.2525 38.2249C29.6041 38.6397 29.966 39.0867 30.205 39.5581L29.2846 39.5488L28.7734 38.6086ZM27.3125 39.5307L26.7504 38.7295C27.0216 38.3327 27.2576 38.1097 27.7879 37.9366L28.0732 38.5744C27.8767 38.9183 27.5696 39.2926 27.3125 39.5307L27.3125 39.5307ZM14.6954 39.4902L11.9759 39.4222L12.7762 38.7968C13.4669 39.0649 13.0765 39.153 13.8553 39.2976C13.7334 38.9046 12.9463 38.1194 13.7344 38.2771C14.0321 38.3367 14.5387 39.1889 14.6954 39.4905L14.6954 39.4902ZM11.2447 38.4244C11.5236 38.0598 11.6274 38.0333 12.0865 37.8622C12.4775 38.258 12.3161 37.9814 12.5344 38.4244L11.8049 39.0063C11.5772 38.787 11.4222 38.6464 11.2447 38.4244ZM25.199 38.1418L25.4977 37.9178C25.713 38.0879 25.9353 38.3337 26.1298 38.5915L25.8238 39.0773C25.3815 38.6039 25.4752 38.5171 25.1993 38.1418L25.199 38.1418ZM17.705 38.1097L18.4118 37.7243L19.0165 38.5426C18.7121 38.8533 18.4948 38.9015 18.5052 39.3354C18.8293 39.2956 19.0222 39.1238 19.2763 38.9765C19.5656 39.2504 19.5351 39.1814 19.7146 39.5651C19.1213 39.5839 18.5919 39.5671 18.0023 39.5377C17.0715 39.4931 17.2757 39.6927 16.7464 39.1295L17.3029 38.5777C17.7204 38.8546 17.4636 38.8546 18.0124 38.9688C17.9765 38.7174 17.8101 38.249 17.7043 38.11L17.705 38.1097ZM10.2686 38.8503C11.254 38.7368 10.9007 38.6943 11.4857 39.3616C10.348 39.4061 9.3398 39.4731 9.03071 38.4244L9.8614 37.7725C10.519 38.3537 10.38 38.0882 10.2685 38.8506L10.2686 38.8503ZM38.9872 38.7549C38.8171 38.2379 38.7746 38.1927 39.2242 37.9205C39.7552 37.5984 39.7968 37.7514 39.9896 38.1415L39.8594 38.2928C39.5627 38.5603 39.4218 38.6698 38.9872 38.7549L38.9872 38.7549ZM37.8645 38.786C38.9728 38.4458 38.4779 38.7632 39.0086 39.6997L37.3191 39.7168L36.7211 38.8466C37.1018 38.4452 37.4326 38.0464 37.8615 37.7374C38.1043 38.2544 37.9238 38.1663 37.8642 38.786L37.8645 38.786ZM16.3133 38.6886C16.095 38.113 16.3984 38.0933 17.0342 37.8676C16.9559 38.3002 16.676 38.5044 16.3133 38.6886ZM31.7479 37.8676L31.8972 37.6777C31.9049 37.67 32.1089 37.4718 32.1279 37.4558C32.3322 37.2894 32.3272 37.3074 32.5267 37.209L33.0869 37.9828L32.4075 38.7123L31.7479 37.8676ZM14.2056 37.9081C14.58 37.587 14.5458 37.6094 15.0768 37.5462L15.5 38.3039C15.1883 38.5248 15.1997 38.6156 14.7648 38.712L14.2053 37.9078L14.2056 37.9081ZM28.1462 37.7323L28.7104 37.3476L28.9997 37.8445L28.4609 38.3085L28.1462 37.7323ZM23.1149 37.8806L23.9077 37.431C24.2857 37.7266 24.3139 37.7363 24.4625 38.1716L23.82 38.6648C23.4015 38.4174 23.3221 38.2312 23.1152 37.8806H23.1149ZM33.8891 38.1415L34.3371 37.8288C34.5099 37.7551 34.684 37.725 34.8983 37.6841C34.2842 38.9946 34.0951 38.5259 33.8892 38.1415H33.8891ZM30.1304 38.5941L29.656 37.878C30.0859 37.4876 30.2975 37.2703 30.8352 37.0191L31.1044 37.8618C30.788 38.13 30.5801 38.3949 30.1301 38.5941L30.1304 38.5941ZM21.2864 38.5356C21.1541 38.3306 21.0323 38.1719 20.9379 37.8599C21.2931 37.5539 21.6182 37.363 22.1928 37.3148L22.3883 37.7183C22.1757 38.1207 21.7127 38.3635 21.2865 38.5356H21.2864ZM38.4661 37.8231C38.297 37.4705 38.1731 37.5177 38.4547 37.1768C38.6486 36.9415 38.9469 36.8765 39.2871 36.8517C39.4448 37.3185 39.6387 37.4906 38.4661 37.823V37.8231ZM42.118 35.4703C42.7407 35.9012 43.3454 36.7647 42.8171 37.877C42.2512 37.7183 41.8816 37.1769 41.4149 36.7486C41.6312 36.0201 41.7343 35.9635 42.118 35.4703H42.118ZM43.6628 36.913C43.3832 36.5189 43.3169 36.0429 44.0636 35.865C44.0522 36.379 44.1533 36.8457 43.6628 36.913ZM42.513 34.9995L42.9279 34.8191L42.9761 35.6317C42.8247 35.5259 42.8355 35.5882 42.7189 35.4274C42.6526 35.3357 42.5411 35.0391 42.513 34.9995ZM41.3897 35.5751C41.4463 35.1582 41.4343 35.2105 41.6894 34.958C41.9067 35.3257 41.595 35.3605 41.3897 35.5751ZM44.0864 35.4288L43.6176 35.3749C43.475 34.3155 44.0238 34.0406 44.3887 33.7855C44.3934 34.3316 44.3472 35.0129 44.0864 35.4288V35.4288ZM42.038 34.5596C42.4123 34.1685 42.5188 34.0483 43.0746 33.7433C42.9812 34.212 42.9943 34.1799 42.6276 34.4367C42.1381 34.7805 42.3253 34.7779 42.038 34.5596H42.038ZM41.7507 34.0088C41.9124 33.7556 41.9416 33.7443 42.1297 33.5099C42.4264 33.1406 42.3186 33.1838 42.6608 33.0619C42.6484 33.7158 42.8573 33.2548 42.3065 33.6883C41.9854 33.9415 42.0855 33.9301 41.7511 34.0088H41.7507ZM44.4607 33.1801L43.7898 33.4985L43.8323 32.2674C44.1621 32.4867 43.5366 32.2751 44.1015 32.3648C44.2461 32.3876 44.3483 32.3695 44.5863 32.397L44.4607 33.1801ZM43.2021 33.0488C43.0444 32.9099 42.9791 32.8305 42.8345 32.6594C43.4164 31.4377 42.6607 31.8639 43.3136 31.3044L43.2021 33.0485L43.2021 33.0488ZM42.3811 31.7457L42.0068 31.3771C42.0209 30.7262 42.3055 30.2963 42.6634 29.9883L43.0762 30.6686C42.9316 31.1591 42.6671 31.4009 42.3808 31.7457L42.3811 31.7457ZM44.1687 30.8132C44.7054 31.4859 44.6421 30.5296 44.6411 31.659L43.8597 32.0075C43.9209 30.8481 43.6196 30.8651 44.3197 30.2189C43.9748 29.6983 44.1315 30.2189 43.9936 29.6889C44.5578 29.9782 44.3639 29.7817 44.8855 29.549C44.6257 30.833 44.5179 29.7465 44.1684 30.8133L44.1687 30.8132ZM44.0977 29.426L44.1506 28.6995L44.8933 28.1182L44.9073 28.9687L44.0977 29.426ZM43.3645 30.3274L42.8977 29.5516C43.0544 28.9885 43.2058 28.7635 43.63 28.4019L43.3645 30.3274ZM42.7136 29.0025C42.4122 28.806 42.6332 29.0902 42.3215 28.6312C42.5087 28.3101 42.8525 27.8139 43.0631 27.5795C43.0641 27.5795 43.561 27.5614 43.1793 28.2013C42.9423 28.598 42.8806 28.5207 42.7136 29.0025V29.0025ZM42.1126 28.1173C41.9077 27.9348 41.7761 27.8263 41.5882 27.5682C41.7168 27.0994 41.9907 26.782 42.3459 26.4776C42.3687 26.4579 42.4139 26.4274 42.4481 26.403C42.6098 26.7629 42.6928 26.8319 42.8582 27.1486C42.6493 27.5229 42.4548 27.8082 42.1126 28.1173V28.1173ZM24.0689 26.7555L24.5423 27.4168L24.1984 28.1501L23.8214 27.3847C23.6597 26.8811 23.6212 26.932 24.0689 26.7555ZM26.0125 25.291C26.0416 25.3155 26.0882 25.3128 26.1012 25.3647L26.26 25.5167C26.7287 26.0658 26.651 26.3849 26.5228 26.9406C26.2044 26.8934 25.9995 26.6497 25.8565 26.336C25.6355 25.8521 25.8481 25.6281 26.0125 25.291L26.0125 25.291ZM42.6762 25.8796C42.7717 25.7095 42.9474 25.3486 43.1808 25.2662C43.7004 25.0811 43.7704 26.3424 43.2441 26.8235C42.769 26.4729 42.9324 26.3152 42.6762 25.8796V25.8796ZM24.5845 26.8028C24.5031 26.2744 24.8577 26.0196 25.2592 25.802C25.1222 26.0116 25.1611 26.043 25.0533 26.2821C24.7328 26.9963 25.0221 26.5664 24.5845 26.8028V26.8028ZM19.1534 25.0641C19.3961 25.1009 21.7972 26.6742 21.5165 27.2494C21.2105 26.9123 21.3702 26.8704 20.9638 26.7847C20.5744 26.7023 20.5613 26.9481 20.2864 26.4248C19.4022 24.74 19.5465 26.3407 19.1534 25.064L19.1534 25.0641ZM42.394 25.4561C42.1984 25.0631 42.48 24.6305 42.7673 24.3864C42.8343 24.4792 43.4051 24.7172 42.394 25.4561ZM44.5512 24.9251L44.5248 24.0304L45.259 23.3765C45.482 24.5785 45.1589 26.1877 45.0086 27.3981C44.5606 27.6693 44.6239 27.5983 44.2837 27.9462C44.265 26.9012 44.362 27.2149 44.9527 26.7254C44.7732 26.3032 44.6607 26.4428 44.415 26.3032L44.4508 25.5984C45.1224 25.2251 44.8723 25.5673 45.2567 25.0004L44.5509 24.9257L44.5512 24.9251ZM27.0501 24.1426C27.1191 24.8816 27.0236 24.8946 26.8043 25.5211C26.5482 25.1317 26.5254 25.1742 26.3557 24.7188L27.0501 24.1426ZM18.0544 24.222C18.8405 24.1718 18.2897 24.293 18.9707 24.6234L18.6192 24.7641C18.3925 24.8253 18.5191 24.7858 18.3671 24.8029L18.0543 24.2216L18.0544 24.222ZM27.3758 23.9809C27.4836 23.5162 28.0458 23.2373 28.469 22.9822C28.7138 23.548 28.6468 23.2393 28.8885 23.5848C29.2381 24.0827 29.001 23.8892 29.1872 24.5769C30.0661 24.7356 29.5528 23.9484 30.1046 24.7527C30.3483 25.1099 30.4203 25.4508 30.7508 25.8174L32.3128 27.6382C32.7417 28.207 33.3587 28.8569 33.9136 29.4248C34.9776 30.5143 36.0886 31.9165 37.2527 32.9937C38.5103 34.1589 39.3048 35.39 40.4898 36.522C40.9244 36.9369 41.9496 38.028 42.1757 38.4232L41.2713 39.0781C40.9047 38.8172 40.6003 38.2467 40.3348 37.8064C40.0609 37.3527 39.8074 36.5354 39.5496 36.2267C38.4394 36.3305 37.2357 37.883 36.3323 38.4774C36.3039 38.4536 36.2644 38.3753 36.252 38.4L35.6707 37.5978L37.3083 36.7494C37.6588 36.6134 37.4131 36.7665 37.621 36.5917C36.7856 36.0419 36.1093 36.9178 35.5602 37.0397C35.2511 37.1086 35.1822 36.9764 34.6277 37.2607C34.2232 37.4686 33.8747 37.6122 33.4665 37.717L32.9904 36.8251C33.4535 36.6021 33.7424 36.6275 34.0126 36.4507C33.562 35.8792 32.7219 36.5425 32.3563 36.8448C32.0529 37.0953 31.9026 37.3712 31.5899 37.2094C30.7301 36.7655 31.6977 37.0762 31.7884 36.4846C30.9286 36.4675 30.1284 36.804 29.5662 37.4284L29.2846 36.8418C28.9066 36.8844 27.8958 37.1887 27.665 37.333L27.1283 37.8205C26.893 38.0218 26.7296 38.1627 26.465 38.2411C26.1316 37.8915 26.1918 37.9936 26.0777 37.5778C26.5936 37.111 26.9573 37.0836 27.4658 36.732C27.3289 36.6386 27.6105 36.2736 26.2999 37.0126C25.4732 37.4783 26.1526 37.0675 25.337 36.8897C24.9854 37.6106 25.8332 37.2952 24.9148 37.8061C24.4564 37.4954 24.5907 37.4689 24.3988 36.9888C23.7111 37.0634 23.4322 37.344 22.8135 37.5386C22.5972 37.117 22.7294 37.2134 22.4053 36.8903C21.7959 36.9168 21.3557 37.3929 20.8387 37.3544C20.0981 37.2995 20.8521 37.2647 20.2632 37.123C19.767 37.945 20.7232 37.5493 19.5584 38.2038C19.1539 37.9591 19.1161 37.7967 18.9443 37.3564C19.3441 37.2439 19.618 37.2734 19.9384 37.0162C19.1486 36.6392 18.1364 37.3828 17.5846 37.7361L17.7262 37.2663C16.6492 37.2275 17.3767 37.0102 16.7161 36.605C15.8268 36.06 16.6819 37.4431 16.7285 37.5897L15.9169 37.9808C15.3999 37.1059 15.7421 36.5869 14.6754 37.1977C13.9281 37.6249 13.8571 37.3564 13.4499 37.8003C13.2959 37.9677 13.5993 37.8626 13.0739 38.1214C12.7197 37.9068 12.799 37.9343 12.5787 37.5402C12.9775 37.2228 13.2648 37.2405 13.5718 37.0128C13.1777 36.7229 12.6845 37.0751 11.9496 37.0279C11.8023 37.7016 11.3817 37.9587 10.8186 37.9992C10.5239 37.6949 10.5728 37.8489 10.4058 37.4153C10.7808 37.1357 11.1457 37.0647 11.6748 36.7831C11.0302 36.2397 10.0676 37.1176 9.52418 37.5506C9.31257 37.7196 9.04973 37.885 8.84483 37.9955C8.64628 37.8084 8.60308 37.5573 8.30141 37.4391C8.25789 37.9162 8.37608 38.1345 8.30141 38.3679C8.1407 38.8647 7.9753 38.2698 7.99439 39.1085C8.47251 38.9156 8.24651 38.8882 8.69818 38.7408C8.88802 38.9571 8.99951 39.0593 9.15923 39.4031C8.04631 39.4815 6.83191 39.6412 6.18365 39.1035C6.30553 38.5035 6.27808 38.8758 6.72975 38.4459C7.24671 38.7917 7.23432 39.0931 7.88621 39.1754C7.65953 38.6511 7.5112 38.7455 7.29089 38.1398C7.73687 37.432 8.85749 36.8708 9.63998 36.5582L10.1529 36.3077C10.0585 36.2377 10.015 35.8892 9.14107 36.3154C8.54676 36.6064 8.16136 37.0155 7.61896 37.3454C7.17398 37.6155 7.12208 37.42 6.56056 37.4351C6.57931 38.3193 6.55687 38.0247 6.05698 38.5688C6.02585 38.5481 5.98801 38.4657 5.97562 38.4915C5.96323 38.5159 5.91335 38.4302 5.89727 38.4141C5.71413 38.2364 5.80453 38.0817 5.42116 38.073L5.40777 38.7496C5.44928 39.207 5.41915 39.1132 5.38801 39.6178C4.69158 39.5602 3.9433 39.2003 3.52844 38.6757C4.01125 37.2818 4.10768 37.7375 4.90124 36.8757C5.22233 36.5271 5.3566 36.2927 5.6941 35.978C6.59375 35.1416 7.42878 34.3942 8.21333 33.422C8.55149 33.0024 8.61779 32.8069 8.9814 32.4988L11.4437 30.0261C12.0836 29.3495 15.862 25.0628 16.4055 24.8056C16.3639 24.5163 16.0077 25.0654 16.98 24.885C17.6359 24.7631 17.1739 24.8358 17.5402 24.5676C18.1998 24.0817 17.048 24.6744 17.7196 24.439L18.021 25.0266C17.7036 25.8469 17.7052 24.9027 17.5268 25.9055C18.0444 25.792 17.9443 25.7592 18.3461 25.5633C18.4643 25.9745 18.4442 25.9243 18.5209 26.3532C19.5933 26.4145 18.9367 25.8108 19.5658 27.1186L20.0326 27.4162C20.1762 27.3188 20.1176 26.9485 20.4029 27.4229C20.6326 27.8026 20.4578 28.0106 20.4273 28.402C21.3712 28.5419 20.7862 28.4673 21.3902 28.0809C21.6708 28.4211 21.5998 28.5439 21.9902 28.7961L22.5845 29.0579C22.848 28.2831 22.6856 28.4361 22.5166 27.736L23.2043 27.3289C23.3764 27.6908 23.6616 28.0912 23.7845 28.4117C24.0946 29.2243 23.5719 29.2471 24.6216 29.4276C24.4448 28.337 24.4203 28.841 24.7398 27.8101C25.5976 28.2902 25.1452 28.7586 26.0228 28.9535C25.9632 28.466 25.6391 28.1854 25.3756 27.8094C24.869 27.0855 25.093 27.3323 25.3237 26.5658C25.7442 26.8682 26.209 27.6523 26.8883 27.6835C27.0065 27.3282 26.7561 27.3925 27.029 26.8273C27.5258 27.0948 27.6082 27.434 28.1278 27.5425C28.0672 26.76 26.5509 26.522 27.4512 25.2115C27.8888 25.6227 28.1031 26.2357 28.8175 26.1433C28.5396 25.4562 27.5352 25.088 27.8659 24.3366C28.6548 24.6313 28.4053 25.5122 29.3927 25.4542C29.2895 25.1121 28.479 24.0765 28.1558 23.7356C27.7684 23.8243 27.7534 23.9047 27.3753 23.9803L27.3758 23.9809ZM42.6364 23.395C42.8008 23.0029 42.9652 22.7156 43.1701 22.4237C43.3147 22.2188 43.6238 21.9596 43.7607 21.7339L43.604 24.7215L43.002 23.9062C43.1202 23.5359 43.3184 23.414 43.5039 22.9406C42.853 22.8528 43.3583 22.7497 42.6364 23.3949L42.6364 23.395ZM28.7824 22.7789L28.9592 22.795C29.0686 23.2654 28.7834 22.8867 28.7824 22.7789ZM16.8784 23.0879C16.5884 22.9339 16.6129 23.175 16.5325 22.5927C17.0133 22.8924 16.7736 22.5265 16.8784 23.0879ZM16.1726 22.9443C16.339 23.4084 16.3614 23.2098 16.0262 23.4328C15.9158 23.2751 15.7219 22.9453 15.6342 22.7337C15.434 22.2489 15.4329 22.5013 15.7504 22.2743C15.9375 22.4585 16.0765 22.6731 16.1726 22.9443H16.1726ZM29.4497 22.587C29.2485 22.1665 29.5622 22.1223 29.9051 21.9161L29.4497 22.587ZM45.39 20.2483L45.323 22.7786C45.0337 22.9571 44.9366 22.946 44.6561 23.153L44.4341 20.9468L45.3903 20.2487L45.39 20.2483ZM31.1374 21.5297C31.0145 21.8029 31.1602 21.526 30.974 21.7952L30.6151 21.1574C30.9004 20.855 30.8645 20.9106 31.2586 20.7887C31.269 21.1155 31.2452 21.2886 31.1378 21.5293L31.1374 21.5297ZM12.1363 20.2938C12.0871 20.1927 11.8292 19.9122 11.7027 19.6918C12.0797 19.8288 11.78 19.5 12.0626 19.9818C12.1704 20.1643 12.1232 20.1492 12.1363 20.2935L12.1363 20.2938ZM43.1537 19.9604C43.2408 19.5596 43.5873 19.1089 43.9369 18.8786C43.7185 21.6395 44.0286 20.5915 43.0205 21.9947L42.2333 22.9386C42.4128 22.2639 42.9003 21.3947 43.3671 20.8165C43.3851 20.7937 43.4143 20.7616 43.4313 20.7381L43.5402 20.5567C43.9882 19.8281 43.3068 20.7552 43.6818 20.3099L43.1534 19.9603L43.1537 19.9604ZM44.4491 20.3026C44.346 18.8776 44.195 17.5058 45.3581 17.0428L45.3789 18.2692L44.7959 18.5592C44.4474 18.8133 44.5636 18.7169 44.4755 19.1763L45.3544 18.8702C45.4207 20.1476 45.3819 19.574 44.4491 20.3026L44.4491 20.3026ZM42.7938 19.4344C42.6247 18.8106 43.0158 18.3723 43.4296 17.7874L43.8341 18.2692C43.805 18.2919 43.7641 18.3201 43.7464 18.3371C42.9478 19.06 43.5328 19.0346 42.7938 19.434L42.7938 19.4344ZM33.9361 18.157C34.4273 17.9351 34.5341 17.6685 35.0625 17.3766C34.6155 18.4641 34.5656 17.6136 34.4758 19.7917C34.3094 19.6018 34.1035 19.3182 34.0885 18.9677C34.061 18.363 34.4842 18.6436 33.9364 18.1571L33.9361 18.157ZM42.2955 18.6399C42.2436 18.2545 42.7472 17.3257 42.9561 17.1261C43.0542 17.2915 43.2454 16.8908 42.9977 17.5835L42.2955 18.6399ZM3.19782 16.8513C3.33777 17.2159 3.40575 17.0401 3.20251 17.3756C3.05887 17.2102 3.12784 17.6063 3.08632 17.1308C3.0371 16.563 3.06456 17.0722 3.19782 16.8513H3.19782ZM9.13825 17.6769C8.79807 17.4094 8.91258 17.4198 8.72709 16.9634C9.23367 17.2413 9.41883 17.178 9.13825 17.6769ZM36.5248 16.3531L36.0487 17.2413C35.9513 17.0655 35.9081 16.9748 35.7832 16.7689L36.5248 16.3531ZM3.58739 16.3728C3.99286 15.7038 4.08829 16.2707 4.08996 16.2707C4.08996 16.337 4.1827 16.4371 3.92556 16.6032C3.36239 16.9661 3.6788 16.6504 3.575 16.6126C3.53817 16.4917 3.32288 16.8091 3.58739 16.3725L3.58739 16.3728ZM3.03192 15.3931C3.2663 15.5284 3.14073 15.444 3.33627 15.5917C3.35904 15.6087 3.51105 15.755 3.55558 15.7959L3.08784 16.2352L3.03192 15.3934L3.03192 15.3931ZM3.96269 14.4472L4.37753 14.8865L3.90878 15.3834C2.98469 14.758 3.4494 15.1775 3.06771 15.0272L3.96239 14.4469L3.96269 14.4472ZM37.981 15.3091C38.1832 14.9123 38.2428 14.7232 38.6084 14.6421L38.2381 15.8023C37.9405 15.3526 38.1768 15.8174 37.981 15.3091V15.3091ZM44.5337 16.8945C44.5736 16.6621 44.7209 16.1622 44.7484 15.9827C44.8806 15.1306 43.9706 13.8964 45.422 14.0127L45.3671 16.4884C44.8766 16.6444 44.9714 16.6538 44.5337 16.8945V16.8945ZM4.11346 13.8379C5.99386 12.9432 6.28675 15.5301 7.32509 16.2623C7.52264 16.4023 7.28926 16.2821 7.46504 16.3303C8.11426 16.5108 6.92833 16.2945 7.67297 16.3132C7.92442 16.3189 7.4925 16.0979 7.85913 16.333L8.7059 18.0413C8.7588 18.2398 8.56795 18.5921 9.09999 18.5525C9.49508 18.5234 9.21148 18.5432 9.40903 18.2047C9.54698 17.9683 9.28146 18.1755 9.54698 18.0091C10.4995 18.8368 9.58749 19.0203 9.83526 19.2594C10.386 19.7941 9.57544 18.5763 10.8263 19.6742L11.072 19.866C11.0965 19.8831 11.1327 19.9039 11.1571 19.921C12.1786 20.6351 11.5425 20.8819 12.6046 20.6931L12.9816 21.4585C13.6013 21.348 12.9266 21.4528 13.3425 21.2723L13.537 21.21C13.6361 21.8043 13.4473 21.1173 13.3689 21.9188C14.1836 21.8867 13.7781 21.5606 14.4813 23.0593C15.0946 22.9612 14.6088 22.9628 15.1861 22.8145C16.1574 24.436 15.4703 24.4417 14.1836 25.7237C13.8304 26.0753 13.6422 26.3331 13.287 26.6592C12.908 27.0061 12.7606 27.0751 12.3866 27.4501C10.8729 28.9695 9.4774 30.2733 8.08652 31.8891C7.74633 32.2842 7.67937 32.4191 7.25783 32.7526C6.2818 33.5254 3.60392 37.2228 3.13352 37.3731C3.10974 36.2498 3.40104 30.7705 3.28285 29.9927C3.22057 29.5846 3.05785 29.5665 2.97682 29.0857C2.86164 28.3969 3.07694 27.6493 3.03809 26.8682C2.97582 25.6511 2.8074 20.8548 3.18274 20.2862C3.59188 20.601 3.77705 20.9977 4.34862 20.6653C4.09349 20.1202 4.00643 20.4573 3.74092 19.8999C3.54171 19.4823 3.88825 19.8393 3.59159 19.5473C3.44896 19.4073 3.25141 19.397 3.02574 19.3062C3.12016 19.0199 3.10141 19.1211 3.18177 18.964C3.6994 17.9539 3.02875 19.396 3.34984 18.657C3.92339 18.9245 3.44326 18.9235 4.18891 19.0159C4.05867 18.2639 4.01882 18.7323 3.80621 18.1447L4.43534 17.6582C4.46179 17.6448 4.51369 17.6224 4.53444 17.611C4.55721 17.6006 4.60542 17.5866 4.63556 17.5648C4.13299 17.1188 4.29639 17.529 4.0754 17.0006C4.71993 16.2815 4.29571 16.8419 4.86357 16.5784C4.73868 16.1211 4.52339 16.0474 4.23611 15.7327C4.51971 15.3152 4.83143 15.0751 5.05709 14.6043C3.73418 14.0572 4.41826 14.4145 4.11424 13.8379L4.11346 13.8379ZM3.04872 14.5163C3.07316 13.7519 2.88131 13.044 3.35475 12.5649L3.84693 13.5202C3.02193 14.225 3.96312 13.9973 3.04839 14.5159L3.04872 14.5163ZM4.42152 13.2841C4.06059 13.2613 4.23067 13.5098 4.03212 12.9325C4.4791 13.1167 4.32408 12.9392 4.42152 13.2841ZM45.0638 12.2542C45.2915 12.5803 45.3879 12.9091 45.2945 13.421L44.8723 13.576L44.4933 12.7718L45.0641 12.2541L45.0638 12.2542ZM44.0962 11.5085C44.3597 11.3649 44.5951 11.2554 44.9881 11.1824C44.9798 11.9505 44.82 11.9287 44.3654 12.2133C44.1263 11.8969 44.1839 12.0194 44.0962 11.5085L44.0962 11.5085ZM42.2158 13.7157C42.5617 13.1836 42.265 12.9663 42.9906 12.4042L43.2561 12.1982L42.5285 11.3478C42.6711 11.243 42.7023 11.2021 42.8469 11.0937C43.0414 10.9463 42.8971 11.0341 43.1416 10.8857C44.2954 13.0343 43.7965 13.3878 43.8718 15.5129C43.9143 16.6912 44.0486 16.6922 43.3786 16.796C43.0686 16.3688 43.4134 16.1394 43.5487 15.5826C43.0404 15.7547 43.2577 15.9503 42.8382 16.1307C42.3477 15.287 42.7505 15.2123 41.9489 15.151C41.7882 15.7018 42.2419 16.1943 42.6802 16.5314C42.0517 18.7369 42.1056 17.8082 41.3925 18.082C41.5947 18.5913 41.8981 18.6743 42.0179 19.044C42.1134 19.3406 41.9567 19.7488 41.9443 20.2393C42.4847 20.0012 42.1435 20.1713 42.5037 19.7046C42.552 20.4415 41.8934 20.5409 41.8271 21.2457C41.7477 22.1008 41.7826 21.5879 41.9687 21.8343C42.3477 21.2966 42.3571 20.7167 42.9628 20.3651C42.8476 20.8499 42.4345 21.6501 42.1372 22.0998C41.9697 22.3529 41.6704 22.6385 41.6081 22.8501C41.4297 23.4481 41.7139 23.4066 41.802 23.5144C41.8181 23.5325 41.8736 23.6125 41.886 23.5881C41.8984 23.5636 41.9483 23.6326 41.9748 23.6597C41.1772 24.4904 41.813 25.2019 41.5251 26.1618L41.6641 26.1759C41.6744 26.1759 41.719 26.1769 41.7293 26.1769C42.626 26.1795 41.3503 25.8179 41.9446 26.1618C41.425 26.8412 41.0044 27.3437 40.9449 28.2755C40.9686 28.2839 41.0091 28.2792 41.0205 28.2782C41.3721 28.2735 41.1206 28.1175 41.5318 28.2507C41.6942 28.7155 41.5696 29.1152 41.4193 29.7068C41.8964 29.6057 41.717 29.5746 42.0012 29.2656C42.0183 29.2468 42.0645 29.2314 42.0769 29.1795C42.0893 29.1276 42.1231 29.1172 42.1536 29.0935C42.3511 29.5783 42.2687 29.7152 41.9373 30.2131C41.566 30.7695 41.6594 30.5117 41.1049 30.8121C41.2201 31.3146 41.5971 31.7646 41.9818 32.0422C41.9781 33.4047 42.028 33.1941 41.0038 33.6306C41.0453 34.2872 41.1899 34.2855 41.0747 34.8798C40.9793 35.372 40.9736 34.9923 41.053 35.5327C41.0597 35.5752 41.0727 35.6094 41.0804 35.6519C41.0871 35.6954 41.0992 35.7313 41.1059 35.7738L41.1437 36.3021C40.3934 35.895 38.9647 33.6506 38.2827 32.9505C38.0426 32.7038 37.8491 32.5159 37.5484 32.1285C37.0947 31.5446 37.3726 31.8101 36.7281 31.399C35.9295 30.8897 35.2739 29.7483 34.5796 29.0425L32.4311 26.5331C31.8026 25.8594 31.5826 25.5353 31.0298 24.8399L29.7042 23.1825L30.392 22.0997C30.6555 22.5872 30.9267 23.0975 31.4353 23.3081C31.665 23.4035 31.523 23.3402 31.677 23.3589C31.6884 23.36 31.7413 23.373 31.7497 23.3496C31.758 23.3251 31.7989 23.3429 31.8213 23.3335C31.9234 23.0338 31.5049 22.7827 31.2347 22.5256L31.6787 21.5476C32.3393 22.0304 32.0266 22.2751 32.8532 22.5199C32.6379 21.7207 32.3373 21.6922 31.9622 21.0875C32.207 20.5622 32.2676 20.823 32.3761 20.2418C31.6287 20.2019 31.9803 20.4762 31.5815 20.2418C31.8159 19.8015 31.987 19.758 32.5539 19.4519C32.8033 20.4564 32.6125 20.2729 32.7287 21.1689C33.2814 21.118 32.8967 21.2322 33.2296 20.8364C33.6122 21.1331 33.6407 21.2456 34.0355 21.0708C33.8202 20.5625 32.7805 20.0078 33.6528 19.3096C34.0479 19.8557 34.0599 20.3292 34.6392 20.4868C34.8451 20.0211 34.9378 19.6742 34.832 19.1565C35.207 19.4174 35.2827 19.7746 35.7059 19.8982C35.9573 18.9335 34.3067 18.8719 35.6717 17.55L35.7002 19.0383C35.9543 18.9957 35.7826 19.0363 35.9798 18.892L36.1894 18.6887C36.3527 18.8625 36.7884 19.4655 36.8017 18.8692C36.8074 18.6218 36.4833 18.4356 36.2416 17.9725L36.6005 17.2895C37.1315 17.7318 37.0294 18.0274 37.7787 18.1503C37.6123 17.6079 37.3063 17.4747 37.003 16.8596C37.1171 16.5328 37.2316 16.4504 37.3167 16.1849C37.4007 15.9231 37.3016 15.7804 37.4583 15.5886C37.8685 16.1538 38.2917 17.0833 38.8709 17.2734C39.0343 16.7159 38.8843 17.0219 38.7858 16.5354C38.7085 16.146 38.748 15.8758 38.7604 15.4553C39.267 15.7301 39.3386 16.3463 40.104 16.3C39.9624 15.5922 39.4605 15.8192 39.2764 15.1934C39.0685 14.4923 39.4438 15.2651 39.3075 14.634C39.2027 14.1481 39.2717 14.7729 39.0544 14.2352L39.5144 13.7099L39.8452 14.4659C39.9038 14.6246 39.9842 14.8703 40.091 15.0726C40.6977 15.24 40.4529 15.3448 40.8715 15.168C41.0473 14.4866 40.0304 14.8968 40.7004 13.8498C41.0161 14.1495 41.1417 14.4525 41.5612 14.5857C41.5923 13.9546 41.3258 13.8846 41.0037 13.4765C41.1852 13.0684 41.2127 13.2395 41.4149 12.7717L40.8876 12.6753C41.5991 12.2765 41.7966 11.9524 42.4097 11.5784C42.489 12.0876 42.5185 11.8958 42.4823 12.2909C42.0317 12.5356 42.2158 12.4355 41.6858 12.324L41.6613 14.1799L42.1602 13.7915C42.1763 13.7718 42.2027 13.7376 42.2161 13.7159L42.2158 13.7157ZM22.5161 27.0777C20.8142 25.1776 20.8691 25.3711 19.1976 23.9812C18.6355 23.5145 18.4125 23.624 17.8634 23.0591L13.0125 19.1698C11.0906 17.9672 12.0619 18.4593 11.2379 17.8469L5.90326 13.3144C5.55069 12.996 5.36855 12.6086 4.87906 12.2239C4.40094 11.8496 3.95292 11.6607 3.80661 11.0685C4.16754 10.8388 4.88172 10.4373 5.31363 10.2341C7.28841 9.30795 7.39418 9.69536 9.54775 9.65385C11.7569 9.61133 14.6096 9.34313 16.7374 9.38063C17.4877 9.39403 19.0071 9.69804 19.4927 9.57149C20.1757 9.39303 19.503 9.37127 21.1537 9.29459L28.5777 9.33242C29.4724 9.34179 30.2304 9.18509 31.1147 9.18878C34.4331 9.20016 37.3423 9.40139 40.7035 9.26713C40.815 9.48911 40.8046 9.56378 40.9576 9.69034C40.9804 9.70909 41.0162 9.73086 41.0417 9.74793C41.6199 10.1296 40.6098 9.53264 41.2362 9.83867C41.6946 10.0637 41.9628 10.1608 42.3749 10.658C41.4763 11.3544 39.4185 12.7348 38.5171 13.5475L25.192 25.0281C24.7242 25.4325 24.453 25.7613 24.0204 26.125L22.516 27.0775L22.5161 27.0777ZM41.5438 8.9671C42.7438 8.18562 43.7586 9.66721 44.0117 10.3231C44.2565 10.9552 44.2471 10.8153 43.8011 11.1273C43.6652 11.0225 43.698 11.0557 43.5537 10.91C42.5097 9.85635 43.0746 10.5066 42.3189 10.0295C42.4937 9.47302 42.9698 9.71208 42.8262 9.27179C42.7127 9.12046 42.9169 8.7766 41.9928 9.61666C41.6583 9.38797 41.6376 9.42113 41.5441 8.96744L41.5438 8.9671ZM22.7758 8.82145C22.9656 8.59378 23.4967 8.09388 23.7216 8.68552C23.4183 8.93295 23.2813 8.83116 22.7758 8.82145ZM19.8732 8.37547C19.7493 8.83183 19.6579 9.02268 19.1467 8.77893L19.8732 8.37547ZM39.9047 8.90851C40.5094 8.60885 41.1264 7.70748 41.8151 8.40293C40.8834 8.92458 40.6603 9.12581 39.9047 8.90851ZM37.5586 8.90382C37.7779 8.60416 37.5549 8.83485 37.8797 8.54087C38.7006 7.79623 39.1958 7.98071 40.3051 8.00416L39.2903 8.93767L37.5582 8.90352L37.5586 8.90382ZM36.1979 8.40293C36.3623 8.30081 36.5457 8.19131 36.7148 8.0825C36.9633 7.92279 36.9566 7.64321 37.9413 7.9171C37.8968 8.14377 37.4849 8.43875 37.1598 8.67212C36.8056 8.92726 36.3037 8.87436 35.6839 8.87636L36.1979 8.40293ZM11.543 9.10873C11.8624 8.75147 13.9279 7.84342 14.2832 7.98039C13.7853 8.26398 14.0783 7.95126 13.7013 8.32525C13.4699 8.55494 13.5218 8.61152 13.2101 8.81275C12.747 9.11041 12.2662 9.14356 11.5434 9.1084L11.543 9.10873ZM10.6841 9.11074C10.9969 8.81308 11.32 8.64199 11.6679 8.418C12.215 8.06543 11.9532 7.94288 12.6998 8.06643C12.5203 8.07681 12.4343 8.11733 12.2254 8.2392C11.9598 8.39322 11.9635 8.38082 11.6632 8.53886C10.7079 9.03875 11.7757 9.11041 10.6842 9.11041L10.6841 9.11074ZM7.57169 9.20617C8.3391 8.64969 10.6661 8.0042 11.6622 8.00882C10.6644 9.17565 9.08549 9.30422 7.57169 9.20617ZM33.5585 8.87838C33.8733 8.28608 34.2674 8.21409 34.7207 7.92309C35.2377 7.59061 35.5096 7.78514 36.2573 7.80959C35.7102 8.35769 35.6609 8.10825 35.3576 8.577L35.2016 8.92957L33.5583 8.87867L33.5585 8.87838ZM31.7689 8.85293C32.2812 8.01956 32.6703 8.44378 33.2297 7.71156L34.1669 7.7514C33.8361 8.01692 33.5954 8.185 33.138 8.31726L33.0878 8.86134L31.7686 8.85297L31.7689 8.85293ZM29.3783 8.84255C29.6193 8.41164 30.1805 7.95155 30.6181 7.76238C31.1066 7.55178 32.1884 7.62243 32.5571 7.71149C32.2433 7.96561 31.858 8.25558 31.3068 8.31986L31.2549 8.81875L29.3783 8.84255ZM26.399 8.74914C27.7229 8.45249 27.4752 7.46677 29.8139 7.7504C29.5711 7.93924 29.4727 8.0745 29.021 8.18968L28.9992 8.7763C27.7302 8.75922 26.0816 8.99661 24.2484 8.92563C24.7975 8.4023 25.6752 7.98646 26.6163 7.78623L26.399 8.74914ZM26.9207 8.0651C26.9973 7.61812 26.6126 7.71086 27.448 7.76074L26.9207 8.0651ZM15.6184 8.82849C17.7917 7.3884 16.652 8.52715 17.2352 7.55752C19.5077 7.65863 23.9156 7.49892 25.7223 7.72292L24.1265 8.47694L24.083 8.00451C23.0059 8.0025 22.7243 8.38922 21.9512 8.6641L21.6686 8.1247C20.9789 8.31187 20.7897 8.60651 20.0963 8.66879L20.4572 7.92415C18.9435 7.75506 19.142 9.23661 17.3534 8.92564C17.6454 8.7301 17.6531 8.78869 17.9534 8.64037C18.4212 8.40968 18.3267 8.63836 18.3652 8.18401L16.2874 8.84528C15.8424 8.96046 16.056 9.10611 15.6184 8.8282L15.6184 8.82849ZM13.5944 9.0277C13.7993 8.69221 13.5073 8.97179 13.89 8.66007C14.5363 8.13373 15.7921 7.68875 16.6272 7.73795C15.7109 8.35671 15.381 8.6875 14.9019 8.49666L14.6203 9.03137L13.5941 9.02769L13.5944 9.0277ZM2.3564 29.3137C3.27851 30.0979 2.6795 31.4803 2.61823 32.3609C2.58809 32.7918 2.65506 33.1943 2.5824 33.5987C2.47559 34.192 2.41901 33.5853 2.41432 34.3819L2.39725 37.6578C3.57848 40.9347 6.84873 39.8161 9.68699 39.6875C12.5574 39.5579 16.2596 39.9718 19.2733 39.9567C22.5626 39.9406 25.8448 40.0096 29.1416 39.953C32.2889 39.8991 35.7188 40.0267 38.8684 40.1817C41.5858 40.315 44.3819 38.1437 44.5858 36.0216L44.8798 34.161C45.0422 33.4475 44.9411 32.5555 45.0291 31.7911C45.1168 31.022 45.2237 30.4097 45.3295 29.6748C45.4296 28.9813 45.371 28.3188 45.4333 27.5449C45.5598 25.9602 45.7771 24.4843 45.8876 23.0502C45.9395 22.389 45.7875 21.6309 45.8103 20.8069C45.8347 19.9092 45.7754 19.2648 45.898 18.405C46.0681 17.2134 45.9747 14.7748 45.9338 13.4707C45.8742 11.5716 44.682 9.84699 43.4317 8.62925C42.8826 8.09454 42.517 8.00012 41.7131 7.8307C41.0307 7.68606 40.3373 7.43494 39.7165 7.38003C38.989 7.31574 37.9242 7.32244 37.1759 7.32244C34.0389 7.32445 30.7138 7.1259 27.7344 7.24108C26.4712 7.2903 24.0882 7.31574 22.8758 7.17981C21.2214 6.99364 15.2221 7.05224 13.6187 7.40481C11.6854 7.82902 10.3937 6.75559 5.63455 9.28418C4.29389 9.99668 3.65412 10.299 2.99549 11.7247C2.98143 11.7569 2.96235 11.7917 2.94728 11.8228C1.63114 14.6196 2.87931 27.8591 2.35666 29.3137L2.3564 29.3137Z" stroke="#F8F8F8" stroke-width="0.2" mask="url(#path-1-outside-1_98_2084)"/>
<path d="M22.9632 28.6657L22.9632 28.6657C23.0968 28.8357 23.1518 28.9518 23.1972 29.0477C23.2127 29.0803 23.227 29.1105 23.2429 29.1397C23.2749 29.1984 23.3125 29.2505 23.376 29.3015C23.4385 29.3517 23.5241 29.3994 23.6499 29.4529L23.7008 29.4746L23.7172 29.4218C23.791 29.1848 23.7988 29.0442 23.7549 28.9032C23.7336 28.8349 23.7008 28.7682 23.6616 28.693C23.6536 28.6778 23.6454 28.6621 23.6369 28.646C23.603 28.5815 23.5647 28.5087 23.5229 28.4199L23.5228 28.4198C23.5008 28.3734 23.48 28.3287 23.4603 28.286C23.4301 28.2209 23.4023 28.1607 23.3755 28.1072C23.3309 28.0181 23.2864 27.9412 23.233 27.8811C23.1786 27.82 23.115 27.7762 23.0334 27.7535C22.953 27.7311 22.8588 27.7302 22.7443 27.7483L22.713 27.7533C22.7012 27.7532 22.6853 27.753 22.6705 27.7539C22.6305 27.7562 22.5593 27.7672 22.5305 27.8368C22.5171 27.8693 22.5163 27.9078 22.5252 27.9513C22.5342 27.9949 22.5537 28.0474 22.5857 28.1108C22.6495 28.2375 22.7666 28.4153 22.9632 28.6657Z" fill="#F8F8F8" stroke="#F8F8F8" stroke-width="0.1"/>
<path d="M4.34708 37.7088L4.30274 37.6749L4.27388 37.7227C4.17531 37.886 4.1503 38.0459 4.1806 38.1959C4.21064 38.3448 4.29412 38.4795 4.40496 38.5962C4.62594 38.8287 4.9645 38.9988 5.25175 39.0752L5.34 39.0987L5.31223 39.0117C5.25751 38.8402 5.22137 38.7336 5.19223 38.6638C5.16277 38.5933 5.13843 38.5555 5.10512 38.5255C5.09038 38.5122 5.0746 38.5012 5.05939 38.4905C5.05866 38.49 5.05792 38.4895 5.05718 38.489C5.04084 38.4775 5.02297 38.465 5.0012 38.4471C4.95778 38.4114 4.89686 38.3531 4.80661 38.2414L4.79118 38.2223L4.79091 38.2224C4.69491 38.1019 4.65951 38.0401 4.63237 37.9928C4.62439 37.9789 4.61712 37.9662 4.60923 37.9536C4.56967 37.8906 4.52033 37.8414 4.34708 37.7088Z" fill="#F8F8F8" stroke="#F8F8F8" stroke-width="0.1"/>
<path d="M42.8413 13.5479L42.8496 13.6003L42.9014 13.5889C43.3265 13.4954 43.6063 13.0679 43.4912 12.5643L43.4819 12.524L43.4406 12.5255C43.1742 12.5351 42.9984 12.6559 42.9037 12.8475C42.8113 13.0348 42.7993 13.2834 42.8413 13.5479Z" fill="#F8F8F8" stroke="#F8F8F8" stroke-width="0.1"/>
</svg>
