<svg width="50" height="50" viewBox="0 0 50 50" fill="none" xmlns="http://www.w3.org/2000/svg">
<mask id="path-1-outside-1_347_4435" maskUnits="userSpaceOnUse" x="7.17188" y="7.13354" width="35" height="41" fill="black">
<rect fill="white" x="7.17188" y="7.13354" width="35" height="41"/>
<path d="M16.5382 8.39487C14.9063 7.77826 13.0076 8.26838 11.4623 9.70095C6.18714 14.5706 8.07615 23.135 11.4101 29.7995C12.4247 31.8363 18.067 39.0885 19.7951 40.5774C22.1227 42.5854 24.3279 44.0887 26.4747 45.1446L26.4548 45.1645C26.3874 45.2319 26.3874 45.3405 26.4548 45.4079C26.5222 45.4752 26.6308 45.4752 26.6975 45.4079L26.7992 45.3061C30.8254 47.2068 35.6537 47.8331 39.2908 45.467C41.0547 44.3135 41.9944 42.595 41.8047 40.8696C41.5634 38.6912 39.7108 36.9692 37.9923 35.5256C33.929 32.1264 32.2758 32.1051 29.3117 33.8772C28.7837 34.1927 28.2847 34.4911 27.7416 34.6987C24.7479 35.8522 17.163 25.8338 19.0417 23.5585C19.3518 23.1838 19.7092 22.8264 20.0557 22.4806C22.6582 19.8788 23.1367 18.295 20.7754 13.3972C19.8006 11.3796 18.5887 9.1627 16.5382 8.39487ZM28.3837 43.7217L29.4478 44.7858L28.8326 45.401C28.4875 45.2773 28.1403 45.1412 27.7918 44.9927C27.787 44.9858 27.7884 44.9762 27.7822 44.97L27.4584 44.6462L28.3837 43.7217ZM29.1907 45.5282L29.6904 45.0284L29.8754 45.2133C29.9427 45.2807 30.0513 45.2807 30.1187 45.2133C30.1861 45.146 30.1861 45.0374 30.1187 44.97L29.9338 44.7851L30.8034 43.9155L31.7279 44.8401L31.0708 45.4972C31.0034 45.5646 31.0034 45.6732 31.0708 45.7406C31.1381 45.8079 31.2467 45.8079 31.3141 45.7406L31.9713 45.0834L32.5205 45.6327C32.5879 45.7 32.6965 45.7 32.7639 45.6327C32.8312 45.5653 32.8312 45.4567 32.7639 45.3893L32.2146 44.8401L33.0835 43.9712L33.786 44.6737L33.1846 45.2752C33.1172 45.3426 33.1172 45.4512 33.1846 45.5185C33.2519 45.5859 33.3605 45.5859 33.4279 45.5185L34.0294 44.9171L35.2977 46.1846C33.254 46.4768 31.2096 46.2018 29.1907 45.5282ZM34.27 42.7847C34.2782 42.8067 34.2789 42.8315 34.2968 42.8493L34.954 43.5065L34.0287 44.4317L33.3262 43.7292L34.27 42.7847ZM19.5704 21.9932C19.2129 22.35 18.8431 22.7198 18.5124 23.1199C16.1381 25.9933 24.3603 36.7341 27.9884 35.3393C28.5871 35.1098 29.1343 34.7825 29.6643 34.4657C31.9823 33.0805 33.3303 32.5182 37.5503 36.0515C39.1664 37.4091 40.9083 39.0184 41.1207 40.9438C41.2816 42.4066 40.4567 43.8818 38.9141 44.8903C37.9806 45.4979 36.9 45.9097 35.7252 46.1276L34.2707 44.6737L35.1959 43.7485L35.871 44.4235L35.1306 45.1638C35.0633 45.2312 35.0633 45.3398 35.1306 45.4072C35.198 45.4746 35.3066 45.4746 35.374 45.4072L36.1143 44.6668L36.9364 45.489C37.0038 45.5564 37.1124 45.5564 37.1798 45.489C37.2472 45.4216 37.2472 45.313 37.1798 45.2456L36.3576 44.4242L37.7277 43.0542L38.2632 43.5897L37.0217 44.8304C36.9543 44.8978 36.9543 45.0064 37.0217 45.0738C37.0554 45.1075 37.0994 45.124 37.1434 45.124C37.1874 45.124 37.2313 45.1075 37.265 45.0738L38.567 43.7725C38.5972 43.7656 38.6295 43.7608 38.6529 43.7368C38.677 43.7127 38.6818 43.6811 38.6887 43.6508L40.1102 42.2293C40.1776 42.1619 40.1776 42.0533 40.1102 41.9859C40.0429 41.9186 39.9343 41.9186 39.8669 41.9859L38.5058 43.347L37.9703 42.8115L38.0996 42.6823C38.1669 42.6149 38.1669 42.5063 38.0996 42.4389C38.0322 42.3716 37.9236 42.3716 37.8562 42.4389L37.727 42.5682L36.7639 41.6051C36.6965 41.5377 36.5879 41.5377 36.5206 41.6051C36.4532 41.6725 36.4532 41.7811 36.5206 41.8485L36.5652 41.8931L35.1952 43.2631L34.5381 42.606C34.5202 42.5881 34.4954 42.5874 34.4735 42.5792L34.9017 42.1509C34.9691 42.0835 34.9691 41.9749 34.9017 41.9076C34.8343 41.8402 34.7257 41.8402 34.6584 41.9076L33.0808 43.4852L32.7577 43.1621C32.6903 43.0947 32.5817 43.0947 32.5143 43.1621C32.447 43.2295 32.447 43.3381 32.5143 43.4054L32.8374 43.7285L31.9706 44.5981L31.046 43.6735L31.9596 42.76C32.027 42.6926 32.027 42.584 31.9596 42.5166C31.8922 42.4492 31.7836 42.4492 31.7162 42.5166L30.8027 43.4302L30.6459 43.2735C30.5786 43.2061 30.47 43.2061 30.4033 43.2735C30.3359 43.3408 30.3359 43.4494 30.4033 43.5168L30.56 43.6735L29.6904 44.5431L28.6263 43.479L29.4065 42.6995C29.4739 42.6321 29.4739 42.5235 29.4065 42.4561C29.3392 42.3888 29.2306 42.3888 29.1632 42.4561L28.3672 43.2515C28.3039 43.2219 28.2297 43.2212 28.1775 43.2735C28.1252 43.3257 28.1259 43.3993 28.1555 43.4632L27.2144 44.4043L26.6404 43.8303C26.573 43.7629 26.4644 43.7629 26.3971 43.8303C26.3297 43.8976 26.3297 44.0062 26.3971 44.0736L26.927 44.6036C24.7864 43.5711 22.5805 42.0739 20.242 40.0564C18.5475 38.597 13.0173 31.4892 12.0233 29.4929C8.8708 23.1907 6.88761 14.8607 11.927 10.2055C13.1458 9.0754 14.7798 8.46979 16.2942 9.03828H16.2948C18.1076 9.71745 19.2377 11.7989 20.1547 13.6948C22.4829 18.5211 21.821 19.7427 19.5704 21.9932ZM37.485 42.8115L36.115 44.1815L35.44 43.5065L36.81 42.1365L37.485 42.8115Z"/>
</mask>
<path d="M16.5382 8.39487C14.9063 7.77826 13.0076 8.26838 11.4623 9.70095C6.18714 14.5706 8.07615 23.135 11.4101 29.7995C12.4247 31.8363 18.067 39.0885 19.7951 40.5774C22.1227 42.5854 24.3279 44.0887 26.4747 45.1446L26.4548 45.1645C26.3874 45.2319 26.3874 45.3405 26.4548 45.4079C26.5222 45.4752 26.6308 45.4752 26.6975 45.4079L26.7992 45.3061C30.8254 47.2068 35.6537 47.8331 39.2908 45.467C41.0547 44.3135 41.9944 42.595 41.8047 40.8696C41.5634 38.6912 39.7108 36.9692 37.9923 35.5256C33.929 32.1264 32.2758 32.1051 29.3117 33.8772C28.7837 34.1927 28.2847 34.4911 27.7416 34.6987C24.7479 35.8522 17.163 25.8338 19.0417 23.5585C19.3518 23.1838 19.7092 22.8264 20.0557 22.4806C22.6582 19.8788 23.1367 18.295 20.7754 13.3972C19.8006 11.3796 18.5887 9.1627 16.5382 8.39487ZM28.3837 43.7217L29.4478 44.7858L28.8326 45.401C28.4875 45.2773 28.1403 45.1412 27.7918 44.9927C27.787 44.9858 27.7884 44.9762 27.7822 44.97L27.4584 44.6462L28.3837 43.7217ZM29.1907 45.5282L29.6904 45.0284L29.8754 45.2133C29.9427 45.2807 30.0513 45.2807 30.1187 45.2133C30.1861 45.146 30.1861 45.0374 30.1187 44.97L29.9338 44.7851L30.8034 43.9155L31.7279 44.8401L31.0708 45.4972C31.0034 45.5646 31.0034 45.6732 31.0708 45.7406C31.1381 45.8079 31.2467 45.8079 31.3141 45.7406L31.9713 45.0834L32.5205 45.6327C32.5879 45.7 32.6965 45.7 32.7639 45.6327C32.8312 45.5653 32.8312 45.4567 32.7639 45.3893L32.2146 44.8401L33.0835 43.9712L33.786 44.6737L33.1846 45.2752C33.1172 45.3426 33.1172 45.4512 33.1846 45.5185C33.2519 45.5859 33.3605 45.5859 33.4279 45.5185L34.0294 44.9171L35.2977 46.1846C33.254 46.4768 31.2096 46.2018 29.1907 45.5282ZM34.27 42.7847C34.2782 42.8067 34.2789 42.8315 34.2968 42.8493L34.954 43.5065L34.0287 44.4317L33.3262 43.7292L34.27 42.7847ZM19.5704 21.9932C19.2129 22.35 18.8431 22.7198 18.5124 23.1199C16.1381 25.9933 24.3603 36.7341 27.9884 35.3393C28.5871 35.1098 29.1343 34.7825 29.6643 34.4657C31.9823 33.0805 33.3303 32.5182 37.5503 36.0515C39.1664 37.4091 40.9083 39.0184 41.1207 40.9438C41.2816 42.4066 40.4567 43.8818 38.9141 44.8903C37.9806 45.4979 36.9 45.9097 35.7252 46.1276L34.2707 44.6737L35.1959 43.7485L35.871 44.4235L35.1306 45.1638C35.0633 45.2312 35.0633 45.3398 35.1306 45.4072C35.198 45.4746 35.3066 45.4746 35.374 45.4072L36.1143 44.6668L36.9364 45.489C37.0038 45.5564 37.1124 45.5564 37.1798 45.489C37.2472 45.4216 37.2472 45.313 37.1798 45.2456L36.3576 44.4242L37.7277 43.0542L38.2632 43.5897L37.0217 44.8304C36.9543 44.8978 36.9543 45.0064 37.0217 45.0738C37.0554 45.1075 37.0994 45.124 37.1434 45.124C37.1874 45.124 37.2313 45.1075 37.265 45.0738L38.567 43.7725C38.5972 43.7656 38.6295 43.7608 38.6529 43.7368C38.677 43.7127 38.6818 43.6811 38.6887 43.6508L40.1102 42.2293C40.1776 42.1619 40.1776 42.0533 40.1102 41.9859C40.0429 41.9186 39.9343 41.9186 39.8669 41.9859L38.5058 43.347L37.9703 42.8115L38.0996 42.6823C38.1669 42.6149 38.1669 42.5063 38.0996 42.4389C38.0322 42.3716 37.9236 42.3716 37.8562 42.4389L37.727 42.5682L36.7639 41.6051C36.6965 41.5377 36.5879 41.5377 36.5206 41.6051C36.4532 41.6725 36.4532 41.7811 36.5206 41.8485L36.5652 41.8931L35.1952 43.2631L34.5381 42.606C34.5202 42.5881 34.4954 42.5874 34.4735 42.5792L34.9017 42.1509C34.9691 42.0835 34.9691 41.9749 34.9017 41.9076C34.8343 41.8402 34.7257 41.8402 34.6584 41.9076L33.0808 43.4852L32.7577 43.1621C32.6903 43.0947 32.5817 43.0947 32.5143 43.1621C32.447 43.2295 32.447 43.3381 32.5143 43.4054L32.8374 43.7285L31.9706 44.5981L31.046 43.6735L31.9596 42.76C32.027 42.6926 32.027 42.584 31.9596 42.5166C31.8922 42.4492 31.7836 42.4492 31.7162 42.5166L30.8027 43.4302L30.6459 43.2735C30.5786 43.2061 30.47 43.2061 30.4033 43.2735C30.3359 43.3408 30.3359 43.4494 30.4033 43.5168L30.56 43.6735L29.6904 44.5431L28.6263 43.479L29.4065 42.6995C29.4739 42.6321 29.4739 42.5235 29.4065 42.4561C29.3392 42.3888 29.2306 42.3888 29.1632 42.4561L28.3672 43.2515C28.3039 43.2219 28.2297 43.2212 28.1775 43.2735C28.1252 43.3257 28.1259 43.3993 28.1555 43.4632L27.2144 44.4043L26.6404 43.8303C26.573 43.7629 26.4644 43.7629 26.3971 43.8303C26.3297 43.8976 26.3297 44.0062 26.3971 44.0736L26.927 44.6036C24.7864 43.5711 22.5805 42.0739 20.242 40.0564C18.5475 38.597 13.0173 31.4892 12.0233 29.4929C8.8708 23.1907 6.88761 14.8607 11.927 10.2055C13.1458 9.0754 14.7798 8.46979 16.2942 9.03828H16.2948C18.1076 9.71745 19.2377 11.7989 20.1547 13.6948C22.4829 18.5211 21.821 19.7427 19.5704 21.9932ZM37.485 42.8115L36.115 44.1815L35.44 43.5065L36.81 42.1365L37.485 42.8115Z" fill="#E42614"/>
<path d="M16.5382 8.39487C14.9063 7.77826 13.0076 8.26838 11.4623 9.70095C6.18714 14.5706 8.07615 23.135 11.4101 29.7995C12.4247 31.8363 18.067 39.0885 19.7951 40.5774C22.1227 42.5854 24.3279 44.0887 26.4747 45.1446L26.4548 45.1645C26.3874 45.2319 26.3874 45.3405 26.4548 45.4079C26.5222 45.4752 26.6308 45.4752 26.6975 45.4079L26.7992 45.3061C30.8254 47.2068 35.6537 47.8331 39.2908 45.467C41.0547 44.3135 41.9944 42.595 41.8047 40.8696C41.5634 38.6912 39.7108 36.9692 37.9923 35.5256C33.929 32.1264 32.2758 32.1051 29.3117 33.8772C28.7837 34.1927 28.2847 34.4911 27.7416 34.6987C24.7479 35.8522 17.163 25.8338 19.0417 23.5585C19.3518 23.1838 19.7092 22.8264 20.0557 22.4806C22.6582 19.8788 23.1367 18.295 20.7754 13.3972C19.8006 11.3796 18.5887 9.1627 16.5382 8.39487ZM28.3837 43.7217L29.4478 44.7858L28.8326 45.401C28.4875 45.2773 28.1403 45.1412 27.7918 44.9927C27.787 44.9858 27.7884 44.9762 27.7822 44.97L27.4584 44.6462L28.3837 43.7217ZM29.1907 45.5282L29.6904 45.0284L29.8754 45.2133C29.9427 45.2807 30.0513 45.2807 30.1187 45.2133C30.1861 45.146 30.1861 45.0374 30.1187 44.97L29.9338 44.7851L30.8034 43.9155L31.7279 44.8401L31.0708 45.4972C31.0034 45.5646 31.0034 45.6732 31.0708 45.7406C31.1381 45.8079 31.2467 45.8079 31.3141 45.7406L31.9713 45.0834L32.5205 45.6327C32.5879 45.7 32.6965 45.7 32.7639 45.6327C32.8312 45.5653 32.8312 45.4567 32.7639 45.3893L32.2146 44.8401L33.0835 43.9712L33.786 44.6737L33.1846 45.2752C33.1172 45.3426 33.1172 45.4512 33.1846 45.5185C33.2519 45.5859 33.3605 45.5859 33.4279 45.5185L34.0294 44.9171L35.2977 46.1846C33.254 46.4768 31.2096 46.2018 29.1907 45.5282ZM34.27 42.7847C34.2782 42.8067 34.2789 42.8315 34.2968 42.8493L34.954 43.5065L34.0287 44.4317L33.3262 43.7292L34.27 42.7847ZM19.5704 21.9932C19.2129 22.35 18.8431 22.7198 18.5124 23.1199C16.1381 25.9933 24.3603 36.7341 27.9884 35.3393C28.5871 35.1098 29.1343 34.7825 29.6643 34.4657C31.9823 33.0805 33.3303 32.5182 37.5503 36.0515C39.1664 37.4091 40.9083 39.0184 41.1207 40.9438C41.2816 42.4066 40.4567 43.8818 38.9141 44.8903C37.9806 45.4979 36.9 45.9097 35.7252 46.1276L34.2707 44.6737L35.1959 43.7485L35.871 44.4235L35.1306 45.1638C35.0633 45.2312 35.0633 45.3398 35.1306 45.4072C35.198 45.4746 35.3066 45.4746 35.374 45.4072L36.1143 44.6668L36.9364 45.489C37.0038 45.5564 37.1124 45.5564 37.1798 45.489C37.2472 45.4216 37.2472 45.313 37.1798 45.2456L36.3576 44.4242L37.7277 43.0542L38.2632 43.5897L37.0217 44.8304C36.9543 44.8978 36.9543 45.0064 37.0217 45.0738C37.0554 45.1075 37.0994 45.124 37.1434 45.124C37.1874 45.124 37.2313 45.1075 37.265 45.0738L38.567 43.7725C38.5972 43.7656 38.6295 43.7608 38.6529 43.7368C38.677 43.7127 38.6818 43.6811 38.6887 43.6508L40.1102 42.2293C40.1776 42.1619 40.1776 42.0533 40.1102 41.9859C40.0429 41.9186 39.9343 41.9186 39.8669 41.9859L38.5058 43.347L37.9703 42.8115L38.0996 42.6823C38.1669 42.6149 38.1669 42.5063 38.0996 42.4389C38.0322 42.3716 37.9236 42.3716 37.8562 42.4389L37.727 42.5682L36.7639 41.6051C36.6965 41.5377 36.5879 41.5377 36.5206 41.6051C36.4532 41.6725 36.4532 41.7811 36.5206 41.8485L36.5652 41.8931L35.1952 43.2631L34.5381 42.606C34.5202 42.5881 34.4954 42.5874 34.4735 42.5792L34.9017 42.1509C34.9691 42.0835 34.9691 41.9749 34.9017 41.9076C34.8343 41.8402 34.7257 41.8402 34.6584 41.9076L33.0808 43.4852L32.7577 43.1621C32.6903 43.0947 32.5817 43.0947 32.5143 43.1621C32.447 43.2295 32.447 43.3381 32.5143 43.4054L32.8374 43.7285L31.9706 44.5981L31.046 43.6735L31.9596 42.76C32.027 42.6926 32.027 42.584 31.9596 42.5166C31.8922 42.4492 31.7836 42.4492 31.7162 42.5166L30.8027 43.4302L30.6459 43.2735C30.5786 43.2061 30.47 43.2061 30.4033 43.2735C30.3359 43.3408 30.3359 43.4494 30.4033 43.5168L30.56 43.6735L29.6904 44.5431L28.6263 43.479L29.4065 42.6995C29.4739 42.6321 29.4739 42.5235 29.4065 42.4561C29.3392 42.3888 29.2306 42.3888 29.1632 42.4561L28.3672 43.2515C28.3039 43.2219 28.2297 43.2212 28.1775 43.2735C28.1252 43.3257 28.1259 43.3993 28.1555 43.4632L27.2144 44.4043L26.6404 43.8303C26.573 43.7629 26.4644 43.7629 26.3971 43.8303C26.3297 43.8976 26.3297 44.0062 26.3971 44.0736L26.927 44.6036C24.7864 43.5711 22.5805 42.0739 20.242 40.0564C18.5475 38.597 13.0173 31.4892 12.0233 29.4929C8.8708 23.1907 6.88761 14.8607 11.927 10.2055C13.1458 9.0754 14.7798 8.46979 16.2942 9.03828H16.2948C18.1076 9.71745 19.2377 11.7989 20.1547 13.6948C22.4829 18.5211 21.821 19.7427 19.5704 21.9932ZM37.485 42.8115L36.115 44.1815L35.44 43.5065L36.81 42.1365L37.485 42.8115Z" stroke="#E42614" stroke-width="0.3" mask="url(#path-1-outside-1_347_4435)"/>
<path d="M24.6437 13.6585C24.7327 13.8715 24.9781 13.9717 25.1913 13.883L25.1915 13.8829L26.8446 13.1901M24.6437 13.6585C24.5542 13.4451 24.6546 13.1996 24.8683 13.1108L24.8682 13.1108L24.8972 13.18L24.8684 13.1107L26.5214 12.4179L26.5217 12.4178C26.7354 12.3293 26.9802 12.4285 27.0692 12.6424C27.1587 12.856 27.0574 13.1013 26.8446 13.1901M24.6437 13.6585C24.6438 13.6585 24.6438 13.6585 24.6438 13.6586L24.7129 13.6295L24.6437 13.6584C24.6437 13.6584 24.6437 13.6585 24.6437 13.6585ZM26.8446 13.1901L26.8157 13.1209M26.8446 13.1901L26.8447 13.19L26.8157 13.1209M26.8157 13.1209C26.9903 13.048 27.0735 12.8466 27 12.6713L26.8157 13.1209Z" fill="#E42614" stroke="#E42614" stroke-width="0.15"/>
<path d="M25.6524 7.60897L25.6525 7.60896C25.8476 7.48503 26.1062 7.54277 26.2302 7.73711L26.2303 7.73723C26.3541 7.93221 26.2966 8.19179 26.1012 8.31513C26.1012 8.31515 26.1012 8.31517 26.1011 8.31519L23.4954 9.97099L23.4954 9.97103L23.4551 9.90773C23.2943 10.0102 23.0819 9.96135 22.9808 9.80256L25.6524 7.60897ZM25.6524 7.60897L23.0467 9.26481L25.6524 7.60897Z" fill="#E42614" stroke="#E42614" stroke-width="0.15"/>
<path d="M20.5756 6.55489L20.5756 6.55494C20.5362 6.77168 20.3322 6.9325 20.0902 6.89258L20.0891 6.8924L20.0891 6.89239C19.8612 6.85133 19.7105 6.63275 19.7515 6.40585L20.5756 6.55489ZM20.5756 6.55489L21.1427 3.41755M20.5756 6.55489L19.7515 6.40585L20.3187 3.26855C20.3187 3.26853 20.3187 3.26852 20.3187 3.2685C20.3599 3.03991 20.5745 2.89352 20.8039 2.93079L20.8052 2.931L20.8051 2.93101C21.0331 2.97207 21.1837 3.19065 21.1427 3.41755M21.1427 3.41755L21.0689 3.40421M21.1427 3.41755L21.1427 3.41755L21.0689 3.40421M21.0689 3.40421C21.1026 3.21792 20.9788 3.0385 20.7919 3.00482L21.0689 3.40421Z" fill="#E42614" stroke="#E42614" stroke-width="0.15"/>
<path d="M38.0058 41.2692L37.8186 41.4559C37.8185 41.4559 37.8184 41.456 37.8184 41.4561C37.722 41.5532 37.565 41.5524 37.4681 41.4547M38.0058 41.2692L37.5211 41.1583L37.4682 41.1054C37.3716 41.202 37.3715 41.358 37.4681 41.4547M38.0058 41.2692L39.1682 42.4316C39.2648 42.5282 39.4209 42.5282 39.5176 42.4316C39.6142 42.3349 39.6142 42.1788 39.5176 42.0822L39.1059 41.6705L39.6742 41.1016L39.8693 41.2967C39.966 41.3933 40.1221 41.3933 40.2187 41.2967C40.3154 41.2 40.3154 41.0439 40.2187 40.9473L40.0236 40.7521L40.3782 40.3975C40.4749 40.3009 40.4749 40.1448 40.3782 40.0481C40.2816 39.9515 40.1255 39.9515 40.0288 40.0481L39.6742 40.4027L39.2723 40.0008L39.576 39.6971C39.6727 39.6004 39.6727 39.4443 39.576 39.3476C39.4793 39.251 39.3232 39.251 39.2266 39.3476L38.9229 39.6514L38.4858 39.2143C38.3891 39.1176 38.233 39.1176 38.1364 39.2143C38.0397 39.3109 38.0397 39.467 38.1364 39.5637L38.5735 40.0008L38.0052 40.5691L37.929 40.4929C37.8325 40.3964 37.6763 40.396 37.5801 40.493C37.4838 40.5895 37.4834 40.7455 37.5803 40.8416L37.6559 40.9177M38.0058 41.2692L37.6559 40.9177M37.4681 41.4547C37.468 41.4546 37.468 41.4546 37.4679 41.4545L37.5212 41.4017M37.4681 41.4547C37.4681 41.4547 37.4682 41.4547 37.4682 41.4548L37.5212 41.4017M37.5212 41.4017C37.5893 41.4705 37.6986 41.4705 37.7653 41.4031L37.5212 41.1584C37.4539 41.2258 37.4539 41.3344 37.5212 41.4017ZM37.6559 40.9177L37.4682 41.1054L37.6559 40.9177ZM38.3552 40.9205L38.9236 40.3516L39.3255 40.7535L38.7572 41.3224L38.3552 40.9205Z" fill="#E42614" stroke="#E42614" stroke-width="0.15"/>
<path d="M13.3136 26.4553C13.6269 26.9749 13.9529 27.4868 14.2861 27.9935L14.8495 27.6406L14.8509 27.6398L14.8509 27.6398C14.9661 27.571 15.1171 27.6029 15.1899 27.7185L15.1901 27.7188C15.2619 27.8339 15.2278 27.9869 15.1119 28.0593L15.112 28.0592L15.0721 27.9957L15.1119 28.0593L14.5586 28.406C14.7966 28.7638 15.0362 29.1194 15.2755 29.4747L15.3193 29.5396L15.3196 29.54C15.3949 29.6535 15.3661 29.8065 15.2531 29.8828C15.1432 29.9578 14.9885 29.9322 14.9105 29.8176L14.9104 29.8175C14.653 29.4378 14.3962 29.0551 14.14 28.6706L13.854 28.8497L13.8532 28.8502C13.7329 28.9236 13.5837 28.8834 13.5135 28.7718L13.5134 28.7716C13.4416 28.6565 13.4756 28.5036 13.5915 28.4312L13.3136 26.4553ZM13.3136 26.4553L13.6508 26.3325L13.6511 26.3324C13.7787 26.2853 13.8453 26.1444 13.7981 26.0158C13.7519 25.887 13.6094 25.8233 13.4826 25.8682L13.4819 25.8684L13.0575 26.023M13.3136 26.4553L13.0575 26.023M13.8675 28.2581C13.5156 27.7234 13.1716 27.1812 12.8406 26.6299L12.4595 26.7683L12.4585 26.7687C12.3234 26.8156 12.188 26.7426 12.1435 26.6206C12.0959 26.4923 12.163 26.3514 12.2903 26.3044L12.2907 26.3043L12.5858 26.1968C12.3058 25.7139 12.0384 25.2238 11.7899 24.7239L11.7329 24.7573L11.7328 24.7574C11.6167 24.8252 11.4647 24.7884 11.3952 24.6696C11.3252 24.5519 11.3649 24.4001 11.4823 24.331L11.4823 24.331L11.5779 24.2749C11.3568 23.803 11.1501 23.3235 10.9686 22.8317L10.9467 22.8426L10.9466 22.8426C10.8219 22.9045 10.6754 22.8524 10.6159 22.7319C10.5547 22.6101 10.6045 22.4622 10.7264 22.4011C10.7264 22.4011 10.7264 22.4011 10.7265 22.4011L10.8063 22.361C10.5788 21.685 10.4614 21.2808 10.3191 20.4741L10.0604 20.463L10.0599 20.463C9.92444 20.4561 9.81851 20.342 9.82445 20.2054C9.82718 20.1424 9.85021 20.08 9.89617 20.0342C9.94306 19.9875 10.0085 19.9634 10.0836 19.9695L10.2388 19.9764C10.1545 19.3531 10.1254 18.7378 10.141 18.1344L9.69352 18.0226L9.69327 18.0225C9.56125 17.989 9.48123 17.8558 9.51378 17.7236C9.54531 17.5956 9.67795 17.5033 9.81488 17.5441L10.1517 17.6285C10.194 17.0571 10.2928 16.5082 10.4225 15.9753L9.8454 15.6952L9.84532 15.6952L9.87807 15.6277L13.8675 28.2581ZM13.8675 28.2581L13.5916 28.4311L13.8675 28.2581ZM11.9314 22.2647C12.0166 22.2228 12.0503 22.119 12.0084 22.0337M11.9314 22.2647L11.3175 22.5713M11.9314 22.2647L11.9645 22.332L11.4108 22.6085M11.9314 22.2647L11.9649 22.3318L11.9646 22.3319C12.088 22.2711 12.1353 22.1218 12.0757 22.0006L12.0755 22.0004C12.0146 21.8775 11.8638 21.8312 11.7448 21.8902L11.7446 21.8903L11.2533 22.1357M12.0084 22.0337L13.7276 26.0413C13.696 25.9527 13.597 25.9073 13.5076 25.9389L13.0244 26.1149M12.0084 22.0337C11.9664 21.9492 11.8612 21.9162 11.7781 21.9574L12.0084 22.0337ZM11.3175 22.5713C11.5001 23.0783 11.7122 23.5721 11.9399 24.0594L12.0049 24.0212M11.3175 22.5713L11.351 22.6384L11.4108 22.6085M11.3175 22.5713L11.3881 22.5459C11.3956 22.5668 11.4032 22.5877 11.4108 22.6085M12.0049 24.0212C12.0155 24.044 12.0262 24.0667 12.0369 24.0894L12.2819 23.9454C12.3624 23.8973 12.4689 23.9241 12.517 24.0066C12.5658 24.0884 12.5383 24.1943 12.4565 24.2424L12.119 24.441C12.3981 25.0102 12.7026 25.567 13.0244 26.1149M12.0049 24.0212L12.2434 23.8811C12.2435 23.881 12.2436 23.881 12.2437 23.8809C12.3598 23.8116 12.5125 23.8503 12.5816 23.9685C12.6516 24.0862 12.612 24.238 12.4946 24.307C12.4946 24.307 12.4946 24.307 12.4946 24.307L12.2171 24.4704C12.4776 24.9973 12.7599 25.5139 13.0575 26.023M12.0049 24.0212C11.7883 23.5576 11.5864 23.0887 11.4108 22.6085M13.0244 26.1149L13.089 26.0769C13.0785 26.059 13.068 26.041 13.0575 26.023M13.0244 26.1149L12.9987 26.0444L13.0575 26.023M13.0575 26.023L12.2743 15.1791L12.2743 15.1791L12.3163 15.117M11.2533 22.1357C11.1693 21.8846 11.0876 21.6341 11.0187 21.379L11.0187 21.379C10.9392 21.0849 10.8807 20.7904 10.8265 20.494M11.2533 22.1357C11.2613 22.1596 11.2693 22.1835 11.2773 22.2075L11.2533 22.1357ZM10.8265 20.494L11.4613 20.5221L11.4613 20.5222H11.4646H11.4722C11.6033 20.5222 11.713 20.4196 11.719 20.2862L11.719 20.2861C11.7249 20.1495 11.619 20.0354 11.4835 20.0286L11.4831 20.0285L10.7372 19.9955M10.8265 20.494L10.7497 20.4906M10.8265 20.494C10.8219 20.4687 10.8173 20.4435 10.8128 20.4183L11.4646 20.4472L10.7497 20.4906M10.7372 19.9955C10.6528 19.4069 10.6234 18.826 10.6324 18.2548M10.7372 19.9955C10.7402 20.0159 10.7431 20.0362 10.7462 20.0566L10.672 20.0677M10.7372 19.9955L10.6753 19.9928L10.672 20.0677M10.6324 18.2548C10.7021 18.2724 10.802 18.2975 10.9019 18.3223C10.9882 18.3437 11.0747 18.3649 11.1418 18.3808C11.1753 18.3888 11.2044 18.3954 11.2262 18.4002C11.2371 18.4025 11.2466 18.4045 11.2543 18.4059L11.2549 18.406C11.2598 18.407 11.2711 18.4091 11.2811 18.4091C11.3919 18.4091 11.4923 18.3341 11.5208 18.222L11.5209 18.2214C11.5535 18.0892 11.4735 17.956 11.3415 17.9225L11.3412 17.9224L10.64 17.7471M10.6324 18.2548C10.6328 18.2291 10.6333 18.2034 10.6339 18.1778L11.4797 20.1035L10.672 20.0677M10.6324 18.2548C10.5999 18.2465 10.5739 18.2399 10.5577 18.2358C10.5475 18.836 10.5791 19.4474 10.672 20.0677M10.64 17.7471C10.6743 17.2117 10.7598 16.6948 10.8762 16.1925M10.64 17.7471C10.6386 17.7677 10.6374 17.7883 10.6362 17.809L10.5614 17.8048M10.64 17.7471L10.5795 17.732L10.5614 17.8048M10.8762 16.1925L11.5103 16.4999L11.5437 16.4327M10.8762 16.1925C10.8819 16.1675 10.8878 16.1426 10.8937 16.1177M10.8762 16.1925L10.807 16.159C10.6834 16.689 10.5935 17.2362 10.5614 17.8048M11.5437 16.4327L11.511 16.5002L11.5107 16.5C11.6288 16.5584 11.7794 16.512 11.8407 16.3865L11.8409 16.3861C11.8999 16.2631 11.8488 16.1159 11.7262 16.0565L11.7262 16.0565L10.9979 15.7045M11.5437 16.4327L10.8937 16.1177M11.5437 16.4327L10.8937 16.1177M10.9979 15.7045C11.1094 15.3165 11.2384 14.9405 11.3976 14.586M10.9979 15.7045C10.9921 15.7246 10.9864 15.7448 10.9807 15.7649L10.9085 15.7446M10.9979 15.7045L10.9411 15.6771L10.9085 15.7446M11.3976 14.586L12.2742 15.179L12.3163 15.117M11.3976 14.586C11.408 14.5629 11.4186 14.5398 11.4292 14.5168L12.3163 15.117M11.3976 14.586L11.3346 14.5434C11.1626 14.9241 11.0258 15.3285 10.9085 15.7446M12.3163 15.117C12.3933 15.1692 12.5012 15.1514 12.5548 15.0709L11.6935 16.124L10.9085 15.7446M12.5508 14.7702L12.5508 14.7703L12.5088 14.8324L12.5508 14.7702ZM12.5508 14.7702L11.6311 14.148M12.5508 14.7702L11.6311 14.148M11.6311 14.148C11.8946 13.6531 12.1959 13.1909 12.5577 12.788C12.5577 12.788 12.5577 12.788 12.5577 12.788L12.5019 12.7379C12.5652 12.6677 12.5597 12.5584 12.4889 12.4959L12.5391 12.4402C12.4376 12.3486 12.282 12.3587 12.1904 12.4581L12.1898 12.4588C11.8102 12.8802 11.495 13.3615 11.2204 13.8712L10.4728 13.3652L10.4727 13.3652C10.3603 13.2892 10.2072 13.3178 10.1302 13.4312M11.6311 14.148L10.0613 15.2519L10.5465 15.4872C10.6675 15.0792 10.8113 14.6836 10.9852 14.308L10.1962 13.774L10.1959 13.7738C10.0843 13.6974 10.0527 13.5446 10.1302 13.4312M10.1302 13.4312C10.1303 13.4311 10.1303 13.4311 10.1303 13.431L10.1922 13.4734L10.1301 13.4313C10.1302 13.4312 10.1302 13.4312 10.1302 13.4312ZM10.8937 16.1177L11.323 17.9952L10.5614 17.8048M10.7497 20.4906C10.8049 20.7932 10.8645 21.0959 10.9463 21.3986L10.7497 20.4906ZM13.577 28.7319C13.6258 28.8095 13.7296 28.8377 13.8142 28.7862L13.577 28.7319Z" fill="#E42614" stroke="#E42614" stroke-width="0.15"/>
</svg>
