<svg width="36" height="36" viewBox="0 0 36 36" fill="none" xmlns="http://www.w3.org/2000/svg">
<mask id="path-1-outside-1_81_682" maskUnits="userSpaceOnUse" x="1.15991" y="1.16" width="33" height="33" fill="black">
<rect fill="white" x="1.15991" y="1.16" width="33" height="33"/>
<path d="M33.5503 14.9377C33.4438 12.7839 32.6503 12.4413 31.2509 12.4181L27.0957 12.3537C25.9685 10.3984 24.7988 8.36878 23.6865 6.42929C23.9671 5.89516 24.0934 5.3046 24.029 4.74572C23.7271 1.99786 19.9748 1.13207 18.5274 3.69875C17.4363 5.6328 18.7833 7.88416 20.9861 7.99653C21.741 9.51476 22.2415 10.5404 23.1152 12.3012C19.5456 12.2453 16.4408 12.2022 12.692 12.1438L14.7434 7.99653C15.5835 7.95346 16.379 7.57823 16.8938 6.96787C17.6923 6.03179 17.8101 4.77939 17.2007 3.69875C16.572 2.58397 15.3582 1.99638 14.1162 2.19983C12.8752 2.4018 11.8362 3.49629 11.6995 4.74424C11.6347 5.3046 11.7614 5.89615 12.0426 6.43078C10.9614 8.31681 9.87389 10.2023 8.78434 12.0844L5.73254 12.0423C3.29308 11.9973 2.2961 12.6878 2.17185 15.6456C2.07087 17.7202 2.5847 18.8573 4.7029 18.8885C5.04892 22.0725 5.40137 25.2569 5.75482 28.4404C6.13153 31.9046 7.03989 33.1327 10.7907 33.4792C15.583 33.9168 20.4134 33.9564 25.1572 33.5975C28.4169 33.356 29.3441 32.3664 29.8925 29.073L31.636 18.633C33.4047 18.1143 33.6478 16.7589 33.5503 14.9377ZM18.9585 3.94181C20.1688 1.79589 23.287 2.52654 23.5375 4.80117C23.579 5.16352 23.5266 5.54518 23.3885 5.90803C23.3434 5.82932 23.2984 5.75062 23.2523 5.67141L23.2236 5.6229C22.9291 5.12144 22.6246 4.60266 22.146 4.22447C21.1886 3.46708 19.9396 3.71113 19.6515 4.619C19.5402 4.96947 19.5857 5.37391 19.7763 5.72983C20.1812 6.48176 20.2911 6.63819 20.7267 7.47626C19.0338 7.20697 18.1105 5.44519 18.9585 3.94181ZM20.2129 5.49618C19.6763 4.49425 20.8416 3.82696 21.8376 4.61355C22.3999 5.05808 22.4365 5.25758 25.7769 11.0568C27.6343 14.2793 27.857 14.566 27.9615 15.061C28.1936 16.1327 27.1373 16.7643 25.8972 15.6694C24.9067 14.8095 24.2899 13.5611 23.7464 12.4601C23.7444 12.4562 23.7424 12.4522 23.7404 12.4487C23.7399 12.4478 23.7389 12.4463 23.7384 12.4448C19.9466 4.82443 22.096 8.99697 20.2129 5.49618ZM22.0583 12.7804L21.7113 13.1274C21.6871 13.1517 21.6752 13.1829 21.6752 13.2145L21.2282 12.7675C21.5049 12.772 21.7816 12.776 22.0583 12.7804ZM18.4571 12.726L18.3546 12.8284L18.2487 12.7225C18.318 12.7235 18.3873 12.725 18.4571 12.726ZM16.9626 12.7032L16.9245 12.7413L16.8849 12.7017C16.9106 12.7027 16.9368 12.7027 16.9626 12.7032ZM14.5578 12.6671C14.7776 12.6705 14.9969 12.674 15.2167 12.677L15.3067 12.767L14.9003 13.1735C14.8949 13.1626 14.8959 13.1492 14.8865 13.1403L14.4855 12.7393L14.5578 12.6671ZM12.1906 4.80018C12.3039 3.7636 13.1658 2.85623 14.1954 2.68842C15.235 2.5206 16.2438 3.01018 16.769 3.94181C17.1646 4.64276 17.3056 5.72141 16.5161 6.6471C16.1463 7.08519 15.6008 7.37973 15.0048 7.47577C15.3756 6.75897 15.6023 6.38226 15.9527 5.73032C16.7359 4.27001 15.0147 3.09087 13.5816 4.22546C13.1029 4.60365 12.7985 5.12243 12.5039 5.62389L12.3396 5.90853C12.201 5.54518 12.1485 5.16303 12.1906 4.80018ZM13.891 4.61355C14.881 3.83142 16.0513 4.49376 15.5142 5.49618C15.2483 5.9912 14.4261 7.37379 11.9837 12.4591V12.4596L11.9832 12.4606C11.4391 13.5621 10.8228 14.8105 9.83032 15.6713C8.97047 16.4307 8.24923 16.3287 7.92796 15.9545C7.37551 15.3045 8.11458 14.2457 8.47991 13.612C13.397 5.10115 13.2816 5.0957 13.891 4.61355ZM11.6144 14.7932L11.3936 14.5724C11.6084 14.2402 11.804 13.8982 11.9832 13.5571C11.9871 13.5814 11.9926 13.6066 12.0114 13.6254C12.0347 13.6487 12.0658 13.6601 12.0965 13.6606L12.4213 13.9853L11.6144 14.7932ZM11.7634 15.2922C11.7317 15.2922 11.7 15.304 11.6763 15.3283L10.856 16.1485L10.4709 15.7634C10.4669 15.7595 10.4605 15.7604 10.456 15.757C10.7545 15.456 11.0184 15.1273 11.2545 14.7828L11.7634 15.2922ZM12.1054 13.3195C12.2327 13.0705 12.3317 12.8715 12.4485 12.6349C12.4619 12.6349 12.4757 12.6354 12.4891 12.6354L12.6579 12.8042L12.1243 13.3378L12.1054 13.3195ZM9.33134 16.5787L8.95315 16.9569L8.72148 16.7252C8.91008 16.7143 9.02344 16.7079 9.33134 16.5787ZM29.4035 28.9914C28.8797 32.1323 28.0743 32.8837 25.1191 33.1035C20.404 33.4599 15.5978 33.4208 10.8347 32.9857C7.35819 32.6649 6.59982 31.6422 6.24588 28.386C5.89491 25.2173 5.54344 22.0492 5.19891 18.8806C9.8823 18.7608 29.8104 18.9558 31.1133 18.7523L29.4035 28.9914ZM31.3613 18.2014C30.4806 18.4024 5.4182 18.394 4.92169 18.394C3.00101 18.4207 2.56886 17.6588 2.66588 15.6674C2.78023 12.9383 3.60494 12.5007 5.72412 12.5369L8.50218 12.5755C7.79975 13.8086 6.68348 15.2535 7.55174 16.2758C7.75124 16.5074 8.04577 16.6554 8.37001 16.7089C8.40664 16.7688 8.72841 17.0826 8.7784 17.1321L8.65465 17.2559C8.60614 17.3044 8.60614 17.3826 8.65465 17.4311C8.70316 17.4796 8.78137 17.4796 8.82939 17.4311L9.50064 16.7604L9.96695 17.2267C10.0155 17.2752 10.0937 17.2752 10.1417 17.2267C10.1902 17.1782 10.1902 17.1 10.1417 17.0515L9.67538 16.5851L10.3085 15.952L10.6808 16.3243L10.4199 16.5851C10.3714 16.6337 10.3714 16.7119 10.4199 16.7599C10.4684 16.8084 10.5466 16.8084 10.5951 16.7599L10.856 16.499L11.0421 16.6851C11.0906 16.7337 11.1689 16.7337 11.2174 16.6851C11.2659 16.6366 11.2659 16.5584 11.2174 16.5104L11.0312 16.3243L11.8515 15.504C11.8758 15.4798 11.8876 15.4481 11.8876 15.4169L11.9109 15.4407C11.9594 15.4892 12.0376 15.4892 12.0861 15.4407C12.1346 15.3921 12.1346 15.3139 12.0861 15.2654L11.7896 14.9689L12.597 14.1615L12.8831 14.4476C12.9316 14.4962 13.0098 14.4962 13.0579 14.4476C13.1064 14.3991 13.1064 14.3209 13.0579 14.2729L12.7717 13.9868L13.2168 13.5418C13.2653 13.4932 13.2653 13.415 13.2168 13.3665C13.1683 13.318 13.09 13.318 13.0415 13.3665L12.5965 13.8115L12.299 13.514L12.8326 12.9804L13.7316 13.8794C13.7801 13.9279 13.8583 13.9279 13.9068 13.8794C13.9553 13.8308 13.9553 13.7526 13.9068 13.7041L13.0079 12.8052C13.0579 12.7547 13.1168 12.7047 13.1475 12.6463C13.4499 12.6512 13.7524 12.6552 14.0548 12.6601L14.135 12.7403L13.7464 13.1289C13.6979 13.1774 13.6979 13.2556 13.7464 13.3041C13.7949 13.3527 13.8732 13.3527 13.9217 13.3041L14.3103 12.9156L14.7117 13.3165C14.7206 13.3259 14.734 13.3244 14.7449 13.3304L14.5489 13.5264C14.5004 13.5749 14.5004 13.6531 14.5489 13.7016C14.5974 13.7502 14.6756 13.7502 14.7241 13.7016L15.482 12.9438L15.9953 13.4571C16.0438 13.5056 16.122 13.5056 16.1701 13.4571C16.2186 13.4086 16.2186 13.3304 16.1701 13.2819L15.6567 12.7685L15.6859 12.7393C15.7008 12.7245 15.7023 12.7042 15.7082 12.6854C15.9983 12.6898 16.2889 12.6943 16.5789 12.6987C16.5804 12.7284 16.5903 12.7586 16.6131 12.7814L16.7497 12.918L16.2651 13.4027C16.2166 13.4512 16.2166 13.5294 16.2651 13.5774C16.3136 13.6259 16.3918 13.6259 16.4403 13.5774L16.925 13.0928L17.4235 13.5913C17.472 13.6398 17.5502 13.6398 17.5987 13.5913C17.6472 13.5427 17.6472 13.4645 17.5987 13.416L17.1002 12.9175L17.1482 12.8695C17.1928 12.825 17.1918 12.7562 17.1537 12.7076C17.2556 12.7091 17.9531 12.7195 18.015 12.7205C17.9942 12.7661 17.9937 12.8185 18.0313 12.8562L18.1803 13.0047L18.0313 13.1537C17.9828 13.2022 17.9828 13.2804 18.0313 13.3289C18.0799 13.3774 18.1581 13.3774 18.2066 13.3289L18.3551 13.1799L18.7209 13.5457C18.7694 13.5942 18.8476 13.5942 18.8961 13.5457C18.9447 13.4972 18.9447 13.419 18.8961 13.371L18.5303 13.0052L18.8026 12.7329C18.9981 12.7359 19.1932 12.7388 19.3887 12.7418L19.0758 13.0547C19.0273 13.1032 19.0273 13.1814 19.0758 13.2294C19.1243 13.2779 19.2026 13.2779 19.2506 13.2294L19.561 12.919L20.2099 13.568C20.2584 13.6165 20.3367 13.6165 20.3852 13.568C20.4337 13.5195 20.4337 13.4413 20.3852 13.3928L19.7387 12.7468C20.0877 12.7517 20.4362 12.7571 20.7851 12.7626L20.4188 13.1289C20.3703 13.1774 20.3703 13.2556 20.4188 13.3037C20.4673 13.3522 20.5456 13.3522 20.5941 13.3037L21.0089 12.8888C21.0129 12.8938 21.0114 12.9012 21.0158 12.9057L21.5653 13.4551C21.6138 13.5036 21.692 13.5036 21.7405 13.4551C21.7772 13.4185 21.7772 13.3675 21.7579 13.3225C21.8029 13.3398 21.8361 13.3546 21.8871 13.3037L22.2969 12.8938L22.7672 13.364C22.8157 13.4126 22.8939 13.4126 22.9424 13.364C22.991 13.3155 22.991 13.2373 22.9424 13.1888L22.5425 12.7888C22.8162 12.7928 23.0895 12.7967 23.3637 12.8012C23.9142 13.9145 24.5448 15.1516 25.5725 16.0431C27.1858 17.4693 28.7787 16.4931 28.4471 14.959C28.3372 14.4402 28.0931 14.0833 27.3853 12.8547L31.2444 12.9146C32.3414 12.9324 32.9627 13.0413 33.0572 14.9649C33.1448 16.6188 32.9864 17.7955 31.3613 18.2014Z"/>
</mask>
<path d="M33.5503 14.9377C33.4438 12.7839 32.6503 12.4413 31.2509 12.4181L27.0957 12.3537C25.9685 10.3984 24.7988 8.36878 23.6865 6.42929C23.9671 5.89516 24.0934 5.3046 24.029 4.74572C23.7271 1.99786 19.9748 1.13207 18.5274 3.69875C17.4363 5.6328 18.7833 7.88416 20.9861 7.99653C21.741 9.51476 22.2415 10.5404 23.1152 12.3012C19.5456 12.2453 16.4408 12.2022 12.692 12.1438L14.7434 7.99653C15.5835 7.95346 16.379 7.57823 16.8938 6.96787C17.6923 6.03179 17.8101 4.77939 17.2007 3.69875C16.572 2.58397 15.3582 1.99638 14.1162 2.19983C12.8752 2.4018 11.8362 3.49629 11.6995 4.74424C11.6347 5.3046 11.7614 5.89615 12.0426 6.43078C10.9614 8.31681 9.87389 10.2023 8.78434 12.0844L5.73254 12.0423C3.29308 11.9973 2.2961 12.6878 2.17185 15.6456C2.07087 17.7202 2.5847 18.8573 4.7029 18.8885C5.04892 22.0725 5.40137 25.2569 5.75482 28.4404C6.13153 31.9046 7.03989 33.1327 10.7907 33.4792C15.583 33.9168 20.4134 33.9564 25.1572 33.5975C28.4169 33.356 29.3441 32.3664 29.8925 29.073L31.636 18.633C33.4047 18.1143 33.6478 16.7589 33.5503 14.9377ZM18.9585 3.94181C20.1688 1.79589 23.287 2.52654 23.5375 4.80117C23.579 5.16352 23.5266 5.54518 23.3885 5.90803C23.3434 5.82932 23.2984 5.75062 23.2523 5.67141L23.2236 5.6229C22.9291 5.12144 22.6246 4.60266 22.146 4.22447C21.1886 3.46708 19.9396 3.71113 19.6515 4.619C19.5402 4.96947 19.5857 5.37391 19.7763 5.72983C20.1812 6.48176 20.2911 6.63819 20.7267 7.47626C19.0338 7.20697 18.1105 5.44519 18.9585 3.94181ZM20.2129 5.49618C19.6763 4.49425 20.8416 3.82696 21.8376 4.61355C22.3999 5.05808 22.4365 5.25758 25.7769 11.0568C27.6343 14.2793 27.857 14.566 27.9615 15.061C28.1936 16.1327 27.1373 16.7643 25.8972 15.6694C24.9067 14.8095 24.2899 13.5611 23.7464 12.4601C23.7444 12.4562 23.7424 12.4522 23.7404 12.4487C23.7399 12.4478 23.7389 12.4463 23.7384 12.4448C19.9466 4.82443 22.096 8.99697 20.2129 5.49618ZM22.0583 12.7804L21.7113 13.1274C21.6871 13.1517 21.6752 13.1829 21.6752 13.2145L21.2282 12.7675C21.5049 12.772 21.7816 12.776 22.0583 12.7804ZM18.4571 12.726L18.3546 12.8284L18.2487 12.7225C18.318 12.7235 18.3873 12.725 18.4571 12.726ZM16.9626 12.7032L16.9245 12.7413L16.8849 12.7017C16.9106 12.7027 16.9368 12.7027 16.9626 12.7032ZM14.5578 12.6671C14.7776 12.6705 14.9969 12.674 15.2167 12.677L15.3067 12.767L14.9003 13.1735C14.8949 13.1626 14.8959 13.1492 14.8865 13.1403L14.4855 12.7393L14.5578 12.6671ZM12.1906 4.80018C12.3039 3.7636 13.1658 2.85623 14.1954 2.68842C15.235 2.5206 16.2438 3.01018 16.769 3.94181C17.1646 4.64276 17.3056 5.72141 16.5161 6.6471C16.1463 7.08519 15.6008 7.37973 15.0048 7.47577C15.3756 6.75897 15.6023 6.38226 15.9527 5.73032C16.7359 4.27001 15.0147 3.09087 13.5816 4.22546C13.1029 4.60365 12.7985 5.12243 12.5039 5.62389L12.3396 5.90853C12.201 5.54518 12.1485 5.16303 12.1906 4.80018ZM13.891 4.61355C14.881 3.83142 16.0513 4.49376 15.5142 5.49618C15.2483 5.9912 14.4261 7.37379 11.9837 12.4591V12.4596L11.9832 12.4606C11.4391 13.5621 10.8228 14.8105 9.83032 15.6713C8.97047 16.4307 8.24923 16.3287 7.92796 15.9545C7.37551 15.3045 8.11458 14.2457 8.47991 13.612C13.397 5.10115 13.2816 5.0957 13.891 4.61355ZM11.6144 14.7932L11.3936 14.5724C11.6084 14.2402 11.804 13.8982 11.9832 13.5571C11.9871 13.5814 11.9926 13.6066 12.0114 13.6254C12.0347 13.6487 12.0658 13.6601 12.0965 13.6606L12.4213 13.9853L11.6144 14.7932ZM11.7634 15.2922C11.7317 15.2922 11.7 15.304 11.6763 15.3283L10.856 16.1485L10.4709 15.7634C10.4669 15.7595 10.4605 15.7604 10.456 15.757C10.7545 15.456 11.0184 15.1273 11.2545 14.7828L11.7634 15.2922ZM12.1054 13.3195C12.2327 13.0705 12.3317 12.8715 12.4485 12.6349C12.4619 12.6349 12.4757 12.6354 12.4891 12.6354L12.6579 12.8042L12.1243 13.3378L12.1054 13.3195ZM9.33134 16.5787L8.95315 16.9569L8.72148 16.7252C8.91008 16.7143 9.02344 16.7079 9.33134 16.5787ZM29.4035 28.9914C28.8797 32.1323 28.0743 32.8837 25.1191 33.1035C20.404 33.4599 15.5978 33.4208 10.8347 32.9857C7.35819 32.6649 6.59982 31.6422 6.24588 28.386C5.89491 25.2173 5.54344 22.0492 5.19891 18.8806C9.8823 18.7608 29.8104 18.9558 31.1133 18.7523L29.4035 28.9914ZM31.3613 18.2014C30.4806 18.4024 5.4182 18.394 4.92169 18.394C3.00101 18.4207 2.56886 17.6588 2.66588 15.6674C2.78023 12.9383 3.60494 12.5007 5.72412 12.5369L8.50218 12.5755C7.79975 13.8086 6.68348 15.2535 7.55174 16.2758C7.75124 16.5074 8.04577 16.6554 8.37001 16.7089C8.40664 16.7688 8.72841 17.0826 8.7784 17.1321L8.65465 17.2559C8.60614 17.3044 8.60614 17.3826 8.65465 17.4311C8.70316 17.4796 8.78137 17.4796 8.82939 17.4311L9.50064 16.7604L9.96695 17.2267C10.0155 17.2752 10.0937 17.2752 10.1417 17.2267C10.1902 17.1782 10.1902 17.1 10.1417 17.0515L9.67538 16.5851L10.3085 15.952L10.6808 16.3243L10.4199 16.5851C10.3714 16.6337 10.3714 16.7119 10.4199 16.7599C10.4684 16.8084 10.5466 16.8084 10.5951 16.7599L10.856 16.499L11.0421 16.6851C11.0906 16.7337 11.1689 16.7337 11.2174 16.6851C11.2659 16.6366 11.2659 16.5584 11.2174 16.5104L11.0312 16.3243L11.8515 15.504C11.8758 15.4798 11.8876 15.4481 11.8876 15.4169L11.9109 15.4407C11.9594 15.4892 12.0376 15.4892 12.0861 15.4407C12.1346 15.3921 12.1346 15.3139 12.0861 15.2654L11.7896 14.9689L12.597 14.1615L12.8831 14.4476C12.9316 14.4962 13.0098 14.4962 13.0579 14.4476C13.1064 14.3991 13.1064 14.3209 13.0579 14.2729L12.7717 13.9868L13.2168 13.5418C13.2653 13.4932 13.2653 13.415 13.2168 13.3665C13.1683 13.318 13.09 13.318 13.0415 13.3665L12.5965 13.8115L12.299 13.514L12.8326 12.9804L13.7316 13.8794C13.7801 13.9279 13.8583 13.9279 13.9068 13.8794C13.9553 13.8308 13.9553 13.7526 13.9068 13.7041L13.0079 12.8052C13.0579 12.7547 13.1168 12.7047 13.1475 12.6463C13.4499 12.6512 13.7524 12.6552 14.0548 12.6601L14.135 12.7403L13.7464 13.1289C13.6979 13.1774 13.6979 13.2556 13.7464 13.3041C13.7949 13.3527 13.8732 13.3527 13.9217 13.3041L14.3103 12.9156L14.7117 13.3165C14.7206 13.3259 14.734 13.3244 14.7449 13.3304L14.5489 13.5264C14.5004 13.5749 14.5004 13.6531 14.5489 13.7016C14.5974 13.7502 14.6756 13.7502 14.7241 13.7016L15.482 12.9438L15.9953 13.4571C16.0438 13.5056 16.122 13.5056 16.1701 13.4571C16.2186 13.4086 16.2186 13.3304 16.1701 13.2819L15.6567 12.7685L15.6859 12.7393C15.7008 12.7245 15.7023 12.7042 15.7082 12.6854C15.9983 12.6898 16.2889 12.6943 16.5789 12.6987C16.5804 12.7284 16.5903 12.7586 16.6131 12.7814L16.7497 12.918L16.2651 13.4027C16.2166 13.4512 16.2166 13.5294 16.2651 13.5774C16.3136 13.6259 16.3918 13.6259 16.4403 13.5774L16.925 13.0928L17.4235 13.5913C17.472 13.6398 17.5502 13.6398 17.5987 13.5913C17.6472 13.5427 17.6472 13.4645 17.5987 13.416L17.1002 12.9175L17.1482 12.8695C17.1928 12.825 17.1918 12.7562 17.1537 12.7076C17.2556 12.7091 17.9531 12.7195 18.015 12.7205C17.9942 12.7661 17.9937 12.8185 18.0313 12.8562L18.1803 13.0047L18.0313 13.1537C17.9828 13.2022 17.9828 13.2804 18.0313 13.3289C18.0799 13.3774 18.1581 13.3774 18.2066 13.3289L18.3551 13.1799L18.7209 13.5457C18.7694 13.5942 18.8476 13.5942 18.8961 13.5457C18.9447 13.4972 18.9447 13.419 18.8961 13.371L18.5303 13.0052L18.8026 12.7329C18.9981 12.7359 19.1932 12.7388 19.3887 12.7418L19.0758 13.0547C19.0273 13.1032 19.0273 13.1814 19.0758 13.2294C19.1243 13.2779 19.2026 13.2779 19.2506 13.2294L19.561 12.919L20.2099 13.568C20.2584 13.6165 20.3367 13.6165 20.3852 13.568C20.4337 13.5195 20.4337 13.4413 20.3852 13.3928L19.7387 12.7468C20.0877 12.7517 20.4362 12.7571 20.7851 12.7626L20.4188 13.1289C20.3703 13.1774 20.3703 13.2556 20.4188 13.3037C20.4673 13.3522 20.5456 13.3522 20.5941 13.3037L21.0089 12.8888C21.0129 12.8938 21.0114 12.9012 21.0158 12.9057L21.5653 13.4551C21.6138 13.5036 21.692 13.5036 21.7405 13.4551C21.7772 13.4185 21.7772 13.3675 21.7579 13.3225C21.8029 13.3398 21.8361 13.3546 21.8871 13.3037L22.2969 12.8938L22.7672 13.364C22.8157 13.4126 22.8939 13.4126 22.9424 13.364C22.991 13.3155 22.991 13.2373 22.9424 13.1888L22.5425 12.7888C22.8162 12.7928 23.0895 12.7967 23.3637 12.8012C23.9142 13.9145 24.5448 15.1516 25.5725 16.0431C27.1858 17.4693 28.7787 16.4931 28.4471 14.959C28.3372 14.4402 28.0931 14.0833 27.3853 12.8547L31.2444 12.9146C32.3414 12.9324 32.9627 13.0413 33.0572 14.9649C33.1448 16.6188 32.9864 17.7955 31.3613 18.2014Z" fill="white"/>
<path d="M33.5503 14.9377C33.4438 12.7839 32.6503 12.4413 31.2509 12.4181L27.0957 12.3537C25.9685 10.3984 24.7988 8.36878 23.6865 6.42929C23.9671 5.89516 24.0934 5.3046 24.029 4.74572C23.7271 1.99786 19.9748 1.13207 18.5274 3.69875C17.4363 5.6328 18.7833 7.88416 20.9861 7.99653C21.741 9.51476 22.2415 10.5404 23.1152 12.3012C19.5456 12.2453 16.4408 12.2022 12.692 12.1438L14.7434 7.99653C15.5835 7.95346 16.379 7.57823 16.8938 6.96787C17.6923 6.03179 17.8101 4.77939 17.2007 3.69875C16.572 2.58397 15.3582 1.99638 14.1162 2.19983C12.8752 2.4018 11.8362 3.49629 11.6995 4.74424C11.6347 5.3046 11.7614 5.89615 12.0426 6.43078C10.9614 8.31681 9.87389 10.2023 8.78434 12.0844L5.73254 12.0423C3.29308 11.9973 2.2961 12.6878 2.17185 15.6456C2.07087 17.7202 2.5847 18.8573 4.7029 18.8885C5.04892 22.0725 5.40137 25.2569 5.75482 28.4404C6.13153 31.9046 7.03989 33.1327 10.7907 33.4792C15.583 33.9168 20.4134 33.9564 25.1572 33.5975C28.4169 33.356 29.3441 32.3664 29.8925 29.073L31.636 18.633C33.4047 18.1143 33.6478 16.7589 33.5503 14.9377ZM18.9585 3.94181C20.1688 1.79589 23.287 2.52654 23.5375 4.80117C23.579 5.16352 23.5266 5.54518 23.3885 5.90803C23.3434 5.82932 23.2984 5.75062 23.2523 5.67141L23.2236 5.6229C22.9291 5.12144 22.6246 4.60266 22.146 4.22447C21.1886 3.46708 19.9396 3.71113 19.6515 4.619C19.5402 4.96947 19.5857 5.37391 19.7763 5.72983C20.1812 6.48176 20.2911 6.63819 20.7267 7.47626C19.0338 7.20697 18.1105 5.44519 18.9585 3.94181ZM20.2129 5.49618C19.6763 4.49425 20.8416 3.82696 21.8376 4.61355C22.3999 5.05808 22.4365 5.25758 25.7769 11.0568C27.6343 14.2793 27.857 14.566 27.9615 15.061C28.1936 16.1327 27.1373 16.7643 25.8972 15.6694C24.9067 14.8095 24.2899 13.5611 23.7464 12.4601C23.7444 12.4562 23.7424 12.4522 23.7404 12.4487C23.7399 12.4478 23.7389 12.4463 23.7384 12.4448C19.9466 4.82443 22.096 8.99697 20.2129 5.49618ZM22.0583 12.7804L21.7113 13.1274C21.6871 13.1517 21.6752 13.1829 21.6752 13.2145L21.2282 12.7675C21.5049 12.772 21.7816 12.776 22.0583 12.7804ZM18.4571 12.726L18.3546 12.8284L18.2487 12.7225C18.318 12.7235 18.3873 12.725 18.4571 12.726ZM16.9626 12.7032L16.9245 12.7413L16.8849 12.7017C16.9106 12.7027 16.9368 12.7027 16.9626 12.7032ZM14.5578 12.6671C14.7776 12.6705 14.9969 12.674 15.2167 12.677L15.3067 12.767L14.9003 13.1735C14.8949 13.1626 14.8959 13.1492 14.8865 13.1403L14.4855 12.7393L14.5578 12.6671ZM12.1906 4.80018C12.3039 3.7636 13.1658 2.85623 14.1954 2.68842C15.235 2.5206 16.2438 3.01018 16.769 3.94181C17.1646 4.64276 17.3056 5.72141 16.5161 6.6471C16.1463 7.08519 15.6008 7.37973 15.0048 7.47577C15.3756 6.75897 15.6023 6.38226 15.9527 5.73032C16.7359 4.27001 15.0147 3.09087 13.5816 4.22546C13.1029 4.60365 12.7985 5.12243 12.5039 5.62389L12.3396 5.90853C12.201 5.54518 12.1485 5.16303 12.1906 4.80018ZM13.891 4.61355C14.881 3.83142 16.0513 4.49376 15.5142 5.49618C15.2483 5.9912 14.4261 7.37379 11.9837 12.4591V12.4596L11.9832 12.4606C11.4391 13.5621 10.8228 14.8105 9.83032 15.6713C8.97047 16.4307 8.24923 16.3287 7.92796 15.9545C7.37551 15.3045 8.11458 14.2457 8.47991 13.612C13.397 5.10115 13.2816 5.0957 13.891 4.61355ZM11.6144 14.7932L11.3936 14.5724C11.6084 14.2402 11.804 13.8982 11.9832 13.5571C11.9871 13.5814 11.9926 13.6066 12.0114 13.6254C12.0347 13.6487 12.0658 13.6601 12.0965 13.6606L12.4213 13.9853L11.6144 14.7932ZM11.7634 15.2922C11.7317 15.2922 11.7 15.304 11.6763 15.3283L10.856 16.1485L10.4709 15.7634C10.4669 15.7595 10.4605 15.7604 10.456 15.757C10.7545 15.456 11.0184 15.1273 11.2545 14.7828L11.7634 15.2922ZM12.1054 13.3195C12.2327 13.0705 12.3317 12.8715 12.4485 12.6349C12.4619 12.6349 12.4757 12.6354 12.4891 12.6354L12.6579 12.8042L12.1243 13.3378L12.1054 13.3195ZM9.33134 16.5787L8.95315 16.9569L8.72148 16.7252C8.91008 16.7143 9.02344 16.7079 9.33134 16.5787ZM29.4035 28.9914C28.8797 32.1323 28.0743 32.8837 25.1191 33.1035C20.404 33.4599 15.5978 33.4208 10.8347 32.9857C7.35819 32.6649 6.59982 31.6422 6.24588 28.386C5.89491 25.2173 5.54344 22.0492 5.19891 18.8806C9.8823 18.7608 29.8104 18.9558 31.1133 18.7523L29.4035 28.9914ZM31.3613 18.2014C30.4806 18.4024 5.4182 18.394 4.92169 18.394C3.00101 18.4207 2.56886 17.6588 2.66588 15.6674C2.78023 12.9383 3.60494 12.5007 5.72412 12.5369L8.50218 12.5755C7.79975 13.8086 6.68348 15.2535 7.55174 16.2758C7.75124 16.5074 8.04577 16.6554 8.37001 16.7089C8.40664 16.7688 8.72841 17.0826 8.7784 17.1321L8.65465 17.2559C8.60614 17.3044 8.60614 17.3826 8.65465 17.4311C8.70316 17.4796 8.78137 17.4796 8.82939 17.4311L9.50064 16.7604L9.96695 17.2267C10.0155 17.2752 10.0937 17.2752 10.1417 17.2267C10.1902 17.1782 10.1902 17.1 10.1417 17.0515L9.67538 16.5851L10.3085 15.952L10.6808 16.3243L10.4199 16.5851C10.3714 16.6337 10.3714 16.7119 10.4199 16.7599C10.4684 16.8084 10.5466 16.8084 10.5951 16.7599L10.856 16.499L11.0421 16.6851C11.0906 16.7337 11.1689 16.7337 11.2174 16.6851C11.2659 16.6366 11.2659 16.5584 11.2174 16.5104L11.0312 16.3243L11.8515 15.504C11.8758 15.4798 11.8876 15.4481 11.8876 15.4169L11.9109 15.4407C11.9594 15.4892 12.0376 15.4892 12.0861 15.4407C12.1346 15.3921 12.1346 15.3139 12.0861 15.2654L11.7896 14.9689L12.597 14.1615L12.8831 14.4476C12.9316 14.4962 13.0098 14.4962 13.0579 14.4476C13.1064 14.3991 13.1064 14.3209 13.0579 14.2729L12.7717 13.9868L13.2168 13.5418C13.2653 13.4932 13.2653 13.415 13.2168 13.3665C13.1683 13.318 13.09 13.318 13.0415 13.3665L12.5965 13.8115L12.299 13.514L12.8326 12.9804L13.7316 13.8794C13.7801 13.9279 13.8583 13.9279 13.9068 13.8794C13.9553 13.8308 13.9553 13.7526 13.9068 13.7041L13.0079 12.8052C13.0579 12.7547 13.1168 12.7047 13.1475 12.6463C13.4499 12.6512 13.7524 12.6552 14.0548 12.6601L14.135 12.7403L13.7464 13.1289C13.6979 13.1774 13.6979 13.2556 13.7464 13.3041C13.7949 13.3527 13.8732 13.3527 13.9217 13.3041L14.3103 12.9156L14.7117 13.3165C14.7206 13.3259 14.734 13.3244 14.7449 13.3304L14.5489 13.5264C14.5004 13.5749 14.5004 13.6531 14.5489 13.7016C14.5974 13.7502 14.6756 13.7502 14.7241 13.7016L15.482 12.9438L15.9953 13.4571C16.0438 13.5056 16.122 13.5056 16.1701 13.4571C16.2186 13.4086 16.2186 13.3304 16.1701 13.2819L15.6567 12.7685L15.6859 12.7393C15.7008 12.7245 15.7023 12.7042 15.7082 12.6854C15.9983 12.6898 16.2889 12.6943 16.5789 12.6987C16.5804 12.7284 16.5903 12.7586 16.6131 12.7814L16.7497 12.918L16.2651 13.4027C16.2166 13.4512 16.2166 13.5294 16.2651 13.5774C16.3136 13.6259 16.3918 13.6259 16.4403 13.5774L16.925 13.0928L17.4235 13.5913C17.472 13.6398 17.5502 13.6398 17.5987 13.5913C17.6472 13.5427 17.6472 13.4645 17.5987 13.416L17.1002 12.9175L17.1482 12.8695C17.1928 12.825 17.1918 12.7562 17.1537 12.7076C17.2556 12.7091 17.9531 12.7195 18.015 12.7205C17.9942 12.7661 17.9937 12.8185 18.0313 12.8562L18.1803 13.0047L18.0313 13.1537C17.9828 13.2022 17.9828 13.2804 18.0313 13.3289C18.0799 13.3774 18.1581 13.3774 18.2066 13.3289L18.3551 13.1799L18.7209 13.5457C18.7694 13.5942 18.8476 13.5942 18.8961 13.5457C18.9447 13.4972 18.9447 13.419 18.8961 13.371L18.5303 13.0052L18.8026 12.7329C18.9981 12.7359 19.1932 12.7388 19.3887 12.7418L19.0758 13.0547C19.0273 13.1032 19.0273 13.1814 19.0758 13.2294C19.1243 13.2779 19.2026 13.2779 19.2506 13.2294L19.561 12.919L20.2099 13.568C20.2584 13.6165 20.3367 13.6165 20.3852 13.568C20.4337 13.5195 20.4337 13.4413 20.3852 13.3928L19.7387 12.7468C20.0877 12.7517 20.4362 12.7571 20.7851 12.7626L20.4188 13.1289C20.3703 13.1774 20.3703 13.2556 20.4188 13.3037C20.4673 13.3522 20.5456 13.3522 20.5941 13.3037L21.0089 12.8888C21.0129 12.8938 21.0114 12.9012 21.0158 12.9057L21.5653 13.4551C21.6138 13.5036 21.692 13.5036 21.7405 13.4551C21.7772 13.4185 21.7772 13.3675 21.7579 13.3225C21.8029 13.3398 21.8361 13.3546 21.8871 13.3037L22.2969 12.8938L22.7672 13.364C22.8157 13.4126 22.8939 13.4126 22.9424 13.364C22.991 13.3155 22.991 13.2373 22.9424 13.1888L22.5425 12.7888C22.8162 12.7928 23.0895 12.7967 23.3637 12.8012C23.9142 13.9145 24.5448 15.1516 25.5725 16.0431C27.1858 17.4693 28.7787 16.4931 28.4471 14.959C28.3372 14.4402 28.0931 14.0833 27.3853 12.8547L31.2444 12.9146C32.3414 12.9324 32.9627 13.0413 33.0572 14.9649C33.1448 16.6188 32.9864 17.7955 31.3613 18.2014Z" stroke="white" stroke-width="0.3" mask="url(#path-1-outside-1_81_682)"/>
<path d="M21.6716 5.21469L21.6716 5.21469L21.6716 5.21442C21.6377 5.08729 21.5596 5.00307 21.4625 4.96016C21.3678 4.9183 21.2602 4.91788 21.1658 4.94561C21.0717 4.97328 20.9831 5.03124 20.9302 5.11572C20.8771 5.20042 20.8639 5.30591 20.9095 5.41746C20.9251 5.53692 20.9888 5.62208 21.0768 5.6694C21.1645 5.71661 21.2702 5.72305 21.3656 5.70034C21.4614 5.67756 21.5545 5.6237 21.616 5.5401C21.679 5.45444 21.7051 5.3423 21.6716 5.21469Z" fill="white" stroke="white" stroke-width="0.15"/>
<path d="M14.0556 5.21532L14.0556 5.21532L14.0555 5.21564C14.0216 5.34422 14.0472 5.45669 14.1106 5.54231C14.1724 5.6258 14.2662 5.6786 14.3621 5.70034C14.4579 5.72203 14.5635 5.71453 14.651 5.66737C14.7386 5.62016 14.8026 5.53578 14.8181 5.4175C14.8637 5.30564 14.8508 5.20004 14.7976 5.11533C14.7446 5.03088 14.6558 4.97332 14.5616 4.94608C14.4671 4.91878 14.3596 4.91969 14.2649 4.96166C14.1679 5.00465 14.0896 5.08863 14.0556 5.21532Z" fill="white" stroke="white" stroke-width="0.15"/>
<path d="M27.0748 15.1701L27.0747 15.1702C26.9873 15.26 26.8684 15.3058 26.7472 15.3058C26.6644 15.3058 26.5806 15.2841 26.5048 15.2419L26.5042 15.2415L26.5042 15.2415C26.3935 15.1784 26.3295 15.056 26.3424 14.9287L26.3424 14.9288L26.417 14.9363L26.3424 14.9287L26.3548 14.8055L26.3549 14.8043L26.3549 14.8043C26.3576 14.7811 26.3624 14.7578 26.37 14.735C26.3774 14.6852 26.3965 14.6359 26.4289 14.5918L27.0748 15.1701ZM27.0748 15.1701C27.1735 15.0684 27.2148 14.9184 27.1844 14.7783M27.0748 15.1701L26.9356 14.4817M26.9356 14.4817L26.9356 14.4817C27.063 14.5309 27.1551 14.6432 27.1844 14.7783M26.9356 14.4817L26.9349 14.4814M26.9356 14.4817L26.9349 14.4814M27.1844 14.7783L27.1111 14.7942L27.1843 14.7783C27.1843 14.7783 27.1843 14.7783 27.1844 14.7783ZM26.9349 14.4814L26.927 14.4784M26.9349 14.4814L26.927 14.4784M26.927 14.4784C26.8898 14.4597 26.8487 14.4459 26.8049 14.4393M26.927 14.4784L26.805 14.4393C26.8049 14.4393 26.8049 14.4393 26.8049 14.4393M26.8049 14.4393C26.6608 14.4176 26.515 14.4748 26.4289 14.5918L26.8049 14.4393Z" fill="white" stroke="white" stroke-width="0.15"/>
<path d="M9.59906 14.7776C9.63053 14.9225 9.58978 15.0486 9.51133 15.1412C9.43438 15.2321 9.32251 15.2895 9.2097 15.3058C9.09684 15.322 8.97471 15.2979 8.88498 15.2135C8.79404 15.128 8.74971 14.9933 8.76752 14.8162L8.77472 14.7447L8.78019 14.745C8.78607 14.6662 8.81865 14.5992 8.87052 14.5481C8.93916 14.4805 9.03544 14.4466 9.13127 14.4413C9.32086 14.4309 9.54622 14.5337 9.59906 14.7776ZM9.59906 14.7776C9.59906 14.7777 9.59907 14.7777 9.59907 14.7777L9.52577 14.7936M9.59906 14.7776L9.52577 14.7936M9.52577 14.7936C9.62642 15.2569 8.84551 15.4521 8.83867 14.8987L8.83774 14.8986L8.83869 14.8825M9.52577 14.7936L8.83869 14.8825M8.83869 14.8825C8.83894 14.865 8.83995 14.8467 8.84176 14.8277L8.83869 14.8825Z" fill="white" stroke="white" stroke-width="0.15"/>
<mask id="path-6-outside-2_81_682" maskUnits="userSpaceOnUse" x="22.2336" y="19.6933" width="7" height="11" fill="black">
<rect fill="white" x="22.2336" y="19.6933" width="7" height="11"/>
<path d="M26.9189 20.6987C26.0482 20.6774 24.7255 20.6437 24.2894 22.2372C24.232 22.4481 24.0751 23.3921 23.8246 24.9153C23.6365 26.0603 23.43 27.3112 23.2845 28.1007C23.0885 29.164 23.4503 29.6096 24.523 29.663C25.5299 29.713 25.9834 29.5318 26.4422 28.4205C27.2427 26.486 27.8441 24.4608 28.2312 22.4016C28.4634 21.1665 27.9917 20.7269 26.9189 20.6987ZM27.5219 21.2952L27.2937 21.5234L27.1333 21.363C27.158 21.316 27.1595 21.2595 27.1199 21.2199C27.1076 21.2076 27.0902 21.2076 27.0749 21.2016C27.2437 21.2115 27.3996 21.2348 27.5219 21.2952ZM26.9977 21.1982C26.9902 21.2006 26.9833 21.2031 26.9764 21.2071L26.966 21.1967C26.9769 21.1972 26.9873 21.1977 26.9977 21.1982ZM26.6115 21.1917L26.7922 21.3724L26.4947 21.6694L26.0452 21.2199C26.2225 21.1967 26.4135 21.1912 26.6115 21.1917ZM24.7671 22.3679C24.8161 22.1882 24.9067 21.9664 25.0507 21.7674L25.3418 22.0585L24.7433 22.657C24.7245 22.6753 24.7196 22.7001 24.7156 22.7243L24.6988 22.7075C24.7295 22.5387 24.7532 22.4184 24.7671 22.3679ZM24.6458 23.0045L25.1052 23.4639L24.4592 24.1099C24.528 23.6936 24.5928 23.3094 24.6458 23.0045ZM24.3132 24.996C24.3443 24.8064 24.3755 24.6168 24.4067 24.4297L24.8245 24.8475L24.3582 25.3138L24.2745 25.2301C24.2874 25.1519 24.3003 25.0732 24.3132 24.996ZM24.0582 26.533L24.1716 26.6464L24.0122 26.8058C24.028 26.7162 24.0429 26.6251 24.0582 26.533ZM23.8751 27.6092L24.3518 28.0859L24.0656 28.372L23.8835 28.1898C23.8538 28.1601 23.8147 28.1552 23.7766 28.1616C23.8067 27.9958 23.8399 27.8092 23.8751 27.6092ZM23.7384 28.3948L23.8909 28.5472L23.734 28.7042C23.7231 28.6071 23.7241 28.5032 23.7384 28.3948ZM27.7451 22.3105C27.3645 24.3361 26.7724 26.3286 25.9848 28.2314C25.617 29.121 25.3661 29.2091 24.5473 29.1685C24.274 29.1551 23.9741 29.1239 23.8295 28.9581L24.0651 28.7225L24.2369 28.8943C24.2854 28.9428 24.3636 28.9428 24.4117 28.8943C24.4602 28.8457 24.4602 28.7675 24.4117 28.719L24.2399 28.5472L24.526 28.2611L24.5537 28.2888C24.6022 28.3374 24.6805 28.3374 24.7285 28.2888C24.777 28.2403 24.777 28.1621 24.7285 28.1136L24.7008 28.0859L24.9894 27.7973C25.0379 27.7488 25.0379 27.6706 24.9894 27.622C24.8611 27.4938 24.6636 27.773 24.526 27.9106L23.9949 27.38C23.9741 27.3592 23.9463 27.3513 23.9191 27.3488C23.926 27.3087 23.933 27.2686 23.9399 27.2275L24.3458 26.8216L24.6324 27.1082C24.681 27.1567 24.7592 27.1567 24.8077 27.1082C24.8562 27.0597 24.8562 26.9815 24.8077 26.933L24.5211 26.6464L24.8948 26.2726C24.9433 26.2241 24.9433 26.1459 24.8948 26.0974C24.8463 26.0489 24.7681 26.0489 24.7196 26.0974L24.3458 26.4711L24.1077 26.233C24.129 26.1058 24.1503 25.9776 24.1716 25.8489L24.3572 25.6632L24.676 25.982C24.7245 26.0306 24.8027 26.0306 24.8512 25.982C24.8998 25.9335 24.8998 25.8553 24.8512 25.8068L24.5324 25.488L25.0151 25.0054C25.0577 25.0168 25.0859 25.0286 25.1329 24.9816C25.1656 24.9489 25.1681 24.9054 25.1567 24.8638L25.1908 24.8296C25.2393 24.7811 25.2393 24.7029 25.1908 24.6544C25.1423 24.6059 25.0641 24.6059 25.0156 24.6544L24.9983 24.6717L24.622 24.2955L25.2789 23.6386L25.3695 23.7292C25.418 23.7777 25.4963 23.7777 25.5448 23.7292C25.5933 23.6807 25.5933 23.6025 25.5448 23.554L25.4542 23.4634L25.5359 23.3817C25.5844 23.3332 25.5844 23.255 25.5359 23.2065C25.4873 23.1579 25.4091 23.1579 25.3606 23.2065L25.2789 23.2881L24.8498 22.859C24.874 22.8545 24.8983 22.8495 24.9171 22.8312L25.5156 22.2328L25.8324 22.5496C25.8809 22.5981 25.9591 22.5981 26.0076 22.5496C26.0561 22.5011 26.0561 22.4228 26.0076 22.3743L25.6908 22.0575L25.7032 22.0451C25.7517 21.9966 25.7517 21.9184 25.7032 21.8699C25.6547 21.8214 25.5765 21.8214 25.5284 21.8699L25.5161 21.8823L25.2151 21.5813C25.3477 21.4561 25.4314 21.3769 25.7601 21.2843L26.3274 21.8516C26.2997 21.8991 26.2987 21.958 26.3393 21.9986C26.3903 22.0496 26.4368 22.0392 26.4863 22.01C26.5927 22.1154 26.767 21.9739 26.666 21.8471L26.967 21.5462L27.262 21.8412C27.3105 21.8897 27.3887 21.8897 27.4372 21.8412C27.4734 21.8051 27.4734 21.7551 27.4555 21.7105L27.7001 21.466C27.8298 21.6793 27.8021 22.005 27.7451 22.3105Z"/>
</mask>
<path d="M26.9189 20.6987C26.0482 20.6774 24.7255 20.6437 24.2894 22.2372C24.232 22.4481 24.0751 23.3921 23.8246 24.9153C23.6365 26.0603 23.43 27.3112 23.2845 28.1007C23.0885 29.164 23.4503 29.6096 24.523 29.663C25.5299 29.713 25.9834 29.5318 26.4422 28.4205C27.2427 26.486 27.8441 24.4608 28.2312 22.4016C28.4634 21.1665 27.9917 20.7269 26.9189 20.6987ZM27.5219 21.2952L27.2937 21.5234L27.1333 21.363C27.158 21.316 27.1595 21.2595 27.1199 21.2199C27.1076 21.2076 27.0902 21.2076 27.0749 21.2016C27.2437 21.2115 27.3996 21.2348 27.5219 21.2952ZM26.9977 21.1982C26.9902 21.2006 26.9833 21.2031 26.9764 21.2071L26.966 21.1967C26.9769 21.1972 26.9873 21.1977 26.9977 21.1982ZM26.6115 21.1917L26.7922 21.3724L26.4947 21.6694L26.0452 21.2199C26.2225 21.1967 26.4135 21.1912 26.6115 21.1917ZM24.7671 22.3679C24.8161 22.1882 24.9067 21.9664 25.0507 21.7674L25.3418 22.0585L24.7433 22.657C24.7245 22.6753 24.7196 22.7001 24.7156 22.7243L24.6988 22.7075C24.7295 22.5387 24.7532 22.4184 24.7671 22.3679ZM24.6458 23.0045L25.1052 23.4639L24.4592 24.1099C24.528 23.6936 24.5928 23.3094 24.6458 23.0045ZM24.3132 24.996C24.3443 24.8064 24.3755 24.6168 24.4067 24.4297L24.8245 24.8475L24.3582 25.3138L24.2745 25.2301C24.2874 25.1519 24.3003 25.0732 24.3132 24.996ZM24.0582 26.533L24.1716 26.6464L24.0122 26.8058C24.028 26.7162 24.0429 26.6251 24.0582 26.533ZM23.8751 27.6092L24.3518 28.0859L24.0656 28.372L23.8835 28.1898C23.8538 28.1601 23.8147 28.1552 23.7766 28.1616C23.8067 27.9958 23.8399 27.8092 23.8751 27.6092ZM23.7384 28.3948L23.8909 28.5472L23.734 28.7042C23.7231 28.6071 23.7241 28.5032 23.7384 28.3948ZM27.7451 22.3105C27.3645 24.3361 26.7724 26.3286 25.9848 28.2314C25.617 29.121 25.3661 29.2091 24.5473 29.1685C24.274 29.1551 23.9741 29.1239 23.8295 28.9581L24.0651 28.7225L24.2369 28.8943C24.2854 28.9428 24.3636 28.9428 24.4117 28.8943C24.4602 28.8457 24.4602 28.7675 24.4117 28.719L24.2399 28.5472L24.526 28.2611L24.5537 28.2888C24.6022 28.3374 24.6805 28.3374 24.7285 28.2888C24.777 28.2403 24.777 28.1621 24.7285 28.1136L24.7008 28.0859L24.9894 27.7973C25.0379 27.7488 25.0379 27.6706 24.9894 27.622C24.8611 27.4938 24.6636 27.773 24.526 27.9106L23.9949 27.38C23.9741 27.3592 23.9463 27.3513 23.9191 27.3488C23.926 27.3087 23.933 27.2686 23.9399 27.2275L24.3458 26.8216L24.6324 27.1082C24.681 27.1567 24.7592 27.1567 24.8077 27.1082C24.8562 27.0597 24.8562 26.9815 24.8077 26.933L24.5211 26.6464L24.8948 26.2726C24.9433 26.2241 24.9433 26.1459 24.8948 26.0974C24.8463 26.0489 24.7681 26.0489 24.7196 26.0974L24.3458 26.4711L24.1077 26.233C24.129 26.1058 24.1503 25.9776 24.1716 25.8489L24.3572 25.6632L24.676 25.982C24.7245 26.0306 24.8027 26.0306 24.8512 25.982C24.8998 25.9335 24.8998 25.8553 24.8512 25.8068L24.5324 25.488L25.0151 25.0054C25.0577 25.0168 25.0859 25.0286 25.1329 24.9816C25.1656 24.9489 25.1681 24.9054 25.1567 24.8638L25.1908 24.8296C25.2393 24.7811 25.2393 24.7029 25.1908 24.6544C25.1423 24.6059 25.0641 24.6059 25.0156 24.6544L24.9983 24.6717L24.622 24.2955L25.2789 23.6386L25.3695 23.7292C25.418 23.7777 25.4963 23.7777 25.5448 23.7292C25.5933 23.6807 25.5933 23.6025 25.5448 23.554L25.4542 23.4634L25.5359 23.3817C25.5844 23.3332 25.5844 23.255 25.5359 23.2065C25.4873 23.1579 25.4091 23.1579 25.3606 23.2065L25.2789 23.2881L24.8498 22.859C24.874 22.8545 24.8983 22.8495 24.9171 22.8312L25.5156 22.2328L25.8324 22.5496C25.8809 22.5981 25.9591 22.5981 26.0076 22.5496C26.0561 22.5011 26.0561 22.4228 26.0076 22.3743L25.6908 22.0575L25.7032 22.0451C25.7517 21.9966 25.7517 21.9184 25.7032 21.8699C25.6547 21.8214 25.5765 21.8214 25.5284 21.8699L25.5161 21.8823L25.2151 21.5813C25.3477 21.4561 25.4314 21.3769 25.7601 21.2843L26.3274 21.8516C26.2997 21.8991 26.2987 21.958 26.3393 21.9986C26.3903 22.0496 26.4368 22.0392 26.4863 22.01C26.5927 22.1154 26.767 21.9739 26.666 21.8471L26.967 21.5462L27.262 21.8412C27.3105 21.8897 27.3887 21.8897 27.4372 21.8412C27.4734 21.8051 27.4734 21.7551 27.4555 21.7105L27.7001 21.466C27.8298 21.6793 27.8021 22.005 27.7451 22.3105Z" fill="white"/>
<path d="M26.9189 20.6987C26.0482 20.6774 24.7255 20.6437 24.2894 22.2372C24.232 22.4481 24.0751 23.3921 23.8246 24.9153C23.6365 26.0603 23.43 27.3112 23.2845 28.1007C23.0885 29.164 23.4503 29.6096 24.523 29.663C25.5299 29.713 25.9834 29.5318 26.4422 28.4205C27.2427 26.486 27.8441 24.4608 28.2312 22.4016C28.4634 21.1665 27.9917 20.7269 26.9189 20.6987ZM27.5219 21.2952L27.2937 21.5234L27.1333 21.363C27.158 21.316 27.1595 21.2595 27.1199 21.2199C27.1076 21.2076 27.0902 21.2076 27.0749 21.2016C27.2437 21.2115 27.3996 21.2348 27.5219 21.2952ZM26.9977 21.1982C26.9902 21.2006 26.9833 21.2031 26.9764 21.2071L26.966 21.1967C26.9769 21.1972 26.9873 21.1977 26.9977 21.1982ZM26.6115 21.1917L26.7922 21.3724L26.4947 21.6694L26.0452 21.2199C26.2225 21.1967 26.4135 21.1912 26.6115 21.1917ZM24.7671 22.3679C24.8161 22.1882 24.9067 21.9664 25.0507 21.7674L25.3418 22.0585L24.7433 22.657C24.7245 22.6753 24.7196 22.7001 24.7156 22.7243L24.6988 22.7075C24.7295 22.5387 24.7532 22.4184 24.7671 22.3679ZM24.6458 23.0045L25.1052 23.4639L24.4592 24.1099C24.528 23.6936 24.5928 23.3094 24.6458 23.0045ZM24.3132 24.996C24.3443 24.8064 24.3755 24.6168 24.4067 24.4297L24.8245 24.8475L24.3582 25.3138L24.2745 25.2301C24.2874 25.1519 24.3003 25.0732 24.3132 24.996ZM24.0582 26.533L24.1716 26.6464L24.0122 26.8058C24.028 26.7162 24.0429 26.6251 24.0582 26.533ZM23.8751 27.6092L24.3518 28.0859L24.0656 28.372L23.8835 28.1898C23.8538 28.1601 23.8147 28.1552 23.7766 28.1616C23.8067 27.9958 23.8399 27.8092 23.8751 27.6092ZM23.7384 28.3948L23.8909 28.5472L23.734 28.7042C23.7231 28.6071 23.7241 28.5032 23.7384 28.3948ZM27.7451 22.3105C27.3645 24.3361 26.7724 26.3286 25.9848 28.2314C25.617 29.121 25.3661 29.2091 24.5473 29.1685C24.274 29.1551 23.9741 29.1239 23.8295 28.9581L24.0651 28.7225L24.2369 28.8943C24.2854 28.9428 24.3636 28.9428 24.4117 28.8943C24.4602 28.8457 24.4602 28.7675 24.4117 28.719L24.2399 28.5472L24.526 28.2611L24.5537 28.2888C24.6022 28.3374 24.6805 28.3374 24.7285 28.2888C24.777 28.2403 24.777 28.1621 24.7285 28.1136L24.7008 28.0859L24.9894 27.7973C25.0379 27.7488 25.0379 27.6706 24.9894 27.622C24.8611 27.4938 24.6636 27.773 24.526 27.9106L23.9949 27.38C23.9741 27.3592 23.9463 27.3513 23.9191 27.3488C23.926 27.3087 23.933 27.2686 23.9399 27.2275L24.3458 26.8216L24.6324 27.1082C24.681 27.1567 24.7592 27.1567 24.8077 27.1082C24.8562 27.0597 24.8562 26.9815 24.8077 26.933L24.5211 26.6464L24.8948 26.2726C24.9433 26.2241 24.9433 26.1459 24.8948 26.0974C24.8463 26.0489 24.7681 26.0489 24.7196 26.0974L24.3458 26.4711L24.1077 26.233C24.129 26.1058 24.1503 25.9776 24.1716 25.8489L24.3572 25.6632L24.676 25.982C24.7245 26.0306 24.8027 26.0306 24.8512 25.982C24.8998 25.9335 24.8998 25.8553 24.8512 25.8068L24.5324 25.488L25.0151 25.0054C25.0577 25.0168 25.0859 25.0286 25.1329 24.9816C25.1656 24.9489 25.1681 24.9054 25.1567 24.8638L25.1908 24.8296C25.2393 24.7811 25.2393 24.7029 25.1908 24.6544C25.1423 24.6059 25.0641 24.6059 25.0156 24.6544L24.9983 24.6717L24.622 24.2955L25.2789 23.6386L25.3695 23.7292C25.418 23.7777 25.4963 23.7777 25.5448 23.7292C25.5933 23.6807 25.5933 23.6025 25.5448 23.554L25.4542 23.4634L25.5359 23.3817C25.5844 23.3332 25.5844 23.255 25.5359 23.2065C25.4873 23.1579 25.4091 23.1579 25.3606 23.2065L25.2789 23.2881L24.8498 22.859C24.874 22.8545 24.8983 22.8495 24.9171 22.8312L25.5156 22.2328L25.8324 22.5496C25.8809 22.5981 25.9591 22.5981 26.0076 22.5496C26.0561 22.5011 26.0561 22.4228 26.0076 22.3743L25.6908 22.0575L25.7032 22.0451C25.7517 21.9966 25.7517 21.9184 25.7032 21.8699C25.6547 21.8214 25.5765 21.8214 25.5284 21.8699L25.5161 21.8823L25.2151 21.5813C25.3477 21.4561 25.4314 21.3769 25.7601 21.2843L26.3274 21.8516C26.2997 21.8991 26.2987 21.958 26.3393 21.9986C26.3903 22.0496 26.4368 22.0392 26.4863 22.01C26.5927 22.1154 26.767 21.9739 26.666 21.8471L26.967 21.5462L27.262 21.8412C27.3105 21.8897 27.3887 21.8897 27.4372 21.8412C27.4734 21.8051 27.4734 21.7551 27.4555 21.7105L27.7001 21.466C27.8298 21.6793 27.8021 22.005 27.7451 22.3105Z" stroke="white" stroke-width="0.3" mask="url(#path-6-outside-2_81_682)"/>
<mask id="path-7-outside-3_81_682" maskUnits="userSpaceOnUse" x="6.75024" y="19.6955" width="7" height="11" fill="black">
<rect fill="white" x="6.75024" y="19.6955" width="7" height="11"/>
<path d="M12.2148 24.9154C11.9643 23.3922 11.8074 22.4482 11.75 22.2373C11.3461 20.7611 10.2184 20.6735 9.12045 20.6988C8.05764 20.7265 7.574 21.1567 7.80815 22.4016C8.19525 24.4609 8.7967 26.4861 9.59715 28.4206C10.0476 29.5116 10.4917 29.7136 11.5168 29.6631C12.5905 29.6097 12.9514 29.1631 12.7554 28.1008C12.6094 27.3118 12.4029 26.0604 12.2148 24.9154ZM10.6352 21.4378L10.6129 21.4601L10.5352 21.3824C10.5694 21.3997 10.603 21.418 10.6352 21.4378ZM9.44617 21.1888C9.62438 21.1888 9.79169 21.1997 9.95258 21.2195L9.67586 21.4963L9.36994 21.1903C9.39518 21.1898 9.42142 21.1888 9.44617 21.1888ZM8.92343 21.2037L8.48682 21.6403L8.3294 21.4829C8.45365 21.2606 8.6675 21.222 8.92343 21.2037ZM8.24921 21.7527L8.31158 21.815L8.24624 21.8804C8.24574 21.8368 8.24624 21.7943 8.24921 21.7527ZM8.29426 22.3106C8.28733 22.2739 8.28337 22.2368 8.27743 22.2002L8.48731 21.9903L9.12292 22.6259L8.79324 22.9551L8.33386 22.4957C8.32198 22.4343 8.30564 22.3729 8.29426 22.3106ZM8.50216 23.2793C8.47741 23.167 8.45316 23.0546 8.42989 22.9422L8.61849 23.1303L8.52593 23.2229C8.51008 23.2387 8.50761 23.2595 8.50216 23.2793ZM8.80066 24.4971C8.7967 24.4827 8.79274 24.4689 8.78928 24.4545L8.8165 24.4817L8.80066 24.4971ZM9.04718 25.395C8.98481 25.1881 8.93184 24.9782 8.87442 24.7698C8.8764 24.7683 8.87888 24.7688 8.88086 24.7669L8.99174 24.6565L9.37538 25.0401L9.06649 25.349C9.05362 25.3619 9.05312 25.3792 9.04718 25.395ZM9.35905 26.3534C9.33578 26.2846 9.314 26.2148 9.29172 26.146L9.42934 26.2836L9.35905 26.3534ZM11.4921 29.1686C10.6733 29.2122 10.4204 29.1176 10.0546 28.2315C9.99515 28.088 9.94466 27.9409 9.88773 27.7964L9.9105 27.7736L10.1654 28.0286C10.2139 28.0771 10.2922 28.0771 10.3402 28.0286C10.3887 27.98 10.3887 27.9018 10.3402 27.8533L10.0852 27.5984L10.5248 27.1588C10.5733 27.1103 10.5733 27.0321 10.5248 26.9836C10.4763 26.9351 10.3981 26.9351 10.3496 26.9836L9.91 27.4231L9.64071 27.1539C9.57191 26.9667 9.50211 26.7806 9.43676 26.592C9.45657 26.5866 9.47736 26.5841 9.4932 26.5687L9.60408 26.4579L9.67932 26.5331C9.72784 26.5816 9.80605 26.5816 9.85456 26.5331C9.90307 26.4846 9.90307 26.4064 9.85456 26.3579L9.77932 26.2826L10.4337 25.6282C10.4822 25.5797 10.4822 25.5015 10.4337 25.453C10.3852 25.4044 10.307 25.4044 10.2585 25.453L9.60408 26.1074L9.12243 25.6257C9.11302 25.595 9.10213 25.5648 9.09273 25.5341C9.11203 25.546 9.13183 25.5594 9.15361 25.5594C9.18529 25.5594 9.21698 25.5475 9.24123 25.5233L10.3031 24.4614C10.3516 24.4129 10.3516 24.3347 10.3031 24.2862C10.2545 24.2377 10.1763 24.2377 10.1278 24.2862L9.55012 24.8639L9.16648 24.4802L10.0184 23.6283C10.0669 23.5798 10.0669 23.5016 10.0184 23.4531C9.9699 23.4046 9.89169 23.4046 9.84318 23.4531L8.99125 24.305L8.66008 23.9738C8.61255 23.7823 8.57147 23.5897 8.52791 23.3971C8.57939 23.4466 8.65414 23.4422 8.70017 23.3961L8.79274 23.3036L9.27242 23.7833C9.32093 23.8318 9.39914 23.8318 9.44766 23.7833C9.49617 23.7347 9.49617 23.6565 9.44766 23.608L8.96798 23.1283L9.66893 22.4274C9.71744 22.3789 9.71744 22.3007 9.66893 22.2522C9.62042 22.2036 9.5422 22.2036 9.49369 22.2522L9.29717 22.4487L8.66156 21.8131L9.15312 21.3215L9.50062 21.669L9.42587 21.7438C9.37736 21.7923 9.37736 21.8705 9.42587 21.919C9.47439 21.9675 9.5526 21.9675 9.60111 21.919L9.67586 21.8443L9.96891 22.1373C10.0174 22.1858 10.0956 22.1858 10.1437 22.1373C10.1922 22.0888 10.1922 22.0106 10.1437 21.9621L9.8506 21.669L10.162 21.3576L10.4377 21.6334L10.3991 21.672C10.3506 21.7205 10.3506 21.7987 10.3991 21.8472C10.4476 21.8957 10.5258 21.8957 10.5743 21.8472L10.6129 21.8086L10.8194 22.015C10.8679 22.0635 10.9461 22.0635 10.9946 22.015C11.0431 21.9665 11.0431 21.8883 10.9946 21.8398L10.7882 21.6334L10.8322 21.5893C11.0743 21.822 11.2075 22.1299 11.2723 22.3665C11.3258 22.563 11.5292 23.7991 11.7262 24.9941C11.9153 26.142 12.1218 27.3969 12.2683 28.1889C12.4074 28.9443 12.2648 29.1305 11.4921 29.1686Z"/>
</mask>
<path d="M12.2148 24.9154C11.9643 23.3922 11.8074 22.4482 11.75 22.2373C11.3461 20.7611 10.2184 20.6735 9.12045 20.6988C8.05764 20.7265 7.574 21.1567 7.80815 22.4016C8.19525 24.4609 8.7967 26.4861 9.59715 28.4206C10.0476 29.5116 10.4917 29.7136 11.5168 29.6631C12.5905 29.6097 12.9514 29.1631 12.7554 28.1008C12.6094 27.3118 12.4029 26.0604 12.2148 24.9154ZM10.6352 21.4378L10.6129 21.4601L10.5352 21.3824C10.5694 21.3997 10.603 21.418 10.6352 21.4378ZM9.44617 21.1888C9.62438 21.1888 9.79169 21.1997 9.95258 21.2195L9.67586 21.4963L9.36994 21.1903C9.39518 21.1898 9.42142 21.1888 9.44617 21.1888ZM8.92343 21.2037L8.48682 21.6403L8.3294 21.4829C8.45365 21.2606 8.6675 21.222 8.92343 21.2037ZM8.24921 21.7527L8.31158 21.815L8.24624 21.8804C8.24574 21.8368 8.24624 21.7943 8.24921 21.7527ZM8.29426 22.3106C8.28733 22.2739 8.28337 22.2368 8.27743 22.2002L8.48731 21.9903L9.12292 22.6259L8.79324 22.9551L8.33386 22.4957C8.32198 22.4343 8.30564 22.3729 8.29426 22.3106ZM8.50216 23.2793C8.47741 23.167 8.45316 23.0546 8.42989 22.9422L8.61849 23.1303L8.52593 23.2229C8.51008 23.2387 8.50761 23.2595 8.50216 23.2793ZM8.80066 24.4971C8.7967 24.4827 8.79274 24.4689 8.78928 24.4545L8.8165 24.4817L8.80066 24.4971ZM9.04718 25.395C8.98481 25.1881 8.93184 24.9782 8.87442 24.7698C8.8764 24.7683 8.87888 24.7688 8.88086 24.7669L8.99174 24.6565L9.37538 25.0401L9.06649 25.349C9.05362 25.3619 9.05312 25.3792 9.04718 25.395ZM9.35905 26.3534C9.33578 26.2846 9.314 26.2148 9.29172 26.146L9.42934 26.2836L9.35905 26.3534ZM11.4921 29.1686C10.6733 29.2122 10.4204 29.1176 10.0546 28.2315C9.99515 28.088 9.94466 27.9409 9.88773 27.7964L9.9105 27.7736L10.1654 28.0286C10.2139 28.0771 10.2922 28.0771 10.3402 28.0286C10.3887 27.98 10.3887 27.9018 10.3402 27.8533L10.0852 27.5984L10.5248 27.1588C10.5733 27.1103 10.5733 27.0321 10.5248 26.9836C10.4763 26.9351 10.3981 26.9351 10.3496 26.9836L9.91 27.4231L9.64071 27.1539C9.57191 26.9667 9.50211 26.7806 9.43676 26.592C9.45657 26.5866 9.47736 26.5841 9.4932 26.5687L9.60408 26.4579L9.67932 26.5331C9.72784 26.5816 9.80605 26.5816 9.85456 26.5331C9.90307 26.4846 9.90307 26.4064 9.85456 26.3579L9.77932 26.2826L10.4337 25.6282C10.4822 25.5797 10.4822 25.5015 10.4337 25.453C10.3852 25.4044 10.307 25.4044 10.2585 25.453L9.60408 26.1074L9.12243 25.6257C9.11302 25.595 9.10213 25.5648 9.09273 25.5341C9.11203 25.546 9.13183 25.5594 9.15361 25.5594C9.18529 25.5594 9.21698 25.5475 9.24123 25.5233L10.3031 24.4614C10.3516 24.4129 10.3516 24.3347 10.3031 24.2862C10.2545 24.2377 10.1763 24.2377 10.1278 24.2862L9.55012 24.8639L9.16648 24.4802L10.0184 23.6283C10.0669 23.5798 10.0669 23.5016 10.0184 23.4531C9.9699 23.4046 9.89169 23.4046 9.84318 23.4531L8.99125 24.305L8.66008 23.9738C8.61255 23.7823 8.57147 23.5897 8.52791 23.3971C8.57939 23.4466 8.65414 23.4422 8.70017 23.3961L8.79274 23.3036L9.27242 23.7833C9.32093 23.8318 9.39914 23.8318 9.44766 23.7833C9.49617 23.7347 9.49617 23.6565 9.44766 23.608L8.96798 23.1283L9.66893 22.4274C9.71744 22.3789 9.71744 22.3007 9.66893 22.2522C9.62042 22.2036 9.5422 22.2036 9.49369 22.2522L9.29717 22.4487L8.66156 21.8131L9.15312 21.3215L9.50062 21.669L9.42587 21.7438C9.37736 21.7923 9.37736 21.8705 9.42587 21.919C9.47439 21.9675 9.5526 21.9675 9.60111 21.919L9.67586 21.8443L9.96891 22.1373C10.0174 22.1858 10.0956 22.1858 10.1437 22.1373C10.1922 22.0888 10.1922 22.0106 10.1437 21.9621L9.8506 21.669L10.162 21.3576L10.4377 21.6334L10.3991 21.672C10.3506 21.7205 10.3506 21.7987 10.3991 21.8472C10.4476 21.8957 10.5258 21.8957 10.5743 21.8472L10.6129 21.8086L10.8194 22.015C10.8679 22.0635 10.9461 22.0635 10.9946 22.015C11.0431 21.9665 11.0431 21.8883 10.9946 21.8398L10.7882 21.6334L10.8322 21.5893C11.0743 21.822 11.2075 22.1299 11.2723 22.3665C11.3258 22.563 11.5292 23.7991 11.7262 24.9941C11.9153 26.142 12.1218 27.3969 12.2683 28.1889C12.4074 28.9443 12.2648 29.1305 11.4921 29.1686Z" fill="white"/>
<path d="M12.2148 24.9154C11.9643 23.3922 11.8074 22.4482 11.75 22.2373C11.3461 20.7611 10.2184 20.6735 9.12045 20.6988C8.05764 20.7265 7.574 21.1567 7.80815 22.4016C8.19525 24.4609 8.7967 26.4861 9.59715 28.4206C10.0476 29.5116 10.4917 29.7136 11.5168 29.6631C12.5905 29.6097 12.9514 29.1631 12.7554 28.1008C12.6094 27.3118 12.4029 26.0604 12.2148 24.9154ZM10.6352 21.4378L10.6129 21.4601L10.5352 21.3824C10.5694 21.3997 10.603 21.418 10.6352 21.4378ZM9.44617 21.1888C9.62438 21.1888 9.79169 21.1997 9.95258 21.2195L9.67586 21.4963L9.36994 21.1903C9.39518 21.1898 9.42142 21.1888 9.44617 21.1888ZM8.92343 21.2037L8.48682 21.6403L8.3294 21.4829C8.45365 21.2606 8.6675 21.222 8.92343 21.2037ZM8.24921 21.7527L8.31158 21.815L8.24624 21.8804C8.24574 21.8368 8.24624 21.7943 8.24921 21.7527ZM8.29426 22.3106C8.28733 22.2739 8.28337 22.2368 8.27743 22.2002L8.48731 21.9903L9.12292 22.6259L8.79324 22.9551L8.33386 22.4957C8.32198 22.4343 8.30564 22.3729 8.29426 22.3106ZM8.50216 23.2793C8.47741 23.167 8.45316 23.0546 8.42989 22.9422L8.61849 23.1303L8.52593 23.2229C8.51008 23.2387 8.50761 23.2595 8.50216 23.2793ZM8.80066 24.4971C8.7967 24.4827 8.79274 24.4689 8.78928 24.4545L8.8165 24.4817L8.80066 24.4971ZM9.04718 25.395C8.98481 25.1881 8.93184 24.9782 8.87442 24.7698C8.8764 24.7683 8.87888 24.7688 8.88086 24.7669L8.99174 24.6565L9.37538 25.0401L9.06649 25.349C9.05362 25.3619 9.05312 25.3792 9.04718 25.395ZM9.35905 26.3534C9.33578 26.2846 9.314 26.2148 9.29172 26.146L9.42934 26.2836L9.35905 26.3534ZM11.4921 29.1686C10.6733 29.2122 10.4204 29.1176 10.0546 28.2315C9.99515 28.088 9.94466 27.9409 9.88773 27.7964L9.9105 27.7736L10.1654 28.0286C10.2139 28.0771 10.2922 28.0771 10.3402 28.0286C10.3887 27.98 10.3887 27.9018 10.3402 27.8533L10.0852 27.5984L10.5248 27.1588C10.5733 27.1103 10.5733 27.0321 10.5248 26.9836C10.4763 26.9351 10.3981 26.9351 10.3496 26.9836L9.91 27.4231L9.64071 27.1539C9.57191 26.9667 9.50211 26.7806 9.43676 26.592C9.45657 26.5866 9.47736 26.5841 9.4932 26.5687L9.60408 26.4579L9.67932 26.5331C9.72784 26.5816 9.80605 26.5816 9.85456 26.5331C9.90307 26.4846 9.90307 26.4064 9.85456 26.3579L9.77932 26.2826L10.4337 25.6282C10.4822 25.5797 10.4822 25.5015 10.4337 25.453C10.3852 25.4044 10.307 25.4044 10.2585 25.453L9.60408 26.1074L9.12243 25.6257C9.11302 25.595 9.10213 25.5648 9.09273 25.5341C9.11203 25.546 9.13183 25.5594 9.15361 25.5594C9.18529 25.5594 9.21698 25.5475 9.24123 25.5233L10.3031 24.4614C10.3516 24.4129 10.3516 24.3347 10.3031 24.2862C10.2545 24.2377 10.1763 24.2377 10.1278 24.2862L9.55012 24.8639L9.16648 24.4802L10.0184 23.6283C10.0669 23.5798 10.0669 23.5016 10.0184 23.4531C9.9699 23.4046 9.89169 23.4046 9.84318 23.4531L8.99125 24.305L8.66008 23.9738C8.61255 23.7823 8.57147 23.5897 8.52791 23.3971C8.57939 23.4466 8.65414 23.4422 8.70017 23.3961L8.79274 23.3036L9.27242 23.7833C9.32093 23.8318 9.39914 23.8318 9.44766 23.7833C9.49617 23.7347 9.49617 23.6565 9.44766 23.608L8.96798 23.1283L9.66893 22.4274C9.71744 22.3789 9.71744 22.3007 9.66893 22.2522C9.62042 22.2036 9.5422 22.2036 9.49369 22.2522L9.29717 22.4487L8.66156 21.8131L9.15312 21.3215L9.50062 21.669L9.42587 21.7438C9.37736 21.7923 9.37736 21.8705 9.42587 21.919C9.47439 21.9675 9.5526 21.9675 9.60111 21.919L9.67586 21.8443L9.96891 22.1373C10.0174 22.1858 10.0956 22.1858 10.1437 22.1373C10.1922 22.0888 10.1922 22.0106 10.1437 21.9621L9.8506 21.669L10.162 21.3576L10.4377 21.6334L10.3991 21.672C10.3506 21.7205 10.3506 21.7987 10.3991 21.8472C10.4476 21.8957 10.5258 21.8957 10.5743 21.8472L10.6129 21.8086L10.8194 22.015C10.8679 22.0635 10.9461 22.0635 10.9946 22.015C11.0431 21.9665 11.0431 21.8883 10.9946 21.8398L10.7882 21.6334L10.8322 21.5893C11.0743 21.822 11.2075 22.1299 11.2723 22.3665C11.3258 22.563 11.5292 23.7991 11.7262 24.9941C11.9153 26.142 12.1218 27.3969 12.2683 28.1889C12.4074 28.9443 12.2648 29.1305 11.4921 29.1686Z" stroke="white" stroke-width="0.3" mask="url(#path-7-outside-3_81_682)"/>
<mask id="path-8-outside-4_81_682" maskUnits="userSpaceOnUse" x="17.6951" y="19.6779" width="6" height="11" fill="black">
<rect fill="white" x="17.6951" y="19.6779" width="6" height="11"/>
<path d="M21.3088 20.6884C19.2174 20.5562 18.7728 21.6834 18.8783 23.6278C18.956 25.147 18.7931 26.0861 18.7055 27.5791C18.5243 30.6299 20.7514 30.4967 21.5821 29.2547C22.1088 28.4672 22.0682 27.931 22.6627 22.365C22.779 21.2824 22.4617 20.7592 21.3088 20.6884ZM20.9405 21.1899C20.946 21.1849 20.944 21.177 20.9484 21.171H20.9509C21.0024 21.171 21.0524 21.1745 21.1039 21.1765L21.2648 21.3374L20.9905 21.6116L20.7549 21.376L20.9405 21.1899ZM20.5841 21.1958L20.5797 21.2002L20.5762 21.1968C20.5787 21.1968 20.5816 21.1963 20.5841 21.1958ZM20.2886 21.2592L20.4049 21.3755L19.9643 21.8161L19.7441 21.5958C19.9183 21.4072 20.0772 21.3245 20.2886 21.2592ZM19.5936 21.7958L19.7891 21.9913L19.748 22.0324C19.6995 22.0809 19.6995 22.1591 19.748 22.2076C19.7965 22.2561 19.8747 22.2561 19.9233 22.2076L19.9643 22.1665L20.2386 22.4408L19.503 23.1769L19.3515 23.0254C19.3456 22.5705 19.3881 22.1373 19.5936 21.7958ZM19.502 23.5264L19.994 24.0184L19.5406 24.4723L19.4357 24.3674C19.4238 24.3555 19.4074 24.356 19.3931 24.3501C19.3926 23.9516 19.3896 23.9377 19.3753 23.6536L19.502 23.5264ZM19.3822 24.9337C19.4104 24.9317 19.4391 24.9228 19.4609 24.901L19.5401 24.8218L19.9683 25.2495L19.4376 25.7802L19.3426 25.6851C19.3599 25.4356 19.3733 25.1852 19.3822 24.9337ZM19.3015 26.2485C19.3119 26.243 19.3243 26.244 19.3332 26.2356L19.4381 26.1307L19.8658 26.5584L19.2966 27.1276L19.2391 27.0702C19.2768 26.5752 19.2476 26.9232 19.3015 26.2485ZM19.2203 28.6152C19.2124 28.5711 19.204 28.5275 19.1985 28.483L19.2758 28.5602L19.2203 28.6152ZM22.1707 22.3126C21.5722 27.9103 21.6118 28.3191 21.1707 28.9795C20.7311 29.6359 19.6767 29.9552 19.2936 28.8919L19.451 28.7345L19.5619 28.8454C19.6104 28.8939 19.6886 28.8939 19.7371 28.8454C19.7856 28.7968 19.7856 28.7186 19.7371 28.6701L19.6262 28.5592L19.949 28.2365C19.9975 28.188 19.9975 28.1098 19.949 28.0612C19.9005 28.0127 19.8223 28.0127 19.7738 28.0612L19.451 28.384L19.1807 28.1137C19.1812 27.9449 19.1901 27.7751 19.2 27.6073C19.2005 27.5954 19.202 27.583 19.2025 27.5712L19.2971 27.4766L19.6871 27.8662C19.7356 27.9147 19.8139 27.9147 19.8624 27.8662C19.9109 27.8177 19.9109 27.7395 19.8624 27.691L19.4723 27.3014L20.045 26.7286C20.1049 26.7762 20.1658 26.7648 20.2074 26.7232C20.2524 26.6786 20.251 26.6093 20.2128 26.5608L20.4638 26.3099C20.5123 26.2613 20.5123 26.1831 20.4638 26.1346C20.4153 26.0861 20.3371 26.0861 20.2886 26.1346L20.0416 26.3816L19.6139 25.9539L20.1713 25.396C20.2024 25.3956 20.2331 25.3842 20.2569 25.3604C20.2807 25.3366 20.292 25.3055 20.2925 25.2748L20.7509 24.8164C20.7994 24.7679 20.7994 24.6897 20.7509 24.6411C20.7024 24.5926 20.6242 24.5926 20.5762 24.6411L20.1445 25.0728L19.7163 24.6451L20.7965 23.565C20.845 23.5165 20.845 23.4382 20.7965 23.3897C20.748 23.3412 20.6697 23.3412 20.6212 23.3897L20.1698 23.8412L19.6777 23.3491L20.4133 22.613L20.547 22.7467C20.5955 22.7952 20.6737 22.7952 20.7222 22.7467C20.7707 22.6982 20.7707 22.62 20.7222 22.5715L20.5886 22.4378L20.591 22.4353C20.6396 22.3868 20.6396 22.3086 20.591 22.2606C20.5425 22.2121 20.4643 22.2121 20.4163 22.2606L20.4138 22.2631L20.1396 21.9893L20.5801 21.5487L20.8306 21.7992C20.8168 21.8423 20.8178 21.8888 20.8519 21.923C20.9029 21.974 20.9326 21.9581 20.9757 21.9443L21.2073 22.1759C21.2559 22.2244 21.3341 22.2244 21.3826 22.1759C21.4311 22.1274 21.4311 22.0492 21.3826 22.0007L21.1658 21.7839L21.44 21.5096L21.7009 21.7705C21.7494 21.819 21.8276 21.819 21.8761 21.7705C21.9246 21.722 21.9246 21.6438 21.8761 21.5958L21.6108 21.3304C21.635 21.2983 21.6385 21.2616 21.6276 21.2245C22.1756 21.3389 22.2424 21.6418 22.1707 22.3126Z"/>
</mask>
<path d="M21.3088 20.6884C19.2174 20.5562 18.7728 21.6834 18.8783 23.6278C18.956 25.147 18.7931 26.0861 18.7055 27.5791C18.5243 30.6299 20.7514 30.4967 21.5821 29.2547C22.1088 28.4672 22.0682 27.931 22.6627 22.365C22.779 21.2824 22.4617 20.7592 21.3088 20.6884ZM20.9405 21.1899C20.946 21.1849 20.944 21.177 20.9484 21.171H20.9509C21.0024 21.171 21.0524 21.1745 21.1039 21.1765L21.2648 21.3374L20.9905 21.6116L20.7549 21.376L20.9405 21.1899ZM20.5841 21.1958L20.5797 21.2002L20.5762 21.1968C20.5787 21.1968 20.5816 21.1963 20.5841 21.1958ZM20.2886 21.2592L20.4049 21.3755L19.9643 21.8161L19.7441 21.5958C19.9183 21.4072 20.0772 21.3245 20.2886 21.2592ZM19.5936 21.7958L19.7891 21.9913L19.748 22.0324C19.6995 22.0809 19.6995 22.1591 19.748 22.2076C19.7965 22.2561 19.8747 22.2561 19.9233 22.2076L19.9643 22.1665L20.2386 22.4408L19.503 23.1769L19.3515 23.0254C19.3456 22.5705 19.3881 22.1373 19.5936 21.7958ZM19.502 23.5264L19.994 24.0184L19.5406 24.4723L19.4357 24.3674C19.4238 24.3555 19.4074 24.356 19.3931 24.3501C19.3926 23.9516 19.3896 23.9377 19.3753 23.6536L19.502 23.5264ZM19.3822 24.9337C19.4104 24.9317 19.4391 24.9228 19.4609 24.901L19.5401 24.8218L19.9683 25.2495L19.4376 25.7802L19.3426 25.6851C19.3599 25.4356 19.3733 25.1852 19.3822 24.9337ZM19.3015 26.2485C19.3119 26.243 19.3243 26.244 19.3332 26.2356L19.4381 26.1307L19.8658 26.5584L19.2966 27.1276L19.2391 27.0702C19.2768 26.5752 19.2476 26.9232 19.3015 26.2485ZM19.2203 28.6152C19.2124 28.5711 19.204 28.5275 19.1985 28.483L19.2758 28.5602L19.2203 28.6152ZM22.1707 22.3126C21.5722 27.9103 21.6118 28.3191 21.1707 28.9795C20.7311 29.6359 19.6767 29.9552 19.2936 28.8919L19.451 28.7345L19.5619 28.8454C19.6104 28.8939 19.6886 28.8939 19.7371 28.8454C19.7856 28.7968 19.7856 28.7186 19.7371 28.6701L19.6262 28.5592L19.949 28.2365C19.9975 28.188 19.9975 28.1098 19.949 28.0612C19.9005 28.0127 19.8223 28.0127 19.7738 28.0612L19.451 28.384L19.1807 28.1137C19.1812 27.9449 19.1901 27.7751 19.2 27.6073C19.2005 27.5954 19.202 27.583 19.2025 27.5712L19.2971 27.4766L19.6871 27.8662C19.7356 27.9147 19.8139 27.9147 19.8624 27.8662C19.9109 27.8177 19.9109 27.7395 19.8624 27.691L19.4723 27.3014L20.045 26.7286C20.1049 26.7762 20.1658 26.7648 20.2074 26.7232C20.2524 26.6786 20.251 26.6093 20.2128 26.5608L20.4638 26.3099C20.5123 26.2613 20.5123 26.1831 20.4638 26.1346C20.4153 26.0861 20.3371 26.0861 20.2886 26.1346L20.0416 26.3816L19.6139 25.9539L20.1713 25.396C20.2024 25.3956 20.2331 25.3842 20.2569 25.3604C20.2807 25.3366 20.292 25.3055 20.2925 25.2748L20.7509 24.8164C20.7994 24.7679 20.7994 24.6897 20.7509 24.6411C20.7024 24.5926 20.6242 24.5926 20.5762 24.6411L20.1445 25.0728L19.7163 24.6451L20.7965 23.565C20.845 23.5165 20.845 23.4382 20.7965 23.3897C20.748 23.3412 20.6697 23.3412 20.6212 23.3897L20.1698 23.8412L19.6777 23.3491L20.4133 22.613L20.547 22.7467C20.5955 22.7952 20.6737 22.7952 20.7222 22.7467C20.7707 22.6982 20.7707 22.62 20.7222 22.5715L20.5886 22.4378L20.591 22.4353C20.6396 22.3868 20.6396 22.3086 20.591 22.2606C20.5425 22.2121 20.4643 22.2121 20.4163 22.2606L20.4138 22.2631L20.1396 21.9893L20.5801 21.5487L20.8306 21.7992C20.8168 21.8423 20.8178 21.8888 20.8519 21.923C20.9029 21.974 20.9326 21.9581 20.9757 21.9443L21.2073 22.1759C21.2559 22.2244 21.3341 22.2244 21.3826 22.1759C21.4311 22.1274 21.4311 22.0492 21.3826 22.0007L21.1658 21.7839L21.44 21.5096L21.7009 21.7705C21.7494 21.819 21.8276 21.819 21.8761 21.7705C21.9246 21.722 21.9246 21.6438 21.8761 21.5958L21.6108 21.3304C21.635 21.2983 21.6385 21.2616 21.6276 21.2245C22.1756 21.3389 22.2424 21.6418 22.1707 22.3126Z" fill="white"/>
<path d="M21.3088 20.6884C19.2174 20.5562 18.7728 21.6834 18.8783 23.6278C18.956 25.147 18.7931 26.0861 18.7055 27.5791C18.5243 30.6299 20.7514 30.4967 21.5821 29.2547C22.1088 28.4672 22.0682 27.931 22.6627 22.365C22.779 21.2824 22.4617 20.7592 21.3088 20.6884ZM20.9405 21.1899C20.946 21.1849 20.944 21.177 20.9484 21.171H20.9509C21.0024 21.171 21.0524 21.1745 21.1039 21.1765L21.2648 21.3374L20.9905 21.6116L20.7549 21.376L20.9405 21.1899ZM20.5841 21.1958L20.5797 21.2002L20.5762 21.1968C20.5787 21.1968 20.5816 21.1963 20.5841 21.1958ZM20.2886 21.2592L20.4049 21.3755L19.9643 21.8161L19.7441 21.5958C19.9183 21.4072 20.0772 21.3245 20.2886 21.2592ZM19.5936 21.7958L19.7891 21.9913L19.748 22.0324C19.6995 22.0809 19.6995 22.1591 19.748 22.2076C19.7965 22.2561 19.8747 22.2561 19.9233 22.2076L19.9643 22.1665L20.2386 22.4408L19.503 23.1769L19.3515 23.0254C19.3456 22.5705 19.3881 22.1373 19.5936 21.7958ZM19.502 23.5264L19.994 24.0184L19.5406 24.4723L19.4357 24.3674C19.4238 24.3555 19.4074 24.356 19.3931 24.3501C19.3926 23.9516 19.3896 23.9377 19.3753 23.6536L19.502 23.5264ZM19.3822 24.9337C19.4104 24.9317 19.4391 24.9228 19.4609 24.901L19.5401 24.8218L19.9683 25.2495L19.4376 25.7802L19.3426 25.6851C19.3599 25.4356 19.3733 25.1852 19.3822 24.9337ZM19.3015 26.2485C19.3119 26.243 19.3243 26.244 19.3332 26.2356L19.4381 26.1307L19.8658 26.5584L19.2966 27.1276L19.2391 27.0702C19.2768 26.5752 19.2476 26.9232 19.3015 26.2485ZM19.2203 28.6152C19.2124 28.5711 19.204 28.5275 19.1985 28.483L19.2758 28.5602L19.2203 28.6152ZM22.1707 22.3126C21.5722 27.9103 21.6118 28.3191 21.1707 28.9795C20.7311 29.6359 19.6767 29.9552 19.2936 28.8919L19.451 28.7345L19.5619 28.8454C19.6104 28.8939 19.6886 28.8939 19.7371 28.8454C19.7856 28.7968 19.7856 28.7186 19.7371 28.6701L19.6262 28.5592L19.949 28.2365C19.9975 28.188 19.9975 28.1098 19.949 28.0612C19.9005 28.0127 19.8223 28.0127 19.7738 28.0612L19.451 28.384L19.1807 28.1137C19.1812 27.9449 19.1901 27.7751 19.2 27.6073C19.2005 27.5954 19.202 27.583 19.2025 27.5712L19.2971 27.4766L19.6871 27.8662C19.7356 27.9147 19.8139 27.9147 19.8624 27.8662C19.9109 27.8177 19.9109 27.7395 19.8624 27.691L19.4723 27.3014L20.045 26.7286C20.1049 26.7762 20.1658 26.7648 20.2074 26.7232C20.2524 26.6786 20.251 26.6093 20.2128 26.5608L20.4638 26.3099C20.5123 26.2613 20.5123 26.1831 20.4638 26.1346C20.4153 26.0861 20.3371 26.0861 20.2886 26.1346L20.0416 26.3816L19.6139 25.9539L20.1713 25.396C20.2024 25.3956 20.2331 25.3842 20.2569 25.3604C20.2807 25.3366 20.292 25.3055 20.2925 25.2748L20.7509 24.8164C20.7994 24.7679 20.7994 24.6897 20.7509 24.6411C20.7024 24.5926 20.6242 24.5926 20.5762 24.6411L20.1445 25.0728L19.7163 24.6451L20.7965 23.565C20.845 23.5165 20.845 23.4382 20.7965 23.3897C20.748 23.3412 20.6697 23.3412 20.6212 23.3897L20.1698 23.8412L19.6777 23.3491L20.4133 22.613L20.547 22.7467C20.5955 22.7952 20.6737 22.7952 20.7222 22.7467C20.7707 22.6982 20.7707 22.62 20.7222 22.5715L20.5886 22.4378L20.591 22.4353C20.6396 22.3868 20.6396 22.3086 20.591 22.2606C20.5425 22.2121 20.4643 22.2121 20.4163 22.2606L20.4138 22.2631L20.1396 21.9893L20.5801 21.5487L20.8306 21.7992C20.8168 21.8423 20.8178 21.8888 20.8519 21.923C20.9029 21.974 20.9326 21.9581 20.9757 21.9443L21.2073 22.1759C21.2559 22.2244 21.3341 22.2244 21.3826 22.1759C21.4311 22.1274 21.4311 22.0492 21.3826 22.0007L21.1658 21.7839L21.44 21.5096L21.7009 21.7705C21.7494 21.819 21.8276 21.819 21.8761 21.7705C21.9246 21.722 21.9246 21.6438 21.8761 21.5958L21.6108 21.3304C21.635 21.2983 21.6385 21.2616 21.6276 21.2245C22.1756 21.3389 22.2424 21.6418 22.1707 22.3126Z" stroke="white" stroke-width="0.3" mask="url(#path-8-outside-4_81_682)"/>
<mask id="path-9-outside-5_81_682" maskUnits="userSpaceOnUse" x="12.1965" y="19.6755" width="6" height="11" fill="black">
<rect fill="white" x="12.1965" y="19.6755" width="6" height="11"/>
<path d="M17.0031 23.6269C17.0521 22.7175 17.113 21.5854 16.1635 20.9755C15.6804 20.6657 15.0893 20.6558 14.5725 20.6879C13.4256 20.7587 13.1028 21.2765 13.2187 22.3646L13.7409 27.2494C13.8072 27.8697 13.8899 28.6414 14.2998 29.2543C14.7196 29.8825 15.5923 30.3131 16.3269 29.9428C17.1986 29.5023 17.2278 28.4617 17.1764 27.5791C17.0892 26.1049 16.9259 25.1441 17.0031 23.6269ZM14.6027 21.1825C14.7092 21.176 14.8196 21.1711 14.9304 21.1711C14.9695 21.1711 15.0087 21.174 15.0478 21.1755L15.423 21.5508L15.1794 21.7943L14.8146 21.4295C14.8359 21.3839 14.8369 21.3305 14.7988 21.2923C14.7611 21.2547 14.7077 21.2552 14.6616 21.2765L14.5701 21.1849C14.5815 21.1844 14.5923 21.1829 14.6027 21.1825ZM14.2612 21.226L14.476 21.4409L14.1552 21.7616L13.829 21.4354C13.928 21.3191 14.0869 21.2607 14.2612 21.226ZM13.7191 21.6755L13.98 21.9364L13.7261 22.1903C13.7117 22.2047 13.7102 22.2245 13.7043 22.2423C13.685 22.0408 13.6795 21.8433 13.7191 21.6755ZM13.7285 22.4799L13.7127 22.3324C13.7181 22.3433 13.7171 22.3561 13.7261 22.3651C13.7746 22.4136 13.8528 22.4136 13.9008 22.3651L14.1547 22.1111L14.5082 22.4646L14.1102 22.8626L13.7285 22.4799ZM13.7706 22.872L13.9364 23.0378L13.8028 23.1714L13.7706 22.872ZM13.836 23.4878L14.1107 23.213L14.4112 23.5135C14.4354 23.5378 14.4671 23.5496 14.4988 23.5496C14.529 23.5496 14.5582 23.5368 14.5819 23.5155L14.1993 23.8981L13.8419 23.5407L13.836 23.4878ZM13.884 23.9328L14.0246 24.0734L13.9112 24.1867L13.884 23.9328ZM13.9449 24.5026L14.1993 24.2481L14.5245 24.5733C14.5399 24.5887 14.5607 24.5912 14.5805 24.5966L14.1661 25.0109L13.979 24.8238L13.9449 24.5026ZM14.3849 28.1786L14.7621 28.5558L14.5849 28.733C14.5003 28.5573 14.4315 28.3726 14.3849 28.1786ZM16.1031 29.5013C15.622 29.7438 15.0057 29.4201 14.7107 28.9795C14.7077 28.9751 14.7062 28.9691 14.7032 28.9647L14.9369 28.731L15.1849 28.979C15.2334 29.0276 15.3116 29.0276 15.3601 28.979C15.4086 28.9305 15.4086 28.8523 15.3601 28.8038L15.1121 28.5558L15.5428 28.1251C15.5913 28.0766 15.5913 27.9984 15.5428 27.9499C15.4943 27.9014 15.4161 27.9014 15.3675 27.9499L14.9369 28.3806L14.4839 27.9276L15.1532 27.2583C15.2017 27.2098 15.2017 27.1316 15.1532 27.0831C15.1047 27.0346 15.0265 27.0346 14.978 27.0831L14.3087 27.7524L14.3013 27.745C14.2735 27.5593 14.2508 27.3747 14.232 27.1965L14.1943 26.8425L14.5765 27.2247C14.625 27.2732 14.7032 27.2732 14.7517 27.2247C14.8003 27.1762 14.8003 27.098 14.7517 27.0494L14.3409 26.6386L15.0433 25.9361C15.0918 25.8876 15.0918 25.8094 15.0433 25.7609C14.9948 25.7124 14.9166 25.7124 14.8681 25.7609L14.1656 26.4633L14.1523 26.45L14.0483 25.4763L14.1656 25.3589L14.525 25.7183C14.5735 25.7668 14.6517 25.7668 14.7003 25.7183C14.7488 25.6698 14.7488 25.5916 14.7003 25.5431L14.3409 25.1837L14.8374 24.6867C14.8859 24.6382 14.8859 24.56 14.8374 24.5115C14.8087 24.4833 14.7715 24.4768 14.7344 24.4818C14.7339 24.4506 14.7225 24.4199 14.6988 24.3961L14.3735 24.0709L14.971 23.4734C15.0195 23.4249 15.0195 23.3467 14.971 23.2982C14.9225 23.2497 14.8443 23.2497 14.7958 23.2982L14.5874 23.5066C14.6319 23.4581 14.6324 23.3833 14.5854 23.3363L14.2849 23.0358L14.7295 22.5913C14.7433 22.5774 14.7438 22.5591 14.7498 22.5418C14.7522 22.5398 14.7562 22.5408 14.7582 22.5383C14.8067 22.4898 14.8067 22.4116 14.7582 22.3631L14.329 21.9339L14.6498 21.6131L15.0037 21.9671L14.9369 22.0339C14.8884 22.0824 14.8884 22.1606 14.9369 22.2086C14.9854 22.2571 15.0636 22.2571 15.1116 22.2086L15.1784 22.1418L15.2671 22.2304C15.3156 22.2789 15.3938 22.2789 15.4423 22.2304C15.4908 22.1819 15.4908 22.1037 15.4423 22.0552L15.3537 21.9666L15.5972 21.723L15.8626 21.9883C15.9111 22.0369 15.9893 22.0369 16.0378 21.9883C16.0863 21.9398 16.0863 21.8616 16.0378 21.8131L15.7512 21.5265C15.7556 21.4899 15.7487 21.4527 15.721 21.425C15.6928 21.3968 15.6561 21.3899 15.6195 21.3948L15.4378 21.2131C16.7086 21.4701 16.5482 22.8348 16.4957 23.8585C16.4412 25.1035 16.6091 26.3787 16.6818 27.6058C16.7105 28.1033 16.8001 29.1488 16.1031 29.5013Z"/>
</mask>
<path d="M17.0031 23.6269C17.0521 22.7175 17.113 21.5854 16.1635 20.9755C15.6804 20.6657 15.0893 20.6558 14.5725 20.6879C13.4256 20.7587 13.1028 21.2765 13.2187 22.3646L13.7409 27.2494C13.8072 27.8697 13.8899 28.6414 14.2998 29.2543C14.7196 29.8825 15.5923 30.3131 16.3269 29.9428C17.1986 29.5023 17.2278 28.4617 17.1764 27.5791C17.0892 26.1049 16.9259 25.1441 17.0031 23.6269ZM14.6027 21.1825C14.7092 21.176 14.8196 21.1711 14.9304 21.1711C14.9695 21.1711 15.0087 21.174 15.0478 21.1755L15.423 21.5508L15.1794 21.7943L14.8146 21.4295C14.8359 21.3839 14.8369 21.3305 14.7988 21.2923C14.7611 21.2547 14.7077 21.2552 14.6616 21.2765L14.5701 21.1849C14.5815 21.1844 14.5923 21.1829 14.6027 21.1825ZM14.2612 21.226L14.476 21.4409L14.1552 21.7616L13.829 21.4354C13.928 21.3191 14.0869 21.2607 14.2612 21.226ZM13.7191 21.6755L13.98 21.9364L13.7261 22.1903C13.7117 22.2047 13.7102 22.2245 13.7043 22.2423C13.685 22.0408 13.6795 21.8433 13.7191 21.6755ZM13.7285 22.4799L13.7127 22.3324C13.7181 22.3433 13.7171 22.3561 13.7261 22.3651C13.7746 22.4136 13.8528 22.4136 13.9008 22.3651L14.1547 22.1111L14.5082 22.4646L14.1102 22.8626L13.7285 22.4799ZM13.7706 22.872L13.9364 23.0378L13.8028 23.1714L13.7706 22.872ZM13.836 23.4878L14.1107 23.213L14.4112 23.5135C14.4354 23.5378 14.4671 23.5496 14.4988 23.5496C14.529 23.5496 14.5582 23.5368 14.5819 23.5155L14.1993 23.8981L13.8419 23.5407L13.836 23.4878ZM13.884 23.9328L14.0246 24.0734L13.9112 24.1867L13.884 23.9328ZM13.9449 24.5026L14.1993 24.2481L14.5245 24.5733C14.5399 24.5887 14.5607 24.5912 14.5805 24.5966L14.1661 25.0109L13.979 24.8238L13.9449 24.5026ZM14.3849 28.1786L14.7621 28.5558L14.5849 28.733C14.5003 28.5573 14.4315 28.3726 14.3849 28.1786ZM16.1031 29.5013C15.622 29.7438 15.0057 29.4201 14.7107 28.9795C14.7077 28.9751 14.7062 28.9691 14.7032 28.9647L14.9369 28.731L15.1849 28.979C15.2334 29.0276 15.3116 29.0276 15.3601 28.979C15.4086 28.9305 15.4086 28.8523 15.3601 28.8038L15.1121 28.5558L15.5428 28.1251C15.5913 28.0766 15.5913 27.9984 15.5428 27.9499C15.4943 27.9014 15.4161 27.9014 15.3675 27.9499L14.9369 28.3806L14.4839 27.9276L15.1532 27.2583C15.2017 27.2098 15.2017 27.1316 15.1532 27.0831C15.1047 27.0346 15.0265 27.0346 14.978 27.0831L14.3087 27.7524L14.3013 27.745C14.2735 27.5593 14.2508 27.3747 14.232 27.1965L14.1943 26.8425L14.5765 27.2247C14.625 27.2732 14.7032 27.2732 14.7517 27.2247C14.8003 27.1762 14.8003 27.098 14.7517 27.0494L14.3409 26.6386L15.0433 25.9361C15.0918 25.8876 15.0918 25.8094 15.0433 25.7609C14.9948 25.7124 14.9166 25.7124 14.8681 25.7609L14.1656 26.4633L14.1523 26.45L14.0483 25.4763L14.1656 25.3589L14.525 25.7183C14.5735 25.7668 14.6517 25.7668 14.7003 25.7183C14.7488 25.6698 14.7488 25.5916 14.7003 25.5431L14.3409 25.1837L14.8374 24.6867C14.8859 24.6382 14.8859 24.56 14.8374 24.5115C14.8087 24.4833 14.7715 24.4768 14.7344 24.4818C14.7339 24.4506 14.7225 24.4199 14.6988 24.3961L14.3735 24.0709L14.971 23.4734C15.0195 23.4249 15.0195 23.3467 14.971 23.2982C14.9225 23.2497 14.8443 23.2497 14.7958 23.2982L14.5874 23.5066C14.6319 23.4581 14.6324 23.3833 14.5854 23.3363L14.2849 23.0358L14.7295 22.5913C14.7433 22.5774 14.7438 22.5591 14.7498 22.5418C14.7522 22.5398 14.7562 22.5408 14.7582 22.5383C14.8067 22.4898 14.8067 22.4116 14.7582 22.3631L14.329 21.9339L14.6498 21.6131L15.0037 21.9671L14.9369 22.0339C14.8884 22.0824 14.8884 22.1606 14.9369 22.2086C14.9854 22.2571 15.0636 22.2571 15.1116 22.2086L15.1784 22.1418L15.2671 22.2304C15.3156 22.2789 15.3938 22.2789 15.4423 22.2304C15.4908 22.1819 15.4908 22.1037 15.4423 22.0552L15.3537 21.9666L15.5972 21.723L15.8626 21.9883C15.9111 22.0369 15.9893 22.0369 16.0378 21.9883C16.0863 21.9398 16.0863 21.8616 16.0378 21.8131L15.7512 21.5265C15.7556 21.4899 15.7487 21.4527 15.721 21.425C15.6928 21.3968 15.6561 21.3899 15.6195 21.3948L15.4378 21.2131C16.7086 21.4701 16.5482 22.8348 16.4957 23.8585C16.4412 25.1035 16.6091 26.3787 16.6818 27.6058C16.7105 28.1033 16.8001 29.1488 16.1031 29.5013Z" fill="white"/>
<path d="M17.0031 23.6269C17.0521 22.7175 17.113 21.5854 16.1635 20.9755C15.6804 20.6657 15.0893 20.6558 14.5725 20.6879C13.4256 20.7587 13.1028 21.2765 13.2187 22.3646L13.7409 27.2494C13.8072 27.8697 13.8899 28.6414 14.2998 29.2543C14.7196 29.8825 15.5923 30.3131 16.3269 29.9428C17.1986 29.5023 17.2278 28.4617 17.1764 27.5791C17.0892 26.1049 16.9259 25.1441 17.0031 23.6269ZM14.6027 21.1825C14.7092 21.176 14.8196 21.1711 14.9304 21.1711C14.9695 21.1711 15.0087 21.174 15.0478 21.1755L15.423 21.5508L15.1794 21.7943L14.8146 21.4295C14.8359 21.3839 14.8369 21.3305 14.7988 21.2923C14.7611 21.2547 14.7077 21.2552 14.6616 21.2765L14.5701 21.1849C14.5815 21.1844 14.5923 21.1829 14.6027 21.1825ZM14.2612 21.226L14.476 21.4409L14.1552 21.7616L13.829 21.4354C13.928 21.3191 14.0869 21.2607 14.2612 21.226ZM13.7191 21.6755L13.98 21.9364L13.7261 22.1903C13.7117 22.2047 13.7102 22.2245 13.7043 22.2423C13.685 22.0408 13.6795 21.8433 13.7191 21.6755ZM13.7285 22.4799L13.7127 22.3324C13.7181 22.3433 13.7171 22.3561 13.7261 22.3651C13.7746 22.4136 13.8528 22.4136 13.9008 22.3651L14.1547 22.1111L14.5082 22.4646L14.1102 22.8626L13.7285 22.4799ZM13.7706 22.872L13.9364 23.0378L13.8028 23.1714L13.7706 22.872ZM13.836 23.4878L14.1107 23.213L14.4112 23.5135C14.4354 23.5378 14.4671 23.5496 14.4988 23.5496C14.529 23.5496 14.5582 23.5368 14.5819 23.5155L14.1993 23.8981L13.8419 23.5407L13.836 23.4878ZM13.884 23.9328L14.0246 24.0734L13.9112 24.1867L13.884 23.9328ZM13.9449 24.5026L14.1993 24.2481L14.5245 24.5733C14.5399 24.5887 14.5607 24.5912 14.5805 24.5966L14.1661 25.0109L13.979 24.8238L13.9449 24.5026ZM14.3849 28.1786L14.7621 28.5558L14.5849 28.733C14.5003 28.5573 14.4315 28.3726 14.3849 28.1786ZM16.1031 29.5013C15.622 29.7438 15.0057 29.4201 14.7107 28.9795C14.7077 28.9751 14.7062 28.9691 14.7032 28.9647L14.9369 28.731L15.1849 28.979C15.2334 29.0276 15.3116 29.0276 15.3601 28.979C15.4086 28.9305 15.4086 28.8523 15.3601 28.8038L15.1121 28.5558L15.5428 28.1251C15.5913 28.0766 15.5913 27.9984 15.5428 27.9499C15.4943 27.9014 15.4161 27.9014 15.3675 27.9499L14.9369 28.3806L14.4839 27.9276L15.1532 27.2583C15.2017 27.2098 15.2017 27.1316 15.1532 27.0831C15.1047 27.0346 15.0265 27.0346 14.978 27.0831L14.3087 27.7524L14.3013 27.745C14.2735 27.5593 14.2508 27.3747 14.232 27.1965L14.1943 26.8425L14.5765 27.2247C14.625 27.2732 14.7032 27.2732 14.7517 27.2247C14.8003 27.1762 14.8003 27.098 14.7517 27.0494L14.3409 26.6386L15.0433 25.9361C15.0918 25.8876 15.0918 25.8094 15.0433 25.7609C14.9948 25.7124 14.9166 25.7124 14.8681 25.7609L14.1656 26.4633L14.1523 26.45L14.0483 25.4763L14.1656 25.3589L14.525 25.7183C14.5735 25.7668 14.6517 25.7668 14.7003 25.7183C14.7488 25.6698 14.7488 25.5916 14.7003 25.5431L14.3409 25.1837L14.8374 24.6867C14.8859 24.6382 14.8859 24.56 14.8374 24.5115C14.8087 24.4833 14.7715 24.4768 14.7344 24.4818C14.7339 24.4506 14.7225 24.4199 14.6988 24.3961L14.3735 24.0709L14.971 23.4734C15.0195 23.4249 15.0195 23.3467 14.971 23.2982C14.9225 23.2497 14.8443 23.2497 14.7958 23.2982L14.5874 23.5066C14.6319 23.4581 14.6324 23.3833 14.5854 23.3363L14.2849 23.0358L14.7295 22.5913C14.7433 22.5774 14.7438 22.5591 14.7498 22.5418C14.7522 22.5398 14.7562 22.5408 14.7582 22.5383C14.8067 22.4898 14.8067 22.4116 14.7582 22.3631L14.329 21.9339L14.6498 21.6131L15.0037 21.9671L14.9369 22.0339C14.8884 22.0824 14.8884 22.1606 14.9369 22.2086C14.9854 22.2571 15.0636 22.2571 15.1116 22.2086L15.1784 22.1418L15.2671 22.2304C15.3156 22.2789 15.3938 22.2789 15.4423 22.2304C15.4908 22.1819 15.4908 22.1037 15.4423 22.0552L15.3537 21.9666L15.5972 21.723L15.8626 21.9883C15.9111 22.0369 15.9893 22.0369 16.0378 21.9883C16.0863 21.9398 16.0863 21.8616 16.0378 21.8131L15.7512 21.5265C15.7556 21.4899 15.7487 21.4527 15.721 21.425C15.6928 21.3968 15.6561 21.3899 15.6195 21.3948L15.4378 21.2131C16.7086 21.4701 16.5482 22.8348 16.4957 23.8585C16.4412 25.1035 16.6091 26.3787 16.6818 27.6058C16.7105 28.1033 16.8001 29.1488 16.1031 29.5013Z" stroke="white" stroke-width="0.3" mask="url(#path-9-outside-5_81_682)"/>
</svg>
