<svg width="14" height="14" viewBox="0 0 14 14" fill="none" xmlns="http://www.w3.org/2000/svg">
<rect x="0.5" y="0.5" width="13" height="13" rx="3.5" fill="#E42614" stroke="#E42614"/>
<path d="M6.20992 8.19705C6.23604 8.02019 6.88842 7.34339 6.89762 7.26226C7.01326 7.2171 8.04873 5.63566 8.09095 5.56646C8.75756 4.52556 8.43816 5.00448 9.11939 3.97134C9.192 3.86593 9.18793 3.82801 9.44251 3.7428C9.69709 3.6576 9.76199 4.00974 9.83574 4.18542C9.87779 4.29004 9.77019 4.47224 9.69709 4.59984C8.65855 6.4006 7.61624 8.20497 6.55947 9.99418C6.51709 10.0708 6.25328 10.127 6.20992 10.0815C6.03662 9.89223 5.88239 9.67753 5.784 9.44576C5.65063 9.12434 5.35545 8.82333 5.1884 8.51955C5.07391 8.34654 3.37912 6.20488 3.614 6.1576C3.84888 6.11031 3.37912 6.20488 3.77909 6.05081C4.17906 5.89674 4.54339 6.21147 6.20992 8.19705Z" fill="white"/>
</svg>
