<svg width="48" height="48" viewBox="0 0 48 48" fill="none" xmlns="http://www.w3.org/2000/svg">
<mask id="path-1-outside-1_98_2065" maskUnits="userSpaceOnUse" x="7" y="2" width="33" height="43" fill="black">
<rect fill="white" x="7" y="2" width="33" height="43"/>
<path fill-rule="evenodd" clip-rule="evenodd" d="M33.9358 43.2913C34.4611 41.9663 33.9647 42.5677 34.4537 42.3449C34.4592 42.3539 34.8016 42.2823 34.5327 42.9598C34.3979 43.3003 34.3632 43.2322 33.9358 43.2913L33.9358 43.2913ZM35.0342 42.8972C35.0949 42.2849 35.0596 42.4316 35.7534 42.4752C35.4501 42.6999 35.5968 42.7262 35.0342 42.8972ZM35.2351 42.0433C35.3256 41.8122 35.1963 41.6973 35.7098 41.8523C36.0294 41.9483 36.0413 42.0208 36.1645 42.2663L35.2354 42.0436L35.2351 42.0433ZM34.4255 41.7824C34.4727 41.7589 34.2852 41.4582 34.7987 41.7824C34.5786 41.9752 35.1421 41.928 34.6601 41.8828C34.4046 41.8584 34.5821 41.8908 34.4255 41.7824ZM35.6408 40.5671L36.1099 40.6511L36.0175 41.4816L35.3744 41.3902L35.6408 40.5671ZM36.4514 41.4736L36.4812 40.9448C36.9729 40.7907 37.0951 40.9075 37.5065 41.0134C37.1586 41.584 37.1885 41.3648 36.4513 41.4736L36.4514 41.4736ZM37.8162 38.9288C37.9394 38.5729 37.5771 38.6961 38.0597 38.6563C38.45 38.6246 38.356 38.7796 38.45 38.9288C38.3893 38.9631 38.4147 39.0382 38.1711 39.043C37.598 39.053 37.9519 39.0122 37.8162 38.9288ZM36.9086 38.6807C37.1333 38.5312 36.8127 38.5774 37.1939 38.5559C37.52 38.537 37.4121 38.5902 37.538 38.64C37.2844 39.3229 37.1339 38.8328 36.9086 38.6807ZM38.3004 37.0903C38.3123 37.1131 38.3322 37.1221 38.3347 37.159C38.3373 37.1988 38.361 37.2171 38.3646 37.236C38.3736 37.2887 38.3973 37.5005 38.4008 37.5521C38.4217 37.8393 38.4217 38.0402 38.457 38.3345L37.8601 38.2584C38.2189 38.0646 38.0311 38.2658 38.044 37.6914C38.0604 36.9369 37.8983 37.2104 38.3004 37.09L38.3004 37.0903ZM36.8524 36.9944C38.2218 36.7652 37.6079 38.0794 37.6014 38.0858C37.4737 38.2061 37.106 38.1156 36.8977 38.0803L36.8524 36.9944ZM38.7968 36.9809C38.8556 37.0643 38.854 37.0018 38.9181 37.1965C38.9807 37.3859 38.9579 37.3179 38.9798 37.4745C39.1229 38.5187 39.1238 38.6608 39.016 39.6734C38.0662 40.3806 38.4246 40.5446 37.8043 40.6531C37.6586 40.2943 37.7744 39.8444 37.8078 39.4016L38.5539 39.3227C39.1145 37.6572 38.4868 37.335 38.7965 36.9806L38.7968 36.9809ZM36.8117 36.4475L36.752 36.0763C37.1532 35.8038 36.7058 35.9585 37.5209 35.8625L37.5607 36.5942C37.1134 36.5798 37.1432 36.643 36.8117 36.4475V36.4475ZM37.018 35.4957C37.0588 34.9614 37.0206 34.7496 37.623 35.0827C37.4808 35.6976 37.7388 35.4928 37.018 35.4957ZM35.943 35.3202C35.7899 35.0359 35.8734 35.0205 35.9286 34.5856L36.607 34.7198C36.1814 35.4922 36.3396 35.341 35.943 35.3202H35.943ZM36.6593 33.8549L36.691 34.3559C36.1404 34.2172 35.9375 34.2942 35.865 33.7282L36.6593 33.8549ZM38.0003 34.9951L37.0857 34.5523C37.0424 34.1312 36.9997 33.5225 37.1772 33.2464C37.3402 33.5397 37.5177 33.6758 37.725 34.0442C38.2484 34.9726 38.4765 35.7132 38.7862 36.7591L37.974 36.6497C37.897 35.8346 37.9297 36.004 38.2076 35.5792C38.1216 35.4181 38.1187 35.3709 38.0581 35.1905C38.0472 35.1588 38.0401 35.119 38.0302 35.0911C38.0212 35.0631 38.0074 35.0169 38.0003 34.9951L38.0003 34.9951ZM31.0652 32.9846L31.0626 33.4194L30.5302 33.223C30.571 32.9487 30.7558 33.0247 31.0655 32.9849L31.0652 32.9846ZM36.5424 32.3588C36.4962 33.0841 36.5043 32.7211 36.6111 33.4781L35.8621 33.3142L35.8785 32.5382L36.5424 32.3588ZM35.858 31.734C36.2039 31.888 36.1949 31.8653 36.3262 32.2032C35.9106 32.1489 35.9042 32.1489 35.858 31.734ZM21.7301 30.3114C22.0273 30.6856 22.173 31.1419 22.3639 31.5566C21.8729 31.4879 22.1075 31.5437 21.9573 31.1192C21.6531 31.2947 21.8948 31.1073 21.6794 31.3646C21.4747 31.6092 21.7536 31.5078 21.0736 31.6698L21.2237 30.478L21.7301 30.3114ZM20.9693 29.1703C21.1974 29.3686 21.4256 29.6882 21.537 30.0839L20.856 29.9944L20.9693 29.1703ZM20.4629 28.2602C20.461 28.2104 20.5498 28.0699 20.5977 28.3064C20.632 28.4819 20.4719 28.5564 20.4629 28.2602ZM19.0762 25.4121L19.4793 26.1512C19.2681 26.7695 19.4186 26.8077 18.849 26.7904L19.0762 25.4121ZM19.0762 25.4121L18.4748 25.51C18.4938 25.4076 18.5608 25.1143 18.5881 25.0552C18.8317 24.5373 18.599 24.9757 18.8063 24.769L19.0762 25.4121ZM17.4261 23.6615C17.531 23.1824 17.619 22.9424 17.955 22.6462C18.1587 23.3002 18.11 23.0717 17.9431 23.2838L17.4261 23.6615ZM16.5847 21.8965C16.6518 21.3642 16.8257 21.0063 17.1732 20.6178L17.4268 21.3125C17.1623 21.7599 17.1902 21.7862 16.5844 21.8966L16.5847 21.8965ZM16.5195 20.8885C16.4807 20.636 16.4589 20.4685 16.5295 20.2782C16.7005 19.8164 16.6482 20.0057 17.0003 19.9094C17.1405 20.5506 16.8706 20.2021 16.5192 20.8885H16.5195ZM16.5837 19.4531C16.1662 19.3696 16.1065 19.4114 16.3873 18.8934C16.5523 18.5901 16.6155 18.6036 16.7814 18.378C16.7769 18.7673 16.7387 19.1713 16.5841 19.4531L16.5837 19.4531ZM20.4626 14.8092C20.4671 14.2858 20.7568 14.3529 21.2578 14.4135L20.4626 14.8092ZM20.7966 13.9996C20.8807 13.7461 20.994 13.5195 21.1307 13.3202C21.3364 13.0214 21.243 13.0593 21.7003 13.0529L21.4385 14.0002L20.7963 13.9992L20.7966 13.9996ZM21.7212 14.2188C21.8053 13.9623 21.8643 13.7024 21.9603 13.4065C22.0889 13.0118 22.0508 13.0109 22.5408 13.0089L22.2654 13.8927C22.8976 13.6363 22.5681 13.5593 22.9121 12.9826L23.6328 12.9836C23.2994 13.4245 22.5497 14.1854 21.7211 14.2188L21.7212 14.2188ZM23.0363 10.4134C22.586 10.4279 22.6939 10.3746 22.4449 10.6153C22.4956 10.1853 22.7202 9.8066 22.9041 9.40354L22.4304 9.15259L22.6287 8.55024C23.1014 9.64682 23.3687 9.89229 23.5651 11.2953L22.7782 10.9827L23.0363 10.4131L23.0363 10.4134ZM20.3458 7.24547C19.9764 7.07057 20.2623 7.3488 20.219 7.06993C20.1718 6.77277 20.66 6.06192 20.8031 5.94255C21.4035 6.09755 21.7892 6.86545 22.081 7.38532C22.5328 8.19304 22.1859 8.48477 21.822 9.21831L20.5268 8.77995L20.9308 7.7376L22.0929 7.85248C21.8965 7.59992 22.2848 7.77739 21.7062 7.512C21.4989 7.41701 21.3791 7.43401 21.1475 7.40866C21.3811 6.74471 21.2444 6.86793 21.1754 6.76653C20.719 7.01844 20.7733 7.4475 20.3458 7.24564L20.3458 7.24547ZM18.8317 5.68876L20.2652 5.95767C20.1503 6.40951 20.0524 6.55168 20.1201 7.07446C19.8294 7.05264 18.9373 6.93968 19.4074 7.40596C19.5794 7.57636 20.2216 7.56802 20.5142 7.6152L20.0842 9.08335L21.5187 9.50438C21.2462 10.4835 21.2668 10.418 20.5306 10.5875L20.8031 11.6516C21.1863 11.5268 21.1699 10.7161 21.7867 11.2521L21.9969 11.5807C22.0088 11.6025 22.0223 11.6487 22.0441 11.6766C22.3383 11.2482 22.0312 11.4603 22.495 11.3958C23.7456 11.2229 23.8335 11.789 23.7365 12.8522C23.5183 12.6067 23.5238 12.6628 23.0745 12.5897C23.2321 12.1741 23.2892 12.2999 23.174 11.8914C22.34 12.22 23.3306 12.5544 22.2902 12.6105C22.4577 12.0534 22.7712 12.0698 22.5402 11.6568C22.0392 11.8497 22.1634 12.1051 21.8871 12.5704C21.4869 12.5152 22.0691 12.6032 21.58 12.3105C21.0313 12.6202 21.2078 12.4138 20.9343 13.0158C20.7549 13.4099 20.5849 13.5656 20.487 13.9259C19.8323 13.7709 19.5333 13.3319 19.0878 13.6034C19.2627 14.0517 19.711 14.0671 20.1545 14.261C19.8936 15.2808 19.4954 14.9265 18.568 14.9917C17.6813 15.0542 18.4139 15.3148 17.6017 15.2173C17.1216 15.1601 17.2131 14.8633 16.7096 15.1085C16.7683 15.6309 16.9715 15.5141 17.5671 15.6174C17.4529 15.8729 17.2992 16.1989 17.1904 16.4643C16.9648 17.0166 17.0726 17.1482 16.6407 17.1797C16.907 16.5558 16.9224 17.0718 16.9269 16.5057C16.1362 16.5773 16.6634 16.7423 16.1208 17.1071C16.3753 16.1508 16.7356 16.3065 17.0283 15.7712C16.4966 15.7448 16.2014 16.1081 15.9841 16.4939C15.3464 17.6241 15.4379 16.6161 15.0323 17.2926C15.2832 17.5634 15.5711 17.4874 16.0203 17.5362C15.8826 18.1347 15.7578 17.9909 15.6843 18.6023C16.0575 18.4681 15.9696 18.5406 16.1898 18.0644C16.4343 17.5327 16.2286 17.5962 16.8742 17.541C16.7783 18.049 16.4304 18.2765 16.2212 18.5962C15.5537 19.6131 16.0518 18.7935 15.3788 19.3269L15.7093 19.824C15.8942 19.9209 16.1576 19.8339 16.3232 19.9472L15.9773 21.0213L16.4391 21.1942C16.2334 21.5764 16.0723 21.8534 16.0742 22.3046C16.519 22.5899 16.2979 22.4294 16.8759 22.2748C16.7446 22.8027 16.4802 23.1669 16.5488 23.5527C17.113 23.3081 17.1538 22.2966 17.5758 21.7966C17.9499 22.2758 17.5947 22.5039 17.1791 23.2719C17.0007 23.6005 16.3877 24.1774 16.8312 24.9101C17.5157 24.6428 16.7 24.4191 17.4516 24.1392L17.4435 24.6671C17.3948 24.8918 17.3322 25.0818 17.4516 25.2396C17.7731 24.9037 17.8219 24.6274 17.8999 24.1457L18.5102 24.2327C18.56 24.6219 18.4605 24.6383 18.2339 25.0766C18.0003 25.5285 17.8145 25.4181 17.7359 25.8754C18.0873 26.0891 18.0844 25.9216 18.6788 25.9152L18.5591 27.1394L19.0545 27.3467C18.9721 27.9571 18.8299 28.1728 19.3334 28.3627C19.4069 28.147 19.3507 27.622 19.4175 27.2116L20.1337 27.3149C20.5686 28.4516 19.7435 28.0694 19.7236 29.0655C19.7227 29.1191 19.7718 29.6252 19.8096 29.7157C20.4245 29.4438 19.8231 29.2709 20.43 28.8627C20.4444 28.8915 20.4572 28.9069 20.4598 28.9541C20.4624 29.0023 20.4832 29.0257 20.4861 29.0475L20.4672 29.7766C20.3096 30.7249 20.4219 29.9531 20.0015 30.617L20.7714 30.7339L20.747 31.8567C21.1356 32.0932 21.0169 32.0531 21.5024 32.064L21.4915 32.9696C22.0919 32.7748 21.6472 33.1217 21.9517 31.9019C23.0178 31.9237 23.0283 32.4208 23.5248 33.1063C24.2385 34.0924 24.0312 33.75 23.7683 35.1665C23.1589 35.2137 23.1207 35.0523 22.8717 35.4544C23.1949 35.8898 23.0973 35.5885 23.5492 35.6318C24.3306 35.7079 23.4096 35.679 24.1785 35.9216C24.3261 35.5936 24.2808 35.7124 24.6014 35.4544C24.2953 35.112 24.1133 35.0722 24.2401 34.584L24.3543 34.3032C24.3633 34.2824 24.3816 34.2416 24.4015 34.2153C24.7908 34.5613 24.9185 34.6944 25.3812 35.0638C25.008 35.5166 25.0327 35.6841 24.9856 36.4267C24.4538 36.5608 24.502 36.4068 24.2593 36.8189L24.9095 36.9828C25.0398 36.9594 25.3007 36.7518 25.4656 36.6488L25.4368 36.4822C25.3697 35.9206 25.5064 35.6636 25.6088 35.1665C26.0128 35.3539 26.3995 35.5577 26.7689 35.815C27.7242 36.4806 28.2649 36.7335 29.4006 35.996C29.9831 35.6183 29.6477 35.4155 30.173 34.904C30.5841 34.9049 30.9772 35.2444 31.4275 34.8488C30.7982 34.4149 30.6621 34.9267 30.6214 33.8273L31.8148 33.9938C31.6001 33.377 31.525 33.9069 31.4416 32.974L32.0972 32.8745C31.4272 32.0052 31.1479 32.8825 31.725 31.604C32.1951 31.5851 32.455 31.7606 32.7846 31.6095C32.5718 31.3216 32.4903 31.355 32.2413 31.1368C32.2641 31.1178 32.3048 31.0642 32.3154 31.0861L33.0724 30.4683C33.0724 30.4683 33.5118 30.4619 33.5724 30.5171C34.0024 30.9083 33.575 30.3775 33.6051 31.0857L35.1808 31.2959C34.9552 30.7895 34.5297 30.8203 33.8334 30.6214C34.2707 30.4494 34.22 30.6095 34.3105 30.2029C34.3141 30.1901 34.3131 30.1477 34.3279 30.1259C34.9581 30.4221 35.2235 30.7998 35.6699 31.2407C35.5765 31.4933 35.4219 31.9252 35.3205 32.0728C35.1321 32.0321 34.8304 31.9596 34.6087 31.9227L33.9203 31.9814C34.0407 32.2901 33.8414 32.0982 34.153 32.2647C34.5252 32.4656 35.1555 32.3652 35.4681 32.6017L35.479 33.291C34.8452 33.2503 34.6106 33.0365 34.4775 33.5853L35.5153 33.6947L35.1276 34.2146C35.5451 34.6584 35.4646 34.2155 35.5724 34.7216C35.6966 35.3041 35.4835 34.9681 35.4338 35.5999L36.1112 35.8063C36.3583 35.915 36.2261 35.8416 36.3583 35.9503C36.2803 36.9067 36.4325 35.993 35.8513 36.5707C36.1048 37.0325 35.8766 36.7257 36.4183 36.9429L36.5278 37.6874L36.2698 37.7163C36.0525 37.7616 36.1693 37.6576 35.9626 37.8113C36.1629 38.3928 36.3529 37.9753 36.6112 38.5558C36.5814 38.5786 36.5271 38.5558 36.5069 38.5991C36.401 38.8273 35.9164 38.629 35.6093 38.8382C35.8663 39.3318 36.5014 39.2294 37.4494 39.3119C37.4176 39.8099 37.3624 40.2255 37.182 40.5515L36.5781 40.3866C36.6243 39.9765 36.7883 39.5879 36.5572 39.2708C36.417 39.5471 36.2963 39.8131 36.2392 40.2361L35.5736 40.0333C35.2303 40.3503 35.5473 39.9646 35.3564 40.2932C35.073 40.7804 35.3111 41.0685 34.8003 41.2749C34.5557 40.6301 34.7983 40.9398 34.9405 40.4434L34.9668 39.9399C34.9658 39.9181 34.9658 39.8783 34.9649 39.8574L34.015 41.7412C33.5016 41.7283 33.6383 41.599 33.3305 41.9052C33.4473 42.1924 33.3331 41.9793 33.5452 42.1795L33.834 42.4013L33.6928 43.278C32.8668 43.1785 32.5292 42.5027 31.8508 42.5434C31.8001 43.3213 32.8007 43.3477 33.3215 43.7298C31.8672 44.4336 26.4072 44.3068 24.845 43.1974C24.4926 42.9474 24.3659 42.7138 24.0235 42.4086C23.4692 41.9141 22.829 41.4206 22.3544 40.7261C21.7839 39.893 21.3265 39.0417 20.6173 38.2429C19.1267 36.5649 19.0407 35.9854 18.1829 34.8432C16.9269 33.1706 17.0526 33.0609 16.1942 31.7468C15.7026 30.9942 15.2877 30.4744 14.8512 29.7418C13.5868 27.6164 12.627 25.3729 11.2541 23.2873C10.0931 21.5224 8.59255 17.956 8.58803 15.7274C8.58546 13.9877 9.01195 11.7869 9.78089 10.5418L12.5494 6.98011C13.6488 5.95419 14.8676 5.05305 16.2299 4.3329C17.0395 3.90545 17.475 3.45165 18.4214 3.96257L20.2868 5.33543C19.4807 5.6849 18.8405 5.08351 18.8305 5.68682L18.8317 5.68876ZM17.7079 3.09774C16.3087 3.49792 16.2689 3.78866 15.1441 4.48793C12.9979 5.82193 11.7046 7.03532 10.221 9.12118C9.81251 9.69529 9.43866 10.2026 9.15691 10.7812C7.2706 14.6517 8.06839 16.4793 8.90596 19.5461C9.36871 21.2386 10.1312 22.8861 10.9219 24.3677C11.1202 24.739 11.2216 24.74 11.4726 25.1838C11.8249 25.807 12.169 26.2858 12.5079 26.8728L15.4194 32.0311C15.7898 32.5519 15.7067 32.1026 16.5686 33.6106C16.8494 34.1032 17.2387 34.9616 17.5294 35.3811C17.9135 35.9363 18.2983 36.2967 18.6731 36.9676L22.8995 42.2963C23.0397 42.4022 23.1485 42.4519 23.2727 42.5418L24.4944 43.4266C26.0457 44.69 30.8843 44.7134 32.5787 44.3575C33.1339 44.2417 33.0703 44.1701 33.5151 43.949C34.0811 43.6692 34.4714 43.9009 35.5589 43.2626C35.9829 43.0136 35.9338 42.9131 36.3105 42.6487C37.3285 41.9315 36.6709 42.9131 38.5293 40.774C38.6506 40.6344 38.6888 40.592 38.821 40.4444C39.061 40.1771 38.9705 40.2868 39.147 40.0304L39.3816 39.689C39.4785 39.5134 39.4442 39.6418 39.483 39.3411C39.6833 37.8043 38.7992 35.1427 38.1391 34.005L36.4228 31.6233C36.1167 31.3052 36.0743 31.2221 35.8106 30.8717C34.1524 28.6638 33.4731 29.2806 31.9507 30.8489C31.6782 31.1297 31.486 31.2257 31.237 31.4946C30.7678 32 30.5551 32.3042 30.1639 33.0333L29.5654 34.4325C29.5336 34.5329 29.5166 36.2501 27.8964 35.9584C27.21 35.8351 26.8143 35.2809 26.1638 34.9331C24.9258 34.2711 24.2477 33.3917 23.4335 32.2079C22.2353 30.4654 22.431 30.8361 21.3506 28.8272C19.2984 25.009 19.2769 25.2997 17.9572 21.4309C17.3713 19.7111 16.9945 19.0003 17.4101 16.9327C17.7958 15.0181 19.1979 15.7328 20.9539 15.0127C21.6294 14.7354 24.0693 14.1151 24.1627 12.7586C24.2795 11.0642 23.5424 9.76643 23.0007 8.43531C22.7436 7.80312 22.4927 7.24343 22.0921 6.62055C21.433 5.59529 18.839 3.45989 18.1247 3.12487C17.574 2.8659 17.74 3.08861 17.7072 3.0976L17.7079 3.09774Z"/>
</mask>
<path fill-rule="evenodd" clip-rule="evenodd" d="M33.9358 43.2913C34.4611 41.9663 33.9647 42.5677 34.4537 42.3449C34.4592 42.3539 34.8016 42.2823 34.5327 42.9598C34.3979 43.3003 34.3632 43.2322 33.9358 43.2913L33.9358 43.2913ZM35.0342 42.8972C35.0949 42.2849 35.0596 42.4316 35.7534 42.4752C35.4501 42.6999 35.5968 42.7262 35.0342 42.8972ZM35.2351 42.0433C35.3256 41.8122 35.1963 41.6973 35.7098 41.8523C36.0294 41.9483 36.0413 42.0208 36.1645 42.2663L35.2354 42.0436L35.2351 42.0433ZM34.4255 41.7824C34.4727 41.7589 34.2852 41.4582 34.7987 41.7824C34.5786 41.9752 35.1421 41.928 34.6601 41.8828C34.4046 41.8584 34.5821 41.8908 34.4255 41.7824ZM35.6408 40.5671L36.1099 40.6511L36.0175 41.4816L35.3744 41.3902L35.6408 40.5671ZM36.4514 41.4736L36.4812 40.9448C36.9729 40.7907 37.0951 40.9075 37.5065 41.0134C37.1586 41.584 37.1885 41.3648 36.4513 41.4736L36.4514 41.4736ZM37.8162 38.9288C37.9394 38.5729 37.5771 38.6961 38.0597 38.6563C38.45 38.6246 38.356 38.7796 38.45 38.9288C38.3893 38.9631 38.4147 39.0382 38.1711 39.043C37.598 39.053 37.9519 39.0122 37.8162 38.9288ZM36.9086 38.6807C37.1333 38.5312 36.8127 38.5774 37.1939 38.5559C37.52 38.537 37.4121 38.5902 37.538 38.64C37.2844 39.3229 37.1339 38.8328 36.9086 38.6807ZM38.3004 37.0903C38.3123 37.1131 38.3322 37.1221 38.3347 37.159C38.3373 37.1988 38.361 37.2171 38.3646 37.236C38.3736 37.2887 38.3973 37.5005 38.4008 37.5521C38.4217 37.8393 38.4217 38.0402 38.457 38.3345L37.8601 38.2584C38.2189 38.0646 38.0311 38.2658 38.044 37.6914C38.0604 36.9369 37.8983 37.2104 38.3004 37.09L38.3004 37.0903ZM36.8524 36.9944C38.2218 36.7652 37.6079 38.0794 37.6014 38.0858C37.4737 38.2061 37.106 38.1156 36.8977 38.0803L36.8524 36.9944ZM38.7968 36.9809C38.8556 37.0643 38.854 37.0018 38.9181 37.1965C38.9807 37.3859 38.9579 37.3179 38.9798 37.4745C39.1229 38.5187 39.1238 38.6608 39.016 39.6734C38.0662 40.3806 38.4246 40.5446 37.8043 40.6531C37.6586 40.2943 37.7744 39.8444 37.8078 39.4016L38.5539 39.3227C39.1145 37.6572 38.4868 37.335 38.7965 36.9806L38.7968 36.9809ZM36.8117 36.4475L36.752 36.0763C37.1532 35.8038 36.7058 35.9585 37.5209 35.8625L37.5607 36.5942C37.1134 36.5798 37.1432 36.643 36.8117 36.4475V36.4475ZM37.018 35.4957C37.0588 34.9614 37.0206 34.7496 37.623 35.0827C37.4808 35.6976 37.7388 35.4928 37.018 35.4957ZM35.943 35.3202C35.7899 35.0359 35.8734 35.0205 35.9286 34.5856L36.607 34.7198C36.1814 35.4922 36.3396 35.341 35.943 35.3202H35.943ZM36.6593 33.8549L36.691 34.3559C36.1404 34.2172 35.9375 34.2942 35.865 33.7282L36.6593 33.8549ZM38.0003 34.9951L37.0857 34.5523C37.0424 34.1312 36.9997 33.5225 37.1772 33.2464C37.3402 33.5397 37.5177 33.6758 37.725 34.0442C38.2484 34.9726 38.4765 35.7132 38.7862 36.7591L37.974 36.6497C37.897 35.8346 37.9297 36.004 38.2076 35.5792C38.1216 35.4181 38.1187 35.3709 38.0581 35.1905C38.0472 35.1588 38.0401 35.119 38.0302 35.0911C38.0212 35.0631 38.0074 35.0169 38.0003 34.9951L38.0003 34.9951ZM31.0652 32.9846L31.0626 33.4194L30.5302 33.223C30.571 32.9487 30.7558 33.0247 31.0655 32.9849L31.0652 32.9846ZM36.5424 32.3588C36.4962 33.0841 36.5043 32.7211 36.6111 33.4781L35.8621 33.3142L35.8785 32.5382L36.5424 32.3588ZM35.858 31.734C36.2039 31.888 36.1949 31.8653 36.3262 32.2032C35.9106 32.1489 35.9042 32.1489 35.858 31.734ZM21.7301 30.3114C22.0273 30.6856 22.173 31.1419 22.3639 31.5566C21.8729 31.4879 22.1075 31.5437 21.9573 31.1192C21.6531 31.2947 21.8948 31.1073 21.6794 31.3646C21.4747 31.6092 21.7536 31.5078 21.0736 31.6698L21.2237 30.478L21.7301 30.3114ZM20.9693 29.1703C21.1974 29.3686 21.4256 29.6882 21.537 30.0839L20.856 29.9944L20.9693 29.1703ZM20.4629 28.2602C20.461 28.2104 20.5498 28.0699 20.5977 28.3064C20.632 28.4819 20.4719 28.5564 20.4629 28.2602ZM19.0762 25.4121L19.4793 26.1512C19.2681 26.7695 19.4186 26.8077 18.849 26.7904L19.0762 25.4121ZM19.0762 25.4121L18.4748 25.51C18.4938 25.4076 18.5608 25.1143 18.5881 25.0552C18.8317 24.5373 18.599 24.9757 18.8063 24.769L19.0762 25.4121ZM17.4261 23.6615C17.531 23.1824 17.619 22.9424 17.955 22.6462C18.1587 23.3002 18.11 23.0717 17.9431 23.2838L17.4261 23.6615ZM16.5847 21.8965C16.6518 21.3642 16.8257 21.0063 17.1732 20.6178L17.4268 21.3125C17.1623 21.7599 17.1902 21.7862 16.5844 21.8966L16.5847 21.8965ZM16.5195 20.8885C16.4807 20.636 16.4589 20.4685 16.5295 20.2782C16.7005 19.8164 16.6482 20.0057 17.0003 19.9094C17.1405 20.5506 16.8706 20.2021 16.5192 20.8885H16.5195ZM16.5837 19.4531C16.1662 19.3696 16.1065 19.4114 16.3873 18.8934C16.5523 18.5901 16.6155 18.6036 16.7814 18.378C16.7769 18.7673 16.7387 19.1713 16.5841 19.4531L16.5837 19.4531ZM20.4626 14.8092C20.4671 14.2858 20.7568 14.3529 21.2578 14.4135L20.4626 14.8092ZM20.7966 13.9996C20.8807 13.7461 20.994 13.5195 21.1307 13.3202C21.3364 13.0214 21.243 13.0593 21.7003 13.0529L21.4385 14.0002L20.7963 13.9992L20.7966 13.9996ZM21.7212 14.2188C21.8053 13.9623 21.8643 13.7024 21.9603 13.4065C22.0889 13.0118 22.0508 13.0109 22.5408 13.0089L22.2654 13.8927C22.8976 13.6363 22.5681 13.5593 22.9121 12.9826L23.6328 12.9836C23.2994 13.4245 22.5497 14.1854 21.7211 14.2188L21.7212 14.2188ZM23.0363 10.4134C22.586 10.4279 22.6939 10.3746 22.4449 10.6153C22.4956 10.1853 22.7202 9.8066 22.9041 9.40354L22.4304 9.15259L22.6287 8.55024C23.1014 9.64682 23.3687 9.89229 23.5651 11.2953L22.7782 10.9827L23.0363 10.4131L23.0363 10.4134ZM20.3458 7.24547C19.9764 7.07057 20.2623 7.3488 20.219 7.06993C20.1718 6.77277 20.66 6.06192 20.8031 5.94255C21.4035 6.09755 21.7892 6.86545 22.081 7.38532C22.5328 8.19304 22.1859 8.48477 21.822 9.21831L20.5268 8.77995L20.9308 7.7376L22.0929 7.85248C21.8965 7.59992 22.2848 7.77739 21.7062 7.512C21.4989 7.41701 21.3791 7.43401 21.1475 7.40866C21.3811 6.74471 21.2444 6.86793 21.1754 6.76653C20.719 7.01844 20.7733 7.4475 20.3458 7.24564L20.3458 7.24547ZM18.8317 5.68876L20.2652 5.95767C20.1503 6.40951 20.0524 6.55168 20.1201 7.07446C19.8294 7.05264 18.9373 6.93968 19.4074 7.40596C19.5794 7.57636 20.2216 7.56802 20.5142 7.6152L20.0842 9.08335L21.5187 9.50438C21.2462 10.4835 21.2668 10.418 20.5306 10.5875L20.8031 11.6516C21.1863 11.5268 21.1699 10.7161 21.7867 11.2521L21.9969 11.5807C22.0088 11.6025 22.0223 11.6487 22.0441 11.6766C22.3383 11.2482 22.0312 11.4603 22.495 11.3958C23.7456 11.2229 23.8335 11.789 23.7365 12.8522C23.5183 12.6067 23.5238 12.6628 23.0745 12.5897C23.2321 12.1741 23.2892 12.2999 23.174 11.8914C22.34 12.22 23.3306 12.5544 22.2902 12.6105C22.4577 12.0534 22.7712 12.0698 22.5402 11.6568C22.0392 11.8497 22.1634 12.1051 21.8871 12.5704C21.4869 12.5152 22.0691 12.6032 21.58 12.3105C21.0313 12.6202 21.2078 12.4138 20.9343 13.0158C20.7549 13.4099 20.5849 13.5656 20.487 13.9259C19.8323 13.7709 19.5333 13.3319 19.0878 13.6034C19.2627 14.0517 19.711 14.0671 20.1545 14.261C19.8936 15.2808 19.4954 14.9265 18.568 14.9917C17.6813 15.0542 18.4139 15.3148 17.6017 15.2173C17.1216 15.1601 17.2131 14.8633 16.7096 15.1085C16.7683 15.6309 16.9715 15.5141 17.5671 15.6174C17.4529 15.8729 17.2992 16.1989 17.1904 16.4643C16.9648 17.0166 17.0726 17.1482 16.6407 17.1797C16.907 16.5558 16.9224 17.0718 16.9269 16.5057C16.1362 16.5773 16.6634 16.7423 16.1208 17.1071C16.3753 16.1508 16.7356 16.3065 17.0283 15.7712C16.4966 15.7448 16.2014 16.1081 15.9841 16.4939C15.3464 17.6241 15.4379 16.6161 15.0323 17.2926C15.2832 17.5634 15.5711 17.4874 16.0203 17.5362C15.8826 18.1347 15.7578 17.9909 15.6843 18.6023C16.0575 18.4681 15.9696 18.5406 16.1898 18.0644C16.4343 17.5327 16.2286 17.5962 16.8742 17.541C16.7783 18.049 16.4304 18.2765 16.2212 18.5962C15.5537 19.6131 16.0518 18.7935 15.3788 19.3269L15.7093 19.824C15.8942 19.9209 16.1576 19.8339 16.3232 19.9472L15.9773 21.0213L16.4391 21.1942C16.2334 21.5764 16.0723 21.8534 16.0742 22.3046C16.519 22.5899 16.2979 22.4294 16.8759 22.2748C16.7446 22.8027 16.4802 23.1669 16.5488 23.5527C17.113 23.3081 17.1538 22.2966 17.5758 21.7966C17.9499 22.2758 17.5947 22.5039 17.1791 23.2719C17.0007 23.6005 16.3877 24.1774 16.8312 24.9101C17.5157 24.6428 16.7 24.4191 17.4516 24.1392L17.4435 24.6671C17.3948 24.8918 17.3322 25.0818 17.4516 25.2396C17.7731 24.9037 17.8219 24.6274 17.8999 24.1457L18.5102 24.2327C18.56 24.6219 18.4605 24.6383 18.2339 25.0766C18.0003 25.5285 17.8145 25.4181 17.7359 25.8754C18.0873 26.0891 18.0844 25.9216 18.6788 25.9152L18.5591 27.1394L19.0545 27.3467C18.9721 27.9571 18.8299 28.1728 19.3334 28.3627C19.4069 28.147 19.3507 27.622 19.4175 27.2116L20.1337 27.3149C20.5686 28.4516 19.7435 28.0694 19.7236 29.0655C19.7227 29.1191 19.7718 29.6252 19.8096 29.7157C20.4245 29.4438 19.8231 29.2709 20.43 28.8627C20.4444 28.8915 20.4572 28.9069 20.4598 28.9541C20.4624 29.0023 20.4832 29.0257 20.4861 29.0475L20.4672 29.7766C20.3096 30.7249 20.4219 29.9531 20.0015 30.617L20.7714 30.7339L20.747 31.8567C21.1356 32.0932 21.0169 32.0531 21.5024 32.064L21.4915 32.9696C22.0919 32.7748 21.6472 33.1217 21.9517 31.9019C23.0178 31.9237 23.0283 32.4208 23.5248 33.1063C24.2385 34.0924 24.0312 33.75 23.7683 35.1665C23.1589 35.2137 23.1207 35.0523 22.8717 35.4544C23.1949 35.8898 23.0973 35.5885 23.5492 35.6318C24.3306 35.7079 23.4096 35.679 24.1785 35.9216C24.3261 35.5936 24.2808 35.7124 24.6014 35.4544C24.2953 35.112 24.1133 35.0722 24.2401 34.584L24.3543 34.3032C24.3633 34.2824 24.3816 34.2416 24.4015 34.2153C24.7908 34.5613 24.9185 34.6944 25.3812 35.0638C25.008 35.5166 25.0327 35.6841 24.9856 36.4267C24.4538 36.5608 24.502 36.4068 24.2593 36.8189L24.9095 36.9828C25.0398 36.9594 25.3007 36.7518 25.4656 36.6488L25.4368 36.4822C25.3697 35.9206 25.5064 35.6636 25.6088 35.1665C26.0128 35.3539 26.3995 35.5577 26.7689 35.815C27.7242 36.4806 28.2649 36.7335 29.4006 35.996C29.9831 35.6183 29.6477 35.4155 30.173 34.904C30.5841 34.9049 30.9772 35.2444 31.4275 34.8488C30.7982 34.4149 30.6621 34.9267 30.6214 33.8273L31.8148 33.9938C31.6001 33.377 31.525 33.9069 31.4416 32.974L32.0972 32.8745C31.4272 32.0052 31.1479 32.8825 31.725 31.604C32.1951 31.5851 32.455 31.7606 32.7846 31.6095C32.5718 31.3216 32.4903 31.355 32.2413 31.1368C32.2641 31.1178 32.3048 31.0642 32.3154 31.0861L33.0724 30.4683C33.0724 30.4683 33.5118 30.4619 33.5724 30.5171C34.0024 30.9083 33.575 30.3775 33.6051 31.0857L35.1808 31.2959C34.9552 30.7895 34.5297 30.8203 33.8334 30.6214C34.2707 30.4494 34.22 30.6095 34.3105 30.2029C34.3141 30.1901 34.3131 30.1477 34.3279 30.1259C34.9581 30.4221 35.2235 30.7998 35.6699 31.2407C35.5765 31.4933 35.4219 31.9252 35.3205 32.0728C35.1321 32.0321 34.8304 31.9596 34.6087 31.9227L33.9203 31.9814C34.0407 32.2901 33.8414 32.0982 34.153 32.2647C34.5252 32.4656 35.1555 32.3652 35.4681 32.6017L35.479 33.291C34.8452 33.2503 34.6106 33.0365 34.4775 33.5853L35.5153 33.6947L35.1276 34.2146C35.5451 34.6584 35.4646 34.2155 35.5724 34.7216C35.6966 35.3041 35.4835 34.9681 35.4338 35.5999L36.1112 35.8063C36.3583 35.915 36.2261 35.8416 36.3583 35.9503C36.2803 36.9067 36.4325 35.993 35.8513 36.5707C36.1048 37.0325 35.8766 36.7257 36.4183 36.9429L36.5278 37.6874L36.2698 37.7163C36.0525 37.7616 36.1693 37.6576 35.9626 37.8113C36.1629 38.3928 36.3529 37.9753 36.6112 38.5558C36.5814 38.5786 36.5271 38.5558 36.5069 38.5991C36.401 38.8273 35.9164 38.629 35.6093 38.8382C35.8663 39.3318 36.5014 39.2294 37.4494 39.3119C37.4176 39.8099 37.3624 40.2255 37.182 40.5515L36.5781 40.3866C36.6243 39.9765 36.7883 39.5879 36.5572 39.2708C36.417 39.5471 36.2963 39.8131 36.2392 40.2361L35.5736 40.0333C35.2303 40.3503 35.5473 39.9646 35.3564 40.2932C35.073 40.7804 35.3111 41.0685 34.8003 41.2749C34.5557 40.6301 34.7983 40.9398 34.9405 40.4434L34.9668 39.9399C34.9658 39.9181 34.9658 39.8783 34.9649 39.8574L34.015 41.7412C33.5016 41.7283 33.6383 41.599 33.3305 41.9052C33.4473 42.1924 33.3331 41.9793 33.5452 42.1795L33.834 42.4013L33.6928 43.278C32.8668 43.1785 32.5292 42.5027 31.8508 42.5434C31.8001 43.3213 32.8007 43.3477 33.3215 43.7298C31.8672 44.4336 26.4072 44.3068 24.845 43.1974C24.4926 42.9474 24.3659 42.7138 24.0235 42.4086C23.4692 41.9141 22.829 41.4206 22.3544 40.7261C21.7839 39.893 21.3265 39.0417 20.6173 38.2429C19.1267 36.5649 19.0407 35.9854 18.1829 34.8432C16.9269 33.1706 17.0526 33.0609 16.1942 31.7468C15.7026 30.9942 15.2877 30.4744 14.8512 29.7418C13.5868 27.6164 12.627 25.3729 11.2541 23.2873C10.0931 21.5224 8.59255 17.956 8.58803 15.7274C8.58546 13.9877 9.01195 11.7869 9.78089 10.5418L12.5494 6.98011C13.6488 5.95419 14.8676 5.05305 16.2299 4.3329C17.0395 3.90545 17.475 3.45165 18.4214 3.96257L20.2868 5.33543C19.4807 5.6849 18.8405 5.08351 18.8305 5.68682L18.8317 5.68876ZM17.7079 3.09774C16.3087 3.49792 16.2689 3.78866 15.1441 4.48793C12.9979 5.82193 11.7046 7.03532 10.221 9.12118C9.81251 9.69529 9.43866 10.2026 9.15691 10.7812C7.2706 14.6517 8.06839 16.4793 8.90596 19.5461C9.36871 21.2386 10.1312 22.8861 10.9219 24.3677C11.1202 24.739 11.2216 24.74 11.4726 25.1838C11.8249 25.807 12.169 26.2858 12.5079 26.8728L15.4194 32.0311C15.7898 32.5519 15.7067 32.1026 16.5686 33.6106C16.8494 34.1032 17.2387 34.9616 17.5294 35.3811C17.9135 35.9363 18.2983 36.2967 18.6731 36.9676L22.8995 42.2963C23.0397 42.4022 23.1485 42.4519 23.2727 42.5418L24.4944 43.4266C26.0457 44.69 30.8843 44.7134 32.5787 44.3575C33.1339 44.2417 33.0703 44.1701 33.5151 43.949C34.0811 43.6692 34.4714 43.9009 35.5589 43.2626C35.9829 43.0136 35.9338 42.9131 36.3105 42.6487C37.3285 41.9315 36.6709 42.9131 38.5293 40.774C38.6506 40.6344 38.6888 40.592 38.821 40.4444C39.061 40.1771 38.9705 40.2868 39.147 40.0304L39.3816 39.689C39.4785 39.5134 39.4442 39.6418 39.483 39.3411C39.6833 37.8043 38.7992 35.1427 38.1391 34.005L36.4228 31.6233C36.1167 31.3052 36.0743 31.2221 35.8106 30.8717C34.1524 28.6638 33.4731 29.2806 31.9507 30.8489C31.6782 31.1297 31.486 31.2257 31.237 31.4946C30.7678 32 30.5551 32.3042 30.1639 33.0333L29.5654 34.4325C29.5336 34.5329 29.5166 36.2501 27.8964 35.9584C27.21 35.8351 26.8143 35.2809 26.1638 34.9331C24.9258 34.2711 24.2477 33.3917 23.4335 32.2079C22.2353 30.4654 22.431 30.8361 21.3506 28.8272C19.2984 25.009 19.2769 25.2997 17.9572 21.4309C17.3713 19.7111 16.9945 19.0003 17.4101 16.9327C17.7958 15.0181 19.1979 15.7328 20.9539 15.0127C21.6294 14.7354 24.0693 14.1151 24.1627 12.7586C24.2795 11.0642 23.5424 9.76643 23.0007 8.43531C22.7436 7.80312 22.4927 7.24343 22.0921 6.62055C21.433 5.59529 18.839 3.45989 18.1247 3.12487C17.574 2.8659 17.74 3.08861 17.7072 3.0976L17.7079 3.09774Z" fill="#F8F8F8"/>
<path fill-rule="evenodd" clip-rule="evenodd" d="M33.9358 43.2913C34.4611 41.9663 33.9647 42.5677 34.4537 42.3449C34.4592 42.3539 34.8016 42.2823 34.5327 42.9598C34.3979 43.3003 34.3632 43.2322 33.9358 43.2913L33.9358 43.2913ZM35.0342 42.8972C35.0949 42.2849 35.0596 42.4316 35.7534 42.4752C35.4501 42.6999 35.5968 42.7262 35.0342 42.8972ZM35.2351 42.0433C35.3256 41.8122 35.1963 41.6973 35.7098 41.8523C36.0294 41.9483 36.0413 42.0208 36.1645 42.2663L35.2354 42.0436L35.2351 42.0433ZM34.4255 41.7824C34.4727 41.7589 34.2852 41.4582 34.7987 41.7824C34.5786 41.9752 35.1421 41.928 34.6601 41.8828C34.4046 41.8584 34.5821 41.8908 34.4255 41.7824ZM35.6408 40.5671L36.1099 40.6511L36.0175 41.4816L35.3744 41.3902L35.6408 40.5671ZM36.4514 41.4736L36.4812 40.9448C36.9729 40.7907 37.0951 40.9075 37.5065 41.0134C37.1586 41.584 37.1885 41.3648 36.4513 41.4736L36.4514 41.4736ZM37.8162 38.9288C37.9394 38.5729 37.5771 38.6961 38.0597 38.6563C38.45 38.6246 38.356 38.7796 38.45 38.9288C38.3893 38.9631 38.4147 39.0382 38.1711 39.043C37.598 39.053 37.9519 39.0122 37.8162 38.9288ZM36.9086 38.6807C37.1333 38.5312 36.8127 38.5774 37.1939 38.5559C37.52 38.537 37.4121 38.5902 37.538 38.64C37.2844 39.3229 37.1339 38.8328 36.9086 38.6807ZM38.3004 37.0903C38.3123 37.1131 38.3322 37.1221 38.3347 37.159C38.3373 37.1988 38.361 37.2171 38.3646 37.236C38.3736 37.2887 38.3973 37.5005 38.4008 37.5521C38.4217 37.8393 38.4217 38.0402 38.457 38.3345L37.8601 38.2584C38.2189 38.0646 38.0311 38.2658 38.044 37.6914C38.0604 36.9369 37.8983 37.2104 38.3004 37.09L38.3004 37.0903ZM36.8524 36.9944C38.2218 36.7652 37.6079 38.0794 37.6014 38.0858C37.4737 38.2061 37.106 38.1156 36.8977 38.0803L36.8524 36.9944ZM38.7968 36.9809C38.8556 37.0643 38.854 37.0018 38.9181 37.1965C38.9807 37.3859 38.9579 37.3179 38.9798 37.4745C39.1229 38.5187 39.1238 38.6608 39.016 39.6734C38.0662 40.3806 38.4246 40.5446 37.8043 40.6531C37.6586 40.2943 37.7744 39.8444 37.8078 39.4016L38.5539 39.3227C39.1145 37.6572 38.4868 37.335 38.7965 36.9806L38.7968 36.9809ZM36.8117 36.4475L36.752 36.0763C37.1532 35.8038 36.7058 35.9585 37.5209 35.8625L37.5607 36.5942C37.1134 36.5798 37.1432 36.643 36.8117 36.4475V36.4475ZM37.018 35.4957C37.0588 34.9614 37.0206 34.7496 37.623 35.0827C37.4808 35.6976 37.7388 35.4928 37.018 35.4957ZM35.943 35.3202C35.7899 35.0359 35.8734 35.0205 35.9286 34.5856L36.607 34.7198C36.1814 35.4922 36.3396 35.341 35.943 35.3202H35.943ZM36.6593 33.8549L36.691 34.3559C36.1404 34.2172 35.9375 34.2942 35.865 33.7282L36.6593 33.8549ZM38.0003 34.9951L37.0857 34.5523C37.0424 34.1312 36.9997 33.5225 37.1772 33.2464C37.3402 33.5397 37.5177 33.6758 37.725 34.0442C38.2484 34.9726 38.4765 35.7132 38.7862 36.7591L37.974 36.6497C37.897 35.8346 37.9297 36.004 38.2076 35.5792C38.1216 35.4181 38.1187 35.3709 38.0581 35.1905C38.0472 35.1588 38.0401 35.119 38.0302 35.0911C38.0212 35.0631 38.0074 35.0169 38.0003 34.9951L38.0003 34.9951ZM31.0652 32.9846L31.0626 33.4194L30.5302 33.223C30.571 32.9487 30.7558 33.0247 31.0655 32.9849L31.0652 32.9846ZM36.5424 32.3588C36.4962 33.0841 36.5043 32.7211 36.6111 33.4781L35.8621 33.3142L35.8785 32.5382L36.5424 32.3588ZM35.858 31.734C36.2039 31.888 36.1949 31.8653 36.3262 32.2032C35.9106 32.1489 35.9042 32.1489 35.858 31.734ZM21.7301 30.3114C22.0273 30.6856 22.173 31.1419 22.3639 31.5566C21.8729 31.4879 22.1075 31.5437 21.9573 31.1192C21.6531 31.2947 21.8948 31.1073 21.6794 31.3646C21.4747 31.6092 21.7536 31.5078 21.0736 31.6698L21.2237 30.478L21.7301 30.3114ZM20.9693 29.1703C21.1974 29.3686 21.4256 29.6882 21.537 30.0839L20.856 29.9944L20.9693 29.1703ZM20.4629 28.2602C20.461 28.2104 20.5498 28.0699 20.5977 28.3064C20.632 28.4819 20.4719 28.5564 20.4629 28.2602ZM19.0762 25.4121L19.4793 26.1512C19.2681 26.7695 19.4186 26.8077 18.849 26.7904L19.0762 25.4121ZM19.0762 25.4121L18.4748 25.51C18.4938 25.4076 18.5608 25.1143 18.5881 25.0552C18.8317 24.5373 18.599 24.9757 18.8063 24.769L19.0762 25.4121ZM17.4261 23.6615C17.531 23.1824 17.619 22.9424 17.955 22.6462C18.1587 23.3002 18.11 23.0717 17.9431 23.2838L17.4261 23.6615ZM16.5847 21.8965C16.6518 21.3642 16.8257 21.0063 17.1732 20.6178L17.4268 21.3125C17.1623 21.7599 17.1902 21.7862 16.5844 21.8966L16.5847 21.8965ZM16.5195 20.8885C16.4807 20.636 16.4589 20.4685 16.5295 20.2782C16.7005 19.8164 16.6482 20.0057 17.0003 19.9094C17.1405 20.5506 16.8706 20.2021 16.5192 20.8885H16.5195ZM16.5837 19.4531C16.1662 19.3696 16.1065 19.4114 16.3873 18.8934C16.5523 18.5901 16.6155 18.6036 16.7814 18.378C16.7769 18.7673 16.7387 19.1713 16.5841 19.4531L16.5837 19.4531ZM20.4626 14.8092C20.4671 14.2858 20.7568 14.3529 21.2578 14.4135L20.4626 14.8092ZM20.7966 13.9996C20.8807 13.7461 20.994 13.5195 21.1307 13.3202C21.3364 13.0214 21.243 13.0593 21.7003 13.0529L21.4385 14.0002L20.7963 13.9992L20.7966 13.9996ZM21.7212 14.2188C21.8053 13.9623 21.8643 13.7024 21.9603 13.4065C22.0889 13.0118 22.0508 13.0109 22.5408 13.0089L22.2654 13.8927C22.8976 13.6363 22.5681 13.5593 22.9121 12.9826L23.6328 12.9836C23.2994 13.4245 22.5497 14.1854 21.7211 14.2188L21.7212 14.2188ZM23.0363 10.4134C22.586 10.4279 22.6939 10.3746 22.4449 10.6153C22.4956 10.1853 22.7202 9.8066 22.9041 9.40354L22.4304 9.15259L22.6287 8.55024C23.1014 9.64682 23.3687 9.89229 23.5651 11.2953L22.7782 10.9827L23.0363 10.4131L23.0363 10.4134ZM20.3458 7.24547C19.9764 7.07057 20.2623 7.3488 20.219 7.06993C20.1718 6.77277 20.66 6.06192 20.8031 5.94255C21.4035 6.09755 21.7892 6.86545 22.081 7.38532C22.5328 8.19304 22.1859 8.48477 21.822 9.21831L20.5268 8.77995L20.9308 7.7376L22.0929 7.85248C21.8965 7.59992 22.2848 7.77739 21.7062 7.512C21.4989 7.41701 21.3791 7.43401 21.1475 7.40866C21.3811 6.74471 21.2444 6.86793 21.1754 6.76653C20.719 7.01844 20.7733 7.4475 20.3458 7.24564L20.3458 7.24547ZM18.8317 5.68876L20.2652 5.95767C20.1503 6.40951 20.0524 6.55168 20.1201 7.07446C19.8294 7.05264 18.9373 6.93968 19.4074 7.40596C19.5794 7.57636 20.2216 7.56802 20.5142 7.6152L20.0842 9.08335L21.5187 9.50438C21.2462 10.4835 21.2668 10.418 20.5306 10.5875L20.8031 11.6516C21.1863 11.5268 21.1699 10.7161 21.7867 11.2521L21.9969 11.5807C22.0088 11.6025 22.0223 11.6487 22.0441 11.6766C22.3383 11.2482 22.0312 11.4603 22.495 11.3958C23.7456 11.2229 23.8335 11.789 23.7365 12.8522C23.5183 12.6067 23.5238 12.6628 23.0745 12.5897C23.2321 12.1741 23.2892 12.2999 23.174 11.8914C22.34 12.22 23.3306 12.5544 22.2902 12.6105C22.4577 12.0534 22.7712 12.0698 22.5402 11.6568C22.0392 11.8497 22.1634 12.1051 21.8871 12.5704C21.4869 12.5152 22.0691 12.6032 21.58 12.3105C21.0313 12.6202 21.2078 12.4138 20.9343 13.0158C20.7549 13.4099 20.5849 13.5656 20.487 13.9259C19.8323 13.7709 19.5333 13.3319 19.0878 13.6034C19.2627 14.0517 19.711 14.0671 20.1545 14.261C19.8936 15.2808 19.4954 14.9265 18.568 14.9917C17.6813 15.0542 18.4139 15.3148 17.6017 15.2173C17.1216 15.1601 17.2131 14.8633 16.7096 15.1085C16.7683 15.6309 16.9715 15.5141 17.5671 15.6174C17.4529 15.8729 17.2992 16.1989 17.1904 16.4643C16.9648 17.0166 17.0726 17.1482 16.6407 17.1797C16.907 16.5558 16.9224 17.0718 16.9269 16.5057C16.1362 16.5773 16.6634 16.7423 16.1208 17.1071C16.3753 16.1508 16.7356 16.3065 17.0283 15.7712C16.4966 15.7448 16.2014 16.1081 15.9841 16.4939C15.3464 17.6241 15.4379 16.6161 15.0323 17.2926C15.2832 17.5634 15.5711 17.4874 16.0203 17.5362C15.8826 18.1347 15.7578 17.9909 15.6843 18.6023C16.0575 18.4681 15.9696 18.5406 16.1898 18.0644C16.4343 17.5327 16.2286 17.5962 16.8742 17.541C16.7783 18.049 16.4304 18.2765 16.2212 18.5962C15.5537 19.6131 16.0518 18.7935 15.3788 19.3269L15.7093 19.824C15.8942 19.9209 16.1576 19.8339 16.3232 19.9472L15.9773 21.0213L16.4391 21.1942C16.2334 21.5764 16.0723 21.8534 16.0742 22.3046C16.519 22.5899 16.2979 22.4294 16.8759 22.2748C16.7446 22.8027 16.4802 23.1669 16.5488 23.5527C17.113 23.3081 17.1538 22.2966 17.5758 21.7966C17.9499 22.2758 17.5947 22.5039 17.1791 23.2719C17.0007 23.6005 16.3877 24.1774 16.8312 24.9101C17.5157 24.6428 16.7 24.4191 17.4516 24.1392L17.4435 24.6671C17.3948 24.8918 17.3322 25.0818 17.4516 25.2396C17.7731 24.9037 17.8219 24.6274 17.8999 24.1457L18.5102 24.2327C18.56 24.6219 18.4605 24.6383 18.2339 25.0766C18.0003 25.5285 17.8145 25.4181 17.7359 25.8754C18.0873 26.0891 18.0844 25.9216 18.6788 25.9152L18.5591 27.1394L19.0545 27.3467C18.9721 27.9571 18.8299 28.1728 19.3334 28.3627C19.4069 28.147 19.3507 27.622 19.4175 27.2116L20.1337 27.3149C20.5686 28.4516 19.7435 28.0694 19.7236 29.0655C19.7227 29.1191 19.7718 29.6252 19.8096 29.7157C20.4245 29.4438 19.8231 29.2709 20.43 28.8627C20.4444 28.8915 20.4572 28.9069 20.4598 28.9541C20.4624 29.0023 20.4832 29.0257 20.4861 29.0475L20.4672 29.7766C20.3096 30.7249 20.4219 29.9531 20.0015 30.617L20.7714 30.7339L20.747 31.8567C21.1356 32.0932 21.0169 32.0531 21.5024 32.064L21.4915 32.9696C22.0919 32.7748 21.6472 33.1217 21.9517 31.9019C23.0178 31.9237 23.0283 32.4208 23.5248 33.1063C24.2385 34.0924 24.0312 33.75 23.7683 35.1665C23.1589 35.2137 23.1207 35.0523 22.8717 35.4544C23.1949 35.8898 23.0973 35.5885 23.5492 35.6318C24.3306 35.7079 23.4096 35.679 24.1785 35.9216C24.3261 35.5936 24.2808 35.7124 24.6014 35.4544C24.2953 35.112 24.1133 35.0722 24.2401 34.584L24.3543 34.3032C24.3633 34.2824 24.3816 34.2416 24.4015 34.2153C24.7908 34.5613 24.9185 34.6944 25.3812 35.0638C25.008 35.5166 25.0327 35.6841 24.9856 36.4267C24.4538 36.5608 24.502 36.4068 24.2593 36.8189L24.9095 36.9828C25.0398 36.9594 25.3007 36.7518 25.4656 36.6488L25.4368 36.4822C25.3697 35.9206 25.5064 35.6636 25.6088 35.1665C26.0128 35.3539 26.3995 35.5577 26.7689 35.815C27.7242 36.4806 28.2649 36.7335 29.4006 35.996C29.9831 35.6183 29.6477 35.4155 30.173 34.904C30.5841 34.9049 30.9772 35.2444 31.4275 34.8488C30.7982 34.4149 30.6621 34.9267 30.6214 33.8273L31.8148 33.9938C31.6001 33.377 31.525 33.9069 31.4416 32.974L32.0972 32.8745C31.4272 32.0052 31.1479 32.8825 31.725 31.604C32.1951 31.5851 32.455 31.7606 32.7846 31.6095C32.5718 31.3216 32.4903 31.355 32.2413 31.1368C32.2641 31.1178 32.3048 31.0642 32.3154 31.0861L33.0724 30.4683C33.0724 30.4683 33.5118 30.4619 33.5724 30.5171C34.0024 30.9083 33.575 30.3775 33.6051 31.0857L35.1808 31.2959C34.9552 30.7895 34.5297 30.8203 33.8334 30.6214C34.2707 30.4494 34.22 30.6095 34.3105 30.2029C34.3141 30.1901 34.3131 30.1477 34.3279 30.1259C34.9581 30.4221 35.2235 30.7998 35.6699 31.2407C35.5765 31.4933 35.4219 31.9252 35.3205 32.0728C35.1321 32.0321 34.8304 31.9596 34.6087 31.9227L33.9203 31.9814C34.0407 32.2901 33.8414 32.0982 34.153 32.2647C34.5252 32.4656 35.1555 32.3652 35.4681 32.6017L35.479 33.291C34.8452 33.2503 34.6106 33.0365 34.4775 33.5853L35.5153 33.6947L35.1276 34.2146C35.5451 34.6584 35.4646 34.2155 35.5724 34.7216C35.6966 35.3041 35.4835 34.9681 35.4338 35.5999L36.1112 35.8063C36.3583 35.915 36.2261 35.8416 36.3583 35.9503C36.2803 36.9067 36.4325 35.993 35.8513 36.5707C36.1048 37.0325 35.8766 36.7257 36.4183 36.9429L36.5278 37.6874L36.2698 37.7163C36.0525 37.7616 36.1693 37.6576 35.9626 37.8113C36.1629 38.3928 36.3529 37.9753 36.6112 38.5558C36.5814 38.5786 36.5271 38.5558 36.5069 38.5991C36.401 38.8273 35.9164 38.629 35.6093 38.8382C35.8663 39.3318 36.5014 39.2294 37.4494 39.3119C37.4176 39.8099 37.3624 40.2255 37.182 40.5515L36.5781 40.3866C36.6243 39.9765 36.7883 39.5879 36.5572 39.2708C36.417 39.5471 36.2963 39.8131 36.2392 40.2361L35.5736 40.0333C35.2303 40.3503 35.5473 39.9646 35.3564 40.2932C35.073 40.7804 35.3111 41.0685 34.8003 41.2749C34.5557 40.6301 34.7983 40.9398 34.9405 40.4434L34.9668 39.9399C34.9658 39.9181 34.9658 39.8783 34.9649 39.8574L34.015 41.7412C33.5016 41.7283 33.6383 41.599 33.3305 41.9052C33.4473 42.1924 33.3331 41.9793 33.5452 42.1795L33.834 42.4013L33.6928 43.278C32.8668 43.1785 32.5292 42.5027 31.8508 42.5434C31.8001 43.3213 32.8007 43.3477 33.3215 43.7298C31.8672 44.4336 26.4072 44.3068 24.845 43.1974C24.4926 42.9474 24.3659 42.7138 24.0235 42.4086C23.4692 41.9141 22.829 41.4206 22.3544 40.7261C21.7839 39.893 21.3265 39.0417 20.6173 38.2429C19.1267 36.5649 19.0407 35.9854 18.1829 34.8432C16.9269 33.1706 17.0526 33.0609 16.1942 31.7468C15.7026 30.9942 15.2877 30.4744 14.8512 29.7418C13.5868 27.6164 12.627 25.3729 11.2541 23.2873C10.0931 21.5224 8.59255 17.956 8.58803 15.7274C8.58546 13.9877 9.01195 11.7869 9.78089 10.5418L12.5494 6.98011C13.6488 5.95419 14.8676 5.05305 16.2299 4.3329C17.0395 3.90545 17.475 3.45165 18.4214 3.96257L20.2868 5.33543C19.4807 5.6849 18.8405 5.08351 18.8305 5.68682L18.8317 5.68876ZM17.7079 3.09774C16.3087 3.49792 16.2689 3.78866 15.1441 4.48793C12.9979 5.82193 11.7046 7.03532 10.221 9.12118C9.81251 9.69529 9.43866 10.2026 9.15691 10.7812C7.2706 14.6517 8.06839 16.4793 8.90596 19.5461C9.36871 21.2386 10.1312 22.8861 10.9219 24.3677C11.1202 24.739 11.2216 24.74 11.4726 25.1838C11.8249 25.807 12.169 26.2858 12.5079 26.8728L15.4194 32.0311C15.7898 32.5519 15.7067 32.1026 16.5686 33.6106C16.8494 34.1032 17.2387 34.9616 17.5294 35.3811C17.9135 35.9363 18.2983 36.2967 18.6731 36.9676L22.8995 42.2963C23.0397 42.4022 23.1485 42.4519 23.2727 42.5418L24.4944 43.4266C26.0457 44.69 30.8843 44.7134 32.5787 44.3575C33.1339 44.2417 33.0703 44.1701 33.5151 43.949C34.0811 43.6692 34.4714 43.9009 35.5589 43.2626C35.9829 43.0136 35.9338 42.9131 36.3105 42.6487C37.3285 41.9315 36.6709 42.9131 38.5293 40.774C38.6506 40.6344 38.6888 40.592 38.821 40.4444C39.061 40.1771 38.9705 40.2868 39.147 40.0304L39.3816 39.689C39.4785 39.5134 39.4442 39.6418 39.483 39.3411C39.6833 37.8043 38.7992 35.1427 38.1391 34.005L36.4228 31.6233C36.1167 31.3052 36.0743 31.2221 35.8106 30.8717C34.1524 28.6638 33.4731 29.2806 31.9507 30.8489C31.6782 31.1297 31.486 31.2257 31.237 31.4946C30.7678 32 30.5551 32.3042 30.1639 33.0333L29.5654 34.4325C29.5336 34.5329 29.5166 36.2501 27.8964 35.9584C27.21 35.8351 26.8143 35.2809 26.1638 34.9331C24.9258 34.2711 24.2477 33.3917 23.4335 32.2079C22.2353 30.4654 22.431 30.8361 21.3506 28.8272C19.2984 25.009 19.2769 25.2997 17.9572 21.4309C17.3713 19.7111 16.9945 19.0003 17.4101 16.9327C17.7958 15.0181 19.1979 15.7328 20.9539 15.0127C21.6294 14.7354 24.0693 14.1151 24.1627 12.7586C24.2795 11.0642 23.5424 9.76643 23.0007 8.43531C22.7436 7.80312 22.4927 7.24343 22.0921 6.62055C21.433 5.59529 18.839 3.45989 18.1247 3.12487C17.574 2.8659 17.74 3.08861 17.7072 3.0976L17.7079 3.09774Z" stroke="#F8F8F8" stroke-width="0.3" mask="url(#path-1-outside-1_98_2065)"/>
<path d="M23.1262 34.3183L23.0547 34.2956C23.0547 34.2955 23.0548 34.2954 23.0548 34.2953C23.0806 34.2139 23.104 34.143 23.1266 34.0747C23.161 33.9707 23.1934 33.8726 23.2295 33.7521C23.1101 33.7631 23.0233 33.7711 22.9566 33.7796C22.8706 33.7904 22.8259 33.801 22.7932 33.8154C22.7618 33.8292 22.7368 33.8484 22.6929 33.888C22.6843 33.8958 22.6751 33.9042 22.6652 33.9132C22.6397 33.9365 22.6093 33.9643 22.5714 33.9971C22.5774 34.0066 22.5816 34.0178 22.5831 34.0304C22.5858 34.0538 22.5778 34.0719 22.5733 34.0806C22.5682 34.0903 22.562 34.0981 22.5572 34.1037C22.5474 34.1149 22.5354 34.1253 22.5241 34.1342C22.501 34.1525 22.4713 34.1719 22.4423 34.1888C22.4133 34.2056 22.382 34.2217 22.3552 34.2324C22.3462 34.236 22.3361 34.2396 22.3257 34.2424L22.3095 34.2963L22.2858 34.2472C22.2845 34.2471 22.2831 34.247 22.2818 34.2469C22.2704 34.2457 22.2468 34.2411 22.2279 34.2199C22.2068 34.1964 22.2058 34.1689 22.2085 34.1522C22.211 34.1368 22.2173 34.1246 22.2215 34.1173C22.2218 34.1168 22.222 34.1164 22.2222 34.116C22.0646 33.7851 22.0531 33.3684 22.1417 33.0054C22.2303 32.6425 22.4248 32.3112 22.7011 32.1763L22.8127 32.1217L22.809 32.2459L22.7797 33.2129L23.6107 33.7885L23.1921 34.9041C23.2015 34.915 23.2112 34.9272 23.2215 34.9408L23.1615 34.9858L23.0912 34.9595L23.1055 34.9216C23.066 34.8845 23.0438 34.8824 23.0326 34.8703C23.0162 34.8526 23.0231 34.8135 23.0337 34.6136C23.0341 34.6126 23.0466 34.5727 23.0622 34.5225C23.0875 34.4414 23.1212 34.3334 23.1262 34.3183ZM23.1262 34.3183C23.1515 34.2384 23.1748 34.1681 23.1973 34.0999C23.2346 33.987 23.2699 33.88 23.31 33.7446L23.1262 34.3183Z" fill="#F8F8F8" stroke="#F8F8F8" stroke-width="0.15"/>
<path d="M25.4074 37.2108L25.3847 37.3151L25.4906 37.3011C25.7502 37.2668 26.0364 37.1388 26.2892 36.9866C26.5427 36.834 26.7701 36.6524 26.9123 36.5034C26.9818 36.4306 27.0377 36.3587 27.062 36.2977C27.0736 36.2684 27.0843 36.2261 27.0674 36.1845C27.0477 36.1364 27.0037 36.1172 26.966 36.1119C26.9296 36.1067 26.8873 36.1118 26.8421 36.1224C26.7957 36.1332 26.7406 36.1513 26.6763 36.1768C26.5477 36.2278 26.3772 36.3106 26.1581 36.4321L26.158 36.4321C26.0447 36.495 25.9529 36.5354 25.8749 36.5697C25.8729 36.5706 25.8709 36.5715 25.8689 36.5724C25.7914 36.6065 25.7209 36.6375 25.6616 36.6813C25.5349 36.7747 25.4716 36.9158 25.4074 37.2108Z" fill="#F8F8F8" stroke="#F8F8F8" stroke-width="0.15"/>
</svg>
