<svg width="52" height="17" viewBox="0 0 52 17" fill="none" xmlns="http://www.w3.org/2000/svg">
<path d="M21.2552 0.00195312L18.6454 16.4192H22.8168L25.4249 0.00195312H21.2552ZM33.8376 6.68941C32.3799 5.96171 31.4862 5.47058 31.4862 4.72631C31.5041 4.0496 32.2419 3.35631 33.8896 3.35631C35.2449 3.3219 36.241 3.64386 36.9966 3.9642L37.3752 4.13499L37.9423 0.700102C37.1184 0.378143 35.812 0.0233923 34.1983 0.0233923C30.079 0.0233923 27.1783 2.18846 27.1603 5.285C27.1263 7.57007 29.237 8.83809 30.8166 9.59876C32.4303 10.3791 32.9796 10.885 32.9796 11.5783C32.9618 12.6427 31.6748 13.1338 30.4739 13.1338C28.81 13.1338 27.9162 12.8809 26.5594 12.2878L26.0101 12.0348L25.4267 15.6045C26.4066 16.0448 28.2087 16.4323 30.0791 16.4521C34.4569 16.4521 37.3055 14.3199 37.3413 11.0197C37.3556 9.20941 36.2426 7.82285 33.8376 6.68941ZM48.6364 0.0527599H45.4091C44.4146 0.0527599 43.6589 0.341929 43.2283 1.37357L37.0321 16.4192H41.4099L42.6156 13.1617H47.5134L48.139 16.4323H52.0001L48.6364 0.0527599ZM43.8297 9.87441C43.9141 9.8827 45.51 4.55695 45.51 4.55695L46.7807 9.87441C46.7807 9.87441 44.6536 9.87441 43.8297 9.87441ZM15.1598 0.00195312L11.0729 11.1559L10.6277 8.95628C9.87204 6.41826 7.50287 3.66025 4.85889 2.29026L8.60128 16.4028H13.0149L19.5734 0.00375381H15.1598V0.00195312Z" fill="#234EBC"/>
<path d="M9.25279 2.11897C8.9343 0.867165 7.91859 0.0228996 6.53912 0.00488281H0.0666566L0 0.308645C5.04897 1.56693 9.28683 5.43873 10.6617 9.08064L9.25279 2.11897Z" fill="#EFC75E"/>
</svg>
