<svg width="100" height="100" viewBox="0 0 100 100" fill="none" xmlns="http://www.w3.org/2000/svg">
<g clip-path="url(#clip0_472_1630)">
<path d="M34.2967 35.45C25.5512 32.6588 25.4106 47.5443 34.1266 45.1629C38.5294 43.768 38.585 37.0205 34.2967 35.45Z" fill="white"/>
<path d="M69.6378 36.0672C60.7296 33.2865 60.6124 47.4963 69.3736 45.6205C74.0589 44.426 74.0773 37.6271 69.6378 36.0672Z" fill="white"/>
<path d="M42.6939 60.6533C41.5239 61.5359 41.9198 63.4519 43.3546 63.7937C44.0138 63.9767 44.7491 64.0976 45.3659 64.1221C50.2562 64.8713 55.3907 62.6605 60.0112 64.9683C62.3079 66.0389 64.4392 67.6428 65.8542 69.7668C67.2382 71.5494 69.8507 69.6756 68.6173 67.7955C63.3194 59.9219 51.1333 54.7592 42.6939 60.6533Z" fill="white"/>
<path d="M23.189 54.3398C21.8251 53.3848 19.9452 53.716 18.9899 55.0799C17.2704 57.4621 15.4563 59.9418 14.0159 62.6086C9.2411 70.3941 8.17255 78.44 18.0429 82.3775C20.0124 83.082 22.1817 83.3149 24.2509 82.9022C33.3716 81.1359 34.9376 72.0303 30.8966 64.8418C28.9349 60.9416 26.3292 57.3529 23.189 54.3398ZM23.8518 79.0953C19.4505 80.6981 13.3464 77.2147 13.697 72.2385C15.0419 67.8666 18.9069 64.9697 21.6761 61.5352C26.1306 66.3832 33.5856 75.4137 23.8518 79.0953Z" fill="white"/>
<path d="M57.8254 1.06287C25.8502 -4.58596 -4.33532 24.6336 0.515265 56.7763C0.688703 58.0275 1.89964 58.8834 3.13695 58.6275C4.3303 58.3853 5.1012 57.2215 4.85882 56.0281C3.40472 48.8734 4.10335 41.3355 6.63636 34.483C32.4942 -27.6959 121.522 18.1267 87.0125 74.8496C86.0809 76.2377 86.4522 78.1195 87.842 79.0514C89.2319 79.983 91.1139 79.6117 92.0455 78.2219C111.926 49.5859 92.3203 5.64393 57.8254 1.06287Z" fill="white"/>
<path d="M72.9387 88.089C61.6139 96.9546 45.7926 96.7666 32.7342 91.99C31.0954 91.4736 30.1788 93.7353 31.7 94.5121C45.6268 101.206 63.2825 101.985 76.4573 93.0213C77.9243 92.0627 78.2668 90.0228 77.1903 88.639C76.1682 87.3132 74.2647 87.067 72.9387 88.089Z" fill="white"/>
</g>
<defs>
<clipPath id="clip0_472_1630">
<rect width="100" height="100" fill="white"/>
</clipPath>
</defs>
</svg>
