<svg width="100" height="100" viewBox="0 0 100 100" fill="none" xmlns="http://www.w3.org/2000/svg">
<path d="M74.0236 36.1779C71.164 27.9652 57.475 30.1498 57.93 39.1883C58.1648 43.9935 64.8882 43.3717 63.8796 37.6916C64.6437 34.626 69.7179 34.848 71.0593 37.3902C71.7226 38.2662 71.3457 40.1615 72.8396 40.3C74.9429 40.3205 74.408 37.5803 74.0236 36.1779Z" fill="white"/>
<path d="M68.2412 4.68652C52.009 -3.08457 33.2477 -1.12012 19.0818 10.05C18.1342 10.7748 17.7496 11.9619 17.9852 13.0541C-25.1375 49.8363 24.8412 124.003 75.2756 92.3107C78.6473 90.1072 75.6406 85.2363 72.1754 87.2074C26.9637 117.179 -18.4228 48.4965 19.7049 15.1525C20.7063 15.5895 21.9104 15.4617 22.8082 14.7164C58.9709 -17.2334 117.337 35.5949 86.2324 73.8982C84.7256 76.3619 88.1516 78.6435 89.8475 76.3139C108.246 51.8666 95.1225 16.4148 68.2412 4.68652Z" fill="white"/>
<path d="M36.7061 38.7154C37.194 32.9682 29.0426 31.7482 27.2996 36.94C24.8994 44.5133 36.4524 46.5307 36.7061 38.7154Z" fill="white"/>
<path d="M68.009 57.6651C66.6701 56.6932 64.7967 56.9907 63.8246 58.3297C57.4219 67.3959 41.6287 68.4579 34.8703 59.2461C34.0865 58.0723 32.3154 57.9663 31.4035 59.0502C30.6105 59.9659 30.71 61.3508 31.6256 62.1438C39.4592 69.2323 49.7139 71.9463 59.7379 67.9823C62.8789 66.5659 72.6291 61.7582 68.009 57.6651Z" fill="white"/>
</svg>
