<svg width="100" height="100" viewBox="0 0 100 100" fill="none" xmlns="http://www.w3.org/2000/svg">
<g clip-path="url(#clip0_485_17816)">
<path d="M76.2178 36.7716C73.3357 28.4241 60.7408 29.928 60.1568 38.8294C59.9865 40.4302 62.1844 41.0077 62.8152 39.5104C63.617 37.2495 65.452 35.1972 68.007 35.7151C70.0127 36.1302 71.065 37.8415 70.6855 39.8155C70.4637 45.5464 79.2602 44.4307 76.2178 36.7716Z" fill="white"/>
<path d="M40.6444 38.4067C38.8827 27.9852 22.7243 28.8411 23.9829 39.8926C24.2715 41.4727 26.538 41.4112 26.7258 39.8005C26.8587 37.3399 28.6589 35.4538 31.1391 35.5846C33.3167 35.6932 34.4805 37.3454 34.596 39.4169C35.0811 43.7643 41.6007 42.6841 40.6444 38.4067Z" fill="white"/>
<path d="M82.3839 25.8059C83.0499 26.9161 84.5062 27.309 85.6556 26.6748C94.1087 23.026 104.031 11.9789 97.5261 2.66801C94.6144 -1.05816 88.9835 -0.487851 85.6175 2.19477C78.2943 -3.4234 68.4669 3.53949 71.9337 12.3832C73.6509 17.9895 79.3986 21.1676 82.3839 25.8059ZM77.2992 6.13266C78.7818 5.51918 80.7812 5.63715 81.8181 6.82582C82.8033 9.11195 85.1388 10.6577 87.332 8.75258C90.8179 5.12816 94.7546 4.58188 94.299 10.8088C93.6107 16.1166 89.4109 20.0084 84.9119 22.6082C81.6884 18.2641 69.8134 11.0168 77.2992 6.13266Z" fill="white"/>
<path d="M98.1761 78.6659C95.1119 73.8432 87.9951 75.3028 84.9277 79.3067C73.9343 70.1284 65.5923 85.8743 74.9998 93.9725C76.6785 95.6659 78.5837 96.9598 80.6439 98.0794C91.1189 104.202 104.564 88.2827 98.1761 78.6659ZM93.3685 86.1278C91.9951 90.085 88.3464 95.6313 83.5019 94.3114C79.0076 92.5995 73.3718 88.2761 74.98 82.8815C75.5732 81.1395 77.2423 79.9583 79.0706 80.144C80.9949 80.313 82.7216 81.7581 83.8962 83.2721C84.8953 84.4167 86.3509 83.8995 86.8208 82.8854C90.5787 79.6678 95.2759 80.1772 93.3685 86.1278Z" fill="white"/>
<path d="M14.3845 56.3268C6.08806 50.3559 -2.9676 59.2631 1.23201 68.0645C3.44743 73.1604 8.09118 76.6979 13.0131 78.8868C13.4931 79.3319 14.2209 79.5143 15.0119 79.1045C22.542 75.1682 34.2045 64.5858 26.0502 56.0963C22.4656 53.0426 17.7551 53.7196 14.3845 56.3268ZM23.0107 67.7147C20.8285 70.9295 17.7349 73.4016 14.4377 75.4299C11.1617 72.3506 7.38669 68.9506 6.44529 64.4346C5.67478 59.0463 10.6992 59.3686 13.6375 62.3375C15.4318 63.3872 16.3144 61.2973 17.2677 60.202C23.3105 55.05 27.209 62.3618 23.0107 67.7147Z" fill="white"/>
<path d="M64.4538 60.5665C59.1612 66.7348 49.4314 69.1094 41.6503 67.1401C41.0111 66.9305 40.2939 67.2155 39.9847 67.838C38.8458 70.6481 46.1153 71.3141 47.8665 71.5598C52.6413 72.98 75.3497 67.0135 68.7396 59.8749C67.3652 58.8825 65.4464 59.1921 64.4538 60.5665Z" fill="white"/>
<path d="M99.5757 49.9982C99.2929 46.2641 98.2759 30.1855 92.0083 33.6422C90.5736 34.5562 90.1519 36.4601 91.0659 37.8943C95.164 44.4469 96.5026 52.7855 94.8456 60.334C94.5685 61.7353 93.8025 62.959 93.4497 64.3213C93.1534 67.2646 97.6388 67.7461 97.9603 64.7928C98.664 59.867 99.7716 55.0156 99.5757 49.9982Z" fill="white"/>
<path d="M49.1101 5.54964C52.0535 5.61155 54.9742 5.98929 57.7845 6.72581C61.8431 7.70491 63.2179 1.56077 59.0931 0.741434C32.5419 -4.03786 4.84566 14.8366 0.530033 41.667C0.27847 42.9817 1.2812 44.2485 2.61968 44.302C3.85171 44.361 4.8982 43.4098 4.95718 42.1778C6.46265 20.7371 28.557 5.14573 49.1101 5.54964Z" fill="white"/>
<path d="M60.6645 95.4972C48.0138 97.7559 34.7028 94.7436 25.2202 85.8597C21.86 83.5526 18.3929 88.2126 21.5485 90.7698C33.1692 99.7264 47.1919 102.084 61.2335 98.1946C62.9026 97.6985 62.3776 95.2749 60.6645 95.4972Z" fill="white"/>
</g>
<defs>
<clipPath id="clip0_485_17816">
<rect width="100" height="100" fill="white"/>
</clipPath>
</defs>
</svg>
