<svg width="424" height="284" viewBox="0 0 424 284" fill="none" xmlns="http://www.w3.org/2000/svg">
<g clip-path="url(#clip0_513_1403)">
<path d="M391.814 31.6669C392.368 31.7554 392.937 31.8859 393.498 31.925C396.809 32.0126 400.138 31.8816 403.438 32.2089C407.235 32.5975 410.979 33.3111 414.731 34.0457C416.11 34.3164 417.375 35.0751 418.693 35.5793C419.291 35.7937 420.047 36.1884 420.527 35.9966C421.542 35.5697 422.417 34.8143 423.337 34.1848C422.711 33.4849 422.196 32.5577 421.411 32.1494C420.055 31.4698 418.538 30.9411 417.018 30.6729C411.924 29.7726 406.803 28.9292 401.663 28.234C398.915 27.8544 396.161 28.1369 393.613 29.4087C392.824 29.8033 392.189 30.498 391.501 31.0458L391.793 31.6743L391.814 31.6669Z" fill="#FEFEFE" fill-opacity="0.25"/>
<path d="M410.337 1.68099C408.186 0.903196 406.725 1.3453 405.698 2.48374C401.717 6.85213 397.843 11.3242 393.926 15.7407C393.598 16.0918 393.234 16.4083 392.905 16.7593L393.653 17.5345C394.753 17.1483 396.02 17.0336 396.912 16.3906C398.695 15.1046 400.426 13.6717 401.879 12.0536C404.497 9.08332 406.885 5.93409 409.361 2.89598C409.626 2.5672 409.87 2.24585 410.337 1.68099Z" fill="#FEFEFE" fill-opacity="0.25"/>
<path d="M397.611 24.209C398.847 23.8696 400.141 23.6277 401.332 23.1623C404.78 21.8108 408.155 20.3197 411.61 18.9892C412.266 18.759 413.162 18.9399 413.88 19.1592C414.969 19.4844 416.9 18.6887 417.084 17.5867C417.135 17.1914 416.536 16.3643 416.16 16.3077C415.187 16.1775 414.088 16.1623 413.15 16.4681C408.909 17.8623 404.654 19.2848 400.487 20.8889C399.253 21.3691 398.232 22.3877 397.13 23.1754L397.611 24.209Z" fill="#FEFEFE" fill-opacity="0.25"/>
</g>
<g clip-path="url(#clip1_513_1403)">
<path d="M34.9768 261.152C34.5972 261.566 34.2321 262.021 33.8168 262.399C31.2742 264.522 28.5817 266.484 26.1964 268.788C23.4594 271.448 20.9651 274.331 18.478 277.235C17.5647 278.302 17.0434 279.682 16.3225 280.895C15.9864 281.434 15.6379 282.213 15.1429 282.36C14.082 282.655 12.9265 282.605 11.8144 282.682C11.8712 281.745 11.7004 280.698 12.0629 279.891C12.7046 278.517 13.5662 277.161 14.5923 276.008C18.0289 272.142 21.5225 268.303 25.1231 264.569C27.0429 262.567 29.3776 261.08 32.1655 260.497C33.0288 260.317 33.9583 260.468 34.8371 260.471L34.998 261.145L34.9768 261.152Z" fill="#FEFEFE" fill-opacity="0.25"/>
<path d="M1.84776 249.124C3.05219 247.18 4.47249 246.62 5.98393 246.876C11.8166 247.832 17.629 248.937 23.441 249.971C23.9163 250.043 24.3984 250.065 24.8738 250.137L24.7684 251.208C23.6656 251.588 22.6007 252.284 21.5026 252.333C19.3064 252.43 17.0594 252.38 14.9164 252.012C11.0204 251.307 7.19316 250.319 3.36696 249.471C2.95522 249.378 2.56468 249.277 1.84776 249.124Z" fill="#FEFEFE" fill-opacity="0.25"/>
<path d="M25.8037 258.899C24.6239 259.4 23.4591 260.012 22.2359 260.387C18.6934 261.465 15.1214 262.389 11.5861 263.489C10.9287 263.715 10.3386 264.413 9.91092 265.031C9.25878 265.961 7.25037 266.535 6.42268 265.785C6.13712 265.507 6.09406 264.486 6.35421 264.208C7.03637 263.503 7.88872 262.809 8.81455 262.467C13.0056 260.93 17.2252 259.406 21.4887 258.079C22.7544 257.69 24.1872 257.856 25.5403 257.79L25.8037 258.899Z" fill="#FEFEFE" fill-opacity="0.25"/>
</g>
<defs>
<clipPath id="clip0_513_1403">
<rect width="29" height="37" fill="white" transform="matrix(-0.943571 0.331171 0.331171 0.943571 411.363 0)"/>
</clipPath>
<clipPath id="clip1_513_1403">
<rect width="29" height="37" fill="white" transform="translate(0 248.442) rotate(-19.0014)"/>
</clipPath>
</defs>
</svg>
