<svg width="100" height="70" viewBox="0 0 100 70" fill="none" xmlns="http://www.w3.org/2000/svg">
<path fill-rule="evenodd" clip-rule="evenodd" d="M50.7357 59.574C51.2206 59.656 51.4238 59.969 51.0192 60.3111L50.7357 59.574ZM51.7123 58.714C51.9438 59.1236 51.9991 59.0053 51.7061 59.4272C51.2368 59.0572 51.2859 58.9718 51.7123 58.714ZM38.3077 63.815C39.3032 63.6699 44.6855 60.9473 45.8998 60.2687C46.3295 60.026 46.6543 59.7146 47.0494 59.5271C47.478 59.3257 47.9674 59.1114 48.3864 58.9696C49.281 59.7269 50.051 62.1286 51.339 62.4596C52.243 61.8079 52.1755 61.3212 52.7816 60.4909C53.0288 60.1539 53.3614 59.867 53.5673 59.5395C53.8742 59.0495 53.8525 58.7521 54.3106 58.352C54.9847 58.4513 57.9089 58.9362 58.2476 59.1991L52.934 61.7974C52.9748 61.8225 52.6204 62.1941 54.15 61.6618C55.4776 61.1986 56.5736 60.8666 57.7516 60.2996C58.6885 59.8493 59.0886 59.323 60.1233 59.3688C60.8588 59.4017 61.986 59.674 62.5451 60.1623C61.9843 60.5797 59.2946 61.2298 58.3437 61.5669C56.991 62.0457 55.6584 62.8297 54.3091 63.3716C52.947 63.9196 51.6574 64.5652 50.2997 65.1902C49.3075 65.6466 46.9218 66.4988 46.2254 66.9665C46.3359 67.0407 46.0334 67.212 46.7812 67.0831C46.9118 67.0608 47.1668 66.9302 47.318 66.8738L50.65 65.6517C51.6579 65.4252 53.7443 64.3398 54.8325 63.8772C57.078 62.9196 61.1902 60.6506 63.472 60.3733C64.14 60.7907 65.0089 61.4486 65.1333 62.2377C65.4938 64.5323 61.1775 66.7322 59.4073 67C59.9269 66.1323 63.1886 65.1452 63.6216 64.077C62.8153 64.0882 60.4219 65.5966 59.5602 66.1496C59.2198 66.3683 58.8972 66.5575 58.7176 66.9102C58.7019 66.9386 58.6908 66.9827 58.6779 67.0123C58.664 67.0424 58.6512 67.0893 58.64 67.1161L58.5596 67.3209C53.8559 67.8594 50.2728 68.3951 45.4966 67.7333C44.6936 67.6228 43.2209 67.4721 42.4966 67.3019C41.6384 67.1005 40.7059 66.735 39.8052 66.5982C38.2555 66.3622 35.7516 65.4091 35.7299 63.5587C36.2986 63.1569 36.2762 63.0486 37.0022 62.7964C38.3064 62.3444 39.8638 61.3946 41.3438 60.71C42.3248 60.2546 43.2791 59.8724 44.1959 59.3366C45.8589 58.3651 45.7568 58.5666 47.6608 58.7022C46.8009 59.595 44.2591 60.5069 43.0531 61.2189C42.1853 61.7306 38.6814 63.3562 38.3064 63.8143L38.3077 63.815ZM36.1314 62.7001C36.2402 62.267 37.1029 61.3061 37.5075 61.0054C38.1582 60.5221 43.1755 58.4858 44.5818 58.6638C43.8591 59.2983 37.2559 62.3708 36.1315 62.7001H36.1314ZM51.9643 57.0054C52.6462 57.0891 52.8856 57.9535 52.284 58.3865C51.9157 57.9613 51.6886 57.5455 51.9643 57.0054ZM56.813 46.6052L57.1813 45.5862C57.5953 45.7124 57.4095 45.5879 57.6634 45.9596C57.6774 45.9802 57.6902 46.0304 57.7092 46.0634L57.9893 45.8368C57.7343 46.257 57.3531 46.5344 56.813 46.6052L56.813 46.6052ZM60.2857 45.8335C59.8086 45.353 60.3722 44.7419 60.8655 44.5187C60.8024 45.0952 60.5976 45.4038 60.2857 45.8335ZM61.3091 43.9596C61.279 43.9267 61.2399 43.8273 61.2271 43.8541L60.6852 43.2213C61.1071 42.7754 61.0976 42.4669 61.6964 42.7425C61.7924 43.1661 61.4793 43.4607 61.3091 43.9596L61.3091 43.9596ZM61.9894 42.2649C61.6947 41.8179 62.1266 41.4552 62.5123 41.276C62.4163 41.6996 62.3644 42.1042 61.9894 42.2649ZM58.3817 43.6823C58.7299 42.8776 58.8951 41.4903 59.8905 41.3419C59.6813 41.9937 59.0055 43.4066 58.3817 43.6823ZM59.6841 43.0573L60.5881 40.7772C60.6367 40.8168 60.6668 40.8257 60.6763 40.8687L60.9029 41.1566C61.2728 40.8196 61.5279 40.5975 62.0039 40.6432C62.1835 41.67 60.1344 42.9139 59.6841 43.0572L59.6841 43.0573ZM62.813 40.8826C62.3844 40.6828 62.366 40.5785 62.1829 40.1331L63.4966 39.3647L62.813 40.8826ZM61.9737 38.8229C62.1562 39.3318 62.1121 38.6242 62.2321 39.1789C61.8649 39.3804 60.3515 39.9992 59.9531 39.9819C60.106 39.3993 60.3247 38.7157 60.8933 38.4669C61.4603 38.218 62.3029 37.8196 62.8901 37.7738C62.649 38.4697 62.4163 38.3218 61.9738 38.8224L61.9737 38.8229ZM63.7688 38.9144C62.8553 39.0517 63.3659 38.9378 63.1879 38.8357C63.5562 38.5885 63.5562 38.7174 63.785 38.3993C63.8274 38.3413 64.0211 37.8842 64.1187 37.7286L63.7694 38.9144L63.7688 38.9144ZM63.1628 37.6655C63.2951 36.8245 64.2259 36.9161 64.4714 35.8954C63.487 36.204 62.5657 36.7614 61.4463 36.9679C61.6382 35.9032 62.7091 35.3976 63.6494 35.0689L63.1282 35.6799C63.626 35.661 64.6461 34.7871 65.4591 34.5209C65.1756 35.7051 64.5506 37.417 63.1628 37.666L63.1628 37.6655ZM63.2889 33.4624C63.588 32.9886 64.1014 32.9802 64.4653 33.1554C64.1438 33.4138 63.6494 33.6577 63.2889 33.4624ZM62.4134 32.9679C62.5439 32.0673 62.6572 32.0924 63.4826 31.7587C63.4134 32.6153 63.2275 32.7726 62.4134 32.9679ZM63.9095 32.2403L64.2923 31.3016C64.9207 31.1789 65.0434 31.127 65.4843 31.5455C65.0937 32.1236 64.5741 32.1203 63.9096 32.2403H63.9095ZM66.1092 33.031C65.4825 32.8658 65.9641 32.9462 65.2699 32.6549L65.0875 32.5795C65.7409 32.1593 65.881 31.9434 66.3536 31.3954L65.804 31.315C65.9725 30.6979 66.3174 30.6911 66.8481 30.805C66.8257 30.2079 66.7203 30.5517 67.141 30.1482C67.1963 30.8033 66.492 32.493 66.1098 33.0316L66.1092 33.031ZM62.7515 30.757L61.9658 31.0734C62.0383 30.4434 62.194 29.8703 62.5612 29.3647L63.2024 29.3396C63.2275 29.7252 62.9535 30.4216 62.7521 30.757L62.7515 30.757ZM63.4742 30.4328C63.6159 29.781 63.7705 29.2514 64.4267 29.0913C64.3497 29.8111 64.2409 30.3826 63.4742 30.4328ZM67.3229 28.7744L67.1984 28.2392C67.1968 28.2236 67.1889 28.1778 67.1761 28.1494L65.2185 29.0378C65.4596 28.4172 66.2643 28.2866 66.891 28.074C67.776 27.7732 67.2341 28.1683 67.7051 27.4061C67.9524 27.0059 68.0467 26.992 68.5428 26.8971C68.5193 27.6879 68.0751 28.5663 67.3223 28.7744L67.3229 28.7744ZM62.7292 28.3854L62.8915 26.968C63.3279 26.7916 63.3575 26.8843 63.8821 26.8843C64.0333 27.7928 63.603 28.2498 62.7292 28.3848V28.3854ZM64.6677 27.1209C64.819 26.516 64.8017 26.5288 65.4127 26.3525C65.2944 26.9775 65.2615 26.9334 64.6677 27.1209ZM64.0617 20.3697C64.0477 19.5511 64.0176 19.3318 64.8965 19.1795C65.0399 20.1119 64.9328 20.1482 64.0617 20.3697ZM68.608 19.3084L69.2458 18.31C69.6694 18.9211 69.6381 20.1399 69.6219 20.9177L68.5639 20.9161C68.7497 20.2012 69.1766 20.1131 69.3452 19.2894C68.8837 19.4517 69.0064 19.5444 68.608 19.3083V19.3084ZM65.1577 19.7732C65.2727 18.7793 65.367 18.8128 66.093 18.1923C67.0427 18.3843 66.8474 18.2933 67.8837 18.1388C67.646 18.6159 65.7481 19.6979 65.1577 19.7732H65.1577ZM63.6131 17.5683L64.8983 17.45L64.9457 18.4043C64.4731 18.7319 64.53 18.7837 63.9424 18.8513L63.6131 17.5678L63.6131 17.5683ZM65.1154 15.4645C65.1188 15.4159 65.3358 15.1966 65.2382 15.4773C65.1863 15.6252 65.0948 15.7028 65.1154 15.4645ZM64.602 14.9717C64.0178 15.9734 63.8431 15.4678 63.4446 16.085L64.5708 15.7748C64.5222 16.4092 64.0529 16.5638 63.4698 16.6615C63.1388 16.2268 62.9123 15.5527 63.0038 14.9545C66.9218 13.3183 66.6935 14.1559 67.7331 11.8456L67.8559 11.6408C69.0891 13.7178 69.3234 14.551 69.7297 17.2725C68.3536 18.2 68.276 17.671 67.6811 17.6302C65.5411 17.479 66.5472 17.8082 65.3993 18.0538L65.3491 17.2162C66.5114 16.7184 66.7805 16.4729 68.0232 16.5214C67.7994 16.2898 68.1744 16.1938 67.4691 16.2362C67.9177 15.888 68.2927 15.4885 68.3084 14.8819L67.603 15.0047L68.0265 13.6537C67.4847 13.816 67.4959 13.9355 67.0578 13.9734C66.5851 14.0141 66.9964 13.7703 66.3759 14.2128C65.8072 14.6174 65.2877 14.9701 64.6025 14.9717L64.602 14.9717ZM64.4999 10.5889C64.6729 10.8646 64.7549 10.5716 64.506 10.9382C64.3409 10.6676 64.3074 10.8406 64.4999 10.5889ZM62.5613 10.9025C62.7377 10.8238 62.4419 10.6553 62.9614 10.893C62.7711 11.0253 63.3945 11.3495 62.5613 10.9025ZM61.4213 10.4159C62.0809 10.5543 62.0451 10.6726 62.3772 11.1905L61.7566 11.3623L61.4213 10.4159ZM62.2164 9.84558C62.2829 9.25351 62.5725 9.00127 63.1646 8.99681C63.2371 9.74178 62.9726 9.7072 62.2164 9.84558ZM64.3315 9.11511C64.3884 8.73733 64.6808 8.14637 64.8934 7.83163C65.3515 7.98731 65.769 8.27861 65.9754 8.80651C65.5441 9.04088 64.8666 9.07437 64.3314 9.11511H64.3315ZM60.5346 8.35116C61.1959 8.41254 61.4526 9.23787 61.2907 9.62683C60.7757 9.51801 60.5458 8.89636 60.5346 8.35116ZM61.4353 8.21276L62.399 7.80986L62.9219 8.70105C62.8382 8.75295 62.7974 8.75462 62.7846 8.7987C62.7785 8.82382 62.4615 9.14358 61.8901 9.15919L61.4347 8.21276L61.4353 8.21276ZM60.577 7.90082C59.9849 8.15919 59.361 8.11176 58.9391 8.53531L59.9157 8.55874L60.6339 9.90026C60.2751 10.1586 60.5502 10.0107 60.0731 10.1726C59.7394 10.2859 59.851 10.2038 59.6272 10.3456C60.1026 10.6006 60.26 10.393 60.851 10.3958C61.1406 10.8919 61.2003 10.9125 61.2098 11.5074L60.3203 11.7719C60.5295 11.9812 60.0937 11.9354 60.755 12.0001C60.7896 12.0035 61.2449 11.97 61.3426 11.9672C61.6071 12.4806 61.2673 12.326 61.8259 12.6145L61.659 13.1218C62.5691 13.1173 67.4196 11.6396 66.4593 10.0225C65.793 10.2223 65.7947 10.7251 65.2355 10.4131C65.7283 9.86514 65.7662 10.2887 66.3566 9.3484C66.9001 9.75967 67.3834 10.5342 67.577 11.2334C66.3047 12.5308 64.5457 13.528 62.8209 14.0873C62.3109 14.2508 61.2773 14.3724 61.188 14.9126C61.5909 15.2608 61.7584 15.0577 62.3627 15.1458C62.6334 15.9835 62.9235 16.4829 62.6149 17.2703C63.2087 17.6592 63.3549 18.3724 63.3912 19.1363L62.4319 19.5615C62.9314 19.8623 63.0145 19.6826 63.6116 19.7602L63.793 20.5397C63.2042 21.0844 62.6702 20.836 62.2215 21.3316C63.2796 21.9315 64.4012 21.0688 65.4358 20.826C66.8281 20.5001 67.5289 19.6558 68.1238 19.9097C67.6339 20.6106 65.9648 21.0799 65.116 21.5318L65.0417 22.4515C65.8403 22.7774 66.4686 22.2673 67.0607 21.8343C67.7443 21.3337 68.612 21.4755 69.467 21.3192C69.6512 23.6027 69.4056 24.3477 68.5948 26.5525L67.4765 26.6373C67.8465 25.4013 68.2672 25.9509 68.5284 25.4091C68.1534 24.9052 67.678 25.3868 66.8197 25.4688C66.7298 26.1301 66.7851 26.0782 66.092 26.3271C66.3174 24.8343 68.6321 24.8611 69.4056 22.7825C69.2795 22.4957 68.9424 22.0392 68.7661 21.8422C68.1422 22.0152 66.0892 23.2848 65.6478 23.7306C65.8732 24.1386 65.6115 23.7714 66.0998 24.143C65.4636 24.3791 63.0005 25.3746 63.4809 26.1887C62.7248 26.3701 62.8492 26.1904 62.2493 26.5431L62.6461 26.9544C62.6132 27.364 62.4698 28.1419 62.328 28.5041C61.881 29.6441 62.2164 28.8283 62.0669 29.8082C61.7756 31.7233 61.1628 31.0917 60.6104 32.0761L61.2232 32.4254C61.568 32.4834 61.9084 32.3199 62.2689 32.2775C62.058 34.0208 60.7839 33.1402 59.7745 33.8461C60.1824 34.4588 60.7901 34.1452 61.3553 34.3907C60.4876 35.0207 59.8135 34.9214 59.3459 36.0129C59.9492 36.3198 60.289 36.3845 60.9742 36.3733C60.6327 38.2411 58.8732 36.961 58.6528 38.5229L59.8732 38.726C58.9597 41.6078 57.9821 40.2032 57.4418 41.1183L58.6309 41.4632C58.5428 41.9359 57.8201 43.6585 57.5601 43.9342C57.2292 44.2835 57.3726 44.0257 56.9948 44.2288C56.4546 44.5201 56.8971 44.394 56.5299 44.6351C56.045 44.9515 55.6577 44.6664 55.1817 45.2177C55.5612 45.4459 56.1628 45.509 56.6779 45.5938C56.5914 47.5625 54.747 46.745 53.8023 47.7071C54.5378 48.5575 56.1126 47.8377 56.9897 47.6708L56.8368 48.0285C57.8792 48.096 57.9613 47.8522 58.6778 47.2757C59.8229 46.3561 58.9647 46.1563 59.5595 45.7734L60.0132 46.2522C59.9078 47.0709 57.8681 50.9592 57.2214 51.9815C56.6812 52.8336 56.7788 53.1657 55.5428 53.1484C55.6717 52.8616 56.2108 52.1908 56.4529 51.8097C56.8263 51.2271 56.9552 50.9972 57.612 50.6757C57.3079 49.6004 58.0779 49.0949 58.3285 48.2109C57.5283 48.4363 52.9742 49.6757 52.6025 50.0473C53.3648 50.8849 54.6405 50.4491 55.5361 50.203C55.3943 51.0596 54.7409 50.9134 53.9216 51.2169C53.3089 51.4435 52.1939 51.7192 51.9624 52.2532C52.7324 53.1304 54.3529 52.02 55.3988 51.8297C55.2537 53.3665 52.4195 52.6137 51.8838 53.8252C52.347 54.0646 54.0194 53.405 54.6572 53.2962C54.0495 53.7795 52.6539 53.8303 52.1042 54.2739C52.6695 55.8945 55.5044 53.8626 56.2081 53.765C55.9798 54.3978 55.9469 53.861 55.5574 54.6294L51.4095 61.5725C51.2851 61.7455 51.3638 61.6624 51.1936 61.8058C50.7734 61.3728 50.0172 60.7366 50.2929 60.2075C50.7165 60.4486 50.7639 60.7683 51.0675 61.2108L51.5998 60.4899C52.0943 60.0819 53.1384 58.4173 53.2076 57.852C53.2784 57.2722 52.4927 56.794 52.7918 56.2443C53.053 56.7153 52.9665 56.8631 53.4408 57.1165C53.3197 56.5813 52.9698 56.3592 52.7952 55.8598C52.7812 55.8202 52.7779 55.7778 52.765 55.737L52.6562 55.3526C52.1255 55.7225 52.4419 55.693 51.6958 55.7476C51.7968 56.3888 51.866 56.261 51.4737 56.8152C50.8264 56.511 51.4771 56.5601 50.5853 56.3631C50.7461 57.1143 51.1317 57.2181 50.8231 57.7744C50.1473 57.3604 50.4436 56.7432 49.491 56.6371C49.4955 57.338 50.1858 58.3787 50.5083 59.0467C49.7081 58.6924 49.6707 57.2827 48.5886 56.872C48.7873 57.9808 49.8548 58.872 49.9257 59.7509C49.0217 59.5304 46.1841 54.642 45.433 53.4629C44.8772 52.5918 44.332 52.1085 43.803 51.3229C42.8281 49.877 41.7415 48.348 40.8314 46.8837L37.9654 42.3263C36.4063 40.002 33.6518 35.4569 32.7121 32.876C32.3879 31.9831 32.0508 31.1154 31.6965 30.2349C29.9928 25.9893 30.0018 25.7794 30.1201 20.5217C30.2021 16.914 31.4778 12.4113 33.5218 9.49043C34.1155 8.64333 35.7232 7.71257 36.4995 6.95529C36.8522 6.61042 37.0095 6.34425 37.4303 6.00383C39.7907 4.09697 43.1027 3.44469 43.6759 3.0574C44.0536 2.80237 44.2914 2.59757 44.9454 2.43686C46.2004 2.12826 46.6948 1.818 47.9861 1.88273C48.9593 1.93128 50.312 1.6623 51.4415 1.7488C55.3344 2.04959 59.177 3.20523 62.4354 5.33752L64.316 7.39109L63.1491 7.91843L62.8388 7.26776L61.4058 7.67066L60.7033 7.21865L60.577 7.90082ZM47.437 57.7723C44.105 57.8666 38.0117 58.8732 35.9443 61.7705C35.3567 62.5942 34.9382 63.5657 35.3617 64.5484C36.2434 66.6003 37.9539 66.8318 38.5441 67.1455L41.423 68.1517C43.8247 68.4854 47.2813 68.6695 50.053 69.068C52.2371 69.3827 59.8247 68.2365 61.587 67.3877C62.7349 66.8336 64.2957 65.915 65.1679 65.0048C65.8844 64.2554 66.0953 63.2314 66.3174 62.222C65.6388 60.9809 65.6338 60.9056 64.5697 59.9966C62.4028 58.1494 57.5568 57.7477 55.1573 57.4848C55.28 56.6456 56.6534 54.9274 57.1763 54.0613C59.1037 50.866 65.1623 37.9541 66.6818 34.3813C66.9731 33.6932 67.3654 33.1324 67.6612 32.4823L69.6958 25.6274C70.5557 21.9834 70.7399 18.9974 69.8704 15.3043C68.9569 11.4287 68.5663 10.3484 65.804 7.44269C64.314 5.87412 60.8904 3.34055 58.8704 2.68383C57.1997 2.14031 56.1807 1.63026 54.3977 1.31832C53.5819 1.17658 52.7756 0.888634 51.9507 0.879148C51.1159 0.871336 50.2923 1.05549 49.3822 1.04265C44.4123 0.976242 36.7712 5.00022 33.545 8.80151C30.1337 12.8188 28.7622 22.9181 30.0254 27.8401C31.9579 35.3596 38.2839 44.1044 42.6159 50.7844C44.1309 53.1181 46.0283 55.3669 47.4361 57.7715L47.437 57.7723Z" fill="white"/>
<path fill-rule="evenodd" clip-rule="evenodd" d="M57.6157 24.1005L57.5415 24.3996L57.6157 24.1005ZM58.6425 21.9933C58.6726 22.6502 58.7446 23.6691 58.1179 23.9901C58.0281 23.1647 57.7005 22.1552 58.6425 21.9933ZM57.6821 21.2908C57.561 21.952 57.4946 21.6228 57.4584 21.9096C57.4003 22.3884 57.4991 21.8276 57.5448 22.4264C57.6219 23.4169 55.8596 25.7852 55.5906 25.9978C54.1983 27.0999 52.9561 28.8907 50.772 28.5364C49.0761 28.2624 49.3624 28.7931 47.6431 27.9633C47.3061 27.8009 45.2163 26.8623 45.1091 26.7791C44.9456 26.6502 43.7849 24.7853 43.6416 24.4437C43.1912 23.3684 43.0685 22.5368 42.939 21.3901C42.684 19.1067 42.8145 20.187 43.4965 18.499C44.1957 16.773 44.5043 17.3969 45.2743 16.518C48.4022 12.9465 54.0237 13.0453 55.8603 15.7228C56.6226 16.8316 56.7297 16.3935 57.377 17.9812C57.7944 19.0035 57.8904 20.1715 57.6823 21.2915L57.6821 21.2908ZM55.8457 14.3756L57.3167 13.7646C57.666 14.201 57.6364 14.2545 57.6822 14.7958C56.9718 15.0447 56.9579 15.1268 56.1453 15.0983L55.8462 14.3756L55.8457 14.3756ZM58.2045 14.3712C57.8943 14.0375 57.4707 12.6943 56.7308 12.3114L57.0283 13.2629L55.501 14.096C54.1701 13.3751 54.4257 13.326 52.8224 13.1624C52.2616 13.1055 51.9798 12.8901 51.3754 12.8572C48.9234 12.7249 46.3124 13.1943 44.8146 15.5079C44.199 16.4577 42.5215 17.4828 42.3011 20.1692C41.9423 24.5565 44.2493 26.4353 44.4853 26.9695C44.8033 27.6894 44.5076 27.5554 45.3703 27.9756C45.7989 28.1838 46.0773 28.3869 46.5232 28.5141L49.3754 29.2954C50.8385 29.3774 51.7331 28.9377 52.5914 28.7708C53.5205 28.5884 53.1332 28.864 53.9267 28.2368C54.4072 27.8556 55.5852 27.0197 55.9379 26.6162C56.7537 25.6826 56.6259 25.1927 57.809 24.8762C58.7934 24.6134 58.9491 23.5548 59.2136 22.6541C59.439 21.8873 60.0026 20.5391 59.0451 20.1406C58.3899 20.9185 59.2655 21.4794 58.2264 21.5642C58.1885 20.572 58.1952 20.202 58.3129 19.2288C58.8609 19.4068 58.4184 19.2857 58.847 19.6305C59.1511 18.6434 59.6042 19.2528 59.7192 18.1691L58.7097 18.4119L58.3112 17.3711C58.8118 16.9978 59.1835 16.7835 59.3994 16.1725C58.5741 16.2087 58.3648 16.6038 57.3821 16.6513L56.9223 15.8388C59.0072 15.4386 57.7633 15.6468 58.6784 16.053C58.6706 15.4989 58.5099 15.5318 58.6561 15.1992L59.0908 15.9582C59.39 15.0603 58.5713 12.7835 57.8721 12.207C57.7192 12.5441 57.8581 12.774 58.0345 13.1551C58.0881 13.2684 58.2504 13.5597 58.28 13.6607C58.491 14.3393 58.376 14.0809 58.2058 14.3728L58.2045 14.3712Z" fill="white"/>
<path fill-rule="evenodd" clip-rule="evenodd" d="M52.1357 67.126C53.6457 68.0362 59.3483 64.8175 60.6932 64.1166C61.3957 63.7528 62.3293 62.9196 63.0225 62.4805C61.369 62.6853 56.6553 64.8929 54.7613 65.7952L52.1363 67.1261L52.1357 67.126Z" fill="white"/>
<path fill-rule="evenodd" clip-rule="evenodd" d="M38.6357 65.8183C39.7395 66.2279 45.8422 62.9003 47.412 61.2832C46.6799 61.4724 42.2485 63.9305 40.8562 64.6453C40.3366 64.9115 38.8796 65.4657 38.6357 65.8183V65.8183Z" fill="white"/>
<path fill-rule="evenodd" clip-rule="evenodd" d="M41.4772 66.0503C42.3025 66.6742 46.6586 64.2266 47.6112 63.6095C47.5024 63.5514 47.6 63.3829 46.9214 63.6519L41.4772 66.0503Z" fill="white"/>
</svg>
