<svg width="100" height="70" viewBox="0 0 100 70" fill="none" xmlns="http://www.w3.org/2000/svg">
<path fill-rule="evenodd" clip-rule="evenodd" d="M75.0654 31.978C76.0991 31.5945 75.7566 31.1181 77.3618 30.9396L77.5387 31.4637C77.8055 31.3698 77.8522 31.3085 78.2751 31.3127C79.2228 31.3231 78.697 31.3745 78.9181 31.4798C78.9633 31.6189 79.3956 31.3246 78.8185 32.2795C78.8128 32.2899 78.6664 32.458 78.5886 32.5898L78.476 32.8415C77.972 33.7072 76.5719 34.7134 75.7592 35.2729C75.3622 35.5469 75.9746 35.4078 74.9875 35.6273L75.0654 31.9775V31.978ZM27.8492 25.5959C31.3185 26.1978 40.1159 25.435 44.8665 25.5767C47.5173 25.6571 50.6761 25.3981 53.3359 25.2928C56.1419 25.1802 58.8368 25.1916 61.6205 25.0598C61.868 25.1464 61.4959 25.5927 64.3725 25.5403C65.3814 25.5227 66.4946 25.558 67.5008 25.6104L73.7528 25.9135L73.9474 26.7204C73.9604 27.4324 74.3548 28.0168 74.4876 29.6495C74.7601 33.0294 74.429 41.0888 74.4098 44.9263C74.3968 47.4775 74.0611 52.2359 73.5883 54.5016C72.8955 57.8307 72.128 58.2407 70.1305 60.1225L70.595 60.1604C68.5591 63.054 66.0504 63.2974 65.0649 63.7074C63.9372 64.176 65.4806 64.037 63.9253 64.4028C60.8177 65.1366 57.5676 65.16 54.3531 65.3608C52.9826 65.4459 52.5533 65.7386 51.1064 65.7256C49.917 65.7153 48.7561 65.7376 47.5536 65.6992C48.3342 65.2274 49.055 65.6784 49.973 65.3665C49.7769 65.2186 50.2906 65.2555 49.4665 65.1792L47.2376 65.2347C46.3004 65.2466 45.4654 65.311 44.4831 65.3359C42.6465 65.381 41.1923 64.9347 39.4746 64.5435C36.2524 63.8112 35.0915 63.8932 33.0525 62.0669C32.2984 61.3933 32.1988 61.5397 31.232 61.1411L29.0881 57.0153C28.36 55.4366 27.9153 51.3462 27.8873 49.5963C27.8255 45.538 27.3979 38.7075 27.5562 35.2414C27.6511 33.1838 28.0087 27.1456 27.8488 25.596L27.8492 25.5959ZM29.5717 21.7353C30.1664 21.1219 30.045 20.6896 30.4576 19.9044L33.9403 15.0656C35.2776 13.5103 38.8891 11.4656 40.5264 10.82C45.6377 8.80489 44.7383 9.56362 49.4686 8.80184C52.2378 8.35346 52.175 8.96012 54.4932 9.14902C59.3029 9.54291 62.809 10.7645 66.4639 13.6407C70.4299 16.7601 72.7905 21.3176 74.308 22.1542C75.6215 22.8776 78.0061 22.5553 78.0647 24.01C78.1275 25.6182 75.4226 25.5285 73.9452 25.4543C73.0225 25.4076 68.8548 25.611 68.4442 25.1029L68.0664 24.6956C64.0476 24.5944 60.5374 24.7407 56.655 24.8274C54.7597 24.8715 52.8001 24.899 50.9521 24.9239C49.0102 24.9488 47.4154 25.1668 45.4251 25.1496C43.5298 25.132 41.4047 25.0178 39.5365 25.1071C37.6911 25.1979 35.9179 25.4086 34.0138 25.3489C32.2976 25.296 29.7303 25.6406 28.2508 25.2052C26.2372 24.6151 24.8692 25.3105 24.7816 22.6508C26.3456 21.9813 27.4999 21.8978 29.5721 21.7354L29.5717 21.7353ZM48.1327 7.90255C48.1036 7.5699 48.1633 7.64204 48.2162 7.51178C48.9588 7.30678 48.5764 7.85325 49.5432 7.44743C49.5697 7.47649 49.6018 7.52786 49.6164 7.54395C49.6309 7.55848 49.675 7.61712 49.6942 7.63477L50.0881 7.87919C52.96 6.91238 52.2496 7.75776 54.3144 8.36079C54.8931 8.08106 54.7846 7.93628 55.4406 7.6358L55.3778 8.71524C53.8957 8.9467 53.4068 8.31979 51.9318 8.19991C50.4688 8.08004 49.4522 8.46925 48.2835 8.41528C48.2545 8.32291 48.1341 7.91294 48.1325 7.90255L48.1327 7.90255ZM49.1664 7.20714C49.414 6.65964 49.6511 6.67832 50.1493 6.45413C49.9075 7.15836 49.9734 6.97828 49.1664 7.20714ZM47.6479 6.53198C48.0553 6.12771 46.9904 6.28911 48.0828 6.11474C47.898 6.57298 48.1679 6.34465 47.6479 6.53198ZM48.0257 7.07845C48.3023 6.40484 47.9147 6.80755 48.5732 6.4064C48.881 6.21749 49.0024 6.18221 49.4503 6.06959C49.1368 6.64096 48.9697 6.92172 48.0251 7.07845H48.0257ZM50.8053 6.34931C51.1244 5.79557 51.0969 5.93362 51.6901 5.50289C52.1707 5.15414 52.235 5.06074 52.7711 4.84069C52.5469 5.49665 52.9278 4.99897 52.3611 5.46189L50.8058 6.34931H50.8053ZM55.9341 5.93466C55.6103 6.6638 55.877 6.46763 55.1479 6.86153C55.2766 5.94453 55.3368 6.00317 55.7306 5.3353C55.3996 5.44065 55.1671 5.54185 54.8578 5.65913C55.0015 5.22113 55.0145 5.32959 54.9029 5.11422L53.3388 5.51537C53.3679 5.46244 53.4089 5.39809 53.4312 5.35709L53.7478 4.69231L56.4147 4.94867C56.2403 5.46296 56.1889 5.35709 55.9341 5.93418L55.9341 5.93466ZM48.7812 4.59005C49.1212 4.50805 51.293 4.3425 51.854 4.61652C52.2287 4.79971 52.0019 4.71927 52.2173 4.87599L50.2416 5.64042C50.58 4.95228 50.3517 5.44996 50.7891 4.91544C49.9515 4.89208 48.897 5.02649 48.0112 5.21591C48.2281 4.75767 47.7854 4.83085 48.7813 4.59057L48.7812 4.59005ZM47.6479 4.51376C47.6349 5.55791 48.0402 4.78777 47.5451 5.54182C47.2695 5.30622 47.475 5.75564 47.2156 5.10849C47.0386 4.6679 47.2887 4.95021 47.009 4.45669L47.3339 7.57463C47.3894 7.9161 47.3339 7.87769 47.4963 8.10345L48.0018 8.56013C43.8076 8.63798 39.8781 10.4683 36.4144 12.5727C33.8077 14.1561 32.6094 16.3876 30.7967 18.7297C30.2855 19.3903 29.7832 20.6275 29.1755 21.1812C27.0975 21.8476 24.5215 21.0935 24.1406 23.7854C24.3705 24.2219 24.3046 24.1954 24.6969 24.4767C24.7587 24.5208 25.4863 24.966 25.491 24.9686C26.2144 25.2935 27.0141 25.389 27.8652 25.5587C27.6498 26.4108 27.5782 26.6573 27.5824 27.7425C26.5558 27.5827 27.0053 27.3839 26.106 26.9459C25.4541 26.6294 24.9751 26.5489 24.3939 26.2298C21.907 24.865 19.4835 25.4493 17.3874 27.1509C16.3448 27.9958 16.0869 29.2366 15.9566 30.4712C15.488 34.9411 18.6485 37.0189 22.4986 38.0076C23.4343 38.2494 25.0482 38.4881 26.0498 38.1233C26.8069 37.8477 26.2579 38.0398 26.5272 37.7398C23.2292 37.8234 18.7537 37.1435 17.1278 34.3536C16.0338 32.4776 16.1698 29.2527 17.6343 27.5978C18.0868 27.085 19.6889 26.2682 20.556 26.2241C22.9401 26.1042 24.5381 27.0279 26.5764 27.8878L27.4125 28.2479C27.3025 30.6056 27.2251 32.7058 27.1239 35.052C27.0212 37.4039 27.2734 39.5612 27.1914 41.8592C27.1213 43.8743 27.524 53.2285 27.9444 54.9271C28.3679 56.6433 29.0488 58.3464 30.0093 59.7819C30.8542 61.0456 30.1121 60.1436 30.1951 60.6226C30.3062 61.2537 31.7722 61.6901 32.2585 61.9288C33.4801 62.5308 33.6659 63.4915 35.542 63.985C36.0033 64.1065 36.475 64.1755 36.8544 64.3203L37.3567 64.5927C37.3936 64.6119 37.433 64.6457 37.4694 64.6628C38.307 65.0613 40.0486 65.3234 41.0782 65.5165C46.3446 66.5092 52.8866 65.6805 58.0981 65.5896C60.4339 65.5502 62.0904 65.0945 64.1834 64.7842C65.2644 64.6233 68.101 63.11 68.977 62.4862C70.9397 61.0861 71.8884 59.7445 72.8657 57.6989C73.4588 56.4539 74.2217 53.7491 74.3888 52.2389L74.6903 47.1379C75.0007 45.0512 75.0199 42.4309 74.9436 40.1492L75.4179 39.5856C75.1735 39.4481 75.1413 39.789 75.0152 39.0464C74.942 38.6157 75.093 38.4501 75.1278 38.0874C75.1922 37.4355 75.0168 36.8808 75.0412 36.0504C75.6079 36.3743 76.0988 36.1163 76.7179 35.7313C77.1087 35.4895 77.9131 35.134 78.2177 34.8439C78.8648 34.2289 79.4258 32.4623 79.3615 31.1972C78.9868 30.1312 76.9685 29.9745 75.9301 30.6434C75.1642 31.137 76.0313 31.1105 74.9415 31.3555L74.8139 28.3912C75.624 27.7119 76.312 27.4073 77.5997 27.1421L77.7548 27.4026C77.7564 27.4068 77.7694 27.4379 77.7797 27.454C79.4477 27.0617 81.208 26.3953 82.6917 28.167C84.2543 30.0311 83.1821 31.9939 83.1572 33.546C83.1308 35.1221 81.4821 36.4516 80.3466 37.2338C78.9905 38.1694 77.0751 38.5078 75.553 39.0542C75.7538 39.4995 75.3246 39.7704 77.0056 39.198C80.4546 38.0236 83.8699 36.1268 84.0764 31.8241C84.1963 29.3124 83.3297 27.2417 81.1915 26.5691C79.96 26.1824 78.687 26.5208 77.58 26.7434L75.2572 27.5561C74.3563 28.0045 74.472 27.4695 74.4181 25.951C75.95 25.9686 77.9812 25.9292 78.3871 24.5991C79.0036 22.584 77.2376 22.5197 75.6252 22.2222C74.6075 22.0348 75.5126 22.3073 74.6921 21.8034C74.2115 21.5076 74.266 21.5559 73.8706 21.1412C72.4471 19.6445 71.1025 17.5677 68.8414 15.1394C68.3697 14.634 68.0256 14.3044 67.4661 13.7527C66.8569 13.1507 65.0587 11.8211 64.2428 11.4531C63.14 10.9554 61.7575 10.0546 60.4145 9.73533L56.4003 8.92264C56.2774 8.90811 55.9141 8.84065 55.7356 8.81574L57.0345 5.30548C56.5628 4.2084 56.6728 4.53534 55.2846 4.39004C52.9986 4.15132 49.8147 3.58617 47.6471 4.51303L47.6479 4.51376Z" fill="white"/>
<path fill-rule="evenodd" clip-rule="evenodd" d="M69.5745 34.3696C70.0898 33.9685 70.8719 33.7152 71.6291 33.6566L71.6509 36.6162L69.492 36.8445L69.574 34.3696L69.5745 34.3696ZM71.5533 33.3737L69.588 33.9347C69.5761 33.1703 69.683 30.6191 69.0037 30.4168C69.1516 31.4988 69.3114 32.6737 69.2704 33.9976C68.9601 34.242 69.4432 34.1424 68.7006 34.2322C68.7593 34.2498 68.8838 34.2892 68.9175 34.3069L69.1682 34.4548C69.1988 34.4724 69.259 34.5176 69.3042 34.5498L69.2253 36.7569L68.0784 37.2198L69.2164 37.2374L68.7567 44.8942C69.1609 43.2215 69.4126 39.6148 69.4552 37.4954C69.82 37.005 69.559 37.2214 70.4069 37.0797C70.8216 37.0107 71.0966 36.977 71.6384 36.9624L71.6208 40.1022C71.489 40.1899 71.4599 40.2283 71.215 40.345L71.6208 40.5194L71.489 44.5175C72.0661 42.8522 71.8595 37.1291 71.927 36.9797L72.4646 36.4524L71.8875 36.1696L71.8756 33.4061C72.3162 33.3137 72.7895 33.2203 73.0163 32.87L71.7889 33.1616C71.7521 32.063 71.6965 30.0317 71.313 29.3203C71.0453 29.8901 71.5108 32.4165 71.5533 33.3739L71.5533 33.3737Z" fill="white"/>
<path fill-rule="evenodd" clip-rule="evenodd" d="M25.9986 34.1158C25.3193 33.5226 24.5783 33.9736 23.1604 33.2227C21.2305 32.2003 21.2377 29.3299 24.228 29.5671C25.6354 29.6781 25.9151 30.3595 27.0049 30.7051C26.8071 29.784 26.1963 29.6522 25.2871 29.3491C26.0894 28.8395 26.3665 29.5089 27.119 29.6579C26.1361 28.2152 25.2285 29.2022 23.7592 28.8685C23.4925 28.8068 21.4204 27.6002 20.9999 30.2469C20.8873 30.9511 20.9807 31.537 21.2754 31.9767C21.413 32.1817 21.633 32.3633 21.8069 32.5522C22.5817 33.4002 23.6548 34.465 25.423 34.3094C26.4246 34.2217 25.6617 34.311 25.9985 34.1159L25.9986 34.1158Z" fill="white"/>
<path fill-rule="evenodd" clip-rule="evenodd" d="M67.6057 57.5252L66.8044 57.0036C67.1781 56.1748 67.4064 55.7322 68.0011 55.126L68.1138 54.7684C68.6981 53.6101 69.2487 52.3226 69.8403 51.1425C69.2472 51.2888 69.3484 51.5146 68.7552 52.7331C68.4153 53.4332 68.1122 53.9911 67.8646 54.6398C66.8895 54.4068 66.1775 53.713 65.7354 53.0788C66.1044 52.2355 67.0375 51.374 67.2834 50.6055C66.2714 51.2599 66.3534 51.9983 65.4588 52.6834C64.8864 52.2132 65.3389 52.2278 64.5626 51.9963C64.5729 52.4681 64.3882 52.1458 64.7707 52.6435L65.178 53.0711C64.6933 54.1256 62.631 56.0235 62.1333 56.8849C63.2402 56.2725 64.384 54.3705 65.4489 53.4489C66.1843 53.7873 66.8034 54.5149 67.6176 54.9399C67.3509 55.6063 66.8371 56.3489 66.3202 56.8206C65.5293 56.6229 65.0213 56.2171 64.0399 56.2731C64.5304 56.3681 65.3799 56.7812 65.8942 57.0023L65.8661 58.1517C66.4547 57.7594 66.2045 57.8004 66.6819 57.3126L67.6062 57.5249L67.6057 57.5252Z" fill="white"/>
<path fill-rule="evenodd" clip-rule="evenodd" d="M67.6056 57.5254C67.5822 57.5633 67.5516 57.581 67.5381 57.6396L66.4805 58.4336C65.9854 58.7673 65.5988 58.949 65.0834 59.2318C64.212 59.7108 62.8763 60.1088 62.1326 60.5717C62.5514 60.7726 63.802 60.1296 64.2914 59.907C65.7896 59.2261 65.1597 59.4046 66.9625 59.3008C66.444 59.141 66.5172 59.3257 66.0896 58.91C67.689 58.0636 69.1327 56.6442 70.0555 56.3619C69.7862 57.0765 69.616 57.075 69.3041 57.7003C69.5968 57.5404 69.4053 57.6344 69.5807 57.501L69.7945 57.3313C69.8267 57.3064 69.8926 57.2638 69.9206 57.2436C69.9497 57.2228 70.0083 57.185 70.054 57.1569C69.7976 58.09 68.4224 59.7388 67.8354 60.1975C68.9574 59.7243 70.34 57.3287 70.9695 56.1627C71.3519 55.4584 71.7718 55.1637 72.0255 54.6218C71.4194 54.3712 71.6067 54.4039 71.1848 53.957C71.1776 55.2311 70.6913 55.5445 69.8465 56.1024C69.095 56.6 68.5138 57.3297 67.6056 57.5259L67.6056 57.5254Z" fill="white"/>
<path fill-rule="evenodd" clip-rule="evenodd" d="M79.7869 29.7424C80.2836 29.5244 80.8679 29.3044 81.5955 29.7528C81.9966 30.0003 81.8606 29.977 82.0054 30.129C81.938 31.1586 81.4356 31.7534 80.9566 32.4343C80.5731 32.9792 79.7324 33.9528 79.5372 34.3721C80.1875 34.1775 80.2326 33.9854 80.804 33.8054C80.5725 34.274 80.3909 34.4541 79.9794 34.7971C79.2279 35.4266 79.6498 35.0021 79.1843 35.7961C78.3981 35.8563 78.5107 35.8651 77.8983 36.0421C76.7836 36.3628 77.2834 35.9892 76.7104 36.518C77.5745 36.383 78.0488 36.0639 78.7666 35.9689C78.2586 36.5911 77.217 37.0074 76.8849 37.779C77.2684 37.5782 78.0494 37.038 78.4329 36.7541C78.9119 36.3981 80.3443 35.4858 80.4875 34.96C80.6515 34.3638 80.174 35.4302 80.5477 34.6336C81.2067 33.2294 81.7107 34.48 81.16 32.453C81.7387 31.9828 82.3168 30.8214 82.2395 29.855C81.6022 29.2899 80.2347 28.6879 79.7863 29.744L79.7869 29.7424Z" fill="white"/>
<path fill-rule="evenodd" clip-rule="evenodd" d="M59.0114 12.3066L59.0991 12.8058C60.9783 12.2173 62.0602 13.0373 63.532 14.8578C65.0173 16.6959 65.3878 18.2907 66.6894 19.0728L63.7547 14.6367C63.1573 13.8588 62.6446 13.3507 61.8697 12.8442C61.2926 12.468 60.468 12.1089 59.7752 12.1016C59.0912 12.0943 59.4176 12.059 59.0107 12.3066H59.0114Z" fill="white"/>
<path fill-rule="evenodd" clip-rule="evenodd" d="M73.3356 24.3654C71.3085 24.4297 70.5223 23.686 69.365 22.9622C69.6406 23.9067 71.9369 25.1719 73.2079 24.4475C74.2827 23.834 74.0663 24.3099 74.6257 23.8309C71.9049 24.0126 70.8721 22.3649 69.5966 21.3223C69.8602 22.2201 71.3143 23.2761 72.1519 23.7126C72.757 24.026 72.7902 23.8812 73.3351 24.3659L73.3356 24.3654Z" fill="white"/>
<path fill-rule="evenodd" clip-rule="evenodd" d="M69.0417 18.5128C68.4293 16.8538 64.8299 12.946 62.876 12.6035C63.4396 13.3316 65.4563 14.4427 66.2912 15.2585C66.7671 15.724 68.7065 18.3411 69.0417 18.5128Z" fill="white"/>
<path fill-rule="evenodd" clip-rule="evenodd" d="M59.7766 15.0958C60.3568 15.8264 60.2717 15.1487 62.1389 17.6662C62.855 18.6341 63.4933 19.4956 64.1935 20.411C64.1146 19.604 60.0459 13.5612 59.7766 15.0963V15.0958Z" fill="white"/>
<path fill-rule="evenodd" clip-rule="evenodd" d="M49.1086 61.818C47.9559 61.3566 42.0512 61.3623 40.9131 61.8221L49.1086 61.818Z" fill="white"/>
<path fill-rule="evenodd" clip-rule="evenodd" d="M75.6885 29.546C76.6434 29.2253 77.2365 28.9014 78.3393 28.6191C79.8744 28.2237 79.9694 28.4271 81.0255 28.9751C80.4204 27.5107 78.2573 28.2325 76.932 28.6747C76.1048 28.9513 75.9698 28.8241 75.6886 29.546H75.6885Z" fill="white"/>
<path fill-rule="evenodd" clip-rule="evenodd" d="M54.7626 62.5433C53.0875 62.4628 46.7504 62.3528 45.6736 62.9766L54.7626 62.5433Z" fill="white"/>
<path fill-rule="evenodd" clip-rule="evenodd" d="M32.8073 56.849C32.6859 56.2413 32.5453 56.0627 32.387 55.4213C32.2655 54.9262 32.1104 54.3315 31.9962 53.8121C31.7679 52.7606 31.743 51.1773 31.3999 50.4336C31.0003 51.7533 32.128 56.1877 32.8074 56.8495L32.8073 56.849Z" fill="white"/>
<path fill-rule="evenodd" clip-rule="evenodd" d="M64.0942 41.7818C64.1087 41.1975 64.0163 40.7216 64.0137 40.3874L63.9727 37.2196C63.9727 36.3934 64.1424 36.2445 63.3604 36.1973C63.5887 37.3338 63.6313 37.694 63.7101 39.0619C63.7439 39.6197 63.9795 41.405 64.0936 41.7818L64.0942 41.7818Z" fill="white"/>
<path fill-rule="evenodd" clip-rule="evenodd" d="M29.7716 46.7801L29.8344 39.7285C29.3673 40.9849 29.4301 45.3655 29.7716 46.7801Z" fill="white"/>
<path fill-rule="evenodd" clip-rule="evenodd" d="M66.4473 40.4825L66.1385 32.5273C65.4971 34.2596 66.3757 38.7575 66.4473 40.4825Z" fill="white"/>
<path fill-rule="evenodd" clip-rule="evenodd" d="M29.1818 33.9026L29.5393 29.7743C29.6172 29.2325 29.7972 28.9071 29.5512 28.5293C29.2087 29.5532 28.8481 33.147 29.1823 33.9026L29.1818 33.9026Z" fill="white"/>
<path fill-rule="evenodd" clip-rule="evenodd" d="M59.6545 19.4472C59.492 18.7954 59.2943 18.3735 58.9487 17.8597C58.0436 16.5151 58.6409 16.8976 58.0628 16.5488C57.8708 16.8052 57.8402 16.4186 57.9045 16.8913C57.9543 17.2634 58.4038 17.6604 58.6352 17.9853C59.0597 18.5842 59.2284 18.8888 59.6545 19.4467V19.4472Z" fill="white"/>
<path fill-rule="evenodd" clip-rule="evenodd" d="M59.374 60.4934L56.6998 60.3574C55.9483 60.6589 56.924 60.4482 55.8284 60.7409L55.0095 61.0014L59.374 60.4934Z" fill="white"/>
<path fill-rule="evenodd" clip-rule="evenodd" d="M72.0576 21.8936C72.2979 22.3462 73.9056 23.272 74.5035 23.0317C74.1137 22.7214 73.7084 22.6186 73.1884 22.3446C72.9876 22.2392 72.7416 22.0561 72.6186 21.9798C72.314 21.7909 72.6316 21.6051 72.0576 21.8931L72.0576 21.8936Z" fill="white"/>
<path fill-rule="evenodd" clip-rule="evenodd" d="M27.5117 23.8337L29.804 24.2011C29.9503 24.2042 30.1922 24.2115 30.3344 24.1907C30.6198 24.1513 30.6125 24.1041 30.6904 24.0631C30.0707 23.8082 27.9647 23.6235 27.5122 23.8332L27.5117 23.8337Z" fill="white"/>
<path fill-rule="evenodd" clip-rule="evenodd" d="M33.4026 19.1237C33.8183 18.8616 34.1364 18.1237 34.5215 17.7106C34.8349 17.3753 35.4805 16.9358 35.6813 16.5273C34.8012 16.9581 33.7773 18.1968 33.4026 19.1237L33.4026 19.1237Z" fill="white"/>
<path fill-rule="evenodd" clip-rule="evenodd" d="M27.3125 22.8555L30.2897 22.3676C29.2882 22.2021 28.0489 22.4963 27.3125 22.8555Z" fill="white"/>
<path fill-rule="evenodd" clip-rule="evenodd" d="M75.4175 28.8522C76.0958 28.0628 76.6168 28.1158 77.4253 27.5195C76.6712 27.7951 75.5684 28.0011 75.4175 28.8522Z" fill="white"/>
<path fill-rule="evenodd" clip-rule="evenodd" d="M34.0122 20.6714C34.1321 20.2599 34.8353 19.4866 35.1191 19.0605C34.7559 19.62 34.1497 19.7752 34.0122 20.6714Z" fill="white"/>
<path fill-rule="evenodd" clip-rule="evenodd" d="M76.099 23.8832L75.4866 23.4219C75.7855 24.0062 75.4689 23.5568 76.099 23.8832Z" fill="white"/>
</svg>
