<svg width="100" height="70" viewBox="0 0 100 70" fill="none" xmlns="http://www.w3.org/2000/svg">
<path fill-rule="evenodd" clip-rule="evenodd" d="M20.0885 40.9159C20.3263 38.7775 26.55 33.5805 28.5561 32.5035C30.3954 31.5163 32.3451 30.6229 34.2587 29.7289C34.8301 29.4611 35.2258 29.129 35.8084 29.1134C37.8368 29.0615 38.9015 28.7797 40.8413 28.0347L42.8318 30.5716C41.9579 31.3433 41.4004 31.5102 40.4255 32.0107C39.6175 32.4248 39.1359 33.148 38.2381 33.6597C37.0238 34.3528 37.0049 34.0548 35.9044 35.1592C35.2336 35.8333 34.6996 36.3813 33.8637 36.7859C33.0668 37.1704 33.3486 37.3227 32.8308 37.7496C32.5361 37.9923 31.8274 38.2111 31.6371 38.3891C31.3598 38.6492 31.3849 38.9137 30.7046 39.4583C29.9898 40.0331 28.1125 41.5605 27.7014 42.1246C27.1126 42.9326 26.7706 43.537 25.9095 44.0555C23.9318 42.9137 25.1974 44.0761 23.0166 42.3719C22.0356 41.6063 21.0389 41.5248 20.0892 40.9165L20.0885 40.9159ZM39.4843 27.7034C39.7443 27.2575 39.7962 27.1615 40.2041 27.5661L39.4843 27.7034ZM51.4875 27.8624C52.16 27.3222 53.5031 26.9679 54.3648 26.9031C54.2688 27.1202 52.905 28.8703 52.683 29.0733C52.2092 28.8434 51.6874 28.3439 51.4877 27.8623L51.4875 27.8624ZM41.2118 26.4165C41.4841 25.7095 41.6164 25.5627 42.3251 25.3206L41.8887 26.9818L41.2118 26.4165ZM58.4775 26.0226C59.0395 25.4461 60.8665 25.4193 61.7828 25.0432C62.9592 24.56 64.1071 25.1788 65.4224 25.243C66.736 25.3094 72.649 25.4461 73.2901 25.8462C71.986 25.9941 68.967 26.0399 68.0161 26.6068C68.4664 26.9517 68.8381 26.9121 69.5797 26.8747L72.515 26.4193C73.1908 26.2698 73.2599 26.229 73.6015 25.8083C75.5245 26.027 76.9999 26.1972 78.9258 26.1437C79.1177 27.4573 79.0424 28.0064 79.0329 29.2821C79.0284 29.8552 79.2204 30.1844 79.236 30.7748C79.2516 31.3686 79.173 31.7307 79.2818 32.3512L79.8108 38.161C79.5636 39.9735 79.6674 39.2932 79.9905 40.8791C80.1278 41.5577 79.9732 42.9092 80.0312 43.81C80.0987 44.8808 79.885 45.9801 80.0625 47.0622C80.2137 47.9914 80.6797 48.9238 80.5569 49.8357C80.4972 49.9791 75.078 55.7441 73.9632 57.2497C73.2154 58.2608 72.6484 58.3602 72.1713 58.9617C71.6389 59.628 71.0597 60.2669 70.5742 60.8768C69.957 61.653 68.2796 64.3021 67.3192 64.4957C67.2025 62.3194 67.3504 60.099 67.2438 57.998L67.0469 51.6324C66.8767 49.5581 66.8013 47.4275 66.6813 45.3204C66.6278 44.3583 66.7963 40.1094 66.1774 39.686C65.9286 40.9711 66.1378 41.7524 66.1289 42.9382C66.1244 43.5415 65.9196 43.8752 65.8248 44.45C65.7305 45.0136 65.7963 45.5431 65.7762 46.1084C65.702 48.2814 66.0123 50.4801 66.0424 52.6201C66.0736 54.8438 66 56.9242 66.2249 59.1474C66.346 60.3444 66.1964 61.1568 66.4408 62.437C66.5731 63.1317 67.0725 64.5285 66.9525 65.1474L63.1635 64.9348C62.1323 65.9331 60.3164 65.1172 58.9888 65.1066C57.4347 65.0938 55.8471 65.0531 54.3131 65.0531C51.37 65.0531 47.441 65.5536 44.6374 65.1775C44.749 62.8628 45.028 61.0419 44.8656 58.6435C44.71 56.3271 44.5425 54.6781 44.6737 52.3031C44.7948 50.0999 44.5716 47.9722 44.5448 45.7897C44.5319 44.7673 44.5275 43.6512 44.417 42.6401C44.3383 41.9124 44.513 40.2997 44.0219 39.8131C43.4945 41.1641 43.9399 44.4984 43.4973 46.3644C42.5587 46.5831 40.6435 46.5803 39.9996 46.8381C38.8121 47.3136 37.8579 47.1562 36.9115 47.5089C37.6676 48.5262 42.258 47.0162 43.5666 46.928C43.6219 48.4353 43.6687 50.2868 43.6375 51.7863C43.5967 53.7377 43.373 53.9046 43.4405 56.1217L43.7457 60.5927C43.9662 62.1061 43.7234 63.6067 43.5694 65.1123C41.9315 65.4778 35.1191 65.1346 32.604 65.1234C31.3869 65.119 30.3785 65.2574 29.0923 65.196C26.9773 65.0939 24.1318 64.7222 22.089 64.8305C19.6861 64.9583 17.267 64.8762 14.8574 64.9091C14.9724 59.648 13.5109 47.4163 13.719 44.8191C13.7692 44.1908 13.9316 43.7879 13.8842 43.1874C13.7927 42.0317 13.6024 38.9324 13.8937 38.082C15.0371 37.9637 18.8368 38.4804 19.3629 37.5435C17.2307 37.4726 15.4701 37.3688 13.3127 37.4425C13.9176 35.9275 18.8149 32.1462 19.5442 31.0329C21.7032 30.8488 26.8495 30.8203 28.9459 31.0173C28.5363 31.6786 27.8924 31.7762 27.2434 32.159C26.5804 32.548 26.36 32.9576 25.7082 33.2946C23.7697 34.2946 17.1932 40.7326 19.1854 41.9481C20.5615 42.279 21.8941 42.6127 22.9114 43.6238C23.557 44.265 25.9114 44.9971 26.7462 44.9731C27.3383 44.3682 28.5465 42.8693 29.0297 42.1383C30.3193 40.1935 33.1257 38.7967 34.6658 37.6043C35.5871 36.8894 36.5464 36.0407 37.5101 35.4468C39.3572 34.3096 41.9085 32.4893 43.8125 31.612C45.2154 30.9663 44.8867 31.4245 45.9258 31.2342C46.1602 31.1918 47.173 30.5852 47.5809 30.4167C49.7997 29.5082 49.2835 28.9931 50.5229 28.2749C51.0397 28.5506 51.6585 29.0294 51.8271 29.535C51.1072 29.7242 50.2919 29.5099 49.6619 29.8436C49.9421 30.8246 51.7959 30.1929 52.6274 30.2627C53.3991 30.9306 53.9532 31.636 54.6352 32.2487C56.1911 33.6505 58.3864 37.7811 59.2239 39.7007L57.0649 39.5009L57.6414 38.6583C57.0711 38.0835 55.8964 38.2063 55.1045 38.3307C54.9438 39.1622 55.3958 39.2961 56.1174 39.5165L56.3707 40.2755C57.4511 40.54 58.4588 40.209 59.4623 40.0093L60.2781 41.5763C59.4433 41.5623 57.2893 41.3966 57.0258 42.2894C57.6637 42.7554 59.6118 42.3257 60.4918 42.2186C61.1012 42.9853 61.7156 44.636 61.7865 45.713C61.0527 47.006 59.2446 47.6611 57.8055 47.6076C56.4355 44.573 54.7156 41.8124 53.0543 38.8849C51.5883 36.3023 50.2999 32.2739 47.1046 31.4156C46.9394 32.9791 47.0561 32.3732 47.5929 33.4786C46.969 34.7414 43.6716 37.3196 44.2056 37.7854C45.0136 38.0672 47.522 34.9239 48.2609 34.3887C49.4294 35.2832 49.7603 36.1007 50.4796 37.4361C51.1063 38.5996 51.9065 39.6817 52.5426 40.7414L52.2117 40.987C53.1297 41.1427 53.4132 41.8106 53.6604 42.7337L50.5488 42.6221C50.993 43.693 53.3708 43.1355 53.9836 43.068C54.1995 43.3654 55.4546 45.6601 55.5661 45.9842C56.7391 49.386 56.5963 49.107 57.9567 48.7337C58.3328 48.6299 58.7675 48.6756 59.1911 48.6076C60.6872 48.3715 63.2352 46.4501 63.4098 45.0015C64.191 45.0222 64.6933 45.2979 64.9422 44.6065C64.4885 44.3308 63.911 44.3732 63.2949 44.3654L62.6415 42.0284C63.3234 42.0144 63.7815 42.0898 64.1816 41.5055L62.2258 41.3214L61.098 39.0725C62.4473 38.6869 64.6225 39.4503 65.6683 38.9056C65.4445 38.063 64.243 38.3705 63.396 38.3749C59.1548 38.3922 61.1091 38.8476 57.9473 35.1244C57.2904 34.3498 55.5254 32.7751 55.5204 31.8364C58.1721 31.6444 60.401 31.9737 62.9897 32.1372C64.2352 32.2175 65.5298 32.4413 66.766 32.2443C67.3441 32.1528 69.588 32.3213 70.2101 32.4697L70.4384 33.3141L65.8195 39.2476C66.8496 39.3313 68.6934 37.2778 69.2258 36.4301C70.0539 35.1103 71.0444 34.6365 71.9189 33.0773C72.525 33.4618 72.1567 33.4646 72.7995 33.8285C72.8832 35.0835 72.9664 35.3843 72.7192 36.6349C72.5646 37.4128 73.1505 46.5752 73.352 47.8096C73.804 50.5752 73.5077 51.4413 73.7097 53.7326C73.7978 54.7265 73.5395 55.7722 74.6154 55.693C75.4262 54.5876 74.7069 50.2126 74.8151 48.6082C76.0417 48.0206 77.6957 46.915 77.7944 45.4536C76.7202 45.6679 75.7268 47.4665 74.8006 48.0519C74.5706 47.6317 74.6069 47.0709 74.5595 46.5039C75.5483 46.3588 79.7486 44.0189 79.2258 42.7562C78.5299 42.6005 75.4351 45.6239 74.5439 46.0508L74.2649 42.4509C75.3185 42.5028 74.7738 42.3359 75.5517 41.7595C75.8854 41.5106 76.429 41.2668 76.7928 41.005C77.2934 40.6446 78.3692 39.4286 78.4289 38.7986C76.6242 39.3232 75.5138 41.0475 74.3614 41.9922C74.0684 41.4487 73.9769 40.7355 74.1175 40.1116C75.2185 39.2896 77.9032 38.7997 78.2498 37.1055C76.7615 37.0675 75.4339 39.3136 74.0501 39.5525C73.6076 38.3588 73.5696 34.746 73.4407 33.2343C73.3369 33.1116 72.1338 32.0451 71.924 31.9257C71.7493 31.8247 70.1237 31.3666 69.8497 31.3208C68.2353 31.0485 66.3883 31.0451 64.752 30.8498C61.2716 30.4341 56.2341 30.9397 54.0544 30.6751L53.5254 29.8939C53.7336 29.3649 55.2358 27.9457 56.0561 26.8075C57.5176 26.8108 62.2291 27.2723 63.0406 25.861L58.4786 26.0217L58.4775 26.0226ZM43.2361 28.1531C43.8332 28.1074 44.2489 26.4997 44.7054 25.2524C44.9448 24.599 44.8471 23.8306 45.1842 23.364C45.389 23.0805 45.899 22.7184 46.2316 22.2898C47.7372 22.7011 48.5625 23.6899 49.2551 24.9891C48.9336 26.1609 47.9855 27.2206 47.7841 28.5388C48.7149 28.1655 49.4928 26.0946 49.9006 25.1905C50.6914 25.5164 50.6233 26.104 50.5775 26.9025C47.409 28.5264 45.664 33.4394 42.4671 27.7262C42.634 26.3104 43.1222 25.8617 43.1792 24.1954L44.4046 23.9075C44.2327 24.9058 42.7132 27.3812 43.2361 28.1531L43.2361 28.1531ZM22.9261 28.0521C24.0282 26.709 25.8424 25.5326 26.8614 24.3167C28.0974 22.8413 28.2236 24.1448 29.3447 23.1326L27.852 22.7481C28.5038 22.6616 28.3168 22.4629 28.9072 22.1683C29.6567 22.9116 29.761 23.3239 30.6818 23.915C31.0674 24.1622 32.2359 25.1795 32.3888 25.5338C31.3559 25.6108 29.8346 25.3703 28.9748 25.8553C29.2912 26.4836 29.2454 26.0506 29.4234 26.4033C29.6595 26.8709 29.1271 26.3246 29.5685 26.9685C30.2393 27.4507 33.1121 27.6789 33.299 26.6772C32.9998 26.43 32.4786 26.3876 32.3637 26.3229C33.5261 25.742 36.7838 26.9244 37.4741 27.3184C37.0282 28.0349 36.5388 27.8631 35.7733 28.0478L32.246 29.5138C31.1734 29.8492 31.232 30.1784 30.6365 30.4128C30.5087 30.4647 26.8933 30.1008 26.117 30.1516C24.627 30.2459 22.5361 30.2018 21.0131 30.1533C21.4668 29.0573 22.2414 28.8888 22.9267 28.0523L22.9261 28.0521ZM50.3218 24.1704C50.7236 23.1152 50.9027 22.5483 52.1583 22.7073L51.0528 24.8083L50.3223 24.1705L50.3218 24.1704ZM53.1204 25.8161C53.2309 25.0193 54.4876 22.9501 54.9345 22.1549L53.9926 25.637L53.1204 25.8167L53.1204 25.8161ZM51.506 26.2129C51.5372 25.3418 52.054 24.6683 52.4384 23.8853C53.0383 22.6632 52.4669 22.315 53.9473 22.2173C53.8056 22.8395 53.2118 23.7592 52.9205 24.3748C51.9785 26.3619 52.7079 26.1933 51.5065 26.2123L51.506 26.2129ZM58.665 22.0773C58.7799 21.1733 59.1092 19.7465 59.9847 19.3642C59.8871 20.016 58.9535 21.219 58.665 22.0773ZM43.0478 20.6332C43.8006 21.5701 45.6968 22.5623 43.7956 22.8759C43.6053 21.882 41.9736 21.6415 40.9469 21.194C37.7627 19.8034 34.5043 16.3106 35.1187 14.156C35.6807 14.0255 36.429 14.3971 36.8603 14.7956C37.5735 15.454 39.761 16.4206 41.4792 18.6978C41.6951 18.983 41.7392 19.238 41.8966 19.4445C42.1739 19.8083 42.0791 19.4305 43.0478 20.6337L43.0478 20.6332ZM71.6493 14.3498C71.6727 14.3263 71.7157 14.2979 71.7374 14.2744C71.9562 14.0384 72.1202 13.6064 72.238 13.3202C72.2491 17.2622 71.5594 16.5897 71.0125 17.761C70.5589 18.7309 69.526 20.487 68.5544 20.9955L66.1733 22.2566C66.589 21.0959 68.5734 20.208 68.3384 17.7918C67.5114 17.9982 66.839 20.1556 66.5778 20.809L66.4757 19.8531C66.9986 19.4893 67.156 18.9017 67.2062 18.2644C66.6894 18.8358 66.9087 19.0819 66.6297 19.5256C66.195 20.2203 66.3289 19.4168 65.7603 20.4876C65.1716 21.6009 64.6437 21.6433 65.31 22.8922C64.9255 23.3174 64.4941 23.6026 63.9255 23.7365C63.9082 22.3364 64.7759 21.5837 64.9523 20.5082C65.1068 19.5713 65.387 18.3537 65.858 17.3794C65.8719 18.3559 65.4908 18.6456 65.3507 19.5998C66.6437 19.2438 66.661 17.3682 66.5192 16.2505C66.0577 15.7812 66.2497 16.2064 65.8529 15.635C65.4562 15.0619 65.9238 15.2901 65.1995 15.0195C65.1509 16.1741 64.4405 19.4905 63.5036 20.1518C63.5081 21.7489 63.5778 20.8683 62.6169 22.0853L63.2341 22.4051L63.1788 23.4018C61.8184 24.6696 56.7397 25.068 54.7977 25.3265C54.9707 24.2824 55.267 23.7879 55.5299 22.8365C55.8055 21.8365 55.6509 21.5452 56.7598 21.3292C56.6482 22.4676 55.2732 23.7009 55.9154 24.8158C56.498 24.6171 56.4065 24.5211 56.6777 23.847C57.0382 22.9463 57.6414 21.1339 58.1514 20.5273C58.3417 21.0011 58.3406 20.7098 58.0694 21.3649C57.3294 23.1618 56.9104 23.0753 57.4316 23.9603C57.9751 23.7589 57.8568 23.7304 58.1793 23.1947C58.3479 23.6261 58.1492 23.9776 58.9305 24.1462C59.5493 23.4927 59.9997 21.5575 60.3289 20.655C61.0343 18.7119 60.8267 17.9887 61.8535 17.5133C61.7179 18.4391 61.3764 19.2282 61.0895 20.0976C60.7653 21.082 60.1648 21.4787 60.488 22.299C61.6074 22.3794 60.82 22.0044 61.8284 21.5273C62.2837 21.3113 62.0013 21.7745 62.4695 20.9966C63.205 19.7711 63.753 18.3242 63.7419 16.8772C62.9986 17.4726 63.0488 19.2677 62.1716 20.0396C62.2804 18.6981 62.4724 18.3844 62.1905 17.0016C65.2597 14.789 63.7731 14.852 65.099 13.7387C67.5181 14.1986 68.2468 16.6884 69.7318 16.819L69.176 15.6047C69.9271 14.5132 69.5131 14.5166 69.9417 13.6677C70.4378 14.3636 69.8568 14.8993 70.9193 15.195L71.647 14.3496L71.6493 14.3498ZM29.8607 13.2253C29.8356 14.1087 29.0197 16.9262 28.4779 17.4709C27.7831 16.8063 27.5973 14.891 27.8088 13.9089L29.8607 13.2253ZM52.0964 21.7449C52.4854 20.789 53.6037 19.4916 54.2665 18.6439C55.1309 17.5384 56.8207 16.414 56.9831 16.1902C58.6963 13.8202 61.813 12.5177 63.9518 13.5222C63.7426 16.5819 54.6164 20.9162 52.097 21.7443L52.0964 21.7449ZM29.6035 16.6109C30.0003 15.5356 30.5829 14.7733 30.6727 13.5227L30.0729 13.0758C32.2649 12.2348 34.0037 13.5138 34.6604 13.8146C33.9846 14.1751 33.4791 14.66 33.2196 15.391C33.0114 15.4636 33.2257 15.4039 32.9612 15.4412C32.8334 15.4585 32.9958 15.4016 32.6275 15.4775C32.0008 17.2727 30.3915 20.4552 30.6872 22.2694C31.6967 22.0378 31.2983 21.6661 31.5204 20.7984C31.6308 20.3637 31.9612 19.6851 32.108 19.1935C32.3775 18.285 32.6007 16.5244 33.3412 16.0328C33.7112 16.6517 33.7302 17.2186 34.2279 17.8358C34.6437 18.3525 35.1571 18.6042 35.055 19.3838C34.9099 20.4926 33.5415 22.4971 34.2486 23.4184C34.954 23.006 35.1699 20.5584 35.8373 19.7002L39.1286 21.8057C40.3128 22.3838 42.4562 22.8559 43.1253 23.2275C42.4512 23.8654 41.6007 24.4998 40.9189 25.2308C40.4797 25.7018 40.0573 25.8229 39.7425 26.2275C39.4055 26.6588 39.2688 26.9819 38.5411 26.9379C37.5188 26.8765 33.3301 25.3017 32.4842 24.631C29.2052 22.0294 29.6657 20.5004 29.2794 19.4987C28.6086 17.7683 28.9563 18.3603 29.6036 16.6103L29.6035 16.6109ZM41.1281 10.1416C41.1421 9.84862 41.084 9.92564 41.1861 9.60477C41.339 9.12932 41.3089 9.36872 41.4585 9.20801C41.8145 9.75154 41.6744 9.67564 41.1275 10.1416L41.1281 10.1416ZM69.8795 8.48474C69.7975 8.12871 69.9727 8.31957 70.0481 8.4786C70.2054 8.81566 69.8907 8.53384 69.8795 8.48474ZM47.3953 21.7889C48.2725 20.8899 48.5922 19.9636 49.1245 18.7716L51.6837 14.4569C52.6742 12.7672 55.8098 9.72759 57.408 8.66174C58.2886 8.07412 59.2221 7.33082 60.153 6.91231C62.0458 6.06354 63.2645 6.05739 64.7891 6.10428C65.413 6.12325 65.1736 5.95919 65.5955 5.89614C65.7657 5.87103 67.0095 6.17795 67.4052 6.23319C67.4286 6.80184 67.3739 7.33531 67.3862 7.90119C67.3896 8.06358 67.4069 8.46984 67.4526 8.62218C67.6697 9.35935 67.4069 8.88055 67.8432 9.08201C68.2953 8.38892 68.1128 7.37829 68.0687 6.54801C68.6373 6.71821 68.8008 6.98272 69.2009 7.42357C68.7835 8.07869 68.8405 8.77011 69.3488 9.42185C69.9833 10.2327 69.8751 9.86438 70.7534 10.0268C71.687 12.6395 72.1295 10.9637 71.8338 12.1495C71.1128 12.5351 71.7595 12.1623 71.1596 12.2393C70.87 12.2773 71.0542 12.2946 70.6714 12.4123C70.1942 12.0345 70.0224 12.0892 69.6652 11.7572C69.1234 11.2533 69.3488 11.2109 68.4448 11.2326L68.6981 14.8799C67.4102 14.4061 68.5547 11.4782 66.6507 11.4859L66.8572 13.5679L66.2193 13.2671C65.9894 12.5411 66.3828 12.0389 65.6334 11.7141C65.4113 12.141 65.5687 12.2588 65.5938 12.8542C64.1797 12.766 63.1798 12.1628 61.6111 12.4982C60.1781 12.8051 59.5308 13.2259 58.1998 13.6885L57.6423 13.0004C57.4425 13.6979 57.5714 13.41 57.6646 14.0255L56.6775 14.7766L56.2539 13.6444C55.8002 14.2398 56.0145 14.761 56.3878 15.2477C55.7154 15.6065 53.807 18.1025 53.2857 18.5044L52.8666 16.8727C52.7137 17.1874 52.6936 17.6115 52.6947 18.035C52.6947 18.7783 52.7561 18.5077 53.0257 19.0663L52.0178 20.3325C51.9849 19.4458 52.4682 18.0568 51.7265 17.7265C51.2087 18.6255 51.38 20.0066 51.6082 20.8492C51.2271 21.3609 51.1624 21.7705 50.5201 21.7895C50.3688 20.9106 50.7232 20.4826 50.1484 19.8855C49.4777 20.6729 49.7171 22.5093 49.6479 23.5439C48.8856 23.6684 49.0195 23.1326 48.5563 22.689C48.0714 22.2258 47.909 22.5205 47.3956 21.7883L47.3953 21.7889ZM27.8438 12.973C27.8673 12.3051 28.1022 10.444 28.2847 9.84074C28.5916 8.82958 28.9666 8.39817 29.3193 7.52717C29.9571 5.95074 30.0972 6.85027 31.4186 6.11924C32.3856 5.58519 32.5999 5.30674 33.7746 5.27214L33.2327 7.09242C33.9983 6.77434 33.9191 6.16775 34.0564 5.27214L35.7444 5.68341C35.6863 6.51824 34.943 6.68174 35.0686 7.50098C35.6389 7.88212 35.7271 7.5925 36.3755 7.33748C36.4715 7.88101 36.4871 8.16281 37.1266 7.95802C37.6528 7.25434 37.3202 6.91227 37.0842 6.15945L38.212 6.79227C37.9 7.89438 37.3398 7.98255 37.4246 9.16398C38.6606 9.05349 38.5334 8.13719 38.9932 7.18469L40.5853 8.36885C40.5351 9.21929 39.7756 10.0161 39.5898 10.865C40.3331 10.9029 40.3598 10.6948 40.8939 10.413C40.8465 11.3561 40.3141 11.3343 40.4575 12.4493C41.5596 12.3092 41.8292 10.8684 41.8308 9.90569C43.0027 10.8929 44.3727 13.0441 44.8308 14.572C44.5741 14.9074 44.2639 15.3013 44.0105 15.7059C43.2906 16.8605 43.371 16.5865 43.6785 17.0999C44.515 16.9001 44.4787 15.9235 45.0423 15.2623C45.7321 16.3097 44.4062 16.9677 44.5055 18.2322C45.3292 18.1312 45.025 17.8572 45.5133 17.2165C45.948 18.0558 44.6439 18.6903 44.6143 19.7801C45.8805 19.8114 45.0725 19.2823 45.9463 18.9693C46.2427 19.5033 46.0407 19.7913 46.3052 20.2717C46.8091 21.1852 46.8565 20.1094 46.929 21.1161C46.3905 21.5619 46.7354 21.1462 46.1182 21.4453C45.5027 21.7427 46.3057 21.606 45.4396 21.7745C44.6963 21.0374 44.7404 20.2628 44.0379 19.6735C42.5891 18.4593 41.63 16.3053 38.6254 14.5603C36.1673 13.1334 33.3626 11.894 30.3971 12.1824C29.6226 12.2566 28.6504 12.7856 27.8441 12.9743L27.8438 12.973ZM63.9495 5.03445C62.7152 5.93512 60.954 5.32742 58.1638 6.89717C56.5734 7.79169 55.1638 8.80288 53.8708 10.1003C52.6314 11.3442 51.3608 12.8737 50.4267 14.3475C49.814 15.3145 48.4111 18.6862 47.6583 19.0829C47.0584 18.7034 47.1449 17.0103 47.0628 16.253C46.8424 14.2123 44.8641 10.7396 43.6264 9.21345C41.4864 6.57388 37.718 4.42274 34.521 4.24631C32.6817 4.1453 30.7967 5.01305 29.3038 5.97231C27.8708 6.89362 28.4378 6.17544 27.5164 7.69331C27.0264 8.50134 26.5147 9.05548 26.474 10.1202C26.3953 12.1877 26.3211 14.6855 26.7937 16.701C27.2095 18.4677 28.0376 20.167 28.6207 21.9355L27.7402 21.8584L23.7609 25.6854C22.435 26.9405 21.2949 28.4806 20.0316 29.6459C18.7576 30.8222 12.8569 36.4617 12.6677 37.6426L13.1889 38.3011C12.9936 40.6476 13.3323 42.8836 13.0662 45.3279C12.7447 48.2776 13.3245 52.9078 13.3541 55.6711L13.6677 62.6884C13.6755 63.9512 13.1621 64.7636 13.9384 65.7988C14.5494 65.695 14.4484 65.4522 15.1543 65.479C15.7369 65.4997 16.3876 65.4444 16.9132 65.5014C18.6895 65.6933 16.7352 65.8367 20.2407 65.7625L31.7273 65.767C34.595 65.4947 36.7133 65.9751 40.1102 65.8423L50.792 66.0817C51.9779 66.1749 53.0332 65.9857 54.148 66.0092C56.408 66.0594 58.6615 66.2988 60.9762 66.2089C62.003 66.1693 63.3177 66.0655 64.321 66.0957C65.4628 66.1286 66.3166 66.445 67.5113 66.1604C67.826 65.5823 67.4628 65.6989 67.9315 65.2642C68.0621 65.1431 68.4845 64.9255 68.7128 64.7162C69.1776 64.291 69.4388 63.8267 69.864 63.3585C71.253 61.8356 70.6358 62.2374 72.1743 60.6531C73.8043 58.9762 72.7602 59.1085 76.8847 55.1681C78.099 54.009 80.5416 51.0548 81.7524 49.8422C82.4388 49.1542 86.3763 45.2881 86.3306 44.2546C85.5733 43.8607 85.2642 44.3729 84.7524 44.9678L81.1983 49.0292C81.0911 44.9522 80.6408 41.089 80.5493 36.9897C80.4801 33.911 79.9762 31.4511 79.9684 28.1124C79.965 26.243 79.7055 28.0811 80.1163 26.1141C80.1933 25.7458 80.0738 26.007 80.2184 25.5549C81.5225 24.7692 84.5365 21.9205 84.7804 20.4779C83.6688 20.7017 82.8357 22.1018 82.0354 22.8497C78.0085 26.6102 81.1643 24.9205 75.7865 24.9299C74.5265 24.9333 73.4634 24.7062 72.2514 24.6024C69.771 24.3931 67.1867 24.4511 64.7068 24.2703C64.915 23.7224 67.463 22.6186 68.107 22.2262C68.8458 21.7759 70.4942 20.2926 70.8977 19.5081C72.4992 19.3552 72.9211 19.5365 74.3625 19.5851C75.0411 19.6085 75.6856 19.4087 76.1655 19.4511C76.9105 19.5175 76.9842 19.6102 77.8725 19.5332C78.9986 19.4355 84.5561 19.5817 85.0271 19.3457C84.1465 18.714 73.4411 19.1928 71.2397 18.9411C71.3105 18.1744 71.7927 17.4215 72.1403 16.7268C72.5924 15.8245 72.7229 15.3033 72.9087 14.2798C73.2475 12.4077 72.0884 10.7854 72.0192 10.469C71.8541 9.71784 71.9785 10.0058 71.5215 9.45165C70.9026 8.69719 71.3875 7.88637 68.6192 6.01865C68.1878 5.72904 67.0522 5.27368 66.4635 4.97624C65.8083 4.64532 64.4495 4.44108 63.6995 4.51977L63.95 5.03317L63.9495 5.03445Z" fill="white"/>
<path fill-rule="evenodd" clip-rule="evenodd" d="M33.4999 38.9102C32.722 40.3292 33.1327 50.1166 33.1439 52.471C33.1534 54.6083 33.0574 56.8427 33.1422 58.9766C33.1896 60.1858 33.2493 61.2539 33.246 62.4772C33.2415 64.6094 33.1673 64.7953 34.1121 64.8349C34.5088 63.9894 34.2019 53.471 34.2571 51.4806C34.3185 49.2194 34.0869 47.191 34.0384 44.9594C34.0161 43.9689 33.9234 42.8289 33.8749 41.8133C33.8135 40.5454 33.9502 39.2764 33.4999 38.911L33.4999 38.9102Z" fill="white"/>
<path fill-rule="evenodd" clip-rule="evenodd" d="M86.6427 19.7838C85.4758 19.9082 86.0082 24.1839 85.9876 25.2073C85.9468 27.3239 86.0551 29.3128 86.1846 31.407C86.3202 33.5833 86.0239 35.8512 86.1751 37.8936C86.2805 39.3362 85.7325 42.5912 86.054 43.5376C86.5344 43.8228 86.29 43.8445 86.8553 43.6068C87.0456 43.4338 87.0445 40.6147 87.1075 39.7391C87.1801 38.7486 87.1109 39.5265 87.5093 38.7531L87.1109 29.2319C86.9898 26.0841 86.9518 22.8949 86.6433 19.7832L86.6427 19.7838Z" fill="white"/>
<path fill-rule="evenodd" clip-rule="evenodd" d="M51.3157 52.9007C52.1851 54.8755 63.6052 53.6534 65.5378 53.0139C65.3866 52.6283 65.7549 52.6646 64.9898 52.4972L62.1834 52.3365C58.9613 52.1914 54.5327 52.6071 51.3157 52.9001L51.3157 52.9007Z" fill="white"/>
<path fill-rule="evenodd" clip-rule="evenodd" d="M53.4299 55.7721C53.9796 56.7956 57.5845 56.8301 58.6884 56.7783C59.9936 56.7152 63.5845 57.0394 64.4378 56.271C63.3731 55.4189 54.8078 55.2476 53.4299 55.7716V55.7721Z" fill="white"/>
<path fill-rule="evenodd" clip-rule="evenodd" d="M81.3571 28.5625C81.3319 30.9469 81.7382 41.0256 82.3699 42.8459C82.5384 42.6238 82.4313 42.967 82.5557 42.5139C82.7728 41.7282 82.2739 36.3438 82.1885 35.5692C82.0328 34.1328 82.313 29.7328 81.3571 28.563V28.5625Z" fill="white"/>
<path fill-rule="evenodd" clip-rule="evenodd" d="M60.2029 58.7895C61.6851 59.0574 63.7699 58.881 65.2425 58.6288C65.1431 58.5468 65.1872 58.5345 64.9478 58.4274C64.9038 58.4067 64.7509 58.3582 64.699 58.3425C62.9668 57.8118 56.4501 57.5077 55.252 58.1394C56.2062 58.7237 58.8942 58.5518 60.2034 58.7901L60.2029 58.7895Z" fill="white"/>
<path fill-rule="evenodd" clip-rule="evenodd" d="M83.6228 36.7958C84.0792 35.706 85.6166 26.4147 83.8052 26.0195C83.7645 27.1914 83.5061 36.577 83.6228 36.7958Z" fill="white"/>
<path fill-rule="evenodd" clip-rule="evenodd" d="M51.9485 49.6866C52.9529 50.3496 62.1912 50.6788 62.8369 49.4679C61.7454 49.3485 52.3123 49.4886 51.9485 49.6866Z" fill="white"/>
<path fill-rule="evenodd" clip-rule="evenodd" d="M42.6615 34.1399C44.5672 33.242 45.4238 34.088 45.8111 32.9211C44.7636 32.7967 41.0549 32.833 40.3936 34.0405C40.844 34.2911 40.9651 34.2013 41.57 34.2626C41.0186 34.5177 40.4093 34.3318 40.1431 34.8296C40.7335 35.3759 43.1179 35.2046 43.6158 34.4468C43.1593 34.0768 43.1292 34.2152 43.0851 34.2041C42.9969 34.1806 42.7134 34.1583 42.6616 34.1393L42.6615 34.1399Z" fill="white"/>
<path fill-rule="evenodd" clip-rule="evenodd" d="M62.57 60.4568C61.4126 60.3558 60.2754 60.2235 59.1101 60.252C59.2217 61.3591 61.0894 61.3401 62.1134 61.5165C63.0236 61.6722 65.2238 61.9997 65.734 61.1337C65.3216 60.4992 63.3735 60.526 62.5704 60.4568H62.57Z" fill="white"/>
<path fill-rule="evenodd" clip-rule="evenodd" d="M37.3958 57.8662C37.4683 59.2535 38.7908 58.9337 39.884 58.9008C40.6402 58.8774 42.0905 58.7384 42.3378 57.9778C41.5582 57.4895 38.393 57.6251 37.3958 57.8662V57.8662Z" fill="white"/>
<path fill-rule="evenodd" clip-rule="evenodd" d="M37.4844 53.2073C37.6875 54.2325 38.7818 54.1761 39.9665 53.9618C40.7679 53.8167 42.1568 53.6566 42.2924 52.8044C40.9961 52.6264 38.4972 52.483 37.4844 53.2073V53.2073Z" fill="white"/>
<path fill-rule="evenodd" clip-rule="evenodd" d="M38.2427 54.8711C37.8633 56.3025 41.3359 55.923 42.2032 55.7087C42.9593 55.5229 43.0062 55.5781 43.0754 54.9514C42.4453 54.5859 38.8689 54.6099 38.2422 54.8711H38.2427Z" fill="white"/>
<path fill-rule="evenodd" clip-rule="evenodd" d="M41.27 13.8513L41.9112 14.1219C41.6768 14.6292 41.4893 14.6638 41.7192 15.1627C42.573 15.1342 43.7254 13.262 43.4168 12.6917C43.1333 12.1688 43.4972 12.4997 42.9648 12.5103C42.0184 12.5293 43.448 12.8267 42.7488 12.5354L42.6545 11.2207C41.8627 11.3954 41.3521 13.0583 41.27 13.8507L41.27 13.8513Z" fill="white"/>
<path fill-rule="evenodd" clip-rule="evenodd" d="M69.5813 36.4556C69.4775 37.6303 69.915 39.7704 69.9418 41.1688C69.953 41.7168 69.8899 45.4601 70.1243 45.8379C70.8771 44.444 70.5875 37.6175 69.5808 36.4551L69.5813 36.4556Z" fill="white"/>
<path fill-rule="evenodd" clip-rule="evenodd" d="M39.4744 35.7914C39.8683 36.9694 40.293 37.3756 41.7155 36.9097C41.9359 36.8388 43.3628 35.7082 43.5158 35.2941C42.609 35.053 40.5097 35.6077 39.4751 35.7918L39.4744 35.7914Z" fill="white"/>
<path fill-rule="evenodd" clip-rule="evenodd" d="M71.5572 47.8298C72.0031 46.8504 72.1621 41.8643 72.0042 40.5698C71.7698 38.6562 71.9852 38.9838 71.3066 38.6172C71.5762 40.8376 71.4579 43.3856 71.4545 45.6942C71.4545 46.3114 71.1995 47.2975 71.5566 47.8298H71.5572Z" fill="white"/>
<path fill-rule="evenodd" clip-rule="evenodd" d="M73.9099 37.8948C74.4908 37.8981 78.0138 36.8222 78.5478 35.0098C77.5589 35.1828 74.0566 36.6019 73.9099 37.8948Z" fill="white"/>
<path fill-rule="evenodd" clip-rule="evenodd" d="M29.8486 19.4662C30.6249 19.2346 31.1209 17.9244 31.6299 16.6866C31.948 15.9149 33.0032 14.1604 32.2186 13.5684C31.655 13.8658 29.9809 18.7732 29.8486 19.4662H29.8486Z" fill="white"/>
<path fill-rule="evenodd" clip-rule="evenodd" d="M64.72 63.0933C64.2396 62.292 60.9896 62.1798 60.0208 62.2144C60.3199 63.5732 64.0899 64.071 64.72 63.0933Z" fill="white"/>
<path fill-rule="evenodd" clip-rule="evenodd" d="M74.1813 23.2405C75.1199 24.308 80.0569 24.4436 80.6014 23.3649C79.5445 23.2578 78.3904 23.3253 77.3134 23.2784C76.4691 23.2405 74.7637 22.8281 74.1812 23.2405H74.1813Z" fill="white"/>
<path fill-rule="evenodd" clip-rule="evenodd" d="M44.5157 29.2079C45.062 28.9875 44.9599 28.2927 45.1017 27.6538C45.2183 27.137 45.3946 26.4473 45.5665 25.9512C45.9225 24.9183 46.5872 23.6901 46.4376 22.6348C45.5559 23.0633 43.874 28.3055 44.5163 29.2079H44.5157Z" fill="white"/>
<path fill-rule="evenodd" clip-rule="evenodd" d="M56.2014 27.4695C56.3387 28.5135 57.9318 28.2222 58.8721 28.1904C59.7918 28.1592 61.0753 28.2518 61.433 27.3461C60.4754 27.3099 56.808 27.1637 56.2014 27.4689V27.4695Z" fill="white"/>
<path fill-rule="evenodd" clip-rule="evenodd" d="M68.3542 29.1561C68.6567 29.9229 69.8988 29.8364 70.6534 29.9089C71.8029 30.0194 73.2237 30.4776 73.236 29.3325C72.3303 29.169 69.1634 28.6712 68.3542 29.1561V29.1561Z" fill="white"/>
<path fill-rule="evenodd" clip-rule="evenodd" d="M68.6785 53.4696C69.0897 52.882 68.8062 42.6599 68.2845 41.7324C68.1913 42.0868 68.5378 53.1923 68.6785 53.4696Z" fill="white"/>
<path fill-rule="evenodd" clip-rule="evenodd" d="M36.7815 51.6862C37.2017 52.6025 38.7675 52.2359 39.6164 52.0278C40.3926 51.8375 41.5411 51.8704 41.9551 51.1115C41.0321 50.9256 37.4996 51.2565 36.7821 51.6862L36.7815 51.6862Z" fill="white"/>
<path fill-rule="evenodd" clip-rule="evenodd" d="M75.1943 44.7065C76.0749 44.5949 75.8227 44.3271 76.4086 43.8354C76.8433 43.4699 79.788 41.8639 78.87 40.875C78.4448 40.9994 78.3678 41.4057 77.8762 41.7868C76.8114 42.6138 75.0135 43.4844 75.1943 44.7065V44.7065Z" fill="white"/>
<path fill-rule="evenodd" clip-rule="evenodd" d="M68.4028 27.7822C69.0295 28.6293 73.2214 28.1773 73.9128 27.3441C72.8749 27.333 68.9881 27.1064 68.4028 27.7822Z" fill="white"/>
<path fill-rule="evenodd" clip-rule="evenodd" d="M36.9486 50.0176C37.4682 50.3608 37.7957 50.3056 38.5061 50.2855C39.3582 50.2587 42.0462 50.1767 42.2951 49.4869C41.4697 49.2224 37.7549 49.2838 36.9485 50.0176H36.9486Z" fill="white"/>
<path fill-rule="evenodd" clip-rule="evenodd" d="M46.0043 28.8625C46.6516 28.4702 46.7883 27.2386 47.0439 26.4735C47.3179 25.6498 47.954 24.8339 47.4122 24.1113C46.877 24.5332 46.5729 25.5583 46.3273 26.2308C46.1917 26.6058 46.0015 27.103 45.896 27.4796C45.5165 28.8418 45.9574 28.7977 46.0048 28.8625L46.0043 28.8625Z" fill="white"/>
<path fill-rule="evenodd" clip-rule="evenodd" d="M60.3414 64.0678C59.683 65.4317 63.5367 65.252 63.8013 63.9986C62.8565 63.8664 61.0847 63.6331 60.3414 64.0678Z" fill="white"/>
<path fill-rule="evenodd" clip-rule="evenodd" d="M74.8699 21.1532C74.972 22.1844 76.544 22.0003 77.3236 21.9093C78.1422 21.8133 79.41 21.7442 79.9017 21.0918L74.8704 21.1532L74.8699 21.1532Z" fill="white"/>
<path fill-rule="evenodd" clip-rule="evenodd" d="M36.1584 30.3017C37.0987 30.8107 40.092 30.1064 40.322 29.0434C39.716 28.8073 36.4889 29.7409 36.1584 30.3017Z" fill="white"/>
<path fill-rule="evenodd" clip-rule="evenodd" d="M74.0542 35.9348C75.1692 35.6211 78.5191 34.2199 78.8382 33.0938C77.8633 33.3521 74.3628 35.015 74.0542 35.9348Z" fill="white"/>
<path fill-rule="evenodd" clip-rule="evenodd" d="M43.9485 38.7445C44.1377 38.8377 43.857 38.8042 44.3564 38.8991L47.3424 38.8031C48.1772 38.7088 49.7927 39.0832 50.3111 38.3795C49.8625 38.0174 44.5567 38.3226 43.949 38.7451L43.9485 38.7445Z" fill="white"/>
<path fill-rule="evenodd" clip-rule="evenodd" d="M75.6115 50.3876C76.3582 50.1533 78.4224 47.8346 78.6885 46.8965C77.8018 47.1911 75.0931 49.4791 75.6115 50.3876Z" fill="white"/>
<path fill-rule="evenodd" clip-rule="evenodd" d="M75.6558 51.3314C76.8354 51.5407 79.024 49.495 78.6083 48.2969C77.9705 48.4152 77.4476 49.3694 76.9895 49.8604C76.5609 50.3186 76.0034 50.9536 75.6558 51.3314H75.6558Z" fill="white"/>
<path fill-rule="evenodd" clip-rule="evenodd" d="M56.24 35.1232C55.629 34.7136 53.9929 34.8397 53.1484 34.9407C53.0463 36.5785 55.8951 36.131 56.24 35.1232Z" fill="white"/>
<path fill-rule="evenodd" clip-rule="evenodd" d="M33.0714 22.9454C33.6177 22.7026 33.443 22.6808 33.5267 21.9247C33.6417 20.8711 34.1785 19.0854 33.837 18.2617C33.3236 18.4978 33.4966 18.6049 33.3331 19.3136C33.0971 20.3404 32.5864 22.0915 33.0719 22.9453L33.0714 22.9454Z" fill="white"/>
<path fill-rule="evenodd" clip-rule="evenodd" d="M38.1942 59.758C38.01 60.8194 38.366 60.8523 39.3404 60.9215C40.2271 60.9845 40.8849 61.1436 40.9921 60.2647C40.3464 59.9059 38.9781 59.7167 38.1935 59.7574L38.1942 59.758Z" fill="white"/>
<path fill-rule="evenodd" clip-rule="evenodd" d="M63.3157 34.405C63.7297 35.3738 67.352 34.8604 67.8068 34.4664C67.4586 34.1812 68.188 34.3922 67.3029 34.2114C66.8397 34.1182 63.9235 34.1438 63.3158 34.405H63.3157Z" fill="white"/>
<path fill-rule="evenodd" clip-rule="evenodd" d="M60.2142 28.6367L55.9687 28.7042C55.7968 29.9721 59.6947 29.5686 60.2142 28.6367Z" fill="white"/>
<path fill-rule="evenodd" clip-rule="evenodd" d="M63.5999 32.7195C64.2645 33.3791 67.5273 33.5918 68.1384 32.9539C67.3728 32.5053 64.2959 32.3384 63.5999 32.7195Z" fill="white"/>
<path fill-rule="evenodd" clip-rule="evenodd" d="M74.87 31.2277C74.8856 31.2372 74.6953 31.6641 76.0603 31.1016C77.0033 30.7126 78.8243 29.9252 78.9151 28.9219C78.1579 28.9358 78.1467 29.2556 76.8583 30.0575C76.1903 30.4732 75.4944 30.7946 74.8694 31.2277L74.87 31.2277Z" fill="white"/>
<path fill-rule="evenodd" clip-rule="evenodd" d="M57.6357 43.9866C57.8718 45.3627 60.7066 44.2684 60.96 43.538C60.1933 43.3555 59.056 43.5692 58.2642 43.7696C57.7714 43.894 57.9634 43.8075 57.6358 43.9866H57.6357Z" fill="white"/>
<path fill-rule="evenodd" clip-rule="evenodd" d="M33.9358 33.7784C34.5217 34.2081 35.3705 33.9643 36.0982 33.818C36.8622 33.6651 37.7059 33.7801 37.8968 33.0167C37.2305 32.678 34.5206 33.3208 33.9364 33.779L33.9358 33.7784Z" fill="white"/>
<path fill-rule="evenodd" clip-rule="evenodd" d="M54.3814 32.0232C53.0237 32.017 52.3468 31.7804 51.084 31.6074C51.3926 32.4958 51.6621 32.4043 52.5611 32.6309C53.5126 32.8703 54.0884 33.0639 54.3814 32.0232Z" fill="white"/>
<path fill-rule="evenodd" clip-rule="evenodd" d="M35.9829 24.5553C36.1748 23.8767 36.0933 23.3711 36.3406 22.557C36.5749 21.7835 36.6793 21.615 36.4823 20.793C35.9879 21.1457 34.7469 24.3884 35.9828 24.5553H35.9829Z" fill="white"/>
<path fill-rule="evenodd" clip-rule="evenodd" d="M37.0601 48.6846C37.7905 49.0925 40.7532 48.886 41.2961 48.1288C40.608 47.8955 37.6281 48.3051 37.0601 48.6846Z" fill="white"/>
<path fill-rule="evenodd" clip-rule="evenodd" d="M34.9229 32.291C34.9826 32.3256 34.7326 32.6487 35.953 32.3117C37.1768 31.9729 38.3877 31.7826 38.8286 30.9434C37.5763 31.0098 35.9641 31.6364 34.9229 32.2916L34.9229 32.291Z" fill="white"/>
<path fill-rule="evenodd" clip-rule="evenodd" d="M74.2314 32.9883C75.3386 33.0307 78.1572 32.5976 78.271 31.1914C78.1767 31.2148 74.3574 32.9113 74.2314 32.9883Z" fill="white"/>
<path fill-rule="evenodd" clip-rule="evenodd" d="M55.0485 33.6236C54.3493 33.2614 52.5931 33.1214 51.9636 33.4048C52.28 34.1733 52.4536 34.06 53.4391 34.1057C54.0518 34.1342 54.833 34.1749 55.0485 33.6236Z" fill="white"/>
<path fill-rule="evenodd" clip-rule="evenodd" d="M47.4614 28.2236C47.8537 27.7749 48.5278 25.4897 48.3844 24.8457C47.8459 25.0711 47.6428 25.9528 47.424 26.5226C47.1829 27.1476 46.7041 28.0187 47.4619 28.2234L47.4614 28.2236Z" fill="white"/>
<path fill-rule="evenodd" clip-rule="evenodd" d="M37.2143 24.9877C37.9638 24.7265 37.6992 24.3281 37.8332 23.5486C37.9654 22.769 38.255 22.5659 37.7606 21.9531C37.1462 22.4916 36.7668 24.3024 37.2143 24.9877Z" fill="white"/>
<path fill-rule="evenodd" clip-rule="evenodd" d="M57.0728 36.59C56.32 36.4198 54.7894 36.311 54.199 36.7524C54.5595 37.3054 56.8497 37.8043 57.0728 36.59Z" fill="white"/>
<path fill-rule="evenodd" clip-rule="evenodd" d="M42.7356 16.3214C43.3165 16.178 44.37 14.2315 44.0476 13.5859C43.2289 13.9152 42.5057 15.4615 42.7356 16.3214Z" fill="white"/>
<path fill-rule="evenodd" clip-rule="evenodd" d="M37.8757 25.3494C38.7278 25.3432 38.5861 24.9113 38.9511 24.0598C39.2217 23.4297 39.4773 23.1809 39.2552 22.5039C38.5292 22.7305 38.0409 24.6016 37.8757 25.3493V25.3494Z" fill="white"/>
<path fill-rule="evenodd" clip-rule="evenodd" d="M60.5743 45.2877L58.3003 45.3474C58.3315 46.2168 58.543 46.2453 59.4309 46.1677C60.1898 46.1013 60.4766 46.089 60.5743 45.2871V45.2877Z" fill="white"/>
<path fill-rule="evenodd" clip-rule="evenodd" d="M38.3943 62.8273C39.1878 63.0354 39.8401 62.7062 40.1376 61.9406L38.1739 61.7168C38.1141 62.416 38.0544 62.238 38.3943 62.8273Z" fill="white"/>
<path fill-rule="evenodd" clip-rule="evenodd" d="M62.8372 36.4883C63.0358 37.3767 63.2814 37.3689 64.2512 37.2628C64.8935 37.1936 65.1848 37.1367 65.4119 36.6284L62.8372 36.4883Z" fill="white"/>
<path fill-rule="evenodd" clip-rule="evenodd" d="M39.9358 44.2188C40.5357 44.7366 42.4631 44.2991 43.0904 43.7746C42.443 43.4816 40.5786 43.8075 39.9358 44.2188Z" fill="white"/>
<path fill-rule="evenodd" clip-rule="evenodd" d="M39.0443 10.0095C39.5153 9.77344 39.4913 9.83929 39.6158 9.1875C39.7402 8.53572 39.748 8.43136 39.6392 7.80469C38.666 7.98604 38.806 9.21874 39.0438 10.0095L39.0443 10.0095Z" fill="white"/>
<path fill-rule="evenodd" clip-rule="evenodd" d="M40.0427 41.3068C40.7732 41.477 42.5986 40.9965 43.3296 40.7633C43.0193 40.4625 43.7928 40.6043 42.8335 40.5256C42.7358 40.5178 40.3123 40.7728 40.0428 41.3068H40.0427Z" fill="white"/>
<path fill-rule="evenodd" clip-rule="evenodd" d="M31.8772 35.5839C32.4269 35.8517 33.8901 35.7697 34.1495 35.1397C33.6015 34.6927 32.3085 35.0911 31.8772 35.5839Z" fill="white"/>
<path fill-rule="evenodd" clip-rule="evenodd" d="M28.8342 27.8583C29.2533 28.4046 30.4687 28.5888 30.9838 28.2205C30.7115 27.5101 29.3711 27.5291 28.8342 27.8583Z" fill="white"/>
<path fill-rule="evenodd" clip-rule="evenodd" d="M43.3485 39.5276C42.9233 39.4947 42.4322 39.4835 42.002 39.4869C40.988 39.493 41.1532 39.6253 40.9451 39.8178C41.372 39.964 41.8647 40.0617 42.3323 40.0712C43.036 40.0851 43.1214 40.0366 43.348 39.5276L43.3485 39.5276Z" fill="white"/>
<path fill-rule="evenodd" clip-rule="evenodd" d="M75.3899 53.7695C76.4295 53.6718 76.9882 53.0513 77.2169 52.0625C76.6153 52.2561 75.6533 53.2087 75.3899 53.7695Z" fill="white"/>
<path fill-rule="evenodd" clip-rule="evenodd" d="M69.1814 56.7637C69.9894 56.6108 69.3734 56.0868 69.158 55.4941C68.9057 54.8027 69.0715 54.6124 68.7188 53.8691C68.6435 54.5684 68.7394 56.2849 69.182 56.7637L69.1814 56.7637Z" fill="white"/>
<path fill-rule="evenodd" clip-rule="evenodd" d="M41.2871 42.4007C41.7486 42.7662 43.0684 42.6323 43.3881 42.0982C42.8306 41.8778 41.7028 42.0921 41.2871 42.4007Z" fill="white"/>
<path fill-rule="evenodd" clip-rule="evenodd" d="M40.5557 45.5642C41.1745 45.9074 42.0707 45.846 42.6835 45.4336C42.4157 45.2684 42.9542 45.2885 42.1165 45.2461L40.5557 45.5642Z" fill="white"/>
<path fill-rule="evenodd" clip-rule="evenodd" d="M29.0056 39.5723C29.1931 39.7832 28.577 39.7201 29.5932 39.9863C29.2578 39.4807 29.7159 39.6526 29.0056 39.5723Z" fill="white"/>
<path fill-rule="evenodd" clip-rule="evenodd" d="M54.0415 16.3312C54.229 16.0416 54.1079 15.7503 53.8289 15.4082L54.0415 16.3312Z" fill="white"/>
</svg>
