<svg width="100" height="70" viewBox="0 0 100 70" fill="none" xmlns="http://www.w3.org/2000/svg">
<path fill-rule="evenodd" clip-rule="evenodd" d="M77.7717 34.364C77.6889 33.7157 77.3673 33.7596 76.9467 33.4122C76.4306 32.9861 75.8369 32.6655 75.4006 32.1368L73.9086 30.8043C73.2346 30.2413 72.1975 28.9589 71.123 28.0531C70.8296 27.8051 70.3661 27.4477 70.151 27.1599C71.181 27.4603 72.2171 28.1131 73.3244 28.4494C75.3719 29.0705 76.0944 28.9821 76.2468 30.0909C75.7384 29.9656 75.3006 29.7006 74.8149 29.4794C74.3761 29.283 73.8717 28.9422 73.491 28.8569C73.5637 29.0593 73.4925 28.9311 73.6435 29.0861C73.749 29.1941 73.8359 29.2456 73.9399 29.3113C74.4913 29.6632 75.4632 29.9 75.8652 30.2873C75.4421 30.5397 75.2224 30.1247 74.6428 30.0606L74.919 30.3201C75.7157 30.8871 75.9818 30.571 76.2924 30.417C76.62 30.7063 76.4403 30.7018 76.7044 31.0083L77.1573 30.7205L78.2186 31.0951C78.2287 31.1633 78.2625 31.6051 78.2585 31.652C78.2085 32.2064 78.3539 31.7873 78.0989 32.0625C78.4594 32.3089 78.1974 32.4059 78.6119 32.5543C78.7927 32.2423 78.6619 32.1014 78.5735 31.6838C78.468 31.1754 78.5493 30.9613 78.4953 30.5311C78.058 30.729 78.5008 30.6079 78.0863 30.829C77.6117 30.6523 76.878 30.5569 76.6316 30.1706C76.4448 29.8813 76.2196 28.8225 76.2555 28.4651C76.5003 28.5135 77.6061 29.5496 78.1917 29.9697C78.5351 30.2146 78.8416 30.4585 79.2288 30.7105C79.4368 30.8458 79.5691 30.9043 79.7873 31.0896C80.0352 31.3007 80.0109 31.3704 80.2715 31.5471C79.8226 31.9859 79.5464 32.0358 78.9492 32.8225C78.7209 33.1219 78.6043 33.3456 78.3907 33.6203L77.7707 34.364L77.7717 34.364ZM73.943 26.0324C74.1469 26.1349 75.5719 27.7724 76.1318 28.1485L75.9965 29.1144C75.6875 28.9978 75.4577 28.9009 75.1043 28.7797C74.6272 28.6156 74.5242 28.6671 74.3419 28.1728C74.1152 27.5527 73.943 26.7464 73.943 26.0324L73.943 26.0324ZM74.003 25.468C74.2555 25.5821 74.3151 25.6719 74.5731 25.8557C74.9609 26.1319 74.8124 26.034 74.9962 26.4798C75.4834 27.6623 77.3314 28.5585 77.9555 29.4265C77.4941 29.1927 75.4178 27.2048 74.8377 26.6353C74.657 26.4586 74.5615 26.3263 74.3833 26.1496C74.1026 25.8703 74.0228 25.9628 74.0031 25.4685L74.003 25.468ZM68.5713 20.2588C68.9989 20.4456 69.8068 21.2847 70.2071 21.6422L70.0733 22.0567C70.0233 22.2718 70.0163 22.4071 69.985 22.6636L68.3137 22.0668C68.8706 21.678 69.1145 22.4985 69.3967 21.9229C69.1872 21.8401 68.9564 21.8245 68.7469 21.7619C67.8764 21.4983 68.2894 20.8071 68.5717 20.2587L68.5713 20.2588ZM65.0575 20.2118C64.697 20.0553 63.9619 20.3486 63.9518 18.324L65.421 18.8269L65.7644 20.5583C65.4564 20.4543 65.2872 20.3104 65.0575 20.2119L65.0575 20.2118ZM68.5713 20.2588C68.0527 20.434 67.9825 20.8046 67.98 21.4302C66.3728 21.1323 65.877 20.5996 65.7614 18.9465L66.3825 19.203C66.388 19.1904 66.384 19.1661 66.384 19.1601L66.381 19.0333C66.3795 18.9091 66.3098 19.0459 66.3825 18.9091C66.9071 19.0545 67.9301 18.9217 68.5713 20.2583L68.5713 20.2588ZM66.5435 18.2068C66.7515 18.4204 67.011 18.5643 67.0994 18.8591C66.8156 18.8233 66.0976 18.5941 65.7371 18.3674L65.7629 17.6746C66.0875 17.6544 65.8598 17.5035 66.5435 18.2063L66.5435 18.2068ZM62.0952 17.8675L63.6513 18.2608L63.7867 19.6231C63.7054 19.6816 63.4544 19.6231 63.2424 19.7271C63.4746 20.0108 63.6241 19.9008 63.8054 20.1063C64.0533 20.387 63.7983 20.4698 64.083 20.8429C64.2926 20.7773 64.18 20.8843 64.4123 20.4839L64.5006 20.33C66.1295 21.0111 65.9224 21.3403 66.0906 21.6837C66.8656 21.5155 65.7003 21.1111 67.5866 21.9715C68.6298 22.4476 67.6805 22.8066 68.547 23.4418C68.7535 23.1484 68.4813 22.8005 68.3687 22.3274L69.9704 22.8591L70.1511 24.3708C69.2009 24.2738 67.6574 23.2307 66.7343 22.7177C66.2229 22.4339 66.19 22.1209 65.7528 21.9295C65.9154 22.7288 67.1407 23.2534 68.0254 23.725L70.1001 24.6783C70.5106 25.0444 70.036 25.0858 70.4576 25.4119C70.7499 25.258 70.6585 25.1767 70.7711 24.9404C70.9862 24.9787 71.0518 24.9858 71.2685 25.0787C71.7188 25.2726 71.4836 25.0903 71.5992 25.3837C71.629 25.4604 71.783 26.3597 71.8087 26.5278C70.3924 26.2587 69.0615 25.0817 67.7649 24.4632C67.9174 24.7767 68.2067 24.7611 68.7823 25.271C69.8981 26.2556 71.6421 26.6388 71.8688 26.8852C72.2122 27.2528 71.7931 27.1957 72.2349 27.4967C72.353 27.3871 72.2748 27.4669 72.3773 27.3043C72.3899 27.2856 72.4071 27.2543 72.4212 27.2331L72.5055 27.0821C72.5171 27.065 72.5313 27.0281 72.5484 27.0039C72.601 27.0109 72.8191 27.0397 72.862 27.0367C72.8933 27.0337 72.9261 27.0326 72.9589 27.0281L72.6908 26.7787C72.0965 26.6489 72.2778 26.7943 71.8461 25.3594L72.6282 25.5886C72.3419 25.1898 72.2309 25.2766 71.7704 24.9989C71.7578 24.7212 71.729 24.3935 71.7345 24.1168C71.7376 23.933 71.7744 23.7477 71.7759 23.6564L71.679 23.2388C71.4341 24.0113 71.4669 23.9795 71.4836 24.9257C70.6868 24.6677 70.5248 24.7788 70.3622 23.9053C70.2683 23.4049 70.1456 22.3836 70.3622 21.9463C70.5475 21.7554 70.861 22.3098 71.2286 22.6148C71.4008 22.7587 71.5836 22.8753 71.7542 23.0354C72.0506 23.3131 72.0052 23.255 72.0733 23.5257C72.2884 24.3734 73.7007 24.898 73.783 25.4433L73.1903 25.0202C73.5836 25.928 73.5922 24.7738 73.7133 26.6177C73.7532 27.2246 73.9597 27.7845 74.0294 28.4045C73.1701 28.2405 70.3673 27.1433 69.8473 26.5324C69.5751 26.6263 69.7276 26.5379 69.6352 26.8187L64.9703 22.3932C64.6326 22.0397 64.6856 22.2008 64.5129 21.7721C64.4276 21.5601 64.1337 21.6338 63.7636 21.302C63.5258 21.0885 63.3662 20.8845 63.1365 20.6749C62.7644 20.3346 62.9113 20.4654 62.6477 20.011C62.4968 19.753 62.2857 19.6146 62.0393 19.3728C62.0509 19.34 62.0908 19.2945 62.0994 19.2758C62.4301 18.5689 62.0853 18.7457 62.0954 17.8681L62.0952 17.8675ZM63.8463 16.6406L65.5377 17.4287L65.4524 18.2538C64.9652 18.1467 64.2285 17.9135 63.8478 17.6368L63.8463 16.6406ZM62.1235 15.6833C62.5981 15.8968 63.145 16.222 63.5756 16.4583L63.5397 17.5328C63.0424 17.5055 62.9212 17.2177 62.5496 17.4459L63.5372 17.9644L61.9316 17.4969L61.7776 15.9665L62.124 15.6827L62.1235 15.6833ZM64.1866 15.8857C64.2921 16.2892 65.0374 16.6608 65.2141 16.9814C64.8253 16.8915 64.1341 16.5754 63.9033 16.2775C64.0628 15.6817 63.9558 16.0352 64.187 15.8857L64.1866 15.8857ZM57.6334 15.7918C57.3728 15.6439 57.4067 15.6838 57.2855 15.4227C57.5693 15.5823 57.4693 15.4626 57.6334 15.7918ZM61.865 13.9096C62.2856 13.9964 63.6902 15.4344 63.86 15.755L63.6646 16.167C63.2258 16.1215 62.0443 15.3778 61.6812 15.1254L61.865 13.91L61.865 13.9096ZM58.9214 14.8598L58.7417 14.3029C58.9497 14.3771 59.1906 14.468 59.3986 14.5791C59.7646 14.7755 59.6848 14.7088 59.7136 15.1835L58.9214 14.8598ZM57.2441 13.6031C57.9863 13.8338 58.2801 13.8298 58.3528 14.6361C58.058 14.5493 57.8414 14.4397 57.6248 14.2726C57.287 14.0131 57.2829 14.0333 57.2446 13.6031H57.2441ZM58.5063 12.355C58.9138 12.4731 59.293 12.6927 59.6792 12.8422L59.6636 14.3882C59.2289 14.3256 58.9012 14.0661 58.5538 13.847L58.5068 12.355H58.5063ZM59.957 12.9962C60.3746 13.1002 61.3833 13.3451 61.6853 13.5061L61.4374 14.9068C60.9769 14.7599 61.1551 14.5665 60.6482 14.5337C60.8532 15.0739 61.3647 14.9497 61.4263 15.6238C60.8936 15.6793 60.06 15.5253 60.0529 14.9154L61.2768 15.5521C61.1713 15.2557 61.3551 15.444 60.992 15.19L59.959 14.6528L59.9575 12.9957L59.957 12.9962ZM61.8323 19.0521C61.4521 18.8825 59.745 17.1643 59.3017 16.6699L58.5948 16.0201C58.1358 15.5995 55.6113 13.2401 55.4017 12.8483C55.8546 13.0134 56.2964 13.1275 56.7454 13.3769L56.8181 14.0454C56.9832 14.1479 57.022 14.1282 57.1902 14.2691C58.0137 14.9629 57.7203 14.5453 58.2429 14.9073C58.7832 15.2804 58.1818 15.128 58.9342 15.2037C59.2421 15.2335 59.4502 15.3279 59.7733 15.4799C59.8475 15.8091 59.8859 16.1312 59.9329 16.4432C59.9455 16.5261 60.0056 16.9603 60.0182 17.0017C60.1081 17.3364 59.9682 17.1511 60.2146 17.3177C60.6705 17.0087 60.2186 16.7694 60.152 15.6152L61.4446 15.9858C61.5688 16.9274 61.7369 17.2395 61.4476 17.502L61.2709 17.6373C61.6001 17.7711 61.9833 17.8398 61.8323 19.052L61.8323 19.0521ZM60.473 12.8897C60.2922 12.8139 60.1781 12.7715 60.0514 12.6206L60.1039 12.2843C60.5841 12.5206 60.5083 12.8301 61.0769 12.9084C60.9213 13.0124 61.0824 13.0265 60.7845 13.0038C60.783 13.0023 60.4851 12.8957 60.4725 12.8897L60.473 12.8897ZM58.2246 13.6703C56.9466 13.2658 56.8396 13.0533 56.8754 11.479C57.2303 11.579 57.967 11.9521 58.2079 12.2015L58.225 13.6708L58.2246 13.6703ZM59.4217 11.6371C59.5383 11.7239 59.6383 11.7895 59.7196 11.8607L59.8024 12.556C59.3606 12.4803 58.8804 12.2879 58.5785 11.9844L58.7567 11.3619C59.1344 11.3674 59.1814 11.4533 59.4222 11.6371H59.4217ZM38.7741 11.8936L38.2642 12.3964C38.4268 12.1399 38.5207 12.0218 38.7741 11.8936ZM55.8956 12.7413L55.4851 11.329L56.5949 11.7496L56.6135 12.9877L55.8956 12.7413ZM56.9185 11.1124C56.8302 10.3873 56.9599 9.88849 57.2048 9.29725C57.4042 9.37702 58.0157 9.90163 58.101 10.148C58.2848 10.6837 57.8728 10.1278 58.1863 10.6711C58.3474 10.9488 58.3873 10.8095 58.5751 11.1568L58.2176 11.8662L56.918 11.1124H56.9185ZM55.0675 9.26597L55.0731 10.7463C54.8307 10.6767 54.1481 10.302 54.037 10.1294C53.8532 9.84559 53.8032 9.15336 53.7689 8.72019L55.0671 9.266L55.0675 9.26597ZM52.4485 8.03752L53.4316 8.51768L53.6553 9.85575C53.0484 9.65177 52.8373 9.37154 52.5167 9.09334L52.4485 8.03752ZM54.5201 7.75527C55.1927 7.91785 54.7595 7.74669 55.2381 8.13143L55.0957 8.96909C54.5944 8.84942 53.9688 8.55456 53.6709 8.31068L53.6866 7.55532C53.9375 7.5836 54.2122 7.68054 54.5202 7.75477L54.5201 7.75527ZM55.5133 8.54596C55.8253 8.81963 55.8597 9.05743 56.206 9.12611C56.1848 8.76005 56.0177 8.65856 55.8354 8.42226C55.7173 8.26827 55.6274 8.24252 55.6461 8.01783C55.6961 7.44526 56.0919 8.36976 56.9912 8.94282C56.9427 9.31192 56.4665 10.2707 56.5509 11.3796C56.001 11.421 55.7703 11.2301 55.4153 10.9479C55.2911 10.7343 55.3896 8.78076 55.5138 8.54706L55.5133 8.54596ZM52.5838 7.81233C52.2491 7.58006 52.293 7.46343 52.2804 6.94439L53.3291 7.38871L53.4033 8.20818C53.1912 8.14405 52.755 7.93048 52.5838 7.81182V7.81233ZM55.4749 7.7795C55.1058 7.78657 55.2967 7.85221 55.0488 7.54876C54.8862 7.34931 54.868 7.33063 54.765 7.07565C55.1967 7.15138 55.4689 7.39929 55.4744 7.77949L55.4749 7.7795ZM53.6613 6.55863C54.0819 6.75403 54.4394 7.26551 54.6575 7.60582L53.6401 7.26249L53.6613 6.55863ZM52.2152 5.22612C52.5388 5.28873 52.768 5.60632 53.0942 5.84009C53.6087 6.20918 53.3704 6.26775 53.3805 7.04986C52.9544 7.07814 52.457 6.7252 52.1919 6.52828L52.2147 5.22614L52.2152 5.22612ZM57.4885 8.75135C57.1709 8.61754 55.3057 6.74786 54.9195 6.31214C54.0803 5.36189 54.1243 6.17531 54.2 5.40178C53.7113 5.41188 53.2068 4.8701 52.7095 4.46718C52.9135 4.31925 52.7853 4.43739 53.0074 4.39751C53.2851 4.34752 52.9605 4.1097 53.3321 4.43588L55.1674 6.27676C55.5537 6.63575 57.3531 8.36711 57.4885 8.75178V8.75135ZM38.7733 11.8935L38.9586 11.5001C38.4542 11.691 38.2361 12.2383 37.7701 12.5372L37.867 12.775C37.8685 12.7866 37.8741 12.8164 37.8726 12.8265C37.8726 12.8381 37.867 12.8679 37.864 12.878L35.647 14.9058C35.4819 15.3289 33.953 16.7311 33.5582 17.1072C32.9442 17.6899 32.0691 18.6885 31.428 19.2617C30.7186 19.8984 24.3936 25.9598 23.4075 27.3377C22.8076 28.1743 21.3515 29.4078 20.7612 30.0223C20.335 30.4666 19.3677 31.0938 19.4302 31.8304C19.4514 32.0884 19.5201 31.9147 19.4489 32.0798L19.2777 32.3161C19.2691 32.2974 19.2348 32.3661 19.2252 32.3944C20.6547 32.8377 20.9106 34.3196 21.9653 34.6301C22.2133 34.6231 22.3516 34.2954 22.5409 34.2156C22.5637 34.2055 22.595 34.1999 22.6192 34.1914C23.3998 33.9106 23.9128 33.1911 24.4899 32.6014L25.9431 31.2921C26.1354 33.0249 26.0198 35.436 26.0986 37.2127C26.2081 39.7317 26.298 43.2288 26.1258 45.6251C25.992 47.5043 26.4252 49.5447 26.1713 51.3376C26.0829 51.9647 26.1612 52.2066 26.247 52.6812C26.3167 53.0746 26.4323 53.6143 26.25 53.9097C26.6317 54.1874 26.4182 55.5057 26.3899 55.9415C26.3687 56.2747 26.4596 57.0316 26.4641 57.5713C26.4682 58.1898 26.5298 58.4816 26.5166 59.1785C26.504 59.7955 26.354 60.1161 26.3687 60.4781C26.3929 61.0694 26.558 61.3375 26.5025 62.0327L26.3187 65.142C26.3884 65.6181 26.5126 66.0539 26.551 66.5395L21.0652 67.9159C21.7276 68.4329 26.232 66.3825 26.9499 66.7662C26.6035 67 26.3541 67.1282 26.0067 67.2635C26.195 67.3802 25.9653 67.3347 26.3228 67.362L27.3972 67.2479C27.2892 67.0767 27.1978 67.1353 26.9741 67.003C29.2114 66.6395 31.6849 66.0613 34.0429 66.3961C35.2325 66.5642 36.5907 66.44 37.8475 66.5127C38.5099 66.5511 40.7957 66.8818 41.1587 66.8061C40.5886 66.5698 39.1254 66.6637 38.7422 66.2673L42.0837 66.4496C42.0651 66.4723 42.0353 66.4966 42.0227 66.5097C42.01 66.5223 41.9787 66.5526 41.9626 66.5683L41.7419 66.8318L45.76 66.9172C46.7845 67.101 46.4841 67.0055 47.4843 66.8717C48.124 66.7864 48.9006 66.8116 49.5559 66.7904C49.6256 66.9571 49.5544 67.0267 49.5559 67.0611C54.3819 66.8828 57.3871 66.4456 62.4115 66.6435C63.188 66.6748 63.8409 66.7531 64.5301 66.8232C65.1698 66.8874 65.9535 67.1838 66.2544 66.8788C65.5945 66.6097 63.7622 66.6122 62.8972 66.4769C63.0184 66.3855 62.9184 66.4072 63.1951 66.3002C63.3077 66.2572 63.3446 66.2532 63.4602 66.233C63.6722 66.1972 63.9676 66.1946 64.1868 66.1962C66.9128 66.2163 71.0364 67.4428 73.2292 67.1267C73.1565 66.8742 72.95 66.8359 72.6521 66.7662C72.1265 66.642 72.4198 66.7177 72.0851 66.8318C71.6175 66.9914 70.4153 66.8687 70.0689 66.6622C70.4734 66.4425 74.2668 66.5541 75.0559 66.5526C76.4283 66.5511 76.1859 66.7637 77.4599 66.7364C78.1566 66.7207 78.9519 66.8929 79.6371 66.7521C80.0016 66.6778 79.7466 66.7334 79.8623 66.6622C79.0332 66.1265 74.6102 66.2603 73.1753 66.1618C72.9471 65.5862 73.1854 66.6546 73.194 65.975C73.197 65.7084 73.3434 66.075 73.1753 65.8271C72.2634 65.9513 70.8558 66.129 69.951 65.9694L69.6217 66.4269C69.0391 66.387 68.9366 66.5269 68.3125 66.4239C62.3364 65.4378 62.5833 66.5264 61.6214 66.4279C59.5583 66.2159 56.7768 66.1199 54.8434 66.5163C53.2317 66.8455 51.2697 66.5789 49.557 66.6188C47.7914 66.6602 46.1176 66.8768 44.4362 66.5718C41.4967 66.0376 37.2791 65.9164 34.1886 65.9493C33.5473 65.9548 33.6998 66.0987 33.0515 66.1245C32.5986 66.1416 32.1467 66.1159 31.6863 66.133C30.6134 66.1744 30.1543 66.1689 29.2057 66.0947C29.23 65.7382 29.4052 65.7427 29.5233 65.2838C28.462 65.455 29.4763 66.2002 28.0601 66.2159C28.2494 65.7013 28.559 65.3721 28.6726 64.8435C27.7991 65.0076 28.1071 66.0104 27.5057 66.338C27.3891 66.187 27.4345 66.4036 27.383 66.0245C27.2932 65.3393 27.9389 65.0171 27.9955 64.3744C27.7203 64.3945 27.6537 64.4768 27.4567 64.5324C27.4441 63.1272 27.384 61.5232 27.226 60.1694C27.179 59.7746 27.1063 59.5524 27.0892 59.1293C27.0649 58.5295 27.2815 58.6209 27.3785 58.2831C27.43 58.1064 27.4254 56.5018 27.43 56.1958C27.4729 53.2149 27.4042 50.4566 27.2336 47.5255C27.1654 46.3455 26.8761 44.2825 27.0326 43.1954C27.1836 42.1523 26.9215 42.0154 26.9059 41.1622L26.8276 36.8977C26.6964 35.527 26.8559 33.9966 26.8604 32.5803C26.8604 32.1471 26.7706 32.0133 26.6383 31.674C26.4772 31.265 26.6908 31.2352 26.5312 30.9656C26.1207 31.0257 26.349 31.014 26.1793 31.4245C25.9753 30.8833 26.4631 30.5354 27.1043 30.6793C27.3835 30.7434 27.6542 30.8247 27.9192 30.9201C28.1288 30.9969 28.4095 31.0969 28.5675 31.0171C28.1742 30.6253 27.4916 30.6308 26.9918 30.3774L27.7754 29.313C28.1788 29.3489 29.2088 29.6594 29.431 29.5538C29.1291 29.2605 28.5277 29.2817 28.143 29.0308C28.2768 28.8611 28.4591 28.7313 28.6131 28.4764C29.1432 28.489 30.196 28.8157 30.3883 28.7172C30.1217 28.4067 29.5421 28.2885 28.9932 28.2557C29.1184 28.0447 29.9536 27.3141 30.1187 27.2055C30.5135 27.2055 30.8028 27.2898 31.1618 27.3706C31.592 27.4675 31.7359 27.5503 31.9682 27.3236L30.4989 26.9505C30.617 26.6728 30.9478 26.2169 31.1588 26.0386L32.8286 26.2366C32.6064 25.9003 32.0364 25.8417 31.5749 25.7877C31.8571 25.2631 32.1348 24.9213 32.7644 24.9884C33.0795 25.0228 33.4299 25.0854 33.6905 25.151C34.1221 25.2606 34.1878 25.3474 34.4599 25.0924L32.6145 24.6794C32.7357 24.43 32.8155 24.3073 33.0508 24.1235C33.2174 23.9937 33.2118 24.025 33.3598 23.9099C33.7445 23.6135 33.8743 23.562 34.4044 23.5893C34.5044 23.5949 34.7463 23.6221 34.8205 23.6151C35.1568 23.5822 34.9715 23.6408 35.1467 23.4484L34.1136 23.2677C34.6922 22.0938 35.5924 22.843 36.3478 22.9198C36.2564 22.6689 36.1383 22.6305 35.8091 22.5053C35.6737 22.4538 35.5455 22.4255 35.4117 22.3755C35.0739 22.2473 35.698 22.4997 35.2623 22.3114L35.1239 22.2372C35.1466 22.2215 35.181 22.2074 35.1966 22.1988C36.5932 21.4621 35.2607 21.2728 37.8954 21.6686C37.6843 21.3808 38.0777 21.6146 37.5475 21.3924C37.5349 21.3869 37.133 21.3026 37.1173 21.3L36.3776 21.0733L36.9421 20.4846C37.2784 20.8451 37.0759 20.6184 37.6404 20.6411C38.0933 20.6583 38.0039 20.7765 38.2872 20.6684C38.1902 20.4432 38.2357 20.4159 37.8525 20.3336C37.6101 20.2821 37.395 20.3054 37.1516 20.3281C38.2019 18.9643 38.5578 20.1913 39.3076 19.8338L38.3003 19.3905C38.2832 19.3834 38.2403 19.3849 38.2292 19.3521C38.2165 19.3193 38.1807 19.3263 38.1595 19.3107C38.8351 18.4559 39.4546 19.1395 40.0459 18.8916C39.9378 18.6281 40.0459 18.6806 39.6142 18.5937C39.4178 18.5553 39.1623 18.5553 38.9532 18.5326C39.7156 17.7647 40.0191 18.1964 41.0123 18.3246C40.874 18.0883 40.7432 18.0282 40.4695 17.9399C40.2201 17.8601 40.0419 17.8374 39.7899 17.799C40.2585 16.88 40.4211 17.3148 41.3789 17.3148C41.135 17.0083 41.0184 17.1239 40.6392 16.9073C41.0254 16.1636 41.3188 16.41 42.0695 16.5014C41.8459 15.8389 41.6121 16.3847 41.5268 15.8672C41.9771 15.6193 42.275 15.8399 42.7552 15.8556C42.6684 15.5592 42.6441 15.6203 42.272 15.4183L42.1321 15.33C42.6936 14.8539 42.6881 15.0008 43.4374 15.0609C43.2763 14.7918 43.2864 14.87 42.987 14.6933L43.3914 14.0748C43.6479 14.153 44.2836 14.3156 44.5356 14.1889C44.3159 13.9753 44.0281 13.945 43.7706 13.7713C44.114 13.274 44.2079 13.2881 44.9758 13.3452C44.8834 12.9246 44.5941 12.9104 45.1097 12.6585C45.8877 12.2768 45.3788 12.7509 45.658 12.1753C45.8746 11.7249 47.871 10.336 48.3865 9.88252C49.5846 8.82978 48.9277 9.47202 49.9739 8.97772C50.2405 9.39528 50.6964 9.58766 50.9156 10.0365C50.038 10.2248 48.4774 10.34 48.1158 11.165C48.6046 11.1438 48.5445 10.8444 49.2686 10.6566C51.1306 10.1733 50.8843 9.87142 52.1198 11.1039C52.3748 11.3589 52.3708 11.2776 52.4677 11.5755C51.5957 11.8804 48.5834 11.94 47.8781 12.7252C48.1133 12.8817 48.4168 12.705 48.6985 12.5954C49.468 12.295 52.3819 11.5482 52.9519 11.9415C53.1841 12.1011 53.838 12.7852 53.9567 13.0215L50.5485 13.5047C50.1395 13.5961 49.8401 13.5987 49.6422 13.8754C49.8063 13.9996 49.6124 13.9364 49.8815 13.9738C50.2077 14.0193 50.8076 13.686 51.2549 13.5835C51.7851 13.4608 52.4036 13.3725 52.9832 13.3129C54.2369 13.1846 54.4196 13.3215 55.2073 14.0768C55.4866 14.3449 55.5007 14.3131 55.6375 14.658C54.0758 14.5141 52.5767 14.7165 51.0438 14.9841C50.853 15.0185 50.5707 15.0553 50.3769 15.0982C49.9664 15.1896 50.0678 15.0614 49.9638 15.4431C50.1421 15.5113 51.4442 15.1553 51.9188 15.074C52.6116 14.9559 53.3124 14.8973 54.046 14.8604C56.873 14.7181 55.8586 15.225 56.8887 15.7254C57.2365 15.8935 57.3047 15.9334 57.4845 16.2611L52.3536 16.8594C51.7093 16.9619 51.1766 16.8407 50.9484 17.3254C51.1635 17.4481 52.8605 16.9851 53.318 16.9094C54.2172 16.7584 55.0549 16.6716 55.9283 16.616C57.4016 16.5221 57.289 16.2398 58.1954 16.8356L59.8823 18.3449C58.3903 17.9414 56.3303 18.2509 54.7741 18.4731C54.0975 18.5685 53.5784 18.4105 53.4089 19.0517C53.9173 18.8836 53.9648 18.8164 54.502 18.7437C54.8852 18.6922 55.28 18.6554 55.6562 18.6054C56.4015 18.5069 57.2452 18.4373 58.0217 18.4231C59.9283 18.3888 59.9924 18.6241 61.1865 19.6955C61.4399 19.9222 61.3188 19.751 61.4985 20.0747L56.5584 20.1686C55.9329 20.1913 55.3643 19.9576 55.2063 20.462C55.4501 20.5902 59.3001 20.2852 59.5864 20.2766C60.9198 20.2352 62.3321 20.0813 63.0274 21.4763C62.2665 21.4395 56.711 21.8641 56.3691 22.0262C56.4317 22.5447 56.6685 22.2771 57.2754 22.1943C57.6758 22.1403 58.055 22.1201 58.4821 22.0575C59.3667 21.9252 62.5729 21.5632 63.3369 21.7328C63.5904 21.7884 64.5795 22.6745 64.7547 23.0168C64.0524 22.9698 57.8127 23.1309 57.3683 23.806L57.9384 23.8373C59.4233 23.498 63.4657 22.9754 64.7021 23.2874C64.947 23.35 65.9392 24.2836 66.0573 24.5214C64.0512 24.6411 62.1175 24.5341 60.1241 24.7653C59.8161 24.8012 59.5243 24.8264 59.1835 24.8592C58.8088 24.8951 58.6992 24.8279 58.5695 25.1657C58.5897 25.1783 58.621 25.1915 58.6336 25.194L58.7704 25.2339C58.7906 25.2354 58.823 25.2369 58.8462 25.2369L59.6101 25.1071C60.8239 24.9375 62.1549 24.8148 63.3506 24.8279C64.2569 24.838 65.1845 24.7537 66.0776 24.8178C66.6987 24.8617 67.4369 25.4161 67.5823 26.0387C65.9838 25.9418 64.6669 26.0427 63.1351 26.1669C62.3843 26.228 61.6931 26.2482 60.9565 26.3209C60.5359 26.3623 59.7568 26.2967 59.3135 26.4608C58.8944 26.6163 59.1953 26.4209 59.0287 26.7329L59.5972 26.743C60.9353 26.5068 62.3516 26.4764 63.6951 26.3639C64.9478 26.2583 67.2845 25.8963 68.2276 26.7127L63.5637 27.1571C63.0649 27.1954 62.4423 27.0632 62.1504 27.4651L66.5407 27.099C68.212 26.8869 68.3063 26.7425 69.4818 27.7105C69.8438 28.0084 70.066 28.0351 69.9135 28.1836C69.7181 28.2891 67.3728 28.4628 66.9057 28.4916C66.3558 28.5274 65.7843 28.5658 65.2344 28.5542C64.3467 28.537 64.0615 28.1937 63.8963 28.7193C64.7728 29.0414 68.8833 28.5784 70.0416 28.5011C70.0759 28.6036 70.0502 28.6764 69.8891 28.7647C71.1231 28.8248 70.1486 28.1962 71.3498 29.4999C73.7538 32.1072 73.9117 30.4703 73.6426 34.6338C73.0014 34.7449 71.8087 34.597 71.0877 34.6111C70.451 34.6227 69.0983 34.4899 68.7595 34.9913L68.915 35.0383C69.5946 35.1382 68.4677 35.0554 69.0791 35.0539L69.8673 34.9373C70.2707 34.8918 70.6797 34.8787 71.0872 34.8646C71.8708 34.8388 72.7569 34.8762 73.5819 34.9459L73.5547 36.2056C72.2324 36.2783 70.7206 36.247 69.3872 36.4253C68.8217 36.501 68.4995 36.344 68.3041 36.756C68.4566 36.8428 72.5858 36.3556 73.582 36.4924L73.5961 38.3303C72.7438 38.0809 72.2995 37.9143 71.2992 37.9259C70.9215 37.9289 69.1477 37.7577 68.9483 37.9188C69.025 38.4419 69.3017 38.1895 69.9359 38.1854C71.1002 38.1753 72.5791 38.1581 73.5864 38.6186L73.5722 39.8198C72.8669 39.9026 69.4275 39.4734 69.0295 39.6956C69.1562 40.1773 69.3799 40.0389 69.9343 39.9819C71.1198 39.8607 72.3351 40.0233 73.4909 40.1227C73.6293 40.3737 73.5752 40.3878 73.5919 40.7483C73.7959 40.405 73.5959 40.402 73.8625 40.2439L73.854 42.5822C73.4808 42.5893 72.8992 42.461 72.4488 42.4226C71.4188 42.3343 70.364 42.457 69.3371 42.3711C68.9609 42.3413 68.4479 42.0606 68.1131 42.203C68.4211 43.0891 72.5771 42.3797 73.8469 42.8826L73.961 49.866C72.5048 49.5812 71.959 49.6539 70.4599 49.7221C69.6248 49.7605 68.8482 50.02 68.0176 50.1023L67.546 50.1508C67.5162 50.1578 67.4789 50.172 67.4546 50.178L67.2825 50.2522C67.4137 50.6324 67.3582 50.5259 67.9192 50.4173C68.723 50.2608 69.5106 50.0584 70.3528 49.9942C70.9728 49.9473 71.5909 49.9271 72.2366 49.8973C72.6769 49.8771 73.1783 49.8387 73.6145 50.0084L73.8296 50.1366C73.8422 50.1154 73.8765 50.1694 73.8967 50.1906C74.2885 50.796 73.7326 65.1703 74.3269 66.004C74.6748 65.7505 74.7758 62.861 74.7672 62.2722C74.7531 61.2735 74.9611 61.2008 75.0292 60.4727L74.3607 35.5028C74.3622 35.2165 74.3693 35.1564 74.5445 34.9726C74.5572 34.96 74.6046 34.96 74.6142 34.9211C74.6243 34.8812 74.6657 34.8913 74.6899 34.8711C74.1285 34.6873 74.3506 33.4079 74.2668 32.1011C75.2857 32.3945 76.8146 34.3949 77.7735 34.3652C77.8204 34.6656 77.6851 34.4419 77.8805 34.5934C78.3591 34.3596 78.3591 34.4465 78.7181 34.0506L80.5161 32.0871L80.5459 31.6054C80.4974 31.2807 80.5843 31.4999 80.3707 31.252C79.7693 30.5567 80.1642 30.7193 79.9334 30.3158C79.9178 30.2886 79.841 30.2002 79.7966 30.1548C79.6472 30.0038 79.6098 30.0023 79.4533 29.8614L78.2006 28.5037C77.6361 27.8711 76.8484 27.301 76.3152 26.6229C76.0274 26.2553 76.1769 26.275 75.7583 25.9276L71.0693 21.7344C70.2028 20.9094 69.3208 20.0561 68.4245 19.2552C66.927 17.9142 64.3847 15.1614 63.2336 14.3026L63.4618 14.2839C63.7299 14.288 63.3977 14.392 63.6642 14.2955C63.174 13.7927 62.7408 13.6659 62.097 13.1499C60.6277 11.9745 59.5508 10.3542 58.2283 9.07028C57.375 8.24121 53.62 4.08483 52.798 3.794C52.4006 3.99496 52.698 3.75411 52.493 4.13886C51.9926 3.58295 51.4458 2.89072 50.7843 2.40746C50.438 2.15501 50.4965 2.03534 50.1158 2C50.0618 2.37061 50.1017 2.29486 50.3425 2.53016C52.2092 4.34532 52.0067 4.28729 51.9113 6.24631L51.5226 6.35032C51.7775 6.78908 51.9245 6.50129 51.9856 6.99155C52.077 7.73831 51.9613 7.25966 51.7392 7.49595C51.2959 7.97057 51.8533 7.08697 51.6281 7.61259C52.0699 7.83929 52.0214 7.69388 52.1583 8.23817C52.2325 8.52597 52.2936 8.74561 52.3466 9.02735C51.9987 8.81225 51.5872 8.37601 51.158 8.26947C51.1439 8.78549 51.7478 8.96625 52.1911 9.25708L54.7561 10.8672C55.262 11.1848 55.2549 11.8548 55.3473 12.4406C54.6192 12.3921 54.1719 11.7468 53.3171 10.8491C52.9737 10.4886 52.8354 10.2079 52.4421 9.94585C52.0775 9.70198 51.8149 9.2935 51.5529 9.0567C51.054 8.95976 51.6867 9.28341 51.1242 9.07538C50.7011 8.91887 50.7981 8.8204 50.483 8.69367C50.2467 8.59825 50.1154 8.38316 49.7675 8.30893C49.6979 8.63813 50.0114 8.71791 49.6337 8.88756C49.1152 9.12133 49.7605 8.6452 49.1308 8.85625C48.4553 9.08296 47.8014 9.88223 47.2187 10.2842C45.2496 11.6434 43.554 13.4131 41.7541 15.0606C41.4062 15.3797 41.2583 15.5837 40.9336 15.9129C39.9531 16.9061 38.4232 18.2769 37.5669 19.2357C36.9256 19.9537 36.1834 20.7529 35.3928 21.3457L32.3093 24.1157C31.4358 24.9281 30.7077 25.8683 29.7747 26.5978C29.4511 26.8513 29.2431 27.1451 28.9669 27.4642C28.4039 28.1141 27.8667 28.6382 27.2254 29.1698C26.2878 29.9464 25.5385 30.7996 24.6635 31.6247C24.3414 31.9311 24.1318 32.1447 23.8269 32.4613L22.5091 33.6509C22.2642 33.8816 22.3864 33.8831 21.9688 33.9684C21.4973 33.4782 21.0585 32.9157 20.7848 32.33L20.5753 32.1048C19.6674 31.3626 20.2531 31.8897 19.5352 31.666L19.6664 31.559C19.6836 31.5464 19.7104 31.5231 19.7306 31.509L19.8558 31.4136C19.9456 31.3454 20.0012 31.301 20.0865 31.2283C20.2844 31.0601 20.3955 30.9687 20.598 30.7981C20.9413 30.5057 21.168 30.2381 21.5498 29.8706C22.4747 28.9774 23.5503 28.1907 24.4763 27.2561C24.8383 26.8915 25.0589 26.632 25.3937 26.2972C25.6916 25.9978 26.0779 25.6787 26.3909 25.4096C27.1149 24.7855 27.3512 24.3993 28.2833 23.644C28.6539 23.3435 28.97 23.0638 29.2664 22.7462L30.6797 21.3385C32.0006 19.8708 33.2689 18.3949 34.6564 17.0584L36.4377 15.0751C36.7927 14.6747 37.1032 14.4409 37.4208 14.1773C38.8143 13.0246 40.2393 11.2494 42.1215 9.6806L44.1093 7.90681C44.4426 7.63617 44.7162 7.31404 45.0667 6.98333C46.3733 5.74529 47.623 4.6037 49.0479 3.54392C49.4453 3.24753 49.6977 3.09809 49.8487 2.58913L49.3483 2.24731C48.7116 2.48361 48.3824 3.02538 47.9477 3.38287C47.6629 3.61815 47.3933 3.68935 47.1727 3.86152L45.2833 5.52868C44.075 6.80257 39.4753 10.5885 39.1078 11.375C39.7334 11.0842 39.538 10.8221 40.0954 10.6313C39.7803 10.9817 39.2264 11.6769 38.776 11.8981L38.7733 11.8935Z" fill="white"/>
<path fill-rule="evenodd" clip-rule="evenodd" d="M51.6746 55.9692C51.8725 55.7243 51.9508 55.7087 52.283 55.5704L52.2416 55.9864L51.6746 55.9692ZM39.1554 56.5776C39.2079 56.4549 39.8865 55.7572 40.043 55.6673C39.9178 56.2701 39.9673 56.0561 40.0461 56.6079L39.1554 56.5781L39.1554 56.5776ZM48.3574 56.1444C48.4785 56.0036 48.3614 56.0646 48.6209 55.898C48.678 55.8612 48.7704 55.8268 48.8375 55.7971C48.9617 55.74 49.1112 55.6804 49.2394 55.6415L49.0471 56.1146L48.3574 56.1444ZM50.1468 56.0131C50.3907 55.6728 50.8607 55.3704 51.301 55.4047C50.5785 56.1242 50.8607 55.9945 50.1468 56.0131ZM45.5203 56.2681C46.1545 56.2495 47.0305 55.3149 47.9298 55.1553C47.7733 55.4189 47.6935 55.4643 47.5577 55.6738L47.3027 56.1697C47.2956 56.1525 47.2754 56.2237 47.2557 56.2479C46.4034 56.4544 44.5983 56.5302 43.6163 56.4347C42.8812 56.362 41.6346 56.6685 40.3375 56.6099C40.5556 56.3418 41.2625 55.7779 41.5841 55.5799L41.3932 56.3393C41.9517 56.311 41.9491 56.201 42.2284 55.8874L42.3026 56.0343C42.8014 56.8548 43.0761 55.8263 44.0708 55.6238C43.6548 56.6897 43.9027 56.4746 45.58 55.6137C45.476 56.0157 45.3993 55.8021 45.5199 56.2676L45.5203 56.2681ZM40.2925 54.9261C40.4707 54.6665 40.3778 54.661 40.7383 54.6898C40.657 55.073 40.6186 55.1184 40.2925 54.9261ZM40.3909 56.1555C40.4081 55.792 40.6929 55.3007 40.9054 55.0826C41.3003 54.6736 41.678 54.8488 42.3445 54.8362C44.0486 54.8049 47.2078 54.5812 48.7149 54.7438C49.6197 54.8407 49.3062 54.7877 50.0872 54.6383C50.9678 54.4716 50.3023 54.8422 51.3485 54.6837C51.8928 54.6009 52.0867 54.8019 52.6239 54.5757C52.6481 54.564 52.6709 54.5474 52.6951 54.5358C52.7193 54.5257 52.7405 54.5075 52.7663 54.4974C53.2909 54.2722 53.8791 54.3893 54.4678 54.3863C55.5665 54.3823 56.6622 54.3166 57.7069 54.3222C60.3315 54.3338 60.5683 53.8122 61.9901 54.8523C62.3819 55.1386 62.6854 55.2558 62.8409 55.5804C62.5404 55.7672 62.3294 55.7758 61.8891 55.8086C61.8421 55.5734 62.0274 55.6844 62.0613 55.5067C62.0699 55.4653 62.1027 55.4613 62.1198 55.4355C61.2822 55.4128 62.0072 54.9912 61.0525 55.3058L60.8429 54.9038C60.2259 54.867 59.9982 55.1275 59.5432 55.1119C59.7482 54.9564 59.8452 54.8523 59.8936 54.555C59.3549 54.5277 58.6955 55.0079 58.124 55.1508C58.3234 54.9155 58.2866 55.0498 58.4618 54.8584C58.738 54.555 58.5744 54.6221 58.483 54.4939L57.1848 55.1265C57.0112 54.8231 57.3257 55.1467 57.1848 54.7731C56.4598 54.662 56.022 54.9968 55.4081 55.1735L55.3424 55.0038C55.3222 54.9397 55.3894 55.0695 55.3041 54.8357C54.5886 55.1119 54.475 55.333 54.4195 55.7233C55.0405 55.7107 56.121 55.1674 56.735 54.8867C56.6168 55.3058 56.3932 55.0891 56.2634 55.5648C56.7537 55.7602 57.0203 55.5234 57.3722 55.281C58.4082 55.9334 58.1886 55.181 59.1262 55.0856C58.9651 55.2724 58.9793 55.2194 59.005 55.536C59.4907 55.6274 59.8659 55.3537 60.3344 55.2341C60.1335 55.6547 60.2203 55.9591 60.1436 55.7385C60.138 55.7243 60.1249 55.79 60.1123 55.8142C58.8924 55.9142 57.5518 55.9268 56.3492 56.0096C53.7701 56.1894 55.3045 56.2818 52.9395 55.9526C53.6903 55.5193 54.1422 55.3926 54.3301 55.0038L52.7255 55.6552C52.986 55.2149 53.2455 55.1962 53.394 54.8615C52.9577 54.7034 52.2741 55.2901 51.8565 55.5012L51.5429 55.1094C50.7992 55.1548 50.2104 55.638 49.5535 55.9172C49.6848 55.5481 49.7247 55.7218 49.609 55.3214C48.9723 55.2714 48.5063 55.7501 47.8323 55.9243C48.0575 55.28 48.2498 55.5764 48.3539 54.921C47.2925 54.8938 46.5842 55.5921 45.9984 55.7491L46.3872 55.1836C45.5606 55.0124 45.0209 55.7536 44.3524 55.8905C44.4948 55.5714 44.5261 55.6951 44.5034 55.2992C43.8637 55.2422 43.3492 55.7112 42.8392 55.9203C43.0285 55.5072 42.9417 55.789 43.1199 55.5143C43.2441 55.3235 43.2497 55.3931 43.2366 55.1109C42.7423 55.1508 42.202 55.6395 41.8547 55.8561C41.9087 55.7037 41.9885 55.5784 42.0268 55.4699C42.1965 55.0013 42.0511 55.0296 42.0511 55.0296C41.7204 54.9584 40.6049 55.94 40.3909 56.1566L40.3909 56.1555ZM39.4649 53.9243C39.3311 54.4716 39.1584 54.3348 39.0928 54.9003L39.5144 54.9528L38.7989 56.1014C38.5525 55.6071 38.548 55.9262 38.5939 55.1638C38.6323 54.5211 38.5056 55.0184 38.4485 54.4171L39.4644 53.9243L39.4649 53.9243ZM63.2366 53.1507L63.2624 53.6254L62.6969 53.6809L63.2371 53.1507L63.2366 53.1507ZM38.4464 53.386C38.4706 53.3674 38.5049 53.3477 38.5231 53.3376L38.9664 53.2108L38.4494 53.8162L38.4464 53.386ZM62.4934 52.6908C62.6731 52.3959 62.8822 52.2318 63.1972 52.0596L63.2028 52.7362L62.4934 52.6908ZM49.9671 51.6734C50.4114 51.5421 50.725 51.2871 51.2051 51.1048C50.7618 51.6804 50.2175 51.8259 50.1039 52.2364C50.4604 52.406 50.3973 52.1606 50.6926 52.3434C50.3579 52.5186 50.3134 52.5272 50.2226 52.9988L50.8749 52.9064C50.731 53.1543 50.5386 53.4577 50.4306 53.7001L50.8396 53.8824C50.8497 53.8612 50.888 53.901 50.8668 53.9026L50.7598 54.2959L49.9307 54.256L49.9676 51.6738L49.9671 51.6734ZM39.2261 51.3629C39.4013 50.9983 39.6391 50.7075 39.987 50.5192C39.9743 51.2104 40.1167 50.8499 39.6522 51.115C39.4316 51.2417 39.4401 51.2801 39.2261 51.3629V51.3629ZM51.7291 50.1632L51.7705 50.6959L51.1863 50.7358L51.7291 50.1632ZM39.3442 50.0991C39.4825 49.8981 39.5765 49.8098 39.7204 49.6149L40.1723 49.1705C40.1596 49.8517 39.8774 49.8188 39.3442 50.0996L39.3442 50.0991ZM49.7888 49.8385C50.219 49.7143 50.3871 49.575 50.8103 49.418C50.5381 49.8825 49.9383 49.9168 49.9509 50.5434C50.5977 50.4535 50.7133 50.2556 51.2631 50.1304C51.0394 50.5409 50.3699 51.1377 49.9195 51.2801L49.7882 49.8381L49.7888 49.8385ZM62.2152 51.5809C62.496 51.0407 63.0302 51.078 63.0357 50.357C62.7025 50.1475 62.8004 50.2788 62.4218 50.146C62.6298 49.683 62.8181 49.9793 63.0387 49.4133C62.7722 49.177 62.8519 49.3108 62.45 49.1654L62.3132 49.0912L63.1938 48.5212C63.1882 48.967 63.2862 49.6582 63.2508 50.0359C63.218 50.3808 63.1256 50.298 63.1195 50.7655C63.1165 51.0079 63.1579 51.2972 63.165 51.5335L62.2147 51.5804L62.2152 51.5809ZM52.4407 47.9061C53.0233 47.6653 53.3197 47.3103 54.2275 47.1796L58.743 46.9216C59.4125 46.9443 60.275 47.1609 60.9327 47.1069C60.9671 47.3603 61.0125 47.7693 61.0297 48.0046C61.0696 48.5989 60.9842 48.1187 60.8616 48.6973C60.7732 49.1164 61.057 52.1843 61.1221 52.8836C61.165 53.334 61.0908 53.3395 61.366 53.539C61.8047 53.1002 61.3846 49.6046 61.5068 48.0405C61.9198 48.5762 62.0955 48.2298 62.6166 48.4737C62.0269 49.1791 61.6593 48.76 61.5977 49.3886C61.9723 49.5769 62.0466 49.4598 62.5212 49.5169C62.1965 49.8915 61.8057 49.9157 61.6931 50.3702L62.6191 50.557C62.6974 50.9372 60.4732 52.1701 62.76 51.8294C62.5318 52.458 61.8764 52.3908 61.8168 52.972L62.7444 53.073C62.5818 53.4052 62.3399 53.5516 62.0905 53.8041C62.2743 54.2327 62.1773 53.8712 62.505 54.2014C62.0521 54.5008 62.2384 54.3665 61.888 54.0161C61.8623 54.0232 61.831 54.0434 61.8168 54.0505L61.6229 54.1302C61.4235 54.1817 60.8292 53.9722 60.5 53.8308C59.4841 53.3946 58.283 53.8192 57.2882 53.9192C55.5771 54.0929 53.2969 53.8551 51.7498 54.1146C51.7311 54.0974 51.7084 54.0691 51.6983 54.056L51.4989 53.8338C51.4863 53.8212 51.4575 53.7924 51.4474 53.7813C51.3378 53.6657 51.3504 53.7485 51.5075 53.2769L51.1429 53.0775C51.408 52.6715 51.2782 52.6427 51.0263 52.3449C51.1475 52.2424 51.2787 52.1595 51.3509 51.9404C51.5049 51.4719 51.1914 51.7354 51.3721 51.4345C51.3777 51.4244 51.4888 51.3022 51.5105 51.278C51.6801 51.0982 51.666 51.0927 51.8412 50.973C51.8912 51.7753 51.7841 53.693 52.1719 53.743C52.7687 53.8187 52.6592 52.5645 52.6576 52.4464C52.6435 50.8363 52.4456 49.5411 52.4395 47.9068L52.4407 47.9061ZM51.2466 48.1596C50.8931 48.7266 50.2251 49.0871 49.7803 49.4819L49.7717 48.872L51.2466 48.1596ZM39.9047 47.6496C39.9164 47.6057 39.9532 47.6067 39.9759 47.587L40.1441 48.3636L38.9202 48.864L39.9047 47.6502L39.9047 47.6496ZM40.7055 54.3594C40.8439 53.6798 40.4505 49.1488 40.596 47.4471C41.3584 47.4017 40.7626 47.5385 40.6571 47.9757C40.6641 47.9757 45.6729 47.5895 46.9437 47.6097C47.8142 47.6223 47.9894 47.4587 48.826 47.4087C48.8901 47.5355 48.829 47.4345 48.8618 47.5996C49.0143 48.359 49.1153 47.5471 49.0941 48.8891C49.0643 50.7755 49.4859 52.4569 49.5132 54.2467C47.9374 54.4234 45.9925 54.3977 44.3293 54.4477C43.8961 54.4618 43.4801 54.529 43.1398 54.5017C41.7431 54.3891 42.2036 54.6613 41.621 54.6542L40.2799 54.4219C39.931 54.3937 40.1148 54.3649 39.666 54.3452C39.8543 53.8706 40.0623 53.9135 39.8942 53.4374C39.4695 53.4187 39.1732 53.7236 38.8425 53.8589C39.0888 53.4914 39.565 53.088 39.6549 52.5255C39.1419 52.5856 39.4398 52.5967 38.9949 52.7891L39.7917 51.6662C39.8245 51.6263 39.8942 51.545 39.9427 51.4895L40.0522 51.3698C40.0951 51.7288 40.1562 51.8914 40.0765 52.2645C39.974 52.7406 39.9684 53.7793 40.3941 54.1953C40.5652 54.362 40.4299 54.2852 40.7061 54.3594L40.7055 54.3594ZM62.1519 48.1101C62.3458 47.7526 62.8729 47.4673 63.2304 47.2749L63.1819 48.1454L62.1519 48.1096V48.1101ZM49.6826 48.5473C49.677 48.2025 49.6442 48.4261 49.8295 48.107C49.8421 48.0868 49.8593 48.0616 49.8724 48.0414C50.0022 47.8208 49.8866 47.8208 50.2087 47.6612C50.3895 47.5713 50.9923 47.3608 51.1847 47.3436C50.9964 47.5946 50.0077 48.4024 49.6831 48.5478L49.6826 48.5473ZM50.3607 46.822C50.1244 47.0926 49.8522 47.4334 49.4816 47.6187C49.3564 47.3138 49.3918 47.5829 49.3973 47.2552L50.3607 46.822ZM39.1168 47.4188C39.2724 47.1653 39.8167 46.6493 40.1383 46.4812C40.1196 47.084 39.9045 47.2875 39.1168 47.4188ZM62.1595 46.6195C62.3292 46.36 62.0515 46.5781 62.724 46.1707C62.8851 46.0722 63.0174 45.9924 63.2128 45.9L63.2158 46.6508L62.16 46.6195L62.1595 46.6195ZM51.1378 47.8364C51.2605 47.6894 51.4342 47.5142 51.6381 47.3193L53.5331 46.2934C53.4018 46.7352 53.3619 46.5029 53.5543 46.8604L52.0935 47.2325C52.0834 47.5688 52.035 47.7253 51.9567 47.9691C51.6517 48.9179 51.632 47.5304 51.6845 49.7429L50.6459 50.0206C50.8641 49.8086 50.9721 49.7445 51.1715 49.5632C51.4179 49.338 51.4836 49.3239 51.5321 48.9947C51.0559 48.9305 51.1443 49.0103 50.7298 49.1073C51.0862 48.6544 51.9668 48.3135 51.8143 47.6738L51.1378 47.8364ZM50.3314 47.3562C50.5596 47.0568 51.6381 45.951 51.9214 45.9041C51.7205 46.0324 51.6462 46.0692 51.5352 46.4312L51.8926 46.5322C51.368 47.1235 51.2403 46.9553 50.3309 47.3557L50.3314 47.3562ZM61.5042 45.8602C61.6294 45.6239 61.5809 45.6264 62.2237 45.5466C62.5514 45.5067 62.7407 45.4966 63.0714 45.4966C62.8594 45.8016 62.6099 45.941 62.2737 46.1394C61.8818 46.3717 61.7223 46.3262 61.6637 46.8533L62.9759 46.8988C62.8406 47.2507 63.0572 46.9871 62.6851 47.2876L61.548 48.0086L61.5041 45.8597L61.5042 45.8602ZM40.664 45.1008C41.0457 45.1477 41.0543 45.2659 41.3623 45.1891C41.636 45.122 41.5234 44.9296 41.898 45.1291C41.5118 45.4769 41.59 45.1917 41.2684 45.7178C41.0831 46.0172 40.9947 46.1182 40.6458 46.2989L40.6645 45.1008L40.664 45.1008ZM40.0314 44.5933L40.0157 45.1048L39.275 45.3159L40.0319 44.5933H40.0314ZM47.3879 46.4585C47.8883 46.0455 49.095 45.0523 49.7731 44.8312C49.6464 45.1548 49.863 44.8837 49.5449 45.1205L48.633 45.7759C48.4376 45.9112 47.5929 46.3914 47.3879 46.4585L47.3879 46.4585ZM51.1228 45.9799C51.4863 45.5694 51.9135 45.3174 52.4421 44.9827C53.1021 44.5666 52.5578 44.2092 54.1063 44.4455C53.4509 44.7787 51.811 45.9017 51.1228 45.9799ZM38.4985 44.7105C38.7025 44.6166 39.5558 44.3071 39.7638 44.2662C39.4775 44.7948 38.9332 45.117 38.8661 45.7026L39.7426 45.536C39.375 46.0364 39.1867 45.8097 39.1059 46.3838C39.4407 46.5105 39.4634 46.3868 39.7941 46.3166C39.5745 46.5615 39.4366 46.6827 39.1574 46.9609C38.8555 47.2603 38.6656 47.3456 38.6272 47.7117C38.9408 47.8728 38.9595 47.7703 39.368 47.7016C39.1145 48.3373 38.6555 48.4509 38.5899 49.0951C39.1811 49.1294 39.4477 48.8901 39.9905 48.7472C39.6457 49.7192 38.6227 50.061 38.6413 50.6093C39.0872 50.6452 39.4522 50.3013 39.8541 50.1463C39.3654 50.9188 38.5701 51.2152 38.7686 51.7377C39.0438 51.8049 39.119 51.6893 39.4497 51.5953C39.1604 52.1396 38.7772 52.6324 38.3652 53.0844C38.2298 51.5187 38.3253 46.3887 38.499 44.7104L38.4985 44.7105ZM61.5554 44.139L62.5501 44.1319C62.285 44.7605 61.9089 44.8201 61.4802 45.1907L61.5559 44.139H61.5554ZM43.9196 46.9018C44.9496 46.4843 43.5222 46.5454 46.1437 45.266C46.6552 45.0165 46.2977 44.8696 46.8874 44.9782C46.4128 45.3887 45.3273 46.0683 45.2661 46.6893C45.8902 46.6166 45.6423 46.5868 45.9074 46.1778C46.0084 46.0223 47.3025 44.9665 48.0431 44.9837C47.9078 45.2518 48.0401 45.1079 47.7709 45.3386C47.7669 45.3427 47.5488 45.4825 47.5215 45.5027C47.0999 45.7991 46.3047 46.3717 46.1734 46.8109C46.8802 46.7155 46.6606 46.251 47.3604 46.0728C47.111 46.3419 46.7404 46.5201 46.8247 46.8125C46.9843 47.0164 47.2892 46.8837 47.6684 46.4949C47.6841 46.5161 47.6967 46.5489 47.7053 46.562L47.989 46.8382C48.2314 46.7529 48.4222 46.6787 48.5606 46.5292C48.8226 46.2485 48.6005 46.4838 48.6787 46.3182C49.018 45.6027 50.8629 44.966 51.2835 44.2935C50.8705 44.0597 50.4444 44.5384 50.0924 44.6823C49.9586 44.4702 49.897 44.4429 49.8531 44.0839L50.3363 43.7148C51.1442 42.8868 50.7579 43.0923 51.8056 42.5808L51.9409 44.0269L52.4766 44.0784C52.2802 44.3319 50.8836 45.2125 50.5145 45.4603C49.2547 46.3066 48.9401 46.3863 49.0341 47.0094L40.6702 46.9993C40.8 46.4636 42.0426 45.1856 43.061 45.07C43.4245 45.0286 43.9103 45.0457 44.2622 45.1028C44.1223 45.3436 44.2849 45.123 44.0572 45.3749L43.5886 45.8511C43.0726 46.4524 43.0883 46.3343 43.1999 46.4539C43.4619 46.7347 43.5346 46.1278 44.3243 45.539C44.7848 45.1957 44.602 45.3452 45.1367 45.2113C45.7749 45.0518 44.8731 45.2043 45.4417 45.0589C45.9375 44.9321 45.7396 45.0791 45.7981 45.1129C45.2836 45.3578 43.6452 46.25 43.9213 46.9023L43.9196 46.9018ZM39.1235 43.4977L38.5009 44.2556L38.4938 43.6643L39.1235 43.4977ZM61.4992 42.9761C61.9294 42.908 62.1687 42.8509 62.5933 42.9504C62.4111 43.2311 61.8511 43.6315 61.4689 43.7552L61.4987 42.9757L61.4992 42.9761ZM38.516 43.1059C38.5245 42.6313 38.4887 42.8322 38.8795 42.6697L38.516 43.1059ZM62.3226 41.5559L61.439 42.3137L61.4304 41.6866L62.3226 41.5553V41.5559ZM38.8003 41.8139C38.8331 41.4079 38.9028 41.4377 39.2906 41.3579C39.1154 41.6816 39.1851 41.6856 38.8003 41.8139ZM50.7269 40.8591C50.5189 41.2509 50.2609 41.4877 50.2099 42.0204L50.8112 41.8881C50.6133 42.1118 50.3881 42.2446 50.3381 42.5808C50.8395 42.6349 50.7996 42.2814 51.7356 41.6134C51.7099 41.874 49.9801 43.4114 49.8902 43.4614C49.9044 42.9585 49.9912 42.8232 49.9286 42.2572C49.8857 41.8568 49.8003 41.4993 49.7988 41.1686L50.7264 40.8596L50.7269 40.8591ZM63.0124 44.0834C62.5752 43.6017 62.4651 43.9935 61.995 43.7815C62.3626 43.5649 62.9781 43.2341 63.0023 42.7656C62.505 42.4934 62.045 42.6717 61.4875 42.7131C61.7198 42.4253 61.9334 42.3157 62.2 42.0961C62.5277 41.8254 62.7286 41.7997 62.8114 41.3564C62.3711 41.2155 62.0975 41.3266 61.6133 41.3978L61.736 41.2524C62.2333 40.7439 62.3404 41.0484 62.4827 40.5086L61.6764 40.5071C62.0854 40.2592 62.6095 39.8361 63.027 39.6851C63.0583 40.6298 63.1552 41.633 63.2279 42.5349C63.3022 43.4311 63.1709 44.1466 63.1694 45.1553L61.8742 45.3148C62.1136 44.9856 62.8573 44.6039 63.0128 44.0839L63.0124 44.0834ZM39.1903 40.3375C39.0777 40.695 38.9651 40.6824 38.642 40.9247L38.6435 40.4789L39.1908 40.338L39.1903 40.3375ZM50.5069 39.7675C50.3943 39.9301 50.4857 39.8372 50.2958 40.0154L49.7798 40.386L49.7515 39.8887L50.5069 39.7675ZM51.4587 40.0437C51.3178 39.5948 51.2405 39.8629 51.2022 39.72C51.1936 39.6902 51.1552 39.7084 51.134 39.6998L51.6026 39.3933L51.7192 40.7187L51.1067 41.0606C51.3233 40.6814 51.4087 40.8081 51.5258 40.4239C51.2365 40.2441 51.339 40.3698 50.9542 40.3809L51.4586 40.0432L51.4587 40.0437ZM61.4144 40.2729C61.4473 39.7887 61.4028 39.8538 61.8264 39.7256C62.0461 39.6584 62.2213 39.6357 62.4864 39.6256C62.3223 39.7639 62.2799 39.818 62.0501 39.9649C61.9774 40.0118 61.8805 40.076 61.7896 40.1214C61.4362 40.3011 61.8037 40.1315 61.415 40.2724L61.4144 40.2729ZM38.6574 39.3797C38.9124 39.1676 39.0664 39.1888 39.4153 39.1404C39.283 39.4251 39.0432 39.7291 38.7841 39.7261C38.6387 39.5251 38.6362 40.0255 38.6574 39.3797L38.6574 39.3797ZM49.6887 39.4751C49.6958 39.1005 49.6771 39.1075 50.132 39.103L49.6887 39.4751ZM38.9093 41.165C39.1345 40.8444 39.542 40.5495 39.6132 40.0749L39.0149 40.0068C39.2996 39.6932 39.7328 39.367 39.8 38.9767C39.4294 38.7415 39.8283 39.005 39.2441 38.8227C39.2229 38.8172 39.1744 38.8243 39.1587 38.7869C39.1431 38.75 39.0987 38.7657 39.0734 38.747C39.5097 38.6102 39.6692 38.4521 39.9555 38.1244L40.061 37.9992C40.0752 38.5435 39.9727 39.0237 40.011 39.5892C40.0752 40.5753 40.2948 43.3922 40.2175 44.0507C39.8555 43.7144 39.4794 44.0734 38.9977 44.2072C39.2128 43.7255 39.6844 43.569 39.7288 42.9161C39.2855 42.959 39.2501 43.0075 38.9396 43.1923C39.1436 42.6738 39.6177 42.749 39.5808 42.0992L38.823 42.3587C39.4587 41.4953 39.6652 41.6947 39.7278 41.059C39.2663 40.9848 39.3016 41.0151 38.9098 41.1646L38.9093 41.165ZM51.5821 39.1091C50.8086 39.2646 50.7015 39.6448 50.0063 39.666C50.3466 39.1717 50.6905 39.2201 50.951 38.6471C50.8369 38.5587 50.8884 38.5885 50.7203 38.5087C50.696 38.4971 50.5577 38.4648 50.5249 38.4547C51.619 37.617 50.7814 37.6822 51.5837 37.8407L51.5821 39.1091ZM49.9907 38.4239C49.8624 38.5835 50.0275 38.4168 49.8352 38.6077C49.7211 38.7203 49.7281 38.692 49.6413 38.7587C49.7211 38.3411 49.5004 38.5294 49.9902 38.4239L49.9907 38.4239ZM61.4537 38.9283C61.0165 38.3628 61.0261 38.4668 61.1301 37.6473C61.3437 37.7286 61.3482 37.7327 61.6229 37.7771C61.3921 38.2133 61.3992 37.9922 61.3336 38.438L61.6496 38.696C61.6597 38.6758 61.6926 38.7319 61.7138 38.7501C61.5113 38.8485 61.6496 38.6561 61.4532 38.9283L61.4537 38.9283ZM50.794 37.7286C50.6314 37.8311 50.3421 37.9569 50.0856 38.0366C49.6241 38.1836 49.5883 38.279 49.5984 37.7286H50.794ZM46.5265 37.8927C46.578 37.7044 46.579 37.9568 46.4608 37.7973C46.2897 37.5635 46.3114 37.9513 46.4224 37.7418L49.0929 37.7473C49.1086 38.3855 49.1868 38.9157 49.1782 39.5882C49.1752 39.8502 49.1343 40.3047 49.157 40.5299C49.2328 41.2867 49.2696 40.4375 49.3337 41.1666C49.3837 41.7149 49.2181 41.3832 49.3464 41.8805C49.4691 42.3607 49.4049 42.1425 49.365 42.6343C49.2696 43.8153 49.8523 44.246 48.8334 44.2758C48.6395 44.2813 48.4032 44.2641 48.1992 44.2672L44.8552 44.4454C44.0771 44.4338 43.3819 44.4015 42.6335 44.4439C42.2574 44.4651 41.8812 44.4611 41.5035 44.4641C40.4094 44.4696 41.2142 44.7034 40.6215 44.658L40.4064 38.4385L40.881 38.2961C41.7772 37.9356 42.1705 37.9684 43.1808 37.9356C44.281 37.8987 45.4135 37.923 46.5264 37.8927L46.5265 37.8927ZM40.4307 37.9755C40.1585 37.8261 39.7541 37.4782 39.5446 37.1248C39.9662 37.3297 40.3726 37.4353 40.4307 37.9755ZM60.7215 37.4625C60.8396 37.0465 60.8497 36.5062 61.3415 36.5264C61.1522 37.0379 61.0881 36.74 61.2774 37.3201C61.0537 37.4115 61.0537 37.3843 60.8003 37.4368C60.7902 37.9452 60.7361 38.2477 60.8058 38.7975C60.8972 39.524 60.769 39.4645 60.7902 40.0269C60.8341 41.2079 61.1865 41.3775 61.1648 42.6201C61.1532 42.5974 61.1406 42.5661 61.1365 42.5504C61.131 42.5332 61.1153 42.4979 61.1093 42.4747L61.0608 41.8779C60.7674 42.0117 60.83 41.8279 60.83 42.4035L60.9856 44.4751C61.2138 45.8787 61.4258 46.1978 60.9144 46.8804C60.2762 46.5613 60.0621 46.4816 59.3042 46.4331C59.4284 45.6737 59.4123 46.3533 59.9979 46.0625L60.7291 45.5465C60.4044 45.3329 60.5978 45.4783 60.2575 45.4707L59.5577 45.3995C59.3769 45.4495 58.3752 46.1276 57.7409 46.273L59.136 45.19C59.3754 44.989 59.1532 45.1885 59.3057 45.0234L58.7669 44.9537C58.5645 44.9239 58.6912 44.5972 57.698 45.2228C57.433 45.3894 56.4953 45.9166 56.3914 46.173C56.715 46.5078 57.1139 46.217 57.48 46.0049C57.125 46.5962 57.0796 46.3841 56.3828 46.5351C55.8042 46.6603 55.7219 46.7062 54.9493 46.7148L56.293 45.7302L55.425 46.0736C55.8693 45.5793 57.0039 45.0062 57.2447 44.7402C56.7989 44.5064 56.2571 45.1193 55.9224 45.3258C55.5877 45.5339 54.8495 45.96 54.4849 46.0741C55.2317 45.2607 56.139 45.2764 56.3658 44.5766C56.0381 44.6392 53.0858 46.3377 52.5441 46.6613C52.3876 46.7553 52.2977 46.8083 52.0584 46.6911C52.3932 46.5356 53.201 45.9302 53.5459 45.6682L54.9723 44.6069C54.5663 44.3034 54.7986 44.6695 54.3825 44.4044L58.9025 44.2691C58.8172 44.3292 58.8197 44.3317 58.6546 44.3943C58.3582 44.5084 58.2199 44.4498 57.972 44.6063C58.2426 44.8442 60.5809 44.5806 60.8177 44.0833C60.3688 43.7258 57.7412 43.7596 56.8738 43.7712C55.7938 43.7854 53.8559 44.059 52.981 43.9181L52.8098 43.1613C52.5619 43.2411 52.5392 43.3092 52.3736 43.4693C52.3766 42.3206 51.9888 38.2828 52.11 37.7613C53.606 37.7254 53.6531 37.5431 54.2589 37.5431L58.7228 37.4407C59.3883 37.4008 60.0007 37.5376 60.7218 37.4619L60.7215 37.4625ZM61.592 36.8571C61.6763 36.6133 62.2458 35.408 62.6462 35.1728L63.0123 39.258C62.4079 39.3579 61.7187 39.6069 61.4365 39.4847C61.5662 38.8394 62.2645 39.0373 62.3867 38.3047L61.7526 38.2305C62.0873 37.6534 62.4337 37.8513 62.6291 37.2333L61.6102 37.4655C61.8167 36.9955 62.1247 36.998 62.4382 36.6617C62.3943 36.6334 62.5493 36.4052 61.9611 36.6148C61.853 36.6531 61.7046 36.79 61.592 36.8571L61.592 36.8571ZM62.987 35.9311C63.1294 35.5434 63.2319 35.3101 63.1027 34.8143C62.4771 34.736 63.1395 34.7799 62.6821 34.9097C62.6508 34.9183 62.3498 34.9794 62.2458 35.0122C61.9494 35.1046 61.7328 35.2899 61.5521 35.4893C59.9536 37.256 61.4824 36.739 59.378 36.8047C58.251 36.839 56.7433 36.7148 55.6375 36.8759C55.2472 36.9329 54.8327 36.9501 54.3793 37.0026L50.8101 37.2035C46.2734 37.3247 45.3015 37.2237 40.6351 37.7221C40.3443 37.2364 40.0322 37.0839 39.5652 36.7259C39.1906 36.4396 39.3642 36.5164 38.9694 36.3937L38.4211 36.1841C38.36 36.8935 39.5213 37.2142 39.8358 37.9367C39.2344 37.9165 38.9694 37.8297 38.7755 38.2301L39.3238 38.3341C39.1188 38.5224 38.8961 38.689 38.6129 38.7244C38.5558 38.3725 38.6215 38.3083 38.4806 38.022C37.8752 36.788 38.4463 36.7355 38.1171 36.01C37.9106 36.1171 37.7424 36.1024 37.7041 37.0431C37.6869 37.4793 37.7338 37.9337 37.7041 38.3709C37.5874 40.0508 37.4132 39.7973 37.8338 40.8803C37.9762 41.2479 38.059 42.6929 37.8454 43.2358C37.6117 43.8255 37.8767 45.2065 37.8853 46.1738C37.9025 48.1429 37.7187 47.7824 37.7429 48.9963C37.7631 49.9622 37.7858 50.8856 37.8 51.8147C37.8485 54.8412 38.1706 54.9992 38.2287 55.796C38.26 56.2322 38.2726 56.6882 38.2897 57.131C38.8027 57.1451 38.5634 56.9426 39.0007 56.9416C39.7787 56.9386 38.774 57.242 39.6591 57.0769C40.1034 56.9941 39.8131 56.9386 40.3276 57.0567C40.6436 57.131 40.6598 57.0451 41.0642 57.0739C42.6032 57.1835 42.8551 57.0951 44.3259 56.9341C45.3802 56.8199 46.5844 56.5306 47.7099 56.7134C48.3097 56.8104 48.951 56.7962 49.5624 56.7376C51.2624 56.5725 50.3758 56.7079 51.0398 56.8073C51.5412 56.8831 53.7143 56.568 54.5747 56.5821C56.0683 56.6079 56.6135 56.6261 58.043 56.4468C60.6675 56.1191 61.8929 56.5907 63.6071 55.6289C63.9732 55.4239 63.8994 55.5577 63.9848 55.1613C63.5859 55.0543 63.4521 55.177 63.1441 55.3779L62.98 55.2224C62.9644 55.2083 62.9416 55.1866 62.926 55.1724L62.4175 54.6397L62.8139 54.2994C63.0118 54.1626 63.079 54.1172 63.2486 54.0157L63.3244 54.1626C63.6364 54.9689 63.2633 54.7382 63.6677 54.9275C63.8984 54.5085 63.6732 53.3134 63.6591 52.7574C63.5849 49.9602 63.7273 51.8269 63.7914 50.6742C63.8671 49.272 63.5733 47.4211 63.653 45.9563C63.7298 44.5355 63.542 41.0334 63.5788 39.0657C63.593 38.2766 63.7586 37.2193 63.5662 37.0082C63.1628 37.5641 63.3213 38.9688 63.3183 39.8055C63.1486 38.8083 63.2284 37.0012 63.2981 35.9298C63.2754 35.9197 63.238 35.9172 63.2254 35.9157C63.2153 35.9142 63.1714 35.9056 63.1597 35.9041C62.8023 35.8728 63.0456 36.1278 63.0032 35.9167C63.0017 35.9111 62.9931 35.9308 62.9876 35.9293L62.987 35.9311Z" fill="white"/>
<path fill-rule="evenodd" clip-rule="evenodd" d="M40.8598 36.4434C41.182 36.1783 41.5152 36.0273 42.0408 35.9289C41.7217 36.2535 41.4253 36.3691 40.8598 36.4434ZM58.4634 36.0071C58.5886 35.739 58.5447 35.8248 58.8724 35.7193C58.6603 36.1323 58.8653 35.9884 58.4634 36.0071ZM50.7331 36.5413C51.0038 36.1495 51.9202 35.8486 52.5014 35.7365C52.3661 35.9703 52.1338 36.2838 51.893 36.3878C51.5794 36.5216 51.0962 36.6029 50.7332 36.5418L50.7331 36.5413ZM41.8017 36.661C42.0567 36.3459 42.3319 36.2394 42.7878 36.0556C43.3776 35.8193 43.4901 35.7607 43.7042 35.4103L44.039 35.6027C43.5871 36.1556 42.708 36.4661 41.8017 36.6615L41.8017 36.661ZM49.6728 36.3232C50.15 35.6976 51.2533 35.484 52.0141 35.3659C51.6591 35.6991 50.0949 36.2278 49.6728 36.3232ZM44.6146 36.4969C44.9196 36.0182 45.4881 35.9723 46.2121 35.3184L47.0457 35.3942C46.5085 35.9556 45.6067 36.3843 44.615 36.4969L44.6146 36.4969ZM52.5655 36.4883C52.9104 36.1732 53.077 36.2374 53.489 35.9965C54.6175 35.3326 53.1643 35.4123 55.3269 35.2513C55.2017 35.5078 54.4534 35.9607 54.2014 36.0819C53.7627 36.2929 53.1411 36.5034 52.5656 36.4878L52.5655 36.4883ZM54.73 36.2944C55.0749 35.9142 55.0294 35.9854 55.495 35.7001C55.908 35.4467 56.0393 35.1785 56.5094 35.2386C56.3867 35.3755 56.3069 35.4123 56.1746 35.5421C56.0105 35.7032 55.7313 36.3727 54.7295 36.2944H54.73ZM48.1041 36.1389C48.6812 35.7072 49.2653 35.7183 49.7657 35.1387L50.6906 35.1301C50.37 35.6461 48.6074 36.2242 48.2883 36.2086C48.1216 36.2 48.1545 36.1657 48.1045 36.1389L48.1041 36.1389ZM46.3101 36.4393C46.5767 36.0091 47.9859 35.1084 49.0285 35.2139C48.8104 35.3366 48.6422 35.378 48.3888 35.4961C47.8016 35.7683 47.5779 36.2298 46.3101 36.4393H46.3101ZM56.2473 36.1389C56.4427 35.991 56.5719 35.9364 56.7618 35.8228C57.3005 35.4982 57.1097 35.2442 58.7764 35.0761C58.6426 35.2785 58.7521 35.1417 58.5598 35.3199C58.0655 35.7829 57.2177 36.3131 56.4623 36.2192C56.273 36.195 56.327 36.1833 56.2472 36.1394L56.2473 36.1389ZM60.2982 34.8862C60.6047 34.7221 61.1146 34.7822 61.4721 34.7923C62.032 34.808 62.236 34.9776 62.387 34.4661C62.2072 34.3253 62.286 34.3434 61.6847 34.3379L59.3808 34.3394C58.4002 34.3535 57.1551 34.3652 56.1933 34.4293C55.1845 34.4974 54.1186 34.6817 53.1952 34.7398C52.2303 34.7999 50.957 34.7868 49.9733 34.7797C49.0912 34.7726 38.4885 34.9907 37.9175 35.8253C38.0927 35.9395 37.9059 35.8854 38.1669 35.9107C38.3552 35.9294 38.227 35.9248 38.4204 35.8834C39.7468 35.6012 38.7667 35.9203 39.6887 35.7895C40.8884 35.6199 39.9609 35.6527 41.6093 35.6098C40.9782 36.0813 40.2158 36.0586 40.3011 36.7211C40.5177 36.7751 40.7601 36.7438 40.9439 36.7978C41.5265 36.966 40.9767 37.2795 42.5783 36.6711C43.4645 36.3348 42.7339 36.8337 43.5629 36.7125C43.9992 36.6484 43.6841 36.5444 44.0572 36.6342C44.2339 36.6771 44.1814 36.7695 44.5374 36.7726C44.7823 36.7756 45.3579 36.5348 45.5846 36.4504C45.7441 36.4464 45.6856 36.5802 45.9724 36.6812C46.1819 36.7554 46.2187 36.7211 46.4253 36.6686C46.7045 36.5989 47.0094 36.4333 47.269 36.3525C47.6608 36.2328 48.044 36.6802 49.0331 36.2429C49.2169 36.555 49.0088 36.559 49.4436 36.5893C49.7526 36.6105 49.8697 36.4939 50.1833 36.4651C50.4084 36.7559 50.3928 37.0735 51.591 36.7004C52.5412 36.4025 52.7069 37.2103 54.1842 36.2687L54.4679 36.6322C54.8809 36.5853 55.5949 36.3202 55.8044 36.3444C56.5012 36.4242 56.2816 36.6378 57.2495 36.3146C58.3124 35.9597 57.7267 36.1505 58.5506 36.3262C59.1676 36.4585 59.1151 36.2894 59.6932 36.5615C59.9528 36.047 59.4938 36.3732 60.0255 36.0516C60.3188 35.8733 61.3221 35.5542 61.3165 34.9185C60.7339 34.8029 60.845 35.1235 60.2991 34.8872L60.2982 34.8862Z" fill="white"/>
<path fill-rule="evenodd" clip-rule="evenodd" d="M44.6122 42.805C43.8998 42.5687 43.1702 41.0468 42.7642 40.8656C42.6001 41.2473 43.1747 41.8174 43.5095 42.1879C43.8972 42.6156 44.2502 43.1811 44.8349 43.1155C44.9974 42.554 44.7581 41.9269 44.6596 41.3715C46.3284 42.1723 46.4364 40.7262 46.3167 40.4395C45.7522 40.7156 46.3707 41.9683 44.6496 40.9267C43.715 40.3622 44.6612 41.6593 44.6127 42.8044L44.6122 42.805Z" fill="white"/>
<path fill-rule="evenodd" clip-rule="evenodd" d="M66.6387 53.34C67.7556 53.3683 68.9785 52.9765 70.1257 53.1022C70.6488 53.1608 71.2612 53.2007 71.8171 53.2421C72.4528 53.289 72.8431 53.5001 73.3516 53.5667C72.9456 52.7074 69.2138 52.7861 67.9471 52.9568C66.4823 53.1532 66.552 52.823 66.6388 53.34L66.6387 53.34Z" fill="white"/>
<path fill-rule="evenodd" clip-rule="evenodd" d="M64.9534 30.0753C65.2639 30.3201 67.4598 29.9213 68.051 29.8688C71.6061 29.5552 70.4418 29.9985 70.9977 30.0071C71.0119 29.9773 71.2658 29.9571 70.9861 29.6708C70.8695 29.5496 70.8493 29.5865 70.6741 29.5426C70.1555 29.4113 68.6065 29.534 68.0606 29.5996C67.5148 29.6653 66.9024 29.7365 66.3848 29.7905C65.3901 29.893 65.1877 29.6749 64.9529 30.0753L64.9534 30.0753Z" fill="white"/>
<path fill-rule="evenodd" clip-rule="evenodd" d="M70.5615 47.621C69.9985 47.6139 67.894 47.3927 67.6577 47.5326L67.6618 47.7391C68.0591 47.9284 69.8435 47.8956 70.4575 47.8946C71.5561 47.8931 72.3569 47.9815 73.3829 48.0855C73.2077 47.833 73.5354 48.0557 73.1562 47.8588L72.1247 47.6876C71.6046 47.6447 71.0816 47.6275 70.5615 47.6205L70.5615 47.621Z" fill="white"/>
<path fill-rule="evenodd" clip-rule="evenodd" d="M55.7594 40.7932C54.7405 40.5251 55.1596 40.0206 54.5027 40.0308C54.6052 40.5321 55.4045 41.2688 55.976 41.0936C56.134 40.4852 55.9189 39.4779 55.9305 38.7569C56.3864 38.9306 56.3935 39.2613 56.9807 39.4835C56.8853 39.0886 56.24 38.3706 55.6786 38.3105C55.5089 39.2436 55.7457 39.891 55.7599 40.7927L55.7594 40.7932Z" fill="white"/>
<path fill-rule="evenodd" clip-rule="evenodd" d="M66.5701 31.1223C66.7993 31.2505 66.8195 31.2263 67.277 31.1692L69.5167 31.0067C72.2796 30.8769 71.8762 31.2732 72.4891 31.3828C72.3397 30.8113 71.8964 30.7431 71.2895 30.7305L67.1174 30.8658C66.5645 30.8971 66.66 30.9627 66.5701 31.1223L66.5701 31.1223Z" fill="white"/>
<path fill-rule="evenodd" clip-rule="evenodd" d="M66.3582 56.6268C66.6858 57.0242 68.8872 56.7238 69.5169 56.7268C71.1796 56.7339 71.1882 56.6698 72.5732 57.0459C72.3127 56.3507 70.3774 56.4532 69.621 56.4562L66.3583 56.6273L66.3582 56.6268Z" fill="white"/>
<path fill-rule="evenodd" clip-rule="evenodd" d="M72.1748 45.2975C72.5909 45.3828 72.8701 45.5353 73.2462 45.5338C72.7645 44.7517 70.0603 44.84 69.0968 44.8183C68.5424 44.8057 68.0027 44.5532 68.1279 45.0435C68.5025 45.2101 68.9272 45.1021 69.5169 45.095C70.4757 45.0824 71.2351 45.1076 72.1743 45.2975L72.1748 45.2975Z" fill="white"/>
<path fill-rule="evenodd" clip-rule="evenodd" d="M44.9311 51.6769C44.5948 51.426 44.2328 50.8393 43.844 50.8019C43.9778 51.0968 44.5322 51.8632 44.8715 51.9264C45.5799 52.0546 45.132 51.3508 45.0467 50.5358C45.6425 50.7893 45.3416 51.0715 46.108 51.0942C46.2802 50.8549 46.3145 50.8433 46.3044 50.4914L45.9252 50.815C45.388 50.5045 45.23 49.9743 44.7851 49.8789C44.5857 50.5797 45.1159 51.0018 44.9306 51.6769L44.9311 51.6769Z" fill="white"/>
<path fill-rule="evenodd" clip-rule="evenodd" d="M56.3203 50.6655C55.6518 50.3762 56.0168 49.8319 55.3499 49.8748C55.5139 50.3706 55.9467 51.0901 56.5298 51.0462C56.6566 50.6332 56.5753 50.5347 56.5313 50.103C57.1539 50.2838 57.3993 50.8599 57.8179 50.871C58.2723 50.8836 57.8719 50.8836 58.0531 50.8013C58.24 50.1717 58.1673 51.0321 57.0272 49.9904C56.1865 49.2225 56.2592 49.8607 56.3203 50.666L56.3203 50.6655Z" fill="white"/>
<path fill-rule="evenodd" clip-rule="evenodd" d="M67.8876 60.0284C67.416 59.9587 67.1924 59.6851 66.8076 59.8477C66.9475 59.9956 66.6723 60.0001 67.2136 60.1854C67.929 60.4303 71.4396 60.2794 71.9956 60.1511C71.4169 59.7578 68.9903 60.195 67.8876 60.0284L67.8876 60.0284Z" fill="white"/>
<path fill-rule="evenodd" clip-rule="evenodd" d="M68.3694 31.7489C68.4219 32.1266 68.2755 32.0281 68.6854 31.9912C69.4206 31.9271 72.6379 31.7847 72.8232 31.6434C72.4556 31.4166 68.7436 31.5762 68.3689 31.7489H68.3694Z" fill="white"/>
<path fill-rule="evenodd" clip-rule="evenodd" d="M67.0845 62.793C67.2041 62.9652 67.0118 62.8516 67.3041 63.0182C67.9383 63.3772 71.0555 62.746 71.2555 62.585C70.6956 62.4012 68.3517 62.9838 67.8686 62.8743C67.4126 62.7703 67.4323 62.4042 67.0849 62.793H67.0845Z" fill="white"/>
<path fill-rule="evenodd" clip-rule="evenodd" d="M35.6478 14.9054C35.7261 14.7044 35.6478 14.8842 35.7503 14.7014C35.766 14.6731 35.7932 14.6575 35.8755 14.502C35.5706 14.6418 35.7034 14.6514 35.3969 14.871C34.5875 15.4497 33.0571 16.8286 32.7224 17.6309C33.2066 17.3603 34.9481 15.1301 35.6479 14.9049L35.6478 14.9054Z" fill="white"/>
<path fill-rule="evenodd" clip-rule="evenodd" d="M68.446 64.9875C68.7864 65.496 71.33 65.1072 71.9456 64.9991L69.2028 64.9875C69.0433 64.9749 68.8393 64.9047 68.7585 64.9007C68.1728 64.8709 68.6686 64.8578 68.4465 64.9875H68.446Z" fill="white"/>
<path fill-rule="evenodd" clip-rule="evenodd" d="M41.8162 46.6938C42.2095 46.5555 42.0313 46.449 42.4191 46.144C42.7695 45.8688 42.9876 45.9546 43.18 45.627C42.4473 45.6396 41.8405 45.9945 41.8162 46.6943L41.8162 46.6938Z" fill="white"/>
<path fill-rule="evenodd" clip-rule="evenodd" d="M27.501 67.0882C27.8443 67.272 29.5712 66.9569 29.715 66.7989C28.9354 66.7974 28.1033 66.8347 27.501 67.0882Z" fill="white"/>
<path fill-rule="evenodd" clip-rule="evenodd" d="M71.4482 64.1061C71.8744 64.193 71.8032 64.0107 72.1294 63.7285C72.4374 63.4619 72.507 63.5517 72.762 63.3154C72.4 63.1731 71.4669 63.6815 71.4482 64.1061Z" fill="white"/>
<path fill-rule="evenodd" clip-rule="evenodd" d="M30.0862 65.7664C30.3841 65.6609 30.3154 65.7094 30.5749 65.3458C30.7087 65.1575 30.7471 65.1338 30.8299 64.9126C30.277 64.8985 30.1003 65.1903 30.0862 65.7659V65.7664Z" fill="white"/>
<path fill-rule="evenodd" clip-rule="evenodd" d="M31.84 65.0425C31.4411 64.933 31.5477 64.9643 31.2043 65.1349C31.1589 65.5252 31.1261 65.353 31.3043 65.6651L31.84 65.0425Z" fill="white"/>
<path fill-rule="evenodd" clip-rule="evenodd" d="M32.0974 65.8271C32.3897 65.7129 32.5048 65.6902 32.4791 65.3539C32.0959 65.3454 32.0943 65.4635 32.0974 65.8271Z" fill="white"/>
<path fill-rule="evenodd" clip-rule="evenodd" d="M35.8755 14.5032L36.9212 13.5469C36.4768 13.715 36.6177 13.6766 36.3001 13.9973C36.0037 14.2977 36.0381 14.1538 35.8755 14.5032L35.8755 14.5032Z" fill="white"/>
</svg>
