<svg width="51" height="43" viewBox="0 0 51 43" fill="none" xmlns="http://www.w3.org/2000/svg">
<g clip-path="url(#clip0_87_99)">
<path fill-rule="evenodd" clip-rule="evenodd" d="M5.40513 27.2815C5.30263 27.9698 5.35281 28.6723 5.55209 29.339C5.75138 30.0057 6.0949 30.6205 6.5583 31.1396C2.20615 40.3353 15.2706 40.0424 21.9056 39.8464C22.6306 39.9186 23.359 39.9515 24.0877 39.945C24.1495 39.9366 24.2086 39.9139 24.2602 39.8787C24.3117 39.8435 24.3544 39.7967 24.3847 39.7421C25.2833 39.7404 26.2871 39.7679 27.3525 39.7971C35.0106 40.007 45.8546 40.3042 43.7535 30.4703C44.3331 30.1657 44.8153 29.7043 45.1452 29.1388C45.4751 28.5732 45.6394 27.9263 45.6193 27.2719C45.6007 26.709 45.7038 26.1487 45.9216 25.6292C46.1394 25.1098 46.4668 24.6435 46.8814 24.2623C47.2403 23.8272 47.4275 23.2757 47.4077 22.7121C47.5161 21.1567 45.5006 20.0558 44.2553 19.6712C44.2046 19.6141 44.1414 19.5697 44.0705 19.5414C43.9996 19.5132 43.9232 19.5019 43.8472 19.5085C43.2259 15.2858 42.2249 10.6968 39.0613 7.60173C37.1744 5.86698 34.9527 4.53657 32.5326 3.69231C30.1125 2.84806 27.5453 2.50782 24.9888 2.69252C20.251 2.97554 15.436 4.24942 11.845 7.50881C8.43757 10.5807 6.29762 14.8126 5.84317 19.3778C5.57734 19.3525 5.30982 19.4038 5.07221 19.5256C4.83461 19.6475 4.63685 19.8348 4.5023 20.0655C3.45848 21.7089 2.64273 26.8371 5.40513 27.2815ZM43.1458 20.0778C38.7756 24.1526 33.2171 26.7234 27.2822 27.4148C21.2874 28.3168 14.3236 25.2759 12.7417 24.2345C11.8866 23.6731 11.0939 22.972 10.3009 22.2705C9.28888 21.3754 8.27629 20.4798 7.1327 19.8733C7.00187 19.7874 6.87103 19.7015 6.71079 19.6782C7.69327 10.1074 15.6586 3.89242 25.0497 3.63355C29.9379 3.49597 35.5878 4.81812 38.8955 8.70986C41.5411 11.8276 42.4266 15.826 43.0001 19.8184C43.0199 19.9181 43.0709 20.009 43.1458 20.0778ZM14.2032 26.0365C23.8693 30.9199 36.4096 27.8605 43.9896 20.468C45.8196 21.0493 47.0179 22.8423 45.4193 24.297C44.7436 24.9147 44.7565 25.8783 44.7691 26.8309C44.7795 27.6115 44.7898 28.3848 44.4211 28.9544C44.1856 29.3446 43.8445 29.6602 43.4373 29.8648C43.3558 29.8453 43.2706 29.8471 43.19 29.87C43.1094 29.8929 43.0361 29.9362 42.977 29.9956C41.941 30.1443 40.7823 29.3816 39.7417 28.6968C39.2251 28.3567 38.7377 28.0359 38.3088 27.8553C37.457 27.495 35.9979 27.953 35.8124 28.9663C35.7897 29.0835 35.771 29.2028 35.7523 29.3222C35.65 29.9751 35.5469 30.6327 34.7902 30.9866C34.27 31.1522 33.7114 31.1531 33.1906 30.9892C32.6699 30.8254 32.2124 30.5047 31.8807 30.0711C31.4424 29.4958 30.9117 28.9971 30.3102 28.5954C28.7601 27.6947 27.1853 29.0597 26.2185 30.0866C24.8468 31.5566 23.2482 31.2585 21.6117 30.9532C20.4692 30.7401 19.3083 30.5236 18.1933 30.9029C17.1933 31.3404 16.1665 31.7138 15.1191 32.0207C13.0736 32.4448 12.541 31.1707 13.2845 29.6461C13.3517 29.5053 13.4328 29.3509 13.5188 29.187C13.912 28.438 14.4102 27.489 14.1755 26.7205C14.002 26.1769 13.7199 25.8112 13.3594 25.5773C13.6376 25.7355 13.919 25.8886 14.2032 26.0365ZM13.3594 25.5773C13.3032 25.5409 13.2452 25.5076 13.1854 25.4774C13.2433 25.5109 13.3012 25.5442 13.3594 25.5773ZM13.1854 25.4774C12.1301 24.9446 10.5177 25.3509 8.96882 25.7413C6.97555 26.2436 5.08751 26.7195 4.62758 25.1328C4.19517 23.7169 4.3374 22.1877 5.02352 20.8758L5.03987 20.8865C5.90933 19.5622 7.52344 21.0821 8.38093 21.8896C8.49237 21.9945 8.59103 22.0874 8.67362 22.1605C10.0532 23.4278 11.5663 24.5398 13.1854 25.4774ZM7.27353 31.7613C10.2778 34.1901 16.1353 34.5368 19.3182 34.5903C24.2844 34.6946 29.2524 34.5019 34.1957 34.0133C34.5196 33.9808 34.8802 33.952 35.2661 33.9211C37.8652 33.7131 41.6107 33.4135 42.9943 31.3059C44.3072 39.575 34.3726 39.1915 27.4313 38.9236C26.0713 38.8712 24.8262 38.8231 23.8032 38.8454C23.6133 38.8495 23.4234 38.8535 23.2146 38.8686C23.0799 38.8783 21.9353 38.8492 21.7436 38.8079C21.6855 38.7954 21.3065 38.8011 20.9611 38.8063C20.679 38.8106 20.4194 38.8145 20.3752 38.8079C12.6209 39.264 4.76834 37.3952 7.25718 31.7506L7.27353 31.7613ZM13.2038 27.8261C13.3192 27.2583 13.2835 26.8136 12.8747 26.5451C11.5126 25.7316 9.90696 26.2381 8.36148 26.7257C7.66564 26.9452 6.98199 27.1609 6.33823 27.2505L6.32188 27.2398C5.43843 33.5405 16.4551 33.7287 20.5359 33.7515C24.6166 33.7743 28.7917 33.7068 32.8615 33.3363C33.2191 33.3071 33.643 33.2839 34.111 33.2584C36.8794 33.1072 41.1922 32.8717 42.4726 30.7995C41.5764 30.7592 40.7099 30.4662 39.9732 29.9543C39.7926 29.8358 39.6093 29.6892 39.4214 29.5389C38.7582 29.0085 38.0368 28.4316 37.1711 28.8753C36.8791 29.0238 36.6793 29.6406 36.4855 30.239C36.3526 30.6492 36.2226 31.0508 36.0675 31.2869C34.8954 32.8227 33.1106 32.119 31.7742 31.1246C31.4613 30.8917 31.1851 30.6118 30.919 30.3421C30.0483 29.4597 29.2852 28.6863 27.6967 30.0274C27.1101 30.6516 26.4835 31.237 25.8207 31.7797C24.6453 32.5397 23.2018 32.271 21.7552 32.0017C20.5495 31.7772 19.3415 31.5523 18.2846 31.9224C18.1496 31.9666 17.9957 32.019 17.8267 32.0766C15.7776 32.7752 11.5246 34.2252 12.1059 30.6393C12.2855 30.0628 12.9025 28.3494 13.2038 27.8261Z" fill="white"/>
<path d="M36.782 19.8784C37.3446 20.002 37.9331 19.9071 38.4283 19.613C38.9235 19.3188 39.2883 18.8473 39.4487 18.2941C39.6424 17.719 39.682 17.1032 39.5635 16.5081C39.4451 15.9129 39.1727 15.3592 38.7737 14.902C38.4755 14.5541 38.0384 14.8991 38.0654 15.2679C38.0654 15.2679 38.0654 15.2679 38.0163 15.2357C37.3244 15.2107 36.6399 15.3863 36.0455 15.7414C35.4511 16.0966 34.9721 16.616 34.6661 17.2372C34.1872 18.5727 35.584 19.6535 36.782 19.8784ZM35.6322 17.2629C35.917 16.8974 36.2843 16.6045 36.704 16.4082C37.1237 16.2119 37.584 16.1177 38.0471 16.1335C38.12 16.1351 38.1918 16.1158 38.254 16.0778C38.3162 16.0399 38.3663 15.9849 38.3983 15.9194C38.9383 17.0931 38.8024 19.3677 37.1316 19.043C36.3682 18.9046 34.988 18.2442 35.6322 17.2629Z" fill="white"/>
<path d="M25.7587 9.13071C26.2202 8.573 26.8352 8.16301 27.5275 7.95158C27.5828 7.93409 27.641 7.92765 27.6987 7.93265C27.7565 7.93764 27.8127 7.95396 27.8642 7.98068C27.9156 8.00741 27.9613 8.044 27.9987 8.08838C28.036 8.13276 28.0642 8.18405 28.0817 8.23933C28.0992 8.29461 28.1056 8.3528 28.1006 8.41056C28.0956 8.46833 28.0793 8.52455 28.0526 8.57601C28.0258 8.62746 27.9892 8.67315 27.9449 8.71047C27.9005 8.74779 27.8492 8.77599 27.7939 8.79349C27.532 8.88842 27.2801 9.00926 27.0422 9.15421L26.7559 9.34072L26.7237 9.38979L26.6486 9.50427L26.5841 9.6024L26.5036 9.72506C26.5036 9.72506 26.5036 9.72506 26.5608 9.76264C26.5991 9.79326 26.6402 9.82023 26.6835 9.84317C26.7 9.84678 26.7145 9.85633 26.7244 9.87001L26.7735 9.90222C26.8387 9.95118 26.907 9.99601 26.9779 10.0364C27.0527 10.0729 27.13 10.104 27.2092 10.1298C27.2092 10.1298 27.2909 10.1835 27.3318 10.2103C27.3727 10.2371 27.7261 10.3405 27.8733 10.4371L28.1504 10.4786L28.2889 10.4993C28.3099 10.5085 28.3293 10.5212 28.3461 10.5369C28.5253 10.5492 28.6963 10.5561 28.8726 10.5549L29.1167 10.5396L29.2332 10.5225L29.5387 10.3602L29.6041 10.4032L29.6578 10.3214L29.6005 10.2838C29.5594 10.2059 29.5088 10.1333 29.4498 10.0678L29.3189 9.98194C29.2126 9.91215 29.0982 9.83699 29.0294 9.70996C28.8054 9.54084 28.5705 9.38661 28.3262 9.24825C28.2749 9.221 28.2295 9.18385 28.1926 9.13896C28.1557 9.09407 28.1281 9.04232 28.1113 8.9867C28.0945 8.93107 28.0889 8.87268 28.0948 8.81488C28.1007 8.75708 28.1179 8.70101 28.1456 8.64992C28.2025 8.54818 28.2967 8.47249 28.4083 8.43881C28.5199 8.40513 28.6402 8.41608 28.7439 8.46935C29.2816 8.72783 29.7792 9.06241 30.2215 9.46279C30.3473 9.59726 30.441 9.7584 30.4958 9.93419C30.5506 10.11 30.565 10.2959 30.5379 10.478C30.3586 11.2145 29.4017 11.3352 28.7968 11.3476C27.9907 11.3572 27.1931 11.1819 26.4653 10.835C25.8663 10.5354 25.297 9.83395 25.7587 9.13071Z" fill="white"/>
<path d="M25.6463 22.4207C26.0955 22.4874 26.5535 22.3864 26.9331 22.137C27.3126 21.8877 27.5871 21.5073 27.7042 21.0686C27.8412 20.5794 27.8358 20.0612 27.6887 19.575C27.5416 19.0887 27.2588 18.6545 26.8736 18.3233C26.8147 18.2736 26.7435 18.2406 26.6676 18.2278C26.5916 18.215 26.5136 18.2228 26.4417 18.2504C26.3979 18.1693 26.3249 18.1079 26.2375 18.0788C26.1501 18.0496 26.0548 18.0549 25.9712 18.0936C25.459 18.2666 24.9944 18.5567 24.6141 18.9409C24.2339 19.3251 23.9486 19.7928 23.781 20.3067C23.7596 20.5691 23.7913 20.833 23.8743 21.0828C23.9572 21.3326 24.0898 21.5631 24.2639 21.7605C24.4381 21.9579 24.6503 22.1181 24.8878 22.2315C25.1253 22.3449 25.3833 22.4093 25.6463 22.4207ZM24.7356 20.243C25.0649 19.6288 25.602 19.1518 26.2509 18.8974C26.2509 18.8974 26.2509 18.8974 26.2918 18.9243C26.5374 19.1219 26.7255 19.3818 26.8364 19.6769C26.9473 19.972 26.9769 20.2915 26.9222 20.602C26.913 20.7316 26.8782 20.8582 26.8196 20.9742C26.761 21.0902 26.6798 21.1934 26.5809 21.2777C26.482 21.362 26.3672 21.4258 26.2434 21.4652C26.1195 21.5047 25.9891 21.5191 25.8596 21.5075C25.2079 21.4307 24.3475 20.9946 24.7438 20.2484L24.7356 20.243Z" fill="white"/>
</g>
<defs>
<clipPath id="clip0_87_99">
<rect width="51" height="43" fill="white"/>
</clipPath>
</defs>
</svg>
