<svg width="1167" height="633" viewBox="0 0 1167 633" fill="none" xmlns="http://www.w3.org/2000/svg">
<g clip-path="url(#clip0_610_1349)">
<path d="M13.4219 370.814C15.0179 370.966 15.8159 371.713 15.8159 373.056C15.8159 373.335 15.8032 373.55 15.7779 373.702C15.6512 374.335 15.4865 375.589 15.2839 377.464C15.0812 379.339 14.8532 380.783 14.5999 381.796C14.3465 382.784 14.0045 383.278 13.5739 383.278C13.1432 383.278 12.7885 383.025 12.5099 382.518C12.2312 381.986 12.0159 381.467 11.8639 380.96C11.7372 380.428 11.6359 380.162 11.5599 380.162L10.5339 380.732C9.84986 381.112 9.25453 381.302 8.74786 381.302C8.21586 381.302 7.77253 381.112 7.41786 380.732C7.06319 380.352 6.88586 379.896 6.88586 379.364C6.88586 377.971 7.22786 376.615 7.91186 375.298C8.59586 373.981 9.49519 372.917 10.6099 372.106C10.8379 371.903 11.0912 371.739 11.3699 371.612C11.6485 371.46 12.0285 371.308 12.5099 371.156C13.0165 370.979 13.3205 370.865 13.4219 370.814ZM13.4219 374.044C13.0925 373.487 12.8645 373.183 12.7379 373.132C12.6619 373.107 12.5605 373.094 12.4339 373.094C11.9272 373.094 11.6232 373.183 11.5219 373.36C9.74853 375.691 8.86186 377.274 8.86186 378.11C8.86186 378.262 8.91253 378.439 9.01386 378.642C9.11519 378.819 9.26719 378.908 9.46986 378.908C9.87519 378.908 10.2805 378.68 10.6859 378.224C11.1165 377.768 11.6612 376.983 12.3199 375.868C13.0039 374.753 13.3712 374.145 13.4219 374.044ZM17.7307 378.718C18.516 374.006 18.9847 371.219 19.1367 370.358C19.2634 369.674 19.5927 369.332 20.1247 369.332C20.758 369.332 21.0747 369.573 21.0747 370.054C21.0747 370.079 21.0367 370.32 20.9607 370.776C20.454 373.968 20.0994 376.362 19.8967 377.958V378.072C19.8967 378.173 19.922 378.3 19.9727 378.452C20.0234 378.579 20.0867 378.731 20.1627 378.908C20.264 379.06 20.3274 379.187 20.3527 379.288C20.4034 379.237 20.5174 379.161 20.6947 379.06C20.872 378.933 21.0114 378.819 21.1127 378.718C21.2394 378.617 21.3407 378.503 21.4167 378.376C21.9234 377.489 22.658 376.159 23.6207 374.386C24.6087 372.613 25.356 371.295 25.8627 370.434C25.9387 370.257 26.1034 370.092 26.3567 369.94C26.6354 369.763 26.8507 369.674 27.0027 369.674C27.3067 369.674 27.56 369.889 27.7627 370.32C27.9654 370.725 28.0667 371.042 28.0667 371.27C28.0667 371.473 27.902 372.334 27.5727 373.854C26.7114 377.603 26.2554 379.617 26.2047 379.896C26.154 380.099 26.1287 380.263 26.1287 380.39C26.1287 380.694 26.2174 381.074 26.3947 381.53C26.572 381.986 26.6607 382.277 26.6607 382.404C26.6607 382.683 26.4707 382.974 26.0907 383.278C25.7107 383.582 25.356 383.734 25.0267 383.734C24.52 383.734 24.0894 383.443 23.7347 382.86C23.4054 382.252 23.2407 381.669 23.2407 381.112C23.2407 381.036 23.2407 380.922 23.2407 380.77C23.266 380.618 23.2787 380.491 23.2787 380.39C23.2787 380.314 23.2534 380.2 23.2027 380.048C23.152 379.896 23.1267 379.795 23.1267 379.744C22.5187 379.896 21.8727 380.327 21.1887 381.036C20.53 381.72 19.9854 382.062 19.5547 382.062C18.8454 382.062 18.3514 381.555 18.0727 380.542C18.0474 380.441 18.022 380.251 17.9967 379.972C17.9714 379.668 17.9334 379.402 17.8827 379.174C17.8574 378.946 17.8067 378.794 17.7307 378.718ZM20.7327 365.988C20.4034 365.836 20.1754 365.659 20.0487 365.456C20.0487 364.848 20.4794 364.379 21.3407 364.05C21.6954 363.923 22.4554 363.632 23.6207 363.176C24.8114 362.695 25.736 362.34 26.3947 362.112C26.42 362.112 26.4834 362.087 26.5847 362.036C26.686 361.985 26.7494 361.96 26.7747 361.96C26.9014 361.96 27.028 361.973 27.1547 361.998C27.3067 362.023 27.4587 362.061 27.6107 362.112C27.7627 362.137 27.8894 362.163 27.9907 362.188C27.94 362.264 27.8767 362.403 27.8007 362.606C27.75 362.783 27.6867 362.935 27.6107 363.062C27.56 363.163 27.4967 363.239 27.4207 363.29C25.698 364.075 23.6714 364.949 21.3407 365.912C21.3154 365.912 21.1127 365.937 20.7327 365.988ZM36.8266 371.916C36.7506 372.625 36.5479 373.271 36.2186 373.854C36.0413 373.677 35.8639 373.461 35.6866 373.208C35.5093 372.955 35.3699 372.765 35.2686 372.638C35.1673 372.511 35.0533 372.448 34.9266 372.448C34.6986 372.448 34.4579 372.625 34.2046 372.98C33.0646 374.424 32.4946 376.248 32.4946 378.452C32.4946 379.693 32.9759 380.314 33.9386 380.314C34.2426 380.314 34.6986 380.137 35.3066 379.782C35.9399 379.402 36.4213 379.212 36.7506 379.212C37.1559 379.212 37.3586 379.402 37.3586 379.782C37.1559 380.466 36.5479 381.112 35.5346 381.72C34.5466 382.328 33.6219 382.632 32.7606 382.632C32.3046 382.632 31.9373 382.543 31.6586 382.366C30.8226 381.809 30.2653 381.188 29.9866 380.504C29.7079 379.82 29.5686 378.959 29.5686 377.92C29.5686 374.829 30.7339 372.397 33.0646 370.624C33.6219 370.067 34.4326 369.788 35.4966 369.788C36.3833 369.788 36.8266 370.371 36.8266 371.536V371.916ZM7.07794 410.948C7.02727 410.973 6.92594 411.049 6.77394 411.176C6.64727 411.277 6.53327 411.366 6.43194 411.442C6.35594 411.493 6.24194 411.543 6.08994 411.594C5.93794 411.645 5.78594 411.67 5.63394 411.67C4.97527 411.67 4.64594 411.303 4.64594 410.568C4.64594 410.289 4.6586 409.884 4.68394 409.352C4.70927 408.795 4.72194 408.364 4.72194 408.06C4.72194 407.883 4.63327 407.591 4.45594 407.186C4.4306 407.186 4.3166 407.237 4.11394 407.338C3.91127 407.414 3.75927 407.49 3.65794 407.566C3.37927 407.845 2.9866 408.275 2.47994 408.858C1.9986 409.415 1.60594 409.859 1.30194 410.188C1.02327 410.492 0.630604 410.859 0.123938 411.29C-0.382729 411.721 -0.902063 412.088 -1.43406 412.392C-1.35806 412.24 -1.24406 411.974 -1.09206 411.594C-0.940063 411.214 -0.813396 410.923 -0.712063 410.72L4.91194 401.182C5.06394 400.827 5.3046 400.523 5.63394 400.27C5.96327 399.991 6.2546 399.852 6.50794 399.852C6.65994 399.852 6.79927 399.979 6.92594 400.232C7.07794 400.485 7.15394 400.713 7.15394 400.916C7.15394 405.223 7.1286 408.567 7.07794 410.948ZM15.5742 399.814C17.1702 399.966 17.9682 400.713 17.9682 402.056C17.9682 402.335 17.9555 402.55 17.9302 402.702C17.8035 403.335 17.6389 404.589 17.4362 406.464C17.2335 408.339 17.0055 409.783 16.7522 410.796C16.4989 411.784 16.1569 412.278 15.7262 412.278C15.2955 412.278 14.9409 412.025 14.6622 411.518C14.3835 410.986 14.1682 410.467 14.0162 409.96C13.8895 409.428 13.7882 409.162 13.7122 409.162L12.6862 409.732C12.0022 410.112 11.4069 410.302 10.9002 410.302C10.3682 410.302 9.92487 410.112 9.5702 409.732C9.21554 409.352 9.0382 408.896 9.0382 408.364C9.0382 406.971 9.3802 405.615 10.0642 404.298C10.7482 402.981 11.6475 401.917 12.7622 401.106C12.9902 400.903 13.2435 400.739 13.5222 400.612C13.8009 400.46 14.1809 400.308 14.6622 400.156C15.1689 399.979 15.4729 399.865 15.5742 399.814ZM15.5742 403.044C15.2449 402.487 15.0169 402.183 14.8902 402.132C14.8142 402.107 14.7129 402.094 14.5862 402.094C14.0795 402.094 13.7755 402.183 13.6742 402.36C11.9009 404.691 11.0142 406.274 11.0142 407.11C11.0142 407.262 11.0649 407.439 11.1662 407.642C11.2675 407.819 11.4195 407.908 11.6222 407.908C12.0275 407.908 12.4329 407.68 12.8382 407.224C13.2689 406.768 13.8135 405.983 14.4722 404.868C15.1562 403.753 15.5235 403.145 15.5742 403.044ZM34.741 403.842C34.5637 404.526 34.3357 405.552 34.057 406.92C33.8037 408.263 33.5377 409.466 33.259 410.53C32.9804 411.594 32.6637 412.531 32.309 413.342C32.2837 413.443 32.2204 413.532 32.119 413.608C32.043 413.709 31.9164 413.811 31.739 413.912C31.587 414.039 31.4857 414.127 31.435 414.178C31.4097 414.102 31.321 413.937 31.169 413.684C31.017 413.431 30.941 413.241 30.941 413.114C31.0677 412.43 31.283 411.467 31.587 410.226C31.9164 408.959 32.0937 408.25 32.119 408.098L32.955 404.374C32.955 404.349 32.917 404.108 32.841 403.652C32.7904 403.677 32.7017 403.703 32.575 403.728C32.4737 403.728 32.385 403.741 32.309 403.766C32.233 403.791 32.1697 403.829 32.119 403.88C31.587 404.463 30.8904 405.387 30.029 406.654C29.1677 407.921 28.5977 408.744 28.319 409.124C28.2177 409.251 27.8377 409.453 27.179 409.732C26.9257 409.149 26.799 408.807 26.799 408.706C26.799 408.326 26.8877 407.731 27.065 406.92C27.2424 406.109 27.331 405.514 27.331 405.134C27.331 405.109 27.255 404.792 27.103 404.184C24.5697 405.805 22.847 408.136 21.935 411.176C21.7577 411.733 21.4917 412.24 21.137 412.696C20.7824 413.127 20.453 413.342 20.149 413.342C19.8957 413.342 19.655 413.177 19.427 412.848C19.2244 412.493 19.123 412.063 19.123 411.556V411.29C19.5284 408.833 20.0857 405.805 20.795 402.208C20.9724 401.347 21.5804 400.916 22.619 400.916C23.3537 400.916 23.721 401.473 23.721 402.588C23.721 402.791 23.683 403.107 23.607 403.538C23.531 403.943 23.493 404.26 23.493 404.488C23.493 404.615 23.5184 404.805 23.569 405.058C23.6197 405.311 23.645 405.489 23.645 405.59C23.721 405.565 23.8984 405.514 24.177 405.438C24.481 405.337 24.6837 405.235 24.785 405.134C25.0384 404.957 25.393 404.64 25.849 404.184C26.305 403.703 26.7104 403.323 27.065 403.044C27.445 402.765 27.787 402.626 28.091 402.626C28.319 402.626 28.509 402.93 28.661 403.538C28.8384 404.146 28.9524 404.754 29.003 405.362C29.155 405.185 29.3704 404.982 29.649 404.754C29.953 404.501 30.1684 404.298 30.295 404.146C30.4217 403.994 30.637 403.715 30.941 403.31C31.2704 402.879 31.511 402.588 31.663 402.436C31.815 402.259 32.0557 402.081 32.385 401.904C32.7144 401.727 33.069 401.638 33.449 401.638C33.6517 401.638 33.8797 401.828 34.133 402.208C34.3864 402.563 34.513 402.981 34.513 403.462V403.804H34.589C34.6397 403.829 34.6904 403.842 34.741 403.842ZM36.2483 408.896C36.2736 407.857 36.4003 406.743 36.6283 405.552C36.8816 404.361 37.2236 403.196 37.6543 402.056C38.0849 400.891 38.6676 399.928 39.4023 399.168C40.1623 398.408 40.9856 398.028 41.8723 398.028C42.5309 398.028 43.0756 398.231 43.5063 398.636C43.9369 399.016 44.1523 399.561 44.1523 400.27C44.1523 401.106 43.4683 402.537 42.1003 404.564C41.8976 404.919 41.3656 405.501 40.5043 406.312C39.6683 407.097 39.2503 407.845 39.2503 408.554C39.2503 409.466 39.4276 410.023 39.7823 410.226C39.9849 410.353 40.2509 410.416 40.5803 410.416C40.7829 410.391 41.1123 410.302 41.5683 410.15C42.0243 409.973 42.3663 409.884 42.5943 409.884C42.9996 409.884 43.2023 410.074 43.2023 410.454C43.2023 411.189 42.7716 411.847 41.9103 412.43C41.0743 412.987 40.2509 413.266 39.4403 413.266C38.9083 413.266 38.4523 413.177 38.0723 413C37.6923 412.848 37.3883 412.658 37.1603 412.43C36.9576 412.177 36.7803 411.847 36.6283 411.442C36.5016 411.011 36.4129 410.619 36.3623 410.264C36.3116 409.909 36.2736 409.453 36.2483 408.896ZM42.6703 401.106C42.3409 400.473 42.1003 400.156 41.9483 400.156C41.8216 400.156 41.6949 400.232 41.5683 400.384C41.4416 400.511 41.3023 400.726 41.1503 401.03C41.0236 401.334 40.9223 401.587 40.8463 401.79C40.7703 401.993 40.6563 402.284 40.5043 402.664C40.3776 403.044 40.3143 403.247 40.3143 403.272C40.3143 403.323 40.3649 403.424 40.4663 403.576C40.5676 403.728 40.6436 403.804 40.6943 403.804C40.7956 403.804 40.8843 403.779 40.9603 403.728C41.0616 403.652 41.1629 403.551 41.2643 403.424C41.3909 403.297 41.4923 403.171 41.5683 403.044C41.6696 402.917 41.7709 402.753 41.8723 402.55C41.9989 402.347 42.1003 402.183 42.1763 402.056C42.2523 401.904 42.3409 401.727 42.4423 401.524C42.5436 401.321 42.6196 401.182 42.6703 401.106Z" fill="#FEFEFE"/>
<path d="M140.899 590.868C140.823 590.944 140.76 590.982 140.709 590.982C140.253 591.033 140 590.45 139.949 589.234C139.949 588.499 140.152 587.942 140.557 587.562C141.191 586.954 141.659 586.523 141.963 586.27C142.293 585.991 142.774 585.662 143.407 585.282C144.066 584.877 144.636 584.674 145.117 584.674C145.953 584.674 146.371 585.409 146.371 586.878C146.371 587.967 146.219 588.955 145.915 589.842C145.637 590.703 145.168 591.691 144.509 592.806C143.851 593.921 143.433 594.681 143.255 595.086C144.319 595.086 146.321 594.655 149.259 593.794H149.335C149.513 593.794 149.665 593.971 149.791 594.326C149.918 594.655 149.981 595.035 149.981 595.466C149.981 596.454 149.741 597.024 149.259 597.176C148.981 597.252 148.512 597.391 147.853 597.594C147.195 597.797 146.675 597.949 146.295 598.05C145.915 598.151 145.447 598.253 144.889 598.354C144.357 598.43 143.863 598.468 143.407 598.468C141.989 598.468 141.279 597.683 141.279 596.112C141.279 595.124 141.634 593.971 142.343 592.654C143.255 590.906 143.99 589.424 144.547 588.208C143.534 588.639 142.318 589.525 140.899 590.868ZM157.283 585.814C158.879 585.966 159.677 586.713 159.677 588.056C159.677 588.335 159.665 588.55 159.639 588.702C159.513 589.335 159.348 590.589 159.145 592.464C158.943 594.339 158.715 595.783 158.461 596.796C158.208 597.784 157.866 598.278 157.435 598.278C157.005 598.278 156.65 598.025 156.371 597.518C156.093 596.986 155.877 596.467 155.725 595.96C155.599 595.428 155.497 595.162 155.421 595.162L154.395 595.732C153.711 596.112 153.116 596.302 152.609 596.302C152.077 596.302 151.634 596.112 151.279 595.732C150.925 595.352 150.747 594.896 150.747 594.364C150.747 592.971 151.089 591.615 151.773 590.298C152.457 588.981 153.357 587.917 154.471 587.106C154.699 586.903 154.953 586.739 155.231 586.612C155.51 586.46 155.89 586.308 156.371 586.156C156.878 585.979 157.182 585.865 157.283 585.814ZM157.283 589.044C156.954 588.487 156.726 588.183 156.599 588.132C156.523 588.107 156.422 588.094 156.295 588.094C155.789 588.094 155.485 588.183 155.383 588.36C153.61 590.691 152.723 592.274 152.723 593.11C152.723 593.262 152.774 593.439 152.875 593.642C152.977 593.819 153.129 593.908 153.331 593.908C153.737 593.908 154.142 593.68 154.547 593.224C154.978 592.768 155.523 591.983 156.181 590.868C156.865 589.753 157.233 589.145 157.283 589.044ZM160.072 606.524L161.364 596.91C162.048 592.578 162.479 589.652 162.656 588.132C162.681 587.904 162.694 587.575 162.694 587.144C162.719 586.688 162.745 586.295 162.77 585.966C162.795 585.611 162.846 585.257 162.922 584.902C162.998 584.547 163.112 584.281 163.264 584.104C163.441 583.901 163.669 583.8 163.948 583.8C164.429 583.8 164.936 584.091 165.468 584.674C166 585.231 166.291 585.51 166.342 585.51C166.443 585.51 166.785 585.206 167.368 584.598C167.976 583.965 168.495 583.648 168.926 583.648C169.534 583.648 170.003 583.889 170.332 584.37C170.687 584.826 170.864 585.345 170.864 585.928C170.864 586.992 170.661 588.284 170.256 589.804C169.851 591.299 169.205 592.692 168.318 593.984C167.457 595.276 166.507 595.922 165.468 595.922C165.291 595.922 165.075 596.011 164.822 596.188C164.569 596.34 164.417 596.517 164.366 596.72C164.214 597.48 164.024 598.683 163.796 600.33C163.568 602.002 163.315 603.459 163.036 604.7C162.783 605.941 162.453 607.107 162.048 608.196C161.997 608.297 161.909 608.399 161.782 608.5C161.655 608.627 161.491 608.753 161.288 608.88C161.111 609.007 160.971 609.108 160.87 609.184C160.414 608.399 160.186 607.803 160.186 607.398C160.186 607.322 160.199 607.183 160.224 606.98C160.224 606.777 160.224 606.625 160.224 606.524H160.072ZM167.596 592.236C168.66 590.032 169.293 587.993 169.496 586.118C169.496 585.915 169.407 585.738 169.23 585.586C169.053 585.434 168.901 585.358 168.774 585.358C168.597 585.358 168.394 585.459 168.166 585.662C167.963 585.865 167.761 586.156 167.558 586.536C167.355 586.891 167.178 587.233 167.026 587.562C166.874 587.891 166.697 588.284 166.494 588.74C166.291 589.196 166.152 589.513 166.076 589.69C166.076 589.715 166.063 589.753 166.038 589.804C166.038 589.829 166.038 589.855 166.038 589.88C166.038 590.032 166.063 590.197 166.114 590.374C166.165 590.526 166.253 590.691 166.38 590.868C166.532 591.045 166.646 591.185 166.722 591.286C166.798 591.387 166.937 591.552 167.14 591.78C167.368 592.008 167.52 592.16 167.596 592.236ZM180.105 582.166C181.093 582.293 181.764 582.457 182.119 582.66C182.474 582.863 182.651 583.23 182.651 583.762C182.651 584.243 182.562 584.801 182.385 585.434C182.056 586.726 181.486 588.639 180.675 591.172C179.89 593.68 179.345 595.504 179.041 596.644C179.32 596.897 179.459 597.227 179.459 597.632C179.459 597.987 179.117 598.772 178.433 599.988C177.749 601.204 177.103 601.812 176.495 601.812C176.267 601.812 176.039 601.584 175.811 601.128C175.608 600.672 175.507 600.33 175.507 600.102C175.507 600.026 175.507 599.912 175.507 599.76C175.532 599.633 175.545 599.532 175.545 599.456C175.52 599.456 175.469 599.443 175.393 599.418C175.342 599.393 175.292 599.38 175.241 599.38C175.444 598.265 175.76 597.151 176.191 596.036C176.622 594.896 176.951 593.807 177.179 592.768C177.23 592.565 177.331 592.312 177.483 592.008C177.66 591.704 177.749 591.362 177.749 590.982C177.749 590.501 177.597 590.26 177.293 590.26C177.09 590.26 176.951 590.361 176.875 590.564C175.431 592.54 174.354 594.035 173.645 595.048C173.518 595.225 173.265 595.618 172.885 596.226C172.53 596.834 172.226 597.315 171.973 597.67C171.745 598.025 171.403 598.367 170.947 598.696C170.491 599.025 170.035 599.19 169.579 599.19C169.199 599.19 168.819 599.063 168.439 598.81C168.034 598.531 167.831 598.227 167.831 597.898C167.831 597.67 167.856 597.366 167.907 596.986C167.958 596.581 167.983 596.327 167.983 596.226H168.211C168.616 597.113 168.933 597.556 169.161 597.556C169.49 597.556 169.68 597.493 169.731 597.366C171.428 595.213 173.024 592.806 174.519 590.146C174.418 589.791 174.367 589.5 174.367 589.272C174.367 586.232 175.406 583.965 177.483 582.47C177.838 582.217 178.636 582.09 179.877 582.09C179.928 582.09 180.004 582.115 180.105 582.166ZM179.269 584.712C179.32 584.611 179.345 584.497 179.345 584.37C179.345 584.294 179.332 584.167 179.307 583.99C179.282 583.787 179.269 583.635 179.269 583.534C179.193 583.559 179.054 583.572 178.851 583.572C178.648 583.572 178.471 583.585 178.319 583.61C178.167 583.635 178.066 583.686 178.015 583.762C177.686 584.218 177.268 584.877 176.761 585.738C176.254 586.599 175.938 587.131 175.811 587.334C175.862 587.461 175.912 587.6 175.963 587.752C176.014 587.904 176.039 588.018 176.039 588.094C176.064 588.145 176.102 588.195 176.153 588.246C176.204 588.297 176.267 588.322 176.343 588.322C176.824 588.322 177.8 587.119 179.269 584.712ZM178.889 597.442C178.889 597.315 178.94 597.049 179.041 596.644L178.851 597.518C178.876 597.493 178.889 597.467 178.889 597.442ZM186.718 597.746C186.744 597.087 186.832 595.884 186.984 594.136C187.136 592.363 187.212 591.007 187.212 590.07C187.212 589.715 187.124 589.487 186.946 589.386C186.794 589.259 186.427 589.171 185.844 589.12C184.932 589.095 184.236 588.677 183.754 587.866C183.273 587.03 183.032 586.093 183.032 585.054C183.032 583.255 183.856 582.128 185.502 581.672C186.161 581.672 186.49 581.963 186.49 582.546C186.49 582.673 186.478 582.774 186.452 582.85C186.402 583.053 186.262 583.585 186.034 584.446C185.832 585.307 185.68 585.966 185.578 586.422C185.553 586.473 185.54 586.536 185.54 586.612C185.54 586.713 185.604 586.979 185.73 587.41C186.338 587.283 186.972 586.789 187.63 585.928C188.314 585.067 188.96 584.636 189.568 584.636C190.1 584.636 190.366 584.953 190.366 585.586C190.366 585.611 190.354 585.675 190.328 585.776C190.328 585.852 190.328 585.915 190.328 585.966C190.252 586.625 190.126 587.765 189.948 589.386C189.771 590.982 189.644 592.211 189.568 593.072C189.543 593.376 189.53 594.174 189.53 595.466C189.556 596.758 189.48 597.746 189.302 598.43C189.15 599.089 188.846 599.418 188.39 599.418C188.238 599.418 188.074 599.329 187.896 599.152C187.719 598.975 187.504 598.734 187.25 598.43C187.022 598.101 186.845 597.873 186.718 597.746ZM192.281 593.718C192.965 589.386 193.434 586.574 193.687 585.282C193.814 584.547 194.194 584.18 194.827 584.18C195.385 584.18 195.663 584.395 195.663 584.826C195.663 584.927 195.6 585.231 195.473 585.738C195.347 586.65 195.157 587.98 194.903 589.728C194.65 591.476 194.498 592.515 194.447 592.844C194.447 593.021 194.511 593.262 194.637 593.566C194.789 593.87 194.878 594.073 194.903 594.174C195.461 593.845 195.79 593.579 195.891 593.376C196.17 592.869 197.652 590.222 200.337 585.434C200.717 584.801 201.072 584.484 201.401 584.484C201.832 584.484 202.161 584.636 202.389 584.94C202.643 585.244 202.769 585.586 202.769 585.966C202.769 586.143 202.757 586.283 202.731 586.384C201.946 589.5 201.313 592.185 200.831 594.44C200.781 594.744 200.755 594.972 200.755 595.124C200.755 595.479 200.831 595.909 200.983 596.416C201.135 596.923 201.211 597.239 201.211 597.366C201.211 597.645 201.009 597.936 200.603 598.24C200.223 598.519 199.869 598.658 199.539 598.658C199.362 598.658 199.197 598.607 199.045 598.506C198.893 598.379 198.754 598.177 198.627 597.898C198.501 597.619 198.399 597.404 198.323 597.252C198.247 597.075 198.146 596.796 198.019 596.416C197.918 596.011 197.855 595.783 197.829 595.732L197.487 594.668L196.499 595.162C196.347 595.289 196.119 595.542 195.815 595.922C195.511 596.277 195.233 596.543 194.979 596.72C194.726 596.897 194.447 596.986 194.143 596.986C193.738 596.986 193.409 596.821 193.155 596.492C192.902 596.163 192.737 595.808 192.661 595.428C192.585 595.023 192.497 594.453 192.395 593.718H192.281ZM204.305 593.718C205.09 589.006 205.559 586.219 205.711 585.358C205.838 584.674 206.167 584.332 206.699 584.332C207.332 584.332 207.649 584.573 207.649 585.054C207.649 585.079 207.611 585.32 207.535 585.776C207.028 588.968 206.674 591.362 206.471 592.958V593.072C206.471 593.173 206.496 593.3 206.547 593.452C206.598 593.579 206.661 593.731 206.737 593.908C206.838 594.06 206.902 594.187 206.927 594.288C206.978 594.237 207.092 594.161 207.269 594.06C207.446 593.933 207.586 593.819 207.687 593.718C207.814 593.617 207.915 593.503 207.991 593.376C208.498 592.489 209.232 591.159 210.195 589.386C211.183 587.613 211.93 586.295 212.437 585.434C212.513 585.257 212.678 585.092 212.931 584.94C213.21 584.763 213.425 584.674 213.577 584.674C213.881 584.674 214.134 584.889 214.337 585.32C214.54 585.725 214.641 586.042 214.641 586.27C214.641 586.473 214.476 587.334 214.147 588.854C213.286 592.603 212.83 594.617 212.779 594.896C212.728 595.099 212.703 595.263 212.703 595.39C212.703 595.694 212.792 596.074 212.969 596.53C213.146 596.986 213.235 597.277 213.235 597.404C213.235 597.683 213.045 597.974 212.665 598.278C212.285 598.582 211.93 598.734 211.601 598.734C211.094 598.734 210.664 598.443 210.309 597.86C209.98 597.252 209.815 596.669 209.815 596.112C209.815 596.036 209.815 595.922 209.815 595.77C209.84 595.618 209.853 595.491 209.853 595.39C209.853 595.314 209.828 595.2 209.777 595.048C209.726 594.896 209.701 594.795 209.701 594.744C209.093 594.896 208.447 595.327 207.763 596.036C207.104 596.72 206.56 597.062 206.129 597.062C205.42 597.062 204.926 596.555 204.647 595.542C204.622 595.441 204.596 595.251 204.571 594.972C204.546 594.668 204.508 594.402 204.457 594.174C204.432 593.946 204.381 593.794 204.305 593.718ZM207.307 580.988C206.978 580.836 206.75 580.659 206.623 580.456C206.623 579.848 207.054 579.379 207.915 579.05C208.27 578.923 209.03 578.632 210.195 578.176C211.386 577.695 212.31 577.34 212.969 577.112C212.994 577.112 213.058 577.087 213.159 577.036C213.26 576.985 213.324 576.96 213.349 576.96C213.476 576.96 213.602 576.973 213.729 576.998C213.881 577.023 214.033 577.061 214.185 577.112C214.337 577.137 214.464 577.163 214.565 577.188C214.514 577.264 214.451 577.403 214.375 577.606C214.324 577.783 214.261 577.935 214.185 578.062C214.134 578.163 214.071 578.239 213.995 578.29C212.272 579.075 210.246 579.949 207.915 580.912C207.89 580.912 207.687 580.937 207.307 580.988ZM137.472 623.858C137.548 623.503 138.029 621.426 138.916 617.626C139.245 616.258 139.498 615.346 139.676 614.89C139.701 614.814 139.764 614.738 139.866 614.662C139.967 614.561 140.081 614.472 140.208 614.396C140.36 614.295 140.461 614.219 140.512 614.168C140.841 614.7 141.006 615.017 141.006 615.118C140.879 615.777 140.512 617.385 139.904 619.944C139.853 620.147 139.752 620.514 139.6 621.046C139.448 621.578 139.321 622.047 139.22 622.452C139.144 622.832 139.106 623.187 139.106 623.516C139.106 623.567 139.118 623.655 139.144 623.782C139.169 623.909 139.182 623.997 139.182 624.048C139.612 623.972 139.853 623.909 139.904 623.858C140.36 623.25 140.968 622.389 141.728 621.274C142.513 620.159 143.096 619.361 143.476 618.88C143.526 618.829 143.894 618.652 144.578 618.348C144.831 618.931 144.958 619.273 144.958 619.374C144.958 619.754 144.856 620.324 144.654 621.084C144.476 621.844 144.388 622.401 144.388 622.756C144.388 622.857 144.426 623.009 144.502 623.212C144.578 623.389 144.616 623.516 144.616 623.592C145.73 623.06 146.718 622.173 147.58 620.932C148.441 619.691 149.087 618.361 149.518 616.942C149.644 616.461 149.885 616.017 150.24 615.612C150.62 615.181 150.949 614.966 151.228 614.966C151.456 614.966 151.684 615.131 151.912 615.46C152.14 615.764 152.254 616.144 152.254 616.6C152.254 616.625 152.241 616.663 152.216 616.714C152.216 616.765 152.216 616.803 152.216 616.828C151.253 622.097 150.721 624.947 150.62 625.378C150.442 626.265 149.898 626.708 148.986 626.708C148.302 626.708 147.896 626.239 147.77 625.302C147.77 625.049 147.808 624.707 147.884 624.276C147.985 623.845 148.048 623.567 148.074 623.44C148.074 623.288 148.048 623.073 147.998 622.794C147.947 622.515 147.922 622.351 147.922 622.3C147.39 622.401 147.035 622.515 146.858 622.642C146.706 622.769 146.376 623.085 145.87 623.592C145.363 624.099 144.945 624.479 144.616 624.732C144.286 624.96 144.008 625.074 143.78 625.074C143.501 625.074 143.26 624.719 143.058 624.01L142.83 622.49C142.526 622.718 142.12 623.111 141.614 623.668C141.462 623.82 141.246 624.086 140.968 624.466C140.689 624.821 140.461 625.087 140.284 625.264C140.132 625.416 139.904 625.581 139.6 625.758C139.321 625.91 139.004 625.986 138.65 625.986C138.447 625.986 138.219 625.809 137.966 625.454C137.712 625.099 137.586 624.707 137.586 624.276C137.586 624.225 137.586 624.162 137.586 624.086C137.611 624.01 137.624 623.959 137.624 623.934C137.573 623.934 137.522 623.909 137.472 623.858ZM154.152 622.452C154.228 621.945 154.38 621.337 154.608 620.628C154.861 619.893 155.19 619.121 155.596 618.31C156.001 617.474 156.546 616.777 157.23 616.22C157.914 615.637 158.636 615.346 159.396 615.346C160.536 615.346 161.106 615.675 161.106 616.334C161.106 616.638 161.03 616.828 160.878 616.904C160.32 617.385 159.839 617.905 159.434 618.462C159.028 618.994 158.686 619.602 158.408 620.286C158.154 620.97 157.964 621.527 157.838 621.958C157.736 622.389 157.597 623.022 157.42 623.858V623.972C157.42 624.149 157.47 624.339 157.572 624.542C157.698 624.719 157.838 624.922 157.99 625.15C158.167 625.378 158.294 625.555 158.37 625.682C158.496 625.631 158.737 625.543 159.092 625.416C159.472 625.289 159.763 625.175 159.966 625.074C160.194 624.947 160.346 624.821 160.422 624.694C162.068 621.831 162.892 619.64 162.892 618.12C162.892 617.867 162.803 617.474 162.626 616.942C162.448 616.385 162.36 615.954 162.36 615.65C162.36 615.245 162.664 614.89 163.272 614.586C163.322 614.637 163.462 614.751 163.69 614.928C163.918 615.105 164.057 615.245 164.108 615.346C164.64 616.587 164.906 617.841 164.906 619.108C164.906 621.059 164.209 622.933 162.816 624.732C161.448 626.531 159.915 627.43 158.218 627.43C156.926 627.43 155.925 626.999 155.216 626.138C154.506 625.277 154.152 624.048 154.152 622.452ZM176.572 609.95C177.281 610.127 177.636 610.583 177.636 611.318C177.636 613.649 176.648 615.941 174.672 618.196L173.38 619.488C174.748 620.121 176.065 621.401 177.332 623.326C178.599 625.251 179.232 626.683 179.232 627.62C179.232 628 179.143 628.367 178.966 628.722C178.814 629.077 178.624 629.254 178.396 629.254C178.168 629.254 178.003 629.102 177.902 628.798C177.193 627.202 176.281 625.758 175.166 624.466C174.051 623.149 172.785 622.49 171.366 622.49C171.087 622.49 170.885 622.503 170.758 622.528C170.353 624.428 169.605 626.771 168.516 629.558C168.491 629.634 168.427 629.697 168.326 629.748C168.25 629.824 168.149 629.887 168.022 629.938C167.921 630.014 167.845 630.077 167.794 630.128C167.769 630.077 167.667 629.951 167.49 629.748C167.338 629.545 167.249 629.393 167.224 629.292C167.199 629.165 167.148 628.811 167.072 628.228C166.996 627.671 166.907 627.265 166.806 627.012C168.503 617.943 169.643 612.078 170.226 609.418L171.062 604.82C171.189 604.085 171.569 603.718 172.202 603.718C173.139 603.718 173.608 604.136 173.608 604.972C173.608 605.023 173.595 605.086 173.57 605.162C173.57 605.238 173.57 605.289 173.57 605.314C173.342 606.783 173.152 608.291 173 609.836C172.873 611.356 172.709 612.8 172.506 614.168C172.43 614.371 172.392 614.548 172.392 614.7C172.392 615.029 172.468 615.447 172.62 615.954C173.101 615.599 173.38 615.346 173.456 615.194C173.583 614.941 173.836 614.282 174.216 613.218C174.621 612.129 174.976 611.305 175.28 610.748C175.609 610.191 175.939 609.912 176.268 609.912C176.293 609.912 176.331 609.925 176.382 609.95C176.458 609.95 176.521 609.95 176.572 609.95ZM179.98 622.452C180.056 621.945 180.208 621.337 180.436 620.628C180.689 619.893 181.018 619.121 181.424 618.31C181.829 617.474 182.374 616.777 183.058 616.22C183.742 615.637 184.464 615.346 185.224 615.346C186.364 615.346 186.934 615.675 186.934 616.334C186.934 616.638 186.858 616.828 186.706 616.904C186.148 617.385 185.667 617.905 185.262 618.462C184.856 618.994 184.514 619.602 184.236 620.286C183.982 620.97 183.792 621.527 183.666 621.958C183.564 622.389 183.425 623.022 183.248 623.858V623.972C183.248 624.149 183.298 624.339 183.4 624.542C183.526 624.719 183.666 624.922 183.818 625.15C183.995 625.378 184.122 625.555 184.198 625.682C184.324 625.631 184.565 625.543 184.92 625.416C185.3 625.289 185.591 625.175 185.794 625.074C186.022 624.947 186.174 624.821 186.25 624.694C187.896 621.831 188.72 619.64 188.72 618.12C188.72 617.867 188.631 617.474 188.454 616.942C188.276 616.385 188.188 615.954 188.188 615.65C188.188 615.245 188.492 614.89 189.1 614.586C189.15 614.637 189.29 614.751 189.518 614.928C189.746 615.105 189.885 615.245 189.936 615.346C190.468 616.587 190.734 617.841 190.734 619.108C190.734 621.059 190.037 622.933 188.644 624.732C187.276 626.531 185.743 627.43 184.046 627.43C182.754 627.43 181.753 626.999 181.044 626.138C180.334 625.277 179.98 624.048 179.98 622.452ZM200.388 625.948C200.337 625.973 200.236 626.049 200.084 626.176C199.957 626.277 199.843 626.366 199.742 626.442C199.666 626.493 199.552 626.543 199.4 626.594C199.248 626.645 199.096 626.67 198.944 626.67C198.285 626.67 197.956 626.303 197.956 625.568C197.956 625.289 197.968 624.884 197.994 624.352C198.019 623.795 198.032 623.364 198.032 623.06C198.032 622.883 197.943 622.591 197.766 622.186C197.74 622.186 197.626 622.237 197.424 622.338C197.221 622.414 197.069 622.49 196.968 622.566C196.689 622.845 196.296 623.275 195.79 623.858C195.308 624.415 194.916 624.859 194.612 625.188C194.333 625.492 193.94 625.859 193.434 626.29C192.927 626.721 192.408 627.088 191.876 627.392C191.952 627.24 192.066 626.974 192.218 626.594C192.37 626.214 192.496 625.923 192.598 625.72L198.222 616.182C198.374 615.827 198.614 615.523 198.944 615.27C199.273 614.991 199.564 614.852 199.818 614.852C199.97 614.852 200.109 614.979 200.236 615.232C200.388 615.485 200.464 615.713 200.464 615.916C200.464 620.223 200.438 623.567 200.388 625.948ZM208.884 614.814C210.48 614.966 211.278 615.713 211.278 617.056C211.278 617.335 211.265 617.55 211.24 617.702C211.113 618.335 210.948 619.589 210.746 621.464C210.543 623.339 210.315 624.783 210.062 625.796C209.808 626.784 209.466 627.278 209.036 627.278C208.605 627.278 208.25 627.025 207.972 626.518C207.693 625.986 207.478 625.467 207.326 624.96C207.199 624.428 207.098 624.162 207.022 624.162L205.996 624.732C205.312 625.112 204.716 625.302 204.21 625.302C203.678 625.302 203.234 625.112 202.88 624.732C202.525 624.352 202.348 623.896 202.348 623.364C202.348 621.971 202.69 620.615 203.374 619.298C204.058 617.981 204.957 616.917 206.072 616.106C206.3 615.903 206.553 615.739 206.832 615.612C207.11 615.46 207.49 615.308 207.972 615.156C208.478 614.979 208.782 614.865 208.884 614.814ZM208.884 618.044C208.554 617.487 208.326 617.183 208.2 617.132C208.124 617.107 208.022 617.094 207.896 617.094C207.389 617.094 207.085 617.183 206.984 617.36C205.21 619.691 204.324 621.274 204.324 622.11C204.324 622.262 204.374 622.439 204.476 622.642C204.577 622.819 204.729 622.908 204.932 622.908C205.337 622.908 205.742 622.68 206.148 622.224C206.578 621.768 207.123 620.983 207.782 619.868C208.466 618.753 208.833 618.145 208.884 618.044ZM222.085 611.584C222.541 611.685 222.769 611.977 222.769 612.458C222.769 612.686 222.731 612.901 222.655 613.104C222.553 613.433 222.325 614.079 221.971 615.042C221.616 615.979 221.375 616.714 221.249 617.246C220.337 620.869 219.412 624.833 218.475 629.14C217.259 634.637 215.663 638.741 213.687 641.452C213.155 642.161 212.496 642.871 211.711 643.58C210.9 644.289 210.292 644.644 209.887 644.644C209.76 644.644 209.659 644.631 209.583 644.606C209.481 644.758 209.355 644.834 209.203 644.834C208.493 644.834 207.987 644.479 207.683 643.77C207.353 643.061 207.163 642.275 207.113 641.414C207.113 640.629 207.176 639.843 207.303 639.058C207.404 638.273 207.619 637.424 207.949 636.512C208.278 635.6 208.544 634.853 208.747 634.27C208.949 633.687 209.342 632.864 209.925 631.8C210.507 630.736 210.887 630.027 211.065 629.672C211.242 629.343 211.685 628.583 212.395 627.392C213.104 626.201 213.497 625.543 213.573 625.416C213.674 625.239 213.788 625.15 213.915 625.15C214.421 625.15 214.675 625.733 214.675 626.898C214.7 627.379 214.573 627.848 214.295 628.304C212.344 631.724 210.887 634.574 209.925 636.854C209.874 636.981 209.773 637.221 209.621 637.576C209.469 637.956 209.355 638.247 209.279 638.45C209.177 638.678 209.076 638.957 208.975 639.286C208.848 639.615 208.759 639.919 208.709 640.198C208.658 640.477 208.633 640.755 208.633 641.034C208.633 641.313 208.823 641.452 209.203 641.452C209.329 641.452 209.456 641.528 209.583 641.68C210.723 640.92 211.711 639.438 212.547 637.234C212.927 636.246 213.269 635.233 213.573 634.194C213.902 633.155 214.295 631.8 214.751 630.128C215.207 628.456 215.498 627.405 215.625 626.974C216.131 625.631 216.385 624.58 216.385 623.82C216.385 623.465 216.22 623.288 215.891 623.288C215.789 623.288 215.561 623.326 215.207 623.402C214.877 623.453 214.649 623.478 214.523 623.478C213.408 623.478 212.851 622.655 212.851 621.008C212.851 620.248 213.066 619.298 213.497 618.158C213.927 617.018 214.51 615.992 215.245 615.08C215.979 614.143 216.714 613.674 217.449 613.674C217.55 613.674 217.727 613.712 217.981 613.788C218.234 613.864 218.424 613.902 218.551 613.902C219.133 613.902 219.716 613.522 220.299 612.762C220.881 611.977 221.477 611.584 222.085 611.584ZM215.435 621.616C217.005 620.248 218.057 618.297 218.589 615.764C218.563 615.713 218.525 615.625 218.475 615.498C218.424 615.346 218.373 615.245 218.323 615.194C218.297 615.118 218.234 615.055 218.133 615.004C218.031 614.928 217.905 614.89 217.753 614.89C217.449 614.89 217.221 614.966 217.069 615.118C215.498 616.689 214.573 618.677 214.295 621.084C214.295 621.616 214.485 621.882 214.865 621.882C215.067 621.882 215.257 621.793 215.435 621.616Z" fill="#FEFEFE"/>
<path d="M1045.56 359.95C1046.27 360.127 1046.63 360.583 1046.63 361.318C1046.63 363.649 1045.64 365.941 1043.66 368.196L1042.37 369.488C1043.74 370.121 1045.06 371.401 1046.32 373.326C1047.59 375.251 1048.22 376.683 1048.22 377.62C1048.22 378 1048.14 378.367 1047.96 378.722C1047.81 379.077 1047.62 379.254 1047.39 379.254C1047.16 379.254 1047 379.102 1046.89 378.798C1046.18 377.202 1045.27 375.758 1044.16 374.466C1043.04 373.149 1041.78 372.49 1040.36 372.49C1040.08 372.49 1039.88 372.503 1039.75 372.528C1039.34 374.428 1038.6 376.771 1037.51 379.558C1037.48 379.634 1037.42 379.697 1037.32 379.748C1037.24 379.824 1037.14 379.887 1037.01 379.938C1036.91 380.014 1036.84 380.077 1036.79 380.128C1036.76 380.077 1036.66 379.951 1036.48 379.748C1036.33 379.545 1036.24 379.393 1036.22 379.292C1036.19 379.165 1036.14 378.811 1036.06 378.228C1035.99 377.671 1035.9 377.265 1035.8 377.012C1037.5 367.943 1038.64 362.078 1039.22 359.418L1040.05 354.82C1040.18 354.085 1040.56 353.718 1041.19 353.718C1042.13 353.718 1042.6 354.136 1042.6 354.972C1042.6 355.023 1042.59 355.086 1042.56 355.162C1042.56 355.238 1042.56 355.289 1042.56 355.314C1042.33 356.783 1042.14 358.291 1041.99 359.836C1041.87 361.356 1041.7 362.8 1041.5 364.168C1041.42 364.371 1041.38 364.548 1041.38 364.7C1041.38 365.029 1041.46 365.447 1041.61 365.954C1042.09 365.599 1042.37 365.346 1042.45 365.194C1042.57 364.941 1042.83 364.282 1043.21 363.218C1043.61 362.129 1043.97 361.305 1044.27 360.748C1044.6 360.191 1044.93 359.912 1045.26 359.912C1045.29 359.912 1045.32 359.925 1045.37 359.95C1045.45 359.95 1045.51 359.95 1045.56 359.95ZM1048.97 372.452C1049.05 371.945 1049.2 371.337 1049.43 370.628C1049.68 369.893 1050.01 369.121 1050.42 368.31C1050.82 367.474 1051.37 366.777 1052.05 366.22C1052.73 365.637 1053.46 365.346 1054.22 365.346C1055.36 365.346 1055.93 365.675 1055.93 366.334C1055.93 366.638 1055.85 366.828 1055.7 366.904C1055.14 367.385 1054.66 367.905 1054.25 368.462C1053.85 368.994 1053.51 369.602 1053.23 370.286C1052.97 370.97 1052.78 371.527 1052.66 371.958C1052.56 372.389 1052.42 373.022 1052.24 373.858V373.972C1052.24 374.149 1052.29 374.339 1052.39 374.542C1052.52 374.719 1052.66 374.922 1052.81 375.15C1052.99 375.378 1053.11 375.555 1053.19 375.682C1053.32 375.631 1053.56 375.543 1053.91 375.416C1054.29 375.289 1054.58 375.175 1054.79 375.074C1055.01 374.947 1055.17 374.821 1055.24 374.694C1056.89 371.831 1057.71 369.64 1057.71 368.12C1057.71 367.867 1057.62 367.474 1057.45 366.942C1057.27 366.385 1057.18 365.954 1057.18 365.65C1057.18 365.245 1057.48 364.89 1058.09 364.586C1058.14 364.637 1058.28 364.751 1058.51 364.928C1058.74 365.105 1058.88 365.245 1058.93 365.346C1059.46 366.587 1059.73 367.841 1059.73 369.108C1059.73 371.059 1059.03 372.933 1057.64 374.732C1056.27 376.531 1054.74 377.43 1053.04 377.43C1051.75 377.43 1050.75 376.999 1050.04 376.138C1049.33 375.277 1048.97 374.048 1048.97 372.452ZM1069.38 375.948C1069.33 375.973 1069.23 376.049 1069.08 376.176C1068.95 376.277 1068.84 376.366 1068.73 376.442C1068.66 376.493 1068.54 376.543 1068.39 376.594C1068.24 376.645 1068.09 376.67 1067.94 376.67C1067.28 376.67 1066.95 376.303 1066.95 375.568C1066.95 375.289 1066.96 374.884 1066.99 374.352C1067.01 373.795 1067.02 373.364 1067.02 373.06C1067.02 372.883 1066.94 372.591 1066.76 372.186C1066.73 372.186 1066.62 372.237 1066.42 372.338C1066.21 372.414 1066.06 372.49 1065.96 372.566C1065.68 372.845 1065.29 373.275 1064.78 373.858C1064.3 374.415 1063.91 374.859 1063.6 375.188C1063.33 375.492 1062.93 375.859 1062.43 376.29C1061.92 376.721 1061.4 377.088 1060.87 377.392C1060.94 377.24 1061.06 376.974 1061.21 376.594C1061.36 376.214 1061.49 375.923 1061.59 375.72L1067.21 366.182C1067.37 365.827 1067.61 365.523 1067.94 365.27C1068.27 364.991 1068.56 364.852 1068.81 364.852C1068.96 364.852 1069.1 364.979 1069.23 365.232C1069.38 365.485 1069.46 365.713 1069.46 365.916C1069.46 370.223 1069.43 373.567 1069.38 375.948ZM1077.88 364.814C1079.47 364.966 1080.27 365.713 1080.27 367.056C1080.27 367.335 1080.26 367.55 1080.23 367.702C1080.11 368.335 1079.94 369.589 1079.74 371.464C1079.54 373.339 1079.31 374.783 1079.05 375.796C1078.8 376.784 1078.46 377.278 1078.03 377.278C1077.6 377.278 1077.24 377.025 1076.96 376.518C1076.69 375.986 1076.47 375.467 1076.32 374.96C1076.19 374.428 1076.09 374.162 1076.01 374.162L1074.99 374.732C1074.3 375.112 1073.71 375.302 1073.2 375.302C1072.67 375.302 1072.23 375.112 1071.87 374.732C1071.52 374.352 1071.34 373.896 1071.34 373.364C1071.34 371.971 1071.68 370.615 1072.37 369.298C1073.05 367.981 1073.95 366.917 1075.06 366.106C1075.29 365.903 1075.55 365.739 1075.82 365.612C1076.1 365.46 1076.48 365.308 1076.96 365.156C1077.47 364.979 1077.77 364.865 1077.88 364.814ZM1077.88 368.044C1077.55 367.487 1077.32 367.183 1077.19 367.132C1077.12 367.107 1077.01 367.094 1076.89 367.094C1076.38 367.094 1076.08 367.183 1075.98 367.36C1074.2 369.691 1073.32 371.274 1073.32 372.11C1073.32 372.262 1073.37 372.439 1073.47 372.642C1073.57 372.819 1073.72 372.908 1073.92 372.908C1074.33 372.908 1074.73 372.68 1075.14 372.224C1075.57 371.768 1076.12 370.983 1076.77 369.868C1077.46 368.753 1077.83 368.145 1077.88 368.044ZM1081.8 381.42C1081.96 381.065 1082.25 380.305 1082.68 379.14C1083.13 378 1083.49 377.139 1083.74 376.556C1083.82 376.455 1083.93 376.379 1084.08 376.328C1084.26 376.252 1084.5 376.189 1084.81 376.138C1085.11 376.062 1085.3 376.011 1085.38 375.986C1085.38 376.113 1085.41 376.328 1085.49 376.632C1085.59 376.936 1085.64 377.164 1085.64 377.316C1085.64 377.443 1085.63 377.531 1085.6 377.582C1085.35 378.317 1085.16 378.836 1085.03 379.14C1084.93 379.444 1084.73 379.913 1084.43 380.546C1084.15 381.205 1083.86 381.673 1083.55 381.952C1083.27 382.231 1082.98 382.37 1082.68 382.37C1082.6 382.345 1082.53 382.281 1082.45 382.18C1082.37 382.079 1082.27 381.952 1082.15 381.8C1082.02 381.648 1081.91 381.521 1081.8 381.42ZM1100.87 365.916C1100.8 366.625 1100.59 367.271 1100.26 367.854C1100.09 367.677 1099.91 367.461 1099.73 367.208C1099.56 366.955 1099.42 366.765 1099.31 366.638C1099.21 366.511 1099.1 366.448 1098.97 366.448C1098.74 366.448 1098.5 366.625 1098.25 366.98C1097.11 368.424 1096.54 370.248 1096.54 372.452C1096.54 373.693 1097.02 374.314 1097.98 374.314C1098.29 374.314 1098.74 374.137 1099.35 373.782C1099.99 373.402 1100.47 373.212 1100.8 373.212C1101.2 373.212 1101.4 373.402 1101.4 373.782C1101.2 374.466 1100.59 375.112 1099.58 375.72C1098.59 376.328 1097.67 376.632 1096.81 376.632C1096.35 376.632 1095.98 376.543 1095.7 376.366C1094.87 375.809 1094.31 375.188 1094.03 374.504C1093.75 373.82 1093.61 372.959 1093.61 371.92C1093.61 368.829 1094.78 366.397 1097.11 364.624C1097.67 364.067 1098.48 363.788 1099.54 363.788C1100.43 363.788 1100.87 364.371 1100.87 365.536V365.916ZM1106.23 374.808C1106.02 375.137 1105.74 375.454 1105.39 375.758C1105.06 376.037 1104.73 376.176 1104.4 376.176C1103.67 376.176 1103.3 375.568 1103.3 374.352C1103.3 373.997 1103.44 371.515 1103.72 366.904C1103.74 366.727 1103.77 366.486 1103.79 366.182C1103.82 365.853 1103.83 365.599 1103.83 365.422C1103.86 365.219 1103.9 364.991 1103.95 364.738C1104 364.459 1104.05 364.244 1104.1 364.092C1104.17 363.94 1104.26 363.788 1104.36 363.636C1104.49 363.484 1104.63 363.37 1104.78 363.294C1104.93 363.218 1105.12 363.18 1105.35 363.18C1105.83 363.18 1106.15 363.319 1106.3 363.598C1106.48 363.851 1106.57 364.244 1106.57 364.776C1106.57 365.156 1106.53 365.713 1106.45 366.448C1106.4 367.157 1106.38 367.677 1106.38 368.006C1106.38 368.183 1106.4 368.424 1106.45 368.728C1106.53 369.032 1106.57 369.247 1106.57 369.374C1107.1 368.842 1107.38 368.551 1107.4 368.5C1107.45 368.348 1107.53 368.158 1107.63 367.93C1107.73 367.702 1107.94 367.297 1108.24 366.714C1108.57 366.106 1108.9 365.574 1109.23 365.118C1109.56 364.662 1109.96 364.257 1110.44 363.902C1110.93 363.522 1111.39 363.332 1111.85 363.332C1112.56 363.332 1113.22 363.775 1113.83 364.662C1114.43 365.523 1114.89 366.473 1115.19 367.512C1115.5 368.525 1115.65 369.399 1115.65 370.134C1115.65 370.995 1115.52 371.857 1115.27 372.718C1115.04 373.554 1114.8 374.238 1114.55 374.77C1114.29 375.277 1114.17 375.581 1114.17 375.682C1114.17 376.29 1114.32 377.025 1114.62 377.886C1114.95 378.747 1115.4 379.178 1115.95 379.178C1116.49 379.178 1116.75 379.393 1116.75 379.824C1116.75 380.305 1116.37 380.546 1115.61 380.546C1114.6 380.546 1113.74 380.153 1113.03 379.368C1112.32 378.583 1111.96 377.443 1111.96 375.948C1111.96 375.365 1112.17 374.225 1112.57 372.528C1112.98 370.831 1113.18 369.741 1113.18 369.26C1113.18 368.348 1112.91 367.892 1112.38 367.892C1111.8 367.892 1110.98 368.475 1109.91 369.64C1108.85 370.78 1107.62 372.503 1106.23 374.808ZM1116.74 385.524L1118.03 375.91C1118.71 371.578 1119.14 368.652 1119.32 367.132C1119.34 366.904 1119.36 366.575 1119.36 366.144C1119.38 365.688 1119.41 365.295 1119.43 364.966C1119.46 364.611 1119.51 364.257 1119.59 363.902C1119.66 363.547 1119.78 363.281 1119.93 363.104C1120.1 362.901 1120.33 362.8 1120.61 362.8C1121.09 362.8 1121.6 363.091 1122.13 363.674C1122.66 364.231 1122.95 364.51 1123.01 364.51C1123.11 364.51 1123.45 364.206 1124.03 363.598C1124.64 362.965 1125.16 362.648 1125.59 362.648C1126.2 362.648 1126.67 362.889 1127 363.37C1127.35 363.826 1127.53 364.345 1127.53 364.928C1127.53 365.992 1127.32 367.284 1126.92 368.804C1126.51 370.299 1125.87 371.692 1124.98 372.984C1124.12 374.276 1123.17 374.922 1122.13 374.922C1121.95 374.922 1121.74 375.011 1121.49 375.188C1121.23 375.34 1121.08 375.517 1121.03 375.72C1120.88 376.48 1120.69 377.683 1120.46 379.33C1120.23 381.002 1119.98 382.459 1119.7 383.7C1119.45 384.941 1119.12 386.107 1118.71 387.196C1118.66 387.297 1118.57 387.399 1118.45 387.5C1118.32 387.627 1118.15 387.753 1117.95 387.88C1117.77 388.007 1117.63 388.108 1117.53 388.184C1117.08 387.399 1116.85 386.803 1116.85 386.398C1116.85 386.322 1116.86 386.183 1116.89 385.98C1116.89 385.777 1116.89 385.625 1116.89 385.524H1116.74ZM1124.26 371.236C1125.32 369.032 1125.96 366.993 1126.16 365.118C1126.16 364.915 1126.07 364.738 1125.89 364.586C1125.72 364.434 1125.56 364.358 1125.44 364.358C1125.26 364.358 1125.06 364.459 1124.83 364.662C1124.63 364.865 1124.42 365.156 1124.22 365.536C1124.02 365.891 1123.84 366.233 1123.69 366.562C1123.54 366.891 1123.36 367.284 1123.16 367.74C1122.95 368.196 1122.82 368.513 1122.74 368.69C1122.74 368.715 1122.73 368.753 1122.7 368.804C1122.7 368.829 1122.7 368.855 1122.7 368.88C1122.7 369.032 1122.73 369.197 1122.78 369.374C1122.83 369.526 1122.92 369.691 1123.04 369.868C1123.2 370.045 1123.31 370.185 1123.39 370.286C1123.46 370.387 1123.6 370.552 1123.8 370.78C1124.03 371.008 1124.18 371.16 1124.26 371.236ZM1135.21 364.814C1136.81 364.966 1137.6 365.713 1137.6 367.056C1137.6 367.335 1137.59 367.55 1137.57 367.702C1137.44 368.335 1137.27 369.589 1137.07 371.464C1136.87 373.339 1136.64 374.783 1136.39 375.796C1136.13 376.784 1135.79 377.278 1135.36 377.278C1134.93 377.278 1134.58 377.025 1134.3 376.518C1134.02 375.986 1133.8 375.467 1133.65 374.96C1133.53 374.428 1133.42 374.162 1133.35 374.162L1132.32 374.732C1131.64 375.112 1131.04 375.302 1130.54 375.302C1130 375.302 1129.56 375.112 1129.21 374.732C1128.85 374.352 1128.67 373.896 1128.67 373.364C1128.67 371.971 1129.02 370.615 1129.7 369.298C1130.38 367.981 1131.28 366.917 1132.4 366.106C1132.63 365.903 1132.88 365.739 1133.16 365.612C1133.44 365.46 1133.82 365.308 1134.3 365.156C1134.8 364.979 1135.11 364.865 1135.21 364.814ZM1135.21 368.044C1134.88 367.487 1134.65 367.183 1134.53 367.132C1134.45 367.107 1134.35 367.094 1134.22 367.094C1133.72 367.094 1133.41 367.183 1133.31 367.36C1131.54 369.691 1130.65 371.274 1130.65 372.11C1130.65 372.262 1130.7 372.439 1130.8 372.642C1130.9 372.819 1131.06 372.908 1131.26 372.908C1131.66 372.908 1132.07 372.68 1132.47 372.224C1132.9 371.768 1133.45 370.983 1134.11 369.868C1134.79 368.753 1135.16 368.145 1135.21 368.044ZM1139.52 372.718C1140.3 368.006 1140.77 365.219 1140.92 364.358C1141.05 363.674 1141.38 363.332 1141.91 363.332C1142.55 363.332 1142.86 363.573 1142.86 364.054C1142.86 364.079 1142.82 364.32 1142.75 364.776C1142.24 367.968 1141.89 370.362 1141.68 371.958V372.072C1141.68 372.173 1141.71 372.3 1141.76 372.452C1141.81 372.579 1141.87 372.731 1141.95 372.908C1142.05 373.06 1142.12 373.187 1142.14 373.288C1142.19 373.237 1142.31 373.161 1142.48 373.06C1142.66 372.933 1142.8 372.819 1142.9 372.718C1143.03 372.617 1143.13 372.503 1143.2 372.376C1143.71 371.489 1144.45 370.159 1145.41 368.386C1146.4 366.613 1147.14 365.295 1147.65 364.434C1147.73 364.257 1147.89 364.092 1148.14 363.94C1148.42 363.763 1148.64 363.674 1148.79 363.674C1149.09 363.674 1149.35 363.889 1149.55 364.32C1149.75 364.725 1149.85 365.042 1149.85 365.27C1149.85 365.473 1149.69 366.334 1149.36 367.854C1148.5 371.603 1148.04 373.617 1147.99 373.896C1147.94 374.099 1147.92 374.263 1147.92 374.39C1147.92 374.694 1148.01 375.074 1148.18 375.53C1148.36 375.986 1148.45 376.277 1148.45 376.404C1148.45 376.683 1148.26 376.974 1147.88 377.278C1147.5 377.582 1147.14 377.734 1146.81 377.734C1146.31 377.734 1145.88 377.443 1145.52 376.86C1145.19 376.252 1145.03 375.669 1145.03 375.112C1145.03 375.036 1145.03 374.922 1145.03 374.77C1145.05 374.618 1145.07 374.491 1145.07 374.39C1145.07 374.314 1145.04 374.2 1144.99 374.048C1144.94 373.896 1144.91 373.795 1144.91 373.744C1144.31 373.896 1143.66 374.327 1142.98 375.036C1142.32 375.72 1141.77 376.062 1141.34 376.062C1140.63 376.062 1140.14 375.555 1139.86 374.542C1139.84 374.441 1139.81 374.251 1139.78 373.972C1139.76 373.668 1139.72 373.402 1139.67 373.174C1139.65 372.946 1139.59 372.794 1139.52 372.718ZM1142.52 359.988C1142.19 359.836 1141.96 359.659 1141.84 359.456C1141.84 358.848 1142.27 358.379 1143.13 358.05C1143.48 357.923 1144.24 357.632 1145.41 357.176C1146.6 356.695 1147.52 356.34 1148.18 356.112C1148.21 356.112 1148.27 356.087 1148.37 356.036C1148.47 355.985 1148.54 355.96 1148.56 355.96C1148.69 355.96 1148.82 355.973 1148.94 355.998C1149.09 356.023 1149.25 356.061 1149.4 356.112C1149.55 356.137 1149.68 356.163 1149.78 356.188C1149.73 356.264 1149.66 356.403 1149.59 356.606C1149.54 356.783 1149.47 356.935 1149.4 357.062C1149.35 357.163 1149.28 357.239 1149.21 357.29C1147.49 358.075 1145.46 358.949 1143.13 359.912C1143.1 359.912 1142.9 359.937 1142.52 359.988ZM1166.21 368.842C1166.04 369.526 1165.81 370.552 1165.53 371.92C1165.28 373.263 1165.01 374.466 1164.73 375.53C1164.45 376.594 1164.14 377.531 1163.78 378.342C1163.76 378.443 1163.69 378.532 1163.59 378.608C1163.52 378.709 1163.39 378.811 1163.21 378.912C1163.06 379.039 1162.96 379.127 1162.91 379.178C1162.88 379.102 1162.79 378.937 1162.64 378.684C1162.49 378.431 1162.41 378.241 1162.41 378.114C1162.54 377.43 1162.76 376.467 1163.06 375.226C1163.39 373.959 1163.57 373.25 1163.59 373.098L1164.43 369.374C1164.43 369.349 1164.39 369.108 1164.31 368.652C1164.26 368.677 1164.18 368.703 1164.05 368.728C1163.95 368.728 1163.86 368.741 1163.78 368.766C1163.71 368.791 1163.64 368.829 1163.59 368.88C1163.06 369.463 1162.36 370.387 1161.5 371.654C1160.64 372.921 1160.07 373.744 1159.79 374.124C1159.69 374.251 1159.31 374.453 1158.65 374.732C1158.4 374.149 1158.27 373.807 1158.27 373.706C1158.27 373.326 1158.36 372.731 1158.54 371.92C1158.72 371.109 1158.8 370.514 1158.8 370.134C1158.8 370.109 1158.73 369.792 1158.58 369.184C1156.04 370.805 1154.32 373.136 1153.41 376.176C1153.23 376.733 1152.97 377.24 1152.61 377.696C1152.26 378.127 1151.93 378.342 1151.62 378.342C1151.37 378.342 1151.13 378.177 1150.9 377.848C1150.7 377.493 1150.6 377.063 1150.6 376.556V376.29C1151 373.833 1151.56 370.805 1152.27 367.208C1152.45 366.347 1153.05 365.916 1154.09 365.916C1154.83 365.916 1155.19 366.473 1155.19 367.588C1155.19 367.791 1155.16 368.107 1155.08 368.538C1155 368.943 1154.97 369.26 1154.97 369.488C1154.97 369.615 1154.99 369.805 1155.04 370.058C1155.09 370.311 1155.12 370.489 1155.12 370.59C1155.19 370.565 1155.37 370.514 1155.65 370.438C1155.95 370.337 1156.16 370.235 1156.26 370.134C1156.51 369.957 1156.87 369.64 1157.32 369.184C1157.78 368.703 1158.18 368.323 1158.54 368.044C1158.92 367.765 1159.26 367.626 1159.56 367.626C1159.79 367.626 1159.98 367.93 1160.13 368.538C1160.31 369.146 1160.43 369.754 1160.48 370.362C1160.63 370.185 1160.84 369.982 1161.12 369.754C1161.43 369.501 1161.64 369.298 1161.77 369.146C1161.9 368.994 1162.11 368.715 1162.41 368.31C1162.74 367.879 1162.98 367.588 1163.14 367.436C1163.29 367.259 1163.53 367.081 1163.86 366.904C1164.19 366.727 1164.54 366.638 1164.92 366.638C1165.13 366.638 1165.35 366.828 1165.61 367.208C1165.86 367.563 1165.99 367.981 1165.99 368.462V368.804H1166.06C1166.11 368.829 1166.16 368.842 1166.21 368.842ZM1082.51 392.788C1083.05 393.295 1083.31 393.915 1083.31 394.65C1083.31 395.005 1083.17 395.689 1082.89 396.702C1082.19 399.235 1080.46 401.819 1077.73 404.454L1077.65 404.568C1077.6 404.644 1077.55 404.707 1077.5 404.758C1077.45 404.783 1077.36 404.821 1077.23 404.872C1077.11 404.897 1076.95 404.91 1076.78 404.91C1075.86 404.91 1075.24 403.846 1074.91 401.718C1074.18 404.505 1073.6 406.848 1073.17 408.748C1072.79 410.319 1072.6 411.598 1072.6 412.586C1072.6 412.89 1072.65 413.346 1072.75 413.954C1072.85 414.562 1072.9 415.031 1072.9 415.36C1072.9 416.297 1072.61 417.247 1072.03 418.21C1071.44 419.198 1070.75 419.692 1069.94 419.692C1069.66 419.692 1069.37 419.439 1069.06 418.932C1068.78 418.451 1068.64 418.058 1068.64 417.754C1068.7 416.538 1068.83 415.208 1069.06 413.764C1069.29 412.32 1069.52 411.104 1069.75 410.116C1069.97 409.153 1070.3 407.811 1070.73 406.088C1071.17 404.365 1071.47 403.124 1071.65 402.364V402.136C1071.65 402.035 1071.62 401.807 1071.57 401.452C1071.47 401.503 1071.33 401.553 1071.15 401.604C1070.98 401.655 1070.86 401.693 1070.81 401.718C1070.73 401.769 1070.58 401.895 1070.35 402.098C1070.13 402.301 1069.9 402.478 1069.67 402.63C1069.47 402.782 1069.28 402.858 1069.1 402.858C1068.8 402.858 1068.56 402.731 1068.38 402.478C1068.2 402.225 1068.05 401.895 1067.92 401.49C1067.8 401.085 1067.72 400.857 1067.69 400.806C1067.85 399.767 1068.04 398.754 1068.26 397.766C1068.49 396.753 1068.78 395.714 1069.14 394.65C1069.49 393.586 1069.94 392.725 1070.47 392.066C1071.03 391.407 1071.62 391.078 1072.25 391.078C1072.36 391.078 1072.51 391.116 1072.71 391.192C1072.94 391.243 1073.12 391.268 1073.24 391.268C1073.5 391.268 1073.94 391.179 1074.57 391.002C1075.21 390.825 1075.7 390.736 1076.05 390.736C1076.36 390.736 1076.59 390.926 1076.74 391.306C1076.92 391.686 1077 392.091 1077 392.522V392.75C1077.51 392.902 1077.83 392.978 1077.95 392.978C1078.33 392.978 1078.85 392.851 1079.51 392.598C1080.2 392.319 1080.72 392.18 1081.07 392.18C1081.55 392.18 1082.03 392.383 1082.51 392.788ZM1080.01 399.21C1080.61 398.07 1081.22 396.664 1081.83 394.992C1081.68 394.029 1081.31 393.548 1080.73 393.548C1080.5 393.548 1080.21 393.624 1079.85 393.776C1078.89 394.207 1078.12 394.853 1077.54 395.714C1076.98 396.575 1076.7 397.538 1076.7 398.602C1076.7 398.982 1076.88 399.21 1077.23 399.286C1077.61 399.337 1077.8 399.425 1077.8 399.552C1077.8 399.653 1077.66 400.021 1077.38 400.654C1077.13 401.262 1077 401.769 1077 402.174C1077.11 402.149 1077.23 402.136 1077.38 402.136C1077.54 402.111 1077.65 402.085 1077.73 402.06C1077.83 402.035 1077.9 401.984 1077.95 401.908C1079.07 400.616 1079.75 399.717 1080.01 399.21ZM1070.28 399.78C1071.65 398.285 1072.61 396.525 1073.17 394.498C1073.12 394.397 1073 394.169 1072.82 393.814C1072.65 393.459 1072.52 393.181 1072.44 392.978C1072.34 393.054 1072.17 393.168 1071.91 393.32C1071.68 393.447 1071.49 393.573 1071.34 393.7C1071.22 393.827 1071.13 393.953 1071.08 394.08C1070.52 395.625 1069.97 397.31 1069.44 399.134C1069.44 399.235 1069.48 399.4 1069.56 399.628C1069.66 399.831 1069.71 399.945 1069.71 399.97C1070.06 399.919 1070.25 399.856 1070.28 399.78ZM1090.98 393.814C1092.57 393.966 1093.37 394.713 1093.37 396.056C1093.37 396.335 1093.36 396.55 1093.33 396.702C1093.2 397.335 1093.04 398.589 1092.84 400.464C1092.63 402.339 1092.41 403.783 1092.15 404.796C1091.9 405.784 1091.56 406.278 1091.13 406.278C1090.7 406.278 1090.34 406.025 1090.06 405.518C1089.78 404.986 1089.57 404.467 1089.42 403.96C1089.29 403.428 1089.19 403.162 1089.11 403.162L1088.09 403.732C1087.4 404.112 1086.81 404.302 1086.3 404.302C1085.77 404.302 1085.33 404.112 1084.97 403.732C1084.62 403.352 1084.44 402.896 1084.44 402.364C1084.44 400.971 1084.78 399.615 1085.47 398.298C1086.15 396.981 1087.05 395.917 1088.16 395.106C1088.39 394.903 1088.64 394.739 1088.92 394.612C1089.2 394.46 1089.58 394.308 1090.06 394.156C1090.57 393.979 1090.87 393.865 1090.98 393.814ZM1090.98 397.044C1090.65 396.487 1090.42 396.183 1090.29 396.132C1090.22 396.107 1090.11 396.094 1089.99 396.094C1089.48 396.094 1089.18 396.183 1089.08 396.36C1087.3 398.691 1086.42 400.274 1086.42 401.11C1086.42 401.262 1086.47 401.439 1086.57 401.642C1086.67 401.819 1086.82 401.908 1087.02 401.908C1087.43 401.908 1087.83 401.68 1088.24 401.224C1088.67 400.768 1089.21 399.983 1089.87 398.868C1090.56 397.753 1090.92 397.145 1090.98 397.044ZM1106.3 394.916H1106.38C1106.61 394.916 1106.72 395.106 1106.72 395.486C1106.72 395.917 1106.39 396.385 1105.73 396.892C1105.08 397.373 1104.71 397.829 1104.63 398.26C1104.18 400.92 1103.76 403.479 1103.38 405.936C1103.38 405.987 1103.37 406.037 1103.34 406.088C1103.34 406.139 1103.34 406.189 1103.34 406.24C1103.34 406.519 1103.43 406.886 1103.61 407.342C1103.81 407.823 1103.91 408.127 1103.91 408.254C1103.91 408.609 1103.75 408.938 1103.42 409.242C1103.09 409.571 1102.76 409.736 1102.43 409.736C1102.05 409.736 1101.72 409.483 1101.44 408.976C1101.16 408.469 1101.02 407.975 1101.02 407.494C1101.02 406.886 1101.06 406.24 1101.14 405.556C1101.24 404.847 1101.36 404.061 1101.52 403.2C1101.67 402.339 1101.77 401.68 1101.82 401.224C1101.85 401.021 1101.92 400.603 1102.05 399.97C1102.18 399.337 1102.24 398.881 1102.24 398.602C1102.24 398.146 1101.93 397.918 1101.33 397.918H1101.14C1099.84 397.943 1099.06 398.07 1098.78 398.298C1098.53 398.501 1098.27 399.21 1098.02 400.426C1097.51 403.061 1097.26 404.91 1097.26 405.974C1097.26 406.177 1097.29 406.519 1097.34 407C1097.41 407.481 1097.45 407.836 1097.45 408.064C1097.45 408.849 1097.17 409.242 1096.61 409.242C1095.73 409.242 1095.28 408.292 1095.28 406.392C1095.28 405.759 1095.32 405.113 1095.4 404.454C1095.47 403.795 1095.61 402.934 1095.82 401.87C1096.02 400.781 1096.13 400.122 1096.16 399.894C1096.21 399.489 1096.23 399.172 1096.23 398.944C1096.23 398.437 1096.17 397.88 1096.04 397.272C1095.92 396.664 1095.85 396.347 1095.85 396.322C1095.85 396.246 1095.88 396.208 1095.93 396.208C1096.82 396.208 1097.26 395.397 1097.26 393.776C1097.26 393.269 1097.07 393.003 1096.69 392.978C1096.89 392.573 1097.18 392.053 1097.56 391.42C1097.97 390.761 1098.24 390.305 1098.36 390.052C1098.51 389.976 1098.69 389.938 1098.89 389.938C1099.07 389.938 1099.25 390.052 1099.43 390.28C1099.63 390.483 1099.73 390.685 1099.73 390.888C1099.53 392.763 1099.34 394.169 1099.16 395.106C1099.11 395.359 1099.08 395.537 1099.08 395.638C1099.08 395.917 1099.19 396.107 1099.39 396.208C1099.59 396.309 1099.93 396.36 1100.41 396.36C1101.23 396.36 1101.82 396.259 1102.2 396.056C1102.61 395.853 1102.85 395.473 1102.92 394.916C1102.95 394.713 1103 394.169 1103.07 393.282C1103.18 392.395 1103.26 391.724 1103.34 391.268C1103.42 390.812 1103.52 390.267 1103.64 389.634C1103.8 388.975 1103.97 388.494 1104.18 388.19C1104.4 387.886 1104.67 387.734 1104.97 387.734C1105.25 387.734 1105.48 387.835 1105.66 388.038C1105.84 388.241 1105.92 388.507 1105.92 388.836C1105.92 389.444 1105.82 390.356 1105.62 391.572C1105.42 392.763 1105.32 393.649 1105.32 394.232C1105.32 394.739 1105.51 394.992 1105.89 394.992C1105.96 394.992 1106.1 394.967 1106.3 394.916ZM1123.09 397.842C1122.92 398.526 1122.69 399.552 1122.41 400.92C1122.16 402.263 1121.89 403.466 1121.61 404.53C1121.33 405.594 1121.02 406.531 1120.66 407.342C1120.64 407.443 1120.57 407.532 1120.47 407.608C1120.4 407.709 1120.27 407.811 1120.09 407.912C1119.94 408.039 1119.84 408.127 1119.79 408.178C1119.76 408.102 1119.67 407.937 1119.52 407.684C1119.37 407.431 1119.29 407.241 1119.29 407.114C1119.42 406.43 1119.64 405.467 1119.94 404.226C1120.27 402.959 1120.45 402.25 1120.47 402.098L1121.31 398.374C1121.31 398.349 1121.27 398.108 1121.19 397.652C1121.14 397.677 1121.05 397.703 1120.93 397.728C1120.83 397.728 1120.74 397.741 1120.66 397.766C1120.59 397.791 1120.52 397.829 1120.47 397.88C1119.94 398.463 1119.24 399.387 1118.38 400.654C1117.52 401.921 1116.95 402.744 1116.67 403.124C1116.57 403.251 1116.19 403.453 1115.53 403.732C1115.28 403.149 1115.15 402.807 1115.15 402.706C1115.15 402.326 1115.24 401.731 1115.42 400.92C1115.59 400.109 1115.68 399.514 1115.68 399.134C1115.68 399.109 1115.61 398.792 1115.46 398.184C1112.92 399.805 1111.2 402.136 1110.29 405.176C1110.11 405.733 1109.84 406.24 1109.49 406.696C1109.13 407.127 1108.81 407.342 1108.5 407.342C1108.25 407.342 1108.01 407.177 1107.78 406.848C1107.58 406.493 1107.48 406.063 1107.48 405.556V405.29C1107.88 402.833 1108.44 399.805 1109.15 396.208C1109.32 395.347 1109.93 394.916 1110.97 394.916C1111.71 394.916 1112.07 395.473 1112.07 396.588C1112.07 396.791 1112.04 397.107 1111.96 397.538C1111.88 397.943 1111.85 398.26 1111.85 398.488C1111.85 398.615 1111.87 398.805 1111.92 399.058C1111.97 399.311 1112 399.489 1112 399.59C1112.07 399.565 1112.25 399.514 1112.53 399.438C1112.83 399.337 1113.04 399.235 1113.14 399.134C1113.39 398.957 1113.75 398.64 1114.2 398.184C1114.66 397.703 1115.06 397.323 1115.42 397.044C1115.8 396.765 1116.14 396.626 1116.44 396.626C1116.67 396.626 1116.86 396.93 1117.01 397.538C1117.19 398.146 1117.3 398.754 1117.36 399.362C1117.51 399.185 1117.72 398.982 1118 398.754C1118.31 398.501 1118.52 398.298 1118.65 398.146C1118.77 397.994 1118.99 397.715 1119.29 397.31C1119.62 396.879 1119.86 396.588 1120.02 396.436C1120.17 396.259 1120.41 396.081 1120.74 395.904C1121.07 395.727 1121.42 395.638 1121.8 395.638C1122 395.638 1122.23 395.828 1122.49 396.208C1122.74 396.563 1122.87 396.981 1122.87 397.462V397.804H1122.94C1122.99 397.829 1123.04 397.842 1123.09 397.842ZM1130.76 393.814C1132.35 393.966 1133.15 394.713 1133.15 396.056C1133.15 396.335 1133.14 396.55 1133.11 396.702C1132.99 397.335 1132.82 398.589 1132.62 400.464C1132.42 402.339 1132.19 403.783 1131.93 404.796C1131.68 405.784 1131.34 406.278 1130.91 406.278C1130.48 406.278 1130.12 406.025 1129.84 405.518C1129.57 404.986 1129.35 404.467 1129.2 403.96C1129.07 403.428 1128.97 403.162 1128.89 403.162L1127.87 403.732C1127.18 404.112 1126.59 404.302 1126.08 404.302C1125.55 404.302 1125.11 404.112 1124.75 403.732C1124.4 403.352 1124.22 402.896 1124.22 402.364C1124.22 400.971 1124.56 399.615 1125.25 398.298C1125.93 396.981 1126.83 395.917 1127.94 395.106C1128.17 394.903 1128.43 394.739 1128.7 394.612C1128.98 394.46 1129.36 394.308 1129.84 394.156C1130.35 393.979 1130.66 393.865 1130.76 393.814ZM1130.76 397.044C1130.43 396.487 1130.2 396.183 1130.07 396.132C1130 396.107 1129.9 396.094 1129.77 396.094C1129.26 396.094 1128.96 396.183 1128.86 396.36C1127.08 398.691 1126.2 400.274 1126.2 401.11C1126.2 401.262 1126.25 401.439 1126.35 401.642C1126.45 401.819 1126.6 401.908 1126.8 401.908C1127.21 401.908 1127.62 401.68 1128.02 401.224C1128.45 400.768 1129 399.983 1129.65 398.868C1130.34 397.753 1130.71 397.145 1130.76 397.044Z" fill="#FEFEFE"/>
<path d="M737.18 570.814C738.776 570.966 739.574 571.713 739.574 573.056C739.574 573.335 739.561 573.55 739.536 573.702C739.409 574.335 739.244 575.589 739.042 577.464C738.839 579.339 738.611 580.783 738.358 581.796C738.104 582.784 737.762 583.278 737.332 583.278C736.901 583.278 736.546 583.025 736.268 582.518C735.989 581.986 735.774 581.467 735.622 580.96C735.495 580.428 735.394 580.162 735.318 580.162L734.292 580.732C733.608 581.112 733.012 581.302 732.506 581.302C731.974 581.302 731.53 581.112 731.176 580.732C730.821 580.352 730.644 579.896 730.644 579.364C730.644 577.971 730.986 576.615 731.67 575.298C732.354 573.981 733.253 572.917 734.368 572.106C734.596 571.903 734.849 571.739 735.128 571.612C735.406 571.46 735.786 571.308 736.268 571.156C736.774 570.979 737.078 570.865 737.18 570.814ZM737.18 574.044C736.85 573.487 736.622 573.183 736.496 573.132C736.42 573.107 736.318 573.094 736.192 573.094C735.685 573.094 735.381 573.183 735.28 573.36C733.506 575.691 732.62 577.274 732.62 578.11C732.62 578.262 732.67 578.439 732.772 578.642C732.873 578.819 733.025 578.908 733.228 578.908C733.633 578.908 734.038 578.68 734.444 578.224C734.874 577.768 735.419 576.983 736.078 575.868C736.762 574.753 737.129 574.145 737.18 574.044ZM740.331 586.356C740.356 586.103 740.394 585.697 740.445 585.14C740.47 584.583 740.495 584.139 740.521 583.81C740.546 583.481 740.597 583.088 740.673 582.632C740.749 582.176 740.85 581.771 740.977 581.416C741.661 579.237 742.813 576.4 744.435 572.904C744.739 572.22 745.245 571.574 745.955 570.966C746.689 570.333 747.297 570.016 747.779 570.016C748.488 570.016 749.02 570.497 749.375 571.46C749.729 572.423 749.945 573.537 750.021 574.804C750.021 575.209 749.945 575.817 749.793 576.628C749.666 577.439 749.603 578.034 749.603 578.414C749.603 578.642 749.641 578.895 749.717 579.174C750.375 578.946 750.755 578.781 750.857 578.68C751.11 578.376 751.515 577.857 752.073 577.122C752.63 576.362 753.099 575.741 753.479 575.26C753.859 574.779 754.302 574.335 754.809 573.93C755.315 573.525 755.771 573.322 756.177 573.322C756.379 573.322 756.582 573.525 756.785 573.93C756.987 574.335 757.089 574.652 757.089 574.88C757.089 575.564 757.038 576.273 756.937 577.008C756.861 577.743 756.721 578.642 756.519 579.706C756.341 580.745 756.227 581.441 756.177 581.796C755.999 582.809 755.797 583.519 755.569 583.924C755.341 584.304 754.948 584.494 754.391 584.494C753.453 584.494 752.985 584.076 752.985 583.24C752.985 582.936 753.048 582.467 753.175 581.834C753.301 581.201 753.365 580.707 753.365 580.352C753.365 580.276 753.339 580.162 753.289 580.01C753.238 579.833 753.213 579.706 753.213 579.63C752.807 579.681 752.554 579.757 752.453 579.858C752.174 580.111 751.667 580.605 750.933 581.34C750.198 582.075 749.565 582.645 749.033 583.05C748.501 583.455 748.057 583.658 747.703 583.658C747.348 583.658 747.057 583.544 746.829 583.316C746.626 583.063 746.525 582.797 746.525 582.518C746.525 582.265 746.677 581.707 746.981 580.846C747.817 578.414 748.235 576.273 748.235 574.424C748.235 574.196 748.209 573.981 748.159 573.778C748.133 573.575 748.095 573.423 748.045 573.322C748.019 573.221 747.956 573.056 747.855 572.828C747.753 572.6 747.677 572.435 747.627 572.334C747.525 572.385 747.361 572.473 747.133 572.6C746.905 572.727 746.715 572.841 746.563 572.942C746.436 573.043 746.347 573.157 746.297 573.284C745.562 574.855 744.574 577.135 743.333 580.124C742.117 583.088 741.23 585.203 740.673 586.47C740.622 586.47 740.571 586.445 740.521 586.394C740.445 586.369 740.381 586.356 740.331 586.356ZM759.004 579.896C759.029 578.857 759.156 577.743 759.384 576.552C759.637 575.361 759.979 574.196 760.41 573.056C760.841 571.891 761.423 570.928 762.158 570.168C762.918 569.408 763.741 569.028 764.628 569.028C765.287 569.028 765.831 569.231 766.262 569.636C766.693 570.016 766.908 570.561 766.908 571.27C766.908 572.106 766.224 573.537 764.856 575.564C764.653 575.919 764.121 576.501 763.26 577.312C762.424 578.097 762.006 578.845 762.006 579.554C762.006 580.466 762.183 581.023 762.538 581.226C762.741 581.353 763.007 581.416 763.336 581.416C763.539 581.391 763.868 581.302 764.324 581.15C764.78 580.973 765.122 580.884 765.35 580.884C765.755 580.884 765.958 581.074 765.958 581.454C765.958 582.189 765.527 582.847 764.666 583.43C763.83 583.987 763.007 584.266 762.196 584.266C761.664 584.266 761.208 584.177 760.828 584C760.448 583.848 760.144 583.658 759.916 583.43C759.713 583.177 759.536 582.847 759.384 582.442C759.257 582.011 759.169 581.619 759.118 581.264C759.067 580.909 759.029 580.453 759.004 579.896ZM765.426 572.106C765.097 571.473 764.856 571.156 764.704 571.156C764.577 571.156 764.451 571.232 764.324 571.384C764.197 571.511 764.058 571.726 763.906 572.03C763.779 572.334 763.678 572.587 763.602 572.79C763.526 572.993 763.412 573.284 763.26 573.664C763.133 574.044 763.07 574.247 763.07 574.272C763.07 574.323 763.121 574.424 763.222 574.576C763.323 574.728 763.399 574.804 763.45 574.804C763.551 574.804 763.64 574.779 763.716 574.728C763.817 574.652 763.919 574.551 764.02 574.424C764.147 574.297 764.248 574.171 764.324 574.044C764.425 573.917 764.527 573.753 764.628 573.55C764.755 573.347 764.856 573.183 764.932 573.056C765.008 572.904 765.097 572.727 765.198 572.524C765.299 572.321 765.375 572.182 765.426 572.106ZM766.91 591.524L768.202 581.91C768.886 577.578 769.317 574.652 769.494 573.132C769.519 572.904 769.532 572.575 769.532 572.144C769.557 571.688 769.583 571.295 769.608 570.966C769.633 570.611 769.684 570.257 769.76 569.902C769.836 569.547 769.95 569.281 770.102 569.104C770.279 568.901 770.507 568.8 770.786 568.8C771.267 568.8 771.774 569.091 772.306 569.674C772.838 570.231 773.129 570.51 773.18 570.51C773.281 570.51 773.623 570.206 774.206 569.598C774.814 568.965 775.333 568.648 775.764 568.648C776.372 568.648 776.841 568.889 777.17 569.37C777.525 569.826 777.702 570.345 777.702 570.928C777.702 571.992 777.499 573.284 777.094 574.804C776.689 576.299 776.043 577.692 775.156 578.984C774.295 580.276 773.345 580.922 772.306 580.922C772.129 580.922 771.913 581.011 771.66 581.188C771.407 581.34 771.255 581.517 771.204 581.72C771.052 582.48 770.862 583.683 770.634 585.33C770.406 587.002 770.153 588.459 769.874 589.7C769.621 590.941 769.291 592.107 768.886 593.196C768.835 593.297 768.747 593.399 768.62 593.5C768.493 593.627 768.329 593.753 768.126 593.88C767.949 594.007 767.809 594.108 767.708 594.184C767.252 593.399 767.024 592.803 767.024 592.398C767.024 592.322 767.037 592.183 767.062 591.98C767.062 591.777 767.062 591.625 767.062 591.524H766.91ZM774.434 577.236C775.498 575.032 776.131 572.993 776.334 571.118C776.334 570.915 776.245 570.738 776.068 570.586C775.891 570.434 775.739 570.358 775.612 570.358C775.435 570.358 775.232 570.459 775.004 570.662C774.801 570.865 774.599 571.156 774.396 571.536C774.193 571.891 774.016 572.233 773.864 572.562C773.712 572.891 773.535 573.284 773.332 573.74C773.129 574.196 772.99 574.513 772.914 574.69C772.914 574.715 772.901 574.753 772.876 574.804C772.876 574.829 772.876 574.855 772.876 574.88C772.876 575.032 772.901 575.197 772.952 575.374C773.003 575.526 773.091 575.691 773.218 575.868C773.37 576.045 773.484 576.185 773.56 576.286C773.636 576.387 773.775 576.552 773.978 576.78C774.206 577.008 774.358 577.16 774.434 577.236ZM779.229 578.718C779.913 574.386 780.381 571.574 780.635 570.282C780.761 569.547 781.141 569.18 781.775 569.18C782.332 569.18 782.611 569.395 782.611 569.826C782.611 569.927 782.547 570.231 782.421 570.738C782.294 571.65 782.104 572.98 781.851 574.728C781.597 576.476 781.445 577.515 781.395 577.844C781.395 578.021 781.458 578.262 781.585 578.566C781.737 578.87 781.825 579.073 781.851 579.174C782.408 578.845 782.737 578.579 782.839 578.376C783.117 577.869 784.599 575.222 787.285 570.434C787.665 569.801 788.019 569.484 788.349 569.484C788.779 569.484 789.109 569.636 789.337 569.94C789.59 570.244 789.717 570.586 789.717 570.966C789.717 571.143 789.704 571.283 789.679 571.384C788.893 574.5 788.26 577.185 787.779 579.44C787.728 579.744 787.703 579.972 787.703 580.124C787.703 580.479 787.779 580.909 787.931 581.416C788.083 581.923 788.159 582.239 788.159 582.366C788.159 582.645 787.956 582.936 787.551 583.24C787.171 583.519 786.816 583.658 786.487 583.658C786.309 583.658 786.145 583.607 785.993 583.506C785.841 583.379 785.701 583.177 785.575 582.898C785.448 582.619 785.347 582.404 785.271 582.252C785.195 582.075 785.093 581.796 784.967 581.416C784.865 581.011 784.802 580.783 784.777 580.732L784.435 579.668L783.447 580.162C783.295 580.289 783.067 580.542 782.763 580.922C782.459 581.277 782.18 581.543 781.927 581.72C781.673 581.897 781.395 581.986 781.091 581.986C780.685 581.986 780.356 581.821 780.103 581.492C779.849 581.163 779.685 580.808 779.609 580.428C779.533 580.023 779.444 579.453 779.343 578.718H779.229ZM801.018 565.95C801.728 566.127 802.082 566.583 802.082 567.318C802.082 569.649 801.094 571.941 799.118 574.196L797.826 575.488C799.194 576.121 800.512 577.401 801.778 579.326C803.045 581.251 803.678 582.683 803.678 583.62C803.678 584 803.59 584.367 803.412 584.722C803.26 585.077 803.07 585.254 802.842 585.254C802.614 585.254 802.45 585.102 802.348 584.798C801.639 583.202 800.727 581.758 799.612 580.466C798.498 579.149 797.231 578.49 795.812 578.49C795.534 578.49 795.331 578.503 795.204 578.528C794.799 580.428 794.052 582.771 792.962 585.558C792.937 585.634 792.874 585.697 792.772 585.748C792.696 585.824 792.595 585.887 792.468 585.938C792.367 586.014 792.291 586.077 792.24 586.128C792.215 586.077 792.114 585.951 791.936 585.748C791.784 585.545 791.696 585.393 791.67 585.292C791.645 585.165 791.594 584.811 791.518 584.228C791.442 583.671 791.354 583.265 791.252 583.012C792.95 573.943 794.09 568.078 794.672 565.418L795.508 560.82C795.635 560.085 796.015 559.718 796.648 559.718C797.586 559.718 798.054 560.136 798.054 560.972C798.054 561.023 798.042 561.086 798.016 561.162C798.016 561.238 798.016 561.289 798.016 561.314C797.788 562.783 797.598 564.291 797.446 565.836C797.32 567.356 797.155 568.8 796.952 570.168C796.876 570.371 796.838 570.548 796.838 570.7C796.838 571.029 796.914 571.447 797.066 571.954C797.548 571.599 797.826 571.346 797.902 571.194C798.029 570.941 798.282 570.282 798.662 569.218C799.068 568.129 799.422 567.305 799.726 566.748C800.056 566.191 800.385 565.912 800.714 565.912C800.74 565.912 800.778 565.925 800.828 565.95C800.904 565.95 800.968 565.95 801.018 565.95ZM810.582 570.814C812.178 570.966 812.976 571.713 812.976 573.056C812.976 573.335 812.963 573.55 812.938 573.702C812.811 574.335 812.647 575.589 812.444 577.464C812.241 579.339 812.013 580.783 811.76 581.796C811.507 582.784 811.165 583.278 810.734 583.278C810.303 583.278 809.949 583.025 809.67 582.518C809.391 581.986 809.176 581.467 809.024 580.96C808.897 580.428 808.796 580.162 808.72 580.162L807.694 580.732C807.01 581.112 806.415 581.302 805.908 581.302C805.376 581.302 804.933 581.112 804.578 580.732C804.223 580.352 804.046 579.896 804.046 579.364C804.046 577.971 804.388 576.615 805.072 575.298C805.756 573.981 806.655 572.917 807.77 572.106C807.998 571.903 808.251 571.739 808.53 571.612C808.809 571.46 809.189 571.308 809.67 571.156C810.177 570.979 810.481 570.865 810.582 570.814ZM810.582 574.044C810.253 573.487 810.025 573.183 809.898 573.132C809.822 573.107 809.721 573.094 809.594 573.094C809.087 573.094 808.783 573.183 808.682 573.36C806.909 575.691 806.022 577.274 806.022 578.11C806.022 578.262 806.073 578.439 806.174 578.642C806.275 578.819 806.427 578.908 806.63 578.908C807.035 578.908 807.441 578.68 807.846 578.224C808.277 577.768 808.821 576.983 809.48 575.868C810.164 574.753 810.531 574.145 810.582 574.044ZM825.911 571.916H825.987C826.215 571.916 826.329 572.106 826.329 572.486C826.329 572.917 826 573.385 825.341 573.892C824.682 574.373 824.315 574.829 824.239 575.26C823.783 577.92 823.365 580.479 822.985 582.936C822.985 582.987 822.972 583.037 822.947 583.088C822.947 583.139 822.947 583.189 822.947 583.24C822.947 583.519 823.036 583.886 823.213 584.342C823.416 584.823 823.517 585.127 823.517 585.254C823.517 585.609 823.352 585.938 823.023 586.242C822.694 586.571 822.364 586.736 822.035 586.736C821.655 586.736 821.326 586.483 821.047 585.976C820.768 585.469 820.629 584.975 820.629 584.494C820.629 583.886 820.667 583.24 820.743 582.556C820.844 581.847 820.971 581.061 821.123 580.2C821.275 579.339 821.376 578.68 821.427 578.224C821.452 578.021 821.528 577.603 821.655 576.97C821.782 576.337 821.845 575.881 821.845 575.602C821.845 575.146 821.541 574.918 820.933 574.918H820.743C819.451 574.943 818.666 575.07 818.387 575.298C818.134 575.501 817.88 576.21 817.627 577.426C817.12 580.061 816.867 581.91 816.867 582.974C816.867 583.177 816.892 583.519 816.943 584C817.019 584.481 817.057 584.836 817.057 585.064C817.057 585.849 816.778 586.242 816.221 586.242C815.334 586.242 814.891 585.292 814.891 583.392C814.891 582.759 814.929 582.113 815.005 581.454C815.081 580.795 815.22 579.934 815.423 578.87C815.626 577.781 815.74 577.122 815.765 576.894C815.816 576.489 815.841 576.172 815.841 575.944C815.841 575.437 815.778 574.88 815.651 574.272C815.524 573.664 815.461 573.347 815.461 573.322C815.461 573.246 815.486 573.208 815.537 573.208C816.424 573.208 816.867 572.397 816.867 570.776C816.867 570.269 816.677 570.003 816.297 569.978C816.5 569.573 816.791 569.053 817.171 568.42C817.576 567.761 817.842 567.305 817.969 567.052C818.121 566.976 818.298 566.938 818.501 566.938C818.678 566.938 818.856 567.052 819.033 567.28C819.236 567.483 819.337 567.685 819.337 567.888C819.134 569.763 818.944 571.169 818.767 572.106C818.716 572.359 818.691 572.537 818.691 572.638C818.691 572.917 818.792 573.107 818.995 573.208C819.198 573.309 819.54 573.36 820.021 573.36C820.832 573.36 821.427 573.259 821.807 573.056C822.212 572.853 822.453 572.473 822.529 571.916C822.554 571.713 822.605 571.169 822.681 570.282C822.782 569.395 822.871 568.724 822.947 568.268C823.023 567.812 823.124 567.267 823.251 566.634C823.403 565.975 823.58 565.494 823.783 565.19C824.011 564.886 824.277 564.734 824.581 564.734C824.86 564.734 825.088 564.835 825.265 565.038C825.442 565.241 825.531 565.507 825.531 565.836C825.531 566.444 825.43 567.356 825.227 568.572C825.024 569.763 824.923 570.649 824.923 571.232C824.923 571.739 825.113 571.992 825.493 571.992C825.569 571.992 825.708 571.967 825.911 571.916ZM827.842 578.452C827.918 577.945 828.07 577.337 828.298 576.628C828.551 575.893 828.881 575.121 829.286 574.31C829.691 573.474 830.236 572.777 830.92 572.22C831.604 571.637 832.326 571.346 833.086 571.346C834.226 571.346 834.796 571.675 834.796 572.334C834.796 572.638 834.72 572.828 834.568 572.904C834.011 573.385 833.529 573.905 833.124 574.462C832.719 574.994 832.377 575.602 832.098 576.286C831.845 576.97 831.655 577.527 831.528 577.958C831.427 578.389 831.287 579.022 831.11 579.858V579.972C831.11 580.149 831.161 580.339 831.262 580.542C831.389 580.719 831.528 580.922 831.68 581.15C831.857 581.378 831.984 581.555 832.06 581.682C832.187 581.631 832.427 581.543 832.782 581.416C833.162 581.289 833.453 581.175 833.656 581.074C833.884 580.947 834.036 580.821 834.112 580.694C835.759 577.831 836.582 575.64 836.582 574.12C836.582 573.867 836.493 573.474 836.316 572.942C836.139 572.385 836.05 571.954 836.05 571.65C836.05 571.245 836.354 570.89 836.962 570.586C837.013 570.637 837.152 570.751 837.38 570.928C837.608 571.105 837.747 571.245 837.798 571.346C838.33 572.587 838.596 573.841 838.596 575.108C838.596 577.059 837.899 578.933 836.506 580.732C835.138 582.531 833.605 583.43 831.908 583.43C830.616 583.43 829.615 582.999 828.906 582.138C828.197 581.277 827.842 580.048 827.842 578.452ZM735.3 609.2C735.3 608.187 734.958 607.68 734.274 607.68C733.793 607.68 733.096 607.971 732.184 608.554C731.272 609.137 730.702 609.428 730.474 609.428C730.145 609.428 729.841 609.276 729.562 608.972C729.309 608.643 729.182 608.339 729.182 608.06C729.182 607.756 729.676 606.831 730.664 605.286C731.677 603.741 732.184 602.765 732.184 602.36C732.184 602.183 732.108 602.031 731.956 601.904C731.829 601.777 731.627 601.6 731.348 601.372C731.069 601.144 730.829 600.916 730.626 600.688C730.677 600.663 730.803 600.574 731.006 600.422C731.234 600.27 731.399 600.194 731.5 600.194H731.576C732.741 600.194 733.729 599.877 734.54 599.244C734.717 599.092 735.034 599.016 735.49 599.016C735.566 599.016 735.655 599.029 735.756 599.054C735.883 599.054 735.971 599.054 736.022 599.054C736.225 599.054 736.377 599.041 736.478 599.016C736.402 600.105 736.339 600.713 736.288 600.84C736.161 601.119 735.807 601.752 735.224 602.74C734.667 603.703 734.388 604.361 734.388 604.716C734.388 604.919 734.54 605.109 734.844 605.286C735.173 605.463 735.528 605.628 735.908 605.78C736.288 605.907 736.63 606.16 736.934 606.54C737.263 606.895 737.428 607.338 737.428 607.87V608.212C737.124 611.075 736.035 613.95 734.16 616.838C732.311 619.751 730.043 621.93 727.358 623.374C727.307 623.425 727.206 623.45 727.054 623.45C726.953 623.45 726.598 623.374 725.99 623.222C726.066 623.146 726.18 623.007 726.332 622.804C726.484 622.601 726.623 622.449 726.75 622.348C728.751 620.853 730.525 618.89 732.07 616.458C733.615 614.051 734.692 611.632 735.3 609.2ZM743.151 615.356C743.176 615.103 743.214 614.697 743.265 614.14C743.29 613.583 743.316 613.139 743.341 612.81C743.366 612.481 743.417 612.088 743.493 611.632C743.569 611.176 743.67 610.771 743.797 610.416C744.481 608.237 745.634 605.4 747.255 601.904C747.559 601.22 748.066 600.574 748.775 599.966C749.51 599.333 750.118 599.016 750.599 599.016C751.308 599.016 751.84 599.497 752.195 600.46C752.55 601.423 752.765 602.537 752.841 603.804C752.841 604.209 752.765 604.817 752.613 605.628C752.486 606.439 752.423 607.034 752.423 607.414C752.423 607.642 752.461 607.895 752.537 608.174C753.196 607.946 753.576 607.781 753.677 607.68C753.93 607.376 754.336 606.857 754.893 606.122C755.45 605.362 755.919 604.741 756.299 604.26C756.679 603.779 757.122 603.335 757.629 602.93C758.136 602.525 758.592 602.322 758.997 602.322C759.2 602.322 759.402 602.525 759.605 602.93C759.808 603.335 759.909 603.652 759.909 603.88C759.909 604.564 759.858 605.273 759.757 606.008C759.681 606.743 759.542 607.642 759.339 608.706C759.162 609.745 759.048 610.441 758.997 610.796C758.82 611.809 758.617 612.519 758.389 612.924C758.161 613.304 757.768 613.494 757.211 613.494C756.274 613.494 755.805 613.076 755.805 612.24C755.805 611.936 755.868 611.467 755.995 610.834C756.122 610.201 756.185 609.707 756.185 609.352C756.185 609.276 756.16 609.162 756.109 609.01C756.058 608.833 756.033 608.706 756.033 608.63C755.628 608.681 755.374 608.757 755.273 608.858C754.994 609.111 754.488 609.605 753.753 610.34C753.018 611.075 752.385 611.645 751.853 612.05C751.321 612.455 750.878 612.658 750.523 612.658C750.168 612.658 749.877 612.544 749.649 612.316C749.446 612.063 749.345 611.797 749.345 611.518C749.345 611.265 749.497 610.707 749.801 609.846C750.637 607.414 751.055 605.273 751.055 603.424C751.055 603.196 751.03 602.981 750.979 602.778C750.954 602.575 750.916 602.423 750.865 602.322C750.84 602.221 750.776 602.056 750.675 601.828C750.574 601.6 750.498 601.435 750.447 601.334C750.346 601.385 750.181 601.473 749.953 601.6C749.725 601.727 749.535 601.841 749.383 601.942C749.256 602.043 749.168 602.157 749.117 602.284C748.382 603.855 747.394 606.135 746.153 609.124C744.937 612.088 744.05 614.203 743.493 615.47C743.442 615.47 743.392 615.445 743.341 615.394C743.265 615.369 743.202 615.356 743.151 615.356ZM761.824 607.452C761.9 606.945 762.052 606.337 762.28 605.628C762.534 604.893 762.863 604.121 763.268 603.31C763.674 602.474 764.218 601.777 764.902 601.22C765.586 600.637 766.308 600.346 767.068 600.346C768.208 600.346 768.778 600.675 768.778 601.334C768.778 601.638 768.702 601.828 768.55 601.904C767.993 602.385 767.512 602.905 767.106 603.462C766.701 603.994 766.359 604.602 766.08 605.286C765.827 605.97 765.637 606.527 765.51 606.958C765.409 607.389 765.27 608.022 765.092 608.858V608.972C765.092 609.149 765.143 609.339 765.244 609.542C765.371 609.719 765.51 609.922 765.662 610.15C765.84 610.378 765.966 610.555 766.042 610.682C766.169 610.631 766.41 610.543 766.764 610.416C767.144 610.289 767.436 610.175 767.638 610.074C767.866 609.947 768.018 609.821 768.094 609.694C769.741 606.831 770.564 604.64 770.564 603.12C770.564 602.867 770.476 602.474 770.298 601.942C770.121 601.385 770.032 600.954 770.032 600.65C770.032 600.245 770.336 599.89 770.944 599.586C770.995 599.637 771.134 599.751 771.362 599.928C771.59 600.105 771.73 600.245 771.78 600.346C772.312 601.587 772.578 602.841 772.578 604.108C772.578 606.059 771.882 607.933 770.488 609.732C769.12 611.531 767.588 612.43 765.89 612.43C764.598 612.43 763.598 611.999 762.888 611.138C762.179 610.277 761.824 609.048 761.824 607.452ZM782.232 610.948C782.182 610.973 782.08 611.049 781.928 611.176C781.802 611.277 781.688 611.366 781.586 611.442C781.51 611.493 781.396 611.543 781.244 611.594C781.092 611.645 780.94 611.67 780.788 611.67C780.13 611.67 779.8 611.303 779.8 610.568C779.8 610.289 779.813 609.884 779.838 609.352C779.864 608.795 779.876 608.364 779.876 608.06C779.876 607.883 779.788 607.591 779.61 607.186C779.585 607.186 779.471 607.237 779.268 607.338C779.066 607.414 778.914 607.49 778.812 607.566C778.534 607.845 778.141 608.275 777.634 608.858C777.153 609.415 776.76 609.859 776.456 610.188C776.178 610.492 775.785 610.859 775.278 611.29C774.772 611.721 774.252 612.088 773.72 612.392C773.796 612.24 773.91 611.974 774.062 611.594C774.214 611.214 774.341 610.923 774.442 610.72L780.066 601.182C780.218 600.827 780.459 600.523 780.788 600.27C781.118 599.991 781.409 599.852 781.662 599.852C781.814 599.852 781.954 599.979 782.08 600.232C782.232 600.485 782.308 600.713 782.308 600.916C782.308 605.223 782.283 608.567 782.232 610.948ZM784.573 607.452C784.649 606.945 784.801 606.337 785.029 605.628C785.282 604.893 785.611 604.121 786.017 603.31C786.422 602.474 786.967 601.777 787.651 601.22C788.335 600.637 789.057 600.346 789.817 600.346C790.957 600.346 791.527 600.675 791.527 601.334C791.527 601.638 791.451 601.828 791.299 601.904C790.741 602.385 790.26 602.905 789.855 603.462C789.449 603.994 789.107 604.602 788.828 605.286C788.575 605.97 788.385 606.527 788.259 606.958C788.157 607.389 788.018 608.022 787.841 608.858V608.972C787.841 609.149 787.891 609.339 787.993 609.542C788.119 609.719 788.259 609.922 788.411 610.15C788.588 610.378 788.715 610.555 788.791 610.682C788.917 610.631 789.158 610.543 789.513 610.416C789.893 610.289 790.184 610.175 790.387 610.074C790.615 609.947 790.767 609.821 790.843 609.694C792.489 606.831 793.312 604.64 793.312 603.12C793.312 602.867 793.224 602.474 793.047 601.942C792.869 601.385 792.781 600.954 792.781 600.65C792.781 600.245 793.085 599.89 793.693 599.586C793.743 599.637 793.883 599.751 794.111 599.928C794.339 600.105 794.478 600.245 794.529 600.346C795.061 601.587 795.327 602.841 795.327 604.108C795.327 606.059 794.63 607.933 793.237 609.732C791.869 611.531 790.336 612.43 788.639 612.43C787.347 612.43 786.346 611.999 785.637 611.138C784.927 610.277 784.573 609.048 784.573 607.452ZM806.993 594.95C807.702 595.127 808.057 595.583 808.057 596.318C808.057 598.649 807.069 600.941 805.093 603.196L803.801 604.488C805.169 605.121 806.486 606.401 807.753 608.326C809.019 610.251 809.653 611.683 809.653 612.62C809.653 613 809.564 613.367 809.387 613.722C809.235 614.077 809.045 614.254 808.817 614.254C808.589 614.254 808.424 614.102 808.323 613.798C807.613 612.202 806.701 610.758 805.587 609.466C804.472 608.149 803.205 607.49 801.787 607.49C801.508 607.49 801.305 607.503 801.179 607.528C800.773 609.428 800.026 611.771 798.937 614.558C798.911 614.634 798.848 614.697 798.747 614.748C798.671 614.824 798.569 614.887 798.443 614.938C798.341 615.014 798.265 615.077 798.215 615.128C798.189 615.077 798.088 614.951 797.911 614.748C797.759 614.545 797.67 614.393 797.645 614.292C797.619 614.165 797.569 613.811 797.493 613.228C797.417 612.671 797.328 612.265 797.227 612.012C798.924 602.943 800.064 597.078 800.647 594.418L801.483 589.82C801.609 589.085 801.989 588.718 802.623 588.718C803.56 588.718 804.029 589.136 804.029 589.972C804.029 590.023 804.016 590.086 803.991 590.162C803.991 590.238 803.991 590.289 803.991 590.314C803.763 591.783 803.573 593.291 803.421 594.836C803.294 596.356 803.129 597.8 802.927 599.168C802.851 599.371 802.813 599.548 802.813 599.7C802.813 600.029 802.889 600.447 803.041 600.954C803.522 600.599 803.801 600.346 803.877 600.194C804.003 599.941 804.257 599.282 804.637 598.218C805.042 597.129 805.397 596.305 805.701 595.748C806.03 595.191 806.359 594.912 806.689 594.912C806.714 594.912 806.752 594.925 806.803 594.95C806.879 594.95 806.942 594.95 806.993 594.95ZM810.401 607.452C810.477 606.945 810.629 606.337 810.857 605.628C811.11 604.893 811.439 604.121 811.845 603.31C812.25 602.474 812.795 601.777 813.479 601.22C814.163 600.637 814.885 600.346 815.645 600.346C816.785 600.346 817.355 600.675 817.355 601.334C817.355 601.638 817.279 601.828 817.127 601.904C816.569 602.385 816.088 602.905 815.683 603.462C815.277 603.994 814.935 604.602 814.657 605.286C814.403 605.97 814.213 606.527 814.087 606.958C813.985 607.389 813.846 608.022 813.669 608.858V608.972C813.669 609.149 813.719 609.339 813.821 609.542C813.947 609.719 814.087 609.922 814.239 610.15C814.416 610.378 814.543 610.555 814.619 610.682C814.745 610.631 814.986 610.543 815.341 610.416C815.721 610.289 816.012 610.175 816.215 610.074C816.443 609.947 816.595 609.821 816.671 609.694C818.317 606.831 819.141 604.64 819.141 603.12C819.141 602.867 819.052 602.474 818.875 601.942C818.697 601.385 818.609 600.954 818.609 600.65C818.609 600.245 818.913 599.89 819.521 599.586C819.571 599.637 819.711 599.751 819.939 599.928C820.167 600.105 820.306 600.245 820.357 600.346C820.889 601.587 821.155 602.841 821.155 604.108C821.155 606.059 820.458 607.933 819.065 609.732C817.697 611.531 816.164 612.43 814.467 612.43C813.175 612.43 812.174 611.999 811.465 611.138C810.755 610.277 810.401 609.048 810.401 607.452ZM822.676 615.356C822.702 615.103 822.74 614.697 822.79 614.14C822.816 613.583 822.841 613.139 822.866 612.81C822.892 612.481 822.942 612.088 823.018 611.632C823.094 611.176 823.196 610.771 823.322 610.416C824.006 608.237 825.159 605.4 826.78 601.904C827.084 601.22 827.591 600.574 828.3 599.966C829.035 599.333 829.643 599.016 830.124 599.016C830.834 599.016 831.366 599.497 831.72 600.46C832.075 601.423 832.29 602.537 832.366 603.804C832.366 604.209 832.29 604.817 832.138 605.628C832.012 606.439 831.948 607.034 831.948 607.414C831.948 607.642 831.986 607.895 832.062 608.174C832.721 607.946 833.101 607.781 833.202 607.68C833.456 607.376 833.861 606.857 834.418 606.122C834.976 605.362 835.444 604.741 835.824 604.26C836.204 603.779 836.648 603.335 837.154 602.93C837.661 602.525 838.117 602.322 838.522 602.322C838.725 602.322 838.928 602.525 839.13 602.93C839.333 603.335 839.434 603.652 839.434 603.88C839.434 604.564 839.384 605.273 839.282 606.008C839.206 606.743 839.067 607.642 838.864 608.706C838.687 609.745 838.573 610.441 838.522 610.796C838.345 611.809 838.142 612.519 837.914 612.924C837.686 613.304 837.294 613.494 836.736 613.494C835.799 613.494 835.33 613.076 835.33 612.24C835.33 611.936 835.394 611.467 835.52 610.834C835.647 610.201 835.71 609.707 835.71 609.352C835.71 609.276 835.685 609.162 835.634 609.01C835.584 608.833 835.558 608.706 835.558 608.63C835.153 608.681 834.9 608.757 834.798 608.858C834.52 609.111 834.013 609.605 833.278 610.34C832.544 611.075 831.91 611.645 831.378 612.05C830.846 612.455 830.403 612.658 830.048 612.658C829.694 612.658 829.402 612.544 829.174 612.316C828.972 612.063 828.87 611.797 828.87 611.518C828.87 611.265 829.022 610.707 829.326 609.846C830.162 607.414 830.58 605.273 830.58 603.424C830.58 603.196 830.555 602.981 830.504 602.778C830.479 602.575 830.441 602.423 830.39 602.322C830.365 602.221 830.302 602.056 830.2 601.828C830.099 601.6 830.023 601.435 829.972 601.334C829.871 601.385 829.706 601.473 829.478 601.6C829.25 601.727 829.06 601.841 828.908 601.942C828.782 602.043 828.693 602.157 828.642 602.284C827.908 603.855 826.92 606.135 825.678 609.124C824.462 612.088 823.576 614.203 823.018 615.47C822.968 615.47 822.917 615.445 822.866 615.394C822.79 615.369 822.727 615.356 822.676 615.356Z" fill="#FEFEFE"/>
<g clip-path="url(#clip1_610_1349)">
<path d="M932.552 405.495C933.028 405.721 933.58 405.872 933.956 406.224C942.61 414.442 952.969 416 964.181 413.663C975.243 411.326 984.95 405.998 993.854 399.187C1000.9 393.783 1007.8 388.179 1014.75 382.625C1015.07 382.348 1015.32 381.996 1015.93 381.343H1010.61L1010.53 380.815C1010.89 380.614 1011.24 380.312 1011.61 380.212C1014.3 379.458 1016.96 378.377 1019.69 378.076C1022.65 377.749 1023.55 379.156 1022.7 381.996C1021.57 385.766 1020.42 389.536 1019.26 393.306C1018.66 395.266 1017.08 395.266 1015.53 395.09C1013.89 394.914 1012.94 394.035 1013.22 392.25C1013.39 391.069 1013.57 389.913 1013.79 388.38C1013.07 388.857 1012.59 389.159 1012.14 389.486C1006.22 393.834 1000.4 398.357 994.356 402.504C983.846 409.692 972.433 414.769 959.566 415.875C952.141 416.528 944.968 415.372 938.471 411.552C936.114 410.17 934.132 408.134 932 406.4C932.176 406.098 932.376 405.822 932.552 405.52V405.495Z" fill="#FEFEFE"/>
</g>
<g clip-path="url(#clip2_610_1349)">
<path d="M161.536 385.47C161.145 385.824 160.661 386.129 160.403 386.575C154.509 396.952 145.049 401.452 133.642 402.471C122.378 403.447 111.542 401.168 101.044 397.237C92.7298 394.113 84.5017 390.753 76.2402 387.456C75.8479 387.287 75.5057 387.023 74.7399 386.572L79.8282 385.028L79.747 384.501C79.3526 384.411 78.929 384.224 78.5397 384.237C75.7526 384.295 72.8946 384.033 70.1908 384.539C67.2637 385.085 66.8084 386.694 68.4493 389.164C70.6242 392.444 72.8231 395.716 75.022 398.988C76.1674 400.689 77.6795 400.231 79.1165 399.611C80.6255 398.969 81.2821 397.85 80.4998 396.223C79.9888 395.143 79.485 394.088 78.8238 392.687C79.6585 392.932 80.2021 393.083 80.729 393.264C87.6561 395.705 94.5383 398.344 101.527 400.557C113.671 404.383 126.066 405.926 138.7 403.247C145.995 401.716 152.523 398.527 157.63 392.985C159.485 390.977 160.79 388.454 162.326 386.175C162.071 385.937 161.798 385.731 161.543 385.494L161.536 385.47Z" fill="#FEFEFE"/>
</g>
<g clip-path="url(#clip3_610_1349)">
<path d="M318.267 533.388C317.117 533.606 315.901 533.643 314.817 534.041C309.397 536.052 303.891 537.856 298.667 540.286C281.966 548.08 267.169 558.822 253.175 570.688C248.292 574.84 243.366 578.96 238.464 583.085C238.181 583.327 237.922 583.573 237.321 584.124C240.206 584.1 242.686 584.033 245.178 584.04C251.85 584.096 258.521 584.152 265.204 584.282C266.315 584.299 267.425 584.751 268.544 585.01L268.563 585.906C267.606 586.132 266.66 586.577 265.714 586.587C259.615 586.579 253.497 586.399 247.399 586.39C243.914 586.386 240.401 586.545 236.913 586.854C235.339 587 233.843 587.835 232.289 588.154C231.163 588.376 229.958 588.343 228.8 588.173C228.518 588.126 228.055 586.987 228.236 586.631C232.284 578.069 236.426 569.523 240.565 561.001C240.859 560.399 241.271 559.527 241.774 559.418C242.625 559.247 243.63 559.463 244.45 559.77C244.631 559.848 244.626 561.029 244.414 561.573C242.259 566.785 240.036 571.961 237.814 577.138C237.661 577.474 237.554 577.818 237.68 578.37C239.168 577.147 240.655 575.925 242.17 574.683C253.098 565.657 263.94 556.568 276.036 549.089C285.621 543.167 295.442 537.719 306.117 533.959C309.025 532.926 312.122 532.359 315.167 531.807C316.164 531.637 317.321 532.241 318.393 532.492L318.243 533.384L318.267 533.388Z" fill="#FEFEFE"/>
</g>
<g clip-path="url(#clip4_610_1349)">
<path d="M701.523 581.946C695.954 580.876 690.761 579.903 685.585 578.868C670.35 575.831 655.067 572.983 640.155 568.471C633.007 566.304 625.951 563.807 619.464 560.018C617.641 558.959 615.962 557.602 614.25 556.371C613.884 556.109 613.612 555.738 613.519 555.092C613.89 555.235 614.327 555.274 614.597 555.497C621.394 560.951 629.445 563.679 637.574 566.212C650.203 570.148 663.199 572.466 676.145 574.973C684.866 576.669 693.597 578.347 702.322 579.998C702.817 580.099 703.366 579.966 703.942 579.754C701.588 577.447 698.207 576.648 696.29 573.965L696.484 573.554C696.939 573.678 697.428 573.751 697.845 573.972C700.677 575.392 703.481 576.818 706.302 578.256C706.439 578.345 706.588 578.416 706.736 578.488C710.119 580.412 710.259 581.625 707.355 584.113C702.261 588.478 697.15 592.831 692.073 597.206C690.95 598.187 689.841 598.47 688.498 597.722C686.67 596.708 686.41 595.417 687.948 594.021C691.725 590.561 695.594 587.185 699.429 583.786C700.024 583.244 700.636 582.713 701.534 581.928L701.523 581.946Z" fill="#FEFEFE"/>
</g>
</g>
<defs>
<clipPath id="clip0_610_1349">
<rect width="1167" height="633" fill="white"/>
</clipPath>
<clipPath id="clip1_610_1349">
<rect width="91" height="38" fill="white" transform="translate(932 378)"/>
</clipPath>
<clipPath id="clip2_610_1349">
<rect width="91" height="38" fill="white" transform="matrix(-0.956899 0.290421 0.290421 0.956899 154.078 359)"/>
</clipPath>
<clipPath id="clip3_610_1349">
<rect width="80" height="70" fill="white" transform="translate(239.562 519) rotate(9.50758)"/>
</clipPath>
<clipPath id="clip4_610_1349">
<rect width="95" height="32" fill="white" transform="translate(630.402 529) rotate(32.9432)"/>
</clipPath>
</defs>
</svg>
