<svg width="1063" height="365" viewBox="0 0 1063 365" fill="none" xmlns="http://www.w3.org/2000/svg">
<path d="M970.058 281.872C970.21 281.112 970.552 279.339 971.084 276.552C971.134 276.273 971.172 275.843 971.198 275.26C971.248 274.652 971.299 274.12 971.35 273.664C971.426 273.208 971.527 272.739 971.654 272.258C971.806 271.777 972.034 271.409 972.338 271.156C972.667 270.877 973.072 270.738 973.554 270.738C973.984 270.738 974.339 270.89 974.618 271.194C974.922 271.498 975.074 271.865 975.074 272.296V272.486C974.466 275.222 973.655 278.566 972.642 282.518C972.515 282.999 971.996 283.468 971.084 283.924C970.476 283.037 970.172 282.467 970.172 282.214V281.948C970.146 281.897 970.108 281.872 970.058 281.872ZM973.592 265.494C973.617 264.227 974.149 263.594 975.188 263.594C976.024 263.594 976.442 263.885 976.442 264.468L976.366 264.658C975.808 265.874 975.276 266.482 974.77 266.482C974.694 266.482 974.58 266.419 974.428 266.292C974.276 266.165 974.111 266.013 973.934 265.836C973.756 265.633 973.642 265.519 973.592 265.494ZM986.092 267.584C986.548 267.685 986.776 267.977 986.776 268.458C986.776 268.686 986.738 268.901 986.662 269.104C986.561 269.433 986.333 270.079 985.978 271.042C985.624 271.979 985.383 272.714 985.256 273.246C984.344 276.869 983.42 280.833 982.482 285.14C981.266 290.637 979.67 294.741 977.694 297.452C977.162 298.161 976.504 298.871 975.718 299.58C974.908 300.289 974.3 300.644 973.894 300.644C973.768 300.644 973.666 300.631 973.59 300.606C973.489 300.758 973.362 300.834 973.21 300.834C972.501 300.834 971.994 300.479 971.69 299.77C971.361 299.061 971.171 298.275 971.12 297.414C971.12 296.629 971.184 295.843 971.31 295.058C971.412 294.273 971.627 293.424 971.956 292.512C972.286 291.6 972.552 290.853 972.754 290.27C972.957 289.687 973.35 288.864 973.932 287.8C974.515 286.736 974.895 286.027 975.072 285.672C975.25 285.343 975.693 284.583 976.402 283.392C977.112 282.201 977.504 281.543 977.58 281.416C977.682 281.239 977.796 281.15 977.922 281.15C978.429 281.15 978.682 281.733 978.682 282.898C978.708 283.379 978.581 283.848 978.302 284.304C976.352 287.724 974.895 290.574 973.932 292.854C973.882 292.981 973.78 293.221 973.628 293.576C973.476 293.956 973.362 294.247 973.286 294.45C973.185 294.678 973.084 294.957 972.982 295.286C972.856 295.615 972.767 295.919 972.716 296.198C972.666 296.477 972.64 296.755 972.64 297.034C972.64 297.313 972.83 297.452 973.21 297.452C973.337 297.452 973.464 297.528 973.59 297.68C974.73 296.92 975.718 295.438 976.554 293.234C976.934 292.246 977.276 291.233 977.58 290.194C977.91 289.155 978.302 287.8 978.758 286.128C979.214 284.456 979.506 283.405 979.632 282.974C980.139 281.631 980.392 280.58 980.392 279.82C980.392 279.465 980.228 279.288 979.898 279.288C979.797 279.288 979.569 279.326 979.214 279.402C978.885 279.453 978.657 279.478 978.53 279.478C977.416 279.478 976.858 278.655 976.858 277.008C976.858 276.248 977.074 275.298 977.504 274.158C977.935 273.018 978.518 271.992 979.252 271.08C979.987 270.143 980.722 269.674 981.456 269.674C981.558 269.674 981.735 269.712 981.988 269.788C982.242 269.864 982.432 269.902 982.558 269.902C983.141 269.902 983.724 269.522 984.306 268.762C984.889 267.977 985.484 267.584 986.092 267.584ZM979.442 277.616C981.013 276.248 982.064 274.297 982.596 271.764C982.571 271.713 982.533 271.625 982.482 271.498C982.432 271.346 982.381 271.245 982.33 271.194C982.305 271.118 982.242 271.055 982.14 271.004C982.039 270.928 981.912 270.89 981.76 270.89C981.456 270.89 981.228 270.966 981.076 271.118C979.506 272.689 978.581 274.677 978.302 277.084C978.302 277.616 978.492 277.882 978.872 277.882C979.075 277.882 979.265 277.793 979.442 277.616ZM988.296 279.896C988.321 278.857 988.448 277.743 988.676 276.552C988.929 275.361 989.271 274.196 989.702 273.056C990.133 271.891 990.715 270.928 991.45 270.168C992.21 269.408 993.033 269.028 993.92 269.028C994.579 269.028 995.123 269.231 995.554 269.636C995.985 270.016 996.2 270.561 996.2 271.27C996.2 272.106 995.516 273.537 994.148 275.564C993.945 275.919 993.413 276.501 992.552 277.312C991.716 278.097 991.298 278.845 991.298 279.554C991.298 280.466 991.475 281.023 991.83 281.226C992.033 281.353 992.299 281.416 992.628 281.416C992.831 281.391 993.16 281.302 993.616 281.15C994.072 280.973 994.414 280.884 994.642 280.884C995.047 280.884 995.25 281.074 995.25 281.454C995.25 282.189 994.819 282.847 993.958 283.43C993.122 283.987 992.299 284.266 991.488 284.266C990.956 284.266 990.5 284.177 990.12 284C989.74 283.848 989.436 283.658 989.208 283.43C989.005 283.177 988.828 282.847 988.676 282.442C988.549 282.011 988.461 281.619 988.41 281.264C988.359 280.909 988.321 280.453 988.296 279.896ZM994.718 272.106C994.389 271.473 994.148 271.156 993.996 271.156C993.869 271.156 993.743 271.232 993.616 271.384C993.489 271.511 993.35 271.726 993.198 272.03C993.071 272.334 992.97 272.587 992.894 272.79C992.818 272.993 992.704 273.284 992.552 273.664C992.425 274.044 992.362 274.247 992.362 274.272C992.362 274.323 992.413 274.424 992.514 274.576C992.615 274.728 992.691 274.804 992.742 274.804C992.843 274.804 992.932 274.779 993.008 274.728C993.109 274.652 993.211 274.551 993.312 274.424C993.439 274.297 993.54 274.171 993.616 274.044C993.717 273.917 993.819 273.753 993.92 273.55C994.047 273.347 994.148 273.183 994.224 273.056C994.3 272.904 994.389 272.727 994.49 272.524C994.591 272.321 994.667 272.182 994.718 272.106ZM1003.88 270.814C1005.47 270.966 1006.27 271.713 1006.27 273.056C1006.27 273.335 1006.26 273.55 1006.23 273.702C1006.11 274.335 1005.94 275.589 1005.74 277.464C1005.54 279.339 1005.31 280.783 1005.06 281.796C1004.8 282.784 1004.46 283.278 1004.03 283.278C1003.6 283.278 1003.24 283.025 1002.97 282.518C1002.69 281.986 1002.47 281.467 1002.32 280.96C1002.19 280.428 1002.09 280.162 1002.02 280.162L1000.99 280.732C1000.31 281.112 999.711 281.302 999.204 281.302C998.672 281.302 998.229 281.112 997.874 280.732C997.519 280.352 997.342 279.896 997.342 279.364C997.342 277.971 997.684 276.615 998.368 275.298C999.052 273.981 999.951 272.917 1001.07 272.106C1001.29 271.903 1001.55 271.739 1001.83 271.612C1002.1 271.46 1002.48 271.308 1002.97 271.156C1003.47 270.979 1003.78 270.865 1003.88 270.814ZM1003.88 274.044C1003.55 273.487 1003.32 273.183 1003.19 273.132C1003.12 273.107 1003.02 273.094 1002.89 273.094C1002.38 273.094 1002.08 273.183 1001.98 273.36C1000.2 275.691 999.318 277.274 999.318 278.11C999.318 278.262 999.369 278.439 999.47 278.642C999.571 278.819 999.723 278.908 999.926 278.908C1000.33 278.908 1000.74 278.68 1001.14 278.224C1001.57 277.768 1002.12 276.983 1002.78 275.868C1003.46 274.753 1003.83 274.145 1003.88 274.044ZM1015.16 281.948C1015.11 281.973 1015.01 282.049 1014.86 282.176C1014.73 282.277 1014.62 282.366 1014.51 282.442C1014.44 282.493 1014.32 282.543 1014.17 282.594C1014.02 282.645 1013.87 282.67 1013.72 282.67C1013.06 282.67 1012.73 282.303 1012.73 281.568C1012.73 281.289 1012.74 280.884 1012.77 280.352C1012.79 279.795 1012.8 279.364 1012.8 279.06C1012.8 278.883 1012.72 278.591 1012.54 278.186C1012.51 278.186 1012.4 278.237 1012.2 278.338C1011.99 278.414 1011.84 278.49 1011.74 278.566C1011.46 278.845 1011.07 279.275 1010.56 279.858C1010.08 280.415 1009.69 280.859 1009.38 281.188C1009.11 281.492 1008.71 281.859 1008.21 282.29C1007.7 282.721 1007.18 283.088 1006.65 283.392C1006.72 283.24 1006.84 282.974 1006.99 282.594C1007.14 282.214 1007.27 281.923 1007.37 281.72L1012.99 272.182C1013.15 271.827 1013.39 271.523 1013.72 271.27C1014.05 270.991 1014.34 270.852 1014.59 270.852C1014.74 270.852 1014.88 270.979 1015.01 271.232C1015.16 271.485 1015.24 271.713 1015.24 271.916C1015.24 276.223 1015.21 279.567 1015.16 281.948ZM1023.81 265.722C1023.61 266.685 1023.24 268.496 1022.71 271.156C1022.18 273.791 1021.73 275.855 1021.38 277.35C1021.38 277.882 1021.52 278.148 1021.8 278.148C1022 278.148 1022.29 278.072 1022.67 277.92C1023.07 277.768 1023.35 277.692 1023.51 277.692C1024.24 277.692 1024.61 278.161 1024.61 279.098C1024.61 281.986 1023.61 284.139 1021.61 285.558C1021.3 285.761 1020.6 285.862 1019.52 285.862C1017.67 285.862 1016.74 285.355 1016.74 284.342C1016.74 284.038 1016.83 283.493 1017.01 282.708C1017.24 281.771 1017.75 279.769 1018.57 276.704C1019.38 273.613 1019.96 271.207 1020.31 269.484C1020.34 269.408 1020.35 269.294 1020.35 269.142C1020.35 268.863 1020.25 268.547 1020.05 268.192C1019.84 267.812 1019.74 267.546 1019.74 267.394C1019.74 267.293 1019.87 266.938 1020.12 266.33C1020.4 265.722 1020.77 265.101 1021.23 264.468C1021.68 263.809 1022.12 263.48 1022.56 263.48C1022.83 263.48 1023.06 263.708 1023.24 264.164C1023.42 264.62 1023.51 264.987 1023.51 265.266V265.684H1023.62C1023.7 265.709 1023.76 265.722 1023.81 265.722ZM1023.24 280.922C1023.21 280.846 1023.18 280.757 1023.13 280.656C1023.1 280.555 1023.07 280.479 1023.05 280.428C1023.05 280.352 1023.04 280.289 1023.01 280.238C1022.99 280.187 1022.96 280.149 1022.94 280.124C1022.91 280.073 1022.87 280.048 1022.82 280.048C1022.8 280.023 1022.76 280.01 1022.71 280.01C1022.43 280.01 1021.88 280.555 1021.07 281.644C1020.29 282.708 1019.9 283.468 1019.9 283.924C1019.9 283.975 1019.9 284.076 1019.9 284.228C1019.92 284.38 1019.93 284.494 1019.93 284.57C1020.03 284.545 1020.19 284.532 1020.39 284.532C1020.59 284.532 1020.74 284.507 1020.85 284.456C1020.97 284.431 1021.06 284.38 1021.11 284.304C1021.42 283.899 1021.81 283.278 1022.29 282.442C1022.8 281.606 1023.11 281.099 1023.24 280.922ZM1037.91 271.916H1037.99C1038.21 271.916 1038.33 272.106 1038.33 272.486C1038.33 272.917 1038 273.385 1037.34 273.892C1036.68 274.373 1036.31 274.829 1036.24 275.26C1035.78 277.92 1035.36 280.479 1034.98 282.936C1034.98 282.987 1034.97 283.037 1034.95 283.088C1034.95 283.139 1034.95 283.189 1034.95 283.24C1034.95 283.519 1035.03 283.886 1035.21 284.342C1035.41 284.823 1035.52 285.127 1035.52 285.254C1035.52 285.609 1035.35 285.938 1035.02 286.242C1034.69 286.571 1034.36 286.736 1034.03 286.736C1033.65 286.736 1033.32 286.483 1033.05 285.976C1032.77 285.469 1032.63 284.975 1032.63 284.494C1032.63 283.886 1032.67 283.24 1032.74 282.556C1032.84 281.847 1032.97 281.061 1033.12 280.2C1033.27 279.339 1033.38 278.68 1033.43 278.224C1033.45 278.021 1033.53 277.603 1033.65 276.97C1033.78 276.337 1033.84 275.881 1033.84 275.602C1033.84 275.146 1033.54 274.918 1032.93 274.918H1032.74C1031.45 274.943 1030.66 275.07 1030.39 275.298C1030.13 275.501 1029.88 276.21 1029.63 277.426C1029.12 280.061 1028.87 281.91 1028.87 282.974C1028.87 283.177 1028.89 283.519 1028.94 284C1029.02 284.481 1029.06 284.836 1029.06 285.064C1029.06 285.849 1028.78 286.242 1028.22 286.242C1027.33 286.242 1026.89 285.292 1026.89 283.392C1026.89 282.759 1026.93 282.113 1027 281.454C1027.08 280.795 1027.22 279.934 1027.42 278.87C1027.62 277.781 1027.74 277.122 1027.76 276.894C1027.81 276.489 1027.84 276.172 1027.84 275.944C1027.84 275.437 1027.78 274.88 1027.65 274.272C1027.52 273.664 1027.46 273.347 1027.46 273.322C1027.46 273.246 1027.49 273.208 1027.54 273.208C1028.42 273.208 1028.87 272.397 1028.87 270.776C1028.87 270.269 1028.68 270.003 1028.3 269.978C1028.5 269.573 1028.79 269.053 1029.17 268.42C1029.58 267.761 1029.84 267.305 1029.97 267.052C1030.12 266.976 1030.3 266.938 1030.5 266.938C1030.68 266.938 1030.85 267.052 1031.03 267.28C1031.23 267.483 1031.34 267.685 1031.34 267.888C1031.13 269.763 1030.94 271.169 1030.77 272.106C1030.72 272.359 1030.69 272.537 1030.69 272.638C1030.69 272.917 1030.79 273.107 1030.99 273.208C1031.2 273.309 1031.54 273.36 1032.02 273.36C1032.83 273.36 1033.43 273.259 1033.81 273.056C1034.21 272.853 1034.45 272.473 1034.53 271.916C1034.55 271.713 1034.6 271.169 1034.68 270.282C1034.78 269.395 1034.87 268.724 1034.95 268.268C1035.02 267.812 1035.12 267.267 1035.25 266.634C1035.4 265.975 1035.58 265.494 1035.78 265.19C1036.01 264.886 1036.28 264.734 1036.58 264.734C1036.86 264.734 1037.09 264.835 1037.26 265.038C1037.44 265.241 1037.53 265.507 1037.53 265.836C1037.53 266.444 1037.43 267.356 1037.23 268.572C1037.02 269.763 1036.92 270.649 1036.92 271.232C1036.92 271.739 1037.11 271.992 1037.49 271.992C1037.57 271.992 1037.71 271.967 1037.91 271.916ZM1039.84 278.718C1040.53 274.386 1040.99 271.574 1041.25 270.282C1041.37 269.547 1041.75 269.18 1042.39 269.18C1042.94 269.18 1043.22 269.395 1043.22 269.826C1043.22 269.927 1043.16 270.231 1043.03 270.738C1042.91 271.65 1042.72 272.98 1042.46 274.728C1042.21 276.476 1042.06 277.515 1042.01 277.844C1042.01 278.021 1042.07 278.262 1042.2 278.566C1042.35 278.87 1042.44 279.073 1042.46 279.174C1043.02 278.845 1043.35 278.579 1043.45 278.376C1043.73 277.869 1045.21 275.222 1047.9 270.434C1048.28 269.801 1048.63 269.484 1048.96 269.484C1049.39 269.484 1049.72 269.636 1049.95 269.94C1050.2 270.244 1050.33 270.586 1050.33 270.966C1050.33 271.143 1050.32 271.283 1050.29 271.384C1049.51 274.5 1048.87 277.185 1048.39 279.44C1048.34 279.744 1048.32 279.972 1048.32 280.124C1048.32 280.479 1048.39 280.909 1048.54 281.416C1048.7 281.923 1048.77 282.239 1048.77 282.366C1048.77 282.645 1048.57 282.936 1048.16 283.24C1047.78 283.519 1047.43 283.658 1047.1 283.658C1046.92 283.658 1046.76 283.607 1046.61 283.506C1046.45 283.379 1046.31 283.177 1046.19 282.898C1046.06 282.619 1045.96 282.404 1045.88 282.252C1045.81 282.075 1045.71 281.796 1045.58 281.416C1045.48 281.011 1045.41 280.783 1045.39 280.732L1045.05 279.668L1044.06 280.162C1043.91 280.289 1043.68 280.542 1043.38 280.922C1043.07 281.277 1042.79 281.543 1042.54 281.72C1042.29 281.897 1042.01 281.986 1041.7 281.986C1041.3 281.986 1040.97 281.821 1040.72 281.492C1040.46 281.163 1040.3 280.808 1040.22 280.428C1040.15 280.023 1040.06 279.453 1039.96 278.718H1039.84ZM1051.86 278.718C1052.65 274.006 1053.12 271.219 1053.27 270.358C1053.4 269.674 1053.73 269.332 1054.26 269.332C1054.89 269.332 1055.21 269.573 1055.21 270.054C1055.21 270.079 1055.17 270.32 1055.09 270.776C1054.59 273.968 1054.23 276.362 1054.03 277.958V278.072C1054.03 278.173 1054.06 278.3 1054.11 278.452C1054.16 278.579 1054.22 278.731 1054.3 278.908C1054.4 279.06 1054.46 279.187 1054.49 279.288C1054.54 279.237 1054.65 279.161 1054.83 279.06C1055.01 278.933 1055.15 278.819 1055.25 278.718C1055.37 278.617 1055.47 278.503 1055.55 278.376C1056.06 277.489 1056.79 276.159 1057.75 274.386C1058.74 272.613 1059.49 271.295 1060 270.434C1060.07 270.257 1060.24 270.092 1060.49 269.94C1060.77 269.763 1060.98 269.674 1061.14 269.674C1061.44 269.674 1061.69 269.889 1061.9 270.32C1062.1 270.725 1062.2 271.042 1062.2 271.27C1062.2 271.473 1062.04 272.334 1061.71 273.854C1060.85 277.603 1060.39 279.617 1060.34 279.896C1060.29 280.099 1060.26 280.263 1060.26 280.39C1060.26 280.694 1060.35 281.074 1060.53 281.53C1060.71 281.986 1060.79 282.277 1060.79 282.404C1060.79 282.683 1060.6 282.974 1060.22 283.278C1059.84 283.582 1059.49 283.734 1059.16 283.734C1058.65 283.734 1058.22 283.443 1057.87 282.86C1057.54 282.252 1057.37 281.669 1057.37 281.112C1057.37 281.036 1057.37 280.922 1057.37 280.77C1057.4 280.618 1057.41 280.491 1057.41 280.39C1057.41 280.314 1057.39 280.2 1057.34 280.048C1057.29 279.896 1057.26 279.795 1057.26 279.744C1056.65 279.896 1056.01 280.327 1055.32 281.036C1054.66 281.72 1054.12 282.062 1053.69 282.062C1052.98 282.062 1052.49 281.555 1052.21 280.542C1052.18 280.441 1052.16 280.251 1052.13 279.972C1052.11 279.668 1052.07 279.402 1052.02 279.174C1051.99 278.946 1051.94 278.794 1051.86 278.718ZM1054.87 265.988C1054.54 265.836 1054.31 265.659 1054.18 265.456C1054.18 264.848 1054.61 264.379 1055.47 264.05C1055.83 263.923 1056.59 263.632 1057.75 263.176C1058.95 262.695 1059.87 262.34 1060.53 262.112C1060.55 262.112 1060.62 262.087 1060.72 262.036C1060.82 261.985 1060.88 261.96 1060.91 261.96C1061.04 261.96 1061.16 261.973 1061.29 261.998C1061.44 262.023 1061.59 262.061 1061.74 262.112C1061.9 262.137 1062.02 262.163 1062.12 262.188C1062.07 262.264 1062.01 262.403 1061.93 262.606C1061.88 262.783 1061.82 262.935 1061.74 263.062C1061.69 263.163 1061.63 263.239 1061.55 263.29C1059.83 264.075 1057.81 264.949 1055.47 265.912C1055.45 265.912 1055.25 265.937 1054.87 265.988ZM1003.2 310.568C1003.71 311.277 1003.96 312.012 1003.96 312.772C1003.96 313.887 1003.54 314.824 1002.71 315.584C1002.61 315.635 1002.56 315.66 1002.56 315.66C1002.38 315.66 1002.23 315.457 1002.1 315.052C1002 314.647 1001.95 314.203 1001.95 313.722C1001.95 313.469 1001.96 313.279 1001.99 313.152C1001.73 312.975 1001.57 312.873 1001.49 312.848L1000.39 312.354C1000.31 312.329 1000.12 312.278 999.82 312.202C999.516 312.101 999.25 312.012 999.022 311.936C998.794 311.86 998.68 311.809 998.68 311.784L998.642 311.822C998.44 311.822 998.161 311.467 997.806 310.758C997.477 310.023 997.224 309.327 997.046 308.668C996.717 308.871 996.286 309.162 995.754 309.542C995.248 309.922 994.83 310.201 994.5 310.378C994.171 310.555 993.867 310.644 993.588 310.644C993.208 310.644 992.879 310.543 992.6 310.34C992.347 310.137 992.106 309.77 991.878 309.238C991.676 308.706 991.536 308.288 991.46 307.984C991.384 307.655 991.245 307.072 991.042 306.236C991.144 305.856 991.283 304.64 991.46 302.588C991.638 300.536 991.815 299.295 991.992 298.864C992.043 298.737 992.119 298.623 992.22 298.522C992.347 298.395 992.461 298.294 992.562 298.218C992.689 298.142 992.828 298.053 992.98 297.952C993.158 297.851 993.297 297.762 993.398 297.686C993.424 297.813 993.474 298.066 993.55 298.446C993.626 298.801 993.664 299.067 993.664 299.244C993.639 299.472 993.588 300.156 993.512 301.296C993.436 302.411 993.36 303.462 993.284 304.45C993.234 305.413 993.208 306.071 993.208 306.426C993.208 306.73 993.272 306.996 993.398 307.224C993.55 307.452 993.715 307.566 993.892 307.566C994.399 307.566 994.754 307.376 994.956 306.996C996.831 304.083 998.085 302.018 998.718 300.802C999.098 300.093 999.605 299.738 1000.24 299.738C1001.2 299.738 1001.68 300.156 1001.68 300.992C1001.68 301.043 1001.67 301.106 1001.64 301.182C1001.64 301.258 1001.64 301.309 1001.64 301.334L1000.01 308.782C1001.58 309.263 1002.64 309.859 1003.2 310.568ZM1004.74 308.896C1004.76 307.857 1004.89 306.743 1005.12 305.552C1005.37 304.361 1005.71 303.196 1006.14 302.056C1006.57 300.891 1007.15 299.928 1007.89 299.168C1008.65 298.408 1009.47 298.028 1010.36 298.028C1011.02 298.028 1011.56 298.231 1011.99 298.636C1012.42 299.016 1012.64 299.561 1012.64 300.27C1012.64 301.106 1011.96 302.537 1010.59 304.564C1010.38 304.919 1009.85 305.501 1008.99 306.312C1008.16 307.097 1007.74 307.845 1007.74 308.554C1007.74 309.466 1007.91 310.023 1008.27 310.226C1008.47 310.353 1008.74 310.416 1009.07 310.416C1009.27 310.391 1009.6 310.302 1010.06 310.15C1010.51 309.973 1010.85 309.884 1011.08 309.884C1011.49 309.884 1011.69 310.074 1011.69 310.454C1011.69 311.189 1011.26 311.847 1010.4 312.43C1009.56 312.987 1008.74 313.266 1007.93 313.266C1007.4 313.266 1006.94 313.177 1006.56 313C1006.18 312.848 1005.88 312.658 1005.65 312.43C1005.44 312.177 1005.27 311.847 1005.12 311.442C1004.99 311.011 1004.9 310.619 1004.85 310.264C1004.8 309.909 1004.76 309.453 1004.74 308.896ZM1011.16 301.106C1010.83 300.473 1010.59 300.156 1010.44 300.156C1010.31 300.156 1010.18 300.232 1010.06 300.384C1009.93 300.511 1009.79 300.726 1009.64 301.03C1009.51 301.334 1009.41 301.587 1009.33 301.79C1009.26 301.993 1009.14 302.284 1008.99 302.664C1008.86 303.044 1008.8 303.247 1008.8 303.272C1008.8 303.323 1008.85 303.424 1008.95 303.576C1009.05 303.728 1009.13 303.804 1009.18 303.804C1009.28 303.804 1009.37 303.779 1009.45 303.728C1009.55 303.652 1009.65 303.551 1009.75 303.424C1009.88 303.297 1009.98 303.171 1010.06 303.044C1010.16 302.917 1010.26 302.753 1010.36 302.55C1010.49 302.347 1010.59 302.183 1010.66 302.056C1010.74 301.904 1010.83 301.727 1010.93 301.524C1011.03 301.321 1011.11 301.182 1011.16 301.106ZM1018.55 309.2C1018.55 308.187 1018.21 307.68 1017.52 307.68C1017.04 307.68 1016.35 307.971 1015.43 308.554C1014.52 309.137 1013.95 309.428 1013.72 309.428C1013.39 309.428 1013.09 309.276 1012.81 308.972C1012.56 308.643 1012.43 308.339 1012.43 308.06C1012.43 307.756 1012.93 306.831 1013.91 305.286C1014.93 303.741 1015.43 302.765 1015.43 302.36C1015.43 302.183 1015.36 302.031 1015.21 301.904C1015.08 301.777 1014.88 301.6 1014.6 301.372C1014.32 301.144 1014.08 300.916 1013.88 300.688C1013.93 300.663 1014.05 300.574 1014.26 300.422C1014.48 300.27 1014.65 300.194 1014.75 300.194H1014.83C1015.99 300.194 1016.98 299.877 1017.79 299.244C1017.97 299.092 1018.28 299.016 1018.74 299.016C1018.82 299.016 1018.9 299.029 1019.01 299.054C1019.13 299.054 1019.22 299.054 1019.27 299.054C1019.47 299.054 1019.63 299.041 1019.73 299.016C1019.65 300.105 1019.59 300.713 1019.54 300.84C1019.41 301.119 1019.06 301.752 1018.47 302.74C1017.92 303.703 1017.64 304.361 1017.64 304.716C1017.64 304.919 1017.79 305.109 1018.09 305.286C1018.42 305.463 1018.78 305.628 1019.16 305.78C1019.54 305.907 1019.88 306.16 1020.18 306.54C1020.51 306.895 1020.68 307.338 1020.68 307.87V308.212C1020.37 311.075 1019.28 313.95 1017.41 316.838C1015.56 319.751 1013.29 321.93 1010.61 323.374C1010.56 323.425 1010.46 323.45 1010.3 323.45C1010.2 323.45 1009.85 323.374 1009.24 323.222C1009.32 323.146 1009.43 323.007 1009.58 322.804C1009.73 322.601 1009.87 322.449 1010 322.348C1012 320.853 1013.77 318.89 1015.32 316.458C1016.86 314.051 1017.94 311.632 1018.55 309.2ZM1028.37 299.814C1029.97 299.966 1030.76 300.713 1030.76 302.056C1030.76 302.335 1030.75 302.55 1030.73 302.702C1030.6 303.335 1030.43 304.589 1030.23 306.464C1030.03 308.339 1029.8 309.783 1029.55 310.796C1029.29 311.784 1028.95 312.278 1028.52 312.278C1028.09 312.278 1027.74 312.025 1027.46 311.518C1027.18 310.986 1026.96 310.467 1026.81 309.96C1026.69 309.428 1026.58 309.162 1026.51 309.162L1025.48 309.732C1024.8 310.112 1024.2 310.302 1023.7 310.302C1023.16 310.302 1022.72 310.112 1022.37 309.732C1022.01 309.352 1021.83 308.896 1021.83 308.364C1021.83 306.971 1022.18 305.615 1022.86 304.298C1023.54 302.981 1024.44 301.917 1025.56 301.106C1025.79 300.903 1026.04 300.739 1026.32 300.612C1026.6 300.46 1026.98 300.308 1027.46 300.156C1027.96 299.979 1028.27 299.865 1028.37 299.814ZM1028.37 303.044C1028.04 302.487 1027.81 302.183 1027.69 302.132C1027.61 302.107 1027.51 302.094 1027.38 302.094C1026.88 302.094 1026.57 302.183 1026.47 302.36C1024.7 304.691 1023.81 306.274 1023.81 307.11C1023.81 307.262 1023.86 307.439 1023.96 307.642C1024.06 307.819 1024.22 307.908 1024.42 307.908C1024.82 307.908 1025.23 307.68 1025.63 307.224C1026.06 306.768 1026.61 305.983 1027.27 304.868C1027.95 303.753 1028.32 303.145 1028.37 303.044ZM1031.16 320.524L1032.45 310.91C1033.13 306.578 1033.57 303.652 1033.74 302.132C1033.77 301.904 1033.78 301.575 1033.78 301.144C1033.81 300.688 1033.83 300.295 1033.86 299.966C1033.88 299.611 1033.93 299.257 1034.01 298.902C1034.08 298.547 1034.2 298.281 1034.35 298.104C1034.53 297.901 1034.76 297.8 1035.03 297.8C1035.52 297.8 1036.02 298.091 1036.55 298.674C1037.09 299.231 1037.38 299.51 1037.43 299.51C1037.53 299.51 1037.87 299.206 1038.45 298.598C1039.06 297.965 1039.58 297.648 1040.01 297.648C1040.62 297.648 1041.09 297.889 1041.42 298.37C1041.77 298.826 1041.95 299.345 1041.95 299.928C1041.95 300.992 1041.75 302.284 1041.34 303.804C1040.94 305.299 1040.29 306.692 1039.4 307.984C1038.54 309.276 1037.59 309.922 1036.55 309.922C1036.38 309.922 1036.16 310.011 1035.91 310.188C1035.66 310.34 1035.5 310.517 1035.45 310.72C1035.3 311.48 1035.11 312.683 1034.88 314.33C1034.65 316.002 1034.4 317.459 1034.12 318.7C1033.87 319.941 1033.54 321.107 1033.13 322.196C1033.08 322.297 1033 322.399 1032.87 322.5C1032.74 322.627 1032.58 322.753 1032.37 322.88C1032.2 323.007 1032.06 323.108 1031.96 323.184C1031.5 322.399 1031.27 321.803 1031.27 321.398C1031.27 321.322 1031.29 321.183 1031.31 320.98C1031.31 320.777 1031.31 320.625 1031.31 320.524H1031.16ZM1038.68 306.236C1039.75 304.032 1040.38 301.993 1040.58 300.118C1040.58 299.915 1040.49 299.738 1040.32 299.586C1040.14 299.434 1039.99 299.358 1039.86 299.358C1039.68 299.358 1039.48 299.459 1039.25 299.662C1039.05 299.865 1038.85 300.156 1038.64 300.536C1038.44 300.891 1038.26 301.233 1038.11 301.562C1037.96 301.891 1037.78 302.284 1037.58 302.74C1037.38 303.196 1037.24 303.513 1037.16 303.69C1037.16 303.715 1037.15 303.753 1037.12 303.804C1037.12 303.829 1037.12 303.855 1037.12 303.88C1037.12 304.032 1037.15 304.197 1037.2 304.374C1037.25 304.526 1037.34 304.691 1037.47 304.868C1037.62 305.045 1037.73 305.185 1037.81 305.286C1037.88 305.387 1038.02 305.552 1038.23 305.78C1038.45 306.008 1038.61 306.16 1038.68 306.236Z" fill="#FEFEFE"/>
<g clip-path="url(#clip0_610_1351)">
<path d="M938.523 274.946C932.954 273.876 927.761 272.903 922.585 271.868C907.35 268.831 892.067 265.983 877.155 261.471C870.007 259.304 862.951 256.807 856.464 253.018C854.641 251.959 852.962 250.602 851.25 249.371C850.884 249.109 850.612 248.738 850.519 248.092C850.89 248.235 851.327 248.274 851.597 248.497C858.394 253.951 866.445 256.679 874.574 259.212C887.203 263.148 900.199 265.466 913.145 267.973C921.866 269.669 930.597 271.347 939.322 272.998C939.817 273.099 940.366 272.966 940.942 272.754C938.588 270.447 935.207 269.648 933.29 266.965L933.484 266.554C933.939 266.678 934.428 266.751 934.845 266.972C937.677 268.392 940.481 269.818 943.302 271.256C943.439 271.345 943.588 271.416 943.736 271.488C947.119 273.412 947.259 274.625 944.355 277.113C939.261 281.478 934.15 285.831 929.073 290.206C927.95 291.187 926.841 291.47 925.498 290.722C923.67 289.708 923.41 288.417 924.948 287.021C928.725 283.561 932.594 280.185 936.429 276.786C937.024 276.244 937.636 275.713 938.534 274.928L938.523 274.946Z" fill="#FEFEFE"/>
</g>
<path d="M363.164 318.916H363.24C363.468 318.916 363.582 319.106 363.582 319.486C363.582 319.917 363.252 320.385 362.594 320.892C361.935 321.373 361.568 321.829 361.492 322.26C361.036 324.92 360.618 327.479 360.238 329.936C360.238 329.987 360.225 330.037 360.2 330.088C360.2 330.139 360.2 330.189 360.2 330.24C360.2 330.519 360.288 330.886 360.466 331.342C360.668 331.823 360.77 332.127 360.77 332.254C360.77 332.609 360.605 332.938 360.276 333.242C359.946 333.571 359.617 333.736 359.288 333.736C358.908 333.736 358.578 333.483 358.3 332.976C358.021 332.469 357.882 331.975 357.882 331.494C357.882 330.886 357.92 330.24 357.996 329.556C358.097 328.847 358.224 328.061 358.376 327.2C358.528 326.339 358.629 325.68 358.68 325.224C358.705 325.021 358.781 324.603 358.908 323.97C359.034 323.337 359.098 322.881 359.098 322.602C359.098 322.146 358.794 321.918 358.186 321.918H357.996C356.704 321.943 355.918 322.07 355.64 322.298C355.386 322.501 355.133 323.21 354.88 324.426C354.373 327.061 354.12 328.91 354.12 329.974C354.12 330.177 354.145 330.519 354.196 331C354.272 331.481 354.31 331.836 354.31 332.064C354.31 332.849 354.031 333.242 353.474 333.242C352.587 333.242 352.144 332.292 352.144 330.392C352.144 329.759 352.182 329.113 352.258 328.454C352.334 327.795 352.473 326.934 352.676 325.87C352.878 324.781 352.992 324.122 353.018 323.894C353.068 323.489 353.094 323.172 353.094 322.944C353.094 322.437 353.03 321.88 352.904 321.272C352.777 320.664 352.714 320.347 352.714 320.322C352.714 320.246 352.739 320.208 352.79 320.208C353.676 320.208 354.12 319.397 354.12 317.776C354.12 317.269 353.93 317.003 353.55 316.978C353.752 316.573 354.044 316.053 354.424 315.42C354.829 314.761 355.095 314.305 355.222 314.052C355.374 313.976 355.551 313.938 355.754 313.938C355.931 313.938 356.108 314.052 356.286 314.28C356.488 314.483 356.59 314.685 356.59 314.888C356.387 316.763 356.197 318.169 356.02 319.106C355.969 319.359 355.944 319.537 355.944 319.638C355.944 319.917 356.045 320.107 356.248 320.208C356.45 320.309 356.792 320.36 357.274 320.36C358.084 320.36 358.68 320.259 359.06 320.056C359.465 319.853 359.706 319.473 359.782 318.916C359.807 318.713 359.858 318.169 359.934 317.282C360.035 316.395 360.124 315.724 360.2 315.268C360.276 314.812 360.377 314.267 360.504 313.634C360.656 312.975 360.833 312.494 361.036 312.19C361.264 311.886 361.53 311.734 361.834 311.734C362.112 311.734 362.34 311.835 362.518 312.038C362.695 312.241 362.784 312.507 362.784 312.836C362.784 313.444 362.682 314.356 362.48 315.572C362.277 316.763 362.176 317.649 362.176 318.232C362.176 318.739 362.366 318.992 362.746 318.992C362.822 318.992 362.961 318.967 363.164 318.916ZM371.251 317.814C372.847 317.966 373.645 318.713 373.645 320.056C373.645 320.335 373.632 320.55 373.607 320.702C373.48 321.335 373.316 322.589 373.113 324.464C372.91 326.339 372.682 327.783 372.429 328.796C372.176 329.784 371.834 330.278 371.403 330.278C370.972 330.278 370.618 330.025 370.339 329.518C370.06 328.986 369.845 328.467 369.693 327.96C369.566 327.428 369.465 327.162 369.389 327.162L368.363 327.732C367.679 328.112 367.084 328.302 366.577 328.302C366.045 328.302 365.602 328.112 365.247 327.732C364.892 327.352 364.715 326.896 364.715 326.364C364.715 324.971 365.057 323.615 365.741 322.298C366.425 320.981 367.324 319.917 368.439 319.106C368.667 318.903 368.92 318.739 369.199 318.612C369.478 318.46 369.858 318.308 370.339 318.156C370.846 317.979 371.15 317.865 371.251 317.814ZM371.251 321.044C370.922 320.487 370.694 320.183 370.567 320.132C370.491 320.107 370.39 320.094 370.263 320.094C369.756 320.094 369.452 320.183 369.351 320.36C367.578 322.691 366.691 324.274 366.691 325.11C366.691 325.262 366.742 325.439 366.843 325.642C366.944 325.819 367.096 325.908 367.299 325.908C367.704 325.908 368.11 325.68 368.515 325.224C368.946 324.768 369.49 323.983 370.149 322.868C370.833 321.753 371.2 321.145 371.251 321.044ZM382.818 318.916C382.742 319.625 382.539 320.271 382.21 320.854C382.032 320.677 381.855 320.461 381.678 320.208C381.5 319.955 381.361 319.765 381.26 319.638C381.158 319.511 381.044 319.448 380.918 319.448C380.69 319.448 380.449 319.625 380.196 319.98C379.056 321.424 378.486 323.248 378.486 325.452C378.486 326.693 378.967 327.314 379.93 327.314C380.234 327.314 380.69 327.137 381.298 326.782C381.931 326.402 382.412 326.212 382.742 326.212C383.147 326.212 383.35 326.402 383.35 326.782C383.147 327.466 382.539 328.112 381.526 328.72C380.538 329.328 379.613 329.632 378.752 329.632C378.296 329.632 377.928 329.543 377.65 329.366C376.814 328.809 376.256 328.188 375.978 327.504C375.699 326.82 375.56 325.959 375.56 324.92C375.56 321.829 376.725 319.397 379.056 317.624C379.613 317.067 380.424 316.788 381.488 316.788C382.374 316.788 382.818 317.371 382.818 318.536V318.916ZM385.245 325.718C385.929 321.386 386.398 318.574 386.651 317.282C386.778 316.547 387.158 316.18 387.791 316.18C388.349 316.18 388.627 316.395 388.627 316.826C388.627 316.927 388.564 317.231 388.437 317.738C388.311 318.65 388.121 319.98 387.867 321.728C387.614 323.476 387.462 324.515 387.411 324.844C387.411 325.021 387.475 325.262 387.601 325.566C387.753 325.87 387.842 326.073 387.867 326.174C388.425 325.845 388.754 325.579 388.855 325.376C389.134 324.869 390.616 322.222 393.301 317.434C393.681 316.801 394.036 316.484 394.365 316.484C394.796 316.484 395.125 316.636 395.353 316.94C395.607 317.244 395.733 317.586 395.733 317.966C395.733 318.143 395.721 318.283 395.695 318.384C394.91 321.5 394.277 324.185 393.795 326.44C393.745 326.744 393.719 326.972 393.719 327.124C393.719 327.479 393.795 327.909 393.947 328.416C394.099 328.923 394.175 329.239 394.175 329.366C394.175 329.645 393.973 329.936 393.567 330.24C393.187 330.519 392.833 330.658 392.503 330.658C392.326 330.658 392.161 330.607 392.009 330.506C391.857 330.379 391.718 330.177 391.591 329.898C391.465 329.619 391.363 329.404 391.287 329.252C391.211 329.075 391.11 328.796 390.983 328.416C390.882 328.011 390.819 327.783 390.793 327.732L390.451 326.668L389.463 327.162C389.311 327.289 389.083 327.542 388.779 327.922C388.475 328.277 388.197 328.543 387.943 328.72C387.69 328.897 387.411 328.986 387.107 328.986C386.702 328.986 386.373 328.821 386.119 328.492C385.866 328.163 385.701 327.808 385.625 327.428C385.549 327.023 385.461 326.453 385.359 325.718H385.245ZM400.575 329.746C400.6 329.087 400.689 327.884 400.841 326.136C400.993 324.363 401.069 323.007 401.069 322.07C401.069 321.715 400.98 321.487 400.803 321.386C400.651 321.259 400.283 321.171 399.701 321.12C398.789 321.095 398.092 320.677 397.611 319.866C397.129 319.03 396.889 318.093 396.889 317.054C396.889 315.255 397.712 314.128 399.359 313.672C400.017 313.672 400.347 313.963 400.347 314.546C400.347 314.673 400.334 314.774 400.309 314.85C400.258 315.053 400.119 315.585 399.891 316.446C399.688 317.307 399.536 317.966 399.435 318.422C399.409 318.473 399.397 318.536 399.397 318.612C399.397 318.713 399.46 318.979 399.587 319.41C400.195 319.283 400.828 318.789 401.487 317.928C402.171 317.067 402.817 316.636 403.425 316.636C403.957 316.636 404.223 316.953 404.223 317.586C404.223 317.611 404.21 317.675 404.185 317.776C404.185 317.852 404.185 317.915 404.185 317.966C404.109 318.625 403.982 319.765 403.805 321.386C403.627 322.982 403.501 324.211 403.425 325.072C403.399 325.376 403.387 326.174 403.387 327.466C403.412 328.758 403.336 329.746 403.159 330.43C403.007 331.089 402.703 331.418 402.247 331.418C402.095 331.418 401.93 331.329 401.753 331.152C401.575 330.975 401.36 330.734 401.107 330.43C400.879 330.101 400.701 329.873 400.575 329.746ZM406.138 326.896C406.163 325.857 406.29 324.743 406.518 323.552C406.771 322.361 407.113 321.196 407.544 320.056C407.975 318.891 408.557 317.928 409.292 317.168C410.052 316.408 410.875 316.028 411.762 316.028C412.421 316.028 412.965 316.231 413.396 316.636C413.827 317.016 414.042 317.561 414.042 318.27C414.042 319.106 413.358 320.537 411.99 322.564C411.787 322.919 411.255 323.501 410.394 324.312C409.558 325.097 409.14 325.845 409.14 326.554C409.14 327.466 409.317 328.023 409.672 328.226C409.875 328.353 410.141 328.416 410.47 328.416C410.673 328.391 411.002 328.302 411.458 328.15C411.914 327.973 412.256 327.884 412.484 327.884C412.889 327.884 413.092 328.074 413.092 328.454C413.092 329.189 412.661 329.847 411.8 330.43C410.964 330.987 410.141 331.266 409.33 331.266C408.798 331.266 408.342 331.177 407.962 331C407.582 330.848 407.278 330.658 407.05 330.43C406.847 330.177 406.67 329.847 406.518 329.442C406.391 329.011 406.303 328.619 406.252 328.264C406.201 327.909 406.163 327.453 406.138 326.896ZM412.56 319.106C412.231 318.473 411.99 318.156 411.838 318.156C411.711 318.156 411.585 318.232 411.458 318.384C411.331 318.511 411.192 318.726 411.04 319.03C410.913 319.334 410.812 319.587 410.736 319.79C410.66 319.993 410.546 320.284 410.394 320.664C410.267 321.044 410.204 321.247 410.204 321.272C410.204 321.323 410.255 321.424 410.356 321.576C410.457 321.728 410.533 321.804 410.584 321.804C410.685 321.804 410.774 321.779 410.85 321.728C410.951 321.652 411.053 321.551 411.154 321.424C411.281 321.297 411.382 321.171 411.458 321.044C411.559 320.917 411.661 320.753 411.762 320.55C411.889 320.347 411.99 320.183 412.066 320.056C412.142 319.904 412.231 319.727 412.332 319.524C412.433 319.321 412.509 319.182 412.56 319.106ZM426.584 318.916H426.66C426.888 318.916 427.002 319.106 427.002 319.486C427.002 319.917 426.672 320.385 426.014 320.892C425.355 321.373 424.988 321.829 424.912 322.26C424.456 324.92 424.038 327.479 423.658 329.936C423.658 329.987 423.645 330.037 423.62 330.088C423.62 330.139 423.62 330.189 423.62 330.24C423.62 330.519 423.708 330.886 423.886 331.342C424.088 331.823 424.19 332.127 424.19 332.254C424.19 332.609 424.025 332.938 423.696 333.242C423.366 333.571 423.037 333.736 422.708 333.736C422.328 333.736 421.998 333.483 421.72 332.976C421.441 332.469 421.302 331.975 421.302 331.494C421.302 330.886 421.34 330.24 421.416 329.556C421.517 328.847 421.644 328.061 421.796 327.2C421.948 326.339 422.049 325.68 422.1 325.224C422.125 325.021 422.201 324.603 422.328 323.97C422.454 323.337 422.518 322.881 422.518 322.602C422.518 322.146 422.214 321.918 421.606 321.918H421.416C420.124 321.943 419.338 322.07 419.06 322.298C418.806 322.501 418.553 323.21 418.3 324.426C417.793 327.061 417.54 328.91 417.54 329.974C417.54 330.177 417.565 330.519 417.616 331C417.692 331.481 417.73 331.836 417.73 332.064C417.73 332.849 417.451 333.242 416.894 333.242C416.007 333.242 415.564 332.292 415.564 330.392C415.564 329.759 415.602 329.113 415.678 328.454C415.754 327.795 415.893 326.934 416.096 325.87C416.298 324.781 416.412 324.122 416.438 323.894C416.488 323.489 416.514 323.172 416.514 322.944C416.514 322.437 416.45 321.88 416.324 321.272C416.197 320.664 416.134 320.347 416.134 320.322C416.134 320.246 416.159 320.208 416.21 320.208C417.096 320.208 417.54 319.397 417.54 317.776C417.54 317.269 417.35 317.003 416.97 316.978C417.172 316.573 417.464 316.053 417.844 315.42C418.249 314.761 418.515 314.305 418.642 314.052C418.794 313.976 418.971 313.938 419.174 313.938C419.351 313.938 419.528 314.052 419.706 314.28C419.908 314.483 420.01 314.685 420.01 314.888C419.807 316.763 419.617 318.169 419.44 319.106C419.389 319.359 419.364 319.537 419.364 319.638C419.364 319.917 419.465 320.107 419.668 320.208C419.87 320.309 420.212 320.36 420.694 320.36C421.504 320.36 422.1 320.259 422.48 320.056C422.885 319.853 423.126 319.473 423.202 318.916C423.227 318.713 423.278 318.169 423.354 317.282C423.455 316.395 423.544 315.724 423.62 315.268C423.696 314.812 423.797 314.267 423.924 313.634C424.076 312.975 424.253 312.494 424.456 312.19C424.684 311.886 424.95 311.734 425.254 311.734C425.532 311.734 425.76 311.835 425.938 312.038C426.115 312.241 426.204 312.507 426.204 312.836C426.204 313.444 426.102 314.356 425.9 315.572C425.697 316.763 425.596 317.649 425.596 318.232C425.596 318.739 425.786 318.992 426.166 318.992C426.242 318.992 426.381 318.967 426.584 318.916ZM428.515 325.718C429.199 321.386 429.668 318.574 429.921 317.282C430.048 316.547 430.428 316.18 431.061 316.18C431.618 316.18 431.897 316.395 431.897 316.826C431.897 316.927 431.834 317.231 431.707 317.738C431.58 318.65 431.39 319.98 431.137 321.728C430.884 323.476 430.732 324.515 430.681 324.844C430.681 325.021 430.744 325.262 430.871 325.566C431.023 325.87 431.112 326.073 431.137 326.174C431.694 325.845 432.024 325.579 432.125 325.376C432.404 324.869 433.886 322.222 436.571 317.434C436.951 316.801 437.306 316.484 437.635 316.484C438.066 316.484 438.395 316.636 438.623 316.94C438.876 317.244 439.003 317.586 439.003 317.966C439.003 318.143 438.99 318.283 438.965 318.384C438.18 321.5 437.546 324.185 437.065 326.44C437.014 326.744 436.989 326.972 436.989 327.124C436.989 327.479 437.065 327.909 437.217 328.416C437.369 328.923 437.445 329.239 437.445 329.366C437.445 329.645 437.242 329.936 436.837 330.24C436.457 330.519 436.102 330.658 435.773 330.658C435.596 330.658 435.431 330.607 435.279 330.506C435.127 330.379 434.988 330.177 434.861 329.898C434.734 329.619 434.633 329.404 434.557 329.252C434.481 329.075 434.38 328.796 434.253 328.416C434.152 328.011 434.088 327.783 434.063 327.732L433.721 326.668L432.733 327.162C432.581 327.289 432.353 327.542 432.049 327.922C431.745 328.277 431.466 328.543 431.213 328.72C430.96 328.897 430.681 328.986 430.377 328.986C429.972 328.986 429.642 328.821 429.389 328.492C429.136 328.163 428.971 327.808 428.895 327.428C428.819 327.023 428.73 326.453 428.629 325.718H428.515ZM440.538 325.718C441.324 321.006 441.792 318.219 441.944 317.358C442.071 316.674 442.4 316.332 442.932 316.332C443.566 316.332 443.882 316.573 443.882 317.054C443.882 317.079 443.844 317.32 443.768 317.776C443.262 320.968 442.907 323.362 442.704 324.958V325.072C442.704 325.173 442.73 325.3 442.78 325.452C442.831 325.579 442.894 325.731 442.97 325.908C443.072 326.06 443.135 326.187 443.16 326.288C443.211 326.237 443.325 326.161 443.502 326.06C443.68 325.933 443.819 325.819 443.92 325.718C444.047 325.617 444.148 325.503 444.224 325.376C444.731 324.489 445.466 323.159 446.428 321.386C447.416 319.613 448.164 318.295 448.67 317.434C448.746 317.257 448.911 317.092 449.164 316.94C449.443 316.763 449.658 316.674 449.81 316.674C450.114 316.674 450.368 316.889 450.57 317.32C450.773 317.725 450.874 318.042 450.874 318.27C450.874 318.473 450.71 319.334 450.38 320.854C449.519 324.603 449.063 326.617 449.012 326.896C448.962 327.099 448.936 327.263 448.936 327.39C448.936 327.694 449.025 328.074 449.202 328.53C449.38 328.986 449.468 329.277 449.468 329.404C449.468 329.683 449.278 329.974 448.898 330.278C448.518 330.582 448.164 330.734 447.834 330.734C447.328 330.734 446.897 330.443 446.542 329.86C446.213 329.252 446.048 328.669 446.048 328.112C446.048 328.036 446.048 327.922 446.048 327.77C446.074 327.618 446.086 327.491 446.086 327.39C446.086 327.314 446.061 327.2 446.01 327.048C445.96 326.896 445.934 326.795 445.934 326.744C445.326 326.896 444.68 327.327 443.996 328.036C443.338 328.72 442.793 329.062 442.362 329.062C441.653 329.062 441.159 328.555 440.88 327.542C440.855 327.441 440.83 327.251 440.804 326.972C440.779 326.668 440.741 326.402 440.69 326.174C440.665 325.946 440.614 325.794 440.538 325.718ZM443.54 312.988C443.211 312.836 442.983 312.659 442.856 312.456C442.856 311.848 443.287 311.379 444.148 311.05C444.503 310.923 445.263 310.632 446.428 310.176C447.619 309.695 448.544 309.34 449.202 309.112C449.228 309.112 449.291 309.087 449.392 309.036C449.494 308.985 449.557 308.96 449.582 308.96C449.709 308.96 449.836 308.973 449.962 308.998C450.114 309.023 450.266 309.061 450.418 309.112C450.57 309.137 450.697 309.163 450.798 309.188C450.748 309.264 450.684 309.403 450.608 309.606C450.558 309.783 450.494 309.935 450.418 310.062C450.368 310.163 450.304 310.239 450.228 310.29C448.506 311.075 446.479 311.949 444.148 312.912C444.123 312.912 443.92 312.937 443.54 312.988ZM361.639 350.842C361.462 351.526 361.234 352.552 360.955 353.92C360.702 355.263 360.436 356.466 360.157 357.53C359.879 358.594 359.562 359.531 359.207 360.342C359.182 360.443 359.119 360.532 359.017 360.608C358.941 360.709 358.815 360.811 358.637 360.912C358.485 361.039 358.384 361.127 358.333 361.178C358.308 361.102 358.219 360.937 358.067 360.684C357.915 360.431 357.839 360.241 357.839 360.114C357.966 359.43 358.181 358.467 358.485 357.226C358.815 355.959 358.992 355.25 359.017 355.098L359.853 351.374C359.853 351.349 359.815 351.108 359.739 350.652C359.689 350.677 359.6 350.703 359.473 350.728C359.372 350.728 359.283 350.741 359.207 350.766C359.131 350.791 359.068 350.829 359.017 350.88C358.485 351.463 357.789 352.387 356.927 353.654C356.066 354.921 355.496 355.744 355.217 356.124C355.116 356.251 354.736 356.453 354.077 356.732C353.824 356.149 353.697 355.807 353.697 355.706C353.697 355.326 353.786 354.731 353.963 353.92C354.141 353.109 354.229 352.514 354.229 352.134C354.229 352.109 354.153 351.792 354.001 351.184C351.468 352.805 349.745 355.136 348.833 358.176C348.656 358.733 348.39 359.24 348.035 359.696C347.681 360.127 347.351 360.342 347.047 360.342C346.794 360.342 346.553 360.177 346.325 359.848C346.123 359.493 346.021 359.063 346.021 358.556V358.29C346.427 355.833 346.984 352.805 347.693 349.208C347.871 348.347 348.479 347.916 349.517 347.916C350.252 347.916 350.619 348.473 350.619 349.588C350.619 349.791 350.581 350.107 350.505 350.538C350.429 350.943 350.391 351.26 350.391 351.488C350.391 351.615 350.417 351.805 350.467 352.058C350.518 352.311 350.543 352.489 350.543 352.59C350.619 352.565 350.797 352.514 351.075 352.438C351.379 352.337 351.582 352.235 351.683 352.134C351.937 351.957 352.291 351.64 352.747 351.184C353.203 350.703 353.609 350.323 353.963 350.044C354.343 349.765 354.685 349.626 354.989 349.626C355.217 349.626 355.407 349.93 355.559 350.538C355.737 351.146 355.851 351.754 355.901 352.362C356.053 352.185 356.269 351.982 356.547 351.754C356.851 351.501 357.067 351.298 357.193 351.146C357.32 350.994 357.535 350.715 357.839 350.31C358.169 349.879 358.409 349.588 358.561 349.436C358.713 349.259 358.954 349.081 359.283 348.904C359.613 348.727 359.967 348.638 360.347 348.638C360.55 348.638 360.778 348.828 361.031 349.208C361.285 349.563 361.411 349.981 361.411 350.462V350.804H361.487C361.538 350.829 361.589 350.842 361.639 350.842ZM363.147 354.452C363.223 353.945 363.375 353.337 363.603 352.628C363.856 351.893 364.185 351.121 364.591 350.31C364.996 349.474 365.541 348.777 366.225 348.22C366.909 347.637 367.631 347.346 368.391 347.346C369.531 347.346 370.101 347.675 370.101 348.334C370.101 348.638 370.025 348.828 369.873 348.904C369.315 349.385 368.834 349.905 368.429 350.462C368.023 350.994 367.681 351.602 367.403 352.286C367.149 352.97 366.959 353.527 366.833 353.958C366.731 354.389 366.592 355.022 366.415 355.858V355.972C366.415 356.149 366.465 356.339 366.567 356.542C366.693 356.719 366.833 356.922 366.985 357.15C367.162 357.378 367.289 357.555 367.365 357.682C367.491 357.631 367.732 357.543 368.087 357.416C368.467 357.289 368.758 357.175 368.961 357.074C369.189 356.947 369.341 356.821 369.417 356.694C371.063 353.831 371.887 351.64 371.887 350.12C371.887 349.867 371.798 349.474 371.621 348.942C371.443 348.385 371.355 347.954 371.355 347.65C371.355 347.245 371.659 346.89 372.267 346.586C372.317 346.637 372.457 346.751 372.685 346.928C372.913 347.105 373.052 347.245 373.103 347.346C373.635 348.587 373.901 349.841 373.901 351.108C373.901 353.059 373.204 354.933 371.811 356.732C370.443 358.531 368.91 359.43 367.213 359.43C365.921 359.43 364.92 358.999 364.211 358.138C363.501 357.277 363.147 356.048 363.147 354.452ZM375.422 362.356C375.448 362.103 375.486 361.697 375.536 361.14C375.562 360.583 375.587 360.139 375.612 359.81C375.638 359.481 375.688 359.088 375.764 358.632C375.84 358.176 375.942 357.771 376.068 357.416C376.753 355.237 377.905 352.4 379.527 348.904C379.831 348.22 380.337 347.574 381.047 346.966C381.781 346.333 382.389 346.016 382.871 346.016C383.58 346.016 384.112 346.497 384.467 347.46C384.821 348.423 385.037 349.537 385.113 350.804C385.113 351.209 385.037 351.817 384.885 352.628C384.758 353.439 384.695 354.034 384.695 354.414C384.695 354.642 384.733 354.895 384.809 355.174C385.467 354.946 385.847 354.781 385.949 354.68C386.202 354.376 386.607 353.857 387.165 353.122C387.722 352.362 388.191 351.741 388.571 351.26C388.951 350.779 389.394 350.335 389.901 349.93C390.407 349.525 390.863 349.322 391.269 349.322C391.471 349.322 391.674 349.525 391.877 349.93C392.079 350.335 392.181 350.652 392.181 350.88C392.181 351.564 392.13 352.273 392.029 353.008C391.953 353.743 391.813 354.642 391.611 355.706C391.433 356.745 391.319 357.441 391.269 357.796C391.091 358.809 390.889 359.519 390.661 359.924C390.433 360.304 390.04 360.494 389.483 360.494C388.545 360.494 388.077 360.076 388.077 359.24C388.077 358.936 388.14 358.467 388.267 357.834C388.393 357.201 388.457 356.707 388.457 356.352C388.457 356.276 388.431 356.162 388.381 356.01C388.33 355.833 388.305 355.706 388.305 355.63C387.899 355.681 387.646 355.757 387.545 355.858C387.266 356.111 386.759 356.605 386.025 357.34C385.29 358.075 384.657 358.645 384.125 359.05C383.593 359.455 383.149 359.658 382.795 359.658C382.44 359.658 382.149 359.544 381.921 359.316C381.718 359.063 381.617 358.797 381.617 358.518C381.617 358.265 381.769 357.707 382.073 356.846C382.909 354.414 383.327 352.273 383.327 350.424C383.327 350.196 383.301 349.981 383.251 349.778C383.225 349.575 383.187 349.423 383.137 349.322C383.111 349.221 383.048 349.056 382.947 348.828C382.845 348.6 382.769 348.435 382.719 348.334C382.617 348.385 382.453 348.473 382.225 348.6C381.997 348.727 381.807 348.841 381.655 348.942C381.528 349.043 381.439 349.157 381.389 349.284C380.654 350.855 379.666 353.135 378.425 356.124C377.209 359.088 376.322 361.203 375.764 362.47C375.714 362.47 375.663 362.445 375.612 362.394C375.536 362.369 375.473 362.356 375.422 362.356ZM400.252 346.814C401.848 346.966 402.646 347.713 402.646 349.056C402.646 349.335 402.633 349.55 402.608 349.702C402.481 350.335 402.317 351.589 402.114 353.464C401.911 355.339 401.683 356.783 401.43 357.796C401.177 358.784 400.835 359.278 400.404 359.278C399.973 359.278 399.619 359.025 399.34 358.518C399.061 357.986 398.846 357.467 398.694 356.96C398.567 356.428 398.466 356.162 398.39 356.162L397.364 356.732C396.68 357.112 396.085 357.302 395.578 357.302C395.046 357.302 394.603 357.112 394.248 356.732C393.893 356.352 393.716 355.896 393.716 355.364C393.716 353.971 394.058 352.615 394.742 351.298C395.426 349.981 396.325 348.917 397.44 348.106C397.668 347.903 397.921 347.739 398.2 347.612C398.479 347.46 398.859 347.308 399.34 347.156C399.847 346.979 400.151 346.865 400.252 346.814ZM400.252 350.044C399.923 349.487 399.695 349.183 399.568 349.132C399.492 349.107 399.391 349.094 399.264 349.094C398.757 349.094 398.453 349.183 398.352 349.36C396.579 351.691 395.692 353.274 395.692 354.11C395.692 354.262 395.743 354.439 395.844 354.642C395.945 354.819 396.097 354.908 396.3 354.908C396.705 354.908 397.111 354.68 397.516 354.224C397.947 353.768 398.491 352.983 399.15 351.868C399.834 350.753 400.201 350.145 400.252 350.044ZM419.419 350.842C419.241 351.526 419.013 352.552 418.735 353.92C418.481 355.263 418.215 356.466 417.937 357.53C417.658 358.594 417.341 359.531 416.987 360.342C416.961 360.443 416.898 360.532 416.797 360.608C416.721 360.709 416.594 360.811 416.417 360.912C416.265 361.039 416.163 361.127 416.113 361.178C416.087 361.102 415.999 360.937 415.847 360.684C415.695 360.431 415.619 360.241 415.619 360.114C415.745 359.43 415.961 358.467 416.265 357.226C416.594 355.959 416.771 355.25 416.797 355.098L417.633 351.374C417.633 351.349 417.595 351.108 417.519 350.652C417.468 350.677 417.379 350.703 417.253 350.728C417.151 350.728 417.063 350.741 416.987 350.766C416.911 350.791 416.847 350.829 416.797 350.88C416.265 351.463 415.568 352.387 414.707 353.654C413.845 354.921 413.275 355.744 412.997 356.124C412.895 356.251 412.515 356.453 411.857 356.732C411.603 356.149 411.477 355.807 411.477 355.706C411.477 355.326 411.565 354.731 411.743 353.92C411.92 353.109 412.009 352.514 412.009 352.134C412.009 352.109 411.933 351.792 411.781 351.184C409.247 352.805 407.525 355.136 406.613 358.176C406.435 358.733 406.169 359.24 405.815 359.696C405.46 360.127 405.131 360.342 404.827 360.342C404.573 360.342 404.333 360.177 404.105 359.848C403.902 359.493 403.801 359.063 403.801 358.556V358.29C404.206 355.833 404.763 352.805 405.473 349.208C405.65 348.347 406.258 347.916 407.297 347.916C408.031 347.916 408.399 348.473 408.399 349.588C408.399 349.791 408.361 350.107 408.285 350.538C408.209 350.943 408.171 351.26 408.171 351.488C408.171 351.615 408.196 351.805 408.247 352.058C408.297 352.311 408.323 352.489 408.323 352.59C408.399 352.565 408.576 352.514 408.855 352.438C409.159 352.337 409.361 352.235 409.463 352.134C409.716 351.957 410.071 351.64 410.527 351.184C410.983 350.703 411.388 350.323 411.743 350.044C412.123 349.765 412.465 349.626 412.769 349.626C412.997 349.626 413.187 349.93 413.339 350.538C413.516 351.146 413.63 351.754 413.681 352.362C413.833 352.185 414.048 351.982 414.327 351.754C414.631 351.501 414.846 351.298 414.973 351.146C415.099 350.994 415.315 350.715 415.619 350.31C415.948 349.879 416.189 349.588 416.341 349.436C416.493 349.259 416.733 349.081 417.063 348.904C417.392 348.727 417.747 348.638 418.127 348.638C418.329 348.638 418.557 348.828 418.811 349.208C419.064 349.563 419.191 349.981 419.191 350.462V350.804H419.267C419.317 350.829 419.368 350.842 419.419 350.842ZM431.946 347.916H432.022C432.25 347.916 432.364 348.106 432.364 348.486C432.364 348.917 432.035 349.385 431.376 349.892C430.717 350.373 430.35 350.829 430.274 351.26C429.818 353.92 429.4 356.479 429.02 358.936C429.02 358.987 429.007 359.037 428.982 359.088C428.982 359.139 428.982 359.189 428.982 359.24C428.982 359.519 429.071 359.886 429.248 360.342C429.451 360.823 429.552 361.127 429.552 361.254C429.552 361.609 429.387 361.938 429.058 362.242C428.729 362.571 428.399 362.736 428.07 362.736C427.69 362.736 427.361 362.483 427.082 361.976C426.803 361.469 426.664 360.975 426.664 360.494C426.664 359.886 426.702 359.24 426.778 358.556C426.879 357.847 427.006 357.061 427.158 356.2C427.31 355.339 427.411 354.68 427.462 354.224C427.487 354.021 427.563 353.603 427.69 352.97C427.817 352.337 427.88 351.881 427.88 351.602C427.88 351.146 427.576 350.918 426.968 350.918H426.778C425.486 350.943 424.701 351.07 424.422 351.298C424.169 351.501 423.915 352.21 423.662 353.426C423.155 356.061 422.902 357.91 422.902 358.974C422.902 359.177 422.927 359.519 422.978 360C423.054 360.481 423.092 360.836 423.092 361.064C423.092 361.849 422.813 362.242 422.256 362.242C421.369 362.242 420.926 361.292 420.926 359.392C420.926 358.759 420.964 358.113 421.04 357.454C421.116 356.795 421.255 355.934 421.458 354.87C421.661 353.781 421.775 353.122 421.8 352.894C421.851 352.489 421.876 352.172 421.876 351.944C421.876 351.437 421.813 350.88 421.686 350.272C421.559 349.664 421.496 349.347 421.496 349.322C421.496 349.246 421.521 349.208 421.572 349.208C422.459 349.208 422.902 348.397 422.902 346.776C422.902 346.269 422.712 346.003 422.332 345.978C422.535 345.573 422.826 345.053 423.206 344.42C423.611 343.761 423.877 343.305 424.004 343.052C424.156 342.976 424.333 342.938 424.536 342.938C424.713 342.938 424.891 343.052 425.068 343.28C425.271 343.483 425.372 343.685 425.372 343.888C425.169 345.763 424.979 347.169 424.802 348.106C424.751 348.359 424.726 348.537 424.726 348.638C424.726 348.917 424.827 349.107 425.03 349.208C425.233 349.309 425.575 349.36 426.056 349.36C426.867 349.36 427.462 349.259 427.842 349.056C428.247 348.853 428.488 348.473 428.564 347.916C428.589 347.713 428.64 347.169 428.716 346.282C428.817 345.395 428.906 344.724 428.982 344.268C429.058 343.812 429.159 343.267 429.286 342.634C429.438 341.975 429.615 341.494 429.818 341.19C430.046 340.886 430.312 340.734 430.616 340.734C430.895 340.734 431.123 340.835 431.3 341.038C431.477 341.241 431.566 341.507 431.566 341.836C431.566 342.444 431.465 343.356 431.262 344.572C431.059 345.763 430.958 346.649 430.958 347.232C430.958 347.739 431.148 347.992 431.528 347.992C431.604 347.992 431.743 347.967 431.946 347.916ZM433.877 354.718C434.561 350.386 435.03 347.574 435.283 346.282C435.41 345.547 435.79 345.18 436.423 345.18C436.981 345.18 437.259 345.395 437.259 345.826C437.259 345.927 437.196 346.231 437.069 346.738C436.943 347.65 436.753 348.98 436.499 350.728C436.246 352.476 436.094 353.515 436.043 353.844C436.043 354.021 436.107 354.262 436.233 354.566C436.385 354.87 436.474 355.073 436.499 355.174C437.057 354.845 437.386 354.579 437.487 354.376C437.766 353.869 439.248 351.222 441.933 346.434C442.313 345.801 442.668 345.484 442.997 345.484C443.428 345.484 443.757 345.636 443.985 345.94C444.239 346.244 444.365 346.586 444.365 346.966C444.365 347.143 444.353 347.283 444.327 347.384C443.542 350.5 442.909 353.185 442.427 355.44C442.377 355.744 442.351 355.972 442.351 356.124C442.351 356.479 442.427 356.909 442.579 357.416C442.731 357.923 442.807 358.239 442.807 358.366C442.807 358.645 442.605 358.936 442.199 359.24C441.819 359.519 441.465 359.658 441.135 359.658C440.958 359.658 440.793 359.607 440.641 359.506C440.489 359.379 440.35 359.177 440.223 358.898C440.097 358.619 439.995 358.404 439.919 358.252C439.843 358.075 439.742 357.796 439.615 357.416C439.514 357.011 439.451 356.783 439.425 356.732L439.083 355.668L438.095 356.162C437.943 356.289 437.715 356.542 437.411 356.922C437.107 357.277 436.829 357.543 436.575 357.72C436.322 357.897 436.043 357.986 435.739 357.986C435.334 357.986 435.005 357.821 434.751 357.492C434.498 357.163 434.333 356.808 434.257 356.428C434.181 356.023 434.093 355.453 433.991 354.718H433.877ZM445.901 354.718C446.686 350.006 447.155 347.219 447.307 346.358C447.433 345.674 447.763 345.332 448.295 345.332C448.928 345.332 449.245 345.573 449.245 346.054C449.245 346.079 449.207 346.32 449.131 346.776C448.624 349.968 448.269 352.362 448.067 353.958V354.072C448.067 354.173 448.092 354.3 448.143 354.452C448.193 354.579 448.257 354.731 448.333 354.908C448.434 355.06 448.497 355.187 448.523 355.288C448.573 355.237 448.687 355.161 448.865 355.06C449.042 354.933 449.181 354.819 449.283 354.718C449.409 354.617 449.511 354.503 449.587 354.376C450.093 353.489 450.828 352.159 451.791 350.386C452.779 348.613 453.526 347.295 454.033 346.434C454.109 346.257 454.273 346.092 454.527 345.94C454.805 345.763 455.021 345.674 455.173 345.674C455.477 345.674 455.73 345.889 455.933 346.32C456.135 346.725 456.237 347.042 456.237 347.27C456.237 347.473 456.072 348.334 455.743 349.854C454.881 353.603 454.425 355.617 454.375 355.896C454.324 356.099 454.299 356.263 454.299 356.39C454.299 356.694 454.387 357.074 454.565 357.53C454.742 357.986 454.831 358.277 454.831 358.404C454.831 358.683 454.641 358.974 454.261 359.278C453.881 359.582 453.526 359.734 453.197 359.734C452.69 359.734 452.259 359.443 451.905 358.86C451.575 358.252 451.411 357.669 451.411 357.112C451.411 357.036 451.411 356.922 451.411 356.77C451.436 356.618 451.449 356.491 451.449 356.39C451.449 356.314 451.423 356.2 451.373 356.048C451.322 355.896 451.297 355.795 451.297 355.744C450.689 355.896 450.043 356.327 449.359 357.036C448.7 357.72 448.155 358.062 447.725 358.062C447.015 358.062 446.521 357.555 446.243 356.542C446.217 356.441 446.192 356.251 446.167 355.972C446.141 355.668 446.103 355.402 446.053 355.174C446.027 354.946 445.977 354.794 445.901 354.718ZM448.903 341.988C448.573 341.836 448.345 341.659 448.219 341.456C448.219 340.848 448.649 340.379 449.511 340.05C449.865 339.923 450.625 339.632 451.791 339.176C452.981 338.695 453.906 338.34 454.565 338.112C454.59 338.112 454.653 338.087 454.755 338.036C454.856 337.985 454.919 337.96 454.945 337.96C455.071 337.96 455.198 337.973 455.325 337.998C455.477 338.023 455.629 338.061 455.781 338.112C455.933 338.137 456.059 338.163 456.161 338.188C456.11 338.264 456.047 338.403 455.971 338.606C455.92 338.783 455.857 338.935 455.781 339.062C455.73 339.163 455.667 339.239 455.591 339.29C453.868 340.075 451.841 340.949 449.511 341.912C449.485 341.912 449.283 341.937 448.903 341.988Z" fill="#FEFEFE"/>
<g clip-path="url(#clip1_610_1351)">
<path d="M546.268 239.388C545.118 239.606 543.901 239.643 542.818 240.041C537.398 242.052 531.892 243.856 526.668 246.286C509.967 254.08 495.17 264.822 481.176 276.688C476.293 280.84 471.367 284.96 466.465 289.085C466.182 289.327 465.923 289.573 465.322 290.124C468.207 290.1 470.687 290.033 473.179 290.04C479.851 290.096 486.522 290.152 493.205 290.282C494.316 290.299 495.426 290.751 496.545 291.01L496.564 291.906C495.607 292.132 494.661 292.577 493.715 292.587C487.616 292.579 481.498 292.399 475.4 292.39C471.915 292.386 468.402 292.545 464.914 292.854C463.34 293 461.844 293.835 460.29 294.154C459.164 294.376 457.959 294.343 456.801 294.173C456.519 294.126 456.056 292.987 456.237 292.631C460.285 284.069 464.427 275.523 468.566 267.001C468.86 266.399 469.272 265.527 469.775 265.418C470.626 265.247 471.631 265.463 472.451 265.77C472.632 265.848 472.627 267.029 472.415 267.573C470.26 272.785 468.037 277.961 465.815 283.138C465.661 283.474 465.555 283.818 465.681 284.37C467.169 283.147 468.656 281.925 470.171 280.683C481.099 271.657 491.941 262.568 504.037 255.089C513.622 249.167 523.443 243.719 534.118 239.959C537.026 238.926 540.123 238.359 543.168 237.807C544.165 237.637 545.322 238.241 546.394 238.492L546.244 239.384L546.268 239.388Z" fill="#FEFEFE"/>
</g>
<path d="M1.72445 211.868C1.64845 211.944 1.58511 211.982 1.53445 211.982C1.07845 212.033 0.825112 211.45 0.774445 210.234C0.774445 209.499 0.977112 208.942 1.38245 208.562C2.01578 207.954 2.48445 207.523 2.78845 207.27C3.11778 206.991 3.59911 206.662 4.23245 206.282C4.89111 205.877 5.46111 205.674 5.94245 205.674C6.77845 205.674 7.19645 206.409 7.19645 207.878C7.19645 208.967 7.04445 209.955 6.74045 210.842C6.46178 211.703 5.99311 212.691 5.33445 213.806C4.67578 214.921 4.25778 215.681 4.08045 216.086C5.14445 216.086 7.14578 215.655 10.0844 214.794H10.1604C10.3378 214.794 10.4898 214.971 10.6164 215.326C10.7431 215.655 10.8064 216.035 10.8064 216.466C10.8064 217.454 10.5658 218.024 10.0844 218.176C9.80578 218.252 9.33711 218.391 8.67845 218.594C8.01978 218.797 7.50045 218.949 7.12045 219.05C6.74045 219.151 6.27178 219.253 5.71445 219.354C5.18245 219.43 4.68845 219.468 4.23245 219.468C2.81378 219.468 2.10445 218.683 2.10445 217.112C2.10445 216.124 2.45911 214.971 3.16845 213.654C4.08045 211.906 4.81511 210.424 5.37245 209.208C4.35911 209.639 3.14311 210.525 1.72445 211.868ZM11.9524 214.452C12.0284 213.945 12.1804 213.337 12.4084 212.628C12.6617 211.893 12.991 211.121 13.3964 210.31C13.8017 209.474 14.3464 208.777 15.0304 208.22C15.7144 207.637 16.4364 207.346 17.1964 207.346C18.3364 207.346 18.9064 207.675 18.9064 208.334C18.9064 208.638 18.8304 208.828 18.6784 208.904C18.121 209.385 17.6397 209.905 17.2344 210.462C16.829 210.994 16.487 211.602 16.2084 212.286C15.955 212.97 15.765 213.527 15.6384 213.958C15.537 214.389 15.3977 215.022 15.2204 215.858V215.972C15.2204 216.149 15.271 216.339 15.3724 216.542C15.499 216.719 15.6384 216.922 15.7904 217.15C15.9677 217.378 16.0944 217.555 16.1704 217.682C16.297 217.631 16.5377 217.543 16.8924 217.416C17.2724 217.289 17.5637 217.175 17.7664 217.074C17.9944 216.947 18.1464 216.821 18.2224 216.694C19.869 213.831 20.6924 211.64 20.6924 210.12C20.6924 209.867 20.6037 209.474 20.4264 208.942C20.2491 208.385 20.1604 207.954 20.1604 207.65C20.1604 207.245 20.4644 206.89 21.0724 206.586C21.1231 206.637 21.2624 206.751 21.4904 206.928C21.7184 207.105 21.8577 207.245 21.9084 207.346C22.4404 208.587 22.7064 209.841 22.7064 211.108C22.7064 213.059 22.0097 214.933 20.6164 216.732C19.2484 218.531 17.7157 219.43 16.0184 219.43C14.7264 219.43 13.7257 218.999 13.0164 218.138C12.307 217.277 11.9524 216.048 11.9524 214.452ZM31.8647 207.916C31.7887 208.625 31.586 209.271 31.2567 209.854C31.0793 209.677 30.902 209.461 30.7247 209.208C30.5473 208.955 30.408 208.765 30.3067 208.638C30.2053 208.511 30.0913 208.448 29.9647 208.448C29.7367 208.448 29.496 208.625 29.2427 208.98C28.1027 210.424 27.5327 212.248 27.5327 214.452C27.5327 215.693 28.014 216.314 28.9767 216.314C29.2807 216.314 29.7367 216.137 30.3447 215.782C30.978 215.402 31.4593 215.212 31.7887 215.212C32.194 215.212 32.3967 215.402 32.3967 215.782C32.194 216.466 31.586 217.112 30.5727 217.72C29.5847 218.328 28.66 218.632 27.7987 218.632C27.3427 218.632 26.9753 218.543 26.6967 218.366C25.8607 217.809 25.3033 217.188 25.0247 216.504C24.746 215.82 24.6067 214.959 24.6067 213.92C24.6067 210.829 25.772 208.397 28.1027 206.624C28.66 206.067 29.4707 205.788 30.5347 205.788C31.4213 205.788 31.8647 206.371 31.8647 207.536V207.916ZM49.1502 210.842C48.9729 211.526 48.7449 212.552 48.4662 213.92C48.2129 215.263 47.9469 216.466 47.6682 217.53C47.3896 218.594 47.0729 219.531 46.7182 220.342C46.6929 220.443 46.6296 220.532 46.5282 220.608C46.4522 220.709 46.3256 220.811 46.1482 220.912C45.9962 221.039 45.8949 221.127 45.8442 221.178C45.8189 221.102 45.7302 220.937 45.5782 220.684C45.4262 220.431 45.3502 220.241 45.3502 220.114C45.4769 219.43 45.6922 218.467 45.9962 217.226C46.3256 215.959 46.5029 215.25 46.5282 215.098L47.3642 211.374C47.3642 211.349 47.3262 211.108 47.2502 210.652C47.1996 210.677 47.1109 210.703 46.9842 210.728C46.8829 210.728 46.7942 210.741 46.7182 210.766C46.6422 210.791 46.5789 210.829 46.5282 210.88C45.9962 211.463 45.2996 212.387 44.4382 213.654C43.5769 214.921 43.0069 215.744 42.7282 216.124C42.6269 216.251 42.2469 216.453 41.5882 216.732C41.3349 216.149 41.2082 215.807 41.2082 215.706C41.2082 215.326 41.2969 214.731 41.4742 213.92C41.6516 213.109 41.7402 212.514 41.7402 212.134C41.7402 212.109 41.6642 211.792 41.5122 211.184C38.9789 212.805 37.2562 215.136 36.3442 218.176C36.1669 218.733 35.9009 219.24 35.5462 219.696C35.1916 220.127 34.8622 220.342 34.5582 220.342C34.3049 220.342 34.0642 220.177 33.8362 219.848C33.6336 219.493 33.5322 219.063 33.5322 218.556V218.29C33.9376 215.833 34.4949 212.805 35.2042 209.208C35.3816 208.347 35.9896 207.916 37.0282 207.916C37.7629 207.916 38.1302 208.473 38.1302 209.588C38.1302 209.791 38.0922 210.107 38.0162 210.538C37.9402 210.943 37.9022 211.26 37.9022 211.488C37.9022 211.615 37.9276 211.805 37.9782 212.058C38.0289 212.311 38.0542 212.489 38.0542 212.59C38.1302 212.565 38.3076 212.514 38.5862 212.438C38.8902 212.337 39.0929 212.235 39.1942 212.134C39.4476 211.957 39.8022 211.64 40.2582 211.184C40.7142 210.703 41.1196 210.323 41.4742 210.044C41.8542 209.765 42.1962 209.626 42.5002 209.626C42.7282 209.626 42.9182 209.93 43.0702 210.538C43.2476 211.146 43.3616 211.754 43.4122 212.362C43.5642 212.185 43.7796 211.982 44.0582 211.754C44.3622 211.501 44.5776 211.298 44.7042 211.146C44.8309 210.994 45.0462 210.715 45.3502 210.31C45.6796 209.879 45.9202 209.588 46.0722 209.436C46.2242 209.259 46.4649 209.081 46.7942 208.904C47.1236 208.727 47.4782 208.638 47.8582 208.638C48.0609 208.638 48.2889 208.828 48.5422 209.208C48.7956 209.563 48.9222 209.981 48.9222 210.462V210.804H48.9982C49.0489 210.829 49.0996 210.842 49.1502 210.842ZM49.1375 227.524L50.4295 217.91C51.1135 213.578 51.5441 210.652 51.7215 209.132C51.7468 208.904 51.7595 208.575 51.7595 208.144C51.7848 207.688 51.8101 207.295 51.8355 206.966C51.8608 206.611 51.9115 206.257 51.9875 205.902C52.0635 205.547 52.1775 205.281 52.3295 205.104C52.5068 204.901 52.7348 204.8 53.0135 204.8C53.4948 204.8 54.0015 205.091 54.5335 205.674C55.0655 206.231 55.3568 206.51 55.4075 206.51C55.5088 206.51 55.8508 206.206 56.4335 205.598C57.0415 204.965 57.5608 204.648 57.9915 204.648C58.5995 204.648 59.0681 204.889 59.3975 205.37C59.7521 205.826 59.9295 206.345 59.9295 206.928C59.9295 207.992 59.7268 209.284 59.3215 210.804C58.9161 212.299 58.2701 213.692 57.3835 214.984C56.5221 216.276 55.5721 216.922 54.5335 216.922C54.3561 216.922 54.1408 217.011 53.8875 217.188C53.6341 217.34 53.4821 217.517 53.4315 217.72C53.2795 218.48 53.0895 219.683 52.8615 221.33C52.6335 223.002 52.3801 224.459 52.1015 225.7C51.8481 226.941 51.5188 228.107 51.1135 229.196C51.0628 229.297 50.9741 229.399 50.8475 229.5C50.7208 229.627 50.5561 229.753 50.3535 229.88C50.1761 230.007 50.0368 230.108 49.9355 230.184C49.4795 229.399 49.2515 228.803 49.2515 228.398C49.2515 228.322 49.2641 228.183 49.2895 227.98C49.2895 227.777 49.2895 227.625 49.2895 227.524H49.1375ZM56.6615 213.236C57.7255 211.032 58.3588 208.993 58.5615 207.118C58.5615 206.915 58.4728 206.738 58.2955 206.586C58.1181 206.434 57.9661 206.358 57.8395 206.358C57.6621 206.358 57.4595 206.459 57.2315 206.662C57.0288 206.865 56.8261 207.156 56.6235 207.536C56.4208 207.891 56.2435 208.233 56.0915 208.562C55.9395 208.891 55.7621 209.284 55.5595 209.74C55.3568 210.196 55.2175 210.513 55.1415 210.69C55.1415 210.715 55.1288 210.753 55.1035 210.804C55.1035 210.829 55.1035 210.855 55.1035 210.88C55.1035 211.032 55.1288 211.197 55.1795 211.374C55.2301 211.526 55.3188 211.691 55.4455 211.868C55.5975 212.045 55.7115 212.185 55.7875 212.286C55.8635 212.387 56.0028 212.552 56.2055 212.78C56.4335 213.008 56.5855 213.16 56.6615 213.236ZM61.4563 214.718C62.1403 210.386 62.609 207.574 62.8623 206.282C62.989 205.547 63.369 205.18 64.0023 205.18C64.5596 205.18 64.8383 205.395 64.8383 205.826C64.8383 205.927 64.775 206.231 64.6483 206.738C64.5216 207.65 64.3316 208.98 64.0783 210.728C63.825 212.476 63.673 213.515 63.6223 213.844C63.6223 214.021 63.6856 214.262 63.8123 214.566C63.9643 214.87 64.053 215.073 64.0783 215.174C64.6356 214.845 64.965 214.579 65.0663 214.376C65.345 213.869 66.827 211.222 69.5123 206.434C69.8923 205.801 70.247 205.484 70.5763 205.484C71.007 205.484 71.3363 205.636 71.5643 205.94C71.8176 206.244 71.9443 206.586 71.9443 206.966C71.9443 207.143 71.9316 207.283 71.9063 207.384C71.121 210.5 70.4876 213.185 70.0063 215.44C69.9556 215.744 69.9303 215.972 69.9303 216.124C69.9303 216.479 70.0063 216.909 70.1583 217.416C70.3103 217.923 70.3863 218.239 70.3863 218.366C70.3863 218.645 70.1836 218.936 69.7783 219.24C69.3983 219.519 69.0436 219.658 68.7143 219.658C68.537 219.658 68.3723 219.607 68.2203 219.506C68.0683 219.379 67.929 219.177 67.8023 218.898C67.6756 218.619 67.5743 218.404 67.4983 218.252C67.4223 218.075 67.321 217.796 67.1943 217.416C67.093 217.011 67.0296 216.783 67.0043 216.732L66.6623 215.668L65.6743 216.162C65.5223 216.289 65.2943 216.542 64.9903 216.922C64.6863 217.277 64.4076 217.543 64.1543 217.72C63.901 217.897 63.6223 217.986 63.3183 217.986C62.913 217.986 62.5836 217.821 62.3303 217.492C62.077 217.163 61.9123 216.808 61.8363 216.428C61.7603 216.023 61.6716 215.453 61.5703 214.718H61.4563ZM73.4797 214.718C74.2651 210.006 74.7337 207.219 74.8857 206.358C75.0124 205.674 75.3417 205.332 75.8737 205.332C76.5071 205.332 76.8237 205.573 76.8237 206.054C76.8237 206.079 76.7857 206.32 76.7097 206.776C76.2031 209.968 75.8484 212.362 75.6457 213.958V214.072C75.6457 214.173 75.6711 214.3 75.7217 214.452C75.7724 214.579 75.8357 214.731 75.9117 214.908C76.0131 215.06 76.0764 215.187 76.1017 215.288C76.1524 215.237 76.2664 215.161 76.4437 215.06C76.6211 214.933 76.7604 214.819 76.8617 214.718C76.9884 214.617 77.0897 214.503 77.1657 214.376C77.6724 213.489 78.4071 212.159 79.3697 210.386C80.3577 208.613 81.1051 207.295 81.6117 206.434C81.6877 206.257 81.8524 206.092 82.1057 205.94C82.3844 205.763 82.5997 205.674 82.7517 205.674C83.0557 205.674 83.3091 205.889 83.5117 206.32C83.7144 206.725 83.8157 207.042 83.8157 207.27C83.8157 207.473 83.6511 208.334 83.3217 209.854C82.4604 213.603 82.0044 215.617 81.9537 215.896C81.9031 216.099 81.8777 216.263 81.8777 216.39C81.8777 216.694 81.9664 217.074 82.1437 217.53C82.3211 217.986 82.4097 218.277 82.4097 218.404C82.4097 218.683 82.2197 218.974 81.8397 219.278C81.4597 219.582 81.1051 219.734 80.7757 219.734C80.2691 219.734 79.8384 219.443 79.4837 218.86C79.1544 218.252 78.9897 217.669 78.9897 217.112C78.9897 217.036 78.9897 216.922 78.9897 216.77C79.0151 216.618 79.0277 216.491 79.0277 216.39C79.0277 216.314 79.0024 216.2 78.9517 216.048C78.9011 215.896 78.8757 215.795 78.8757 215.744C78.2677 215.896 77.6217 216.327 76.9377 217.036C76.2791 217.72 75.7344 218.062 75.3037 218.062C74.5944 218.062 74.1004 217.555 73.8217 216.542C73.7964 216.441 73.7711 216.251 73.7457 215.972C73.7204 215.668 73.6824 215.402 73.6317 215.174C73.6064 214.946 73.5557 214.794 73.4797 214.718ZM76.4817 201.988C76.1524 201.836 75.9244 201.659 75.7977 201.456C75.7977 200.848 76.2284 200.379 77.0897 200.05C77.4444 199.923 78.2044 199.632 79.3697 199.176C80.5604 198.695 81.4851 198.34 82.1437 198.112C82.1691 198.112 82.2324 198.087 82.3337 198.036C82.4351 197.985 82.4984 197.96 82.5237 197.96C82.6504 197.96 82.7771 197.973 82.9037 197.998C83.0557 198.023 83.2077 198.061 83.3597 198.112C83.5117 198.137 83.6384 198.163 83.7397 198.188C83.6891 198.264 83.6257 198.403 83.5497 198.606C83.4991 198.783 83.4357 198.935 83.3597 199.062C83.3091 199.163 83.2457 199.239 83.1697 199.29C81.4471 200.075 79.4204 200.949 77.0897 201.912C77.0644 201.912 76.8617 201.937 76.4817 201.988ZM24.551 250.824C24.2217 250.165 24.057 249.595 24.057 249.114C24.057 248.658 24.1963 248.227 24.475 247.822C24.779 247.417 25.0703 247.214 25.349 247.214C25.4503 247.214 25.6403 247.505 25.919 248.088C26.223 248.671 26.603 248.962 27.059 248.962C27.439 248.962 27.9203 248.607 28.503 247.898C31.0617 244.883 32.6703 242.198 33.329 239.842C33.4303 239.563 33.481 239.259 33.481 238.93C33.481 238.347 33.2657 237.815 32.835 237.334C32.4297 236.827 31.9483 236.574 31.391 236.574C30.5803 236.574 29.6937 236.827 28.731 237.334C27.7683 237.841 27.0337 238.474 26.527 239.234L26.223 239.576C25.235 240.184 24.5257 240.957 24.095 241.894C23.6643 242.831 23.335 244.009 23.107 245.428C23.0563 245.707 22.9677 245.96 22.841 246.188C22.7397 246.416 22.6383 246.581 22.537 246.682C22.461 246.783 22.309 246.948 22.081 247.176C21.8783 247.379 21.739 247.518 21.663 247.594C21.587 247.493 21.4477 247.341 21.245 247.138C21.0423 246.91 20.8777 246.72 20.751 246.568C20.6497 246.391 20.5863 246.226 20.561 246.074C20.409 244.858 20.333 243.908 20.333 243.224C20.333 242.667 20.371 242.097 20.447 241.514C20.8523 238.879 21.5743 234.674 22.613 228.898C22.917 227.074 23.563 226.162 24.551 226.162C25.2097 226.162 25.653 226.263 25.881 226.466C26.1343 226.669 26.261 226.998 26.261 227.454C26.261 228.518 26.033 230.127 25.577 232.28C25.1463 234.408 24.9183 235.599 24.893 235.852C24.8677 235.903 24.855 235.966 24.855 236.042C24.855 236.498 25.0323 236.726 25.387 236.726C25.6657 236.726 26.0457 236.511 26.527 236.08C27.0337 235.624 27.4137 235.193 27.667 234.788C28.959 232.635 30.8463 229.405 33.329 225.098C33.6583 224.769 33.823 224.097 33.823 223.084C33.823 222.299 33.5823 221.678 33.101 221.222C32.6197 220.741 31.961 220.5 31.125 220.5C29.681 220.5 28.1103 220.969 26.413 221.906C24.7157 222.818 23.2083 223.907 21.891 225.174C21.663 225.402 21.4603 225.567 21.283 225.668C21.1057 225.744 20.9157 225.807 20.713 225.858C20.5103 225.883 20.3457 225.921 20.219 225.972C20.219 225.871 20.2063 225.731 20.181 225.554C20.181 225.377 20.181 225.25 20.181 225.174C20.181 224.921 20.219 224.756 20.295 224.68C21.511 223.211 23.1957 221.893 25.349 220.728C27.5023 219.563 29.567 218.98 31.543 218.98C32.7084 218.98 33.6457 219.335 34.355 220.044C35.0897 220.753 35.457 221.729 35.457 222.97C35.457 223.046 35.4443 223.147 35.419 223.274C35.419 223.401 35.419 223.489 35.419 223.54V223.958C35.419 224.541 35.305 225.174 35.077 225.858C34.8744 226.517 34.6717 227.023 34.469 227.378C34.2917 227.707 33.9877 228.252 33.557 229.012C33.3543 229.341 32.9743 229.911 32.417 230.722C31.885 231.533 31.429 232.242 31.049 232.85C30.6943 233.458 30.517 233.901 30.517 234.18C30.517 234.509 30.8337 234.687 31.467 234.712C32.7083 234.813 33.7343 235.345 34.545 236.308C35.381 237.271 35.799 238.347 35.799 239.538C35.799 240.019 35.6977 240.564 35.495 241.172C34.5577 243.655 33.2023 246.036 31.429 248.316C29.6557 250.571 27.9837 251.698 26.413 251.698C25.7543 251.698 25.1337 251.407 24.551 250.824ZM42.0666 250.824C41.7373 250.165 41.5726 249.595 41.5726 249.114C41.5726 248.658 41.712 248.227 41.9906 247.822C42.2946 247.417 42.586 247.214 42.8646 247.214C42.966 247.214 43.156 247.505 43.4346 248.088C43.7386 248.671 44.1186 248.962 44.5746 248.962C44.9546 248.962 45.436 248.607 46.0186 247.898C48.5773 244.883 50.186 242.198 50.8446 239.842C50.946 239.563 50.9966 239.259 50.9966 238.93C50.9966 238.347 50.7813 237.815 50.3506 237.334C49.9453 236.827 49.464 236.574 48.9066 236.574C48.096 236.574 47.2093 236.827 46.2466 237.334C45.284 237.841 44.5493 238.474 44.0426 239.234L43.7386 239.576C42.7506 240.184 42.0413 240.957 41.6106 241.894C41.18 242.831 40.8506 244.009 40.6226 245.428C40.572 245.707 40.4833 245.96 40.3566 246.188C40.2553 246.416 40.154 246.581 40.0526 246.682C39.9766 246.783 39.8246 246.948 39.5966 247.176C39.394 247.379 39.2546 247.518 39.1786 247.594C39.1026 247.493 38.9633 247.341 38.7606 247.138C38.558 246.91 38.3933 246.72 38.2666 246.568C38.1653 246.391 38.102 246.226 38.0766 246.074C37.9246 244.858 37.8486 243.908 37.8486 243.224C37.8486 242.667 37.8866 242.097 37.9626 241.514C38.368 238.879 39.09 234.674 40.1286 228.898C40.4326 227.074 41.0786 226.162 42.0666 226.162C42.7253 226.162 43.1686 226.263 43.3966 226.466C43.65 226.669 43.7766 226.998 43.7766 227.454C43.7766 228.518 43.5486 230.127 43.0926 232.28C42.662 234.408 42.434 235.599 42.4086 235.852C42.3833 235.903 42.3706 235.966 42.3706 236.042C42.3706 236.498 42.548 236.726 42.9026 236.726C43.1813 236.726 43.5613 236.511 44.0426 236.08C44.5493 235.624 44.9293 235.193 45.1826 234.788C46.4746 232.635 48.362 229.405 50.8446 225.098C51.174 224.769 51.3386 224.097 51.3386 223.084C51.3386 222.299 51.098 221.678 50.6166 221.222C50.1353 220.741 49.4766 220.5 48.6406 220.5C47.1966 220.5 45.626 220.969 43.9286 221.906C42.2313 222.818 40.724 223.907 39.4066 225.174C39.1786 225.402 38.976 225.567 38.7986 225.668C38.6213 225.744 38.4313 225.807 38.2286 225.858C38.026 225.883 37.8613 225.921 37.7346 225.972C37.7346 225.871 37.722 225.731 37.6966 225.554C37.6966 225.377 37.6966 225.25 37.6966 225.174C37.6966 224.921 37.7346 224.756 37.8106 224.68C39.0266 223.211 40.7113 221.893 42.8646 220.728C45.018 219.563 47.0826 218.98 49.0586 218.98C50.224 218.98 51.1613 219.335 51.8706 220.044C52.6053 220.753 52.9726 221.729 52.9726 222.97C52.9726 223.046 52.96 223.147 52.9346 223.274C52.9346 223.401 52.9346 223.489 52.9346 223.54V223.958C52.9346 224.541 52.8206 225.174 52.5926 225.858C52.39 226.517 52.1873 227.023 51.9846 227.378C51.8073 227.707 51.5033 228.252 51.0726 229.012C50.87 229.341 50.49 229.911 49.9326 230.722C49.4006 231.533 48.9446 232.242 48.5646 232.85C48.21 233.458 48.0326 233.901 48.0326 234.18C48.0326 234.509 48.3493 234.687 48.9826 234.712C50.224 234.813 51.25 235.345 52.0606 236.308C52.8966 237.271 53.3146 238.347 53.3146 239.538C53.3146 240.019 53.2133 240.564 53.0106 241.172C52.0733 243.655 50.718 246.036 48.9446 248.316C47.1713 250.571 45.4993 251.698 43.9286 251.698C43.27 251.698 42.6493 251.407 42.0666 250.824ZM66.4603 235.054C66.3589 235.155 66.1436 235.333 65.8143 235.586C65.4849 235.839 65.2443 236.055 65.0923 236.232C64.9149 236.435 64.5603 236.84 64.0283 237.448C63.4963 238.031 63.1036 238.449 62.8503 238.702C62.5969 238.955 62.2423 239.272 61.7863 239.652C61.3556 240.032 60.9376 240.298 60.5323 240.45C60.1523 240.602 59.7596 240.678 59.3543 240.678C58.3409 240.678 57.5176 240.184 56.8843 239.196C56.2763 238.183 55.9723 236.802 55.9723 235.054C55.9723 232.571 56.4283 230.127 57.3403 227.72C58.2776 225.288 59.6203 223.249 61.3683 221.602C61.8496 221.121 62.4829 220.703 63.2683 220.348C64.0536 219.993 64.6996 219.816 65.2063 219.816C65.9916 219.816 66.8023 220.272 67.6383 221.184C68.4996 222.071 68.9303 223.147 68.9303 224.414C68.9303 225.073 68.7909 225.681 68.5123 226.238C68.2589 226.77 67.9169 227.036 67.4863 227.036C67.2836 227.036 67.1823 226.808 67.1823 226.352C67.1823 226.099 67.1949 225.731 67.2203 225.25C67.2709 224.769 67.2963 224.414 67.2963 224.186C67.2963 223.401 67.0683 222.78 66.6123 222.324C66.1563 221.843 65.6116 221.602 64.9783 221.602C64.2436 221.602 63.5596 221.805 62.9263 222.21C62.2929 222.59 61.7229 223.135 61.2163 223.844C60.7349 224.528 60.3423 225.136 60.0383 225.668C59.7596 226.2 59.4556 226.846 59.1263 227.606C58.0369 230.114 57.4923 232.584 57.4923 235.016C57.4923 236.055 57.6443 237.03 57.9483 237.942C58.2776 238.854 58.8096 239.31 59.5443 239.31C59.7976 239.31 60.0889 239.209 60.4183 239.006C60.7729 238.778 61.1529 238.474 61.5583 238.094C61.9889 237.689 62.3689 237.321 62.6983 236.992C63.0276 236.637 63.4203 236.207 63.8763 235.7C64.3323 235.193 64.6489 234.839 64.8263 234.636C64.9529 234.509 65.3709 234.028 66.0803 233.192C66.8149 232.356 67.4103 231.748 67.8663 231.368C68.3223 230.988 68.7276 230.798 69.0823 230.798C69.5129 230.798 69.9056 230.925 70.2603 231.178C70.6403 231.431 70.8303 231.748 70.8303 232.128C70.8303 232.381 70.7543 232.736 70.6023 233.192C70.4756 233.673 70.1083 235.016 69.5003 237.22C68.8923 239.424 68.4489 241.121 68.1703 242.312C68.0183 242.92 67.7269 244.744 67.2963 247.784C67.2709 247.911 67.2583 248.075 67.2583 248.278C67.2583 248.607 67.3723 248.772 67.6003 248.772C67.6509 248.772 67.8029 248.734 68.0563 248.658C68.3349 248.582 68.5249 248.544 68.6263 248.544C68.9303 248.544 69.0823 248.709 69.0823 249.038C69.0823 250.026 68.7656 251.065 68.1323 252.154C67.4989 253.243 66.7516 254.181 65.8903 254.966C65.6116 255.194 65.3456 255.308 65.0923 255.308C64.7123 255.308 64.3956 255.042 64.1423 254.51C63.8889 254.003 63.7623 253.471 63.7623 252.914C63.7623 252.889 63.7623 252.838 63.7623 252.762C63.7876 252.711 63.8003 252.661 63.8003 252.61C64.5856 245.998 65.0163 242.413 65.0923 241.856C65.2189 241.045 65.4849 239.905 65.8903 238.436C66.2956 236.967 66.5616 235.89 66.6883 235.206C66.5869 235.206 66.5109 235.155 66.4603 235.054Z" fill="#FEFEFE"/>
<g clip-path="url(#clip2_610_1351)">
<path d="M219.535 233.47C219.144 233.824 218.66 234.129 218.402 234.575C212.508 244.952 203.048 249.452 191.641 250.471C180.377 251.447 169.541 249.168 159.043 245.237C150.729 242.113 142.501 238.753 134.239 235.456C133.847 235.287 133.505 235.023 132.739 234.572L137.827 233.028L137.746 232.501C137.352 232.411 136.928 232.224 136.539 232.237C133.752 232.295 130.894 232.033 128.19 232.539C125.263 233.085 124.807 234.694 126.448 237.164C128.623 240.444 130.822 243.716 133.021 246.988C134.166 248.689 135.678 248.23 137.115 247.611C138.625 246.969 139.281 245.85 138.499 244.223C137.988 243.143 137.484 242.088 136.823 240.687C137.657 240.932 138.201 241.083 138.728 241.264C145.655 243.705 152.537 246.344 159.526 248.557C171.67 252.383 184.065 253.926 196.699 251.247C203.994 249.716 210.522 246.527 215.629 240.985C217.484 238.977 218.789 236.454 220.325 234.175C220.07 233.937 219.797 233.731 219.542 233.494L219.535 233.47Z" fill="#FEFEFE"/>
</g>
<defs>
<clipPath id="clip0_610_1351">
<rect width="95" height="32" fill="white" transform="translate(867.402 222) rotate(32.9432)"/>
</clipPath>
<clipPath id="clip1_610_1351">
<rect width="80" height="70" fill="white" transform="translate(467.562 225) rotate(9.50758)"/>
</clipPath>
<clipPath id="clip2_610_1351">
<rect width="91" height="38" fill="white" transform="matrix(-0.956899 0.290421 0.290421 0.956899 212.078 207)"/>
</clipPath>
</defs>
</svg>
