<svg width="51" height="53" viewBox="0 0 51 53" fill="none" xmlns="http://www.w3.org/2000/svg">
<g clip-path="url(#clip0_87_331)">
<path d="M24.2905 23.1642L23.3315 23.1451L23.1399 24.0309L24.0943 24.087L24.1048 24.0876L24.2905 23.1642Z" fill="white"/>
<path d="M16.012 29.8996C17.8528 30.4894 18.9553 30.5525 20.9872 30.2932L21.1298 29.618C19.1389 29.7614 17.9931 29.6801 15.888 29.1981C15.9365 29.4306 15.9778 29.6645 16.012 29.8996Z" fill="white"/>
<path fill-rule="evenodd" clip-rule="evenodd" d="M12.2005 21.403C12.1535 21.4958 12.1451 21.6031 12.177 21.702C12.2769 22.0211 12.3713 22.3447 12.4657 22.6687C12.6708 23.372 12.8765 24.0772 13.1409 24.7423C13.3281 25.2133 13.5676 25.6434 13.8038 26.0675C14.0549 26.5184 14.3023 26.9625 14.4791 27.442C15.1212 29.2181 15.3005 31.2099 15.475 33.1485C15.5388 33.8571 15.6019 34.5586 15.6868 35.2399C15.8891 36.8879 16.0278 38.5362 16.1663 40.1819C16.4464 43.5103 16.7256 46.8278 17.5285 50.1108C17.5474 50.2022 17.6021 50.2824 17.6807 50.3339C17.7592 50.3855 17.8553 50.4042 17.9478 50.3858C18.8838 50.546 19.8087 50.7645 20.7168 51.0402C22.6509 52.0992 25.2151 52.2435 27.3154 52.0391C29.4884 51.86 31.6748 51.3902 33.4165 50.0223C33.4782 49.9708 33.5262 49.9053 33.5564 49.8313C33.6078 49.8475 33.6621 49.8523 33.7155 49.8455C33.769 49.8387 33.8203 49.8205 33.8658 49.792C33.9114 49.7636 33.9501 49.7256 33.9793 49.6808C34.0084 49.636 34.0273 49.5854 34.0346 49.5327C35.0297 44.3461 35.7254 39.1078 36.1183 33.843C36.1447 33.4054 36.1638 32.97 36.1828 32.5374C36.2879 30.1413 36.3893 27.8318 37.6924 25.7231C38.4748 24.51 38.8326 23.0765 38.711 21.6428C38.7178 21.5779 38.7058 21.5125 38.6765 21.454C38.6472 21.3956 38.6017 21.3465 38.5454 21.3125C38.5257 20.7778 38.158 20.1555 37.2871 19.4032C37.2187 19.3407 37.1302 19.3041 37.0371 19.2997C36.9441 19.2954 36.8525 19.3236 36.7784 19.3794C35.5519 15.3001 32.9139 10.6827 28.5164 9.75281L28.4532 9.67747C28.3997 9.633 28.3331 9.60683 28.2634 9.60289C28.1936 9.59895 28.1245 9.61745 28.0662 9.65562L28.0409 9.62548C27.93 9.60921 27.817 9.6352 27.7247 9.69819C27.8101 9.14136 27.9008 8.58155 27.9921 8.01882C28.2804 6.24084 28.5734 4.43368 28.7148 2.59915C28.7209 2.54999 28.7158 2.50011 28.6999 2.45314C28.6839 2.40618 28.6576 2.36332 28.6228 2.3277C28.588 2.29207 28.5456 2.26458 28.4987 2.24722C28.4517 2.22986 28.4015 2.22308 28.3516 2.22737C28.3358 2.16981 28.3077 2.11628 28.2691 2.07036C28.2306 2.02445 28.1826 1.98722 28.1283 1.96119C27.7403 1.72954 27.3247 1.5464 26.891 1.41597C26.7854 1.3947 26.6756 1.41412 26.584 1.47026C26.4925 1.52639 26.4261 1.61499 26.3984 1.71793C26.3812 1.78989 26.3854 1.86522 26.4104 1.9349C26.4354 2.00458 26.4802 2.06567 26.5393 2.11087C26.5296 2.11612 26.521 2.12319 26.5139 2.13169C26.0583 4.62623 25.4635 7.09396 24.7322 9.52358C24.6579 9.8544 24.5147 10.6727 24.3345 11.755C24.4839 12.0947 24.7267 12.4044 25.0289 12.6606C25.0843 12.3246 25.137 12.0087 25.1861 11.7185C25.3264 10.8893 25.4375 10.271 25.5 10C26.2388 7.56707 26.8457 4.94969 27.304 2.45025C27.4475 2.51911 27.5859 2.59212 27.7234 2.67433L27.8416 2.71305C27.6985 4.73405 27.3522 6.73059 27.0055 8.72989C26.8111 9.85061 26.6166 10.9722 26.4576 12.0995L26.4561 12.1106C26.4387 12.2279 26.4183 12.3582 26.3951 12.5C26.3952 12.4998 26.3951 12.5002 26.3951 12.5C26.3567 12.7357 26.3106 13.0033 26.2584 13.2965C26.5325 13.367 26.8164 13.3983 27.0985 13.3825C27.1508 13.0865 27.1979 12.8082 27.2347 12.5761C27.2507 12.4747 27.2652 12.3802 27.2778 12.2931C27.3716 11.6485 27.4704 10.9997 27.5735 10.356C27.632 10.4249 27.7151 10.4691 27.8055 10.4794L28.1746 10.5413C29.124 11.3564 28.3114 12.4903 27.2347 12.5761C27.1979 12.8082 27.1508 13.0865 27.0985 13.3825C27.1241 13.3811 27.1497 13.3793 27.1753 13.377C27.622 13.3417 28.0524 13.1946 28.4257 12.9494C28.799 12.7043 29.103 12.3692 29.3091 11.9758C29.4761 11.6442 29.5056 11.2613 29.3913 10.9085C33.2364 12.4267 35.3951 17.1064 36.3065 20.8508C36.4311 21.3673 37.237 21.1221 37.1124 20.6056L37.0396 20.3347C38.4057 21.749 36.986 22.4378 35.2538 22.7642C33.3008 23.0969 31.3218 23.2582 29.34 23.2463C28.249 23.2572 27.1617 23.2292 26.0744 23.2012C25.7637 23.1932 25.453 23.1852 25.1422 23.1781L24.9701 24.0564C25.7415 24.0649 26.5134 24.0676 27.2861 24.0703C27.883 24.0724 28.4804 24.0745 29.0785 24.0793C30.4507 24.0902 35.9801 23.9062 37.912 22.5095C37.9232 23.3269 37.7093 24.1319 37.2933 24.8384C36.8326 25.4622 36.4365 26.1303 36.1111 26.8325C35.7318 27.9959 35.5117 29.2042 35.4567 30.4252C35.4616 30.4248 35.4665 30.4245 35.4714 30.4243L35.4562 30.4368L35.4567 30.4252C35.4221 30.4282 35.3883 30.4368 35.3564 30.4507C35.3474 30.3937 35.3263 30.3392 35.2946 30.2908C35.2628 30.2423 35.2211 30.201 35.1721 30.1696C32.1001 28.0603 27.5636 28.2527 24.0008 29.0029L23.827 29.8996C27.2419 29.1264 31.7482 28.8571 34.7409 30.9128C34.8065 30.9647 34.8893 30.9905 34.9731 30.9852C33.9241 32.7515 31.1477 32.2466 28.8651 31.8315C28.0544 31.6841 27.306 31.548 26.7194 31.529L23.3315 32.0289L23.7411 30.4106L23.827 29.8996L24.0008 29.0029C24.0116 28.9411 24.0218 28.8786 24.0321 28.8157C24.0514 28.6979 24.0709 28.5789 24.0943 28.4602L24.0957 28.4589L24.1749 28.0044C24.4217 26.6836 24.6913 25.3695 24.9701 24.0564L25.1422 23.1781C25.5255 21.3541 26.6117 16.1394 27.0985 13.3825C26.8164 13.3983 26.5325 13.367 26.2584 13.2965C25.756 16.1192 24.6829 21.3097 24.2905 23.1642L24.1048 24.0876L24.0943 24.087C23.938 24.8525 23.5579 26.7694 23.408 27.5397L23.1828 28.6818C23.1532 28.8523 23.1258 29.0254 23.0989 29.1981L23.0823 29.3049C23.0401 29.5765 22.9982 29.8458 22.9502 30.1012L22.5505 32.1043C22.1616 32.1855 21.774 32.2593 21.3905 32.3199L20.5577 32.3262L18.8858 32.3387C17.7861 32.1338 17.063 31.7491 16.3328 31.1344C16.2709 31.0875 16.1981 31.0569 16.121 31.0454C16.1147 30.9071 16.106 30.7691 16.0948 30.6313C16.0749 30.3864 16.0473 30.1424 16.012 29.8996C15.9778 29.6645 15.9365 29.4306 15.888 29.1981C15.7459 28.5171 15.5426 27.8487 15.28 27.201C14.5547 25.6514 13.9172 24.1655 13.3627 22.5946C14.4636 23.3193 15.8179 23.4583 17.2078 23.6009C17.3888 23.6195 17.5705 23.6381 17.7523 23.6581C18.0647 23.6944 18.3783 23.7189 18.6894 23.7432L19.0267 23.7693C19.4442 23.8017 20.1033 23.8528 20.1567 23.8571C20.8739 23.9049 21.5963 23.9484 22.3204 23.9737L22.484 23.1363L22.3158 23.13L22.0791 23.1127C20.8153 23.0206 16.1071 22.6772 15.466 22.5573C15.0902 22.467 11.869 21.1917 13.1314 20.2335L13.1153 20.2552L13.0978 20.4898C13.0617 21.0193 13.9043 20.9813 13.9302 20.4602C14.1639 16.9977 17.0643 12.5956 19.8864 10.7066C21.2836 10.0942 22.8406 9.93328 24.3357 10.2468C24.1004 10.7654 24.1294 11.2885 24.3345 11.755C24.5147 10.6727 24.6579 9.8544 24.7322 9.52358C24.7051 9.50749 24.6766 9.49399 24.6469 9.48327C18.3552 8.11425 14.1091 13.6615 13.2387 19.2473C12.3344 19.6409 11.6816 20.447 12.2005 21.403ZM33.2622 49.225C34.2599 43.9003 34.9514 38.524 35.3335 33.1219C35.3608 32.8655 35.3682 32.5939 35.3757 32.32C35.3798 32.1675 35.384 32.0142 35.3917 31.8624C33.9556 33.4744 31.1139 32.9984 28.999 32.6442C28.6427 32.5845 28.307 32.5283 28.0022 32.4861C26.8716 32.3836 26.2454 32.4664 25.1288 32.614C24.5617 32.689 23.8681 32.7807 22.9177 32.8734C20.0959 33.1485 17.7861 32.8734 17.428 32.7368C17.07 32.6001 16.5798 32.3236 16.1944 32.0529L16.2028 32.0629C16.2412 32.5993 16.2854 33.1223 16.3409 33.5768C16.478 34.8175 16.6445 36.7902 16.7753 38.3409L16.7755 38.3434C16.8085 38.7342 16.8392 39.0981 16.8666 39.4167L16.875 39.4268C17.0887 42.8466 17.5535 46.2466 18.2658 49.5998C18.4972 49.6391 19.9171 50.0061 20.6882 50.2054C20.9164 50.2644 21.0878 50.3087 21.1547 50.3254C22.6018 50.8206 24.1052 51.1369 25.6308 51.2672C25.8268 51.2761 26.0279 51.2808 26.2341 51.2813C26.5966 51.2638 26.9457 51.2405 27.2863 51.2071C27.3524 51.1996 27.4192 51.209 27.4806 51.2343C29.4703 51.1387 31.3881 50.4686 32.9967 49.307C33.0331 49.2765 33.0754 49.2534 33.121 49.2393C33.1666 49.2253 33.2147 49.2204 33.2622 49.225Z" fill="white"/>
<path d="M22.3204 23.9737L22.2511 24.3101L21.3284 28.678L21.1298 29.618L20.9872 30.2932L20.5577 32.3262L21.3905 32.3199L22.027 29.3042L23.1399 24.0309L23.3315 23.1451C23.5316 22.1219 24.4367 16.2505 25.0289 12.6606C24.7267 12.4044 24.4839 12.0947 24.3345 11.755C23.7286 15.3948 22.705 22.0211 22.484 23.1363L22.3204 23.9737Z" fill="white"/>
<path d="M26.2584 13.2965C26.3106 13.0033 26.3567 12.7357 26.3951 12.5C25.7254 12.3832 25.4912 12.1827 25.1861 11.7185C25.137 12.0087 25.0843 12.3246 25.0289 12.6606C25.3772 12.9558 25.8044 13.1799 26.2584 13.2965Z" fill="white"/>
</g>
<defs>
<clipPath id="clip0_87_331">
<rect width="51" height="53" fill="white"/>
</clipPath>
</defs>
</svg>
