<svg width="51" height="43" viewBox="0 0 51 43" fill="none" xmlns="http://www.w3.org/2000/svg">
<g clip-path="url(#clip0_87_232)">
<path fill-rule="evenodd" clip-rule="evenodd" d="M10.0972 21.7843C9.65703 20.3739 9.21781 18.9666 8.95031 17.5247C8.94255 17.4374 8.96485 17.3502 9.01352 17.2774C9.06219 17.2045 9.13429 17.1505 9.21787 17.1244C9.86905 16.9642 10.531 16.8516 11.1985 16.7875C11.2582 16.0604 11.2518 15.3288 11.2453 14.5947C11.242 14.2271 11.2388 13.8589 11.2438 13.4904C11.2069 12.9691 11.2554 12.4453 11.3875 11.9396C11.7035 11.0744 12.756 10.9809 13.5892 10.9068C13.6994 10.897 13.8058 10.8875 13.9061 10.8766C13.9506 10.8713 13.9958 10.8748 14.0389 10.887C14.0084 9.9655 14.0335 9.043 14.114 8.12451C14.2939 6.11366 15.7075 6.0782 17.3758 6.03635C17.5179 6.03279 17.6618 6.02918 17.807 6.0243C17.9119 6.01866 18.0151 6.05327 18.0954 6.12107C18.1757 6.18888 18.2272 6.28477 18.2392 6.38918C18.4875 7.95668 18.6248 9.53976 18.65 11.1266C18.8319 11.04 19.0331 10.9471 19.2635 10.8608C19.3322 10.8279 19.4106 10.8214 19.4839 10.8424C19.5709 8.5089 19.537 6.17244 19.3821 3.84245C19.3763 3.73866 19.4106 3.63662 19.4779 3.55739C19.5452 3.47815 19.6404 3.42778 19.7437 3.41668C20.6292 3.2847 21.5264 3.24892 22.4197 3.30994C22.4781 3.31339 22.5352 3.32881 22.5875 3.35525C22.6397 3.3817 22.686 3.4186 22.7234 3.46366C22.7796 3.41306 22.8488 3.37918 22.9233 3.36585C22.9977 3.35253 23.0744 3.36029 23.1447 3.38826C23.215 3.41623 23.276 3.4633 23.321 3.52414C23.3659 3.58498 23.3929 3.65718 23.399 3.73257C23.5394 5.27462 23.5848 6.82385 23.535 8.37147C24.2427 8.55137 24.917 8.84335 25.5324 9.23635C25.5621 9.24688 25.5904 9.26117 25.6165 9.27887C25.6767 8.21354 25.7597 7.15155 25.875 6.08973C25.884 6.03782 25.9035 5.98827 25.9322 5.94406C25.9608 5.89985 25.9981 5.86189 26.0418 5.83246C26.0855 5.80303 26.1347 5.78273 26.1865 5.77279C26.2382 5.76284 26.2915 5.76346 26.343 5.7746C26.7429 5.90045 27.1338 6.04848 27.5255 6.19685C27.8815 6.33165 28.2382 6.46673 28.603 6.5857C28.678 6.6069 28.7452 6.64963 28.7961 6.7086C28.8471 6.76758 28.8796 6.8402 28.8897 6.91748C28.9343 6.94966 28.9704 6.99217 28.995 7.04137C29.0196 7.09056 29.0319 7.14498 29.0308 7.19997C29.0687 8.05524 29.0678 8.9071 29.0571 9.76214C29.0896 9.7461 29.1448 9.71722 29.1448 9.71722C29.3218 9.66272 29.5002 9.61243 29.68 9.56174C29.7737 9.53533 29.8677 9.50882 29.9622 9.48154C30.0639 8.55892 30.2335 7.64636 30.4129 6.7306C30.4287 6.44556 30.5033 6.16688 30.6323 5.91217C30.7612 5.65747 30.9415 5.43227 31.1619 5.25081C31.8989 4.78125 32.9576 5.46789 33.763 5.99025C34.0051 6.14727 34.2244 6.28945 34.4051 6.38091C34.4822 6.41961 34.5437 6.4836 34.5792 6.56218C34.6148 6.64077 34.6223 6.72919 34.6005 6.81266C34.6506 6.85363 34.6892 6.9068 34.7128 6.96705C34.7363 7.02731 34.7439 7.0926 34.7349 7.15665C34.6136 8.11803 34.5279 9.07312 34.4552 10.0347C35.8605 10.1129 36.5303 10.2652 36.811 11.7953C36.8897 12.4666 36.8223 13.1469 36.6134 13.7896C36.6738 13.7709 36.7378 13.7666 36.8001 13.777C36.8625 13.7875 36.9216 13.8123 36.9726 13.8497C37.5953 14.3187 38.2472 14.7436 38.8992 15.1686C39.2441 15.3934 39.5891 15.6182 39.9298 15.8496C39.9966 15.9056 40.0424 15.9826 40.0597 16.0681C40.0769 16.1535 40.0645 16.2423 40.0246 16.3198C39.2132 17.9871 38.4341 19.6708 37.7551 21.3971C38.0338 21.7036 38.3209 22.0115 38.61 22.3217C39.1865 22.9403 39.7716 23.568 40.3164 24.2114C40.3631 24.2618 40.3962 24.3233 40.4126 24.39C40.4571 24.444 40.482 24.5114 40.4834 24.5814C40.4848 24.6513 40.4626 24.7197 40.4205 24.7755C38.529 27.7266 37.6218 31.1399 36.7254 34.5123C36.5792 35.0622 36.4334 35.611 36.2836 36.1565C36.1711 36.5627 36.1073 36.975 36.0442 37.3828C35.8983 38.326 35.7561 39.245 35.0242 40.0079C34.3683 40.6784 33.1552 40.7453 32.1115 40.8029C31.8706 40.8162 31.6387 40.829 31.4248 40.8486C31.3895 40.9062 31.3409 40.9544 31.283 40.9892C31.2251 41.024 31.1597 41.0443 31.0923 41.0484C31.0249 41.0525 30.9575 41.0403 30.8958 41.0129C30.8341 40.9854 30.78 40.9435 30.7379 40.8906C30.6853 40.9188 30.6255 40.9309 30.5661 40.9254C30.0626 40.8982 29.5605 40.8689 29.0592 40.8396C26.7365 40.704 24.4333 40.5695 22.1072 40.654C21.4724 40.6756 20.8402 40.7107 20.2094 40.7457C18.3615 40.8481 16.5251 40.95 14.6669 40.7115C14.6002 40.7057 14.5363 40.6814 14.4825 40.6414C14.4287 40.6015 14.3871 40.5474 14.3622 40.4851C14.3373 40.4229 14.3302 40.355 14.3416 40.2889C14.353 40.2229 14.3826 40.1613 14.4269 40.1111C14.1145 39.5686 13.8921 38.979 13.7683 38.3653C13.3915 37.0588 13.1372 35.695 12.889 34.3642C12.8266 34.0298 12.7646 33.6975 12.7012 33.3688C12.643 33.0646 12.5852 32.7614 12.5275 32.4589C12.084 30.1344 11.6487 27.8523 11.1301 25.4709C10.8585 24.2235 10.4775 23.0028 10.0972 21.7843ZM12.0604 16.7205C12.8575 16.6693 13.6252 16.6601 14.4382 16.6576C14.4037 16.2081 14.3654 15.7528 14.3267 15.293C14.225 14.0858 14.1207 12.8469 14.0775 11.5965C14.0469 11.612 14.0141 11.6228 13.9802 11.6284C13.8595 11.6417 13.7351 11.6509 13.6105 11.6601C12.8926 11.7131 12.167 11.7666 12.0773 12.6135C11.9953 13.5136 12.018 14.4019 12.0406 15.285C12.0528 15.7647 12.0651 16.2428 12.0604 16.7205ZM17.9383 11.6187C17.9106 11.563 17.8944 11.5024 17.8906 11.4403L17.8647 11.4272C17.8256 9.88336 17.7002 8.34289 17.4889 6.81305C17.3652 6.81881 17.2418 6.82406 17.1185 6.8293C16.8027 6.84273 16.4882 6.85611 16.1736 6.87787C14.6633 6.99091 14.8153 8.46119 14.9267 9.53986C14.9442 9.70857 14.9606 9.86769 14.9695 10.0106C15.0372 11.15 15.0771 12.2912 15.1169 13.4327C15.1529 14.4626 15.1889 15.4927 15.2453 16.5223C15.3113 16.5306 15.3725 16.5607 15.4192 16.608C15.466 16.6552 15.4955 16.7167 15.5032 16.7827C15.8117 18.1167 16.4417 19.3552 17.3382 20.3902C17.1894 18.1161 17.1649 15.8355 17.2648 13.5588C17.2436 13.207 17.2922 12.8544 17.4078 12.5215C17.5233 12.1885 17.7036 11.8817 17.9383 11.6187ZM19.4713 13.4012L19.4994 11.6458L19.4735 11.6327C17.8473 12.3129 17.9503 13.5024 18.0904 15.1204C18.0993 15.2236 18.1084 15.3285 18.1172 15.4351C18.1891 16.7353 18.1865 18.038 18.184 19.3417C18.1828 19.9807 18.1815 20.6199 18.1891 21.2591C18.5518 21.5921 18.9427 21.8931 19.3572 22.1588C19.6528 20.2423 19.5878 18.3197 19.5227 16.392C19.4891 15.3964 19.4554 14.3994 19.4713 13.4012ZM22.4338 14.3161C22.759 10.9159 22.832 7.49622 22.6523 4.0852C22.623 4.09931 22.5926 4.11108 22.5614 4.12038C21.8717 4.08785 21.1916 4.06833 20.5015 4.10057C20.1295 4.11492 20.2768 5.71292 20.3415 6.4152C20.3546 6.5569 20.3643 6.66214 20.3657 6.71054C20.4136 8.32733 20.372 9.94805 20.3305 11.5642C20.3215 11.9168 20.3124 12.2693 20.3043 12.6214C20.2824 13.7458 20.3202 14.8709 20.3579 15.9947C20.432 18.205 20.5059 20.4105 20.1259 22.5966C20.7772 22.9304 21.4666 23.1839 22.179 23.3517C22.2507 21.9475 22.2698 20.5431 22.2888 19.1396C22.3106 17.5299 22.3325 15.9214 22.4338 14.3161ZM25.4429 14.0768C25.486 12.6907 25.529 11.3046 25.6004 9.92011L25.581 9.9103C25.5286 9.9512 25.4654 9.97589 25.3992 9.98132C25.333 9.98675 25.2667 9.97269 25.2083 9.94086C24.6919 9.61302 24.133 9.35745 23.5472 9.18128C23.4957 10.4378 23.4237 11.692 23.3312 12.9439C23.1864 15.0202 23.1433 17.0879 23.1001 19.1599C23.0705 20.5777 23.0409 21.9975 22.9786 23.4236L22.9525 23.4753C23.5942 23.5322 24.2407 23.456 24.8516 23.2514C25.2524 20.2066 25.3476 17.1419 25.4429 14.0768ZM27.3964 20.5268C27.9177 16.1312 28.4397 11.7304 28.253 7.29332L28.2336 7.28351C27.971 7.19401 27.7099 7.09762 27.4504 7.00179C27.1763 6.90059 26.9039 6.80001 26.6331 6.70885C26.385 9.2199 26.3055 11.7438 26.2259 14.2661C26.135 17.1486 26.0442 20.0291 25.702 22.8863C26.2712 22.5823 26.7979 22.2048 27.2687 21.7636L27.2594 21.6858C27.3047 21.2995 27.3505 20.9131 27.3964 20.5268ZM29.0671 20.9529C28.7699 21.3548 28.4387 21.7303 28.0769 22.0752C27.4513 22.6092 26.2115 23.5499 25.4511 23.8632C25.3877 23.9197 25.3056 23.9505 25.2207 23.9496C24.8627 24.0712 24.4933 24.1562 24.1182 24.2033C22.9282 24.311 21.729 24.1608 20.6024 23.7629C19.4758 23.365 18.4483 22.7287 17.59 21.8975C17.5341 21.8822 17.4829 21.8534 17.4407 21.8136C17.3986 21.7739 17.3668 21.7245 17.3482 21.6696C16.1926 20.5496 15.3402 19.1545 14.8707 17.6152C14.8078 17.6154 14.7457 17.6007 14.6895 17.5723C14.6334 17.5439 14.5848 17.5025 14.5476 17.4517C14.5168 17.4641 14.4836 17.4694 14.4504 17.4674C13.1628 17.4631 11.8759 17.527 10.5951 17.6591L10.6081 17.6332C9.36608 17.7805 10.5151 20.5632 10.9248 21.5553C10.9737 21.6738 11.0121 21.7667 11.0346 21.8266C11.8149 24.4462 12.4282 27.1127 12.8709 29.81C13.042 30.683 13.1939 31.5596 13.3456 32.4355C13.4852 33.2411 13.6246 34.0463 13.779 34.8478C13.8021 34.9562 13.8357 35.1746 13.8799 35.4618C14.0843 36.7902 14.5152 39.5911 15.1799 39.7941C15.2685 39.8239 15.3446 39.8824 15.3961 39.9604C16.4867 40.0438 18.3331 40.0464 19.4253 39.9866C19.886 39.9647 20.3467 39.9374 20.808 39.9099C21.4629 39.871 22.1191 39.832 22.7785 39.8087C22.8345 39.8075 23.0322 39.8143 23.2422 39.8216C23.4943 39.8303 23.7642 39.8397 23.8278 39.8365C24.5016 39.8365 26.1209 39.8607 26.8042 39.8899C27.3173 39.9179 27.8299 39.9498 28.3421 39.9816C29.0679 40.0267 29.7931 40.0718 30.5183 40.1057C30.6038 40.1041 30.6879 40.127 30.7609 40.1717C30.872 39.679 30.9843 39.1822 31.0975 38.6819C32.3133 33.307 33.6209 27.5262 34.4088 22.1548C34.5362 21.2615 34.6508 20.3616 34.7491 19.4617L34.7818 19.397L34.7642 19.3908C33.9448 19.102 30.8967 18.0276 30.6532 18.5088C30.2037 19.3722 29.6726 20.1906 29.0671 20.9529ZM30.9984 14.2831C31.2029 12.8344 31.407 11.3887 31.3301 9.92227L30.6231 10.1164C30.5781 10.1628 30.522 10.1968 30.46 10.2152C30.3981 10.2336 30.3325 10.2358 30.2695 10.2215L29.4067 10.4667C29.3467 10.4864 29.2825 10.49 29.2207 10.4772C29.1588 10.4644 29.1014 10.4356 29.054 10.3937C28.9559 13.9076 28.5568 17.3422 28.1512 20.8059C28.9448 19.8439 29.6239 18.7929 30.1747 17.674C30.2138 17.5965 30.2771 17.5339 30.3551 17.4956C30.433 17.4574 30.5213 17.4457 30.6065 17.4623L30.6582 17.4885C30.6978 16.4122 30.8482 15.3468 30.9984 14.2831ZM33.5158 12.5411C33.6165 10.7059 33.7173 8.87039 33.9548 7.04594L33.9614 7.03302C33.8044 6.94008 33.6355 6.82559 33.4587 6.70581C32.8902 6.32048 32.2409 5.88039 31.6477 5.92691C31.2929 5.93311 31.1763 6.78639 31.113 7.24992C31.0988 7.35355 31.0874 7.4377 31.0764 7.48854C30.9667 8.07426 30.8731 8.66006 30.7925 9.2524L31.5548 9.0294C31.6124 9.01 31.6737 9.00383 31.7341 9.01133C31.7944 9.01882 31.8523 9.0398 31.9035 9.07271C31.9547 9.10562 31.9978 9.14962 32.0296 9.20144C32.0615 9.25327 32.0812 9.3116 32.0875 9.37211C32.2543 11.0188 32.0242 12.6322 31.7937 14.2492C31.6313 15.3879 31.4687 16.5284 31.4443 17.6835C31.9846 17.8189 32.5248 17.9543 33.0683 18.0995C33.3119 16.2549 33.4138 14.3982 33.5158 12.5411ZM35.8097 13.2311C35.8415 13.0939 35.8736 12.9553 35.9056 12.8144L35.938 12.8146C36.2397 11.4006 35.7013 10.8927 34.3898 10.8215C34.3562 11.372 34.3261 11.9227 34.296 12.4733C34.1905 14.4034 34.0851 16.3324 33.8287 18.249L33.8058 18.2942C34.2942 18.4359 34.7793 18.584 35.2611 18.7548C35.304 18.7696 35.3434 18.7931 35.3768 18.8239C35.4101 18.8548 35.4366 18.8922 35.4546 18.9339C35.3662 17.5998 35.3684 16.2612 35.4612 14.9273C35.5503 14.3504 35.6771 13.8032 35.8097 13.2311ZM36.2186 19.6697C36.5148 20.0306 36.8208 20.3884 37.13 20.7398L37.1591 20.7464C37.6469 19.5403 38.1837 18.359 38.7175 17.1844C38.8547 16.8825 38.9917 16.581 39.1276 16.2797C38.9056 16.1334 38.6816 15.988 38.457 15.8421C37.7702 15.3963 37.0773 14.9464 36.4158 14.4526C36.3139 14.8344 36.2544 15.2262 36.2384 15.621C36.2218 16.201 36.2322 16.7771 36.2427 17.3517C36.2567 18.1247 36.2707 18.8952 36.2186 19.6697ZM32.1168 37.9242C31.9606 38.6121 31.8044 39.3001 31.6493 39.9882L31.6742 39.9848C33.3529 39.7613 34.8663 39.5597 35.2438 37.5053C35.5002 36.0684 35.87 34.6321 36.2527 33.2023C37.0577 30.2167 37.9598 27.2153 39.6214 24.5902C39.084 23.9796 38.5284 23.39 37.9737 22.8014C37.1188 21.894 36.2659 20.9889 35.4849 20.0126C34.8109 26.0581 33.4639 31.991 32.1168 37.9242Z" fill="white"/>
</g>
<defs>
<clipPath id="clip0_87_232">
<rect width="51" height="43" fill="white"/>
</clipPath>
</defs>
</svg>
