<svg width="51" height="43" viewBox="0 0 51 43" fill="none" xmlns="http://www.w3.org/2000/svg">
<g clip-path="url(#clip0_87_58)">
<path fill-rule="evenodd" clip-rule="evenodd" d="M5.77322 5.93624C5.65961 5.28583 5.68082 4.619 5.83552 3.97712C5.97117 3.50185 6.19929 3.05804 6.50682 2.67112C6.81435 2.2842 7.19523 1.96179 7.62762 1.72238C8.06001 1.48297 8.53541 1.33126 9.02655 1.27597C9.51769 1.22067 10.0149 1.26286 10.4897 1.40013C11.6933 1.73412 12.548 2.89461 13.1913 3.88516C13.2396 3.95926 13.288 4.03336 13.3323 4.11506C13.369 4.08435 13.4132 4.06408 13.4605 4.05637C16.9246 3.32913 20.5152 4.71892 23.4308 6.559C24.9697 7.56844 26.2922 8.87424 27.3211 10.4002C28.8749 12.7521 30.8596 14.7887 33.1706 16.4026C37.4618 19.3185 44.6397 24.516 42.073 30.76L42.0329 30.836C42.2311 30.9247 42.4297 31.0114 42.6277 31.0978C44.4865 31.909 46.2846 32.6938 47.0913 34.8759C47.9321 37.0202 46.4129 39.3278 44.5494 40.3363C41.6202 41.9094 38.7652 39.2365 36.6127 36.7789C34.1275 40.0148 29.4174 36.9167 26.9231 35.1436C24.8227 33.6033 22.8316 31.9193 20.9641 30.1036C20.2872 29.465 19.651 28.7882 19.0146 28.1112C18.2666 27.3156 17.5184 26.5198 16.7037 25.7853C15.6267 24.9371 14.7164 23.8965 14.0189 22.7163C12.8393 22.572 11.7424 22.0356 10.9042 21.1932C10.066 20.3508 9.53504 19.2513 9.39661 18.071C9.32721 18.0589 9.26338 18.0252 9.21421 17.9747C9.08905 17.8644 8.96419 17.7553 8.84011 17.6469C7.43883 16.4228 6.1359 15.2846 5.60531 13.3978C5.17988 11.8101 5.85114 10.7444 6.62115 9.52188C6.75134 9.31518 6.88436 9.104 7.01537 8.88506C6.4997 8.15646 6.11678 7.34251 5.88426 6.4807C5.82567 6.42284 5.79042 6.34544 5.78525 6.26325C5.76727 6.15521 5.76323 6.04531 5.77322 5.93624ZM40.0413 29.8043C40.4731 30.071 40.9225 30.3082 41.3864 30.5143L41.3717 30.487C42.5628 27.7147 41.042 24.852 39.4067 22.648C37.8025 20.4758 35.595 19.0001 33.3894 17.5258C32.7979 17.1304 32.2065 16.735 31.6269 16.3264C29.9244 15.1328 28.7812 13.5835 27.6231 12.014C26.7212 10.7916 25.8102 9.55697 24.6189 8.46873C21.8981 5.98328 17.442 4.09779 13.7545 4.84319C14.6532 6.42274 15.7088 7.90769 16.9053 9.27552C17.0348 8.60085 17.3882 7.98963 17.9083 7.54082C19.8698 6.27312 22.6777 9.86374 20.6844 11.3575C20.3952 11.5741 20.0948 11.7751 19.7984 11.9685C21.3369 13.3247 22.9469 14.5825 24.5648 15.8251C27.1252 15.1165 30.1458 14.8062 31.2577 17.2101C31.572 17.8956 31.7003 18.6517 31.6298 19.4026C31.5593 20.1534 31.2925 20.8724 30.8561 21.4874C31.3579 21.9175 31.8517 22.3627 32.3455 22.8079C32.4078 22.8241 32.4656 22.8546 32.514 22.897C32.5625 22.9395 32.6004 22.9927 32.6245 23.0524C33.2382 23.6092 33.8438 24.1684 34.4524 24.7302C34.5802 24.8482 34.7082 24.9664 34.8363 25.0846C34.8782 25.1162 34.9094 25.1598 34.9259 25.2096C37.2572 24.6035 39.6197 24.6747 40.1658 27.6351C40.2892 28.3585 40.1729 29.1023 39.8348 29.7536C39.9071 29.7499 39.9789 29.7675 40.0413 29.8043ZM15.0212 8.07702C14.9785 8.01193 14.9297 7.93768 14.8759 7.85575C14.2785 6.94594 13.0589 5.08862 12.5824 4.30231C11.7716 2.89292 10.5089 1.75037 8.78393 2.05456C8.09524 2.22511 7.48472 2.62412 7.05205 3.18641C6.61937 3.74871 6.39012 4.44109 6.40171 5.15049C6.4 5.25324 6.40416 5.35601 6.41416 5.45829L6.46736 5.48637C6.59818 5.73224 6.79048 6.30917 6.98789 6.90141C7.2027 7.54587 7.42354 8.20844 7.57778 8.48227C8.94997 10.2592 10.6499 11.7568 12.5857 12.8939L12.7143 12.816C13.9702 12.2105 15.1485 11.4555 16.2234 10.5675C16.4126 10.3821 16.5626 10.1605 16.6644 9.91603C16.6166 9.91551 16.5696 9.90359 16.5273 9.88127C16.485 9.85895 16.4486 9.82686 16.4212 9.78767C15.9188 9.21154 15.4584 8.64787 15.0212 8.07702ZM19.2259 12.3498L17.8109 13.1933C17.7235 13.2617 17.5531 13.3913 17.3359 13.5563C16.5422 14.1595 15.1244 15.2371 14.8532 15.5385C14.0113 16.4157 14.0694 17.797 15.4587 18.0736C16.3017 18.2073 17.1626 18.1766 17.9939 17.9833C19.2983 17.6385 20.577 17.2029 21.8206 16.6797L22.494 16.4715C22.8776 16.3339 23.292 16.1931 23.7448 16.0531C23.7155 16.0309 23.6831 16.0066 23.6486 15.9806C23.381 15.7788 22.9794 15.4761 22.7619 15.3011C22.4785 15.0801 21.5439 14.321 20.9173 13.8121C20.6917 13.6289 20.5061 13.4781 20.4051 13.3965C20.4278 13.3564 20.081 13.0775 19.7576 12.8173C19.4727 12.5882 19.206 12.3736 19.2259 12.3498ZM29.4121 23.5238L28.7536 24.6241L28.7156 24.604C28.7043 24.6642 28.6749 24.7194 28.6314 24.7624C28.5878 24.8054 28.5322 24.8341 28.472 24.8447C28.2984 25.0446 28.1741 25.2802 28.0497 25.5158C27.5566 26.2661 27.9233 26.8969 29.1458 27.4159C29.4425 27.3379 29.7317 27.2336 30.0099 27.1043C30.262 27.0041 30.5047 26.8893 30.7475 26.7745C30.9903 26.6597 31.2331 26.5449 31.4851 26.4448C31.636 26.3896 32.0598 26.2451 32.518 26.0888C33.0841 25.8958 33.7026 25.6849 33.9232 25.6026C33.9069 25.5428 33.5438 25.0392 33.477 24.9951C33.5912 25.1627 33.3862 24.8743 33.477 24.9951C33.2816 24.708 33.0802 24.4122 32.9697 24.3132C32.9393 24.2855 32.884 24.2351 32.8114 24.169C32.3986 23.7926 31.4237 22.904 31.2473 22.753L30.478 22.0749L30.3857 22.2497C30.1369 22.6042 29.8766 22.9343 29.6156 23.2651C29.5478 23.3511 29.4798 23.4372 29.4121 23.5238ZM38.0255 31.9665L36.6712 33.2437L35.9226 34.4227C35.9071 34.462 35.8833 34.4975 35.8528 34.5266C35.8223 34.5558 35.7858 34.5781 35.7459 34.5918L35.7079 34.5718C35.8739 34.7675 36.0413 34.9674 36.2105 35.1695C37.8973 37.184 39.767 39.417 42.3102 39.9026C44.9888 40.4613 46.9711 37.3681 46.3999 35.026C45.9172 33.0808 43.9222 32.2638 42.046 31.4955C41.2043 31.1509 40.3866 30.816 39.74 30.3935C39.6622 30.3454 39.6049 30.2702 39.5793 30.1824C39.1369 30.8388 38.615 31.4381 38.0255 31.9665ZM15.5078 22.6568C15.2967 22.6968 15.0829 22.7204 14.8682 22.7273C15.6411 23.8151 16.5722 24.7814 17.6305 25.5943C18.3315 26.2374 18.9843 26.9456 19.6388 27.6556C20.0785 28.1325 20.519 28.6103 20.9753 29.0698C22.4717 30.5981 24.1099 31.968 25.7642 33.3075C25.8263 33.3565 25.8915 33.4081 25.9594 33.4618C28.2552 35.2772 33.7736 39.6409 36.0307 36.1511C35.6114 35.6383 35.2069 35.1527 34.8396 34.7257L34.5483 35.0383L34.5122 35.1067C34.4819 35.1543 34.4407 35.194 34.3919 35.2224C34.3431 35.2507 34.2882 35.267 34.2318 35.2697C33.2147 35.3742 31.8319 34.9747 31.5338 33.8457C31.4415 33.5323 31.4253 33.2015 31.4865 32.8806C31.5477 32.5597 31.6846 32.258 31.8858 32.0006C31.6405 31.6217 31.3271 31.2916 30.9615 31.0269C29.4689 31.5928 27.8661 31.8075 26.2772 31.6543C22.523 31.2373 22.6417 27.2382 23.8275 24.5312C23.4774 24.1858 23.1451 23.817 22.812 23.4474C22.057 22.6094 21.2979 21.7671 20.3184 21.1827C20.2536 21.1384 20.2018 21.0775 20.1686 21.0064C18.706 21.7858 17.135 22.3421 15.5078 22.6568ZM32.4516 31.4441C32.8469 31.1259 33.2714 30.8457 33.7193 30.6071C34.3212 30.2997 34.8772 29.9095 35.3708 29.4479L35.1585 28.6167C34.601 28.7225 34.0819 28.9752 33.6547 29.3486C33.0695 29.8537 32.4365 30.3007 31.7648 30.6833C32.0233 30.9086 32.2538 31.164 32.4516 31.4441ZM21.2423 20.4265L20.8923 20.611C22.1165 21.5577 23.2313 22.6382 24.2157 23.8324C24.3129 23.6869 24.4228 23.553 24.5396 23.4108C24.5901 23.3494 24.6418 23.2863 24.6943 23.2202C24.7201 23.1888 24.7555 23.1472 24.7984 23.0968C25.4776 22.2981 28.0483 19.2755 24.5128 19.2375C23.3426 19.3636 22.2203 19.7716 21.2423 20.4265ZM14.1587 12.8593C13.0104 13.4268 11.9425 14.1439 10.9827 14.9921C9.24737 16.6415 10.1287 19.3902 11.6147 20.8644C12.2776 21.59 13.1909 22.0372 14.1704 22.1161C14.2279 22.0912 14.2902 22.0796 14.3527 22.0823C14.4153 22.085 14.4764 22.1019 14.5314 22.1318C16.3137 22.1373 18.2768 21.1343 20.1588 20.1728C21.7187 19.3758 23.2228 18.6072 24.5221 18.4651C26.9888 18.1734 27.563 21.0806 26.1783 22.6916C24.6272 24.5257 23.4129 26.6055 23.9288 29.0156C24.4447 31.4257 27.8937 31.0402 29.5587 30.6655C31.0696 30.2429 32.4659 29.4853 33.6437 28.4489C34.2847 27.9709 35.5431 27.5565 36.2368 28.1753C36.8446 28.6807 36.3153 29.4994 35.959 29.9721C35.4499 30.5179 34.838 30.9578 34.1584 31.2664C32.5632 32.1347 31.5197 34.6642 34.0746 34.5551C34.5197 34.0524 35.165 33.5133 35.8555 32.9364C37.7757 31.3321 40.046 29.4352 39.337 27.2171C38.3515 24.1266 34.9892 25.6934 32.1471 27.0177C30.8202 27.636 29.6068 28.2014 28.8015 28.2155C25.73 28.2172 27.0307 25.5319 28.2583 23.7214C28.3703 23.5106 28.4968 23.3079 28.6369 23.1147C28.6684 23.0728 28.712 23.0416 28.7618 23.0251C28.8271 22.9334 28.8965 22.8511 28.9607 22.7749C29.0448 22.6751 29.12 22.5859 29.1655 22.4997C30.7379 20.5699 32.2224 17.0391 28.6977 16.1505C27.3939 15.9213 26.0527 16.0376 24.8078 16.4878C24.7658 16.526 24.716 16.5544 24.6618 16.5712C24.6076 16.5879 24.5505 16.5925 24.4943 16.5847C24.0859 16.7031 23.699 16.8365 23.3258 16.9651C23.0909 17.046 22.8615 17.1251 22.6357 17.1973C22.1116 17.3681 21.5936 17.5571 21.0761 17.7459C19.7278 18.2378 18.3824 18.7287 16.9398 18.8942C16.0572 19.0016 13.4692 19.0447 13.2306 17.6556C12.9921 16.2664 14.1011 14.9569 15.1039 14.1064C16.0458 13.3222 17.0513 12.6179 18.1101 12.0006C18.187 11.9551 18.2659 11.909 18.3459 11.8622C19.7213 11.0585 21.4521 10.047 19.7845 8.40471C18.8314 7.47197 17.7508 9.39929 17.1541 10.4636C17.0086 10.723 16.8919 10.9311 16.8128 11.0341C16.0652 11.821 15.1611 12.4428 14.1587 12.8593ZM11.8612 13.3278C10.206 12.297 8.723 11.0126 7.46651 9.52157C7.42097 9.59496 7.37589 9.66714 7.33146 9.73829C6.55159 10.9871 5.96764 11.9222 6.45756 13.6241C6.82846 14.9746 7.95968 15.9306 9.01591 16.8233C9.11514 16.9072 9.2137 16.9905 9.31091 17.0735L9.3428 16.4976C9.47328 15.1089 10.7028 14.0865 11.8612 13.3278Z" fill="white"/>
</g>
<defs>
<clipPath id="clip0_87_58">
<rect width="51" height="43" fill="white"/>
</clipPath>
</defs>
</svg>
