<svg width="203" height="150" viewBox="0 0 203 150" fill="none" xmlns="http://www.w3.org/2000/svg">
<path fill-rule="evenodd" clip-rule="evenodd" d="M41.8338 118.691C42.0025 118.754 42.2014 118.789 42.361 118.875C42.7771 119.092 42.5772 118.972 42.8084 119.236C41.9964 119.648 40.5684 118.282 40.2775 117.655L42.2954 117.581C42.1217 118.136 41.8853 117.816 41.8338 118.692V118.691ZM39.7674 116.982L39.519 116.435C40.3431 116.06 40.633 115.957 41.146 116.312C40.528 116.747 40.3997 116.496 39.7665 116.982L39.7674 116.982ZM123.884 82.6965C124.65 83.1916 132.121 82.4074 133.452 82.313C136.679 82.0838 140.712 82.3699 144.086 82.2755C147.483 82.1812 151.043 82.1548 154.523 82.2349C157.737 82.312 161.329 82.2146 164.367 82.6215C164.678 83.148 164.603 83.8064 164.572 84.614C161.73 83.9901 160.528 83.706 157.461 83.6319C155.81 83.5944 150.959 83.1277 149.996 83.7608C150.595 84.7804 152.242 84.2447 153.32 84.2275C156.273 84.1757 162.255 84.1362 164.507 85.4987C164.567 86.2778 164.712 87.0559 164.721 87.6718C164.735 88.3586 164.479 89.2006 164.613 89.5841C163.969 89.504 162.911 89.0485 162.093 88.8851C161.133 88.6934 160.021 88.6558 159.018 88.5534C158.043 88.453 156.897 88.4448 155.837 88.3556C154.916 88.2785 153.338 87.9518 152.887 88.9369C153.574 89.7383 154.409 89.2372 155.629 89.1834C157.952 89.0799 162.98 89.0799 164.567 90.4435C164.539 92.1012 164.128 93.6899 164.186 95.1903C164.248 96.7932 164.065 98.4632 163.984 100.098C161.746 99.2728 158.859 99.4707 156.397 99.1612C155.291 99.0243 154.729 99.2241 153.828 99.1359C151.608 98.9127 147.923 98.2573 145.714 98.8011C145.187 98.9299 145.25 99.0821 144.688 99.1013C143.967 99.1298 144.203 98.8152 143.559 99.1267C144.044 100.261 147.11 99.3702 148.236 99.3276C149.798 99.2728 152.557 99.3134 153.737 99.8318C154.416 100.129 157.707 99.9525 158.868 100.012C159.954 100.067 160.621 100.308 161.485 100.436C162.662 100.611 162.459 100.073 163.831 100.669C164.125 101.756 163.914 102.69 164.07 103.821C159.564 102.699 156.276 103.103 152.108 102.653C150.694 102.501 148.953 102.661 147.847 102.479C147.907 101.912 148.603 101.339 148.073 100.876C147.722 100.566 142.814 101.847 140.018 101.239C138.149 100.832 133.312 101.431 131.488 101.182C130.773 101.085 131.041 100.788 129.88 100.882L114.729 101.226C114.701 101.183 114.669 101.054 114.655 101.089L114.145 100.508C114.111 100.556 114.054 100.564 114.042 100.662C114.034 100.756 113.973 100.776 113.962 100.825C113.951 100.871 113.922 100.943 113.911 101.003L113.398 102.64C113.229 103.033 113.246 103.066 113.173 103.358L113.734 104.131C113.033 105.051 113.318 104.684 113.46 105.766C113.54 106.358 113.495 107.424 113.523 108.113C113.583 109.516 113.238 109.213 113.084 109.934C112.841 111.083 113.237 109.972 113.135 110.819C113.081 111.257 112.967 110.811 112.899 111.666C113.138 112.259 113.26 112.119 113.381 112.353C113.662 112.908 113.418 112.857 113.581 113.332C113.732 113.77 114.373 114.277 114.86 114.391C116.06 114.666 122.696 114.383 124.089 114.185C127.096 113.759 130.684 114.402 133.7 114.331C135.233 114.297 136.906 114.561 138.322 114.383C141.373 114 144.595 114.798 147.58 114.097C148.546 113.421 147.14 111.658 151.102 111.982C152.57 112.102 153.012 111.887 154.009 112.686C155.445 112.662 156.905 112.491 158.339 112.726C159.59 112.932 160.724 113.488 161.602 113.677C161.466 113.299 161.511 113.371 161.178 113.105L160.56 112.618C160.528 112.589 160.477 112.53 160.437 112.483C161.583 112.675 162.179 113.038 163.108 112.849C162.834 112.131 162.812 112.245 161.836 112.045C160.374 111.744 155.922 111.913 152.157 111.403C150.387 111.163 148.828 111.466 148.189 111.355C148.135 110.645 147.93 110.052 147.93 109.46C147.93 108.389 148.377 108.712 148.207 107.811L147.728 103.726C149.994 102.723 153.049 103.316 155.682 103.345C156.94 103.356 162.434 103.574 163.623 104.485L163.286 104.822C162.999 105.118 163.089 104.906 163.047 105.14L164.159 105.151L164.267 109.749C161.536 108.95 159.427 109.236 156.612 108.839C155.862 108.733 154.397 108.149 155.204 109.569C156.66 110.259 161.979 108.853 164.031 110.623C164.644 111.874 164.236 112.908 164.097 114.187C163.882 116.152 163.413 115.525 162.771 116.882L160.845 118.906C159.713 119.558 159.471 119.63 158.049 120.056C155.484 120.826 154.392 121.133 151.36 121.23C150.043 121.273 148.613 121.104 147.433 121.161C146.868 121.187 146.25 121.347 145.648 121.347L136.286 121.516C134.507 121.325 134.191 121.611 132.641 121.68L121.805 121.7C119.2 121.565 116.463 121.574 113.93 121.339L106.25 121.056C104.041 120.895 101.102 120.357 98.9616 120.778C96.8892 121.188 85.6888 121.05 83.7871 120.883C81.3734 120.674 78.7423 120.583 76.3084 120.348L68.8265 120.305C66.7177 120.431 62.1942 120.193 59.1924 120.431C57.3715 120.574 56.2908 120.954 53.5346 120.912L55.1132 120.285L47.9426 120.514C47.5497 119.713 47.7315 119.83 46.768 119.581C46.7367 119.529 46.6994 119.383 46.6852 119.414C46.6711 119.446 46.6287 119.288 46.6115 119.248C46.3317 118.578 46.4974 118.38 44.8097 118.472L44.6784 118.203C44.5734 117.994 44.7299 117.868 44.1543 117.544C43.7462 117.315 43.1797 117.263 42.6919 117.181C42.4606 116.273 42.3101 116.237 41.3547 116.15C42.3525 114.307 40.779 115.082 39.3368 115.291L38.9288 113.943L40.2973 113.869L40.6821 113.096C40.2912 112.535 40.5992 112.769 39.8731 112.538C40.0811 111.848 40.1266 112.079 40.2579 111.493C39.8165 110.969 40.1094 111.235 39.4742 111.02C39.6853 110.153 39.6428 110.571 39.9216 109.918C39.5681 109.595 39.2237 109.452 38.7298 109.331C39.157 108.586 39.9216 108.372 38.7864 107.519C39.0146 107.076 39.0399 106.837 38.8238 106.334C38.2683 106.348 38.4107 106.397 37.9461 106.626C36.7715 107.201 38.8985 106.386 37.6553 106.752L37.4987 105.836C38.7753 105.718 39.252 105.718 39.2884 104.516C38.3451 104.255 38.4279 104.708 37.4412 104.785C37.2816 103.016 37.8148 104.086 38.843 103.362C39.4126 102.958 39.0743 103.293 39.2197 102.774C38.2794 101.827 38.5501 102.697 37.2412 102.763C37.1129 100.725 38.3471 102.513 38.3643 100.907L37.1927 100.277C38.2784 100.26 38.8319 100.441 38.6461 99.2842L36.9726 99.2274C37.0927 97.8994 38.5804 98.7404 38.7228 97.4296C38.0047 96.9832 37.8219 97.3262 37.0725 97.4753C37.0927 96.0813 36.8645 96.8564 37.7169 96.3847C38.438 95.987 38.3663 95.3854 37.5634 95.1855L36.9736 95.0364C37.4271 94.7158 38.0421 94.6245 38.4643 94.1974C37.6321 92.9577 38.7551 93.47 37.7886 92.4737C38.7036 91.7747 38.6036 92.6371 38.8834 91.2259C37.2503 90.745 38.1623 91.2685 37.0564 91.2827L37.0392 90.3118C37.7371 90.257 38.7521 90.3635 38.5693 89.5499C38.4835 89.1573 38.3017 89.1603 37.8543 89.1633C37.1534 89.1694 37.3897 89.8076 37.0938 88.9026C37.7321 88.5415 38.034 88.86 38.7642 88.3071C38.7986 87.5198 38.6218 87.3626 37.8462 87.251C37.6462 87.6487 37.9977 87.7258 37.2907 87.8434L37.219 86.5327C37.9714 86.1948 39.0056 86.0944 38.7036 85.1407C38.5956 85.0778 38.6925 84.7715 37.9795 85.0322C37.6886 85.1377 38.0199 85.1894 37.1927 85.4502C37.2523 84.253 37.2806 84.7948 37.9391 84.2246C38.8087 83.4749 37.7563 83.0275 37.2634 82.576C37.8623 82.2382 38.4915 82.4614 38.6804 81.5879L37.5351 81.1983L39.7752 80.8747C43.8251 80.3248 48.177 81.2358 52.2905 81.1384C53.6045 81.107 54.0377 81.4337 55.1547 81.1242C57.315 80.5257 65.2614 81.0897 67.6579 81.3474C69.2798 81.5189 72.1814 81.4387 73.9569 81.388C75.9778 81.3312 78.34 81.2308 80.2559 81.2338C82.3192 81.2369 84.8361 80.9964 86.5632 81.7116C86.9853 81.7319 87.2075 81.3048 87.9428 81.2561C89.687 81.1415 91.428 81.3079 93.1391 81.0958C97.7818 80.5145 102.559 81.245 107.247 80.898C114.078 80.3968 120.776 80.8239 127.751 80.5317C129.769 80.4486 133.058 80.3339 134.997 80.5064C136.712 80.6555 138.454 80.1229 140.163 80.4638C140.842 80.6007 140.708 80.8676 141.477 81.0136L142.15 80.4181L150.603 80.3207C150.641 80.3694 150.68 80.3897 150.694 80.4729C150.891 81.4803 152.886 81.2348 153.682 81.1486C155.404 80.9599 163.774 81.4895 164.552 81.9419C163.907 82.3345 155.637 81.8699 154.725 81.8537C150.447 81.7705 132.064 81.6995 128.712 82.1458C127.749 82.2747 127.339 82.507 126.361 82.5121C125.601 82.5151 124.415 82.2828 123.887 82.7008L123.884 82.6965ZM37.3009 79.166C37.3352 79.2086 37.3807 79.2634 37.4039 79.2918L37.8513 79.9268C37.9826 80.5396 38.1675 80.1013 37.1787 80.4909L37.3009 79.1649V79.166ZM50.3687 79.9187C50.9272 79.6042 51.0242 79.73 51.5312 79.9441C50.9787 80.2099 50.9131 80.1561 50.3687 79.9187ZM164.541 80.7486C164.41 81.1098 164.937 81.0895 164.02 81.1321C163.724 81.1432 163.504 81.0093 163.185 80.9576L158.029 80.6918L164.541 80.7486ZM163.085 79.4835C163.989 78.9286 163.686 79.0057 163.878 78.6191C164.075 78.2153 164.12 78.0348 164.65 77.703L164.536 79.166C163.676 79.6296 163.664 79.7361 163.086 79.4835L163.085 79.4835ZM37.5724 55.8116C38.2137 55.9344 37.9825 55.9029 38.1451 56.3351C38.3814 56.9651 38.8207 56.538 37.8744 57.0392L37.5724 55.8106L37.5724 55.8116ZM39.6045 46.9823C39.0257 47.2025 39.1146 47.1994 38.7298 46.9742C38.8834 46.7419 39.0379 46.6506 39.2459 46.6648C39.7822 46.6962 39.5621 46.9194 39.6055 46.9823L39.6045 46.9823ZM39.5984 45.7973C39.9064 45.634 39.9145 45.5853 40.2539 45.8034C40.0711 45.915 40.2226 45.912 39.866 45.9353L39.5984 45.7984V45.7973ZM41.0861 44.8244C40.8548 44.9878 40.9012 45.1683 40.473 44.8214C40.9204 44.3314 41.0739 44.8183 41.0861 44.8244ZM44.7572 43.2093C45.148 41.6571 46.2853 42.5762 47.776 42.3642C49.0334 42.1897 49.7545 41.9057 51.1312 41.8772C53.4117 41.8285 56.1447 41.8204 58.4331 41.6967C63.4234 41.4248 68.4227 41.863 73.3876 41.654L95.8438 41.6571C103.066 42.0467 110.516 41.3537 117.715 41.2817C118.989 41.2706 120.181 41.5364 121.455 41.5019L139.636 41.0119C142.011 40.9033 144.647 41.2949 147.073 41.1661C149.051 41.0606 148.529 41.79 150.613 41.6581C152.238 41.5546 159.721 40.9885 160.534 42.7C159.522 42.6087 158.714 42.5367 157.73 42.419C156.484 42.2699 156.866 42.2729 155.543 42.2902C153.847 42.3135 151.707 42.2871 150.017 42.2131C146.249 42.0497 131.901 42.1562 128.361 42.4281C126.911 42.5397 119.5 43.1322 118.597 43.4619C119.363 44.0858 122.935 43.3442 124.109 43.2245C124.719 43.1616 124.733 43.259 125.229 43.2134C125.702 43.1728 126.187 43.0845 126.609 43.0419C132.412 42.4576 141.86 42.3521 147.845 42.4951C152.528 42.6067 150.595 43.0074 152.161 43.0703C154.823 43.1738 155.409 42.6807 159.656 43.2712C160.825 43.4345 161.874 43.6638 162.458 44.4683C162.894 45.0699 163.079 45.0527 163.168 45.8744C161.31 45.5934 159.409 45.282 157.476 45.144C156.054 45.0436 154.116 44.6915 152.736 44.7919C151.998 44.8437 151.847 45.3449 151.841 45.3307C151.824 45.2962 151.787 45.428 151.755 45.4707C150.143 45.3246 147.922 45.8227 146.443 44.8467L146.138 45.2079C146.127 45.1764 146.075 45.2769 146.044 45.3114C144.656 45.2546 126.261 45.6411 124.246 45.9982L122.268 46.3563C121.637 46.6029 122.011 46.5024 121.86 46.6658C122.509 46.9752 125.525 46.2792 126.724 46.2711C128.5 46.2569 130.119 46.0682 131.843 46.054C136.677 46.0053 159.919 45.2241 163.365 46.6556C163.63 47.3516 163.487 46.6526 163.209 47.5322C164.081 48.4229 164.249 50.6498 164.338 52.2559L164.626 57.1915C161.821 58.133 157.05 56.4357 153.541 56.8851C153.151 57.1083 153.302 57.5182 153.005 57.6349L146.678 57.3376C145.686 56.4814 145.672 57.7637 143.377 57.7353C142.132 57.7181 141.308 57.5638 140.008 57.6267C135.65 57.8327 129.796 57.432 126.017 57.575L112.413 57.9331C110.429 57.9879 108.003 58.3592 106.131 58.3369L92.1764 58.0539C91.2503 57.4756 91.3695 58.0742 90.3555 58.1685C88.7163 58.3207 86.8581 58.2091 85.2421 58.0884C83.3182 57.9453 81.064 58.2405 78.9602 57.9849C75.6345 57.5872 68.8848 58.6007 66.0268 58.0447C63.9806 57.6471 55.5698 58.1168 53.0187 58.2943C50.8695 58.4465 48.5417 58.2284 46.4459 58.4201C44.3684 58.6088 42.3727 58.6494 40.1247 58.2629C40.8003 57.8043 40.6266 58.0478 40.3075 57.3528L41.9466 56.9034C41.4709 56.5686 40.9064 56.6975 40.2792 56.7401C40.7236 56.4337 41.1427 56.4276 41.3537 55.9072C40.4842 55.3685 39.6267 56.1821 38.7116 55.6008L40.0165 54.9505L40.2619 53.8193C39.2106 53.59 39.3267 54.1601 38.3895 53.6985L38.7945 53.5352C39.0449 53.4469 38.9369 53.592 39.256 53.3982C39.8115 53.0604 39.5863 53.2288 39.6347 52.4852C38.7116 52.5592 38.241 52.8342 37.529 52.3046C37.9421 52.0814 38.7975 52.1098 39.253 51.984C40.0458 51.7639 40.0539 51.7862 40.1822 51.148C39.4267 50.8903 38.2239 51.288 37.5088 51.5944L37.8562 49.3473C38.5773 49.3757 39.0843 49.4071 39.8145 49.3098C40.675 49.1982 40.8719 49.2377 40.7437 48.4505C40.0367 48.5996 39.0136 48.7051 38.2723 48.3561C38.4491 48.0923 38.0562 48.2212 38.6773 48.0416C38.6834 48.0386 39.1449 47.999 39.2247 47.9848C40.2336 47.8357 40.473 47.721 40.8659 46.8708C40.9861 46.6132 41.2133 46.2723 41.3709 45.9121L42.4142 45.6291C42.7252 45.0478 42.7848 44.4411 43.1666 44.0028C43.6655 43.4306 43.9786 43.3414 44.7573 43.2125L44.7572 43.2093ZM165.598 81.1565C166.022 79.2238 165.751 77.3348 165.749 75.4214L165.76 63.3568C165.604 59.1943 165.871 55.2549 165.369 51.2434C165.147 49.471 165.164 48.0283 164.737 46.3158C164.002 43.3695 161.152 41.1591 158.279 40.3545C154.981 39.4353 157.17 40.6264 152.792 40.3515C151.712 40.2825 150.654 40.3454 149.634 40.251L128.883 40.3251C126.868 40.5483 124.681 40.3738 122.649 40.4286C120.514 40.4854 118.554 40.1993 116.43 40.3657C114.509 40.5199 112.554 40.3829 110.601 40.5259C104 41.0099 92.8454 40.6802 85.8079 40.6091C82.3227 40.5716 53.4739 40.4083 49.1484 41.1387C46.5295 41.5821 43.1604 41.4197 41.3759 42.765C40.8002 43.1972 40.1276 43.4924 39.6428 43.9844C36.8836 46.7754 36.5503 49.2925 36.314 53.3322C36.2796 53.9043 36.5473 55.2131 36.6018 56.0431C36.7705 58.6281 36.5422 68.5521 36.4049 71.2832L36.1544 80.5793C36.2423 81.7389 36.2453 82.5921 36.1948 83.7548C36.115 85.4643 36.2463 87.7976 36.2089 89.6836C36.1746 91.5848 36.1887 93.8775 36.0777 95.8135C35.71 102.25 36.7271 106.962 37.4653 112.966C37.7158 115.013 38.7682 118.249 40.4063 119.459C40.9426 119.853 41.6718 120.444 42.3101 120.719L45.9378 121.896C46.468 121.913 46.9811 121.781 47.5254 121.816C49.6968 121.965 56.6858 121.707 59.1542 121.523C64.4787 121.131 63.5061 121.231 68.2145 121.357C69.2638 121.382 70.3324 121.288 71.3696 121.294C77.6595 121.326 83.7021 122.119 89.0913 122.018C97.59 121.864 104.873 122.608 113.118 122.617C115.193 122.62 117.373 122.6 119.422 122.637C123.469 122.714 134.807 122.766 137.851 122.543C144.56 122.045 149.514 122.84 155.759 121.899C159.389 121.352 161.701 120.169 163.822 117.361C165.285 115.425 164.931 115.313 165.304 114.042C165.498 113.375 165.46 113.905 165.762 113.209C165.246 112.067 165.315 107.469 165.215 105.961C164.999 102.705 165.138 95.7487 165.568 92.1521L165.703 86.5002C165.709 85.0748 165.617 83.7773 165.665 82.3426C165.708 82.3081 165.765 82.2594 165.794 82.2371L166.022 82.0312C166.264 81.8049 166.147 81.9165 166.307 81.7015L165.594 81.1546L165.598 81.1565Z" fill="white"/>
<path fill-rule="evenodd" clip-rule="evenodd" d="M126.723 85.4971C127.579 86.1271 132.028 85.4514 133.296 85.2942C136.237 84.931 160.715 84.9503 161.948 86.4619C160.933 86.9204 152.731 84.6378 152.426 86.4446C153.03 86.9773 154.601 86.6912 156.049 86.7084C159.045 86.7429 161.729 87.4612 164.36 87.865C163.969 87.0604 163.68 87.0117 162.662 86.96C162.699 86.9143 162.77 86.7997 162.79 86.8372C162.835 86.9204 162.967 86.6627 163.023 86.5877C163.288 86.2387 163.206 86.5593 163.308 86.0804C160.677 84.7808 148.981 84.8752 145.235 84.7717C142.049 84.6834 133.866 84.168 131.002 84.9208C128.043 85.6939 127.544 85.1014 126.723 85.496L126.723 85.4971Z" fill="white"/>
<path fill-rule="evenodd" clip-rule="evenodd" d="M121.206 49.8242C121.958 50.6175 124.606 49.8242 125.903 49.7237C130.119 49.3971 138.03 49.3747 142.254 49.46C145.988 49.532 149.753 49.6203 153.49 49.7836L161.416 50.4024C162.293 50.6196 162.961 51.1471 163.24 49.8729C162.303 48.9395 153.321 48.7072 153.122 48.765C151.777 49.1373 153.367 49.1404 151.911 49.3778C151.298 49.4813 150.649 49.2946 150.09 49.2459C147.071 48.9852 140.583 49.0197 136.922 48.9507C135.899 48.9304 136.065 49.0247 135.597 48.4414C135.335 48.693 135.475 48.9598 134.203 49.0116L128.472 49.1434C127.169 49.1952 121.894 49.2784 121.207 49.8252L121.206 49.8242Z" fill="white"/>
<path fill-rule="evenodd" clip-rule="evenodd" d="M128.439 92.2466C129.694 93.3403 134.219 92.2497 135.824 92.0488C139.769 91.5568 143.605 92.5216 145.566 92.4272C147.082 92.3552 155.59 93.1435 157.759 93.3291C158.421 93.386 159.062 93.3981 159.601 93.7583C158.671 93.7522 157.357 93.6233 156.374 93.5259C155.373 93.4255 154.093 92.8959 153.632 93.8922C154.279 94.6795 154.786 94.2158 155.969 94.2503C156.884 94.2787 157.799 94.3508 158.736 94.3711C160.38 94.4055 162.065 94.7434 163.556 95.0954C163.59 94.2879 163.681 94.6977 162.875 94.3741C163.462 94.016 163.197 94.4603 163.388 93.8557C158.697 92.479 151.298 92.3299 146.145 92.0032C142.355 91.7658 136.438 91.013 132.752 91.8916C130.866 92.341 130.312 92.0549 128.44 92.2467L128.439 92.2466Z" fill="white"/>
<path fill-rule="evenodd" clip-rule="evenodd" d="M133.569 96.5811C134.775 97.5541 138.913 96.5071 140.663 96.4117C143.59 96.2575 155.898 97.1706 159.064 97.7377C159.56 97.826 160.215 97.9234 160.672 98.1039C161.282 98.3383 161.333 98.6538 161.843 98.594C162.693 98.3535 162.009 98.4793 162.288 97.8899C162.838 96.7364 162.478 98.2845 162.504 97.5064C161.326 96.3093 157.659 96.3843 155.66 96.152C154.451 96.009 154.914 96.1287 154.173 96.4493C153.56 96.7151 153.269 96.5406 152.405 96.4949C148.275 96.2656 144.855 95.8426 140.586 95.8537C137.912 95.8618 137.054 96.5091 135.056 96.4178C134.232 96.3803 133.936 96.1885 133.568 96.5811L133.569 96.5811Z" fill="white"/>
<path fill-rule="evenodd" clip-rule="evenodd" d="M128.618 53.2667C129.108 53.8166 129.684 53.7567 130.514 53.6279C133.718 53.1359 133.709 53.3012 137.092 53.1988C142.455 53.0354 146.357 53.3164 151.288 53.353C151.531 53.356 152.197 53.356 152.402 53.4189C153.03 53.6198 152.556 53.6107 153.038 53.8998C153.526 54.192 154.528 54.1149 155.184 54.0773C156.762 53.986 157.874 54.0347 159.542 54.1433C164.49 54.4608 161.588 55.1365 163.512 55.034C163.703 54.2954 163.791 54.5988 163.363 54.1494C162.653 53.4047 161.459 53.4392 160.533 53.3824C158.983 53.2881 157.552 53.1876 156.002 53.1278C150.199 52.9107 133.517 52.2198 128.619 53.2678L128.618 53.2667Z" fill="white"/>
<path fill-rule="evenodd" clip-rule="evenodd" d="M135.126 117.639C135.819 118.346 139.484 118.358 140.515 118.057C143.597 117.161 155.299 118.67 156.172 118.321C156.231 118.296 156.391 118.195 156.451 118.169C157.606 117.719 157.811 118.389 158.43 118.083C157.715 116.742 154.2 117.421 152.573 117.25C151.314 117.118 152.277 116.92 151.428 116.932C150.026 116.956 152.642 117.559 147.053 117.232C139.532 116.794 139.925 117.908 137.798 117.814C136.983 117.776 135.601 117.319 135.128 117.639L135.126 117.639Z" fill="white"/>
<path fill-rule="evenodd" clip-rule="evenodd" d="M127.455 89.0642C128.98 90.1518 134.555 89.1586 136.914 89.187L155.517 90.2431C156.498 90.3658 157.592 90.449 158.564 90.4805C159.704 90.5211 160.821 90.9157 161.266 90.4176C160.67 89.7937 158.786 90.0341 157.196 89.9367C155.862 89.8565 154.394 89.6962 153.014 89.5674L144.27 89.187C141.38 88.981 138.439 88.7801 135.54 88.7142C132.288 88.6401 130.727 89.3838 129.404 89.1352C128.817 89.0236 128.401 88.7862 127.89 88.8745C127.471 88.9465 127.657 88.9201 127.454 89.0632L127.455 89.0642Z" fill="white"/>
<path fill-rule="evenodd" clip-rule="evenodd" d="M151.515 106.732C152.358 107.428 156.203 107.162 157.603 107.259C158.892 107.345 161.445 107.385 162.34 108.433C162.368 108.467 162.399 108.516 162.426 108.547C162.702 108.874 162.175 108.588 162.714 108.865C163.198 108.499 163.13 108.126 162.819 107.559C162.556 107.078 162.226 106.795 161.576 106.615C160.297 106.26 155.594 106.208 154.209 106.311C152.966 106.403 151.532 105.378 151.515 106.732H151.515Z" fill="white"/>
<path fill-rule="evenodd" clip-rule="evenodd" d="M152.397 47.5833C152.967 48.0814 158.981 47.632 161.74 48.3158C161.016 48.7165 160.905 48.3158 160.224 48.8545C161.21 49.0462 162.946 49.2126 163.123 48.0733C162.208 47.2231 157.26 47.2404 155.094 47.0628C154.15 46.9827 152.597 46.5536 152.397 47.5843L152.397 47.5833Z" fill="white"/>
<path fill-rule="evenodd" clip-rule="evenodd" d="M157.997 51.231C157.053 51.1427 152.721 50.7613 152.074 50.9358L152.026 51.7484C153.1 52.0314 153.756 51.8488 154.853 51.7423L160.55 52.1522C163.406 52.4271 161.052 53.0744 162.859 52.7731C163.012 51.651 161.986 51.5739 160.932 51.4785C159.9 51.3872 159.065 51.3294 157.996 51.2289L157.997 51.231Z" fill="white"/>
<path fill-rule="evenodd" clip-rule="evenodd" d="M156.177 55.4933C155.205 55.4162 154.589 55.198 154.045 55.8595C154.367 56.4033 154.228 56.381 155.168 56.3515C156.71 56.3089 160.74 56.0513 162.002 56.4834L162.276 56.6184C162.325 56.6386 162.367 56.6731 162.413 56.6904C163.53 57.1226 163.723 56.7421 163.935 56.2126C163.093 55.336 158.069 55.6485 156.176 55.4943L156.177 55.4933Z" fill="white"/>
<path fill-rule="evenodd" clip-rule="evenodd" d="M150.967 43.8106C151.2 44.1596 151.158 44.1718 151.935 44.2712C153.489 44.4721 156.721 44.0541 159.126 44.4061C160.526 44.609 160.176 45.2106 161.452 44.9418C161.338 43.7883 160.626 43.9597 159.337 43.7791L153.748 43.5275C151.017 43.4301 151.713 43.0091 150.967 43.8106L150.967 43.8106Z" fill="white"/>
<path fill-rule="evenodd" clip-rule="evenodd" d="M153.659 91.1246C153.724 92.3846 154.223 91.6166 158.287 91.8834C159.368 91.9524 162.677 92.5702 163.258 92.4191C162.974 91.9808 163.199 92.1188 162.472 91.8297C161.317 91.366 154.571 90.6305 153.659 91.1256V91.1246Z" fill="white"/>
<path fill-rule="evenodd" clip-rule="evenodd" d="M160.433 115.333L159.147 115.871C159.429 116.043 158.589 116.118 160.111 115.78C160.901 115.605 160.672 115.874 161.248 115.342C161.029 114.85 161.519 115.187 160.663 114.752C159.831 114.326 158.309 114.326 157.338 114.334C155.808 114.352 153.966 114.149 152.712 114.163C152.327 116.361 157.449 114.12 160.433 115.334L160.433 115.333Z" fill="white"/>
<path fill-rule="evenodd" clip-rule="evenodd" d="M162.188 105.322C162.208 105.285 162.867 105.234 162.088 104.578C161.946 104.457 161.484 104.32 161.196 104.251C160.062 103.97 155.157 103.658 154.384 103.875C154.35 105.344 155.501 104.509 158.029 104.571C158.81 104.592 159.753 104.637 160.518 104.769C161.128 104.873 161.874 105.341 162.188 105.322V105.322Z" fill="white"/>
<path fill-rule="evenodd" clip-rule="evenodd" d="M154.641 102.212C154.69 102.247 154.761 102.237 154.79 102.303C154.938 102.641 158.526 102.069 160.61 102.449C161.705 102.652 161.172 103.094 162.237 102.927C161.813 101.238 158.691 101.622 156.485 101.524C155.505 101.482 154.812 101.218 154.641 102.211L154.641 102.212Z" fill="white"/>
<path fill-rule="evenodd" clip-rule="evenodd" d="M148.26 120.687C149.408 120.965 152.657 120.618 153.484 120.255L149.796 120.025C148.624 119.719 150.027 119.848 148.812 119.527C148.262 119.885 148.268 119.966 148.26 120.687L148.26 120.687Z" fill="white"/>
<path fill-rule="evenodd" clip-rule="evenodd" d="M132.92 120.385C133.679 121.677 136.956 120.72 139.029 120.545C137.278 120.44 136.202 120.731 134.223 120.525L133.87 119.881C133.257 119.936 133.143 119.969 132.92 120.385L132.92 120.385Z" fill="white"/>
<path fill-rule="evenodd" clip-rule="evenodd" d="M38.1031 50.1337C38.1889 50.6663 38.3707 50.9666 39.0292 50.7668C39.7301 50.5497 39.7442 50.3802 39.8099 49.7218C39.0635 49.7076 38.604 49.6934 38.103 50.1337H38.1031Z" fill="white"/>
<path fill-rule="evenodd" clip-rule="evenodd" d="M154.445 116.541C154.972 116.79 156.138 116.704 156.654 116.338L154.445 116.541Z" fill="white"/>
<path fill-rule="evenodd" clip-rule="evenodd" d="M139.743 120.346C140.344 120.454 140.732 120.589 141.191 120.271L139.743 120.346Z" fill="white"/>
<path fill-rule="evenodd" clip-rule="evenodd" d="M157.258 116.237L158.259 116.199L157.258 116.237Z" fill="white"/>
</svg>
