<svg width="21" height="21" viewBox="0 0 21 21" fill="none" xmlns="http://www.w3.org/2000/svg">
<path d="M15.1504 1.73682H6.8493C4.03028 1.73682 1.73682 4.03039 1.73682 6.84941V15.1505C1.73682 17.9697 4.03028 20.2631 6.8493 20.2631H15.1504C17.9697 20.2631 20.2631 17.9696 20.2631 15.1505V6.84941C20.2632 4.03039 17.9697 1.73682 15.1504 1.73682ZM18.6195 15.1505C18.6195 17.0633 17.0633 18.6194 15.1505 18.6194H6.8493C4.93664 18.6195 3.38056 17.0633 3.38056 15.1505V6.84941C3.38056 4.93675 4.93664 3.38056 6.8493 3.38056H15.1504C17.0632 3.38056 18.6194 4.93675 18.6194 6.84941L18.6195 15.1505Z" fill="#E42614"/>
<path d="M11 6.22643C8.36768 6.22643 6.22621 8.3679 6.22621 11.0002C6.22621 13.6324 8.36768 15.7737 11 15.7737C13.6323 15.7737 15.7737 13.6324 15.7737 11.0002C15.7737 8.3679 13.6323 6.22643 11 6.22643ZM11 14.1299C9.27415 14.1299 7.86996 12.7259 7.86996 11.0001C7.86996 9.27415 9.27404 7.87007 11 7.87007C12.7259 7.87007 14.13 9.27415 14.13 11.0001C14.13 12.7259 12.7258 14.1299 11 14.1299Z" fill="#E42614"/>
<path d="M15.9739 4.83264C15.6573 4.83264 15.3461 4.96086 15.1225 5.1855C14.8977 5.40905 14.7685 5.72027 14.7685 6.03806C14.7685 6.35486 14.8978 6.66597 15.1225 6.89061C15.346 7.11416 15.6573 7.24347 15.9739 7.24347C16.2917 7.24347 16.6019 7.11416 16.8265 6.89061C17.0511 6.66597 17.1794 6.35475 17.1794 6.03806C17.1794 5.72027 17.0511 5.40905 16.8265 5.1855C16.603 4.96086 16.2917 4.83264 15.9739 4.83264Z" fill="#E42614"/>
</svg>
