<svg width="21" height="21" viewBox="0 0 21 21" fill="none" xmlns="http://www.w3.org/2000/svg">
<path d="M6.62745 11.5285H8.38629V18.8438C8.38629 18.9883 8.50212 19.1053 8.64508 19.1053H11.6273C11.7702 19.1053 11.886 18.9883 11.886 18.8438V11.563H13.908C14.0394 11.563 14.1501 11.4633 14.1651 11.3314L14.4722 8.63822C14.4806 8.56412 14.4574 8.48992 14.4083 8.43433C14.3592 8.37869 14.2889 8.34685 14.2151 8.34685H11.8862V6.65865C11.8862 6.14974 12.1574 5.89168 12.6924 5.89168C12.7686 5.89168 14.2151 5.89168 14.2151 5.89168C14.3581 5.89168 14.4739 5.7746 14.4739 5.63022V3.15817C14.4739 3.01374 14.3581 2.89671 14.2151 2.89671H12.1165C12.1017 2.89598 12.0689 2.89478 12.0204 2.89478C11.6563 2.89478 10.3906 2.96699 9.39083 3.89622C8.28308 4.92595 8.43706 6.1589 8.47386 6.37267V8.34679H6.62745C6.48449 8.34679 6.36865 8.46382 6.36865 8.60825V11.267C6.36865 11.4114 6.48449 11.5285 6.62745 11.5285Z" fill="#E42614"/>
</svg>
