<svg width="141" height="110" viewBox="0 0 141 110" fill="none" xmlns="http://www.w3.org/2000/svg">
<mask id="mask0_98_1960" style="mask-type:alpha" maskUnits="userSpaceOnUse" x="0" y="0" width="141" height="110">
<path fill-rule="evenodd" clip-rule="evenodd" d="M79.6153 44.215C76.6216 44.4242 73.6279 44.9735 70.8992 45.7842C69.4422 46.2027 69.1507 46.2288 68.6474 45.915C66.5013 44.555 56.3282 44.0842 52.0625 45.1827C50.8173 45.4965 48.3005 46.1243 46.446 46.5427C42.7634 47.432 38.9749 48.7396 37.1203 49.812C35.5307 50.7273 33.5437 52.6889 32.643 54.2059C32.2456 54.8857 31.6892 56.298 31.4243 57.3443C31.0799 58.7566 30.7355 59.489 30.1261 60.0641C29.5168 60.6917 29.2518 61.2152 29.1194 62.2615C28.9604 63.386 28.7485 63.778 27.8742 64.6413C27.2648 65.1903 26.682 65.661 26.576 65.661C26.4701 65.661 26.0197 66.1584 25.5693 66.7595C24.3506 68.4074 24.589 70.8138 26.0991 71.8596C26.8409 72.383 26.7615 72.9059 25.9137 73.115C24.9334 73.3506 24.6966 73.958 24.6966 74.5596C24.6966 74.826 24.9815 74.7243 25.4092 74.5716C25.6958 74.4694 26.0466 74.3448 26.4187 74.2921C27.081 74.1873 27.346 74.5074 27.346 74.6904C27.346 74.8473 26.0213 75.2654 25.2265 75.3442C23.6899 75.5532 22.6285 76.1752 22.2576 77.3784C22.0192 78.2151 22.3636 80.046 22.814 80.229C22.9994 80.3077 24.2181 79.7061 25.4898 78.9215C27.6622 77.5874 29.3578 76.6459 29.6228 76.6459C29.6757 76.6459 29.8082 77.1167 29.8877 77.6661C30.0731 79.1566 31.0269 80.229 32.9344 81.1184C35.5572 82.3737 38.18 82.5828 43.8496 82.0338C51.4532 81.2753 77.39 80.4907 81.8143 80.8567C85.8415 81.1966 89.5772 81.5631 91.7757 81.8769C92.8355 82.0072 95.1671 82.1642 96.942 82.1907C100.015 82.2689 100.227 82.2168 102.267 81.4061C104.996 80.3338 106.48 79.2614 107.062 77.9534C107.327 77.3784 107.619 76.9076 107.698 76.9076C108.149 76.9076 109.791 77.8752 110.692 78.6598C111.222 79.1306 111.778 79.5226 111.937 79.5226C112.07 79.5226 112.732 78.6598 113.421 77.6135C114.852 75.3906 115.805 74.3182 116.653 74.0044C117.66 73.6123 117.316 73.298 115.673 73.115C113.659 72.8799 112.467 73.115 112.467 73.7692C112.467 74.4751 111.778 74.8677 110.613 74.8677C109.341 74.8411 109.023 74.6842 109.023 74.0304C109.023 73.5075 109.738 72.9841 110.506 72.9841C111.142 72.9841 113.713 71.7554 115.09 70.7872C116.309 69.9244 117.236 68.4595 117.236 67.4137C117.236 67.0472 116.997 66.4983 116.679 66.1584L116.15 65.5307L116.574 66.2366C117.527 67.7536 115.858 69.9505 112.6 71.4676C110.506 72.4352 110.48 72.4352 102.929 71.9644C100.36 71.8075 96.8628 71.3889 94.4515 70.9442C89.0206 69.9244 80.7814 69.4537 69.5478 69.4798H69.5394C60.2487 69.5319 60.1399 69.5324 49.5457 71.5458C46.4195 72.1474 45.4922 72.1995 39.4782 72.1995C35.6367 72.1995 32.1926 72.3043 31.2918 72.4612C29.2253 72.8538 28.1391 72.6181 26.8939 71.4936C24.9334 69.7675 25.0924 67.7276 27.2648 66.1057C28.3776 65.2429 28.4835 65.2429 28.4835 65.9749C28.51 67.5707 30.4441 70.1074 32.1661 70.8138C33.7027 71.4676 36.7229 71.5458 38.6834 71.0229C40.273 70.6043 40.485 70.6043 41.4652 70.9968C44.3265 72.1213 48.327 71.049 50.7909 68.4861C51.4002 67.8584 51.5857 67.7797 52.195 68.0154C53.2019 68.4074 55.4272 68.3292 57.7588 67.8584C59.6129 67.4919 59.9577 67.4919 61.5737 67.8584C64.5146 68.5122 66.1042 68.7999 67.031 68.7999C68.621 68.7999 72.5152 67.7536 74.0783 66.9164L75.5623 66.1057L77.3372 66.7861C79.9866 67.8318 82.3709 67.7797 85.8415 66.5504C87.2985 66.0275 88.6763 65.5568 88.9145 65.478C89.1796 65.3998 89.5772 65.7398 90.0541 66.4456C91.0342 67.9366 93.4714 69.4276 95.5647 69.8457C99.0353 70.5261 103.671 70.0026 104.704 68.826C105.102 68.3553 105.182 68.3553 106.877 69.1399C108.361 69.8457 108.917 69.9766 110.745 69.9766C112.441 69.9766 113.077 69.8457 114.004 69.375C115.328 68.6952 115.673 67.9888 115.461 66.4722C115.355 65.661 115.408 65.3998 115.673 65.3998C115.911 65.3738 115.858 65.2429 115.514 64.9812C115.063 64.6413 114.984 64.2753 114.984 62.1827C114.984 60.038 114.904 59.5933 114.189 58.2076C113.765 57.3443 112.838 56.0889 112.149 55.3826C110.586 53.8394 103.778 49.4196 100.943 48.1119C94.0016 44.9211 87.2193 43.6658 79.6153 44.215ZM79.2182 45.4442C78.9404 45.5255 78.5903 45.6304 78.2233 45.7407C77.6445 45.9142 77.0224 46.1009 76.5688 46.2288C75.2443 46.6212 74.7939 46.8042 67.5612 50.2304C63.5075 52.1394 61.6265 52.7676 60.0105 52.741C59.2686 52.7149 59.0832 52.6107 59.0832 52.2181C59.0832 51.4858 64.6736 48.635 68.3823 47.4842C73.0718 46.0196 77.3636 45.1042 79.4828 45.0519H80.5427L79.2182 45.4442ZM57.2286 45.4442C56.4074 45.6534 53.9967 47.0658 51.0028 49.0535C47.9826 51.0935 44.3795 53.1075 43.7701 53.1075C43.3462 53.1075 43.0548 52.558 43.0548 51.8258C43.0548 51.5642 43.6907 50.7796 44.459 50.0473C46.8434 47.8504 49.9431 46.3596 53.7844 45.6534C55.5065 45.3396 58.3946 45.1565 57.2286 45.4442ZM65.9183 46.0981C66.8989 46.255 67.6937 46.4642 67.6937 46.5688C67.6937 46.6473 67.0579 46.935 66.3159 47.2227C64.5146 47.8242 59.9308 50.2304 58.7653 51.1197C57.7318 51.9304 57.679 52.375 58.4738 53.1075C59.8252 54.3368 62.7392 53.6043 69.5478 50.2304C72.361 48.8419 74.1908 48.1831 74.974 47.9011C75.135 47.8431 75.2517 47.8011 75.3236 47.7719C75.6964 47.6209 75.9113 47.5407 76.3301 47.4058C76.7642 47.266 77.6065 46.9709 78.4889 46.6619L78.49 46.6617C79.5504 46.2902 80.6694 45.8986 81.2049 45.7319C82.1871 45.4266 86.5581 45.4442 86.5581 45.4442C92.1221 45.915 95.1671 46.4119 94.0544 46.8566C93.7629 46.9611 93.0209 47.0658 92.3851 47.0658C90.3451 47.1181 87.2193 47.9027 84.3845 49.1058C81.2582 50.4396 80.1455 51.2766 80.1455 52.3489C80.1455 53.866 81.9997 53.7612 89.1532 51.8258C94.8492 50.2827 95.5378 50.1781 98.267 50.335C102.426 50.5966 105.394 51.5642 108.493 53.6304C112.229 56.115 114.057 58.7826 114.057 61.6859C114.057 62.9934 113.951 63.3072 113.341 63.9089C111.884 65.269 110.533 65.6089 106.851 65.635C103.195 65.661 101.87 65.5041 96.0416 64.5105C91.246 63.6737 83.8279 63.0195 77.6287 62.8626L76.9538 62.8469C74.1295 62.7797 73.1336 62.7562 72.1413 62.8036C71.6 62.8297 71.0603 62.8766 70.2264 62.9496C69.9835 62.9705 69.7158 62.9939 69.4158 63.0195C67.9583 63.1503 64.4349 63.386 61.6001 63.5429C54.5527 63.9349 53.5198 64.0136 51.5327 64.3275C46.8434 65.0599 39.8227 65.8445 36.299 66.0536C35.5043 66.1057 34.1001 65.6876 32.4045 64.9552C31.0799 64.3796 30.8414 64.1445 30.444 63.1243C30.0202 62.0519 30.0202 61.895 30.4175 61.0582C30.656 60.5614 30.9739 60.1689 31.1064 60.1689C31.2123 60.1689 31.3978 60.7444 31.5038 61.4242C31.6627 62.7322 32.2721 63.8307 32.6165 63.4902C32.7224 63.386 32.6695 62.5487 32.5105 61.6338C32.0866 59.4103 32.1131 58.181 32.6165 56.5076C33.6762 53.0027 36.8289 50.2827 41.8891 48.5304C44.3795 47.6673 45.4392 47.4319 45.4392 47.7458C45.4392 47.8242 44.7239 48.5827 43.8496 49.4196C42.4984 50.7273 42.26 51.0935 42.26 51.9043C42.26 53.0288 43.0283 53.8921 44.0086 53.8921C44.9093 53.8921 46.7109 52.8718 51.6386 49.6027C55.6654 46.9611 58.5815 45.6534 60.7277 45.6534C60.8127 45.6534 60.902 45.6526 60.9981 45.6516C61.8002 45.6435 63.056 45.631 65.9183 46.0981ZM99.4589 48.6873C100.201 49.0011 100.81 49.3412 100.81 49.472C100.81 49.6027 99.2999 49.6812 97.4452 49.6812C94.1605 49.655 93.8954 49.6812 88.2787 51.1197C82.1856 52.6628 81.2049 52.8197 81.2049 52.2181C81.2049 51.2766 85.7882 49.2104 89.9744 48.2688C92.5176 47.6934 97.6839 47.9289 99.4589 48.6873ZM78.2112 64.3535C80.172 65.3738 81.9469 65.5568 83.8543 65.0073C85.709 64.4323 88.0933 64.1966 88.0933 64.5892C88.0933 65.478 82.7152 67.126 80.4635 66.8903C78.2909 66.6552 74.0255 64.4844 74.4496 63.8041C74.7939 63.3072 76.7013 63.569 78.2112 64.3535ZM84.3312 64.0397C84.6491 64.1445 84.6491 64.2227 84.2256 64.5365C83.2185 65.2429 78.9003 64.7195 78.6088 63.8307C78.5027 63.569 79.0059 63.5429 81.2049 63.6998C82.7152 63.8041 84.1194 63.9349 84.3312 64.0397ZM69.0182 64.0918C69.0182 64.4323 68.0116 64.9291 67.6937 64.7461C67.1107 64.3796 67.4286 63.8307 68.2234 63.8307C68.6739 63.8307 69.0182 63.9349 69.0182 64.0918ZM70.1837 63.9876C70.396 64.0658 70.8744 64.5365 70.7947 64.7461C70.7593 64.8389 70.9969 64.7972 71.2926 64.7456C71.6613 64.6809 72.1196 64.6007 72.2522 64.7461C72.4581 64.9698 71.6681 65.6058 71.2705 65.9259C71.1575 66.0171 71.0756 66.0828 71.0582 66.1057C70.5549 66.5765 65.574 66.9164 65.574 66.4722C65.574 66.4404 65.5608 66.3492 65.5428 66.2225C65.471 65.7246 65.3205 64.6773 65.574 64.5105C66.0772 64.1445 67.1123 65.0599 67.483 65.3998C67.6071 65.5098 67.7096 65.6277 67.8057 65.7382C68.1188 66.0989 68.3628 66.3799 69.0731 66.0593C69.6318 65.8086 69.5801 65.4562 69.4813 64.7821L69.4686 64.6935C69.3097 63.8307 69.4422 63.6998 70.1837 63.9876ZM30.0731 65.0334C30.0731 66.0275 30.7355 67.335 31.5303 67.9627C32.59 68.7734 34.471 68.7473 35.6632 67.8845C36.9879 66.943 37.5707 66.7334 39.3988 66.5765C41.3063 66.3935 41.8626 66.6291 41.5977 67.4659C40.9884 69.4276 38.6039 70.6303 35.4512 70.6303C32.7755 70.6303 30.7355 69.4537 29.7817 67.3611C29.3048 66.3414 29.1194 64.6153 29.4373 64.2753C29.7552 63.9876 30.0731 64.3796 30.0731 65.0334ZM61.8652 64.6153C61.8652 64.9291 60.0633 66.0797 58.5271 66.7334C57.0168 67.4137 53.9702 67.6489 52.4069 67.2307C50.8173 66.8121 49.1483 66.0015 49.1483 65.661C49.1483 65.3211 49.2542 65.3211 50.3934 65.7919C50.8968 66.0015 51.8771 66.1844 52.5659 66.1844C53.8113 66.1844 56.0367 65.3738 56.0367 64.903C56.0367 64.5626 56.9904 64.4323 59.6926 64.3796C60.9643 64.3796 61.8652 64.4583 61.8652 64.6153ZM63.9316 65.0334C63.9844 65.2951 64.2231 65.6876 64.4613 65.8706C64.7264 66.0536 64.7792 66.2887 64.6202 66.4196C64.3023 66.7334 61.8652 66.4456 61.8652 66.1057C61.8652 65.6876 63.2424 64.3275 63.5873 64.4323C63.7193 64.4844 63.9052 64.7461 63.9316 65.0334ZM114.852 65.818C115.117 67.0472 115.09 67.3611 114.719 67.9106C113.5 69.7675 109.5 69.7415 106.294 67.8845C104.545 66.8903 104.625 66.3153 106.48 66.5504C107.248 66.6291 108.414 66.943 109.049 67.2307C111.328 68.2505 113.368 67.7015 113.659 65.9749C114.03 63.8307 114.428 63.778 114.852 65.818ZM54.5791 64.8504C54.9504 65.452 51.6651 66.1318 51.1088 65.5828C50.8173 65.2951 51.0823 65.1381 52.354 64.903C53.9702 64.5892 54.3938 64.5892 54.5791 64.8504ZM90.9809 65.4259C91.9082 66.6813 94.4784 68.1723 96.5449 68.6691C98.5585 69.1399 101.102 69.0351 103.062 68.3813C103.619 68.1983 104.148 68.0935 104.201 68.1457C104.493 68.4074 103.804 68.826 102.479 69.218C98.5315 70.3431 93.1799 69.0351 90.7691 66.3153C90.0008 65.4259 89.6828 64.6153 90.1597 64.6153C90.2923 64.6153 90.6366 64.9812 90.9809 65.4259ZM93.314 65.1439C93.7381 65.7981 92.703 66.0536 91.9082 65.5307C91.3521 65.1903 91.2724 65.0334 91.5639 64.8504C92.0408 64.5626 92.9697 64.5949 93.314 65.1439ZM32.59 66.0536C33.4643 66.3935 34.4975 66.7073 34.9214 66.7073C35.3188 66.7073 35.6367 66.8121 35.6367 66.9164C35.6367 67.0212 35.3188 67.3089 34.9214 67.518C33.5437 68.2765 31.1593 67.335 30.7885 65.8967C30.6295 65.269 30.6825 65.269 32.59 66.0536ZM99.5402 65.9285C99.9637 66.295 98.267 66.6026 97.0217 66.4983C96.1208 66.4196 95.3804 65.9024 95.1686 65.5364C94.9035 65.0657 95.1423 65.0917 96.7582 65.2747C97.6855 65.3535 99.434 65.8242 99.5402 65.9285ZM113.527 65.7398C113.527 66.8643 111.196 67.6489 109.791 67.0212L108.891 66.6291L110.083 66.3935C110.745 66.2626 111.566 65.9749 111.937 65.7919C112.785 65.3211 113.527 65.2951 113.527 65.7398ZM74.5816 65.8967C74.5816 66.2887 70.8464 67.7015 69.2833 67.8845C67.1107 68.1457 60.8053 67.4137 60.8053 66.9164C60.8053 66.7595 61.0171 66.7334 61.2822 66.8382C62.1034 67.1781 68.3031 67.309 70.237 66.9951C71.2699 66.8382 72.6477 66.4722 73.2835 66.1844L73.3997 66.1339C74.2632 65.7564 74.4982 65.6537 74.5605 65.7168C74.5842 65.7408 74.5832 65.7877 74.5821 65.8518V65.8737L74.5816 65.8967ZM46.9759 66.2366C46.8963 66.4196 46.6314 66.6026 46.34 66.6552C46.075 66.7073 45.5982 67.0472 45.2803 67.3877C44.8299 67.9366 44.6444 67.9888 44.0616 67.7797C42.6309 67.2308 42.8429 66.4983 44.565 66.1844C46.2075 65.8706 47.0818 65.8967 46.9759 66.2366ZM49.1483 66.943C49.1483 67.0733 48.5124 67.5707 47.7706 68.0414C46.5254 68.826 46.1281 68.9303 44.194 69.0351C42.8164 69.0872 41.9951 69.009 41.9951 68.8521C41.9951 68.6952 42.578 68.643 43.5582 68.7212C44.9888 68.8521 45.0948 68.826 45.2537 68.2765C45.3332 67.9106 45.5717 67.7276 45.8896 67.7797C46.7109 67.9106 47.4527 67.518 47.7706 66.8121C48.0356 66.2626 48.168 66.2105 48.6184 66.4456C48.9098 66.6026 49.1483 66.8382 49.1483 66.943ZM103.142 66.7073C103.592 66.9951 103.989 67.335 103.989 67.4659C103.989 67.7015 101.658 68.4335 101.499 68.2505C101.287 67.9888 101.103 66.0593 101.395 66.0593C101.554 66.0593 102.665 66.4196 103.142 66.7073ZM94.9035 66.321C95.1158 66.4519 95.0345 67.0212 94.9284 67.0999C94.6902 67.335 93.6567 66.9951 93.6567 66.6813C93.6567 66.3674 94.4003 66.0072 94.9035 66.321ZM99.1425 68.0211C99.1425 68.3089 98.267 68.4861 98.108 68.4335C97.9221 68.3553 97.4452 68.2505 97.0481 68.1723C95.9618 67.9366 96.0696 67.1056 97.2884 67.1056C98.1624 67.0796 99.1425 67.6285 99.1425 68.0211ZM50.208 67.9888C50.208 68.8521 45.9161 70.892 44.088 70.892C42.9754 70.892 41.2003 70.4213 41.2003 70.1335C41.2003 70.0287 42.366 69.8457 43.7966 69.7415C46.0221 69.6106 46.5784 69.4798 48.0885 68.6952C49.9695 67.7015 50.208 67.6228 50.208 67.9888ZM71.0582 70.0026L71.0814 70.0047C73.1779 70.1862 73.2033 70.1882 72.9656 70.7872C72.436 72.1735 73.3633 72.7229 76.1981 72.7229C78.2645 72.7229 79.0857 72.2261 79.0857 70.9707V70.2904L82.0794 70.4734C83.6954 70.5782 86.6627 70.7612 88.623 70.866C90.5838 70.9968 92.9153 71.2846 93.7893 71.4936C94.6638 71.7027 96.2269 72.0426 97.2863 72.1995C98.6905 72.4352 99.4589 72.6969 100.174 73.2719C101.393 74.2134 103.274 74.3182 104.334 73.5075C104.864 73.0889 105.394 72.9841 106.877 72.9841H108.758L108.493 73.6644L108.456 73.7604C108.316 74.118 108.243 74.3083 108.291 74.4605C108.346 74.6331 108.557 74.7577 109.01 75.0225L109.102 75.0767C110.056 75.6783 111.619 75.7565 112.308 75.2597C112.547 75.0767 112.891 74.632 113.077 74.2921C113.395 73.6644 114.852 73.1676 114.852 73.6905C114.852 73.8474 112.308 77.3523 111.778 77.9273C111.725 77.98 111.222 77.7183 110.692 77.3523C109.129 76.306 106.93 75.4166 105.182 75.1289C102.32 74.6581 98.1872 74.5272 94.902 74.815C93.1271 74.9459 90.9809 75.1289 90.1333 75.2076L88.5966 75.3384L88.7819 74.0565C88.9145 72.9841 88.8617 72.6969 88.3848 72.2261C87.166 71.0229 85.709 71.7814 85.709 73.6384C85.709 74.2661 85.5764 74.8677 85.4175 74.9459C84.6755 75.4166 81.9733 75.3645 79.4036 74.8411C75.1118 73.9783 73.6279 73.8996 71.7204 74.423C70.82 74.6842 69.9983 74.815 69.9191 74.7368C69.8129 74.6581 69.9983 74.2921 70.2634 73.9262C70.9256 73.115 70.7667 71.8335 69.9983 71.2846C69.3097 70.8138 67.5876 70.7612 67.2433 71.2059C67.0843 71.3889 66.7664 72.1213 66.5013 72.8538C66.2362 73.5597 65.9183 74.2661 65.8127 74.3703C65.7065 74.5012 64.3821 74.4751 62.8981 74.3182C61.2294 74.1613 59.6662 74.1352 58.9507 74.2661C57.8116 74.5012 57.7318 74.4751 56.964 73.5857C56.4074 72.932 55.9305 72.6442 55.4008 72.6442C54.3938 72.6442 53.3872 73.2198 53.3872 73.7953C53.3872 74.0565 53.2811 74.3182 53.1755 74.3969C53.0693 74.4751 50.3934 74.5799 47.2673 74.6842C44.1675 74.7629 40.5645 74.8937 39.2928 74.9719C37.2263 75.1028 36.9614 75.0767 36.7229 74.606C36.0606 73.3506 33.3583 73.2198 32.59 74.3969C32.1661 75.0507 31.1328 75.5996 30.391 75.5996C29.8082 75.5996 26.2581 77.3784 24.6155 78.4768C23.9532 78.9476 23.3703 79.2614 23.3438 79.2088C23.2909 79.1827 23.1849 78.6859 23.0789 78.163C22.9199 77.2475 22.973 77.1427 23.7148 76.672C24.1651 76.4103 25.2779 76.0443 26.1786 75.8613C27.0794 75.7044 28.1391 75.3906 28.563 75.1815C29.1724 74.8677 29.2518 74.7107 29.0134 74.2921C27.346 73.6441 26.8177 73.336 28.8031 73.2521C29.0219 73.2427 29.3147 73.225 29.6836 73.2031L29.6858 73.2026H29.6874C31.3299 73.104 34.4776 72.9153 39.3193 72.9581C45.0153 73.0107 45.2803 73.0368 46.5254 73.6384C47.2143 74.0044 48.115 74.2921 48.4859 74.2921C49.1748 74.2921 51.7976 72.8011 51.7976 72.4091C51.7976 72.0165 52.9104 71.6766 56.5927 70.9968C59.8516 70.3952 63.0043 70.0814 67.8263 69.8984C68.4087 69.8718 69.8658 69.9244 71.0582 70.0026ZM77.1254 70.5261C77.6815 70.7872 78.0258 71.1277 78.0258 71.4676C78.0258 71.9123 77.8404 71.9644 75.9858 71.8857C73.7868 71.8075 73.4161 71.5197 74.2906 70.6569C74.9528 70.0026 75.9066 69.9505 77.1254 70.5261ZM69.654 72.0953L69.6978 72.138C70.1847 72.6176 70.1879 72.6207 69.4158 73.6123C69.0446 74.0831 68.7531 74.7368 68.7531 75.0246C68.7531 75.5214 68.912 75.5996 69.7601 75.5996C70.2898 75.5996 71.2699 75.4166 71.9327 75.1815C73.2835 74.7108 75.3236 74.7889 77.9202 75.4688C80.9667 76.2273 83.0331 76.3842 84.8081 75.9135L86.4509 75.4953L86.5566 73.9783C86.6891 72.1735 86.8745 71.9383 87.6164 72.6442C88.1197 73.1676 88.1461 73.2458 87.7226 74.0565C87.1396 75.2076 87.1924 75.7826 87.8815 75.9395C88.1994 76.0443 90.0805 75.9661 92.0408 75.8092C100.439 75.1289 105.314 75.5214 106.215 76.9598C106.824 77.9273 104.678 79.7322 101.605 80.8306C100.095 81.4062 99.5122 81.4583 96.7302 81.4061C94.9817 81.3535 92.703 81.2226 91.6965 81.0657C82.6355 79.863 79.6951 79.8104 58.1559 80.412C54.1556 80.5168 49.1483 80.7785 47.0288 81.0136C44.9093 81.2492 41.4652 81.4322 39.3457 81.4583C35.5572 81.4843 35.4777 81.4583 33.7557 80.6737C32.0337 79.863 30.603 78.4768 30.603 77.6396C30.603 77.0906 31.1859 76.672 32.378 76.2534C33.0404 76.0182 33.3848 75.7565 33.3848 75.4166C33.4113 74.632 33.7822 74.2921 34.6035 74.2921C35.2128 74.2921 35.5043 74.4751 35.8487 75.1028C36.0192 75.3999 36.1251 75.5845 36.2845 75.6919C36.5459 75.8686 36.9511 75.8379 38.0211 75.7565C38.9749 75.6783 42.8694 75.5214 46.6844 75.4427L53.6254 75.2597L53.9433 74.5012C54.2348 73.7692 54.8976 73.2458 55.4801 73.2458C55.639 73.2458 56.0631 73.7166 56.4338 74.2661L57.1229 75.2858L59.8252 75.1549C61.4147 75.0767 63.1104 75.1289 63.958 75.3118C65.6801 75.6783 66.6338 75.3118 67.0046 74.1613C67.6937 72.0165 67.9319 71.6766 68.5941 71.6766C68.939 71.6766 69.4422 71.8596 69.654 72.0953ZM50.4729 72.4091C50.4729 72.7751 48.5124 73.6905 48.0356 73.5857C47.5322 73.4554 47.4527 73.2719 47.7706 72.8272C48.0885 72.3304 50.4729 71.9644 50.4729 72.4091ZM102.532 72.9841C102.612 73.115 102.506 73.2458 102.294 73.2458C102.082 73.2458 101.817 73.115 101.738 72.9841C101.658 72.8272 101.764 72.7229 101.976 72.7229C102.188 72.7229 102.453 72.8272 102.532 72.9841ZM92.4648 72.2782C91.829 72.749 92.0941 73.8996 92.9153 74.1086C93.5247 74.2655 94.7171 73.6905 94.7171 73.2458C94.7171 72.8533 93.7101 71.9378 93.3129 71.9378C93.1271 71.9378 92.7563 72.0947 92.4648 72.2782ZM93.6837 73.115C93.6573 73.507 93.0478 73.4288 92.9153 73.0362C92.8361 72.8011 92.9681 72.6963 93.2332 72.7751C93.4983 72.8011 93.6837 72.958 93.6837 73.115ZM2.90448 67.7224C4.21693 67.7224 5.28089 66.6719 5.28089 65.3764C5.28089 64.0809 4.21693 63.0304 2.90448 63.0304C1.59203 63.0304 0.528076 64.0809 0.528076 65.3764C0.528076 66.6719 1.59203 67.7224 2.90448 67.7224ZM139.944 65.3764C139.944 66.6719 138.88 67.7224 137.567 67.7224C136.255 67.7224 135.191 66.6719 135.191 65.3764C135.191 64.0809 136.255 63.0304 137.567 63.0304C138.88 63.0304 139.944 64.0809 139.944 65.3764Z" fill="#E42614" stroke="#E42614" stroke-width="0.379147"/>
<path d="M3.85518 108.697C3.76717 108.697 3.69235 108.666 3.63075 108.605C3.56913 108.544 3.53833 108.466 3.53833 108.371V105.347C3.53833 105.252 3.56913 105.174 3.63075 105.113C3.69235 105.052 3.76717 105.021 3.85518 105.021H4.10603C4.31726 105.021 4.49769 104.921 4.64732 104.722C4.79694 104.522 4.91576 104.239 5.00378 103.874C5.09179 103.501 5.1578 103.053 5.20181 102.532C5.24582 102.002 5.26782 101.411 5.26782 100.759V98.0746C5.26782 97.9792 5.29861 97.901 5.36024 97.84C5.42187 97.779 5.49665 97.7488 5.58468 97.7488H11.5257C11.6225 97.7488 11.7017 97.779 11.7633 97.84C11.825 97.901 11.8557 97.9792 11.8557 98.0746V105.021H12.4763C12.573 105.021 12.6523 105.052 12.7139 105.113C12.7755 105.174 12.8063 105.252 12.8063 105.347V108.371C12.8063 108.458 12.7755 108.531 12.7139 108.592C12.6523 108.662 12.573 108.697 12.4763 108.697H11.0372C10.9404 108.697 10.8612 108.662 10.7996 108.592C10.7379 108.531 10.7071 108.458 10.7071 108.371V106.872H5.63749V108.371C5.63749 108.458 5.60226 108.531 5.53187 108.592C5.47024 108.662 5.39103 108.697 5.29423 108.697H3.85518ZM6.62766 105.021H9.75659V99.5995H7.30097V101.02C7.30097 102.019 7.24378 102.845 7.12934 103.496C7.0149 104.148 6.84771 104.656 6.62766 105.021Z" fill="#E42614"/>
<path d="M18.5453 107.002C17.7443 107.002 17.0534 106.872 16.4725 106.611C15.8916 106.351 15.4383 105.96 15.1127 105.438C14.787 104.908 14.611 104.243 14.5846 103.444C14.5758 103.07 14.5714 102.701 14.5714 102.336C14.5714 101.963 14.5758 101.585 14.5846 101.203C14.611 100.421 14.787 99.7647 15.1127 99.2345C15.4471 98.696 15.9048 98.292 16.4857 98.0224C17.0754 97.7529 17.7619 97.6184 18.5453 97.6184C19.3198 97.6184 19.9975 97.7529 20.5784 98.0224C21.1681 98.292 21.6302 98.696 21.9647 99.2345C22.2991 99.7647 22.4751 100.421 22.4928 101.203C22.5103 101.585 22.5192 101.963 22.5192 102.336C22.5192 102.701 22.5103 103.07 22.4928 103.444C22.4664 104.243 22.2903 104.908 21.9647 105.438C21.639 105.96 21.1857 106.351 20.6048 106.611C20.0239 106.872 19.3374 107.002 18.5453 107.002ZM18.5453 105.321C19.0557 105.321 19.4738 105.169 19.7995 104.865C20.1339 104.552 20.31 104.057 20.3276 103.379C20.3452 102.997 20.354 102.64 20.354 102.31C20.354 101.971 20.3452 101.615 20.3276 101.242C20.3188 100.79 20.2352 100.421 20.0767 100.134C19.9183 99.8471 19.7071 99.6386 19.443 99.5082C19.1878 99.369 18.8885 99.2997 18.5453 99.2997C18.202 99.2997 17.8984 99.369 17.6343 99.5082C17.3703 99.6386 17.1591 99.8471 17.0006 100.134C16.851 100.421 16.7674 100.79 16.7498 101.242C16.741 101.615 16.7366 101.971 16.7366 102.31C16.7366 102.64 16.741 102.997 16.7498 103.379C16.7762 104.057 16.9522 104.552 17.2779 104.865C17.6035 105.169 18.026 105.321 18.5453 105.321Z" fill="#E42614"/>
<path d="M25.148 106.872C25.0513 106.872 24.972 106.842 24.9104 106.781C24.8488 106.72 24.818 106.642 24.818 106.546V98.0746C24.818 97.9792 24.8488 97.901 24.9104 97.84C24.972 97.779 25.0513 97.7488 25.148 97.7488H31.3267C31.4235 97.7488 31.5027 97.779 31.5643 97.84C31.626 97.901 31.6568 97.9792 31.6568 98.0746V99.1824C31.6568 99.2695 31.626 99.343 31.5643 99.404C31.5027 99.465 31.4235 99.4952 31.3267 99.4952H26.9171V101.32H28.9635C29.9845 101.32 30.7854 101.567 31.3663 102.063C31.956 102.558 32.2509 103.227 32.2509 104.07C32.2509 104.444 32.176 104.8 32.0264 105.139C31.8856 105.477 31.6788 105.777 31.4059 106.038C31.133 106.299 30.7898 106.503 30.3761 106.65C29.9713 106.798 29.5004 106.872 28.9635 106.872H25.148ZM26.9171 105.347H28.7655C29.0471 105.347 29.2847 105.286 29.4784 105.165C29.6808 105.043 29.8305 104.882 29.9273 104.682C30.0329 104.483 30.0857 104.27 30.0857 104.044C30.0857 103.696 29.9713 103.405 29.7424 103.171C29.5224 102.936 29.1968 102.819 28.7655 102.819H26.9171V105.347Z" fill="#E42614"/>
<path d="M34.4334 106.872C34.3367 106.872 34.2574 106.842 34.1958 106.781C34.1342 106.72 34.1034 106.642 34.1034 106.546V98.0746C34.1034 97.9792 34.1342 97.901 34.1958 97.84C34.2574 97.779 34.3367 97.7488 34.4334 97.7488H38.0377C38.7506 97.7488 39.3667 97.8572 39.886 98.0746C40.4141 98.292 40.8233 98.622 41.1138 99.0651C41.4131 99.4994 41.5627 100.043 41.5627 100.694C41.5627 101.355 41.4131 101.902 41.1138 102.336C40.8233 102.762 40.4141 103.079 39.886 103.288C39.3667 103.496 38.7506 103.601 38.0377 103.601H36.2686V106.546C36.2686 106.642 36.2378 106.72 36.1761 106.781C36.1145 106.842 36.0353 106.872 35.9385 106.872H34.4334ZM36.229 101.985H37.9717C38.4205 101.985 38.7682 101.876 39.0146 101.659C39.2699 101.441 39.3975 101.116 39.3975 100.681C39.3975 100.299 39.2831 99.9863 39.0542 99.7429C38.8342 99.4994 38.4733 99.3779 37.9717 99.3779H36.229V101.985Z" fill="#E42614"/>
<path d="M43.8994 106.872C43.8026 106.872 43.7234 106.842 43.6617 106.781C43.6001 106.72 43.5693 106.642 43.5693 106.546V98.0746C43.5693 97.9792 43.6001 97.901 43.6617 97.84C43.7234 97.779 43.8026 97.7488 43.8994 97.7488H49.88C49.9768 97.7488 50.0561 97.779 50.1177 97.84C50.1793 97.901 50.2101 97.9792 50.2101 98.0746V99.1173C50.2101 99.2043 50.1793 99.2778 50.1177 99.3388C50.0561 99.3998 49.9768 99.4301 49.88 99.4301H45.6025V101.476H49.5896C49.6864 101.476 49.7656 101.507 49.8272 101.567C49.8888 101.628 49.9196 101.707 49.9196 101.802V102.767C49.9196 102.854 49.8888 102.927 49.8272 102.988C49.7656 103.049 49.6864 103.079 49.5896 103.079H45.6025V105.191H49.9856C50.0825 105.191 50.1616 105.221 50.2233 105.282C50.2849 105.343 50.3157 105.421 50.3157 105.517V106.546C50.3157 106.642 50.2849 106.72 50.2233 106.781C50.1616 106.842 50.0825 106.872 49.9856 106.872H43.8994Z" fill="#E42614"/>
<path d="M58.4823 106.872C58.3857 106.872 58.3065 106.842 58.2447 106.781C58.1834 106.72 58.1523 106.642 58.1523 106.546V99.5604H55.7495C55.6613 99.5604 55.5868 99.5302 55.525 99.4692C55.4632 99.4082 55.4326 99.3347 55.4326 99.2476V98.0746C55.4326 97.9792 55.4632 97.901 55.525 97.84C55.5868 97.779 55.6613 97.7488 55.7495 97.7488H62.6674C62.7646 97.7488 62.8433 97.779 62.9051 97.84C62.9669 97.901 62.9975 97.9792 62.9975 98.0746V99.2476C62.9975 99.3347 62.9669 99.4082 62.9051 99.4692C62.8433 99.5302 62.7646 99.5604 62.6674 99.5604H60.2778V106.546C60.2778 106.642 60.2472 106.72 60.1854 106.781C60.1236 106.842 60.0444 106.872 59.9478 106.872H58.4823Z" fill="#E42614"/>
<path d="M64.3864 106.872C64.3072 106.872 64.2412 106.846 64.1883 106.794C64.1355 106.733 64.1091 106.668 64.1091 106.598C64.1091 106.555 64.1134 106.516 64.1223 106.481L67.2645 98.1007C67.2909 98.0053 67.3437 97.9224 67.4229 97.853C67.5021 97.7837 67.612 97.7488 67.753 97.7488H69.4428C69.5838 97.7488 69.6937 97.7837 69.7729 97.853C69.8521 97.9224 69.9049 98.0053 69.9313 98.1007L73.0735 106.481C73.0824 106.516 73.0867 106.555 73.0867 106.598C73.0867 106.668 73.0603 106.733 73.0074 106.794C72.9546 106.846 72.8886 106.872 72.8094 106.872H71.4364C71.3044 106.872 71.2077 106.842 71.1459 106.781C71.0841 106.72 71.0445 106.663 71.0271 106.611L70.4594 105.152H66.7364L66.1687 106.611C66.1513 106.663 66.1116 106.72 66.0499 106.781C65.9881 106.842 65.8914 106.872 65.7594 106.872H64.3864ZM67.2249 103.47H69.9577L68.5979 99.7168L67.2249 103.47Z" fill="#E42614"/>
<path d="M82.1276 107.002C81.3001 107.002 80.5961 106.868 80.0152 106.598C79.4433 106.32 78.9986 105.921 78.6818 105.399C78.3649 104.869 78.1891 104.226 78.1537 103.47C78.1447 103.114 78.1405 102.732 78.1405 102.323C78.1405 101.915 78.1447 101.524 78.1537 101.15C78.1891 100.403 78.3649 99.7689 78.6818 99.2476C79.0076 98.7174 79.4607 98.3133 80.0416 98.0355C80.6225 97.7576 81.318 97.6184 82.1276 97.6184C82.7175 97.6184 83.254 97.6924 83.7383 97.84C84.2225 97.9875 84.6402 98.2007 84.9925 98.4786C85.3447 98.7565 85.6172 99.0823 85.811 99.4561C86.0048 99.8299 86.1104 100.247 86.1279 100.707C86.1279 100.785 86.0972 100.851 86.0354 100.903C85.9826 100.955 85.9166 100.981 85.8374 100.981H84.3324C84.2267 100.981 84.1433 100.955 84.0815 100.903C84.0197 100.851 83.9717 100.764 83.9363 100.642C83.8043 100.13 83.584 99.7777 83.2762 99.5864C82.9683 99.3951 82.5854 99.2997 82.1276 99.2997C81.5821 99.2997 81.1506 99.4472 80.8338 99.7428C80.5169 100.038 80.3453 100.529 80.3189 101.216C80.2925 101.928 80.2925 102.658 80.3189 103.405C80.3453 104.092 80.5169 104.582 80.8338 104.878C81.1506 105.173 81.5821 105.321 82.1276 105.321C82.5854 105.321 82.9683 105.226 83.2762 105.034C83.593 104.835 83.8132 104.483 83.9363 103.979C83.9717 103.848 84.0197 103.761 84.0815 103.718C84.1433 103.666 84.2267 103.64 84.3324 103.64H85.8374C85.9166 103.64 85.9826 103.666 86.0354 103.718C86.0972 103.77 86.1279 103.835 86.1279 103.913C86.1104 104.374 86.0048 104.791 85.811 105.165C85.6172 105.538 85.3447 105.864 84.9925 106.142C84.6402 106.42 84.2225 106.633 83.7383 106.781C83.254 106.928 82.7175 107.002 82.1276 107.002Z" fill="#E42614"/>
<path d="M88.6013 106.872C88.5131 106.872 88.4339 106.842 88.3637 106.781C88.3019 106.72 88.2712 106.642 88.2712 106.546V98.0746C88.2712 97.9792 88.3019 97.901 88.3637 97.84C88.4339 97.779 88.5131 97.7488 88.6013 97.7488H89.8291C89.9611 97.7488 90.0578 97.7837 90.1196 97.853C90.1898 97.9224 90.2384 97.9745 90.2648 98.0094L92.694 102.428L95.1496 98.0094C95.167 97.9745 95.2066 97.9224 95.2684 97.853C95.3387 97.7837 95.4401 97.7488 95.5721 97.7488H96.7999C96.8965 97.7488 96.9757 97.779 97.0375 97.84C97.0993 97.901 97.13 97.9792 97.13 98.0746V106.546C97.13 106.642 97.0993 106.72 97.0375 106.781C96.9757 106.842 96.8965 106.872 96.7999 106.872H95.4533C95.3651 106.872 95.2906 106.842 95.2288 106.781C95.167 106.72 95.1364 106.642 95.1364 106.546V101.281L93.4597 104.383C93.4159 104.461 93.3583 104.53 93.2881 104.591C93.2179 104.652 93.1254 104.682 93.0109 104.682H92.3903C92.2757 104.682 92.1833 104.652 92.1131 104.591C92.0429 104.53 91.9853 104.461 91.9415 104.383L90.2648 101.281V106.546C90.2648 106.642 90.2342 106.72 90.1724 106.781C90.1106 106.842 90.0361 106.872 89.9479 106.872H88.6013Z" fill="#E42614"/>
<path d="M99.2069 106.872C99.1277 106.872 99.0617 106.846 99.0089 106.794C98.9561 106.733 98.9297 106.668 98.9297 106.598C98.9297 106.555 98.9344 106.516 98.9429 106.481L102.085 98.1007C102.111 98.0053 102.164 97.9224 102.243 97.853C102.323 97.7837 102.433 97.7488 102.574 97.7488H104.263C104.404 97.7488 104.514 97.7837 104.593 97.853C104.673 97.9224 104.725 98.0053 104.752 98.1007L107.894 106.481C107.903 106.516 107.907 106.555 107.907 106.598C107.907 106.668 107.881 106.733 107.828 106.794C107.775 106.846 107.709 106.872 107.63 106.872H106.257C106.125 106.872 106.028 106.842 105.966 106.781C105.905 106.72 105.866 106.663 105.848 106.611L105.28 105.152H101.557L100.989 106.611C100.972 106.663 100.932 106.72 100.87 106.781C100.809 106.842 100.712 106.872 100.58 106.872H99.2069ZM102.045 103.47H104.778L103.418 99.7168L102.045 103.47Z" fill="#E42614"/>
<path d="M114.985 106.872C114.897 106.872 114.823 106.842 114.761 106.781C114.699 106.72 114.668 106.642 114.668 106.546V103.614C114.527 103.735 114.347 103.839 114.127 103.927C113.907 104.005 113.665 104.066 113.401 104.109C113.146 104.144 112.89 104.161 112.635 104.161C111.526 104.161 110.704 103.896 110.167 103.366C109.638 102.836 109.374 102.037 109.374 100.968V98.0746C109.374 97.9792 109.405 97.901 109.467 97.84C109.529 97.779 109.603 97.7488 109.691 97.7488H111.143C111.24 97.7488 111.319 97.779 111.381 97.84C111.443 97.901 111.474 97.9792 111.474 98.0746V100.877C111.474 101.346 111.592 101.694 111.83 101.919C112.068 102.145 112.473 102.258 113.045 102.258C113.212 102.258 113.388 102.245 113.573 102.219C113.758 102.184 113.933 102.132 114.101 102.063C114.268 101.993 114.404 101.898 114.51 101.776C114.616 101.655 114.668 101.502 114.668 101.32V98.0746C114.668 97.9792 114.699 97.901 114.761 97.84C114.823 97.779 114.897 97.7488 114.985 97.7488H116.438C116.534 97.7488 116.613 97.779 116.675 97.84C116.737 97.901 116.768 97.9792 116.768 98.0746V106.546C116.768 106.642 116.737 106.72 116.675 106.781C116.613 106.842 116.534 106.872 116.438 106.872H114.985Z" fill="#E42614"/>
<path d="M119.758 106.872C119.662 106.872 119.582 106.842 119.521 106.781C119.459 106.72 119.428 106.642 119.428 106.546V98.0746C119.428 97.9792 119.459 97.901 119.521 97.84C119.582 97.779 119.662 97.7488 119.758 97.7488H121.197C121.294 97.7488 121.373 97.779 121.435 97.84C121.497 97.901 121.527 97.9792 121.527 98.0746V101.333H125.105V98.0746C125.105 97.9792 125.136 97.901 125.197 97.84C125.259 97.779 125.338 97.7488 125.435 97.7488H126.874C126.971 97.7488 127.05 97.779 127.112 97.84C127.174 97.901 127.204 97.9792 127.204 98.0746V106.546C127.204 106.642 127.174 106.72 127.112 106.781C127.05 106.842 126.971 106.872 126.874 106.872H125.435C125.338 106.872 125.259 106.842 125.197 106.781C125.136 106.72 125.105 106.642 125.105 106.546V103.184H121.527V106.546C121.527 106.642 121.497 106.72 121.435 106.781C121.373 106.842 121.294 106.872 121.197 106.872H119.758Z" fill="#E42614"/>
<path d="M133.493 107.002C132.692 107.002 132.001 106.872 131.42 106.611C130.839 106.351 130.386 105.96 130.06 105.438C129.734 104.908 129.559 104.243 129.532 103.444C129.523 103.07 129.519 102.701 129.519 102.336C129.519 101.963 129.523 101.585 129.532 101.203C129.559 100.421 129.734 99.7647 130.06 99.2345C130.394 98.696 130.852 98.292 131.433 98.0224C132.023 97.7529 132.709 97.6184 133.493 97.6184C134.267 97.6184 134.945 97.7529 135.526 98.0224C136.115 98.292 136.577 98.696 136.912 99.2345C137.246 99.7647 137.422 100.421 137.44 101.203C137.458 101.585 137.467 101.963 137.467 102.336C137.467 102.701 137.458 103.07 137.44 103.444C137.414 104.243 137.237 104.908 136.912 105.438C136.586 105.96 136.133 106.351 135.552 106.611C134.971 106.872 134.285 107.002 133.493 107.002ZM133.493 105.321C134.003 105.321 134.421 105.169 134.747 104.865C135.081 104.552 135.257 104.057 135.275 103.379C135.293 102.997 135.302 102.64 135.302 102.31C135.302 101.971 135.293 101.615 135.275 101.242C135.266 100.79 135.183 100.421 135.024 100.134C134.866 99.8471 134.655 99.6386 134.391 99.5082C134.135 99.369 133.836 99.2997 133.493 99.2997C133.15 99.2997 132.846 99.369 132.582 99.5082C132.318 99.6386 132.107 99.8471 131.948 100.134C131.798 100.421 131.715 100.79 131.697 101.242C131.688 101.615 131.684 101.971 131.684 102.31C131.684 102.64 131.688 102.997 131.697 103.379C131.724 104.057 131.9 104.552 132.225 104.865C132.551 105.169 132.973 105.321 133.493 105.321Z" fill="#E42614"/>
<path d="M13.2323 52.3479C13.1627 52.4522 13.063 52.5221 12.9332 52.558C12.8103 52.5831 12.6906 52.5575 12.5741 52.4819L2.24667 45.7832C2.13016 45.7076 2.05919 45.6092 2.03376 45.4879C2.0153 45.3562 2.04086 45.238 2.11046 45.1335L3.08136 43.6747C3.18576 43.5179 3.30469 43.4303 3.43814 43.4121C3.57856 43.3835 3.68039 43.3671 3.74364 43.3633L11.0507 43.971L7.60637 37.5599C7.5779 37.5115 7.54569 37.4232 7.50968 37.295C7.48058 37.1564 7.51828 37.0087 7.62269 36.8519L8.59358 35.3931C8.6701 35.2781 8.7698 35.2081 8.89269 35.183C9.01558 35.1579 9.13524 35.1831 9.25174 35.2587L19.5792 41.9576C19.6957 42.0332 19.7666 42.1316 19.7921 42.2529C19.8175 42.3742 19.7919 42.4924 19.7154 42.6074L18.6505 44.2073C18.5809 44.3118 18.4847 44.3766 18.3618 44.4018C18.239 44.4268 18.1193 44.4016 18.0028 44.326L11.5839 40.1624L14.0395 44.6072C14.1 44.7213 14.1395 44.8443 14.158 44.976C14.1764 45.1077 14.1404 45.2416 14.0499 45.3775L13.5593 46.1147C13.4688 46.2507 13.3586 46.3364 13.2288 46.372C13.099 46.4075 12.969 46.4205 12.8389 46.411L7.73158 45.9501L14.1505 50.1137C14.267 50.1893 14.338 50.2878 14.3634 50.409C14.3888 50.5303 14.3667 50.6432 14.2971 50.7478L13.2323 52.3479Z" fill="#E42614"/>
<path d="M23.8725 37.3763C23.7687 37.4681 23.6541 37.5107 23.5289 37.504C23.4035 37.4972 23.2944 37.4426 23.2013 37.3401L14.9524 28.2569C14.8594 28.1544 14.8163 28.0413 14.8231 27.9177C14.83 27.794 14.8852 27.6862 14.9891 27.5944L21.4014 21.9191C21.5053 21.8273 21.6198 21.7847 21.7451 21.7915C21.8704 21.7982 21.9795 21.8528 22.0726 21.9553L23.0879 23.0732C23.1725 23.1664 23.2114 23.2748 23.2045 23.3985C23.1977 23.5222 23.1424 23.6299 23.0385 23.7218L18.4522 27.7809L20.4446 29.9748L24.7195 26.1914C24.8234 26.0995 24.9379 26.0569 25.0632 26.0637C25.1885 26.0704 25.2976 26.1251 25.3907 26.2275L26.3298 27.2616C26.4144 27.3548 26.4533 27.4632 26.4464 27.5869C26.4396 27.7106 26.3843 27.8183 26.2805 27.9102L22.0055 31.6937L24.0614 33.9575L28.761 29.7982C28.8648 29.7063 28.9794 29.6637 29.1046 29.6705C29.23 29.6772 29.3391 29.7319 29.4322 29.8343L30.4347 30.9383C30.5278 31.0407 30.5709 31.1538 30.5641 31.2775C30.5573 31.4012 30.5019 31.509 30.3981 31.6008L23.8725 37.3763Z" fill="#E42614"/>
<path d="M39.0933 25.8802C38.0439 26.4368 37.0521 26.7427 36.1181 26.7977C35.1893 26.8359 34.3384 26.6338 33.5654 26.1916C32.7975 25.7324 32.1389 25.0378 31.5896 24.1077C31.3204 23.6397 31.039 23.1357 30.745 22.5956C30.4511 22.0555 30.1778 21.54 29.925 21.0492C29.4546 20.1056 29.2434 19.202 29.2915 18.3386C29.3507 17.4692 29.6613 16.6653 30.2234 15.9269C30.7906 15.1715 31.5878 14.5214 32.615 13.9766C33.4412 13.5384 34.2239 13.2582 34.9631 13.136C35.7023 13.0138 36.377 13.011 36.9872 13.1277C37.5914 13.2333 38.1132 13.4253 38.5524 13.7037C38.9916 13.982 39.3158 14.3001 39.5249 14.6579C39.5789 14.7571 39.5934 14.863 39.5684 14.9757C39.5374 15.0774 39.4661 15.1578 39.3544 15.217L37.2778 16.3185C37.1661 16.3777 37.0648 16.403 36.9739 16.3944C36.894 16.38 36.8078 16.3405 36.7151 16.276C36.529 16.1191 36.2927 15.9887 36.006 15.8851C35.7246 15.7645 35.3997 15.7096 35.0315 15.7203C34.6632 15.7309 34.2446 15.8607 33.7757 16.1093C33.0723 16.4824 32.6131 16.9603 32.3979 17.5432C32.1939 18.1201 32.3001 18.8307 32.7165 19.6751C33.1989 20.6407 33.7237 21.6052 34.2911 22.5684C34.7925 23.4103 35.3517 23.9091 35.9687 24.0647C36.597 24.2144 37.2627 24.1028 37.9661 23.7297C38.4239 23.4869 38.7894 23.1936 39.0627 22.8498C39.3412 22.4891 39.4935 22.0816 39.5197 21.6274C39.5459 21.1732 39.415 20.6816 39.127 20.1526L38.9021 19.7393L37.0767 20.7074C36.965 20.7667 36.8491 20.7784 36.729 20.7427C36.6028 20.696 36.5098 20.6175 36.4498 20.5073L35.874 19.4492C35.8079 19.3279 35.793 19.208 35.8292 19.0894C35.8653 18.9708 35.9393 18.8819 36.0509 18.8227L40.154 16.6465C40.2768 16.5814 40.3983 16.5666 40.5184 16.6023C40.6385 16.6381 40.7316 16.7165 40.7976 16.8378L41.7784 18.6398C42.2942 19.5877 42.523 20.5103 42.4646 21.4077C42.4174 22.2991 42.102 23.1339 41.5184 23.9122C40.94 24.6735 40.1317 25.3295 39.0933 25.8802Z" fill="#E42614"/>
<path d="M47.9026 20.999C47.7919 21.026 47.6905 21.012 47.5984 20.9571C47.5034 20.89 47.4436 20.8079 47.4194 20.7107C47.4042 20.65 47.3967 20.5938 47.3969 20.5422L48.8621 7.756C48.8657 7.61336 48.9107 7.48001 48.9971 7.35583C49.0836 7.2317 49.2253 7.14563 49.4222 7.09766L51.7848 6.52233C51.9817 6.47442 52.1476 6.48552 52.2826 6.55575C52.4177 6.62597 52.5203 6.7234 52.5907 6.848L59.9113 17.4947C59.9356 17.5403 59.9557 17.5935 59.971 17.6542C59.9953 17.7514 59.981 17.8515 59.9282 17.9545C59.8728 18.0454 59.7893 18.1043 59.679 18.1312L57.7593 18.5987C57.5745 18.6437 57.4288 18.6341 57.321 18.57C57.2138 18.506 57.1388 18.4405 57.0961 18.3736L55.7922 16.5261L50.5871 17.7936L50.3034 20.0277C50.297 20.1066 50.2613 20.1991 50.1965 20.3051C50.1316 20.4111 50.0068 20.4865 49.8223 20.5315L47.9026 20.999ZM50.6827 15.2768L54.5037 14.3463L51.291 9.56146L50.6827 15.2768Z" fill="#E42614"/>
<path d="M72.1255 16.9162C71.9871 16.8987 71.8799 16.841 71.8028 16.743C71.7262 16.645 71.6966 16.5278 71.7141 16.3913L73.2814 4.29069C73.2989 4.15417 73.3575 4.04803 73.4568 3.97226C73.5561 3.89649 73.6749 3.86733 73.8132 3.88478L79.4136 4.59166C80.4571 4.72335 81.2931 4.98018 81.9205 5.36212C82.5484 5.74409 82.984 6.22794 83.2275 6.8137C83.4836 7.40103 83.5644 8.06082 83.4694 8.79302C83.4102 9.25226 83.2697 9.64451 83.049 9.96976C82.8404 10.2966 82.5959 10.5559 82.3155 10.7476C82.0477 10.9408 81.7937 11.079 81.5529 11.1621C82.0145 11.4474 82.3936 11.8737 82.6904 12.441C83.002 12.9974 83.1118 13.6294 83.0199 14.3368C82.9186 15.1186 82.6545 15.779 82.2268 16.3179C81.799 16.8568 81.2186 17.2439 80.4856 17.4794C79.7521 17.7148 78.8892 17.7698 77.8959 17.6445L72.1255 16.9162ZM74.9344 15.057L77.8198 15.4211C78.4356 15.4989 78.9225 15.39 79.2805 15.0946C79.6397 14.7868 79.8498 14.3971 79.9111 13.9254C79.9734 13.4414 79.8625 13.0174 79.5773 12.6535C79.3064 12.2788 78.8692 12.0533 78.2656 11.9771L75.3806 11.613L74.9344 15.057ZM75.6579 9.4721L78.3733 9.81482C78.9642 9.88942 79.4226 9.80221 79.749 9.55327C80.0891 9.2935 80.2892 8.93399 80.3483 8.4748C80.408 8.01562 80.3045 7.63046 80.0378 7.31933C79.7859 6.99736 79.3645 6.7991 78.7736 6.72455L76.0581 6.38183L75.6579 9.4721Z" fill="#E42614"/>
<path d="M92.5425 21.1376C91.509 20.724 90.6736 20.1938 90.0367 19.5473C89.4046 18.8892 89.0223 18.1218 88.8897 17.2453C88.7619 16.3572 88.9246 15.3623 89.3771 14.2608L92.2911 7.16461C92.344 7.0371 92.4279 6.9492 92.543 6.90093C92.6587 6.85265 92.7812 6.85437 92.9106 6.90609L94.8307 7.67473C94.9601 7.72645 95.0488 7.80934 95.0979 7.92341C95.147 8.03752 95.1449 8.15832 95.0927 8.28588L92.1855 15.3646C91.8328 16.2227 91.7768 16.9427 92.016 17.5246C92.2558 18.1066 92.7458 18.5457 93.4857 18.8418C94.2139 19.1333 94.8693 19.1526 95.4518 18.8997C96.0342 18.6468 96.5016 18.0914 96.8544 17.2334L99.7615 10.1546C99.8138 10.027 99.8977 9.93912 100.013 9.89089C100.141 9.84731 100.263 9.84903 100.38 9.89605L102.319 10.6717C102.436 10.7188 102.519 10.7993 102.568 10.9134C102.617 11.0274 102.615 11.1483 102.563 11.2758L99.6485 18.372C99.1959 19.4735 98.6108 20.2991 97.8926 20.8488C97.1791 21.3868 96.3696 21.6769 95.4629 21.7192C94.5614 21.7499 93.5881 21.5561 92.5425 21.1376Z" fill="#E42614"/>
<path d="M103.4 25.7515C103.286 25.6714 103.219 25.5702 103.199 25.448C103.178 25.3258 103.209 25.2087 103.29 25.0969L110.486 15.1796C110.567 15.0677 110.67 15.0016 110.793 14.9815C110.917 14.9612 111.036 14.9912 111.149 15.0713L112.864 16.2845C112.978 16.3646 113.045 16.4658 113.065 16.588C113.086 16.7102 113.056 16.8272 112.974 16.9391L106.985 25.1934L111.776 28.5813C111.89 28.6615 111.956 28.7627 111.977 28.8849C111.997 29.0071 111.967 29.1241 111.886 29.236L110.956 30.5176C110.875 30.6295 110.772 30.6956 110.649 30.7157C110.525 30.736 110.406 30.706 110.293 30.6258L103.4 25.7515Z" fill="#E42614"/>
<path d="M114.164 33.5012C114.071 33.3983 114.028 33.2851 114.036 33.1615C114.043 33.0378 114.099 32.9303 114.203 32.8388L123.434 24.7286C123.538 24.6371 123.653 24.5949 123.778 24.6021C123.903 24.6094 124.013 24.6644 124.105 24.7672L125.445 26.2532C125.538 26.356 125.58 26.4692 125.573 26.5929C125.566 26.7166 125.51 26.8242 125.406 26.9156L122.168 29.7604L128.095 29.7288C128.185 29.7163 128.296 29.7271 128.429 29.7614C128.58 29.7966 128.723 29.889 128.857 30.0385L130.387 31.7349C130.463 31.819 130.493 31.9182 130.477 32.0325C130.471 32.1385 130.429 32.2248 130.354 32.2913C130.287 32.3495 130.214 32.3808 130.133 32.3849L122.596 32.55L121.369 40.5619C121.365 40.6325 121.325 40.7012 121.25 40.7677C121.174 40.8342 121.077 40.8685 120.961 40.8707C120.853 40.8645 120.762 40.8194 120.686 40.7353L119.106 38.9828C118.954 38.8146 118.878 38.6552 118.878 38.5045C118.878 38.3538 118.879 38.252 118.883 38.199L119.725 31.9065L116.175 35.0258C116.071 35.1173 115.956 35.1594 115.831 35.1523C115.705 35.1451 115.596 35.0901 115.504 34.9873L114.164 33.5012Z" fill="#E42614"/>
<path d="M123.562 43.7938C123.509 43.6943 123.498 43.5937 123.53 43.4923C123.573 43.3851 123.639 43.3081 123.729 43.2613C123.785 43.2321 123.838 43.2113 123.889 43.1991L136.812 41.5167C136.953 41.4857 137.095 41.4966 137.238 41.5495C137.381 41.6023 137.499 41.7173 137.594 41.8943L138.73 44.0189C138.825 44.1959 138.854 44.3576 138.817 44.5039C138.781 44.6502 138.71 44.7721 138.604 44.8695L129.905 54.4525C129.866 54.4869 129.819 54.5187 129.763 54.5479C129.673 54.5948 129.572 54.6053 129.458 54.5797C129.355 54.5484 129.276 54.4828 129.224 54.3832L128.301 52.6571C128.212 52.4913 128.186 52.349 128.223 52.2306C128.26 52.1123 128.306 52.0246 128.362 51.9674L129.863 50.2726L127.361 45.5919L125.096 45.8594C125.017 45.8723 124.918 45.8604 124.798 45.8239C124.678 45.7873 124.574 45.686 124.485 45.52L123.562 43.7938ZM129.858 45.076L131.695 48.5118L135.623 44.2793L129.858 45.076Z" fill="#E42614"/>
</mask>
<g mask="url(#mask0_98_1960)">
<rect x="-136.893" y="-20.625" width="301.165" height="202.125" fill="#F8F8F8"/>
</g>
</svg>
