<svg width="103" height="80" viewBox="0 0 103 80" fill="none" xmlns="http://www.w3.org/2000/svg">
<g clip-path="url(#clip0_224_2)">
<path fill-rule="evenodd" clip-rule="evenodd" d="M58.1587 32.1563C55.9718 32.3084 53.7849 32.7079 51.7916 33.2975C50.7273 33.6019 50.5143 33.6209 50.1467 33.3926C48.5789 32.4036 41.1475 32.0612 38.0315 32.86C37.1219 33.0883 35.2833 33.5448 33.9286 33.8492C31.2385 34.4959 28.471 35.4469 27.1162 36.2268C25.955 36.8925 24.5036 38.3191 23.8456 39.4224C23.5553 39.9168 23.1489 40.9439 22.9553 41.7049C22.7037 42.732 22.4521 43.2647 22.007 43.6829C21.5619 44.1394 21.3683 44.52 21.2716 45.281C21.1555 46.0988 21.0006 46.3839 20.362 47.0118C19.9169 47.411 19.4911 47.7534 19.4137 47.7534C19.3363 47.7534 19.0073 48.1151 18.6782 48.5523C17.788 49.7507 17.9622 51.5009 19.0653 52.2614C19.6072 52.6421 19.5491 53.0224 18.9298 53.1744C18.2138 53.3458 18.0408 53.7875 18.0408 54.225C18.0408 54.4188 18.2489 54.3449 18.5613 54.2338C18.7707 54.1595 19.0269 54.0688 19.2987 54.0305C19.7826 53.9543 19.9761 54.1871 19.9761 54.3202C19.9761 54.4343 19.0084 54.7384 18.4278 54.7957C17.3054 54.9477 16.53 55.4 16.2591 56.2751C16.0849 56.8836 16.3365 58.2152 16.6655 58.3483C16.801 58.4055 17.6912 57.968 18.6202 57.3974C20.2071 56.4271 21.4458 55.7424 21.6393 55.7424C21.678 55.7424 21.7748 56.0848 21.8328 56.4844C21.9683 57.5684 22.665 58.3483 24.0585 58.9951C25.9744 59.9081 27.8904 60.0601 32.032 59.6609C37.5864 59.1092 56.5331 58.5386 59.765 58.8048C62.7069 59.052 65.4358 59.3185 67.0418 59.5468C67.816 59.6415 69.5192 59.7557 70.8158 59.775C73.0609 59.8319 73.2156 59.794 74.7058 59.2044C76.6991 58.4245 77.7831 57.6446 78.2086 56.6933C78.4023 56.2751 78.6152 55.9327 78.6731 55.9327C79.0021 55.9327 80.2023 56.6364 80.86 57.207C81.2473 57.5494 81.6535 57.8345 81.7696 57.8345C81.8665 57.8345 82.3502 57.207 82.8536 56.4461C83.8987 54.8294 84.5954 54.0495 85.2145 53.8213C85.9502 53.5361 85.6987 53.3075 84.4986 53.1744C83.0276 53.0034 82.1569 53.1744 82.1569 53.6503C82.1569 54.1636 81.6535 54.4491 80.8021 54.4491C79.8732 54.4298 79.641 54.3157 79.641 53.8402C79.641 53.4599 80.1633 53.0793 80.7246 53.0793C81.189 53.0793 83.0666 52.1856 84.0727 51.4815C84.963 50.8541 85.6404 49.7887 85.6404 49.0281C85.6404 48.7615 85.4661 48.3623 85.2338 48.1151L84.8469 47.6586L85.1567 48.172C85.8534 49.2753 84.6339 50.873 82.2538 51.9763C80.7246 52.68 80.7053 52.68 75.1896 52.3377C73.3124 52.2235 70.7579 51.9191 68.9965 51.5957C65.0292 50.8541 59.0105 50.5117 50.8044 50.5306H50.7983C44.0114 50.5686 43.932 50.5689 36.1929 52.0332C33.9092 52.4707 33.2319 52.5087 28.8387 52.5087C26.0325 52.5087 23.5166 52.5849 22.8585 52.699C21.349 52.9845 20.5555 52.8131 19.6459 51.9953C18.2138 50.7399 18.3299 49.2563 19.9169 48.0768C20.7297 47.4493 20.8071 47.4493 20.8071 47.9816C20.8265 49.1422 22.2393 50.9871 23.4972 51.5009C24.6197 51.9763 26.826 52.0332 28.2581 51.6529C29.4193 51.3485 29.5741 51.3485 30.2902 51.634C32.3803 52.4518 35.3027 51.6719 37.1025 49.808C37.5476 49.3515 37.6831 49.2942 38.1283 49.4656C38.8638 49.7507 40.4894 49.6939 42.1926 49.3515C43.547 49.085 43.7989 49.085 44.9793 49.3515C47.1277 49.8269 48.2888 50.0362 48.9659 50.0362C50.1274 50.0362 52.9721 49.2753 54.1139 48.6664L55.1979 48.0768L56.4945 48.5716C58.4299 49.3322 60.1716 49.2942 62.7069 48.4002C63.7712 48.0199 64.7777 47.6776 64.9517 47.6203C65.1453 47.5634 65.4358 47.8106 65.7842 48.324C66.5002 49.4084 68.2805 50.4927 69.8097 50.7968C72.3449 51.2916 75.7316 50.9109 76.4862 50.0552C76.7766 49.7128 76.8349 49.7128 78.0732 50.2834C79.1572 50.7968 79.5634 50.892 80.8989 50.892C82.1376 50.892 82.6021 50.7968 83.2791 50.4544C84.247 49.96 84.4986 49.4463 84.3439 48.3433C84.2663 47.7534 84.3049 47.5634 84.4986 47.5634C84.6729 47.5445 84.634 47.4493 84.3824 47.259C84.0534 47.0118 83.9955 46.7456 83.9955 45.2237C83.9955 43.6639 83.9373 43.3405 83.4149 42.3327C83.1052 41.7049 82.4277 40.7919 81.9247 40.2781C80.7828 39.1559 75.8091 35.9414 73.7383 34.9904C68.6678 32.6698 63.7134 31.7568 58.1587 32.1563ZM57.8686 33.0503C57.6657 33.1094 57.4099 33.1857 57.1418 33.2658C56.719 33.3921 56.2646 33.5278 55.9332 33.6209C54.9657 33.9062 54.6367 34.0393 49.3532 36.5311C46.392 37.9195 45.0179 38.3763 43.8375 38.357C43.2955 38.338 43.1601 38.2622 43.1601 37.9767C43.1601 37.4441 47.2438 35.3708 49.953 34.5339C53.3787 33.4687 56.5138 32.803 58.0619 32.765H58.8361L57.8686 33.0503ZM41.8052 33.0503C41.2054 33.2024 39.4443 34.2296 37.2574 35.6752C35.0511 37.1588 32.4191 38.6235 31.9739 38.6235C31.6643 38.6235 31.4514 38.2239 31.4514 37.6914C31.4514 37.5012 31.9159 36.9306 32.4771 36.398C34.2189 34.8002 36.4832 33.716 39.2893 33.2024C40.5473 32.9742 42.657 32.841 41.8052 33.0503ZM48.1531 33.5258C48.8694 33.6399 49.45 33.7921 49.45 33.8682C49.45 33.9252 48.9855 34.1345 48.4435 34.3437C47.1277 34.7812 43.7792 36.5311 42.9278 37.1778C42.1729 37.7675 42.1343 38.0908 42.7149 38.6235C43.7021 39.5176 45.8307 38.9849 50.8044 36.5311C52.8594 35.5213 54.1961 35.0421 54.7682 34.8371C54.8859 34.7949 54.9711 34.7643 55.0236 34.7431C55.2959 34.6333 55.4529 34.575 55.7588 34.4768C56.076 34.3752 56.6913 34.1606 57.3359 33.9359C58.1106 33.6657 58.9287 33.3807 59.3199 33.2595C60.0374 33.0374 63.2304 33.0503 63.2304 33.0503C67.2949 33.3926 69.5192 33.754 68.7064 34.0774C68.4934 34.1535 67.9514 34.2296 67.487 34.2296C65.9967 34.2676 63.7134 34.8382 61.6426 35.7132C59.3588 36.6833 58.546 37.292 58.546 38.0719C58.546 39.1752 59.9005 39.099 65.1261 37.6914C69.287 36.5692 69.79 36.4931 71.7836 36.6072C74.822 36.7974 76.9896 37.5012 79.254 39.0038C81.9826 40.8108 83.3181 42.7509 83.3181 44.8624C83.3181 45.8133 83.2406 46.0415 82.7954 46.4791C81.7311 47.4683 80.7439 47.7155 78.0539 47.7344C75.3832 47.7534 74.4157 47.6393 70.158 46.9166C66.6549 46.3081 61.236 45.8323 56.7075 45.7181L56.2144 45.7068C54.1514 45.6578 53.4238 45.6408 52.6989 45.6753C52.3035 45.6942 51.9093 45.7284 51.3001 45.7814C51.1227 45.7966 50.9271 45.8137 50.708 45.8323C49.6433 45.9274 47.0694 46.0988 44.9986 46.2129C39.8506 46.498 39.096 46.5553 37.6444 46.7835C34.2189 47.3162 29.0903 47.8869 26.5163 48.0389C25.9357 48.0768 24.91 47.7727 23.6714 47.24C22.7037 46.8214 22.5295 46.6505 22.2393 45.9085C21.9296 45.1286 21.9296 45.0144 22.2199 44.4059C22.3941 44.0446 22.6263 43.7591 22.7231 43.7591C22.8005 43.7591 22.936 44.1777 23.0134 44.6721C23.1295 45.6233 23.5746 46.4222 23.8262 46.1746C23.9036 46.0988 23.8649 45.4899 23.7488 44.8245C23.4391 43.2074 23.4585 42.3134 23.8262 41.0963C24.6003 38.5473 26.9034 36.5692 30.5998 35.2947C32.419 34.6671 33.1932 34.4959 33.1932 34.7241C33.1932 34.7812 32.6707 35.3328 32.032 35.9414C31.0449 36.8925 30.8708 37.1588 30.8708 37.7485C30.8708 38.5663 31.432 39.1941 32.1481 39.1941C32.8061 39.1941 34.1221 38.4522 37.7218 36.0746C40.6634 34.1535 42.7936 33.2024 44.3613 33.2024C44.4235 33.2024 44.4886 33.2018 44.5589 33.2011C45.1448 33.1952 46.0622 33.1861 48.1531 33.5258ZM72.6543 35.4089C73.1963 35.6371 73.6415 35.8844 73.6415 35.9795C73.6415 36.0746 72.5382 36.1317 71.1834 36.1317C68.7839 36.1127 68.5903 36.1317 64.4872 37.1778C60.0362 38.3001 59.3199 38.4142 59.3199 37.9767C59.3199 37.292 62.6679 35.7893 65.7259 35.1045C67.5838 34.6861 71.3578 34.8573 72.6543 35.4089ZM57.133 46.8025C58.5653 47.5445 59.8619 47.6776 61.2553 47.2779C62.6101 46.8597 64.3518 46.6884 64.3518 46.9739C64.3518 47.6203 60.4232 48.8188 58.7783 48.6474C57.1912 48.4764 54.0754 46.8977 54.3851 46.4029C54.6367 46.0415 56.03 46.2319 57.133 46.8025ZM61.6036 46.5742C61.8358 46.6505 61.8358 46.7073 61.5265 46.9356C60.7908 47.4493 57.6364 47.0687 57.4234 46.4222C57.3459 46.2319 57.7135 46.2129 59.3199 46.327C60.4232 46.4029 61.4489 46.498 61.6036 46.5742ZM50.4175 46.6122C50.4175 46.8597 49.6822 47.2211 49.45 47.088C49.0241 46.8214 49.2563 46.4222 49.8369 46.4222C50.166 46.4222 50.4175 46.498 50.4175 46.6122ZM51.2689 46.5363C51.424 46.5932 51.7735 46.9356 51.7152 47.088C51.6894 47.1555 51.863 47.1251 52.079 47.0876C52.3483 47.0406 52.6831 46.9822 52.7799 47.088C52.9304 47.2506 52.3533 47.7132 52.0628 47.946C51.9803 48.0123 51.9205 48.0601 51.9077 48.0768C51.5401 48.4192 47.9015 48.6664 47.9015 48.3433C47.9015 48.3202 47.8919 48.2539 47.8788 48.1617C47.8263 47.7996 47.7164 47.0379 47.9015 46.9166C48.2692 46.6505 49.0253 47.3162 49.2961 47.5634C49.3867 47.6434 49.4616 47.7291 49.5318 47.8095C49.7605 48.0719 49.9388 48.2762 50.4576 48.0431C50.8658 47.8607 50.828 47.6044 50.7558 47.1142L50.7466 47.0497C50.6305 46.4222 50.7273 46.327 51.2689 46.5363ZM21.9683 47.2969C21.9683 48.0199 22.4521 48.9708 23.0327 49.4273C23.8069 50.0169 25.1809 49.9979 26.0518 49.3705C27.0195 48.6857 27.4453 48.5333 28.7806 48.4192C30.1741 48.2861 30.5805 48.4575 30.3869 49.066C29.9418 50.4927 28.2 51.3674 25.897 51.3674C23.9423 51.3674 22.4521 50.5117 21.7554 48.9898C21.407 48.2482 21.2716 46.9928 21.5038 46.7456C21.7361 46.5363 21.9683 46.8214 21.9683 47.2969ZM45.1923 46.9928C45.1923 47.2211 43.876 48.0578 42.7538 48.5333C41.6506 49.0281 39.4251 49.1991 38.2831 48.895C37.1219 48.5905 35.9026 48.001 35.9026 47.7534C35.9026 47.5062 35.98 47.5062 36.8122 47.8486C37.1799 48.001 37.896 48.1341 38.3992 48.1341C39.3089 48.1341 40.9346 47.5445 40.9346 47.2021C40.9346 46.9545 41.6313 46.8597 43.6052 46.8214C44.5342 46.8214 45.1923 46.8787 45.1923 46.9928ZM46.7018 47.2969C46.7404 47.4872 46.9147 47.7727 47.0887 47.9058C47.2824 48.0389 47.3209 48.2099 47.2048 48.305C46.9726 48.5333 45.1923 48.324 45.1923 48.0768C45.1923 47.7727 46.1984 46.7835 46.4503 46.8597C46.5467 46.8977 46.6825 47.088 46.7018 47.2969ZM83.8987 47.8675C84.0923 48.7615 84.0727 48.9898 83.8018 49.3894C82.9115 50.7399 79.9893 50.721 77.6477 49.3705C76.37 48.6474 76.4283 48.2292 77.7831 48.4002C78.3444 48.4575 79.1958 48.6857 79.6602 48.895C81.3248 49.6366 82.8147 49.2374 83.0276 47.9816C83.2988 46.4222 83.5889 46.3839 83.8987 47.8675ZM39.8698 47.1638C40.141 47.6014 37.7412 48.0958 37.3348 47.6965C37.1219 47.4872 37.3154 47.3731 38.2444 47.2021C39.4251 46.9739 39.7344 46.9739 39.8698 47.1638ZM66.4612 47.5824C67.1386 48.4954 69.0161 49.5797 70.5257 49.9411C71.9966 50.2834 73.8544 50.2072 75.2864 49.7318C75.693 49.5987 76.0799 49.5225 76.1185 49.5604C76.3315 49.7507 75.8284 50.0552 74.8605 50.3403C71.9769 51.1585 68.0675 50.2072 66.3065 48.2292C65.7452 47.5824 65.513 46.9928 65.8613 46.9928C65.9582 46.9928 66.2097 47.259 66.4612 47.5824ZM68.1655 47.3773C68.4753 47.8531 67.7192 48.0389 67.1386 47.6586C66.7324 47.411 66.6741 47.2969 66.8871 47.1638C67.2354 46.9545 67.914 46.978 68.1655 47.3773ZM23.8069 48.0389C24.4455 48.2861 25.2003 48.5143 25.5099 48.5143C25.8002 48.5143 26.0325 48.5905 26.0325 48.6664C26.0325 48.7426 25.8002 48.9519 25.5099 49.1039C24.5036 49.6556 22.7618 48.9708 22.4909 47.9248C22.3747 47.4683 22.4134 47.4683 23.8069 48.0389ZM72.7137 47.9479C73.0231 48.2144 71.7836 48.4381 70.874 48.3623C70.2159 48.305 69.675 47.9289 69.5203 47.6628C69.3267 47.3204 69.5011 47.3394 70.6815 47.4724C71.3589 47.5297 72.6362 47.8721 72.7137 47.9479ZM82.9308 47.8106C82.9308 48.6285 81.228 49.1991 80.2023 48.7426L79.5441 48.4575L80.4152 48.2861C80.8989 48.1909 81.4988 47.9816 81.7696 47.8486C82.3892 47.5062 82.9308 47.4872 82.9308 47.8106ZM54.4816 47.9248C54.4816 48.2099 51.753 49.2374 50.6112 49.3705C49.0241 49.5604 44.418 49.0281 44.418 48.6664C44.418 48.5523 44.5727 48.5333 44.7664 48.6095C45.3663 48.8567 49.8952 48.9519 51.3079 48.7236C52.0624 48.6095 53.0689 48.3433 53.5334 48.1341L53.6182 48.0973C54.249 47.8228 54.4206 47.7481 54.4661 47.794C54.4835 47.8114 54.4827 47.8455 54.482 47.8922V47.9081L54.4816 47.9248ZM34.3157 48.172C34.2576 48.305 34.0641 48.4381 33.8512 48.4764C33.6576 48.5143 33.3093 48.7615 33.0771 49.0091C32.748 49.4084 32.6126 49.4463 32.1868 49.2942C31.1417 48.895 31.2965 48.3623 32.5545 48.1341C33.7544 47.9058 34.3931 47.9248 34.3157 48.172ZM35.9026 48.6857C35.9026 48.7805 35.4381 49.1422 34.8963 49.4846C33.9867 50.0552 33.6964 50.131 32.2836 50.2072C31.2772 50.2451 30.6773 50.1883 30.6773 50.0742C30.6773 49.96 31.103 49.9221 31.8191 49.979C32.8641 50.0742 32.9416 50.0552 33.0577 49.6556C33.1157 49.3894 33.2899 49.2563 33.5222 49.2942C34.1221 49.3894 34.664 49.1039 34.8963 48.5905C35.0898 48.1909 35.1865 48.153 35.5156 48.324C35.7284 48.4381 35.9026 48.6095 35.9026 48.6857ZM75.3447 48.5143C75.6733 48.7236 75.9638 48.9708 75.9638 49.066C75.9638 49.2374 74.2607 49.7697 74.1445 49.6366C73.9899 49.4463 73.8556 48.0431 74.0686 48.0431C74.1847 48.0431 74.9963 48.305 75.3447 48.5143ZM69.3267 48.2334C69.4818 48.3286 69.4224 48.7426 69.3448 48.7998C69.1708 48.9708 68.4159 48.7236 68.4159 48.4954C68.4159 48.2671 68.9591 48.0051 69.3267 48.2334ZM72.4232 49.4698C72.4232 49.6791 71.7836 49.808 71.6675 49.7697C71.5317 49.7128 71.1834 49.6366 70.8933 49.5797C70.0998 49.4084 70.1785 48.804 71.0688 48.804C71.7073 48.785 72.4232 49.1843 72.4232 49.4698ZM36.6768 49.4463C36.6768 50.0741 33.5415 51.5577 32.2061 51.5577C31.3933 51.5577 30.0967 51.2154 30.0967 51.0061C30.0967 50.9299 30.9482 50.7968 31.9933 50.721C33.6189 50.6258 34.0253 50.5306 35.1285 49.96C36.5026 49.2374 36.6768 49.1801 36.6768 49.4463ZM51.9077 50.9109L51.9247 50.9124C53.4562 51.0444 53.4747 51.0459 53.3011 51.4815C52.9142 52.4897 53.5916 52.8893 55.6624 52.8893C57.1719 52.8893 57.7718 52.528 57.7718 51.615V51.1202L59.9587 51.2533C61.1392 51.3295 63.3068 51.4626 64.7387 51.5388C66.1711 51.634 67.8743 51.8433 68.5127 51.9953C69.1516 52.1473 70.2934 52.3945 71.0673 52.5087C72.093 52.68 72.6543 52.8704 73.177 53.2886C74.067 53.9733 75.4411 54.0495 76.2153 53.4599C76.6027 53.1555 76.9896 53.0793 78.0732 53.0793H79.4473L79.254 53.5741L79.2266 53.6438C79.1248 53.9039 79.0708 54.0423 79.1059 54.153C79.146 54.2785 79.3007 54.3691 79.6313 54.5617L79.6988 54.6012C80.3955 55.0387 81.5374 55.0956 82.0408 54.7342C82.2148 54.6012 82.4663 54.2778 82.6021 54.0305C82.8343 53.5741 83.8987 53.2127 83.8987 53.593C83.8987 53.7071 82.0408 56.2561 81.6535 56.6743C81.6149 56.7126 81.2473 56.5223 80.86 56.2561C79.7185 55.4952 78.1122 54.8484 76.8349 54.6391C74.7444 54.2967 71.7254 54.2015 69.3255 54.4108C68.029 54.506 66.4612 54.6391 65.842 54.6963L64.7195 54.7915L64.8549 53.8592C64.9517 53.0793 64.9131 52.8704 64.5648 52.528C63.6744 51.6529 62.6101 52.2046 62.6101 53.5551C62.6101 54.0116 62.5133 54.4491 62.3971 54.506C61.8551 54.8484 59.8812 54.8105 58.004 54.4298C54.8689 53.8023 53.7849 53.7451 52.3915 54.1257C51.7337 54.3157 51.1335 54.4108 51.0756 54.354C50.9981 54.2967 51.1335 54.0305 51.3272 53.7644C51.8109 53.1744 51.6948 52.2425 51.1335 51.8433C50.6305 51.5009 49.3725 51.4626 49.1209 51.786C49.0048 51.9191 48.7726 52.4518 48.5789 52.9845C48.3853 53.4978 48.1531 54.0116 48.0759 54.0874C47.9984 54.1826 47.0309 54.1636 45.9468 54.0495C44.7278 53.9354 43.5859 53.9164 43.0632 54.0116C42.2311 54.1826 42.1729 54.1636 41.612 53.5168C41.2054 53.0414 40.857 52.8321 40.4701 52.8321C39.7344 52.8321 38.9992 53.2506 38.9992 53.6692C38.9992 53.8592 38.9216 54.0495 38.8445 54.1068C38.7669 54.1636 36.8122 54.2398 34.5285 54.3157C32.2642 54.3729 29.6322 54.4681 28.7032 54.525C27.1937 54.6201 27.0001 54.6012 26.826 54.2588C26.3421 53.3458 24.3681 53.2506 23.8069 54.1068C23.4972 54.5822 22.7424 54.9815 22.2005 54.9815C21.7748 54.9815 19.1814 56.2751 17.9815 57.074C17.4977 57.4163 17.0719 57.6446 17.0526 57.6063C17.0139 57.5873 16.9365 57.226 16.859 56.8457C16.7429 56.1799 16.7816 56.1037 17.3235 55.7614C17.6525 55.571 18.4654 55.3049 19.1234 55.1718C19.7814 55.0577 20.5555 54.8294 20.8652 54.6774C21.3103 54.4491 21.3683 54.335 21.1942 54.0305C19.9761 53.5593 19.5902 53.3352 21.0405 53.2742C21.2003 53.2673 21.4143 53.2544 21.6838 53.2385L21.6853 53.2381H21.6865C22.8863 53.1665 25.1858 53.0292 28.7226 53.0603C32.8835 53.0986 33.0771 53.1176 33.9867 53.5551C34.4899 53.8213 35.1479 54.0305 35.4188 54.0305C35.922 54.0305 37.8379 52.9462 37.8379 52.6611C37.8379 52.3756 38.6508 52.1284 41.3408 51.634C43.7214 51.1964 46.0244 50.9682 49.5468 50.8351C49.9723 50.8158 51.0367 50.8541 51.9077 50.9109ZM56.3398 51.2916C56.746 51.4815 56.9976 51.7291 56.9976 51.9763C56.9976 52.2997 56.8621 52.3377 55.5073 52.2804C53.901 52.2235 53.6302 52.0142 54.269 51.3868C54.7528 50.9109 55.4495 50.873 56.3398 51.2916ZM50.882 52.4328L50.914 52.4639C51.2697 52.8127 51.272 52.815 50.708 53.5361C50.4368 53.8785 50.2239 54.354 50.2239 54.5632C50.2239 54.9246 50.34 54.9815 50.9595 54.9815C51.3464 54.9815 52.0624 54.8484 52.5466 54.6774C53.5334 54.335 55.0236 54.3919 56.9204 54.8863C59.1459 55.4379 60.6554 55.5521 61.952 55.2097L63.1521 54.9056L63.2292 53.8023C63.3261 52.4897 63.4615 52.3187 64.0035 52.8321C64.3711 53.2127 64.3904 53.2696 64.081 53.8592C63.6551 54.6963 63.6937 55.1145 64.1971 55.2287C64.4294 55.3049 65.8035 55.248 67.2354 55.1339C73.3703 54.6391 76.9313 54.9246 77.5895 55.9706C78.0346 56.6743 76.4669 57.9869 74.2221 58.7858C73.1188 59.2044 72.6933 59.2423 70.6611 59.2044C69.3838 59.1661 67.7192 59.0709 66.9839 58.9568C60.3649 58.0821 58.217 58.0438 42.4827 58.4813C39.5605 58.5576 35.9026 58.7479 34.3544 58.9189C32.8061 59.0903 30.2902 59.2233 28.7419 59.2423C25.9744 59.2613 25.9164 59.2423 24.6584 58.6717C23.4005 58.0821 22.3554 57.074 22.3554 56.465C22.3554 56.0658 22.7811 55.7614 23.652 55.4569C24.1358 55.2859 24.3874 55.0956 24.3874 54.8484C24.4068 54.2778 24.6777 54.0305 25.2777 54.0305C25.7228 54.0305 25.9357 54.1636 26.1873 54.6201C26.3119 54.8362 26.3893 54.9705 26.5057 55.0486C26.6966 55.1771 26.9926 55.1547 27.7743 55.0956C28.471 55.0387 31.3159 54.9246 34.1028 54.8673L39.1731 54.7342L39.4054 54.1826C39.6183 53.6503 40.1025 53.2696 40.528 53.2696C40.6441 53.2696 40.9539 53.612 41.2247 54.0116L41.7281 54.7532L43.7021 54.658C44.8632 54.6012 46.1019 54.6391 46.7211 54.7722C47.9791 55.0387 48.6758 54.7722 48.9466 53.9354C49.45 52.3756 49.624 52.1284 50.1077 52.1284C50.3596 52.1284 50.7273 52.2615 50.882 52.4328ZM36.8703 52.6611C36.8703 52.9272 35.4381 53.593 35.0898 53.5168C34.7221 53.422 34.664 53.2886 34.8963 52.9651C35.1285 52.6038 36.8703 52.3377 36.8703 52.6611ZM74.8995 53.0793C74.9574 53.1744 74.8802 53.2696 74.7251 53.2696C74.5704 53.2696 74.3768 53.1744 74.3189 53.0793C74.2607 52.9651 74.3382 52.8893 74.4929 52.8893C74.648 52.8893 74.8412 52.9651 74.8995 53.0793ZM67.5452 52.5659C67.0807 52.9083 67.2744 53.7451 67.8743 53.8971C68.3195 54.0112 69.1905 53.593 69.1905 53.2696C69.1905 52.9841 68.4549 52.3183 68.1648 52.3183C68.029 52.3183 67.7582 52.4324 67.5452 52.5659ZM68.4356 53.1744C68.4163 53.4596 67.9711 53.4027 67.8743 53.1172C67.8164 52.9462 67.9128 52.87 68.1065 52.9272C68.3002 52.9462 68.4356 53.0603 68.4356 53.1744ZM2.1217 49.2525C3.08044 49.2525 3.85765 48.4886 3.85765 47.5464C3.85765 46.6042 3.08044 45.8402 2.1217 45.8402C1.16296 45.8402 0.385742 46.6042 0.385742 47.5464C0.385742 48.4886 1.16296 49.2525 2.1217 49.2525ZM102.228 47.5464C102.228 48.4886 101.451 49.2525 100.492 49.2525C99.5339 49.2525 98.7565 48.4886 98.7565 47.5464C98.7565 46.6042 99.5339 45.8402 100.492 45.8402C101.451 45.8402 102.228 46.6042 102.228 47.5464Z" fill="#E42614" stroke="#E42614" stroke-width="0.379147"/>
<path d="M2.81618 79.0524C2.75188 79.0524 2.69723 79.0304 2.65223 78.986C2.60722 78.9417 2.58472 78.8848 2.58472 78.8154V76.6164C2.58472 76.547 2.60722 76.4901 2.65223 76.4457C2.69723 76.4014 2.75188 76.3794 2.81618 76.3794H2.99942C3.15372 76.3794 3.28553 76.3066 3.39483 76.1614C3.50413 76.0162 3.59093 75.8107 3.65522 75.5453C3.71951 75.2734 3.76774 74.9481 3.79989 74.569C3.83203 74.1834 3.84811 73.7538 3.84811 73.2799V71.3273C3.84811 71.2579 3.8706 71.201 3.91562 71.1566C3.96063 71.1123 4.01526 71.0903 4.07957 71.0903H8.41945C8.49017 71.0903 8.54803 71.1123 8.59305 71.1566C8.63807 71.201 8.66056 71.2579 8.66056 71.3273V76.3794H9.11384C9.18455 76.3794 9.24241 76.4014 9.28743 76.4457C9.33245 76.4901 9.35494 76.547 9.35494 76.6164V78.8154C9.35494 78.8787 9.33245 78.9322 9.28743 78.9765C9.24241 79.027 9.18455 79.0524 9.11384 79.0524H8.06262C7.99191 79.0524 7.93404 79.027 7.88902 78.9765C7.844 78.9322 7.82151 78.8787 7.82151 78.8154V77.7254H4.11814V78.8154C4.11814 78.8787 4.09241 78.9322 4.04099 78.9765C3.99597 79.027 3.93811 79.0524 3.86739 79.0524H2.81618ZM4.84146 76.3794H7.12713V72.4363H5.33331V73.4694C5.33331 74.1963 5.29153 74.7964 5.20794 75.2704C5.12434 75.7443 5.00221 76.114 4.84146 76.3794Z" fill="#E42614"/>
<path d="M13.5472 77.8198C12.9621 77.8198 12.4574 77.725 12.0331 77.5354C11.6087 77.3458 11.2776 77.0615 11.0397 76.6823C10.8018 76.2967 10.6732 75.8133 10.6539 75.2321C10.6475 74.9602 10.6443 74.6918 10.6443 74.4264C10.6443 74.1545 10.6475 73.8797 10.6539 73.6018C10.6732 73.033 10.8018 72.5561 11.0397 72.1705C11.284 71.7788 11.6184 71.485 12.0427 71.289C12.4734 71.0929 12.9749 70.9951 13.5472 70.9951C14.113 70.9951 14.6081 71.0929 15.0324 71.289C15.4631 71.485 15.8007 71.7788 16.045 72.1705C16.2893 72.5561 16.4179 73.033 16.4308 73.6018C16.4437 73.8797 16.4501 74.1545 16.4501 74.4264C16.4501 74.6918 16.4437 74.9602 16.4308 75.2321C16.4115 75.8133 16.2829 76.2967 16.045 76.6823C15.8071 77.0615 15.476 77.3458 15.0517 77.5354C14.6273 77.725 14.1258 77.8198 13.5472 77.8198ZM13.5472 76.597C13.9201 76.597 14.2255 76.4863 14.4634 76.2653C14.7077 76.0378 14.8363 75.6776 14.8492 75.1847C14.862 74.9068 14.8684 74.6474 14.8684 74.4074C14.8684 74.161 14.862 73.902 14.8492 73.6302C14.8427 73.3015 14.7816 73.033 14.6659 72.8245C14.5502 72.616 14.3959 72.4643 14.203 72.3695C14.0165 72.2683 13.7979 72.2179 13.5472 72.2179C13.2964 72.2179 13.0746 72.2683 12.8817 72.3695C12.6889 72.4643 12.5345 72.616 12.4188 72.8245C12.3095 73.033 12.2484 73.3015 12.2356 73.6302C12.2291 73.902 12.2259 74.161 12.2259 74.4074C12.2259 74.6474 12.2291 74.9068 12.2356 75.1847C12.2549 75.6776 12.3834 76.0378 12.6213 76.2653C12.8592 76.4863 13.1678 76.597 13.5472 76.597Z" fill="#E42614"/>
<path d="M18.3705 77.7254C18.2998 77.7254 18.2419 77.7034 18.1969 77.659C18.1519 77.6146 18.1294 77.5578 18.1294 77.4884V71.3273C18.1294 71.2579 18.1519 71.201 18.1969 71.1566C18.2419 71.1123 18.2998 71.0903 18.3705 71.0903H22.884C22.9547 71.0903 23.0126 71.1123 23.0576 71.1566C23.1026 71.201 23.1251 71.2579 23.1251 71.3273V72.1329C23.1251 72.1963 23.1026 72.2497 23.0576 72.2941C23.0126 72.3384 22.9547 72.3604 22.884 72.3604H19.6628V73.6874H21.1577C21.9035 73.6874 22.4886 73.8675 22.9129 74.2277C23.3437 74.5879 23.5591 75.0744 23.5591 75.6874C23.5591 75.9593 23.5044 76.2183 23.3951 76.4647C23.2922 76.7111 23.1412 76.9291 22.9418 77.1187C22.7425 77.3083 22.4918 77.4569 22.1896 77.5642C21.8938 77.6715 21.5499 77.7254 21.1577 77.7254H18.3705ZM19.6628 76.6164H21.013C21.2187 76.6164 21.3923 76.572 21.5338 76.4837C21.6817 76.3953 21.791 76.2782 21.8617 76.1329C21.9389 75.9877 21.9774 75.8327 21.9774 75.6685C21.9774 75.4156 21.8938 75.204 21.7267 75.0334C21.5659 74.8628 21.3281 74.7775 21.013 74.7775H19.6628V76.6164Z" fill="#E42614"/>
<path d="M25.1535 77.7254C25.0827 77.7254 25.0249 77.7034 24.9799 77.659C24.9348 77.6146 24.9124 77.5578 24.9124 77.4884V71.3273C24.9124 71.2579 24.9348 71.201 24.9799 71.1566C25.0249 71.1123 25.0827 71.0903 25.1535 71.0903H27.7863C28.3071 71.0903 28.7572 71.1692 29.1365 71.3273C29.5223 71.4854 29.8212 71.7254 30.0334 72.0476C30.252 72.3635 30.3613 72.7585 30.3613 73.2325C30.3613 73.7128 30.252 74.111 30.0334 74.4268C29.8212 74.7365 29.5223 74.9671 29.1365 75.1187C28.7572 75.2704 28.3071 75.3462 27.7863 75.3462H26.494V77.4884C26.494 77.5578 26.4715 77.6146 26.4265 77.659C26.3815 77.7034 26.3236 77.7254 26.2529 77.7254H25.1535ZM26.4651 74.1709H27.7381C28.066 74.1709 28.32 74.092 28.5 73.9339C28.6864 73.7758 28.7797 73.5388 28.7797 73.223C28.7797 72.9451 28.6961 72.7176 28.5289 72.5405C28.3682 72.3635 28.1046 72.2751 27.7381 72.2751H26.4651V74.1709Z" fill="#E42614"/>
<path d="M32.0683 77.7254C31.9975 77.7254 31.9397 77.7034 31.8947 77.659C31.8496 77.6146 31.8271 77.5578 31.8271 77.4884V71.3273C31.8271 71.2579 31.8496 71.201 31.8947 71.1566C31.9397 71.1123 31.9975 71.0903 32.0683 71.0903H36.4371C36.5078 71.0903 36.5657 71.1123 36.6107 71.1566C36.6557 71.201 36.6782 71.2579 36.6782 71.3273V72.0855C36.6782 72.1489 36.6557 72.2023 36.6107 72.2467C36.5657 72.291 36.5078 72.313 36.4371 72.313H33.3124V73.8012H36.2249C36.2957 73.8012 36.3535 73.8232 36.3985 73.8675C36.4435 73.9119 36.466 73.9688 36.466 74.0382V74.7396C36.466 74.8029 36.4435 74.8564 36.3985 74.9007C36.3535 74.9451 36.2957 74.9671 36.2249 74.9671H33.3124V76.5026H36.5142C36.585 76.5026 36.6428 76.5246 36.6878 76.569C36.7328 76.6133 36.7553 76.6702 36.7553 76.7396V77.4884C36.7553 77.5578 36.7328 77.6146 36.6878 77.659C36.6428 77.7034 36.585 77.7254 36.5142 77.7254H32.0683Z" fill="#E42614"/>
<path d="M42.721 77.7254C42.6504 77.7254 42.5925 77.7034 42.5474 77.659C42.5026 77.6146 42.4799 77.5578 42.4799 77.4884V72.4078H40.7246C40.6602 72.4078 40.6058 72.3858 40.5607 72.3415C40.5155 72.2971 40.4932 72.2437 40.4932 72.1803V71.3273C40.4932 71.2579 40.5155 71.201 40.5607 71.1566C40.6058 71.1123 40.6602 71.0903 40.7246 71.0903H45.7782C45.8492 71.0903 45.9066 71.1123 45.9518 71.1566C45.9969 71.201 46.0193 71.2579 46.0193 71.3273V72.1803C46.0193 72.2437 45.9969 72.2971 45.9518 72.3415C45.9066 72.3858 45.8492 72.4078 45.7782 72.4078H44.0326V77.4884C44.0326 77.5578 44.0102 77.6146 43.9651 77.659C43.9199 77.7034 43.8621 77.7254 43.7915 77.7254H42.721Z" fill="#E42614"/>
<path d="M47.0341 77.7254C46.9762 77.7254 46.928 77.7064 46.8894 77.6685C46.8508 77.6241 46.8315 77.5767 46.8315 77.5263C46.8315 77.4948 46.8346 77.4664 46.8412 77.441L49.1365 71.3462C49.1558 71.2768 49.1944 71.2165 49.2522 71.1661C49.3101 71.1157 49.3903 71.0903 49.4933 71.0903H50.7278C50.8308 71.0903 50.911 71.1157 50.9689 71.1661C51.0268 71.2165 51.0653 71.2768 51.0846 71.3462L53.38 77.441C53.3865 77.4664 53.3896 77.4948 53.3896 77.5263C53.3896 77.5767 53.3703 77.6241 53.3317 77.6685C53.2932 77.7064 53.2449 77.7254 53.1871 77.7254H52.1841C52.0876 77.7254 52.017 77.7034 51.9719 77.659C51.9268 77.6146 51.8978 77.5737 51.8851 77.5358L51.4704 76.4742H48.7507L48.336 77.5358C48.3233 77.5737 48.2944 77.6146 48.2492 77.659C48.2041 77.7034 48.1335 77.7254 48.0371 77.7254H47.0341ZM49.1076 75.2514H51.1039L50.1106 72.5216L49.1076 75.2514Z" fill="#E42614"/>
<path d="M59.9938 77.8198C59.3893 77.8198 58.8751 77.7219 58.4508 77.5259C58.033 77.3238 57.7082 77.033 57.4767 76.6539C57.2452 76.2683 57.1168 75.8008 57.0909 75.251C57.0844 74.9921 57.0813 74.7138 57.0813 74.4169C57.0813 74.12 57.0844 73.8357 57.0909 73.5638C57.1168 73.0205 57.2452 72.5591 57.4767 72.18C57.7147 71.7944 58.0457 71.5005 58.4701 71.2984C58.8944 71.0964 59.4025 70.9951 59.9938 70.9951C60.4247 70.9951 60.8167 71.049 61.1704 71.1563C61.5242 71.2636 61.8293 71.4186 62.0866 71.6207C62.3439 71.8228 62.543 72.0598 62.6846 72.3316C62.8262 72.6035 62.9033 72.9068 62.916 73.2416C62.916 73.2984 62.8937 73.3458 62.8485 73.3837C62.8099 73.4217 62.7617 73.4406 62.7039 73.4406H61.6044C61.5273 73.4406 61.4663 73.4217 61.4212 73.3837C61.3761 73.3458 61.3409 73.2825 61.3151 73.1942C61.2187 72.8215 61.0578 72.5655 60.8329 72.4264C60.608 72.2872 60.3283 72.2179 59.9938 72.2179C59.5953 72.2179 59.2802 72.3252 59.0487 72.5401C58.8173 72.7551 58.6919 73.1119 58.6726 73.6112C58.6533 74.1295 58.6533 74.6603 58.6726 75.2037C58.6919 75.703 58.8173 76.0598 59.0487 76.2747C59.2802 76.4897 59.5953 76.597 59.9938 76.597C60.3283 76.597 60.608 76.5276 60.8329 76.3885C61.0643 76.2433 61.2252 75.9873 61.3151 75.6207C61.3409 75.5259 61.3761 75.4626 61.4212 75.4311C61.4663 75.3932 61.5273 75.3743 61.6044 75.3743H62.7039C62.7617 75.3743 62.8099 75.3932 62.8485 75.4311C62.8937 75.469 62.916 75.5164 62.916 75.5733C62.9033 75.9081 62.8262 76.2114 62.6846 76.4833C62.543 76.7551 62.3439 76.9921 62.0866 77.1942C61.8293 77.3963 61.5242 77.5513 61.1704 77.6586C60.8167 77.7659 60.4247 77.8198 59.9938 77.8198Z" fill="#E42614"/>
<path d="M64.723 77.7254C64.6586 77.7254 64.6008 77.7034 64.5494 77.659C64.5043 77.6146 64.4819 77.5578 64.4819 77.4884V71.3273C64.4819 71.2579 64.5043 71.201 64.5494 71.1566C64.6008 71.1123 64.6586 71.0903 64.723 71.0903H65.62C65.7164 71.0903 65.787 71.1157 65.8321 71.1661C65.8834 71.2165 65.9189 71.2545 65.9382 71.2799L67.7127 74.4931L69.5066 71.2799C69.5193 71.2545 69.5482 71.2165 69.5934 71.1661C69.6447 71.1157 69.7187 71.0903 69.8152 71.0903H70.7121C70.7827 71.0903 70.8405 71.1123 70.8857 71.1566C70.9308 71.201 70.9532 71.2579 70.9532 71.3273V77.4884C70.9532 77.5578 70.9308 77.6146 70.8857 77.659C70.8405 77.7034 70.7827 77.7254 70.7121 77.7254H69.7284C69.664 77.7254 69.6096 77.7034 69.5644 77.659C69.5193 77.6146 69.4969 77.5578 69.4969 77.4884V73.659L68.2721 75.9149C68.2401 75.9718 68.198 76.0222 68.1467 76.0666C68.0954 76.111 68.0279 76.1329 67.9442 76.1329H67.4909C67.4072 76.1329 67.3397 76.111 67.2884 76.0666C67.2371 76.0222 67.195 75.9718 67.163 75.9149L65.9382 73.659V77.4884C65.9382 77.5578 65.9158 77.6146 65.8707 77.659C65.8256 77.7034 65.7712 77.7254 65.7067 77.7254H64.723Z" fill="#E42614"/>
<path d="M72.4703 77.7254C72.4125 77.7254 72.3643 77.7064 72.3257 77.6685C72.2871 77.6241 72.2678 77.5767 72.2678 77.5263C72.2678 77.4948 72.2713 77.4664 72.2775 77.441L74.5728 71.3462C74.5921 71.2768 74.6306 71.2165 74.6885 71.1661C74.7464 71.1157 74.827 71.0903 74.9296 71.0903H76.1641C76.2671 71.0903 76.3473 71.1157 76.4052 71.1661C76.463 71.2165 76.5016 71.2768 76.5209 71.3462L78.8162 77.441C78.8228 77.4664 78.8259 77.4948 78.8259 77.5263C78.8259 77.5767 78.8066 77.6241 78.768 77.6685C78.7294 77.7064 78.6812 77.7254 78.6233 77.7254H77.6204C77.5239 77.7254 77.4533 77.7034 77.4082 77.659C77.3634 77.6146 77.3345 77.5737 77.3214 77.5358L76.9067 76.4742H74.187L73.7723 77.5358C73.7596 77.5737 73.7306 77.6146 73.6855 77.659C73.6408 77.7034 73.5698 77.7254 73.4733 77.7254H72.4703ZM74.5438 75.2514H76.5402L75.5468 72.5216L74.5438 75.2514Z" fill="#E42614"/>
<path d="M83.9962 77.7254C83.9318 77.7254 83.8774 77.7034 83.8323 77.659C83.7872 77.6146 83.7648 77.5578 83.7648 77.4884V75.3557C83.6618 75.444 83.5302 75.5199 83.3694 75.5832C83.2085 75.6401 83.0318 75.6844 82.8389 75.7159C82.6526 75.7413 82.4659 75.7538 82.2796 75.7538C81.4695 75.7538 80.8684 75.5612 80.4761 75.1756C80.0903 74.79 79.8975 74.2088 79.8975 73.4315V71.3273C79.8975 71.2579 79.9198 71.201 79.965 71.1566C80.0101 71.1123 80.0645 71.0903 80.1289 71.0903H81.1898C81.2604 71.0903 81.3182 71.1123 81.3634 71.1566C81.4085 71.201 81.4309 71.2579 81.4309 71.3273V73.3652C81.4309 73.7064 81.5177 73.9593 81.6913 74.1235C81.8649 74.2876 82.1608 74.3699 82.5785 74.3699C82.7008 74.3699 82.8293 74.3604 82.9643 74.3415C83.0993 74.3161 83.2278 74.2782 83.3501 74.2277C83.4724 74.1773 83.5719 74.1075 83.649 74.0192C83.7262 73.9309 83.7648 73.8201 83.7648 73.6874V71.3273C83.7648 71.2579 83.7872 71.201 83.8323 71.1566C83.8774 71.1123 83.9318 71.0903 83.9962 71.0903H85.0571C85.1277 71.0903 85.1856 71.1123 85.2307 71.1566C85.2758 71.201 85.2982 71.2579 85.2982 71.3273V77.4884C85.2982 77.5578 85.2758 77.6146 85.2307 77.659C85.1856 77.7034 85.1277 77.7254 85.0571 77.7254H83.9962Z" fill="#E42614"/>
<path d="M87.4828 77.7254C87.4122 77.7254 87.3543 77.7034 87.3092 77.659C87.2641 77.6146 87.2417 77.5578 87.2417 77.4884V71.3273C87.2417 71.2579 87.2641 71.201 87.3092 71.1566C87.3543 71.1123 87.4122 71.0903 87.4828 71.0903H88.534C88.6046 71.0903 88.6625 71.1123 88.7076 71.1566C88.7528 71.201 88.7751 71.2579 88.7751 71.3273V73.6969H91.3887V71.3273C91.3887 71.2579 91.4111 71.201 91.4562 71.1566C91.5013 71.1123 91.5592 71.0903 91.6298 71.0903H92.681C92.7516 71.0903 92.8095 71.1123 92.8546 71.1566C92.8998 71.201 92.9221 71.2579 92.9221 71.3273V77.4884C92.9221 77.5578 92.8998 77.6146 92.8546 77.659C92.8095 77.7034 92.7516 77.7254 92.681 77.7254H91.6298C91.5592 77.7254 91.5013 77.7034 91.4562 77.659C91.4111 77.6146 91.3887 77.5578 91.3887 77.4884V75.0429H88.7751V77.4884C88.7751 77.5578 88.7528 77.6146 88.7076 77.659C88.6625 77.7034 88.6046 77.7254 88.534 77.7254H87.4828Z" fill="#E42614"/>
<path d="M97.5159 77.8198C96.9307 77.8198 96.4261 77.725 96.0018 77.5354C95.5775 77.3458 95.2461 77.0615 95.0084 76.6823C94.7704 76.2967 94.642 75.8133 94.6227 75.2321C94.6161 74.9602 94.613 74.6918 94.613 74.4264C94.613 74.1545 94.6161 73.8797 94.6227 73.6018C94.642 73.033 94.7704 72.5561 95.0084 72.1705C95.2526 71.7788 95.5871 71.485 96.0114 71.289C96.442 71.0929 96.9435 70.9951 97.5159 70.9951C98.0815 70.9951 98.5768 71.0929 99.0011 71.289C99.4317 71.485 99.7692 71.7788 100.014 72.1705C100.258 72.5561 100.386 73.033 100.4 73.6018C100.412 73.8797 100.419 74.1545 100.419 74.4264C100.419 74.6918 100.412 74.9602 100.4 75.2321C100.38 75.8133 100.251 76.2967 100.014 76.6823C99.7758 77.0615 99.4448 77.3458 99.0204 77.5354C98.5961 77.725 98.0946 77.8198 97.5159 77.8198ZM97.5159 76.597C97.8886 76.597 98.1941 76.4863 98.4321 76.2653C98.6763 76.0378 98.8048 75.6776 98.8179 75.1847C98.8306 74.9068 98.8372 74.6474 98.8372 74.4074C98.8372 74.161 98.8306 73.902 98.8179 73.6302C98.8113 73.3015 98.7504 73.033 98.6347 72.8245C98.5189 72.616 98.3646 72.4643 98.1717 72.3695C97.985 72.2683 97.7667 72.2179 97.5159 72.2179C97.2652 72.2179 97.0434 72.2683 96.8505 72.3695C96.6576 72.4643 96.5033 72.616 96.3876 72.8245C96.278 73.033 96.2171 73.3015 96.2043 73.6302C96.1978 73.902 96.1947 74.161 96.1947 74.4074C96.1947 74.6474 96.1978 74.9068 96.2043 75.1847C96.2236 75.6776 96.3521 76.0378 96.5901 76.2653C96.8277 76.4863 97.1363 76.597 97.5159 76.597Z" fill="#E42614"/>
<path d="M52.8821 12.4704C52.7805 12.462 52.7005 12.4234 52.6411 12.3547C52.5822 12.2859 52.557 12.2017 52.5654 12.1019L53.3319 3.26047C53.3403 3.16073 53.3799 3.08176 53.45 3.0236C53.52 2.96543 53.6058 2.94053 53.7074 2.94887L57.8167 3.28706C58.5824 3.35005 59.2005 3.51046 59.6703 3.76833C60.1405 4.02621 60.4735 4.36412 60.6695 4.78211C60.8747 5.20084 60.9543 5.67772 60.9077 6.21272C60.8789 6.54825 60.7886 6.83766 60.6377 7.08091C60.4956 7.32494 60.3253 7.52102 60.1265 7.66906C59.9371 7.81787 59.7561 7.92624 59.583 7.99416C59.9287 8.18698 60.2187 8.48485 60.453 8.88772C60.6977 9.28229 60.7977 9.73802 60.7526 10.2549C60.7031 10.8262 60.5309 11.3143 60.2355 11.7192C59.9401 12.1242 59.5287 12.4237 59.001 12.6177C58.4731 12.8117 57.8451 12.8787 57.1161 12.8188L52.8821 12.4704ZM54.8741 11.0315L56.9913 11.2057C57.4431 11.243 57.7951 11.1486 58.0472 10.9227C58.2996 10.6878 58.4409 10.398 58.4709 10.0534C58.5013 9.69978 58.4071 9.39519 58.1876 9.13968C57.9782 8.87589 57.6521 8.72576 57.2092 8.68932L55.0923 8.51511L54.8741 11.0315ZM55.2279 6.95086L57.2204 7.11481C57.6539 7.1505 57.9858 7.07277 58.2162 6.88167C58.4563 6.68226 58.5911 6.41477 58.62 6.07928C58.6492 5.74375 58.5617 5.46714 58.3573 5.24944C58.1635 5.02338 57.8498 4.89252 57.4161 4.85687L55.4237 4.69292L55.2279 6.95086Z" fill="#E42614"/>
<path d="M75.533 18.7283C75.4504 18.67 75.4014 18.5964 75.3864 18.5076C75.3713 18.4187 75.3937 18.3336 75.4531 18.2522L80.7096 11.0396C80.769 10.9583 80.8438 10.9102 80.9341 10.8956C81.0248 10.8808 81.1112 10.9026 81.1941 10.9609L82.4471 11.8432C82.53 11.9015 82.579 11.9751 82.5937 12.0639C82.6087 12.1528 82.5867 12.2379 82.5273 12.3193L78.1523 18.3224L81.652 20.7864C81.735 20.8447 81.7836 20.9183 81.7986 21.0071C81.8137 21.096 81.7913 21.1811 81.7323 21.2625L81.0529 22.1946C80.9935 22.276 80.9187 22.324 80.8284 22.3387C80.7377 22.3534 80.6513 22.3316 80.5684 22.2733L75.533 18.7283Z" fill="#E42614"/>
<path d="M83.3966 24.3643C83.3287 24.2895 83.2974 24.2071 83.3028 24.1172C83.3082 24.0273 83.3487 23.9491 83.4251 23.8825L90.1684 17.9842C90.2443 17.9177 90.3281 17.887 90.4195 17.8922C90.5109 17.8975 90.5908 17.9375 90.6583 18.0123L91.637 19.093C91.7049 19.1678 91.7357 19.2501 91.7307 19.3401C91.7253 19.43 91.6844 19.5083 91.6084 19.5748L89.2433 21.6437L93.5728 21.6207C93.6387 21.6116 93.7201 21.6195 93.8173 21.6444C93.9273 21.67 94.0314 21.7372 94.1298 21.846L95.247 23.0797C95.3025 23.1409 95.3245 23.213 95.313 23.2962C95.3083 23.3732 95.2782 23.436 95.2231 23.4844C95.1745 23.5267 95.1208 23.5494 95.0618 23.5525L89.5558 23.6725L88.66 29.4993C88.6569 29.5507 88.6276 29.6006 88.5724 29.649C88.5169 29.6974 88.4467 29.7224 88.3614 29.7239C88.2827 29.7194 88.216 29.6866 88.1604 29.6254L87.0066 28.3509C86.8955 28.2286 86.8403 28.1126 86.8403 28.003C86.8399 27.8935 86.8411 27.8194 86.8434 27.7809L87.4587 23.2045L84.8652 25.4731C84.7892 25.5396 84.7055 25.5703 84.6141 25.5651C84.5223 25.5598 84.4428 25.5198 84.3753 25.4451L83.3966 24.3643Z" fill="#E42614"/>
<path d="M90.2616 31.8502C90.2227 31.7778 90.215 31.7047 90.2381 31.6309C90.2697 31.5529 90.318 31.4969 90.3835 31.4629C90.4244 31.4417 90.4634 31.4266 90.5004 31.4177L99.9405 30.1941C100.044 30.1716 100.147 30.1795 100.252 30.2179C100.356 30.2564 100.443 30.34 100.512 30.4687L101.342 32.0139C101.411 32.1426 101.432 32.2602 101.406 32.3666C101.379 32.473 101.327 32.5617 101.25 32.6325L94.8955 39.602C94.8669 39.627 94.8322 39.6501 94.7913 39.6713C94.7257 39.7055 94.6517 39.7131 94.5683 39.6945C94.4931 39.6717 94.436 39.624 94.3974 39.5515L93.7231 38.2962C93.6583 38.1756 93.6394 38.0721 93.6664 37.986C93.6934 37.9 93.7274 37.8362 93.7679 37.7946L94.8646 36.562L93.0368 33.1579L91.3823 33.3524C91.3248 33.3618 91.2519 33.3532 91.1643 33.3266C91.0768 33.3 91.0008 33.2263 90.936 33.1056L90.2616 31.8502ZM94.8611 32.7827L96.2028 35.2815L99.0722 32.2033L94.8611 32.7827Z" fill="#E42614"/>
<path d="M6.27455 30.4197C5.91939 30.2619 5.57687 30.2566 5.247 30.4036C4.91712 30.5507 4.62901 30.8409 4.38265 31.2744C4.21526 31.5689 4.1156 31.8413 4.08367 32.0915C4.04897 32.3401 4.07307 32.5597 4.15597 32.7502C4.24045 32.9379 4.37438 33.0839 4.55777 33.1881C4.70744 33.2805 4.85897 33.3244 5.01237 33.3196C5.16736 33.3121 5.32206 33.2696 5.47648 33.1919C5.62812 33.1127 5.7811 33.0084 5.9354 32.8792C6.08692 32.7485 6.23643 32.6018 6.38391 32.4394L7.00316 31.7767C7.29813 31.4517 7.60352 31.1731 7.91932 30.9409C8.23512 30.7086 8.55919 30.5362 8.89152 30.4237C9.22385 30.3111 9.56309 30.2705 9.90924 30.3018C10.257 30.3303 10.6094 30.4442 10.9667 30.6436C11.4875 30.9433 11.8646 31.3341 12.098 31.816C12.3303 32.2935 12.4114 32.8396 12.3415 33.4542C12.2704 34.0644 12.0374 34.7169 11.6426 35.4115C11.251 36.1006 10.8043 36.6408 10.3025 37.0321C9.80235 37.4205 9.26393 37.6402 8.68726 37.6911C8.10939 37.7376 7.50947 37.5934 6.8875 37.2582L7.88002 35.5119C8.17728 35.6551 8.46282 35.7089 8.73666 35.6734C9.00931 35.6335 9.26374 35.519 9.49996 35.3297C9.73498 35.1361 9.94093 34.8837 10.1178 34.5725C10.2915 34.2669 10.3979 33.9762 10.4369 33.7006C10.4774 33.4223 10.4541 33.1755 10.3668 32.9605C10.2794 32.7454 10.133 32.5795 9.92736 32.4626C9.73563 32.3537 9.5421 32.319 9.34676 32.3587C9.153 32.3956 8.94868 32.4964 8.73381 32.661C8.52051 32.8229 8.28792 33.0381 8.03603 33.3066L7.27438 34.1034C6.69032 34.7236 6.09368 35.1363 5.48446 35.3415C4.87525 35.5466 4.25606 35.4686 3.62689 35.1073C3.10849 34.8164 2.73514 34.4222 2.50683 33.9249C2.2801 33.4247 2.19734 32.8685 2.25855 32.2563C2.31976 31.6441 2.52723 31.0268 2.88097 30.4044C3.24103 29.7709 3.66365 29.2795 4.14885 28.9303C4.63563 28.5783 5.14714 28.3801 5.68339 28.3357C6.21964 28.2912 6.74438 28.4093 7.2576 28.69L6.27455 30.4197Z" fill="#E42614"/>
<path d="M17.6978 27.2799C17.1716 27.8991 16.6113 28.3543 16.0171 28.645C15.4159 28.9296 14.798 29.016 14.1629 28.9042C13.5211 28.7863 12.8734 28.4426 12.2199 27.8734L8.00942 24.2076C7.93387 24.1414 7.89287 24.0629 7.88646 23.972C7.88019 23.8807 7.90997 23.7963 7.9758 23.7187L8.95357 22.5682C9.0194 22.4907 9.09726 22.4484 9.1873 22.441C9.27742 22.4335 9.36019 22.463 9.4359 22.5288L13.6359 26.1858C14.145 26.6293 14.6281 26.8354 15.085 26.8049C15.542 26.7742 15.9589 26.537 16.3357 26.0936C16.7065 25.6572 16.8728 25.2081 16.8344 24.7461C16.796 24.2841 16.5223 23.8316 16.0133 23.388L11.8132 19.7311C11.7375 19.6653 11.6965 19.5867 11.6903 19.4954C11.6899 19.3973 11.7197 19.3129 11.7795 19.2426L12.7663 18.0813C12.8261 18.011 12.9011 17.972 12.991 17.9648C13.0811 17.9573 13.164 17.9865 13.2397 18.0524L17.45 21.7184C18.1035 22.2876 18.5359 22.8844 18.7472 23.5093C18.9515 24.1282 18.9625 24.7559 18.7801 25.3935C18.5909 26.0246 18.2302 26.6533 17.6978 27.2799Z" fill="#E42614"/>
<path d="M67.3092 15.7965C66.5378 15.541 65.9057 15.1922 65.4134 14.7504C64.9241 14.2999 64.6123 13.7594 64.4778 13.1287C64.3464 12.4895 64.4221 11.7602 64.7047 10.941L66.524 5.66305C66.5571 5.56819 66.6145 5.50074 66.6964 5.46071C66.7786 5.42066 66.868 5.41661 66.9646 5.44856L68.3978 5.92352C68.4944 5.95547 68.5628 6.01181 68.6034 6.09249C68.6442 6.17322 68.6479 6.26101 68.6152 6.35589L66.8002 11.6207C66.5799 12.259 66.5701 12.7841 66.7696 13.1963C66.9695 13.6084 67.3458 13.9059 67.8981 14.089C68.4417 14.2691 68.9204 14.2548 69.3342 14.0459C69.7481 13.8371 70.065 13.4136 70.2853 12.7755L72.1002 7.51056C72.1329 7.41568 72.1904 7.34824 72.2727 7.30823C72.3635 7.27108 72.4529 7.26703 72.5405 7.29609L73.9871 7.77539C74.0747 7.80445 74.139 7.85932 74.1793 7.94003C74.2201 8.02071 74.2241 8.10852 74.1914 8.20336L72.3718 13.4812C72.0893 14.3005 71.6982 14.9252 71.1981 15.3553C70.7009 15.7768 70.1232 16.0225 69.4638 16.0924C68.8077 16.1537 68.0896 16.0551 67.3092 15.7965Z" fill="#E42614"/>
<path d="M22.6044 22.271L16.6167 14.49L19.6866 12.1277C20.2768 11.6735 20.8663 11.3994 21.4551 11.3051C22.0421 11.2084 22.5974 11.275 23.1213 11.5051C23.6457 11.7306 24.1067 12.1018 24.5043 12.6185C24.9019 13.1352 25.1413 13.6769 25.2225 14.2435C25.3037 14.8102 25.2175 15.3664 24.9641 15.9123C24.7132 16.4562 24.2889 16.9581 23.6911 17.4181L21.7345 18.9238L20.72 17.6054L22.4107 16.3044C22.7273 16.0608 22.9463 15.8056 23.0676 15.5388C23.1896 15.2675 23.2261 14.9954 23.1774 14.7224C23.1292 14.4449 23.0067 14.1782 22.8098 13.9224C22.611 13.6641 22.3856 13.4786 22.1336 13.366C21.8822 13.2489 21.6118 13.2171 21.3222 13.2706C21.0307 13.3215 20.7254 13.4697 20.4062 13.7153L19.2968 14.569L24.2495 21.0051L22.6044 22.271Z" fill="#E42614"/>
<path d="M30.4196 16.6388C30.3294 16.6842 30.2406 16.693 30.1533 16.6651C30.066 16.6371 29.9989 16.5786 29.952 16.4893L25.7936 8.57373C25.7466 8.48435 25.7371 8.39688 25.7646 8.31105C25.7923 8.22537 25.8512 8.15974 25.9414 8.11429L31.5175 5.30632C31.6078 5.2609 31.6965 5.25206 31.7838 5.27995C31.8712 5.30787 31.9383 5.36644 31.9852 5.45572L32.4969 6.43C32.5396 6.51113 32.5472 6.59467 32.5195 6.68036C32.492 6.76619 32.433 6.83179 32.3428 6.87724L28.3546 8.88563L29.3589 10.7975L33.0764 8.9255C33.1666 8.88005 33.2554 8.87134 33.3427 8.89923C33.43 8.92712 33.4972 8.98572 33.544 9.07497L34.0175 9.97619C34.0602 10.0573 34.0677 10.1408 34.0401 10.2266C34.0125 10.3124 33.9536 10.378 33.8632 10.4234L30.1459 12.2954L31.1822 14.2682L35.269 12.2103C35.3592 12.1648 35.448 12.156 35.5353 12.1839C35.6226 12.2118 35.6897 12.2704 35.7366 12.3597L36.242 13.3218C36.2889 13.4111 36.2986 13.4986 36.271 13.5843C36.2434 13.6702 36.1845 13.7358 36.0942 13.7812L30.4196 16.6388Z" fill="#E42614"/>
<path d="M39.1931 13.26L37.4154 3.60411L41.2249 2.90274C41.9541 2.76848 42.6005 2.78434 43.164 2.95032C43.7301 3.11258 44.192 3.40614 44.5497 3.83099C44.9099 4.25212 45.1488 4.78173 45.2663 5.41979C45.3843 6.06101 45.3476 6.6381 45.1561 7.15107C44.9639 7.66091 44.628 8.08673 44.1482 8.42854C43.6716 8.76977 43.0624 9.00867 42.3206 9.14524L39.7699 9.61485L39.4678 7.9741L41.6885 7.56526C42.0782 7.4935 42.3921 7.38046 42.6302 7.22614C42.8683 7.07182 43.0305 6.87621 43.1169 6.63933C43.2064 6.40186 43.2219 6.1244 43.1635 5.80694C43.1045 5.48633 42.9903 5.22788 42.8209 5.03158C42.6546 4.83471 42.4307 4.70371 42.1489 4.63858C41.8698 4.56974 41.5338 4.57148 41.1409 4.64382L39.7641 4.89729L41.2346 12.8841L39.1931 13.26ZM43.5986 7.90577L46.8075 11.8581L44.5538 12.273L41.3968 8.31114L43.5986 7.90577Z" fill="#E42614"/>
</g>
<defs>
<clipPath id="clip0_224_2">
<rect width="103" height="80" fill="white"/>
</clipPath>
</defs>
</svg>
