<svg width="51" height="43" viewBox="0 0 51 43" fill="none" xmlns="http://www.w3.org/2000/svg">
<g clip-path="url(#clip0_241_91)">
<path fill-rule="evenodd" clip-rule="evenodd" d="M45.3369 19.6812C45.3647 19.6444 45.3793 19.5994 45.3783 19.5533C45.3774 19.5072 45.361 19.4627 45.3317 19.4271C45.3209 19.3831 45.299 19.3426 45.2682 19.3094C44.9091 18.8853 44.5235 18.4715 44.1435 18.0638C43.9529 17.8593 43.7637 17.6563 43.58 17.4543C44.0275 16.3164 44.5411 15.2065 45.0759 14.1075C45.1023 14.0564 45.1104 13.9979 45.099 13.9415C45.0877 13.8852 45.0575 13.8344 45.0134 13.7976C44.7889 13.645 44.5615 13.4968 44.3341 13.3486C43.9043 13.0685 43.4746 12.7884 43.0642 12.4792C43.0305 12.4546 42.9916 12.4382 42.9505 12.4314C42.9093 12.4245 42.8672 12.4273 42.8274 12.4396C42.9651 12.016 43.0095 11.5675 42.9576 11.1251C42.7726 10.1165 42.3311 10.0161 41.4047 9.96457C41.4527 9.33069 41.5091 8.70113 41.5891 8.06741C41.5951 8.02519 41.59 7.98215 41.5745 7.94244C41.559 7.90272 41.5335 7.86767 41.5005 7.84066C41.5149 7.78565 41.51 7.72736 41.4865 7.67556C41.463 7.62376 41.4225 7.58158 41.3717 7.55607C41.2526 7.49578 41.1081 7.40207 40.9485 7.29856C40.4176 6.95424 39.7197 6.50162 39.2339 6.81114C39.0886 6.93075 38.9697 7.0792 38.8848 7.24709C38.7998 7.41499 38.7506 7.59869 38.7402 7.78658C38.6219 8.39022 38.5101 8.99175 38.4431 9.59991C38.3808 9.61789 38.3188 9.63537 38.2571 9.65278C38.1386 9.68619 38.021 9.71934 37.9043 9.75527C37.9043 9.75527 37.8679 9.7743 37.8465 9.78487C37.8535 9.22126 37.8541 8.65974 37.8291 8.09597C37.8298 8.05972 37.8217 8.02385 37.8055 7.99142C37.7893 7.959 37.7655 7.93098 37.7361 7.90976C37.7295 7.85882 37.708 7.81095 37.6744 7.77207C37.6409 7.7332 37.5966 7.70504 37.5472 7.69106C37.3067 7.61264 37.0716 7.5236 36.8369 7.43474C36.5787 7.33694 36.321 7.23936 36.0574 7.15641C36.0234 7.14907 35.9884 7.14866 35.9543 7.15521C35.9201 7.16177 35.8877 7.17515 35.8589 7.19455C35.8301 7.21395 35.8055 7.23897 35.7866 7.26811C35.7677 7.29725 35.7549 7.32991 35.7489 7.36413C35.6729 8.06405 35.6182 8.76408 35.5785 9.46632C35.5613 9.45465 35.5427 9.44523 35.5231 9.43829C35.1175 9.17924 34.673 8.98677 34.2065 8.86819C34.2393 7.84804 34.2094 6.82684 34.1168 5.81036C34.1128 5.76066 34.095 5.71308 34.0654 5.67297C34.0358 5.63287 33.9955 5.60184 33.9492 5.5834C33.9029 5.56497 33.8523 5.55985 33.8032 5.56864C33.7542 5.57742 33.7085 5.59975 33.6715 5.63311C33.6468 5.6034 33.6163 5.57908 33.5819 5.56165C33.5475 5.54422 33.5098 5.53405 33.4713 5.53178C32.8825 5.49156 32.2911 5.51515 31.7074 5.60214C31.6392 5.60946 31.5765 5.64266 31.5322 5.69489C31.4878 5.74711 31.4652 5.81438 31.469 5.88279C31.5711 7.41866 31.5935 8.95878 31.5361 10.497C31.4878 10.4831 31.4361 10.4874 31.3908 10.5091C31.239 10.566 31.1063 10.6272 30.9865 10.6843C30.9698 9.63829 30.8793 8.59477 30.7157 7.56152C30.7077 7.49269 30.6738 7.42949 30.6209 7.38479C30.5679 7.3401 30.4999 7.31728 30.4307 7.321C30.335 7.32422 30.2401 7.3266 30.1465 7.32895C29.0468 7.35653 28.115 7.37991 27.9964 8.7054C27.9434 9.31084 27.9268 9.91892 27.9469 10.5263C27.9185 10.5183 27.8888 10.516 27.8594 10.5195C27.7933 10.5267 27.7231 10.5329 27.6505 10.5394C27.1013 10.5882 26.4075 10.6499 26.1992 11.2202C26.1121 11.5535 26.0801 11.8988 26.1045 12.2424C26.1012 12.4854 26.1033 12.7281 26.1055 12.9704C26.1097 13.4542 26.114 13.9365 26.0746 14.4158C25.6346 14.458 25.1983 14.5322 24.769 14.6378C24.714 14.6551 24.6664 14.6907 24.6343 14.7387C24.6023 14.7867 24.5876 14.8442 24.5927 14.9017C24.769 15.8522 25.0585 16.7798 25.3487 17.7095C25.4166 17.9271 25.4845 18.1447 25.551 18.3628L26.1477 18.3628C26.0889 18.1539 26.0285 17.9454 25.9666 17.7374C25.9517 17.6979 25.9264 17.6367 25.8942 17.5586C25.6242 16.9046 24.8667 15.0703 25.6855 14.9732L25.6769 14.9903C26.5211 14.9033 27.3694 14.8611 28.2182 14.864C28.24 14.8653 28.2619 14.8618 28.2823 14.8536C28.3067 14.8871 28.3388 14.9144 28.3758 14.9331C28.4128 14.9518 28.4538 14.9615 28.4953 14.9614C28.8047 15.9761 29.3666 16.8956 30.1283 17.6339C30.1406 17.6701 30.1615 17.7027 30.1893 17.7289C30.2171 17.755 30.2509 17.774 30.2877 17.7842C30.8535 18.3321 31.5308 18.7515 32.2734 19.0138C33.016 19.2761 33.8065 19.3751 34.5909 19.304C34.8382 19.273 35.0817 19.217 35.3176 19.1368C35.3736 19.1374 35.4277 19.1171 35.4695 19.0799C35.9708 18.8734 36.788 18.2532 37.2004 17.9013C37.4388 17.6739 37.6572 17.4264 37.8531 17.1615C38.2522 16.659 38.6023 16.1195 38.8986 15.5504C39.0591 15.2332 41.0683 15.9414 41.6084 16.1318L41.62 16.1359L41.5985 16.1785C41.5337 16.7717 41.4582 17.3649 41.3741 17.9538C40.8548 21.4944 39.9929 25.3049 39.1915 28.8479L39.0235 29.5906L39.5716 30.2632C39.6644 30.2568 39.761 30.2515 39.8598 30.246C40.5478 30.2081 41.3474 30.1639 41.7798 29.722C42.2622 29.2191 42.356 28.6133 42.4522 27.9916C42.4938 27.7228 42.5358 27.451 42.61 27.1832C42.7087 26.8236 42.8048 26.4619 42.9012 26.0995C43.492 23.8764 44.0901 21.6265 45.3369 19.6812ZM26.6428 14.3716C27.1682 14.3379 27.6742 14.3318 28.2101 14.3302C28.1874 14.0338 28.1621 13.7338 28.1366 13.4307C28.0696 12.6349 28.0008 11.8183 27.9724 10.994C27.9522 11.0043 27.9306 11.0113 27.9082 11.0151C27.8286 11.0238 27.7467 11.0299 27.6646 11.036C27.1913 11.0709 26.713 11.1061 26.6539 11.6644C26.5998 12.2577 26.6148 12.8433 26.6297 13.4254C26.6378 13.7416 26.6458 14.0567 26.6428 14.3716ZM30.5173 11.0086C30.499 10.972 30.4883 10.932 30.4858 10.8911L30.4688 10.8824C30.443 9.86478 30.3603 8.84935 30.2211 7.84093C30.1395 7.84472 30.0582 7.84818 29.9769 7.85164C29.7688 7.86049 29.5614 7.86931 29.3541 7.88365C28.3585 7.95816 28.4587 8.92733 28.5322 9.63835C28.5436 9.74956 28.5545 9.85446 28.5604 9.94862C28.605 10.6997 28.6312 11.4519 28.6575 12.2044C28.6813 12.8832 28.705 13.5623 28.7422 14.241C28.7856 14.2464 28.826 14.2663 28.8568 14.2974C28.8876 14.3285 28.9071 14.3691 28.9121 14.4126C29.1155 15.292 29.5308 16.1083 30.1217 16.7906C30.0236 15.2915 30.0075 13.7883 30.0733 12.2875C30.0594 12.0556 30.0914 11.8232 30.1676 11.6037C30.2438 11.3842 30.3626 11.182 30.5173 11.0086ZM31.5278 12.1836L31.5463 11.0265L31.5293 11.0179C30.4573 11.4662 30.5252 12.2504 30.6175 13.3169C30.6234 13.3849 30.6294 13.454 30.6352 13.5243C30.6826 14.3814 30.6809 15.2401 30.6793 16.0994C30.6784 16.5206 30.6776 16.942 30.6826 17.3634C30.9217 17.5828 31.1793 17.7812 31.4526 17.9564C31.6474 16.6931 31.6046 15.4258 31.5617 14.1551C31.5395 13.4988 31.5173 12.8416 31.5278 12.1836ZM33.4806 12.7867C33.695 10.5454 33.7431 8.29125 33.6246 6.04281C33.6053 6.05211 33.5853 6.05986 33.5647 6.066C33.1101 6.04456 32.6618 6.03168 32.2069 6.05294C31.9617 6.0624 32.0588 7.11575 32.1014 7.57868C32.11 7.67208 32.1164 7.74145 32.1173 7.77335C32.1489 8.83909 32.1215 9.90742 32.0942 10.9727C32.0882 11.2052 32.0823 11.4375 32.0769 11.6696C32.0625 12.4108 32.0874 13.1524 32.1122 13.8932C32.1611 15.3501 32.2098 16.8039 31.9593 18.245C32.3886 18.465 32.843 18.6321 33.3126 18.7427C33.3599 17.8171 33.3725 16.8913 33.385 15.9662C33.3994 14.9051 33.4138 13.8449 33.4806 12.7867ZM33.8225 18.8242C34.2455 18.8617 34.6717 18.8114 35.0744 18.6766C35.3385 16.6696 35.4013 14.6494 35.4641 12.629C35.4925 11.7153 35.5209 10.8016 35.5679 9.88901L35.5551 9.88254C35.5206 9.9095 35.479 9.92577 35.4353 9.92935C35.3917 9.93293 35.3479 9.92366 35.3095 9.90268C34.9691 9.68658 34.6007 9.51811 34.2145 9.40199C34.1806 10.2302 34.1331 11.057 34.0721 11.8822C33.9767 13.2508 33.9483 14.6138 33.9198 15.9796C33.9003 16.9142 33.8808 17.8501 33.8397 18.7901L33.8225 18.8242ZM36.6676 17.6959L36.6615 17.6446C36.6699 17.5732 36.6783 17.5018 36.6867 17.4304C36.7082 17.2481 36.7298 17.0657 36.7515 16.8833L36.7516 16.882L36.7518 16.8806C37.0954 13.9831 37.4395 11.0823 37.3164 8.15751L37.3037 8.15104C37.1305 8.09204 36.9584 8.0285 36.7874 7.96533C36.6067 7.89862 36.4271 7.83233 36.2487 7.77224C36.0851 9.42745 36.0327 11.0911 35.9802 12.7538C35.9203 14.6538 35.8605 16.5526 35.6349 18.4359C36.0101 18.2355 36.3573 17.9867 36.6676 17.6959ZM38.8678 14.8606L38.9019 14.8779C38.928 14.1684 39.0271 13.4661 39.1261 12.7649C39.2609 11.81 39.3954 10.8571 39.3448 9.89042L38.8787 10.0184C38.8491 10.049 38.8121 10.0714 38.7713 10.0835C38.7304 10.0957 38.6872 10.0971 38.6457 10.0877L38.0769 10.2493C38.0374 10.2623 37.9951 10.2646 37.9543 10.2562C37.9135 10.2478 37.8756 10.2288 37.8445 10.2012C37.7797 12.5174 37.5167 14.7814 37.2493 17.0646C37.7725 16.4305 38.2201 15.7377 38.5832 15.0001C38.6089 14.949 38.6507 14.9078 38.7021 14.8826C38.7534 14.8574 38.8116 14.8497 38.8678 14.8606ZM39.4201 15.0064C39.7762 15.0956 40.1323 15.1849 40.4905 15.2806C40.6511 14.0647 40.7183 12.8408 40.7855 11.6167C40.8519 10.407 40.9183 9.19706 41.0749 7.99444L41.0792 7.98592C40.9757 7.92466 40.8644 7.84919 40.7479 7.77023C40.3732 7.51623 39.9452 7.22614 39.5541 7.2568C39.3203 7.26089 39.2434 7.82335 39.2017 8.12889C39.1923 8.1972 39.1848 8.25267 39.1776 8.28618C39.1052 8.67227 39.0435 9.05842 38.9904 9.44887L39.4928 9.30187C39.5309 9.28909 39.5712 9.28502 39.611 9.28996C39.6508 9.2949 39.689 9.30873 39.7227 9.33043C39.7565 9.35212 39.7849 9.38112 39.8059 9.41528C39.8269 9.44944 39.8399 9.48789 39.844 9.52778C39.954 10.6132 39.8023 11.6768 39.6504 12.7426C39.5433 13.4932 39.4362 14.245 39.4201 15.0064ZM42.0635 15.8306C42.0052 14.9512 42.0067 14.0688 42.0679 13.1896C42.1266 12.8093 42.2102 12.4486 42.2976 12.0715C42.3185 11.9811 42.3397 11.8897 42.3608 11.7968L42.3822 11.797C42.581 10.8649 42.2261 10.5301 41.3616 10.4832C41.3395 10.846 41.3196 11.209 41.2998 11.572C41.2303 12.8443 41.1608 14.1158 40.9918 15.3792L40.9767 15.409C41.2986 15.5024 41.6184 15.6 41.936 15.7126C41.9643 15.7223 41.9902 15.7378 42.0122 15.7581C42.0342 15.7785 42.0516 15.8032 42.0635 15.8306ZM42.5671 16.3156C42.7624 16.5536 42.9641 16.7894 43.1679 17.021L43.1871 17.0254C43.5086 16.2303 43.8625 15.4517 44.2143 14.6774C44.3048 14.4784 44.3951 14.2797 44.4847 14.0811C44.3383 13.9846 44.1907 13.8887 44.0426 13.7926C43.5899 13.4987 43.1331 13.2022 42.6971 12.8767C42.6299 13.1283 42.5907 13.3866 42.5802 13.6469C42.5692 14.0292 42.5761 14.4089 42.583 14.7877C42.5922 15.2972 42.6015 15.8051 42.5671 16.3156ZM42.5896 25.236C43.1202 23.2679 43.7149 21.2895 44.8101 19.5591C44.4559 19.1566 44.0897 18.768 43.7241 18.3799C43.1605 17.7818 42.5983 17.1852 42.0835 16.5417C41.6392 20.5267 40.7513 24.4375 39.8633 28.3485C39.7604 28.8019 39.6574 29.2554 39.5552 29.709L39.5716 29.7068C40.6781 29.5594 41.6757 29.4265 41.9245 28.0723C42.0936 27.1252 42.3373 26.1784 42.5896 25.236Z" fill="white"/>
<path d="M17.2386 3.636C17.6408 3.59023 17.6463 4.21967 17.238 4.23951C15.4933 4.42692 13.7284 3.74793 11.9552 4.07587C11.1328 4.22815 11.7318 4.71439 12.2165 4.86434C12.8666 5.02192 13.5383 5.07036 14.2043 5.00768C15.352 4.96546 16.4921 4.8037 17.6063 4.52503C17.9964 4.4274 18.1781 5.0242 17.7839 5.12466C16.5616 5.42965 10.744 6.65882 10.8505 4.2384C10.9313 2.46319 16.2097 3.75162 17.2386 3.636Z" fill="white"/>
<path fill-rule="evenodd" clip-rule="evenodd" d="M5.8204 8.39178L6.02443 8.50256C5.9998 8.52881 5.98108 8.56002 5.96951 8.5941C5.95795 8.62818 5.95382 8.66434 5.9574 8.70015C5.96526 8.76143 5.98085 8.82147 6.0038 8.87882C5.96921 8.93232 5.95412 8.99611 5.96109 9.05943C6.40027 13.8065 6.74913 18.5625 7.07328 23.3176C6.8719 23.3919 6.74973 23.6401 6.94965 23.814L7.11154 23.9422L7.47034 29.2822C7.47016 29.3432 7.48883 29.4029 7.52379 29.4529C7.55875 29.503 7.60831 29.541 7.66569 29.5619C8.55389 31.119 10.584 31.0865 12.2072 31.0605C12.3012 31.059 12.394 31.0576 12.485 31.0564C12.5603 31.0553 12.6353 31.0546 12.7098 31.0541L12.6648 30.4334C12.5448 30.4363 12.4208 30.4407 12.2935 30.4452C12.0004 30.4556 11.6896 30.4666 11.3693 30.4607C10.971 30.426 9.2854 30.2078 8.95069 29.9892C8.61598 29.7706 8.34044 29.4728 8.14854 29.1221C8.13403 29.0922 8.11492 29.0649 8.09191 29.041L7.77498 24.3653C8.02427 24.4913 9.36603 24.7293 10.2994 24.895C10.7152 24.9687 11.0499 25.0281 11.171 25.0568C11.3897 25.0649 11.6059 25.0693 11.8221 25.0738C11.9302 25.076 12.0383 25.0782 12.1467 25.0809C12.2054 25.0805 13.3018 25.1189 13.3601 25.1259L13.5249 25.131C13.8668 25.1418 14.2072 25.1525 14.5464 25.1602L14.8457 24.5377C14.4285 24.5296 14.0084 24.5154 13.5842 24.5011C13.348 24.4932 13.1105 24.4852 12.8715 24.4781L12.3693 24.4671C12.2741 24.4639 12.1307 24.4602 11.9587 24.4558C11.279 24.4385 10.1519 24.4097 9.77994 24.3519C9.51747 24.2185 9.24844 24.0985 8.97386 23.9922C8.91988 23.9675 8.85869 23.9635 8.80193 23.9809C8.74516 23.9983 8.69677 24.036 8.66594 24.0867C8.33567 23.9683 8.02161 23.8087 7.73117 23.6119C7.49958 20.2757 7.24922 16.9386 6.98009 13.6005C7.62746 13.867 8.29375 14.085 8.97346 14.2526C12.5531 14.8099 18.2583 14.594 21.6635 13.693C21.4384 15.4922 21.1977 17.2886 20.9461 19.0836L21.6073 18.8847C22.096 15.3838 22.5425 11.8781 22.9111 8.36469C23.8184 7.57414 23.8269 6.38617 23.6155 5.05621C23.607 5.00561 23.5874 4.95755 23.558 4.91549C23.5286 4.87343 23.4902 4.83843 23.4457 4.81302C23.3801 4.63461 23.2891 4.46659 23.1756 4.31414C22.0505 1.8463 17.5129 1.75691 14.9758 1.70693C14.8042 1.70355 14.6417 1.70035 14.4901 1.69661C12.7057 1.65974 10.9256 1.88699 9.20768 2.37099C8.09391 2.6846 6.54258 3.12293 6.19014 4.38833C6.17876 4.42428 6.17446 4.46211 6.17748 4.4997C6.12417 4.63816 6.05079 4.80567 5.96876 4.99294C5.50338 6.05534 4.75942 7.75369 5.8204 8.39178ZM22.5933 4.59425L22.6216 4.57443C22.0958 3.30574 20.2033 2.96997 18.9441 2.74656L18.7448 2.71103C17.3433 2.47406 15.9261 2.34119 14.5049 2.3135C13.2549 2.29933 12.0069 2.41332 10.7802 2.65366L10.6109 2.68217C9.50175 2.86806 7.50516 3.20267 6.9238 4.2558C6.98189 4.26121 7.03717 4.28336 7.08292 4.31955C11.2646 7.52597 18.0244 6.2297 22.5933 4.59425ZM21.5118 13.0873C21.5865 13.0663 21.6665 13.0754 21.7346 13.1126C21.9126 11.6695 22.0792 10.2243 22.2343 8.77715C22.199 8.79846 22.1651 8.82211 22.133 8.84793C21.0172 9.23608 19.8464 9.44304 18.6652 9.46095C17.0441 9.59218 15.4044 9.62781 13.7757 9.66183C13.5326 9.62317 12.8076 9.55302 11.9053 9.46571C11.6596 9.44193 11.4006 9.41688 11.1347 9.39084C9.27344 9.2086 7.06964 8.97823 6.63574 8.79926C6.66352 8.87922 6.67741 8.96335 6.67681 9.048C6.68144 9.08617 6.67762 9.12489 6.66562 9.16141C6.65361 9.19794 6.63371 9.23138 6.60733 9.25935C6.72516 10.5159 6.82356 11.7619 6.91057 13.0521C6.9529 13.0304 6.99962 13.0187 7.04715 13.018C7.09468 13.0172 7.852 13.2401 7.89502 13.2603C7.9205 13.2714 7.94645 13.2838 7.97486 13.2974C8.34342 13.4738 9.12773 13.8491 14.6929 14.1988C18.3887 13.9652 19.0025 13.7924 20.7897 13.2891C21.0099 13.2271 21.248 13.1601 21.5118 13.0873ZM22.7555 5.18051C21.4967 5.63455 20.2101 6.00748 18.9037 6.29701C14.7349 7.21877 10.0319 7.28941 6.71789 4.81576C6.68272 4.9037 6.64661 4.99243 6.6103 5.08162C6.07308 6.40142 5.49375 7.82466 7.32801 8.33982C9.34782 8.8753 11.4352 9.11182 13.5236 9.04186C15.9353 9.06013 18.3452 8.90647 20.735 8.58205C22.4434 8.29941 23.0509 7.47698 23.0729 6.15292C23.0386 6.10663 23.0188 6.05122 23.016 5.99368C23.0152 5.6858 22.9754 5.37925 22.8974 5.08141C22.863 5.12985 22.8128 5.16486 22.7555 5.18051Z" fill="white"/>
<path fill-rule="evenodd" clip-rule="evenodd" d="M13.4865 33.2851C13.4271 33.7149 13.4644 34.1549 13.5958 34.5736C13.7271 34.9924 13.9492 35.3798 14.2465 35.7083C11.5661 41.4278 19.8279 41.3478 24.0235 41.2775C24.4827 41.3284 24.9437 41.3548 25.4045 41.3564C25.4436 41.3517 25.4808 41.338 25.5131 41.3163C25.5455 41.2947 25.5721 41.2658 25.5908 41.2318C26.1593 41.2379 26.7944 41.263 27.4686 41.2897C32.3145 41.4815 39.1764 41.7531 37.7697 35.5833C38.1339 35.3973 38.4353 35.1124 38.6395 34.7611C38.8437 34.4099 38.9425 34.0064 38.9247 33.5967C38.9084 33.2443 38.9692 32.8946 39.1029 32.5713C39.2366 32.248 39.44 31.9588 39.6992 31.7235C39.9228 31.4541 40.0369 31.1105 40.0199 30.7577C40.0762 29.7853 38.7926 29.0805 38.0018 28.83C37.9693 28.7939 37.9289 28.7656 37.8839 28.7474C37.8388 28.7292 37.7903 28.7215 37.7423 28.725C37.316 26.0779 36.6465 23.1985 34.6209 21.2369C33.4136 20.1365 31.9977 19.2865 30.4601 18.7391C28.9226 18.1917 27.296 17.9585 25.6803 18.0539C22.6855 18.1936 19.6498 18.9526 17.404 20.9637C15.2728 22.859 13.9526 25.49 13.7012 28.343C13.5328 28.325 13.364 28.355 13.2147 28.4294C13.0653 28.5038 12.9417 28.6194 12.8584 28.7627C12.2111 29.7828 11.7356 32.9851 13.4865 33.2851ZM37.3031 29.0757C34.5709 31.5908 31.0751 33.1555 27.3263 33.5413C23.5413 34.0583 19.1122 32.1006 18.1033 31.4364C17.558 31.0784 17.051 30.6334 16.5438 30.1882C15.8966 29.6202 15.249 29.0517 14.5208 28.6632C14.4374 28.6084 14.3539 28.5537 14.2524 28.5378C14.7983 22.557 19.7878 18.731 25.7263 18.6432C28.8172 18.5957 32.4017 19.4677 34.5247 21.9289C36.2229 23.9007 36.8146 26.4095 37.209 28.9122C37.2223 28.9748 37.2552 29.032 37.3031 29.0757ZM19.0421 32.5756C25.1951 35.7075 33.1036 33.8923 37.84 29.3265C39.0022 29.7047 39.7744 30.8361 38.7746 31.7337C38.3521 32.1148 38.3678 32.7179 38.3834 33.3141C38.3961 33.8026 38.4087 34.2865 38.18 34.64C38.0341 34.8823 37.8208 35.0771 37.5648 35.2019C37.5131 35.1891 37.4593 35.1896 37.4085 35.2032C37.3577 35.2169 37.3116 35.2434 37.2747 35.2801C36.6205 35.365 35.8815 34.8786 35.2179 34.4419C34.8885 34.225 34.5776 34.0204 34.3049 33.904C33.7632 33.6718 32.8438 33.9469 32.7345 34.5795C32.7211 34.6526 32.7102 34.7271 32.6993 34.8017C32.6397 35.2094 32.5797 35.6201 32.1039 35.8356C31.7761 35.935 31.4227 35.9312 31.092 35.8246C30.7613 35.7179 30.4694 35.5137 30.2562 35.2397C29.9743 34.8763 29.6347 34.5601 29.2511 34.3039C28.2634 33.7281 27.278 34.5697 26.6745 35.2047C25.8185 36.1137 24.8049 35.9145 23.7673 35.7106C23.0429 35.5682 22.3069 35.4235 21.6045 35.6521C20.9754 35.9179 20.3289 36.1434 19.6687 36.3272C18.3782 36.5764 18.0312 35.775 18.4895 34.8269C18.5309 34.7393 18.5809 34.6434 18.634 34.5415C18.8768 34.0759 19.1845 33.486 19.03 33.0033C18.9159 32.6618 18.7346 32.4307 18.5047 32.2815C18.6819 32.3827 18.8611 32.4808 19.0421 32.5756ZM18.5047 32.2815C18.4689 32.2583 18.4319 32.237 18.3938 32.2177C18.4307 32.2391 18.4676 32.2604 18.5047 32.2815ZM18.3938 32.2177C17.7221 31.8759 16.7053 32.1174 15.7286 32.3494C14.4717 32.648 13.2812 32.9309 12.9777 31.9344C12.693 31.045 12.7709 30.0893 13.1945 29.2738L13.205 29.2807C13.7445 28.4589 14.7775 29.4227 15.3263 29.9347C15.3977 30.0012 15.4608 30.0602 15.5136 30.1065C16.3963 30.9104 17.3622 31.6182 18.3938 32.2177ZM14.7038 36.1029C16.6234 37.6464 20.3314 37.9096 22.3452 37.9682C25.4875 38.0727 28.6286 37.9914 31.7517 37.7247C31.9563 37.707 32.1842 37.6917 32.4281 37.6755C34.0705 37.5659 36.4374 37.408 37.296 36.1001C38.1919 41.2846 31.9045 40.9662 27.5115 40.7438C26.6508 40.7002 25.8629 40.6603 25.2159 40.6662C25.0958 40.6672 24.9757 40.6683 24.8437 40.676C24.7586 40.681 24.0344 40.6538 23.9128 40.6264C23.8759 40.6182 23.6362 40.6187 23.4178 40.6193C23.2394 40.6197 23.0752 40.6201 23.0472 40.6156C18.1456 40.8398 13.1636 39.6084 14.6934 36.0961L14.7038 36.1029ZM18.4241 33.6874C18.4925 33.333 18.4665 33.0545 18.2057 32.8833C17.3377 32.3635 16.326 32.6677 15.3522 32.9606C14.9138 33.0925 14.4831 33.222 14.0765 33.273L14.0661 33.2662C13.557 37.2017 20.5273 37.4065 23.1089 37.453C25.6904 37.4995 28.3309 37.4903 30.9024 37.2905C31.1284 37.2751 31.3963 37.264 31.6922 37.2517C33.4422 37.1789 36.1684 37.0657 36.962 35.7792C36.3948 35.7469 35.8443 35.5567 35.3743 35.2306C35.2591 35.155 35.142 35.0618 35.022 34.9663C34.5982 34.6292 34.1373 34.2625 33.5932 34.5333C33.4097 34.6239 33.2882 35.0083 33.1703 35.3812C33.0895 35.6368 33.0104 35.887 32.9142 36.0335C32.1849 36.9853 31.0504 36.5308 30.1971 35.898C29.9973 35.7499 29.8204 35.5726 29.6499 35.4017C29.0922 34.8427 28.6034 34.3527 27.6092 35.1793C27.243 35.5653 26.8513 35.9266 26.4363 36.261C25.6988 36.7272 24.7836 36.5477 23.8664 36.3677C23.1019 36.2178 22.336 36.0675 21.6703 36.2907C21.5853 36.3173 21.4883 36.3489 21.3819 36.3836C20.0912 36.8045 17.4124 37.6782 17.7517 35.439C17.8608 35.0797 18.2376 34.0125 18.4241 33.6874Z" fill="white"/>
</g>
<defs>
<clipPath id="clip0_241_91">
<rect width="51" height="43" fill="white"/>
</clipPath>
</defs>
</svg>
