<svg width="1111" height="523" viewBox="0 0 1111 523" fill="none" xmlns="http://www.w3.org/2000/svg">
<path d="M1006.63 33.086H1007.57C1008.84 33.086 1009.38 33.287 1009.38 33.957C1009.38 35.163 1007.37 38.312 1006.23 40.523C1002.81 47.089 1000.4 54.124 999.194 61.494C999.194 61.561 999.127 61.628 999.127 61.762C999.127 62.164 999.395 62.633 999.529 63.102C1000.06 62.7 1000.8 62.7 1001.07 62.298C1001.94 60.958 1002.81 59.283 1003.35 57.876C1006.43 49.501 1010.38 41.595 1014.94 33.89C1016.21 31.679 1017.89 30.741 1020.37 30.741H1021.17C1021.77 30.741 1025.46 29.736 1025.32 29.133C1025.06 28.195 1024.45 27.927 1023.78 27.927C1023.05 27.927 1022.24 28.128 1021.5 28.128C1020.16 28.128 1019.76 27.86 1019.76 26.855C1019.76 26.319 1019.9 25.783 1020.16 25.448C1023.92 19.418 1028.2 13.79 1031.82 7.894C1031.96 7.559 1032.09 7.157 1032.09 6.688C1032.09 5.75 1032.22 4.611 1030.35 4.611C1030.01 4.611 1029.75 4.678 1029.54 4.745C1025.46 6.554 1020.23 9.971 1017.42 9.971C1015.68 9.971 1014.07 9.167 1012.53 7.626C1011.92 7.023 1011.25 6.554 1010.58 6.554C1009.98 6.554 1009.11 7.023 1009.11 8.296C1009.11 12.115 1013.87 14.192 1017.08 14.192C1017.89 14.192 1018.76 13.924 1019.63 13.924C1020.16 13.924 1020.77 14.192 1021.37 14.259C1021.1 14.862 1021.1 15.666 1020.83 16.135C1018.49 19.954 1016.01 23.706 1013.6 27.391C1011.72 30.272 1009.85 29.87 1005.56 30.942C1005.09 31.009 1004.69 31.679 1004.69 32.014C1004.69 32.416 1005.42 33.153 1006.09 33.153C1006.3 33.153 1006.56 33.086 1006.63 33.086ZM1030.88 36.503C1030.21 36.704 1028.8 37.24 1028.8 37.91C1028.8 39.116 1030.27 39.116 1031.34 39.317L1034.9 39.585C1036.5 39.853 1037.17 40.121 1037.17 41.059C1037.17 41.461 1037.04 41.863 1036.91 42.466L1034.63 50.037C1034.49 50.439 1034.43 50.841 1034.43 51.243C1034.43 52.181 1035.03 53.253 1036.57 53.253C1038.78 53.253 1040.79 45.816 1042.2 42.198C1043.27 38.446 1048.3 38.848 1051.85 37.642C1052.72 37.374 1053.45 36.302 1054.19 35.632C1053.32 35.565 1052.45 35.23 1051.58 35.23C1049.7 35.23 1048.03 36.302 1046.15 36.302C1045.15 36.302 1044.54 35.9 1044.54 35.096C1044.54 34.828 1044.68 34.493 1044.81 34.091C1045.62 31.88 1046.35 29.535 1046.96 27.19V26.788C1046.96 25.247 1046.29 24.309 1045.68 24.309C1042.06 24.309 1039.92 27.458 1039.92 30.54C1039.92 31.277 1040.19 32.148 1040.19 32.885C1040.19 35.431 1038.25 36.972 1035.43 36.972C1034.16 36.972 1033.15 36.704 1030.88 36.503Z" fill="#FEFEFE"/>
<path d="M961.812 98.808C964.738 93.982 966.866 91.892 967.968 91.892C968.5 91.892 968.766 92.386 968.766 93.26C968.766 94.78 967.55 98.238 967.55 99.948C967.55 103.102 969.336 104.546 971.198 104.546C971.996 104.546 972.338 104.204 972.338 103.824C972.338 103.482 972.034 103.178 971.54 103.178C970.248 103.178 969.754 100.404 969.754 99.682C969.754 99.188 971.236 97.098 971.236 94.134C971.236 92.12 969.716 87.332 967.436 87.332C965.004 87.332 962.99 92.5 962.99 92.5C962.8 92.842 962.458 93.07 962.154 93.374C962.116 92.918 961.964 92.5 961.964 92.006C961.964 90.98 962.154 89.916 962.154 88.776C962.154 87.826 961.964 87.18 960.938 87.18C959.38 87.18 959.494 89.194 959.304 90.904C959.152 93.412 958.886 95.92 958.886 98.352C958.886 99.226 959.152 100.176 959.988 100.176C960.672 100.176 961.47 99.416 961.812 98.808ZM972.321 109.524H972.473C972.473 109.828 972.435 110.132 972.435 110.398C972.435 111.082 972.815 111.652 973.119 112.184C973.537 111.842 974.107 111.576 974.297 111.196C975.665 107.548 975.893 103.558 976.615 99.72C976.729 99.302 977.413 98.922 977.717 98.922C981.099 98.922 983.113 91.816 983.113 88.928C983.113 87.902 982.467 86.648 981.175 86.648C980.035 86.648 979.047 88.51 978.591 88.51C978.249 88.51 977.413 86.8 976.197 86.8C974.753 86.8 975.095 89.65 974.905 91.132C974.563 94.058 974.069 97.022 973.613 99.91L972.321 109.524ZM979.845 95.236C979.123 94.438 978.287 93.716 978.287 92.88C978.287 92.804 978.325 92.766 978.325 92.69C978.971 91.36 980.035 88.358 981.023 88.358C981.251 88.358 981.745 88.7 981.745 89.118C981.517 91.36 980.757 93.374 979.845 95.236ZM984.64 96.452C984.64 99.682 986.16 101.43 988.706 101.43C992.202 101.43 995.394 96.87 995.394 93.108C995.394 91.854 995.128 90.6 994.596 89.346C994.444 89.08 994.026 88.852 993.76 88.586C993.152 88.89 992.848 89.08 992.848 89.65C992.848 90.562 993.38 91.322 993.38 92.12C993.38 94.21 992.05 96.718 990.91 98.694C990.644 99.15 989.58 99.378 988.858 99.682C988.554 99.112 987.908 98.542 987.908 97.972V97.858C988.44 95.426 988.972 92.918 991.366 90.904C991.518 90.828 991.594 90.562 991.594 90.334C991.594 89.65 990.758 89.346 989.884 89.346C986.578 89.346 984.868 94.78 984.64 96.452ZM1011.35 87.788C1010.86 87.37 1010.37 87.18 1009.91 87.18C1008.85 87.18 1007.9 87.978 1006.79 87.978C1006.38 87.978 1006.22 87.864 1005.84 87.75V87.522C1005.84 86.838 1005.58 85.736 1004.89 85.736C1003.91 85.736 1002.88 86.268 1002.08 86.268C1001.74 86.268 1001.4 86.078 1001.09 86.078C998.396 86.078 997.028 92.272 996.534 95.806C996.8 96.3 996.952 97.858 997.94 97.858C998.51 97.858 999.27 96.946 999.65 96.718C999.84 96.642 1000.14 96.566 1000.41 96.452C1000.45 96.718 1000.49 96.908 1000.49 97.136V97.364C999.308 102.456 997.712 107.586 997.484 112.754C997.484 113.324 998.206 114.692 998.776 114.692C1000.52 114.692 1001.74 111.994 1001.74 110.36C1001.74 109.41 1001.44 108.498 1001.44 107.586C1001.44 106.294 1001.7 105.002 1002.01 103.748C1002.54 101.354 1003.15 98.998 1003.75 96.718C1004.17 99.378 1005.01 99.91 1005.62 99.91C1006.38 99.91 1006.45 99.568 1006.57 99.454C1008.85 97.25 1010.86 94.78 1011.73 91.702C1011.92 91.018 1012.15 90.334 1012.15 89.65C1012.15 89.004 1011.96 88.358 1011.35 87.788ZM1008.85 94.21C1008.35 95.198 1007.52 96.072 1006.79 96.908C1006.64 97.136 1006.22 97.06 1005.84 97.174C1005.84 96.11 1006.64 95.008 1006.64 94.552C1006.64 94.058 1005.54 94.628 1005.54 93.602C1005.54 91.474 1006.76 89.65 1008.69 88.776C1009.04 88.624 1009.34 88.548 1009.57 88.548C1010.18 88.548 1010.52 89.004 1010.67 89.992C1010.14 91.436 1009.57 92.842 1008.85 94.21ZM999.118 94.78C999.042 94.97 998.776 94.932 998.548 94.97C998.472 94.704 998.282 94.4 998.282 94.134C998.776 92.424 999.308 90.752 999.916 89.08C1000.07 88.624 1000.79 88.358 1001.28 87.978C1001.51 88.51 1001.78 89.004 1002.01 89.498C1001.44 91.588 1000.49 93.298 999.118 94.78ZM1013.66 97.896C1013.81 100.214 1014.12 102.266 1016.85 102.266C1018.33 102.266 1020.61 101.05 1020.61 99.454C1020.61 99.112 1020.42 98.884 1020.01 98.884C1019.36 98.884 1018.68 99.34 1017.99 99.416C1016.59 99.416 1016.66 98.276 1016.66 97.554C1016.66 95.692 1018.6 95.198 1019.51 93.564C1020.23 92.5 1021.56 90.486 1021.56 89.27C1021.56 87.826 1020.58 87.028 1019.28 87.028C1015.48 87.028 1013.77 94.02 1013.66 97.896ZM1020.08 90.106C1019.59 91.018 1018.75 92.804 1018.11 92.804C1018.03 92.804 1017.73 92.386 1017.73 92.272C1018.03 91.436 1018.71 89.156 1019.36 89.156C1019.66 89.156 1019.85 89.65 1020.08 90.106ZM1030.34 89.916V89.536C1030.34 88.358 1029.93 87.788 1029.01 87.788C1028.48 87.788 1027.19 88.016 1026.58 88.624C1024.07 90.524 1023.09 93.108 1023.09 95.92C1023.09 97.782 1023.39 99.188 1025.18 100.366C1025.48 100.556 1025.86 100.632 1026.28 100.632C1027.99 100.632 1030.46 99.188 1030.88 97.782C1030.88 97.402 1030.72 97.212 1030.27 97.212C1029.32 97.212 1028.37 98.314 1027.46 98.314C1026.35 98.314 1026.01 97.592 1026.01 96.452C1026.01 94.476 1026.47 92.576 1027.72 90.98C1027.95 90.676 1028.18 90.448 1028.44 90.448C1028.86 90.448 1029.01 91.132 1029.74 91.854C1030.15 91.132 1030.27 90.714 1030.34 89.916ZM1032.01 99.872C1032.09 99.872 1032.12 99.948 1032.12 99.948V100.214C1032.12 100.784 1032.69 101.43 1033.04 101.924C1033.57 101.658 1034.4 101.24 1034.59 100.518C1035.43 97.212 1036.27 93.83 1037.03 90.486V90.296C1037.03 89.46 1036.38 88.738 1035.51 88.738C1032.96 88.738 1033.38 92.652 1033.04 94.552C1032.69 96.376 1032.39 98.086 1032.01 99.872ZM1035.54 83.494C1035.77 83.684 1036.49 84.482 1036.72 84.482C1037.67 84.482 1038.39 82.316 1038.39 82.468C1038.39 81.898 1037.86 81.594 1037.14 81.594C1036.19 81.594 1035.58 82.126 1035.54 83.494ZM1039.15 96.718C1039.42 96.984 1039.38 98.086 1039.5 98.542C1039.76 99.53 1040.26 100.062 1040.98 100.062C1042.31 100.062 1042.76 98.162 1044.55 97.744C1044.59 97.972 1044.7 98.162 1044.7 98.39C1044.7 98.656 1044.66 98.884 1044.66 99.112C1044.66 100.024 1045.31 101.734 1046.45 101.734C1047.1 101.734 1048.08 100.974 1048.08 100.404C1048.08 99.91 1047.55 99.226 1047.55 98.39C1047.55 98.238 1047.59 98.048 1047.63 97.896C1047.97 95.882 1048.54 93.83 1049 91.854C1049.19 90.98 1049.49 90.144 1049.49 89.27C1049.49 89.004 1049.11 87.674 1048.43 87.674C1048.12 87.674 1047.44 88.092 1047.29 88.434C1045.77 91.094 1044.32 93.792 1042.84 96.376C1042.61 96.794 1042.12 97.022 1041.78 97.288C1041.62 96.87 1041.32 96.414 1041.32 96.072V95.958C1041.62 93.564 1042 91.17 1042.38 88.776C1042.42 88.548 1042.5 88.282 1042.5 88.054C1042.5 87.712 1042.31 87.332 1041.55 87.332C1040.98 87.332 1040.67 87.788 1040.56 88.358C1040.03 91.17 1039.61 93.944 1039.15 96.718ZM1042.16 83.988C1042.5 83.95 1042.69 83.95 1042.76 83.912C1044.78 83.076 1046.83 82.202 1048.84 81.29C1049.11 81.138 1049.22 80.568 1049.41 80.188C1049 80.112 1048.62 79.998 1048.2 79.96C1048.12 79.96 1047.93 80.074 1047.82 80.112C1046.11 80.72 1044.47 81.404 1042.76 82.05C1042.08 82.316 1041.47 82.696 1041.47 83.456C1041.62 83.684 1042 83.912 1042.16 83.988ZM1062.01 89.916C1061.86 89.954 1061.71 89.992 1061.59 89.992C1061.21 89.992 1061.02 89.726 1061.02 89.232C1061.02 87.484 1061.63 85.66 1061.63 83.836C1061.63 83.19 1061.21 82.734 1060.68 82.734C1059.12 82.734 1058.93 87.446 1058.63 89.916C1058.48 91.056 1057.64 91.36 1056.12 91.36C1055.21 91.36 1054.79 91.246 1054.79 90.638C1054.79 90.486 1054.83 90.296 1054.87 90.106C1055.13 88.738 1055.29 87.332 1055.44 85.888C1055.44 85.508 1054.98 84.938 1054.6 84.938C1054.41 84.938 1054.22 84.976 1054.07 85.052C1053.58 85.964 1052.97 86.876 1052.4 87.978C1052.82 88.016 1052.97 88.282 1052.97 88.776C1052.97 89.536 1052.97 91.208 1051.64 91.208C1051.6 91.208 1051.56 91.246 1051.56 91.322C1051.56 91.626 1051.94 92.652 1051.94 93.944C1051.94 94.248 1051.9 94.59 1051.87 94.894C1051.52 97.022 1050.99 99.302 1050.99 101.392C1050.99 102.722 1051.18 104.242 1052.32 104.242C1052.93 104.242 1053.16 103.786 1053.16 103.064C1053.16 102.418 1052.97 101.582 1052.97 100.974C1052.97 99.188 1053.39 97.212 1053.73 95.426C1054.22 92.956 1054.3 92.956 1056.84 92.918H1057.03C1057.64 92.918 1057.95 93.108 1057.95 93.602C1057.95 94.362 1057.64 95.312 1057.53 96.224C1057.26 98.276 1056.73 100.442 1056.73 102.494C1056.73 103.33 1057.3 104.736 1058.14 104.736C1058.74 104.736 1059.62 104.014 1059.62 103.254C1059.62 102.798 1059.05 102 1059.05 101.24C1059.05 101.126 1059.09 101.05 1059.09 100.936C1059.47 98.39 1059.88 95.844 1060.34 93.26C1060.57 91.93 1062.43 91.74 1062.43 90.486C1062.43 90.144 1062.32 89.916 1062.09 89.916H1062.01ZM1063.94 96.718H1064.06C1064.28 98.504 1064.51 99.986 1065.8 99.986C1066.83 99.986 1067.36 98.884 1068.16 98.162C1068.43 97.972 1068.84 97.82 1069.15 97.668L1069.49 98.732C1069.83 99.758 1070.25 101.658 1071.2 101.658C1071.85 101.658 1072.87 100.936 1072.87 100.366C1072.87 99.91 1072.42 99.036 1072.42 98.124C1072.42 97.896 1072.45 97.668 1072.49 97.44C1073.06 94.742 1073.71 92.082 1074.39 89.384C1074.43 89.232 1074.43 89.118 1074.43 88.966C1074.43 88.282 1073.97 87.484 1073.06 87.484C1072.57 87.484 1072.26 87.978 1072 88.434C1070.52 91.094 1069.11 93.716 1067.55 96.376C1067.36 96.718 1066.94 96.946 1066.56 97.174C1066.45 96.718 1066.11 96.338 1066.11 95.844C1066.45 93.45 1066.83 91.094 1067.13 88.738C1067.21 88.434 1067.32 88.13 1067.32 87.826C1067.32 87.522 1067.13 87.18 1066.49 87.18C1065.8 87.18 1065.46 87.636 1065.35 88.282C1064.82 91.094 1064.4 93.868 1063.94 96.718ZM1079.16 85.622C1078.21 85.622 1077.68 86.154 1077.68 86.914C1077.68 88.168 1079.39 91.246 1079.39 92.196C1079.39 92.842 1079.08 93.412 1078.55 94.058C1076.88 96.072 1075.4 98.2 1073.88 100.404C1073.72 100.67 1073.69 100.974 1073.69 101.354C1073.69 101.658 1073.72 101.962 1073.72 102.228C1074.22 101.924 1074.86 101.696 1075.28 101.354C1076.8 99.758 1079.65 96.034 1080.45 96.034C1081.17 96.034 1082.81 99.682 1083.87 101.354C1084.21 101.924 1085.05 102.152 1085.62 102.57C1085.81 101.924 1086.26 101.202 1086.26 100.594C1086.26 100.518 1086.23 100.404 1086.23 100.328C1085.66 97.858 1083.83 94.666 1083.83 93.412C1083.83 92.006 1086.68 89.194 1088.32 87.104C1088.62 86.724 1088.62 86.116 1088.77 85.66C1088.35 85.584 1087.97 85.432 1087.59 85.432C1085.58 85.432 1083.53 89.346 1082.58 89.346C1082.08 89.346 1081.86 88.586 1081.25 86.952C1080.87 85.888 1079.99 85.66 1079.16 85.622ZM998.636 117.95C998.522 117.95 998.408 117.912 998.332 117.912C997.268 117.912 996.318 121.446 995.52 123.194C995.368 123.536 994.95 123.764 994.684 123.954C994.57 123.574 994.456 123.118 994.456 122.7C994.456 122.548 994.494 122.358 994.57 122.168C995.216 117.912 994.95 117.608 995.634 113.314C995.634 113.2 995.672 113.086 995.672 112.972C995.672 112.288 995.254 111.718 994.266 111.718C993.658 111.718 993.24 112.098 993.126 112.82L992.29 117.418C991.226 122.244 990.048 128.704 988.87 135.012C989.098 135.658 989.136 136.532 989.288 137.292C989.364 137.558 989.706 137.862 989.858 138.128C990.086 137.938 990.466 137.786 990.58 137.558C991.454 135.316 992.29 132.998 992.822 130.528C993.012 130.49 993.24 130.49 993.43 130.49C996.622 130.49 998.94 134.442 999.966 136.798C1000.08 137.102 1000.27 137.254 1000.46 137.254C1000.95 137.254 1001.3 136.342 1001.3 135.62C1001.3 133.986 998.446 128.856 995.444 127.488L996.736 126.196C998.332 124.372 999.7 121.75 999.7 119.318C999.7 118.634 999.358 118.14 998.636 117.95ZM1000.56 147.742C1000.83 147.818 1001.06 147.818 1001.28 147.818C1003.91 147.818 1006.57 144.322 1007.4 141.472C1008.5 137.634 1009.34 133.72 1010.14 129.844C1010.56 127.754 1010.94 125.246 1010.9 123.08C1010.9 122.396 1010.52 121.864 1009.57 121.864C1008.92 121.864 1008.54 122.168 1008.31 122.928C1007.86 124.296 1007.25 125.664 1006.64 126.994C1006.41 127.488 1006 127.716 1005.58 128.058C1005.43 127.716 1005.08 127.222 1005.01 126.804C1004.86 124.98 1004.86 123.08 1004.63 121.256C1004.59 120.838 1004.13 120.458 1003.79 120.078L1002.96 121.18C1002.92 121.256 1002.88 121.37 1002.88 121.484C1002.88 125.664 1003.53 130.034 1005.5 130.034C1006.03 130.034 1006.68 129.54 1007.36 129.198C1007.4 129.464 1007.52 129.73 1007.52 130.034C1007.52 130.946 1007.1 132.162 1006.87 133.074C1006.07 135.962 1005.43 138.888 1004.36 141.738C1003.45 144.132 1002.12 145.234 1000.22 145.234C999.422 145.196 998.472 145.044 997.484 144.626L994.52 143.448C994.254 143.334 993.988 143.41 993.684 143.334C993.76 143.676 993.684 144.094 993.836 144.246C995.508 145.994 997.142 147.78 999.916 147.78C1000.11 147.78 1000.33 147.78 1000.56 147.742ZM1015.66 119.622C1014.71 119.622 1014.18 120.154 1014.18 120.914C1014.18 122.168 1015.89 125.246 1015.89 126.196C1015.89 126.842 1015.59 127.412 1015.06 128.058C1013.38 130.072 1011.9 132.2 1010.38 134.404C1010.23 134.67 1010.19 134.974 1010.19 135.354C1010.19 135.658 1010.23 135.962 1010.23 136.228C1010.72 135.924 1011.37 135.696 1011.79 135.354C1013.31 133.758 1016.16 130.034 1016.96 130.034C1017.68 130.034 1019.31 133.682 1020.38 135.354C1020.72 135.924 1021.55 136.152 1022.12 136.57C1022.31 135.924 1022.77 135.202 1022.77 134.594C1022.77 134.518 1022.73 134.404 1022.73 134.328C1022.16 131.858 1020.34 128.666 1020.34 127.412C1020.34 126.006 1023.19 123.194 1024.82 121.104C1025.13 120.724 1025.13 120.116 1025.28 119.66C1024.86 119.584 1024.48 119.432 1024.1 119.432C1022.09 119.432 1020.03 123.346 1019.08 123.346C1018.59 123.346 1018.36 122.586 1017.75 120.952C1017.37 119.888 1016.5 119.66 1015.66 119.622ZM1032.21 122.814C1031.26 123.194 1030.16 123.46 1029.4 124.106C1027.19 125.702 1025.67 128.552 1025.67 131.364C1025.67 132.428 1026.43 133.302 1027.54 133.302C1028.79 133.302 1030.08 132.162 1030.35 132.162C1030.69 132.162 1030.88 135.278 1032.36 135.278C1033.84 135.278 1033.92 129.084 1034.57 125.702C1034.6 125.474 1034.6 125.246 1034.6 125.056C1034.6 123.726 1033.84 122.966 1032.21 122.814ZM1032.21 126.044C1031.07 127.754 1029.59 130.908 1028.26 130.908C1027.8 130.908 1027.65 130.3 1027.65 130.11C1027.65 129.046 1029.25 126.766 1030.31 125.36C1030.42 125.17 1030.84 125.094 1031.22 125.094C1031.72 125.094 1031.75 125.284 1032.21 126.044ZM1035 143.524H1035.15C1035.15 143.828 1035.11 144.132 1035.11 144.398C1035.11 145.082 1035.49 145.652 1035.8 146.184C1036.21 145.842 1036.78 145.576 1036.97 145.196C1038.34 141.548 1038.57 137.558 1039.29 133.72C1039.41 133.302 1040.09 132.922 1040.39 132.922C1043.78 132.922 1045.79 125.816 1045.79 122.928C1045.79 121.902 1045.14 120.648 1043.85 120.648C1042.71 120.648 1041.72 122.51 1041.27 122.51C1040.93 122.51 1040.09 120.8 1038.87 120.8C1037.43 120.8 1037.77 123.65 1037.58 125.132C1037.24 128.058 1036.75 131.022 1036.29 133.91L1035 143.524ZM1042.52 129.236C1041.8 128.438 1040.96 127.716 1040.96 126.88C1040.96 126.804 1041 126.766 1041 126.69C1041.65 125.36 1042.71 122.358 1043.7 122.358C1043.93 122.358 1044.42 122.7 1044.42 123.118C1044.19 125.36 1043.43 127.374 1042.52 129.236ZM1046.56 133.872C1046.63 133.872 1046.67 133.948 1046.67 133.948V134.214C1046.67 134.784 1047.24 135.43 1047.58 135.924C1048.12 135.658 1048.95 135.24 1049.14 134.518C1049.98 131.212 1050.81 127.83 1051.57 124.486V124.296C1051.57 123.46 1050.93 122.738 1050.05 122.738C1047.51 122.738 1047.93 126.652 1047.58 128.552C1047.24 130.376 1046.94 132.086 1046.56 133.872ZM1050.09 117.494C1050.32 117.684 1051.04 118.482 1051.27 118.482C1052.22 118.482 1052.94 116.316 1052.94 116.468C1052.94 115.898 1052.41 115.594 1051.69 115.594C1050.74 115.594 1050.13 116.126 1050.09 117.494ZM1061.76 120.762C1061.72 120.686 1061.72 120.534 1061.64 120.42C1061.6 120.42 1061.49 120.496 1061.45 120.496C1061 120.268 1060.27 120.116 1060.2 119.812C1060.05 119.318 1059.48 116.81 1059.48 116.278V116.164C1060.84 113.77 1062.67 111.528 1063.88 109.096C1064.11 108.64 1064.23 108.184 1064.23 107.69C1064.23 106.132 1063.09 104.726 1061.68 104.726C1060.62 104.726 1059.7 105.6 1059.13 107.158C1058.98 107.158 1057.8 111.338 1057.58 112.25C1055.94 118.976 1053.93 125.93 1053.7 132.884C1053.7 134.328 1054.08 135.886 1054.57 137.292C1054.92 137.938 1056.13 138.356 1056.78 138.356C1058.03 138.356 1059.4 137.216 1059.93 135.658C1061.26 131.744 1062.48 127.716 1062.78 123.498C1062.9 122.054 1064.19 121.56 1065.48 120.496C1065.56 120.458 1065.63 120.268 1065.63 120.154C1065.63 119.926 1065.4 119.85 1065.18 119.85C1065.14 119.85 1065.06 119.888 1065.02 119.888C1063.92 120.192 1062.86 120.42 1061.76 120.762ZM1056.59 132.656L1058.07 123.118C1058.07 122.89 1058.26 122.662 1058.26 122.396C1058.26 122.206 1058.22 122.016 1058.22 121.864C1058.22 121.408 1058.34 121.066 1059.13 121.066C1060.2 121.066 1061.34 122.092 1061.34 123.156C1061.34 123.232 1061.3 123.346 1061.3 123.422C1060.73 127.26 1059.86 131.326 1058.37 134.67C1058.22 135.012 1057.73 135.164 1057.42 135.392C1057.04 134.822 1056.78 134.594 1056.78 133.796C1056.78 133.416 1056.82 133.036 1056.82 132.656H1056.59ZM1060.81 110.084C1061.03 109.096 1061.22 108.146 1061.53 107.31C1061.64 107.006 1062.14 106.778 1062.52 106.512C1062.74 106.892 1063.2 107.386 1063.2 107.69V107.728C1062.86 108.678 1062.02 111.034 1061.26 111.034C1061.03 111.034 1060.92 110.35 1060.81 110.084Z" fill="#FEFEFE"/>
<path d="M19.2563 121.769C19.2563 126.794 20.6633 128.067 24.2143 128.067C30.3783 127.598 36.3413 119.692 36.3413 115.404C36.3413 113.729 35.6713 112.255 35.0013 110.58C34.4653 109.307 33.7953 107.632 33.7953 106.627C33.7953 105.287 34.4653 104.081 35.2693 102.875C35.4703 102.607 35.8723 102.339 35.9393 102.004C36.1403 101.267 38.8873 97.917 38.8873 97.18C38.8873 97.046 38.8203 96.979 38.6863 96.979C37.8153 96.979 34.8003 98.788 34.1973 98.788C33.9963 98.788 33.8623 98.855 33.7283 98.855C32.3213 98.855 31.8523 98.051 31.8523 96.778C31.8523 91.686 33.8623 87.532 38.2843 84.852C38.8873 84.584 39.6243 84.383 40.2943 84.383C41.2993 84.383 41.7013 85.12 41.7013 86.393C41.7013 88.537 40.6293 90.748 40.6293 92.959C40.6293 93.428 40.9643 93.964 41.1653 94.366C41.6343 94.031 42.4383 93.897 42.4383 93.495C43.2423 90.547 44.5153 87.331 44.5153 84.182C44.5153 82.239 43.1083 81.033 41.3663 81.033C33.6613 81.033 27.8993 90.212 27.8993 97.18C27.8993 99.123 28.6363 101.334 28.6363 103.21C28.6363 107.029 24.0133 111.384 21.8693 115.404C20.5963 117.749 19.7253 120.563 19.2563 121.769ZM31.8523 114.868C31.5843 118.888 29.5743 121.568 26.2913 123.444C25.8223 123.712 25.4203 123.846 25.0853 123.846C24.4153 123.846 23.9463 123.377 23.9463 122.573C23.9463 118.151 29.4403 111.183 30.2443 111.183C31.7183 112.121 31.5843 113.796 31.8523 114.868ZM53.7886 107.766C53.5876 107.565 53.3196 107.297 53.1186 107.163C47.9596 111.183 41.0586 116.342 38.7136 123.444C38.5126 124.047 38.4456 124.65 38.4456 125.186C38.4456 127.196 39.7856 129.809 42.5996 129.809C45.0116 129.809 47.7586 128 49.5006 125.99C54.3246 120.295 59.1486 114.6 63.7716 108.704C65.7146 106.225 67.3896 102.071 67.3896 99.793C67.3896 96.376 64.8436 94.165 60.7566 94.165C58.5456 94.299 56.2006 95.036 54.0566 95.036C53.1186 95.036 52.7166 94.701 52.7166 93.964C52.7166 92.49 54.1906 90.212 54.9276 88.068C55.6646 85.857 57.0716 84.986 59.3496 84.986H60.0196C63.7046 84.986 66.7866 83.445 69.4666 81.167C70.0696 80.765 70.0696 79.76 70.3376 79.09C69.7346 79.023 68.9976 78.755 68.4616 78.755H68.1936C65.4466 79.76 61.4266 81.837 59.8856 81.837C57.9426 81.837 57.0046 78.889 54.8606 78.889C53.7886 78.889 52.6496 79.559 52.1136 80.899C50.1706 85.656 48.4956 90.346 46.6196 95.17C46.2846 96.041 46.0166 96.979 46.0166 97.783C46.0166 98.922 47.0216 100.53 48.4956 100.53C49.5676 100.53 50.5056 99.659 51.4436 99.19C54.0566 97.917 56.8036 96.778 59.8856 96.778C62.6996 96.778 64.3076 97.649 64.3076 99.525C64.3076 101.133 62.4316 104.617 61.0246 106.493C57.9426 110.58 54.9276 114.466 51.7786 118.285C49.7016 120.697 47.1556 122.707 44.8776 124.918C44.3416 125.454 43.2026 125.454 42.4656 125.588C42.3986 125.052 42.2646 124.583 42.2646 124.047C42.2646 123.712 42.3316 123.377 42.4656 123.042C44.4756 116.744 49.2996 112.858 53.7886 107.766ZM71.7456 108.503C71.0756 108.704 69.6686 109.24 69.6686 109.91C69.6686 111.116 71.1426 111.116 72.2146 111.317L75.7656 111.585C77.3736 111.853 78.0436 112.121 78.0436 113.059C78.0436 113.461 77.9096 113.863 77.7756 114.466L75.4976 122.037C75.3636 122.439 75.2966 122.841 75.2966 123.243C75.2966 124.181 75.8996 125.253 77.4406 125.253C79.6516 125.253 81.6616 117.816 83.0686 114.198C84.1406 110.446 89.1656 110.848 92.7166 109.642C93.5876 109.374 94.3246 108.302 95.0616 107.632C94.1906 107.565 93.3196 107.23 92.4486 107.23C90.5726 107.23 88.8976 108.302 87.0216 108.302C86.0166 108.302 85.4136 107.9 85.4136 107.096C85.4136 106.828 85.5476 106.493 85.6816 106.091C86.4856 103.88 87.2226 101.535 87.8256 99.19V98.788C87.8256 97.247 87.1556 96.309 86.5526 96.309C82.9346 96.309 80.7906 99.458 80.7906 102.54C80.7906 103.277 81.0586 104.148 81.0586 104.885C81.0586 107.431 79.1156 108.972 76.3016 108.972C75.0286 108.972 74.0236 108.704 71.7456 108.503Z" fill="#FEFEFE"/>
<path d="M8.46234 161.916V161.536C8.46234 160.358 8.04434 159.788 7.13234 159.788C6.60034 159.788 5.30834 160.016 4.70034 160.624C2.19234 162.524 1.20434 165.108 1.20434 167.92C1.20434 169.782 1.50834 171.188 3.29434 172.366C3.59834 172.556 3.97834 172.632 4.39634 172.632C6.10634 172.632 8.57634 171.188 8.99434 169.782C8.99434 169.402 8.84234 169.212 8.38634 169.212C7.43634 169.212 6.48634 170.314 5.57434 170.314C4.47234 170.314 4.13034 169.592 4.13034 168.452C4.13034 166.476 4.58634 164.576 5.84034 162.98C6.06834 162.676 6.29634 162.448 6.56234 162.448C6.98034 162.448 7.13234 163.132 7.85434 163.854C8.27234 163.132 8.38634 162.714 8.46234 161.916ZM10.8899 168.452C10.8899 171.682 12.4099 173.43 14.9559 173.43C18.4519 173.43 21.6439 168.87 21.6439 165.108C21.6439 163.854 21.3779 162.6 20.8459 161.346C20.6939 161.08 20.2759 160.852 20.0099 160.586C19.4019 160.89 19.0979 161.08 19.0979 161.65C19.0979 162.562 19.6299 163.322 19.6299 164.12C19.6299 166.21 18.2999 168.718 17.1599 170.694C16.8939 171.15 15.8299 171.378 15.1079 171.682C14.8039 171.112 14.1579 170.542 14.1579 169.972V169.858C14.6899 167.426 15.2219 164.918 17.6159 162.904C17.7679 162.828 17.8439 162.562 17.8439 162.334C17.8439 161.65 17.0079 161.346 16.1339 161.346C12.8279 161.346 11.1179 166.78 10.8899 168.452ZM33.3102 155.95C33.1962 155.95 33.0822 155.912 33.0062 155.912C31.9422 155.912 30.9922 159.446 30.1942 161.194C30.0422 161.536 29.6242 161.764 29.3582 161.954C29.2442 161.574 29.1302 161.118 29.1302 160.7C29.1302 160.548 29.1682 160.358 29.2442 160.168C29.8902 155.912 29.6242 155.608 30.3082 151.314C30.3082 151.2 30.3462 151.086 30.3462 150.972C30.3462 150.288 29.9282 149.718 28.9402 149.718C28.3322 149.718 27.9142 150.098 27.8002 150.82L26.9642 155.418C25.9002 160.244 24.7222 166.704 23.5442 173.012C23.7722 173.658 23.8102 174.532 23.9622 175.292C24.0382 175.558 24.3802 175.862 24.5322 176.128C24.7602 175.938 25.1402 175.786 25.2542 175.558C26.1282 173.316 26.9642 170.998 27.4962 168.528C27.6862 168.49 27.9142 168.49 28.1042 168.49C31.2962 168.49 33.6142 172.442 34.6402 174.798C34.7542 175.102 34.9442 175.254 35.1342 175.254C35.6282 175.254 35.9702 174.342 35.9702 173.62C35.9702 171.986 33.1202 166.856 30.1182 165.488L31.4102 164.196C33.0062 162.372 34.3742 159.75 34.3742 157.318C34.3742 156.634 34.0322 156.14 33.3102 155.95ZM36.718 168.452C36.718 171.682 38.238 173.43 40.784 173.43C44.28 173.43 47.472 168.87 47.472 165.108C47.472 163.854 47.206 162.6 46.674 161.346C46.522 161.08 46.104 160.852 45.838 160.586C45.23 160.89 44.926 161.08 44.926 161.65C44.926 162.562 45.458 163.322 45.458 164.12C45.458 166.21 44.128 168.718 42.988 170.694C42.722 171.15 41.658 171.378 40.936 171.682C40.632 171.112 39.986 170.542 39.986 169.972V169.858C40.518 167.426 41.05 164.918 43.444 162.904C43.596 162.828 43.672 162.562 43.672 162.334C43.672 161.65 42.836 161.346 41.962 161.346C38.656 161.346 36.946 166.78 36.718 168.452ZM57.4283 158.762C57.3903 158.686 57.3903 158.534 57.3143 158.42C57.2763 158.42 57.1623 158.496 57.1243 158.496C56.6683 158.268 55.9463 158.116 55.8703 157.812C55.7183 157.318 55.1483 154.81 55.1483 154.278V154.164C56.5163 151.77 58.3403 149.528 59.5563 147.096C59.7843 146.64 59.8983 146.184 59.8983 145.69C59.8983 144.132 58.7583 142.726 57.3523 142.726C56.2883 142.726 55.3763 143.6 54.8063 145.158C54.6543 145.158 53.4763 149.338 53.2483 150.25C51.6143 156.976 49.6003 163.93 49.3723 170.884C49.3723 172.328 49.7523 173.886 50.2463 175.292C50.5883 175.938 51.8043 176.356 52.4503 176.356C53.7043 176.356 55.0723 175.216 55.6043 173.658C56.9343 169.744 58.1503 165.716 58.4543 161.498C58.5683 160.054 59.8603 159.56 61.1523 158.496C61.2283 158.458 61.3043 158.268 61.3043 158.154C61.3043 157.926 61.0763 157.85 60.8483 157.85C60.8103 157.85 60.7343 157.888 60.6963 157.888C59.5943 158.192 58.5303 158.42 57.4283 158.762ZM52.2603 170.656L53.7423 161.118C53.7423 160.89 53.9323 160.662 53.9323 160.396C53.9323 160.206 53.8943 160.016 53.8943 159.864C53.8943 159.408 54.0083 159.066 54.8063 159.066C55.8703 159.066 57.0103 160.092 57.0103 161.156C57.0103 161.232 56.9723 161.346 56.9723 161.422C56.4023 165.26 55.5283 169.326 54.0463 172.67C53.8943 173.012 53.4003 173.164 53.0963 173.392C52.7163 172.822 52.4503 172.594 52.4503 171.796C52.4503 171.416 52.4883 171.036 52.4883 170.656H52.2603ZM56.4783 148.084C56.7063 147.096 56.8963 146.146 57.2003 145.31C57.3143 145.006 57.8083 144.778 58.1883 144.512C58.4163 144.892 58.8723 145.386 58.8723 145.69V145.728C58.5303 146.678 57.6943 149.034 56.9343 149.034C56.7063 149.034 56.5923 148.35 56.4783 148.084ZM61.3215 168.718H61.4355C61.6635 170.504 61.8915 171.986 63.1835 171.986C64.2095 171.986 64.7415 170.884 65.5395 170.162C65.8055 169.972 66.2235 169.82 66.5275 169.668L66.8695 170.732C67.2115 171.758 67.6295 173.658 68.5795 173.658C69.2255 173.658 70.2515 172.936 70.2515 172.366C70.2515 171.91 69.7955 171.036 69.7955 170.124C69.7955 169.896 69.8335 169.668 69.8715 169.44C70.4415 166.742 71.0875 164.082 71.7715 161.384C71.8095 161.232 71.8095 161.118 71.8095 160.966C71.8095 160.282 71.3535 159.484 70.4415 159.484C69.9475 159.484 69.6435 159.978 69.3775 160.434C67.8955 163.094 66.4895 165.716 64.9315 168.376C64.7415 168.718 64.3235 168.946 63.9435 169.174C63.8295 168.718 63.4875 168.338 63.4875 167.844C63.8295 165.45 64.2095 163.094 64.5135 160.738C64.5895 160.434 64.7035 160.13 64.7035 159.826C64.7035 159.522 64.5135 159.18 63.8675 159.18C63.1835 159.18 62.8415 159.636 62.7275 160.282C62.1955 163.094 61.7775 165.868 61.3215 168.718ZM88.203 164.842C88.089 164.842 88.013 164.804 87.975 164.804V164.462C87.975 163.436 87.253 162.638 86.911 162.638C85.315 162.638 84.745 163.968 83.757 165.146C83.377 165.602 82.883 165.83 82.465 166.362C82.389 165.412 82.047 163.626 81.553 163.626C80.489 163.626 79.349 165.298 78.247 166.134C77.981 166.4 77.525 166.4 77.107 166.59C77.069 166.21 76.955 165.83 76.955 165.488C76.955 164.804 77.183 164.196 77.183 163.588C77.183 162.79 76.955 161.916 76.081 161.916C75.245 161.916 74.447 162.22 74.257 163.208C73.649 166.286 73.079 169.288 72.585 172.29V172.556C72.585 173.658 73.155 174.342 73.611 174.342C74.219 174.342 75.055 173.278 75.397 172.176C76.233 169.364 78.133 166.742 80.565 165.184C80.641 165.488 80.793 165.792 80.793 166.134C80.793 167.312 80.261 168.528 80.261 169.706C80.261 170.048 80.489 170.39 80.641 170.732C81.021 170.58 81.553 170.466 81.781 170.124C83.111 168.376 84.175 166.438 85.581 164.88C85.733 164.728 86.075 164.728 86.303 164.652C86.341 164.88 86.417 165.146 86.417 165.374L85.581 169.098C85.201 170.732 84.745 172.404 84.403 174.114C84.403 174.418 84.745 174.798 84.897 175.178C85.201 174.912 85.695 174.684 85.771 174.342C86.987 171.568 87.405 167.996 88.203 164.842ZM89.7102 168.718H89.8242C90.0522 170.504 90.2802 171.986 91.5722 171.986C92.5982 171.986 93.1302 170.884 93.9282 170.162C94.1942 169.972 94.6122 169.82 94.9162 169.668L95.2582 170.732C95.6002 171.758 96.0182 173.658 96.9682 173.658C97.6142 173.658 98.6402 172.936 98.6402 172.366C98.6402 171.91 98.1842 171.036 98.1842 170.124C98.1842 169.896 98.2222 169.668 98.2602 169.44C98.8302 166.742 99.4762 164.082 100.16 161.384C100.198 161.232 100.198 161.118 100.198 160.966C100.198 160.282 99.7422 159.484 98.8302 159.484C98.3362 159.484 98.0322 159.978 97.7662 160.434C96.2842 163.094 94.8782 165.716 93.3202 168.376C93.1302 168.718 92.7122 168.946 92.3322 169.174C92.2182 168.718 91.8762 168.338 91.8762 167.844C92.2182 165.45 92.5982 163.094 92.9022 160.738C92.9782 160.434 93.0922 160.13 93.0922 159.826C93.0922 159.522 92.9022 159.18 92.2562 159.18C91.5722 159.18 91.2302 159.636 91.1162 160.282C90.5842 163.094 90.1662 165.868 89.7102 168.718ZM104.926 157.622C103.976 157.622 103.444 158.154 103.444 158.914C103.444 160.168 105.154 163.246 105.154 164.196C105.154 164.842 104.85 165.412 104.318 166.058C102.646 168.072 101.164 170.2 99.6436 172.404C99.4916 172.67 99.4536 172.974 99.4536 173.354C99.4536 173.658 99.4916 173.962 99.4916 174.228C99.9856 173.924 100.632 173.696 101.05 173.354C102.57 171.758 105.42 168.034 106.218 168.034C106.94 168.034 108.574 171.682 109.638 173.354C109.98 173.924 110.816 174.152 111.386 174.57C111.576 173.924 112.032 173.202 112.032 172.594C112.032 172.518 111.994 172.404 111.994 172.328C111.424 169.858 109.6 166.666 109.6 165.412C109.6 164.006 112.45 161.194 114.084 159.104C114.388 158.724 114.388 158.116 114.54 157.66C114.122 157.584 113.742 157.432 113.362 157.432C111.348 157.432 109.296 161.346 108.346 161.346C107.852 161.346 107.624 160.586 107.016 158.952C106.636 157.888 105.762 157.66 104.926 157.622ZM35.8862 195.916V195.536C35.8862 194.358 35.4682 193.788 34.5562 193.788C34.0242 193.788 32.7322 194.016 32.1242 194.624C29.6162 196.524 28.6282 199.108 28.6282 201.92C28.6282 203.782 28.9322 205.188 30.7182 206.366C31.0222 206.556 31.4022 206.632 31.8202 206.632C33.5302 206.632 36.0002 205.188 36.4182 203.782C36.4182 203.402 36.2662 203.212 35.8102 203.212C34.8602 203.212 33.9102 204.314 32.9982 204.314C31.8962 204.314 31.5542 203.592 31.5542 202.452C31.5542 200.476 32.0102 198.576 33.2642 196.98C33.4922 196.676 33.7202 196.448 33.9862 196.448C34.4042 196.448 34.5562 197.132 35.2782 197.854C35.6962 197.132 35.8102 196.714 35.8862 195.916ZM53.1717 198.842C53.0577 198.842 52.9817 198.804 52.9437 198.804V198.462C52.9437 197.436 52.2217 196.638 51.8797 196.638C50.2837 196.638 49.7137 197.968 48.7257 199.146C48.3457 199.602 47.8517 199.83 47.4337 200.362C47.3577 199.412 47.0157 197.626 46.5217 197.626C45.4577 197.626 44.3177 199.298 43.2157 200.134C42.9497 200.4 42.4937 200.4 42.0757 200.59C42.0377 200.21 41.9237 199.83 41.9237 199.488C41.9237 198.804 42.1517 198.196 42.1517 197.588C42.1517 196.79 41.9237 195.916 41.0497 195.916C40.2137 195.916 39.4157 196.22 39.2257 197.208C38.6177 200.286 38.0477 203.288 37.5537 206.29V206.556C37.5537 207.658 38.1237 208.342 38.5797 208.342C39.1877 208.342 40.0237 207.278 40.3657 206.176C41.2017 203.364 43.1017 200.742 45.5337 199.184C45.6097 199.488 45.7617 199.792 45.7617 200.134C45.7617 201.312 45.2297 202.528 45.2297 203.706C45.2297 204.048 45.4577 204.39 45.6097 204.732C45.9897 204.58 46.5217 204.466 46.7497 204.124C48.0797 202.376 49.1437 200.438 50.5497 198.88C50.7017 198.728 51.0437 198.728 51.2717 198.652C51.3097 198.88 51.3857 199.146 51.3857 199.374L50.5497 203.098C50.1697 204.732 49.7137 206.404 49.3717 208.114C49.3717 208.418 49.7137 208.798 49.8657 209.178C50.1697 208.912 50.6637 208.684 50.7397 208.342C51.9557 205.568 52.3737 201.996 53.1717 198.842ZM53.1589 215.524H53.3109C53.3109 215.828 53.2729 216.132 53.2729 216.398C53.2729 217.082 53.6529 217.652 53.9569 218.184C54.3749 217.842 54.9449 217.576 55.1349 217.196C56.5029 213.548 56.7309 209.558 57.4529 205.72C57.5669 205.302 58.2509 204.922 58.5549 204.922C61.9369 204.922 63.9509 197.816 63.9509 194.928C63.9509 193.902 63.3049 192.648 62.0129 192.648C60.8729 192.648 59.8849 194.51 59.4289 194.51C59.0869 194.51 58.2509 192.8 57.0349 192.8C55.5909 192.8 55.9329 195.65 55.7429 197.132C55.4009 200.058 54.9069 203.022 54.4509 205.91L53.1589 215.524ZM60.6829 201.236C59.9609 200.438 59.1249 199.716 59.1249 198.88C59.1249 198.804 59.1629 198.766 59.1629 198.69C59.8089 197.36 60.8729 194.358 61.8609 194.358C62.0889 194.358 62.5829 194.7 62.5829 195.118C62.3549 197.36 61.5949 199.374 60.6829 201.236ZM71.6338 194.814C70.6838 195.194 69.5818 195.46 68.8218 196.106C66.6178 197.702 65.0978 200.552 65.0978 203.364C65.0978 204.428 65.8578 205.302 66.9598 205.302C68.2138 205.302 69.5058 204.162 69.7718 204.162C70.1138 204.162 70.3038 207.278 71.7858 207.278C73.2678 207.278 73.3438 201.084 73.9898 197.702C74.0278 197.474 74.0278 197.246 74.0278 197.056C74.0278 195.726 73.2678 194.966 71.6338 194.814ZM71.6338 198.044C70.4938 199.754 69.0118 202.908 67.6818 202.908C67.2258 202.908 67.0738 202.3 67.0738 202.11C67.0738 201.046 68.6698 198.766 69.7338 197.36C69.8478 197.17 70.2658 197.094 70.6458 197.094C71.1398 197.094 71.1778 197.284 71.6338 198.044ZM83.9986 192.762C83.9606 192.686 83.9606 192.534 83.8846 192.42C83.8466 192.42 83.7326 192.496 83.6946 192.496C83.2386 192.268 82.5166 192.116 82.4406 191.812C82.2886 191.318 81.7186 188.81 81.7186 188.278V188.164C83.0866 185.77 84.9106 183.528 86.1266 181.096C86.3546 180.64 86.4686 180.184 86.4686 179.69C86.4686 178.132 85.3286 176.726 83.9226 176.726C82.8586 176.726 81.9466 177.6 81.3766 179.158C81.2246 179.158 80.0466 183.338 79.8186 184.25C78.1846 190.976 76.1706 197.93 75.9426 204.884C75.9426 206.328 76.3226 207.886 76.8166 209.292C77.1586 209.938 78.3746 210.356 79.0206 210.356C80.2746 210.356 81.6426 209.216 82.1746 207.658C83.5046 203.744 84.7206 199.716 85.0246 195.498C85.1386 194.054 86.4306 193.56 87.7226 192.496C87.7986 192.458 87.8746 192.268 87.8746 192.154C87.8746 191.926 87.6466 191.85 87.4186 191.85C87.3806 191.85 87.3046 191.888 87.2666 191.888C86.1646 192.192 85.1006 192.42 83.9986 192.762ZM78.8306 204.656L80.3126 195.118C80.3126 194.89 80.5026 194.662 80.5026 194.396C80.5026 194.206 80.4646 194.016 80.4646 193.864C80.4646 193.408 80.5786 193.066 81.3766 193.066C82.4406 193.066 83.5806 194.092 83.5806 195.156C83.5806 195.232 83.5426 195.346 83.5426 195.422C82.9726 199.26 82.0986 203.326 80.6166 206.67C80.4646 207.012 79.9706 207.164 79.6666 207.392C79.2866 206.822 79.0206 206.594 79.0206 205.796C79.0206 205.416 79.0586 205.036 79.0586 204.656H78.8306ZM83.0486 182.084C83.2766 181.096 83.4666 180.146 83.7706 179.31C83.8846 179.006 84.3786 178.778 84.7586 178.512C84.9866 178.892 85.4426 179.386 85.4426 179.69V179.728C85.1006 180.678 84.2646 183.034 83.5046 183.034C83.2766 183.034 83.1626 182.35 83.0486 182.084Z" fill="#FEFEFE"/>
<path d="M79.8308 330.326C79.5182 333.229 78.2228 336.356 75.9448 339.706C74.6942 341.493 72.8405 344.061 70.3838 347.411C67.9272 350.761 66.1628 353.218 65.0908 354.781C65.0015 354.87 64.5772 355.764 63.8178 357.461C63.9518 357.461 64.1528 357.483 64.4208 357.528C64.7335 357.528 64.9792 357.528 65.1578 357.528C65.2918 357.528 65.7385 357.461 66.4978 357.327C67.3018 357.193 68.3068 357.081 69.5128 356.992C70.7188 356.858 71.9248 356.791 73.1308 356.791C74.2922 356.791 75.6992 356.813 77.3518 356.858C79.0045 356.903 79.8755 356.925 79.9648 356.925C80.1882 356.97 80.3892 357.059 80.5678 357.193C80.7912 357.327 81.0145 357.506 81.2378 357.729C81.5058 357.908 81.7068 358.042 81.8408 358.131C81.7962 358.176 81.5952 358.421 81.2378 358.868C80.8805 359.315 80.5902 359.583 80.3668 359.672C79.9202 359.851 78.8705 359.985 77.2178 360.074C75.6098 360.163 73.8455 360.342 71.9248 360.61C70.0042 360.878 67.9495 361.325 65.7608 361.95C63.6168 362.575 61.5175 363.692 59.4628 365.3C57.4082 366.863 55.7332 368.851 54.4378 371.263C54.3485 371.352 54.1475 371.576 53.8348 371.933C53.5222 372.29 53.2988 372.536 53.1648 372.67C53.0308 372.849 52.8298 373.005 52.5618 373.139C52.2492 373.318 51.9588 373.407 51.6908 373.407C51.1548 373.407 50.6188 373.139 50.0828 372.603C49.5468 372.067 49.2788 371.576 49.2788 371.129C49.2788 370.727 49.7255 369.789 50.6188 368.315C52.1375 365.59 53.9018 362.799 55.9118 359.94C57.9665 357.037 60.3115 353.888 62.9468 350.493C65.5822 347.054 67.5698 344.396 68.9098 342.52C70.2052 340.689 72.4608 336.78 75.6768 330.795C75.9895 330.17 76.1458 329.634 76.1458 329.187C76.1458 328.428 75.8555 327.713 75.2748 327.043C74.7388 326.328 74.0912 325.971 73.3318 325.971C72.7065 325.971 71.8578 326.328 70.7858 327.043C69.7585 327.758 68.9545 328.115 68.3738 328.115C68.2845 328.115 68.1058 328.093 67.8378 328.048C67.5698 328.003 67.3688 327.981 67.2348 327.981C67.2348 326.73 67.9718 325.636 69.4458 324.698C70.9645 323.715 72.5948 323.224 74.3368 323.224C75.4982 323.224 76.7042 324.006 77.9548 325.569C79.2055 327.088 79.8308 328.673 79.8308 330.326ZM89.5443 369.856C91.3756 363.335 93.1399 357.327 94.8373 351.833C94.9713 351.252 95.0383 350.761 95.0383 350.359C95.0383 349.421 94.5916 348.952 93.6983 348.952C93.1176 348.952 92.4253 349.041 91.6213 349.22C90.8173 349.399 90.1249 349.577 89.5443 349.756C89.0083 349.89 88.2043 350.136 87.1323 350.493C86.0603 350.806 85.3903 351.007 85.1223 351.096C84.6756 351.23 83.8939 351.654 82.7773 352.369C81.6606 353.084 80.7226 353.441 79.9633 353.441C79.4273 353.441 79.1593 352.682 79.1593 351.163C79.1593 350.404 79.5613 349.823 80.3653 349.421C81.5266 348.572 82.6209 347.5 83.6483 346.205C84.7203 344.865 85.5243 343.748 86.0603 342.855C86.5963 341.962 87.3333 340.622 88.2713 338.835C88.9413 337.495 89.6336 336.066 90.3483 334.547C91.0629 332.984 91.8223 331.286 92.6263 329.455C93.4749 327.579 94.1449 326.105 94.6363 325.033C94.8596 324.631 95.3063 324.184 95.9763 323.693C96.0209 323.827 96.1996 324.095 96.5123 324.497C96.8249 324.899 96.9813 325.167 96.9813 325.301V325.435C96.5793 326.954 95.3509 329.969 93.2963 334.48C91.2863 338.947 89.8346 341.962 88.9413 343.525C88.8519 343.748 88.7849 344.106 88.7403 344.597C88.6956 345.088 88.6286 345.446 88.5393 345.669C88.7179 345.669 88.9859 345.691 89.3433 345.736C89.7006 345.736 89.9686 345.736 90.1473 345.736C91.7106 345.736 93.3409 345.468 95.0383 344.932C96.7356 344.396 97.8076 343.547 98.2543 342.386C98.8796 340.733 99.8176 338.411 101.068 335.418C102.364 332.381 103.235 330.326 103.681 329.254C104.753 326.485 105.647 324.81 106.361 324.229C106.763 323.872 107.188 323.693 107.634 323.693C108.483 323.693 108.907 324.006 108.907 324.631C108.907 326.373 107.969 329.835 106.093 335.016C104.217 340.153 103.279 342.877 103.279 343.19C103.279 344.039 103.637 344.843 104.351 345.602V345.736C104.351 345.959 104.217 346.294 103.949 346.741C103.726 347.188 103.525 347.411 103.346 347.411C102.408 347.679 101.716 348.148 101.269 348.818C100.823 349.443 100.443 350.292 100.13 351.364C97.1376 361.682 95.6413 367.064 95.6413 367.511C95.5519 368.717 95.0606 370.035 94.1673 371.464C93.2739 372.893 92.3806 373.608 91.4873 373.608C90.9513 373.608 90.5493 373.295 90.2813 372.67C90.0133 372.089 89.7676 371.151 89.5443 369.856ZM120.219 351.766C119.549 352.525 118.454 353.709 116.936 355.317C115.417 356.925 114.278 358.176 113.519 359.069C112.759 359.962 111.911 361.146 110.973 362.62C110.079 364.094 109.387 365.568 108.896 367.042C108.762 367.399 108.695 367.734 108.695 368.047C108.695 368.226 108.695 368.404 108.695 368.583C108.739 368.717 108.784 368.896 108.829 369.119C108.873 369.298 108.896 369.454 108.896 369.588C110.325 369.32 111.129 369.097 111.308 368.918C111.486 368.739 112.469 367.824 114.256 366.171C116.087 364.518 117.405 363.223 118.209 362.285C120.978 358.935 124.06 355.004 127.455 350.493C128.214 349.466 128.951 348.237 129.666 346.808C130.38 345.379 130.738 344.284 130.738 343.525C130.738 341.694 129.264 340.778 126.316 340.778C123.993 340.778 121.179 341.582 117.874 343.19C117.695 343.279 117.405 343.458 117.003 343.726C116.601 343.994 116.221 344.195 115.864 344.329C115.551 344.463 115.238 344.53 114.926 344.53C114.256 344.53 113.675 344.24 113.184 343.659C112.692 343.034 112.447 342.408 112.447 341.783C112.447 341.068 112.648 340.197 113.05 339.17C113.407 338.277 114.211 336.133 115.462 332.738C116.757 329.343 117.784 326.73 118.544 324.899C119.08 323.559 119.995 322.889 121.291 322.889C122.005 322.889 122.854 323.38 123.837 324.363C124.864 325.346 125.69 325.837 126.316 325.837C126.762 325.837 127.455 325.658 128.393 325.301C129.331 324.944 130.447 324.497 131.743 323.961C133.038 323.38 133.998 322.978 134.624 322.755H134.892C135.07 322.755 135.383 322.822 135.83 322.956C136.276 323.045 136.589 323.09 136.768 323.09C136.723 323.224 136.656 323.47 136.567 323.827C136.477 324.14 136.388 324.408 136.299 324.631C136.209 324.854 136.075 325.033 135.897 325.167C132.904 327.713 129.755 328.986 126.45 328.986H125.78C123.502 328.986 122.028 330.013 121.358 332.068C121.179 332.604 120.889 333.296 120.487 334.145C120.085 334.994 119.75 335.731 119.482 336.356C119.258 336.981 119.147 337.517 119.147 337.964C119.147 338.679 119.593 339.036 120.487 339.036C121.246 339.036 122.385 338.902 123.904 338.634C125.422 338.366 126.517 338.21 127.187 338.165C129.241 338.165 130.849 338.679 132.011 339.706C133.217 340.733 133.82 342.096 133.82 343.793C133.82 344.954 133.462 346.428 132.748 348.215C132.033 349.957 131.184 351.453 130.202 352.704C127.12 356.635 122.363 362.397 115.931 369.99C114.993 371.062 113.898 371.955 112.648 372.67C111.397 373.429 110.191 373.809 109.03 373.809C107.734 373.809 106.729 373.318 106.015 372.335C105.255 371.397 104.876 370.347 104.876 369.186C104.876 368.561 104.965 367.98 105.144 367.444C105.68 365.791 106.439 364.206 107.422 362.687C108.449 361.124 109.789 359.56 111.442 357.997C113.139 356.434 114.412 355.295 115.261 354.58C116.109 353.865 117.539 352.726 119.549 351.163C119.683 351.252 119.906 351.453 120.219 351.766ZM136.099 361.749C136.679 355.674 138.421 349.734 141.325 343.927C144.273 338.076 148.136 332.894 152.916 328.383C153.318 328.026 153.764 327.735 154.256 327.512C154.792 327.289 155.484 327.065 156.333 326.842C157.226 326.574 157.807 326.395 158.075 326.306C158.611 326.306 159.057 326.44 159.415 326.708C159.772 326.976 159.951 327.311 159.951 327.713C159.951 328.115 159.75 328.629 159.348 329.254C158.99 329.835 158.812 330.281 158.812 330.594C158.812 330.996 159.057 331.487 159.549 332.068C161.157 333.944 161.961 336.423 161.961 339.505C161.961 347.009 160.241 353.173 156.802 357.997C154.211 361.704 151.553 365.233 148.829 368.583C148.248 369.521 147.288 370.258 145.948 370.794C144.608 371.33 143.402 371.598 142.33 371.598C138.176 371.598 136.099 368.315 136.099 361.749ZM159.549 341.515C159.504 341.158 159.415 340.577 159.281 339.773C159.191 338.924 159.102 338.254 159.013 337.763C158.968 337.272 158.856 336.691 158.678 336.021C158.499 335.351 158.298 334.837 158.075 334.48C157.851 334.078 157.539 333.743 157.137 333.475C156.735 333.162 156.266 333.006 155.73 333.006C154.747 333.006 153.921 333.43 153.251 334.279C149.186 339.326 146.104 344.039 144.005 348.416C141.905 352.793 140.655 357.617 140.253 362.888C140.253 362.977 140.23 363.089 140.186 363.223C140.186 363.357 140.186 363.446 140.186 363.491C140.186 364.786 140.454 365.903 140.99 366.841C141.526 367.734 142.173 368.181 142.933 368.181C143.558 368.181 144.139 367.935 144.675 367.444C149.007 364.362 152.536 360.543 155.261 355.987C158.03 351.386 159.459 346.562 159.549 341.515ZM166.703 352.503C167.328 352.548 168.132 352.637 169.115 352.771C170.098 352.905 170.812 352.972 171.259 352.972C172.688 352.972 173.827 352.615 174.676 351.9C175.569 351.141 176.016 350.136 176.016 348.885C176.016 348.662 175.971 348.282 175.882 347.746C175.793 347.21 175.748 346.808 175.748 346.54C175.748 344.887 176.262 343.436 177.289 342.185C178.361 340.934 179.768 340.309 181.51 340.309C181.823 340.309 182.113 340.555 182.381 341.046C182.649 341.493 182.783 342.073 182.783 342.788V343.19C182.202 345.468 181.488 347.768 180.639 350.091C180.46 350.627 180.371 350.962 180.371 351.096C180.371 351.9 180.907 352.302 181.979 352.302C182.604 352.302 183.498 352.123 184.659 351.766C185.865 351.409 186.781 351.23 187.406 351.23C187.719 351.23 188.165 351.297 188.746 351.431C189.327 351.565 189.751 351.632 190.019 351.632C189.885 351.766 189.662 352.012 189.349 352.369C189.036 352.682 188.746 352.95 188.478 353.173C188.21 353.396 187.942 353.553 187.674 353.642C187.093 353.865 185.887 354.133 184.056 354.446C182.269 354.759 180.885 355.183 179.902 355.719C178.964 356.255 178.339 357.081 178.026 358.198C177.847 358.689 177.557 359.516 177.155 360.677C176.753 361.838 176.373 362.843 176.016 363.692C175.703 364.541 175.346 365.434 174.944 366.372C174.542 367.265 174.118 367.98 173.671 368.516C173.224 369.007 172.8 369.253 172.398 369.253C171.683 369.253 171.147 369.052 170.79 368.65C170.433 368.248 170.254 367.779 170.254 367.243C170.254 366.841 170.321 366.439 170.455 366.037L172.733 358.466C172.912 357.662 173.001 357.193 173.001 357.059C173.001 356.612 172.822 356.3 172.465 356.121C172.152 355.898 171.572 355.719 170.723 355.585L167.172 355.317C167.083 355.317 166.904 355.295 166.636 355.25C166.368 355.205 166.167 355.183 166.033 355.183C165.899 355.138 165.72 355.094 165.497 355.049C165.318 354.96 165.162 354.87 165.028 354.781C164.939 354.692 164.849 354.58 164.76 354.446C164.671 354.267 164.626 354.089 164.626 353.91C164.626 353.374 165.318 352.905 166.703 352.503Z" fill="#FEFEFE"/>
<path d="M90.8027 414.162C91.2587 414.795 91.4867 415.517 91.4867 416.328C91.4867 416.809 91.3473 417.417 91.0687 418.152C90.8153 418.887 90.4987 419.254 90.1187 419.254C89.9413 419.254 89.7893 419.051 89.6627 418.646C89.536 418.241 89.4727 417.797 89.4727 417.316C89.4727 417.063 89.4853 416.885 89.5107 416.784L89.0167 416.48C88.6873 416.252 88.244 416.024 87.6867 415.796C87.1547 415.568 86.6607 415.454 86.2047 415.454H86.1667C86.0653 415.454 85.9133 415.327 85.7107 415.074C85.5333 414.821 85.4447 414.593 85.4447 414.39C85.4447 414.086 85.4827 413.655 85.5587 413.098C85.66 412.515 85.7107 412.173 85.7107 412.072L85.3687 411.882C85.166 412.135 84.8493 412.566 84.4187 413.174C84.0133 413.757 83.6713 414.187 83.3927 414.466C83.114 414.745 82.8353 414.884 82.5567 414.884C82.3793 414.884 82.202 414.719 82.0247 414.39C81.8727 414.035 81.7967 413.757 81.7967 413.554V412.984C81.7967 412.883 81.7713 412.756 81.7207 412.604C81.67 412.452 81.594 412.287 81.4927 412.11C81.4167 411.907 81.366 411.755 81.3407 411.654C80.7327 412.135 80.4033 412.401 80.3527 412.452C80.1753 412.655 79.922 412.984 79.5927 413.44C79.2887 413.871 79.0353 414.2 78.8327 414.428C78.6553 414.656 78.3893 414.871 78.0347 415.074C77.68 415.277 77.3 415.378 76.8947 415.378C76.3373 415.378 75.9193 414.935 75.6407 414.048C75.362 413.136 75.2227 412.173 75.2227 411.16C75.2227 410.349 75.4887 408.462 76.0207 405.498C76.2233 404.307 76.7047 403.37 77.4647 402.686C77.5407 402.762 77.6547 402.876 77.8067 403.028C77.9587 403.18 78.0727 403.319 78.1487 403.446C78.25 403.573 78.3007 403.687 78.3007 403.788C78.3007 404.649 78.2373 407.018 78.1107 410.894C78.1107 411.071 78.136 411.299 78.1867 411.578C78.2627 411.857 78.3007 412.034 78.3007 412.11C78.3767 412.059 78.5033 411.996 78.6807 411.92C78.8833 411.844 79.0353 411.768 79.1367 411.692C79.2633 411.616 79.352 411.527 79.4027 411.426C79.6307 411.021 79.9347 410.4 80.3147 409.564C80.72 408.703 81.0493 408.057 81.3027 407.626C81.3533 407.474 81.442 407.335 81.5687 407.208C81.7207 407.081 81.898 406.942 82.1007 406.79C82.3033 406.638 82.4553 406.511 82.5567 406.41C82.6327 406.587 82.7467 406.828 82.8987 407.132C83.0507 407.436 83.152 407.702 83.2027 407.93C83.2787 408.158 83.3167 408.411 83.3167 408.69C83.3167 408.842 83.304 409.083 83.2787 409.412C83.2787 409.716 83.2787 409.944 83.2787 410.096C83.2787 410.197 83.2913 410.299 83.3167 410.4C83.3673 410.501 83.4307 410.615 83.5067 410.742C83.608 410.869 83.6713 410.957 83.6967 411.008C83.9753 410.805 84.2413 410.463 84.4947 409.982C84.748 409.501 85.0013 408.918 85.2547 408.234C85.5333 407.55 85.7487 407.069 85.9007 406.79C85.9767 406.663 86.3187 406.397 86.9267 405.992C87.0787 404.472 87.3573 403.712 87.7627 403.712C87.9653 403.712 88.1553 403.889 88.3327 404.244C88.51 404.573 88.5987 404.941 88.5987 405.346C88.5987 405.397 88.586 405.473 88.5607 405.574C88.5607 405.65 88.5607 405.701 88.5607 405.726C88.434 406.435 88.2313 407.525 87.9527 408.994C87.674 410.463 87.4713 411.591 87.3447 412.376C89.0927 412.832 90.2453 413.427 90.8027 414.162ZM98.3926 404.814C99.9886 404.966 100.787 405.713 100.787 407.056C100.787 407.335 100.774 407.55 100.749 407.702C100.622 408.335 100.457 409.589 100.255 411.464C100.052 413.339 99.8239 414.783 99.5706 415.796C99.3172 416.784 98.9752 417.278 98.5446 417.278C98.1139 417.278 97.7592 417.025 97.4806 416.518C97.2019 415.986 96.9866 415.467 96.8346 414.96C96.7079 414.428 96.6066 414.162 96.5306 414.162L95.5046 414.732C94.8206 415.112 94.2252 415.302 93.7186 415.302C93.1866 415.302 92.7432 415.112 92.3886 414.732C92.0339 414.352 91.8566 413.896 91.8566 413.364C91.8566 411.971 92.1986 410.615 92.8826 409.298C93.5666 407.981 94.4659 406.917 95.5806 406.106C95.8086 405.903 96.0619 405.739 96.3406 405.612C96.6192 405.46 96.9992 405.308 97.4806 405.156C97.9872 404.979 98.2912 404.865 98.3926 404.814ZM98.3926 408.044C98.0632 407.487 97.8352 407.183 97.7086 407.132C97.6326 407.107 97.5312 407.094 97.4046 407.094C96.8979 407.094 96.5939 407.183 96.4926 407.36C94.7192 409.691 93.8326 411.274 93.8326 412.11C93.8326 412.262 93.8832 412.439 93.9846 412.642C94.0859 412.819 94.2379 412.908 94.4406 412.908C94.8459 412.908 95.2512 412.68 95.6566 412.224C96.0872 411.768 96.6319 410.983 97.2906 409.868C97.9746 408.753 98.3419 408.145 98.3926 408.044ZM109.959 405.916C109.883 406.625 109.681 407.271 109.351 407.854C109.174 407.677 108.997 407.461 108.819 407.208C108.642 406.955 108.503 406.765 108.401 406.638C108.3 406.511 108.186 406.448 108.059 406.448C107.831 406.448 107.591 406.625 107.337 406.98C106.197 408.424 105.627 410.248 105.627 412.452C105.627 413.693 106.109 414.314 107.071 414.314C107.375 414.314 107.831 414.137 108.439 413.782C109.073 413.402 109.554 413.212 109.883 413.212C110.289 413.212 110.491 413.402 110.491 413.782C110.289 414.466 109.681 415.112 108.667 415.72C107.679 416.328 106.755 416.632 105.893 416.632C105.437 416.632 105.07 416.543 104.791 416.366C103.955 415.809 103.398 415.188 103.119 414.504C102.841 413.82 102.701 412.959 102.701 411.92C102.701 408.829 103.867 406.397 106.197 404.624C106.755 404.067 107.565 403.788 108.629 403.788C109.516 403.788 109.959 404.371 109.959 405.536V405.916ZM118.619 415.948C118.568 415.973 118.467 416.049 118.315 416.176C118.188 416.277 118.074 416.366 117.973 416.442C117.897 416.493 117.783 416.543 117.631 416.594C117.479 416.645 117.327 416.67 117.175 416.67C116.516 416.67 116.187 416.303 116.187 415.568C116.187 415.289 116.2 414.884 116.225 414.352C116.25 413.795 116.263 413.364 116.263 413.06C116.263 412.883 116.174 412.591 115.997 412.186C115.972 412.186 115.858 412.237 115.655 412.338C115.452 412.414 115.3 412.49 115.199 412.566C114.92 412.845 114.528 413.275 114.021 413.858C113.54 414.415 113.147 414.859 112.843 415.188C112.564 415.492 112.172 415.859 111.665 416.29C111.158 416.721 110.639 417.088 110.107 417.392C110.183 417.24 110.297 416.974 110.449 416.594C110.601 416.214 110.728 415.923 110.829 415.72L116.453 406.182C116.605 405.827 116.846 405.523 117.175 405.27C117.504 404.991 117.796 404.852 118.049 404.852C118.201 404.852 118.34 404.979 118.467 405.232C118.619 405.485 118.695 405.713 118.695 405.916C118.695 410.223 118.67 413.567 118.619 415.948ZM120.959 412.718C121.643 408.386 122.112 405.574 122.365 404.282C122.492 403.547 122.872 403.18 123.505 403.18C124.063 403.18 124.341 403.395 124.341 403.826C124.341 403.927 124.278 404.231 124.151 404.738C124.025 405.65 123.835 406.98 123.581 408.728C123.328 410.476 123.176 411.515 123.125 411.844C123.125 412.021 123.189 412.262 123.315 412.566C123.467 412.87 123.556 413.073 123.581 413.174C124.139 412.845 124.468 412.579 124.569 412.376C124.848 411.869 126.33 409.222 129.015 404.434C129.395 403.801 129.75 403.484 130.079 403.484C130.51 403.484 130.839 403.636 131.067 403.94C131.321 404.244 131.447 404.586 131.447 404.966C131.447 405.143 131.435 405.283 131.409 405.384C130.624 408.5 129.991 411.185 129.509 413.44C129.459 413.744 129.433 413.972 129.433 414.124C129.433 414.479 129.509 414.909 129.661 415.416C129.813 415.923 129.889 416.239 129.889 416.366C129.889 416.645 129.687 416.936 129.281 417.24C128.901 417.519 128.547 417.658 128.217 417.658C128.04 417.658 127.875 417.607 127.723 417.506C127.571 417.379 127.432 417.177 127.305 416.898C127.179 416.619 127.077 416.404 127.001 416.252C126.925 416.075 126.824 415.796 126.697 415.416C126.596 415.011 126.533 414.783 126.507 414.732L126.165 413.668L125.177 414.162C125.025 414.289 124.797 414.542 124.493 414.922C124.189 415.277 123.911 415.543 123.657 415.72C123.404 415.897 123.125 415.986 122.821 415.986C122.416 415.986 122.087 415.821 121.833 415.492C121.58 415.163 121.415 414.808 121.339 414.428C121.263 414.023 121.175 413.453 121.073 412.718H120.959ZM141.039 402.762C141.469 402.635 142.065 402.471 142.825 402.268C143.585 402.065 144.079 401.939 144.307 401.888H144.383L144.459 401.85C144.763 401.85 144.915 401.951 144.915 402.154C144.915 402.331 144.864 402.445 144.763 402.496C144.56 402.673 144.256 402.914 143.851 403.218C143.445 403.497 143.141 403.725 142.939 403.902C142.761 404.054 142.571 404.282 142.369 404.586C142.191 404.865 142.09 405.169 142.065 405.498C141.837 408.69 140.887 412.743 139.215 417.658C138.961 418.443 138.531 419.089 137.923 419.596C137.315 420.103 136.694 420.356 136.061 420.356C135.706 420.356 135.288 420.255 134.807 420.052C134.325 419.849 134.009 419.596 133.857 419.292C133.274 417.645 132.983 416.176 132.983 414.884C133.033 413.567 133.135 412.237 133.287 410.894C133.439 409.551 133.679 408.057 134.009 406.41C134.363 404.738 134.629 403.471 134.807 402.61C135.009 401.723 135.364 400.241 135.871 398.164C136.403 396.061 136.732 394.757 136.859 394.25C137.72 390.855 138.239 389.158 138.417 389.158C138.999 387.537 139.848 386.726 140.963 386.726C141.647 386.726 142.242 387.03 142.749 387.638C143.255 388.221 143.509 388.905 143.509 389.69C143.509 390.171 143.395 390.64 143.167 391.096C142.711 391.983 141.951 393.224 140.887 394.82C139.848 396.391 139.139 397.505 138.759 398.164V398.278C138.759 398.506 138.847 399.076 139.025 399.988C139.227 400.9 139.379 401.508 139.481 401.812C139.506 401.913 139.582 402.002 139.709 402.078C139.835 402.129 140.013 402.205 140.241 402.306C140.469 402.382 140.633 402.445 140.735 402.496L140.811 402.458C140.861 402.433 140.899 402.42 140.925 402.42C140.95 402.471 140.975 402.534 141.001 402.61C141.026 402.686 141.039 402.737 141.039 402.762ZM135.871 414.656H136.099C136.099 414.783 136.086 414.973 136.061 415.226C136.061 415.479 136.061 415.669 136.061 415.796C136.061 415.948 136.061 416.087 136.061 416.214C136.086 416.315 136.124 416.429 136.175 416.556C136.225 416.683 136.263 416.771 136.289 416.822C136.339 416.847 136.415 416.936 136.517 417.088C136.618 417.24 136.681 417.341 136.707 417.392C136.757 417.341 136.833 417.291 136.935 417.24C137.061 417.164 137.163 417.113 137.239 417.088C137.315 417.037 137.391 416.974 137.467 416.898C137.568 416.822 137.631 416.746 137.657 416.67C138.923 413.833 139.899 410.083 140.583 405.422C140.583 405.397 140.583 405.359 140.583 405.308C140.608 405.232 140.621 405.181 140.621 405.156C140.621 404.624 140.38 404.143 139.899 403.712C139.443 403.281 138.949 403.066 138.417 403.066C137.809 403.066 137.505 403.332 137.505 403.864C137.505 403.915 137.505 404.003 137.505 404.13C137.53 404.231 137.543 404.32 137.543 404.396C137.543 404.497 137.505 404.624 137.429 404.776C137.378 404.928 137.353 405.042 137.353 405.118L135.871 414.656ZM140.089 392.084C140.114 392.135 140.152 392.249 140.203 392.426C140.253 392.603 140.304 392.755 140.355 392.882C140.405 392.983 140.469 393.034 140.545 393.034C141.051 393.034 141.697 391.932 142.483 389.728V389.69C142.483 389.589 142.445 389.475 142.369 389.348C142.293 389.221 142.191 389.069 142.065 388.892C141.938 388.715 141.849 388.588 141.799 388.512C141.165 388.943 140.836 389.209 140.811 389.31C140.659 389.715 140.418 390.64 140.089 392.084ZM144.932 412.718C145.616 408.386 146.085 405.574 146.338 404.282C146.465 403.547 146.845 403.18 147.478 403.18C148.035 403.18 148.314 403.395 148.314 403.826C148.314 403.927 148.251 404.231 148.124 404.738C147.997 405.65 147.807 406.98 147.554 408.728C147.301 410.476 147.149 411.515 147.098 411.844C147.098 412.021 147.161 412.262 147.288 412.566C147.44 412.87 147.529 413.073 147.554 413.174C148.111 412.845 148.441 412.579 148.542 412.376C148.821 411.869 150.303 409.222 152.988 404.434C153.368 403.801 153.723 403.484 154.052 403.484C154.483 403.484 154.812 403.636 155.04 403.94C155.293 404.244 155.42 404.586 155.42 404.966C155.42 405.143 155.407 405.283 155.382 405.384C154.597 408.5 153.963 411.185 153.482 413.44C153.431 413.744 153.406 413.972 153.406 414.124C153.406 414.479 153.482 414.909 153.634 415.416C153.786 415.923 153.862 416.239 153.862 416.366C153.862 416.645 153.659 416.936 153.254 417.24C152.874 417.519 152.519 417.658 152.19 417.658C152.013 417.658 151.848 417.607 151.696 417.506C151.544 417.379 151.405 417.177 151.278 416.898C151.151 416.619 151.05 416.404 150.974 416.252C150.898 416.075 150.797 415.796 150.67 415.416C150.569 415.011 150.505 414.783 150.48 414.732L150.138 413.668L149.15 414.162C148.998 414.289 148.77 414.542 148.466 414.922C148.162 415.277 147.883 415.543 147.63 415.72C147.377 415.897 147.098 415.986 146.794 415.986C146.389 415.986 146.059 415.821 145.806 415.492C145.553 415.163 145.388 414.808 145.312 414.428C145.236 414.023 145.147 413.453 145.046 412.718H144.932ZM160.147 401.622C161.237 401.673 161.933 402.116 162.237 402.952C162.769 404.345 163.124 405.118 163.301 405.27C163.377 405.321 163.466 405.346 163.567 405.346C163.821 405.346 164.226 405.029 164.783 404.396C165.341 403.737 165.961 403.079 166.645 402.42C167.355 401.761 168.001 401.432 168.583 401.432C168.735 401.432 168.951 401.47 169.229 401.546C169.533 401.622 169.711 401.66 169.761 401.66C169.761 401.685 169.711 401.901 169.609 402.306C169.533 402.686 169.432 402.952 169.305 403.104C169.052 403.408 168.457 404.105 167.519 405.194C166.607 406.258 165.923 407.119 165.467 407.778C165.037 408.437 164.821 408.981 164.821 409.412C164.821 409.843 165.176 410.907 165.885 412.604C166.595 414.301 167.038 415.543 167.215 416.328C167.215 416.353 167.215 416.404 167.215 416.48C167.241 416.531 167.253 416.569 167.253 416.594C167.253 416.822 167.152 417.189 166.949 417.696C166.747 418.203 166.633 418.494 166.607 418.57C166.557 418.519 166.278 418.355 165.771 418.076C165.29 417.823 164.986 417.582 164.859 417.354C164.631 416.999 164.251 416.328 163.719 415.34C163.187 414.352 162.719 413.554 162.313 412.946C161.933 412.338 161.642 412.034 161.439 412.034C161.211 412.034 160.793 412.338 160.185 412.946C159.577 413.554 158.843 414.365 157.981 415.378C157.145 416.391 156.575 417.05 156.271 417.354C156.119 417.481 155.853 417.645 155.473 417.848C155.068 418.025 154.815 418.152 154.713 418.228C154.713 418.152 154.713 418.013 154.713 417.81C154.688 417.607 154.675 417.455 154.675 417.354C154.675 416.949 154.739 416.632 154.865 416.404C156.816 413.592 158.374 411.477 159.539 410.058C160.097 409.374 160.375 408.753 160.375 408.196C160.375 407.892 160.084 407.043 159.501 405.65C158.944 404.257 158.665 403.345 158.665 402.914C158.665 402.534 158.792 402.23 159.045 402.002C159.324 401.749 159.691 401.622 160.147 401.622ZM90.0905 433.95C90.7998 434.127 91.1545 434.583 91.1545 435.318C91.1545 437.649 90.1665 439.941 88.1905 442.196L86.8985 443.488C88.2665 444.121 89.5838 445.401 90.8505 447.326C92.1171 449.251 92.7505 450.683 92.7505 451.62C92.7505 452 92.6618 452.367 92.4845 452.722C92.3325 453.077 92.1425 453.254 91.9145 453.254C91.6865 453.254 91.5218 453.102 91.4205 452.798C90.7111 451.202 89.7991 449.758 88.6845 448.466C87.5698 447.149 86.3031 446.49 84.8845 446.49C84.6058 446.49 84.4031 446.503 84.2765 446.528C83.8711 448.428 83.1238 450.771 82.0345 453.558C82.0091 453.634 81.9458 453.697 81.8445 453.748C81.7685 453.824 81.6671 453.887 81.5405 453.938C81.4391 454.014 81.3631 454.077 81.3125 454.128C81.2871 454.077 81.1858 453.951 81.0085 453.748C80.8565 453.545 80.7678 453.393 80.7425 453.292C80.7171 453.165 80.6665 452.811 80.5905 452.228C80.5145 451.671 80.4258 451.265 80.3245 451.012C82.0218 441.943 83.1618 436.078 83.7445 433.418L84.5805 428.82C84.7071 428.085 85.0871 427.718 85.7205 427.718C86.6578 427.718 87.1265 428.136 87.1265 428.972C87.1265 429.023 87.1138 429.086 87.0885 429.162C87.0885 429.238 87.0885 429.289 87.0885 429.314C86.8605 430.783 86.6705 432.291 86.5185 433.836C86.3918 435.356 86.2271 436.8 86.0245 438.168C85.9485 438.371 85.9105 438.548 85.9105 438.7C85.9105 439.029 85.9865 439.447 86.1385 439.954C86.6198 439.599 86.8985 439.346 86.9745 439.194C87.1011 438.941 87.3545 438.282 87.7345 437.218C88.1398 436.129 88.4945 435.305 88.7985 434.748C89.1278 434.191 89.4571 433.912 89.7865 433.912C89.8118 433.912 89.8498 433.925 89.9005 433.95C89.9765 433.95 90.0398 433.95 90.0905 433.95ZM100.881 449.948C100.83 449.973 100.729 450.049 100.577 450.176C100.45 450.277 100.336 450.366 100.235 450.442C100.159 450.493 100.045 450.543 99.8927 450.594C99.7407 450.645 99.5887 450.67 99.4367 450.67C98.778 450.67 98.4487 450.303 98.4487 449.568C98.4487 449.289 98.4613 448.884 98.4867 448.352C98.512 447.795 98.5247 447.364 98.5247 447.06C98.5247 446.883 98.436 446.591 98.2587 446.186C98.2333 446.186 98.1193 446.237 97.9167 446.338C97.714 446.414 97.562 446.49 97.4607 446.566C97.182 446.845 96.7893 447.275 96.2827 447.858C95.8013 448.415 95.4087 448.859 95.1047 449.188C94.826 449.492 94.4333 449.859 93.9267 450.29C93.42 450.721 92.9007 451.088 92.3687 451.392C92.4447 451.24 92.5587 450.974 92.7107 450.594C92.8627 450.214 92.9893 449.923 93.0907 449.72L98.7147 440.182C98.8667 439.827 99.1073 439.523 99.4367 439.27C99.766 438.991 100.057 438.852 100.311 438.852C100.463 438.852 100.602 438.979 100.729 439.232C100.881 439.485 100.957 439.713 100.957 439.916C100.957 444.223 100.931 447.567 100.881 449.948ZM102.461 449.872C102.613 449.112 102.955 447.339 103.487 444.552C103.538 444.273 103.576 443.843 103.601 443.26C103.652 442.652 103.702 442.12 103.753 441.664C103.829 441.208 103.93 440.739 104.057 440.258C104.209 439.777 104.437 439.409 104.741 439.156C105.07 438.877 105.476 438.738 105.957 438.738C106.388 438.738 106.742 438.89 107.021 439.194C107.325 439.498 107.477 439.865 107.477 440.296V440.486C106.869 443.222 106.058 446.566 105.045 450.518C104.918 450.999 104.399 451.468 103.487 451.924C102.879 451.037 102.575 450.467 102.575 450.214V449.948C102.55 449.897 102.512 449.872 102.461 449.872ZM105.995 433.494C106.02 432.227 106.552 431.594 107.591 431.594C108.427 431.594 108.845 431.885 108.845 432.468L108.769 432.658C108.212 433.874 107.68 434.482 107.173 434.482C107.097 434.482 106.983 434.419 106.831 434.292C106.679 434.165 106.514 434.013 106.337 433.836C106.16 433.633 106.046 433.519 105.995 433.494ZM116.482 439.916C116.406 440.625 116.203 441.271 115.874 441.854C115.696 441.677 115.519 441.461 115.342 441.208C115.164 440.955 115.025 440.765 114.924 440.638C114.822 440.511 114.708 440.448 114.582 440.448C114.328 440.448 114.024 440.701 113.67 441.208C113.315 441.689 113.049 442.171 112.872 442.652H113.29C113.948 442.652 114.556 442.741 115.114 442.918C115.696 443.07 115.988 443.298 115.988 443.602C115.988 444.159 115.582 444.565 114.772 444.818C113.961 445.046 113.1 445.16 112.188 445.16C112.137 445.717 112.112 446.135 112.112 446.414C112.112 447.681 112.606 448.314 113.594 448.314C113.898 448.314 114.354 448.137 114.962 447.782C115.595 447.402 116.076 447.212 116.406 447.212C116.811 447.212 117.014 447.402 117.014 447.782C116.811 448.466 116.203 449.112 115.19 449.72C114.202 450.328 113.277 450.632 112.416 450.632C111.96 450.632 111.592 450.543 111.314 450.366C110.478 449.809 109.92 449.188 109.642 448.504C109.363 447.82 109.224 446.959 109.224 445.92C109.224 442.829 110.389 440.397 112.72 438.624C113.277 438.067 114.088 437.788 115.152 437.788C116.038 437.788 116.482 438.371 116.482 439.536V439.916ZM129.567 439.916H129.643C129.871 439.916 129.985 440.106 129.985 440.486C129.985 440.917 129.656 441.385 128.997 441.892C128.338 442.373 127.971 442.829 127.895 443.26C127.439 445.92 127.021 448.479 126.641 450.936C126.641 450.987 126.628 451.037 126.603 451.088C126.603 451.139 126.603 451.189 126.603 451.24C126.603 451.519 126.692 451.886 126.869 452.342C127.072 452.823 127.173 453.127 127.173 453.254C127.173 453.609 127.008 453.938 126.679 454.242C126.35 454.571 126.02 454.736 125.691 454.736C125.311 454.736 124.982 454.483 124.703 453.976C124.424 453.469 124.285 452.975 124.285 452.494C124.285 451.886 124.323 451.24 124.399 450.556C124.5 449.847 124.627 449.061 124.779 448.2C124.931 447.339 125.032 446.68 125.083 446.224C125.108 446.021 125.184 445.603 125.311 444.97C125.438 444.337 125.501 443.881 125.501 443.602C125.501 443.146 125.197 442.918 124.589 442.918H124.399C123.107 442.943 122.322 443.07 122.043 443.298C121.79 443.501 121.536 444.21 121.283 445.426C120.776 448.061 120.523 449.91 120.523 450.974C120.523 451.177 120.548 451.519 120.599 452C120.675 452.481 120.713 452.836 120.713 453.064C120.713 453.849 120.434 454.242 119.877 454.242C118.99 454.242 118.547 453.292 118.547 451.392C118.547 450.759 118.585 450.113 118.661 449.454C118.737 448.795 118.876 447.934 119.079 446.87C119.282 445.781 119.396 445.122 119.421 444.894C119.472 444.489 119.497 444.172 119.497 443.944C119.497 443.437 119.434 442.88 119.307 442.272C119.18 441.664 119.117 441.347 119.117 441.322C119.117 441.246 119.142 441.208 119.193 441.208C120.08 441.208 120.523 440.397 120.523 438.776C120.523 438.269 120.333 438.003 119.953 437.978C120.156 437.573 120.447 437.053 120.827 436.42C121.232 435.761 121.498 435.305 121.625 435.052C121.777 434.976 121.954 434.938 122.157 434.938C122.334 434.938 122.512 435.052 122.689 435.28C122.892 435.483 122.993 435.685 122.993 435.888C122.79 437.763 122.6 439.169 122.423 440.106C122.372 440.359 122.347 440.537 122.347 440.638C122.347 440.917 122.448 441.107 122.651 441.208C122.854 441.309 123.196 441.36 123.677 441.36C124.488 441.36 125.083 441.259 125.463 441.056C125.868 440.853 126.109 440.473 126.185 439.916C126.21 439.713 126.261 439.169 126.337 438.282C126.438 437.395 126.527 436.724 126.603 436.268C126.679 435.812 126.78 435.267 126.907 434.634C127.059 433.975 127.236 433.494 127.439 433.19C127.667 432.886 127.933 432.734 128.237 432.734C128.516 432.734 128.744 432.835 128.921 433.038C129.098 433.241 129.187 433.507 129.187 433.836C129.187 434.444 129.086 435.356 128.883 436.572C128.68 437.763 128.579 438.649 128.579 439.232C128.579 439.739 128.769 439.992 129.149 439.992C129.225 439.992 129.364 439.967 129.567 439.916ZM146.356 442.842C146.179 443.526 145.951 444.552 145.672 445.92C145.419 447.263 145.153 448.466 144.874 449.53C144.596 450.594 144.279 451.531 143.924 452.342C143.899 452.443 143.836 452.532 143.734 452.608C143.658 452.709 143.532 452.811 143.354 452.912C143.202 453.039 143.101 453.127 143.05 453.178C143.025 453.102 142.936 452.937 142.784 452.684C142.632 452.431 142.556 452.241 142.556 452.114C142.683 451.43 142.898 450.467 143.202 449.226C143.532 447.959 143.709 447.25 143.734 447.098L144.57 443.374C144.57 443.349 144.532 443.108 144.456 442.652C144.406 442.677 144.317 442.703 144.19 442.728C144.089 442.728 144 442.741 143.924 442.766C143.848 442.791 143.785 442.829 143.734 442.88C143.202 443.463 142.506 444.387 141.644 445.654C140.783 446.921 140.213 447.744 139.934 448.124C139.833 448.251 139.453 448.453 138.794 448.732C138.541 448.149 138.414 447.807 138.414 447.706C138.414 447.326 138.503 446.731 138.68 445.92C138.858 445.109 138.946 444.514 138.946 444.134C138.946 444.109 138.87 443.792 138.718 443.184C136.185 444.805 134.462 447.136 133.55 450.176C133.373 450.733 133.107 451.24 132.752 451.696C132.398 452.127 132.068 452.342 131.764 452.342C131.511 452.342 131.27 452.177 131.042 451.848C130.84 451.493 130.738 451.063 130.738 450.556V450.29C131.144 447.833 131.701 444.805 132.41 441.208C132.588 440.347 133.196 439.916 134.234 439.916C134.969 439.916 135.336 440.473 135.336 441.588C135.336 441.791 135.298 442.107 135.222 442.538C135.146 442.943 135.108 443.26 135.108 443.488C135.108 443.615 135.134 443.805 135.184 444.058C135.235 444.311 135.26 444.489 135.26 444.59C135.336 444.565 135.514 444.514 135.792 444.438C136.096 444.337 136.299 444.235 136.4 444.134C136.654 443.957 137.008 443.64 137.464 443.184C137.92 442.703 138.326 442.323 138.68 442.044C139.06 441.765 139.402 441.626 139.706 441.626C139.934 441.626 140.124 441.93 140.276 442.538C140.454 443.146 140.568 443.754 140.618 444.362C140.77 444.185 140.986 443.982 141.264 443.754C141.568 443.501 141.784 443.298 141.91 443.146C142.037 442.994 142.252 442.715 142.556 442.31C142.886 441.879 143.126 441.588 143.278 441.436C143.43 441.259 143.671 441.081 144 440.904C144.33 440.727 144.684 440.638 145.064 440.638C145.267 440.638 145.495 440.828 145.748 441.208C146.002 441.563 146.128 441.981 146.128 442.462V442.804H146.204C146.255 442.829 146.306 442.842 146.356 442.842ZM147.104 449.872C147.256 449.112 147.598 447.339 148.13 444.552C148.18 444.273 148.218 443.843 148.244 443.26C148.294 442.652 148.345 442.12 148.396 441.664C148.472 441.208 148.573 440.739 148.7 440.258C148.852 439.777 149.08 439.409 149.384 439.156C149.713 438.877 150.118 438.738 150.6 438.738C151.03 438.738 151.385 438.89 151.664 439.194C151.968 439.498 152.12 439.865 152.12 440.296V440.486C151.512 443.222 150.701 446.566 149.688 450.518C149.561 450.999 149.042 451.468 148.13 451.924C147.522 451.037 147.218 450.467 147.218 450.214V449.948C147.192 449.897 147.154 449.872 147.104 449.872ZM150.638 433.494C150.663 432.227 151.195 431.594 152.234 431.594C153.07 431.594 153.488 431.885 153.488 432.468L153.412 432.658C152.854 433.874 152.322 434.482 151.816 434.482C151.74 434.482 151.626 434.419 151.474 434.292C151.322 434.165 151.157 434.013 150.98 433.836C150.802 433.633 150.688 433.519 150.638 433.494ZM162.302 436.762C162.733 436.635 163.328 436.471 164.088 436.268C164.848 436.065 165.342 435.939 165.57 435.888H165.646L165.722 435.85C166.026 435.85 166.178 435.951 166.178 436.154C166.178 436.331 166.128 436.445 166.026 436.496C165.824 436.673 165.52 436.914 165.114 437.218C164.709 437.497 164.405 437.725 164.202 437.902C164.025 438.054 163.835 438.282 163.632 438.586C163.455 438.865 163.354 439.169 163.328 439.498C163.1 442.69 162.15 446.743 160.478 451.658C160.225 452.443 159.794 453.089 159.186 453.596C158.578 454.103 157.958 454.356 157.324 454.356C156.97 454.356 156.552 454.255 156.07 454.052C155.589 453.849 155.272 453.596 155.12 453.292C154.538 451.645 154.246 450.176 154.246 448.884C154.297 447.567 154.398 446.237 154.55 444.894C154.702 443.551 154.943 442.057 155.272 440.41C155.627 438.738 155.893 437.471 156.07 436.61C156.273 435.723 156.628 434.241 157.134 432.164C157.666 430.061 157.996 428.757 158.122 428.25C158.984 424.855 159.503 423.158 159.68 423.158C160.263 421.537 161.112 420.726 162.226 420.726C162.91 420.726 163.506 421.03 164.012 421.638C164.519 422.221 164.772 422.905 164.772 423.69C164.772 424.171 164.658 424.64 164.43 425.096C163.974 425.983 163.214 427.224 162.15 428.82C161.112 430.391 160.402 431.505 160.022 432.164V432.278C160.022 432.506 160.111 433.076 160.288 433.988C160.491 434.9 160.643 435.508 160.744 435.812C160.77 435.913 160.846 436.002 160.972 436.078C161.099 436.129 161.276 436.205 161.504 436.306C161.732 436.382 161.897 436.445 161.998 436.496L162.074 436.458C162.125 436.433 162.163 436.42 162.188 436.42C162.214 436.471 162.239 436.534 162.264 436.61C162.29 436.686 162.302 436.737 162.302 436.762ZM157.134 448.656H157.362C157.362 448.783 157.35 448.973 157.324 449.226C157.324 449.479 157.324 449.669 157.324 449.796C157.324 449.948 157.324 450.087 157.324 450.214C157.35 450.315 157.388 450.429 157.438 450.556C157.489 450.683 157.527 450.771 157.552 450.822C157.603 450.847 157.679 450.936 157.78 451.088C157.882 451.24 157.945 451.341 157.97 451.392C158.021 451.341 158.097 451.291 158.198 451.24C158.325 451.164 158.426 451.113 158.502 451.088C158.578 451.037 158.654 450.974 158.73 450.898C158.832 450.822 158.895 450.746 158.92 450.67C160.187 447.833 161.162 444.083 161.846 439.422C161.846 439.397 161.846 439.359 161.846 439.308C161.872 439.232 161.884 439.181 161.884 439.156C161.884 438.624 161.644 438.143 161.162 437.712C160.706 437.281 160.212 437.066 159.68 437.066C159.072 437.066 158.768 437.332 158.768 437.864C158.768 437.915 158.768 438.003 158.768 438.13C158.794 438.231 158.806 438.32 158.806 438.396C158.806 438.497 158.768 438.624 158.692 438.776C158.642 438.928 158.616 439.042 158.616 439.118L157.134 448.656ZM161.352 426.084C161.378 426.135 161.416 426.249 161.466 426.426C161.517 426.603 161.568 426.755 161.618 426.882C161.669 426.983 161.732 427.034 161.808 427.034C162.315 427.034 162.961 425.932 163.746 423.728V423.69C163.746 423.589 163.708 423.475 163.632 423.348C163.556 423.221 163.455 423.069 163.328 422.892C163.202 422.715 163.113 422.588 163.062 422.512C162.429 422.943 162.1 423.209 162.074 423.31C161.922 423.715 161.682 424.64 161.352 426.084Z" fill="#FEFEFE"/>
<path d="M1038.21 305.856C1038.61 308.201 1039.02 309.608 1040.16 309.608C1042.03 309.608 1044.11 305.722 1044.31 303.511C1044.31 302.305 1047.59 291.518 1048.8 287.364C1049.33 285.555 1050 284.014 1052.01 283.411C1052.42 283.411 1053.02 282.138 1053.02 281.736V281.602C1052.22 280.731 1051.95 279.927 1051.95 279.19C1051.95 277.515 1057.58 265.187 1057.58 260.631C1057.58 259.559 1056.7 259.693 1056.3 259.693C1054.36 259.693 1053.22 263.043 1052.35 265.254C1050.54 269.743 1048.6 273.964 1046.92 278.386C1045.92 280.999 1041.09 281.736 1038.82 281.736C1038.28 281.736 1037.74 281.669 1037.21 281.669C1037.48 280.999 1037.34 280.128 1037.61 279.525C1039.35 276.577 1044.78 264.584 1045.65 261.435V261.301C1045.65 260.899 1044.91 260.229 1044.64 259.693C1044.18 260.028 1043.64 260.43 1043.3 261.033C1041.16 265.656 1039.28 270.346 1036.94 274.835C1034.86 278.721 1032.79 282.674 1029.03 285.421C1028.36 285.756 1027.83 286.493 1027.83 287.163C1027.83 287.9 1028.03 289.441 1028.63 289.441C1030.64 289.441 1031.98 287.632 1033.79 287.096C1036.4 286.292 1039.95 284.952 1042.37 284.952C1043.24 284.952 1043.71 285.421 1043.71 286.359C1043.71 286.761 1043.64 287.23 1043.51 287.833C1042.84 289.977 1039.22 302.238 1038.21 305.856ZM1068.89 287.766C1068.69 287.565 1068.42 287.297 1068.22 287.163C1063.06 291.183 1056.16 296.342 1053.81 303.444C1053.61 304.047 1053.54 304.65 1053.54 305.186C1053.54 307.196 1054.88 309.809 1057.7 309.809C1060.11 309.809 1062.86 308 1064.6 305.99C1069.42 300.295 1074.25 294.6 1078.87 288.704C1080.81 286.225 1082.49 282.071 1082.49 279.793C1082.49 276.376 1079.94 274.165 1075.86 274.165C1073.64 274.299 1071.3 275.036 1069.16 275.036C1068.22 275.036 1067.82 274.701 1067.82 273.964C1067.82 272.49 1069.29 270.212 1070.03 268.068C1070.76 265.857 1072.17 264.986 1074.45 264.986H1075.12C1078.8 264.986 1081.89 263.445 1084.57 261.167C1085.17 260.765 1085.17 259.76 1085.44 259.09C1084.83 259.023 1084.1 258.755 1083.56 258.755H1083.29C1080.55 259.76 1076.53 261.837 1074.98 261.837C1073.04 261.837 1072.1 258.889 1069.96 258.889C1068.89 258.889 1067.75 259.559 1067.21 260.899C1065.27 265.656 1063.59 270.346 1061.72 275.17C1061.38 276.041 1061.12 276.979 1061.12 277.783C1061.12 278.922 1062.12 280.53 1063.59 280.53C1064.67 280.53 1065.6 279.659 1066.54 279.19C1069.16 277.917 1071.9 276.778 1074.98 276.778C1077.8 276.778 1079.41 277.649 1079.41 279.525C1079.41 281.133 1077.53 284.617 1076.12 286.493C1073.04 290.58 1070.03 294.466 1066.88 298.285C1064.8 300.697 1062.25 302.707 1059.98 304.918C1059.44 305.454 1058.3 305.454 1057.56 305.588C1057.5 305.052 1057.36 304.583 1057.36 304.047C1057.36 303.712 1057.43 303.377 1057.56 303.042C1059.57 296.744 1064.4 292.858 1068.89 287.766ZM1086.84 288.503C1086.17 288.704 1084.77 289.24 1084.77 289.91C1084.77 291.116 1086.24 291.116 1087.31 291.317L1090.86 291.585C1092.47 291.853 1093.14 292.121 1093.14 293.059C1093.14 293.461 1093.01 293.863 1092.87 294.466L1090.6 302.037C1090.46 302.439 1090.4 302.841 1090.4 303.243C1090.4 304.181 1091 305.253 1092.54 305.253C1094.75 305.253 1096.76 297.816 1098.17 294.198C1099.24 290.446 1104.26 290.848 1107.82 289.642C1108.69 289.374 1109.42 288.302 1110.16 287.632C1109.29 287.565 1108.42 287.23 1107.55 287.23C1105.67 287.23 1104 288.302 1102.12 288.302C1101.12 288.302 1100.51 287.9 1100.51 287.096C1100.51 286.828 1100.65 286.493 1100.78 286.091C1101.58 283.88 1102.32 281.535 1102.92 279.19V278.788C1102.92 277.247 1102.25 276.309 1101.65 276.309C1098.03 276.309 1095.89 279.458 1095.89 282.54C1095.89 283.277 1096.16 284.148 1096.16 284.885C1096.16 287.431 1094.21 288.972 1091.4 288.972C1090.13 288.972 1089.12 288.704 1086.84 288.503Z" fill="#FEFEFE"/>
<path d="M1039.13 341.916V341.536C1039.13 340.358 1038.71 339.788 1037.8 339.788C1037.27 339.788 1035.98 340.016 1035.37 340.624C1032.86 342.524 1031.87 345.108 1031.87 347.92C1031.87 349.782 1032.18 351.188 1033.96 352.366C1034.27 352.556 1034.65 352.632 1035.06 352.632C1036.77 352.632 1039.24 351.188 1039.66 349.782C1039.66 349.402 1039.51 349.212 1039.05 349.212C1038.1 349.212 1037.15 350.314 1036.24 350.314C1035.14 350.314 1034.8 349.592 1034.8 348.452C1034.8 346.476 1035.25 344.576 1036.51 342.98C1036.74 342.676 1036.96 342.448 1037.23 342.448C1037.65 342.448 1037.8 343.132 1038.52 343.854C1038.94 343.132 1039.05 342.714 1039.13 341.916ZM1056.41 344.842C1056.3 344.842 1056.22 344.804 1056.19 344.804V344.462C1056.19 343.436 1055.46 342.638 1055.12 342.638C1053.53 342.638 1052.96 343.968 1051.97 345.146C1051.59 345.602 1051.09 345.83 1050.68 346.362C1050.6 345.412 1050.26 343.626 1049.76 343.626C1048.7 343.626 1047.56 345.298 1046.46 346.134C1046.19 346.4 1045.74 346.4 1045.32 346.59C1045.28 346.21 1045.17 345.83 1045.17 345.488C1045.17 344.804 1045.39 344.196 1045.39 343.588C1045.39 342.79 1045.17 341.916 1044.29 341.916C1043.46 341.916 1042.66 342.22 1042.47 343.208C1041.86 346.286 1041.29 349.288 1040.8 352.29V352.556C1040.8 353.658 1041.37 354.342 1041.82 354.342C1042.43 354.342 1043.27 353.278 1043.61 352.176C1044.44 349.364 1046.34 346.742 1048.78 345.184C1048.85 345.488 1049 345.792 1049 346.134C1049 347.312 1048.47 348.528 1048.47 349.706C1048.47 350.048 1048.7 350.39 1048.85 350.732C1049.23 350.58 1049.76 350.466 1049.99 350.124C1051.32 348.376 1052.39 346.438 1053.79 344.88C1053.94 344.728 1054.29 344.728 1054.51 344.652C1054.55 344.88 1054.63 345.146 1054.63 345.374L1053.79 349.098C1053.41 350.732 1052.96 352.404 1052.61 354.114C1052.61 354.418 1052.96 354.798 1053.11 355.178C1053.41 354.912 1053.91 354.684 1053.98 354.342C1055.2 351.568 1055.62 347.996 1056.41 344.842ZM1056.4 361.524H1056.55C1056.55 361.828 1056.52 362.132 1056.52 362.398C1056.52 363.082 1056.9 363.652 1057.2 364.184C1057.62 363.842 1058.19 363.576 1058.38 363.196C1059.75 359.548 1059.97 355.558 1060.7 351.72C1060.81 351.302 1061.49 350.922 1061.8 350.922C1065.18 350.922 1067.19 343.816 1067.19 340.928C1067.19 339.902 1066.55 338.648 1065.26 338.648C1064.12 338.648 1063.13 340.51 1062.67 340.51C1062.33 340.51 1061.49 338.8 1060.28 338.8C1058.83 338.8 1059.18 341.65 1058.99 343.132C1058.64 346.058 1058.15 349.022 1057.69 351.91L1056.4 361.524ZM1063.93 347.236C1063.2 346.438 1062.37 345.716 1062.37 344.88C1062.37 344.804 1062.41 344.766 1062.41 344.69C1063.05 343.36 1064.12 340.358 1065.1 340.358C1065.33 340.358 1065.83 340.7 1065.83 341.118C1065.6 343.36 1064.84 345.374 1063.93 347.236ZM1074.88 340.814C1073.93 341.194 1072.82 341.46 1072.06 342.106C1069.86 343.702 1068.34 346.552 1068.34 349.364C1068.34 350.428 1069.1 351.302 1070.2 351.302C1071.46 351.302 1072.75 350.162 1073.01 350.162C1073.36 350.162 1073.55 353.278 1075.03 353.278C1076.51 353.278 1076.59 347.084 1077.23 343.702C1077.27 343.474 1077.27 343.246 1077.27 343.056C1077.27 341.726 1076.51 340.966 1074.88 340.814ZM1074.88 344.044C1073.74 345.754 1072.25 348.908 1070.92 348.908C1070.47 348.908 1070.32 348.3 1070.32 348.11C1070.32 347.046 1071.91 344.766 1072.98 343.36C1073.09 343.17 1073.51 343.094 1073.89 343.094C1074.38 343.094 1074.42 343.284 1074.88 344.044ZM1087.24 338.762C1087.2 338.686 1087.2 338.534 1087.13 338.42C1087.09 338.42 1086.98 338.496 1086.94 338.496C1086.48 338.268 1085.76 338.116 1085.68 337.812C1085.53 337.318 1084.96 334.81 1084.96 334.278V334.164C1086.33 331.77 1088.15 329.528 1089.37 327.096C1089.6 326.64 1089.71 326.184 1089.71 325.69C1089.71 324.132 1088.57 322.726 1087.17 322.726C1086.1 322.726 1085.19 323.6 1084.62 325.158C1084.47 325.158 1083.29 329.338 1083.06 330.25C1081.43 336.976 1079.41 343.93 1079.19 350.884C1079.19 352.328 1079.57 353.886 1080.06 355.292C1080.4 355.938 1081.62 356.356 1082.26 356.356C1083.52 356.356 1084.89 355.216 1085.42 353.658C1086.75 349.744 1087.96 345.716 1088.27 341.498C1088.38 340.054 1089.67 339.56 1090.97 338.496C1091.04 338.458 1091.12 338.268 1091.12 338.154C1091.12 337.926 1090.89 337.85 1090.66 337.85C1090.62 337.85 1090.55 337.888 1090.51 337.888C1089.41 338.192 1088.34 338.42 1087.24 338.762ZM1082.07 350.656L1083.56 341.118C1083.56 340.89 1083.75 340.662 1083.75 340.396C1083.75 340.206 1083.71 340.016 1083.71 339.864C1083.71 339.408 1083.82 339.066 1084.62 339.066C1085.68 339.066 1086.82 340.092 1086.82 341.156C1086.82 341.232 1086.79 341.346 1086.79 341.422C1086.22 345.26 1085.34 349.326 1083.86 352.67C1083.71 353.012 1083.21 353.164 1082.91 353.392C1082.53 352.822 1082.26 352.594 1082.26 351.796C1082.26 351.416 1082.3 351.036 1082.3 350.656H1082.07ZM1086.29 328.084C1086.52 327.096 1086.71 326.146 1087.01 325.31C1087.13 325.006 1087.62 324.778 1088 324.512C1088.23 324.892 1088.69 325.386 1088.69 325.69V325.728C1088.34 326.678 1087.51 329.034 1086.75 329.034C1086.52 329.034 1086.41 328.35 1086.29 328.084ZM1095.74 365.742C1096 365.818 1096.23 365.818 1096.46 365.818C1099.08 365.818 1101.74 362.322 1102.58 359.472C1103.68 355.634 1104.52 351.72 1105.31 347.844C1105.73 345.754 1106.11 343.246 1106.07 341.08C1106.07 340.396 1105.69 339.864 1104.74 339.864C1104.1 339.864 1103.72 340.168 1103.49 340.928C1103.03 342.296 1102.43 343.664 1101.82 344.994C1101.59 345.488 1101.17 345.716 1100.75 346.058C1100.6 345.716 1100.26 345.222 1100.18 344.804C1100.03 342.98 1100.03 341.08 1099.8 339.256C1099.77 338.838 1099.31 338.458 1098.97 338.078L1098.13 339.18C1098.09 339.256 1098.06 339.37 1098.06 339.484C1098.06 343.664 1098.7 348.034 1100.68 348.034C1101.21 348.034 1101.86 347.54 1102.54 347.198C1102.58 347.464 1102.69 347.73 1102.69 348.034C1102.69 348.946 1102.27 350.162 1102.05 351.074C1101.25 353.962 1100.6 356.888 1099.54 359.738C1098.63 362.132 1097.3 363.234 1095.4 363.234C1094.6 363.196 1093.65 363.044 1092.66 362.626L1089.7 361.448C1089.43 361.334 1089.16 361.41 1088.86 361.334C1088.94 361.676 1088.86 362.094 1089.01 362.246C1090.68 363.994 1092.32 365.78 1095.09 365.78C1095.28 365.78 1095.51 365.78 1095.74 365.742ZM1035.37 379.868C1036.48 378.842 1037.73 377.778 1039.02 377.208C1038.3 378.804 1037.58 380.21 1036.82 381.654C1036.29 382.642 1035.75 383.858 1035.75 385.112C1035.75 386.328 1036.29 387.468 1037.88 387.468C1039.82 387.468 1041.8 386.708 1043.73 386.176C1044.23 386.024 1044.46 385.264 1044.46 384.466C1044.46 383.63 1044.19 382.794 1043.81 382.794H1043.73C1041.8 383.364 1039.59 384.086 1037.73 384.086C1038.95 381.464 1040.85 379.488 1040.85 375.878C1040.85 374.7 1040.54 373.674 1039.59 373.674C1038.03 373.674 1036.21 375.46 1035.03 376.562C1034.58 376.98 1034.42 377.588 1034.42 378.234C1034.42 377.778 1034.39 379.982 1035.18 379.982C1035.22 379.982 1035.3 379.944 1035.37 379.868ZM1045.6 382.452C1045.6 385.682 1047.12 387.43 1049.67 387.43C1053.16 387.43 1056.36 382.87 1056.36 379.108C1056.36 377.854 1056.09 376.6 1055.56 375.346C1055.41 375.08 1054.99 374.852 1054.72 374.586C1054.11 374.89 1053.81 375.08 1053.81 375.65C1053.81 376.562 1054.34 377.322 1054.34 378.12C1054.34 380.21 1053.01 382.718 1051.87 384.694C1051.61 385.15 1050.54 385.378 1049.82 385.682C1049.52 385.112 1048.87 384.542 1048.87 383.972V383.858C1049.4 381.426 1049.93 378.918 1052.33 376.904C1052.48 376.828 1052.56 376.562 1052.56 376.334C1052.56 375.65 1051.72 375.346 1050.85 375.346C1047.54 375.346 1045.83 380.78 1045.6 382.452ZM1067.15 371.584C1065.32 371.584 1065.36 373.902 1063.61 373.902C1063.23 373.902 1062.85 373.674 1062.51 373.674C1060.16 373.674 1057.91 378.842 1057.91 381.008C1057.91 382.718 1058.45 383.478 1059.59 383.478C1059.97 383.478 1060.61 383.288 1060.95 383.288C1061.33 383.288 1061.45 383.516 1061.45 383.82C1061.45 384.694 1061.03 386.062 1060.69 386.974C1059.7 390.432 1058.86 393.928 1057.61 397.234C1056.96 398.906 1056.2 400.616 1054.65 401.68C1054.53 401.528 1054.42 401.452 1054.27 401.452C1053.7 401.452 1053.7 401.11 1053.7 401.034C1053.7 399.628 1054.49 398.07 1054.99 396.854C1056.2 393.928 1057.76 391.078 1059.36 388.304C1059.62 387.886 1059.78 387.392 1059.74 386.898C1059.74 386.518 1059.62 385.15 1058.98 385.15C1058.86 385.15 1058.75 385.226 1058.64 385.416C1055.9 390.09 1052.18 395.714 1052.18 401.414C1052.25 402.668 1052.67 404.834 1054.27 404.834C1054.42 404.834 1054.53 404.796 1054.65 404.606C1054.76 404.644 1054.84 404.644 1054.95 404.644C1055.82 404.644 1057.84 402.668 1058.75 401.452C1061.41 397.804 1062.59 393.434 1063.54 389.14C1064.41 385.15 1065.32 381.198 1066.31 377.246C1066.65 375.84 1067.26 374.548 1067.72 373.104C1067.79 372.914 1067.83 372.686 1067.83 372.458C1067.83 372.04 1067.68 371.698 1067.15 371.584ZM1060.5 381.616C1060.31 381.806 1060.12 381.882 1059.93 381.882C1059.59 381.882 1059.36 381.54 1059.36 381.084C1059.62 378.766 1060.5 376.752 1062.13 375.118C1062.28 374.966 1062.55 374.89 1062.82 374.89C1063.42 374.89 1063.46 375.384 1063.65 375.764C1063.16 378.12 1062.21 380.134 1060.5 381.616ZM1069.35 382.718H1069.47C1069.69 384.504 1069.92 385.986 1071.21 385.986C1072.24 385.986 1072.77 384.884 1073.57 384.162C1073.84 383.972 1074.25 383.82 1074.56 383.668L1074.9 384.732C1075.24 385.758 1075.66 387.658 1076.61 387.658C1077.26 387.658 1078.28 386.936 1078.28 386.366C1078.28 385.91 1077.83 385.036 1077.83 384.124C1077.83 383.896 1077.86 383.668 1077.9 383.44C1078.47 380.742 1079.12 378.082 1079.8 375.384C1079.84 375.232 1079.84 375.118 1079.84 374.966C1079.84 374.282 1079.38 373.484 1078.47 373.484C1077.98 373.484 1077.67 373.978 1077.41 374.434C1075.93 377.094 1074.52 379.716 1072.96 382.376C1072.77 382.718 1072.35 382.946 1071.97 383.174C1071.86 382.718 1071.52 382.338 1071.52 381.844C1071.86 379.45 1072.24 377.094 1072.54 374.738C1072.62 374.434 1072.73 374.13 1072.73 373.826C1072.73 373.522 1072.54 373.18 1071.9 373.18C1071.21 373.18 1070.87 373.636 1070.76 374.282C1070.23 377.094 1069.81 379.868 1069.35 382.718ZM1092.4 375.916C1092.24 375.954 1092.09 375.992 1091.98 375.992C1091.6 375.992 1091.41 375.726 1091.41 375.232C1091.41 373.484 1092.02 371.66 1092.02 369.836C1092.02 369.19 1091.6 368.734 1091.07 368.734C1089.51 368.734 1089.32 373.446 1089.01 375.916C1088.86 377.056 1088.03 377.36 1086.51 377.36C1085.59 377.36 1085.18 377.246 1085.18 376.638C1085.18 376.486 1085.21 376.296 1085.25 376.106C1085.52 374.738 1085.67 373.332 1085.82 371.888C1085.82 371.508 1085.37 370.938 1084.99 370.938C1084.8 370.938 1084.61 370.976 1084.45 371.052C1083.96 371.964 1083.35 372.876 1082.78 373.978C1083.2 374.016 1083.35 374.282 1083.35 374.776C1083.35 375.536 1083.35 377.208 1082.02 377.208C1081.98 377.208 1081.95 377.246 1081.95 377.322C1081.95 377.626 1082.33 378.652 1082.33 379.944C1082.33 380.248 1082.29 380.59 1082.25 380.894C1081.91 383.022 1081.38 385.302 1081.38 387.392C1081.38 388.722 1081.57 390.242 1082.71 390.242C1083.31 390.242 1083.54 389.786 1083.54 389.064C1083.54 388.418 1083.35 387.582 1083.35 386.974C1083.35 385.188 1083.77 383.212 1084.11 381.426C1084.61 378.956 1084.68 378.956 1087.23 378.918H1087.42C1088.03 378.918 1088.33 379.108 1088.33 379.602C1088.33 380.362 1088.03 381.312 1087.91 382.224C1087.65 384.276 1087.11 386.442 1087.11 388.494C1087.11 389.33 1087.68 390.736 1088.52 390.736C1089.13 390.736 1090 390.014 1090 389.254C1090 388.798 1089.43 388 1089.43 387.24C1089.43 387.126 1089.47 387.05 1089.47 386.936C1089.85 384.39 1090.27 381.844 1090.72 379.26C1090.95 377.93 1092.81 377.74 1092.81 376.486C1092.81 376.144 1092.7 375.916 1092.47 375.916H1092.4ZM1092.84 399.742C1093.11 399.818 1093.34 399.818 1093.57 399.818C1096.19 399.818 1098.85 396.322 1099.68 393.472C1100.79 389.634 1101.62 385.72 1102.42 381.844C1102.84 379.754 1103.22 377.246 1103.18 375.08C1103.18 374.396 1102.8 373.864 1101.85 373.864C1101.2 373.864 1100.82 374.168 1100.6 374.928C1100.14 376.296 1099.53 377.664 1098.92 378.994C1098.7 379.488 1098.28 379.716 1097.86 380.058C1097.71 379.716 1097.37 379.222 1097.29 378.804C1097.14 376.98 1097.14 375.08 1096.91 373.256C1096.87 372.838 1096.42 372.458 1096.07 372.078L1095.24 373.18C1095.2 373.256 1095.16 373.37 1095.16 373.484C1095.16 377.664 1095.81 382.034 1097.78 382.034C1098.32 382.034 1098.96 381.54 1099.65 381.198C1099.68 381.464 1099.8 381.73 1099.8 382.034C1099.8 382.946 1099.38 384.162 1099.15 385.074C1098.35 387.962 1097.71 390.888 1096.64 393.738C1095.73 396.132 1094.4 397.234 1092.5 397.234C1091.7 397.196 1090.75 397.044 1089.77 396.626L1086.8 395.448C1086.54 395.334 1086.27 395.41 1085.97 395.334C1086.04 395.676 1085.97 396.094 1086.12 396.246C1087.79 397.994 1089.42 399.78 1092.2 399.78C1092.39 399.78 1092.62 399.78 1092.84 399.742Z" fill="#FEFEFE"/>
<g clip-path="url(#clip0_525_1417)">
<path d="M832.039 94.9337C833.026 94.209 833.924 93.3047 835.001 92.7595C840.41 90.0473 845.722 87.1209 851.312 84.8578C869.199 77.6409 887.985 73.9849 907.057 71.7468C913.721 70.974 920.392 70.1456 927.048 69.3382C927.435 69.2948 927.809 69.2722 928.659 69.2058C926.582 71.3965 924.76 73.2468 922.986 75.1592C918.266 80.305 913.545 85.4508 908.874 90.6586C908.094 91.5209 907.646 92.693 907.047 93.7343L907.718 94.3888C908.575 93.817 909.59 93.4105 910.274 92.6942C914.621 88.021 918.851 83.2098 923.199 78.5366C925.684 75.8662 928.313 73.292 931.04 70.842C932.276 69.7422 933.983 69.194 935.336 68.2321C936.31 67.5281 937.145 66.5826 937.842 65.5754C938.007 65.3254 937.466 64.158 937.064 64.0422C927.622 61.0278 918.124 58.0967 908.647 55.1794C907.976 54.9749 907.014 54.668 906.572 54.9748C905.833 55.5045 905.282 56.4279 904.93 57.2742C904.862 57.4684 905.769 58.3086 906.336 58.5343C911.864 60.6053 917.412 62.6001 922.961 64.5948C923.328 64.7177 923.667 64.8822 923.999 65.3721C922.002 65.6379 920.004 65.9037 917.972 66.1766C903.262 68.096 888.566 69.9045 874.206 73.8229C862.83 76.9308 851.65 80.557 841.15 86.0422C838.283 87.5306 835.639 89.4957 833.042 91.4328C832.2 92.0738 831.836 93.3909 831.264 94.3906L832.053 94.9129L832.039 94.9337Z" fill="#FEFEFE"/>
</g>
<g clip-path="url(#clip1_525_1417)">
<path d="M875.696 312.611C876.228 313.084 876.886 313.488 877.241 314.085C885.348 327.968 898.19 333.927 913.614 335.195C928.843 336.406 943.448 333.25 957.575 327.878C968.761 323.61 979.828 319.026 990.942 314.526C991.469 314.294 991.928 313.937 992.956 313.325L986.061 311.296L986.163 310.588C986.695 310.463 987.264 310.209 987.79 310.223C991.556 310.276 995.413 309.899 999.072 310.554C1003.03 311.263 1003.67 313.419 1001.49 316.75C998.598 321.173 995.674 325.587 992.75 330C991.226 332.295 989.177 331.692 987.228 330.872C985.18 330.023 984.277 328.527 985.311 326.335C985.986 324.881 986.652 323.46 987.526 321.572C986.401 321.909 985.669 322.116 984.96 322.364C975.637 325.704 966.378 329.308 956.968 332.341C940.618 337.585 923.896 339.767 906.792 336.282C896.917 334.29 888.053 330.065 881.077 322.668C878.543 319.988 876.745 316.611 874.637 313.565C874.979 313.244 875.344 312.964 875.686 312.643L875.696 312.611Z" fill="#FEFEFE"/>
</g>
<g clip-path="url(#clip2_525_1417)">
<path d="M302.262 135.421C301.612 134.83 300.807 134.324 300.378 133.582C290.573 116.319 274.836 108.834 255.859 107.138C237.122 105.514 219.096 109.306 201.631 115.846C187.801 121.042 174.114 126.631 160.37 132.115C159.718 132.398 159.148 132.837 157.874 133.586L166.339 136.155L166.204 137.032C165.548 137.182 164.843 137.493 164.196 137.471C159.559 137.374 154.805 137.81 150.307 136.969C145.438 136.059 144.68 133.383 147.41 129.274C151.028 123.818 154.686 118.375 158.344 112.931C160.249 110.102 162.764 110.865 165.155 111.897C167.665 112.964 168.757 114.825 167.456 117.532C166.606 119.328 165.768 121.083 164.668 123.414C166.057 123.006 166.961 122.756 167.837 122.454C179.361 118.393 190.81 114.003 202.436 110.322C222.638 103.958 243.257 101.39 264.274 105.847C276.409 108.394 287.269 113.7 295.765 122.919C298.85 126.259 301.021 130.456 303.577 134.247C303.152 134.642 302.699 134.985 302.274 135.381L302.262 135.421Z" fill="#FEFEFE"/>
</g>
<g clip-path="url(#clip3_525_1417)">
<path d="M308.599 421.601C307.282 421.733 305.946 422.078 304.648 421.997C298.146 421.571 291.612 421.393 285.199 420.459C264.689 417.447 245.37 410.697 226.591 402.498C220.035 399.625 213.441 396.798 206.872 393.961C206.492 393.792 206.136 393.612 205.318 393.216C208.465 392.33 211.185 391.617 213.896 390.822C221.143 388.653 228.39 386.485 235.627 384.234C236.831 383.865 237.906 383.033 239.046 382.404L238.799 381.445C237.689 381.507 236.527 381.333 235.494 381.621C228.857 383.557 222.249 385.683 215.612 387.62C211.819 388.726 207.948 389.667 204.057 390.441C202.3 390.783 200.423 390.367 198.635 390.52C197.343 390.64 196.041 391.056 194.831 391.602C194.538 391.742 194.374 393.1 194.677 393.421C201.642 401.25 208.704 409.031 215.755 416.789C216.255 417.337 216.964 418.134 217.544 418.091C218.522 418.003 219.551 417.456 220.353 416.871C220.526 416.73 220.168 415.475 219.775 414.963C215.872 410.101 211.906 405.297 207.94 400.492C207.673 400.183 207.455 399.851 207.427 399.224C209.411 400.054 211.396 400.884 213.417 401.727C228.01 407.874 242.528 414.115 257.932 418.248C270.135 421.517 282.454 424.209 295.2 424.835C298.675 425.014 302.215 424.638 305.696 424.262C306.832 424.129 307.912 423.121 309.003 422.514L308.574 421.613L308.599 421.601Z" fill="#FEFEFE"/>
</g>
<defs>
<clipPath id="clip0_525_1417">
<rect width="83.7309" height="73.2645" fill="white" transform="matrix(-0.551977 0.83386 0.83386 0.551977 877.218 24.4268)"/>
</clipPath>
<clipPath id="clip1_525_1417">
<rect width="123" height="51" fill="white" transform="translate(885.396 277) rotate(16.3961)"/>
</clipPath>
<clipPath id="clip2_525_1417">
<rect width="151.381" height="63.2142" fill="white" transform="translate(289.857 179.454) rotate(-163.117)"/>
</clipPath>
<clipPath id="clip3_525_1417">
<rect width="90.7608" height="77.2851" fill="white" transform="matrix(0.902982 -0.429679 -0.429679 -0.902982 227.208 461.785)"/>
</clipPath>
</defs>
</svg>
