<svg width="140" height="109" viewBox="0 0 140 109" fill="none" xmlns="http://www.w3.org/2000/svg">
<mask id="mask0_224_89" style="mask-type:luminance" maskUnits="userSpaceOnUse" x="0" y="0" width="140" height="109">
<path d="M139.42 0H0V108.287H139.42V0Z" fill="white"/>
</mask>
<g mask="url(#mask0_224_89)">
<path fill-rule="evenodd" clip-rule="evenodd" d="M78.7231 43.5263C75.763 43.7322 72.8028 44.273 70.1047 45.071C68.664 45.4831 68.3757 45.5088 67.8781 45.1998C65.756 43.8611 55.6969 43.3976 51.4791 44.4788C50.2479 44.7879 47.7592 45.4058 45.9254 45.8178C42.2841 46.6932 38.5381 47.9804 36.7042 49.0361C35.1324 49.9372 33.1678 51.8682 32.2772 53.3617C31.8842 54.0309 31.3341 55.4211 31.0721 56.4512C30.7315 57.8415 30.3909 58.5626 29.7885 59.1286C29.186 59.7465 28.9239 60.2617 28.793 61.2918C28.6359 62.3988 28.4262 62.7847 27.5618 63.6346C26.9593 64.175 26.383 64.6384 26.2782 64.6384C26.1734 64.6384 25.7281 65.128 25.2826 65.7198C24.0777 67.342 24.3135 69.711 25.8066 70.7404C26.5401 71.2557 26.4615 71.7705 25.6232 71.9763C24.654 72.2083 24.4198 72.8061 24.4198 73.3983C24.4198 73.6607 24.7015 73.5606 25.1244 73.4103C25.4078 73.3097 25.7546 73.1869 26.1225 73.1351C26.7775 73.0319 27.0395 73.347 27.0395 73.5272C27.0395 73.6817 25.7296 74.0933 24.9437 74.1708C23.4244 74.3766 22.3748 74.9888 22.0081 76.1733C21.7724 76.997 22.1129 78.7994 22.5583 78.9796C22.7417 79.057 23.9466 78.4648 25.2041 77.6925C27.3521 76.3791 29.0288 75.4523 29.2907 75.4523C29.3431 75.4523 29.4742 75.9158 29.5527 76.4566C29.7361 77.9239 30.6791 78.9796 32.5654 79.8551C35.1587 81.0909 37.7522 81.2967 43.3582 80.7563C50.8766 80.0096 76.5227 79.2372 80.8974 79.5975C84.8795 79.9321 88.5734 80.2929 90.7472 80.6019C91.7952 80.7301 94.1006 80.8847 95.8557 80.9108C98.8946 80.9878 99.104 80.9365 101.121 80.1384C103.819 79.0828 105.287 78.0271 105.863 76.7394C106.125 76.1733 106.413 75.7099 106.491 75.7099C106.937 75.7099 108.561 76.6624 109.451 77.4348C109.976 77.8982 110.526 78.2841 110.683 78.2841C110.814 78.2841 111.469 77.4348 112.15 76.4048C113.565 74.2164 114.508 73.1608 115.346 72.8519C116.341 72.4659 116.001 72.1564 114.377 71.9763C112.385 71.7448 111.207 71.9763 111.207 72.6204C111.207 73.3152 110.526 73.7017 109.373 73.7017C108.116 73.6756 107.801 73.5211 107.801 72.8775C107.801 72.3627 108.508 71.8475 109.268 71.8475C109.897 71.8475 112.438 70.6378 113.8 69.6848C115.005 68.8355 115.922 67.3934 115.922 66.3639C115.922 66.003 115.686 65.4626 115.372 65.128L114.848 64.5101L115.267 65.205C116.21 66.6985 114.56 68.8611 111.338 70.3545C109.268 71.307 109.242 71.307 101.776 70.8437C99.2351 70.6891 95.7773 70.2771 93.3931 69.8393C88.023 68.8355 79.8761 68.372 68.7684 68.3976H68.7601C59.5735 68.4491 59.466 68.4495 48.9904 70.4315C45.8992 71.0237 44.9824 71.0752 39.0358 71.0752C35.2373 71.0752 31.8318 71.1783 30.941 71.3328C28.8978 71.7192 27.8237 71.4872 26.5925 70.3802C24.654 68.6809 24.8112 66.6727 26.9593 65.0762C28.0595 64.2268 28.1643 64.2268 28.1643 64.9473C28.1905 66.5183 30.1029 69.0155 31.8056 69.711C33.325 70.3545 36.3114 70.4315 38.2499 69.9168C39.8217 69.5047 40.0312 69.5047 41.0005 69.8912C43.8297 70.9981 47.7854 69.9425 50.2216 67.4195C50.8241 66.8016 51.0075 66.724 51.6101 66.9561C52.6057 67.342 54.8061 67.2651 57.1115 66.8016C58.9448 66.4409 59.2858 66.4409 60.8836 66.8016C63.7916 67.4451 65.3633 67.7284 66.2798 67.7284C67.852 67.7284 71.7026 66.6985 73.2481 65.8743L74.7154 65.0762L76.4705 65.7459C79.0902 66.7755 81.4478 66.724 84.8795 65.5139C86.3202 64.9992 87.6825 64.5358 87.9181 64.4583C88.1801 64.3813 88.5734 64.7159 89.0449 65.4108C90.0141 66.8786 92.4239 68.3463 94.4938 68.758C97.9255 69.4277 102.51 68.9124 103.531 67.7541C103.924 67.2907 104.003 67.2907 105.679 68.063C107.147 68.758 107.696 68.8868 109.504 68.8868C111.181 68.8868 111.81 68.758 112.726 68.2945C114.036 67.6253 114.377 66.9299 114.167 65.4369C114.062 64.6384 114.114 64.3813 114.377 64.3813C114.613 64.3557 114.56 64.2268 114.219 63.9692C113.774 63.6346 113.696 63.2743 113.696 61.2143C113.696 59.1029 113.617 58.6652 112.91 57.301C112.491 56.4512 111.573 55.2154 110.893 54.5199C109.347 53.0009 102.615 48.6498 99.8115 47.3625C92.9482 44.2214 86.2419 42.9856 78.7231 43.5263ZM78.3304 44.7364C78.0558 44.8164 77.7096 44.9197 77.3467 45.0281C76.7744 45.1991 76.1593 45.3828 75.7107 45.5088C74.4011 45.895 73.9558 46.0751 66.8041 49.448C62.7958 51.3273 60.9358 51.9457 59.3381 51.9195C58.6044 51.8938 58.4211 51.7912 58.4211 51.4048C58.4211 50.6838 63.9488 47.8774 67.616 46.7446C72.253 45.3028 76.4966 44.4017 78.5921 44.3502H79.64L78.3304 44.7364ZM56.5872 44.7364C55.7753 44.9423 53.3915 46.3327 50.4313 48.2895C47.4449 50.2977 43.8822 52.2803 43.2796 52.2803C42.8605 52.2803 42.5723 51.7394 42.5723 51.0186C42.5723 50.7611 43.2011 49.9888 43.9607 49.2678C46.3184 47.1051 49.3833 45.6375 53.1816 44.9423C54.8845 44.6334 57.7401 44.4531 56.5872 44.7364ZM65.1796 45.3801C66.1492 45.5345 66.9351 45.7405 66.9351 45.8435C66.9351 45.9207 66.3064 46.204 65.5727 46.4872C63.7916 47.0794 59.2591 49.448 58.1067 50.3234C57.0849 51.1216 57.0326 51.5592 57.8185 52.2803C59.1548 53.4905 62.036 52.7695 68.7684 49.448C71.55 48.0812 73.3594 47.4325 74.1338 47.155C74.2931 47.0979 74.4084 47.0565 74.4795 47.0278C74.8481 46.8792 75.0606 46.8003 75.4746 46.6673C75.904 46.5298 76.7369 46.2393 77.6094 45.9352C78.658 45.5694 79.7654 45.1837 80.2949 45.0196C81.2661 44.719 85.5881 44.7364 85.5881 44.7364C91.0898 45.1998 94.1006 45.689 93.0004 46.1267C92.7121 46.2297 91.9784 46.3327 91.3498 46.3327C89.3326 46.3842 86.2419 47.1565 83.4389 48.3409C80.3476 49.654 79.2474 50.478 79.2474 51.5336C79.2474 53.027 81.0808 52.9239 88.1541 51.0186C93.7863 49.4996 94.4672 49.3966 97.1657 49.551C101.278 49.8085 104.212 50.7611 107.278 52.795C110.971 55.241 112.779 57.8671 112.779 60.7252C112.779 62.0123 112.674 62.3212 112.071 62.9135C110.631 64.2525 109.294 64.5871 105.653 64.6127C102.038 64.6384 100.728 64.484 94.9653 63.5057C90.2235 62.6821 82.8885 62.038 76.7588 61.8835L76.0913 61.8682C73.2989 61.8018 72.314 61.7788 71.3328 61.8255C70.7976 61.8511 70.264 61.8974 69.4394 61.9691C69.1992 61.9897 68.9345 62.0129 68.6379 62.038C67.1967 62.1668 63.7127 62.3988 60.9097 62.5532C53.9414 62.9391 52.92 63.0167 50.9551 63.3256C46.3184 64.0466 39.3764 64.8191 35.8922 65.0249C35.1063 65.0762 33.7179 64.6646 32.0414 63.9435C30.7315 63.3769 30.4957 63.1456 30.1029 62.1412C29.6837 61.0855 29.6837 60.9309 30.0766 60.1073C30.3124 59.6182 30.6267 59.2318 30.7578 59.2318C30.8625 59.2318 31.0459 59.7984 31.1507 60.4676C31.3079 61.7551 31.9104 62.8365 32.2509 62.5014C32.3557 62.3988 32.3033 61.5746 32.1461 60.6739C31.7269 58.485 31.7532 57.2749 32.2509 55.6274C33.2987 52.1771 36.4162 49.4996 41.4196 47.7744C43.8821 46.9249 44.93 46.6932 44.93 47.0021C44.93 47.0794 44.2228 47.826 43.3582 48.6498C42.0221 49.9372 41.7864 50.2977 41.7864 51.0959C41.7864 52.2028 42.5461 53.0526 43.5154 53.0526C44.406 53.0526 46.1874 52.0484 51.0599 48.8301C55.0416 46.2297 57.925 44.9423 60.0471 44.9423C60.1313 44.9423 60.2194 44.9415 60.3145 44.9406C61.1076 44.9326 62.3494 44.9202 65.1796 45.3801ZM98.3443 47.929C99.0779 48.2379 99.6805 48.5726 99.6805 48.7014C99.6805 48.8301 98.1871 48.9074 96.3533 48.9074C93.1053 48.8817 92.8433 48.9074 87.2893 50.3234C81.2645 51.8425 80.2949 51.997 80.2949 51.4048C80.2949 50.478 84.8267 48.4439 88.966 47.517C91.4809 46.9506 96.5893 47.1824 98.3443 47.929ZM77.3347 63.3513C79.2735 64.3557 81.0286 64.5358 82.9147 63.9948C84.7485 63.4287 87.1061 63.1969 87.1061 63.5833C87.1061 64.4583 81.7883 66.0806 79.5618 65.8485C77.4135 65.6171 73.196 63.4802 73.6152 62.8104C73.9558 62.3212 75.8417 62.5789 77.3347 63.3513ZM83.3861 63.0423C83.7004 63.1456 83.7004 63.2224 83.2818 63.5315C82.2859 64.2268 78.0161 63.7116 77.7278 62.8365C77.6229 62.5789 78.1205 62.5532 80.2949 62.7077C81.7883 62.8104 83.1767 62.9391 83.3861 63.0423ZM68.2447 63.0937C68.2447 63.4287 67.2494 63.9179 66.9351 63.7378C66.3586 63.3769 66.6729 62.8365 67.4588 62.8365C67.9043 62.8365 68.2447 62.9391 68.2447 63.0937ZM69.3971 62.991C69.6071 63.068 70.0802 63.5315 70.0013 63.7378C69.9663 63.8291 70.2013 63.788 70.4937 63.7372C70.8582 63.6736 71.3114 63.5945 71.4424 63.7378C71.6461 63.9578 70.865 64.584 70.4718 64.8991C70.3601 64.9889 70.2791 65.0536 70.2618 65.0762C69.7642 65.5397 64.8391 65.8743 64.8391 65.4369C64.8391 65.4056 64.8261 65.3159 64.8083 65.1911C64.7373 64.701 64.5885 63.6699 64.8391 63.5057C65.3368 63.1456 66.3602 64.0466 66.7268 64.3813C66.8494 64.4895 66.9508 64.6055 67.0458 64.7144C67.3554 65.0696 67.5967 65.3461 68.299 65.0306C68.8515 64.7837 68.8003 64.4367 68.7026 63.7732L68.6902 63.6859C68.533 62.8365 68.664 62.7077 69.3971 62.991ZM29.7361 64.0205C29.7361 64.9992 30.3909 66.2863 31.1768 66.9042C32.2248 67.7023 34.0846 67.6766 35.2635 66.8273C36.5733 65.9004 37.1497 65.6941 38.9572 65.5397C40.8434 65.3595 41.3935 65.5915 41.1314 66.4152C40.5289 68.3463 38.1713 69.5303 35.0539 69.5303C32.4081 69.5303 30.3909 68.372 29.4479 66.312C28.9763 65.3082 28.793 63.6089 29.1073 63.2743C29.4218 62.991 29.7361 63.3769 29.7361 64.0205ZM61.1719 63.6089C61.1719 63.9179 59.3902 65.0505 57.8712 65.6941C56.3779 66.3639 53.3655 66.5953 51.8197 66.1837C50.2479 65.7715 48.5974 64.9736 48.5974 64.6384C48.5974 64.3038 48.7022 64.3038 49.8287 64.7673C50.3264 64.9736 51.2957 65.1537 51.9768 65.1537C53.2082 65.1537 55.4087 64.3557 55.4087 63.8922C55.4087 63.557 56.3518 63.4287 59.0236 63.3769C60.2811 63.3769 61.1719 63.4544 61.1719 63.6089ZM63.2152 64.0205C63.2674 64.2781 63.5033 64.6646 63.7389 64.8447C64.001 65.0249 64.0532 65.2563 63.896 65.3851C63.5817 65.6941 61.1719 65.4108 61.1719 65.0762C61.1719 64.6646 62.5338 63.3256 62.8747 63.4287C63.0052 63.4802 63.189 63.7378 63.2152 64.0205ZM113.565 64.7929C113.827 66.003 113.8 66.312 113.433 66.8529C112.228 68.6809 108.273 68.6554 105.103 66.8273C103.374 65.8485 103.453 65.2825 105.287 65.5139C106.046 65.5915 107.199 65.9004 107.827 66.1837C110.081 67.1875 112.097 66.6472 112.385 64.9473C112.753 62.8365 113.145 62.7847 113.565 64.7929ZM53.9674 63.8404C54.3345 64.4327 51.0862 65.1019 50.5361 64.5614C50.2479 64.2781 50.5098 64.1237 51.7673 63.8922C53.3655 63.5833 53.7841 63.5833 53.9674 63.8404ZM89.9613 64.407C90.8782 65.6428 93.4196 67.1105 95.463 67.5997C97.454 68.063 99.9687 67.9599 101.907 67.3164C102.457 67.1362 102.981 67.0331 103.033 67.0844C103.322 67.342 102.641 67.7541 101.331 68.14C97.4273 69.2476 92.1356 67.9599 89.7519 65.2825C88.9922 64.407 88.6778 63.6089 89.1493 63.6089C89.2805 63.6089 89.6209 63.9692 89.9613 64.407ZM92.2682 64.1293C92.6876 64.7734 91.6641 65.0249 90.8783 64.5101C90.3284 64.175 90.2495 64.0205 90.5378 63.8404C91.0093 63.557 91.9278 63.5889 92.2682 64.1293ZM32.2248 65.0249C33.0892 65.3595 34.1109 65.6684 34.53 65.6684C34.9229 65.6684 35.2373 65.7715 35.2373 65.8743C35.2373 65.9774 34.9229 66.2607 34.53 66.4665C33.1678 67.2132 30.8102 66.2863 30.4435 64.8704C30.2862 64.2525 30.3386 64.2525 32.2248 65.0249ZM98.4247 64.9017C98.8435 65.2624 97.1657 65.5652 95.9345 65.4626C95.0437 65.3851 94.3115 64.876 94.1021 64.5158C93.84 64.0523 94.0761 64.078 95.6739 64.2581C96.5908 64.3356 98.3198 64.7991 98.4247 64.9017ZM112.254 64.7159C112.254 65.823 109.95 66.5953 108.561 65.9774L107.67 65.5915L108.849 65.3595C109.504 65.2306 110.316 64.9473 110.683 64.7673C111.521 64.3038 112.254 64.2781 112.254 64.7159ZM73.7458 64.8704C73.7458 65.2563 70.0524 66.6472 68.5069 66.8273C66.3586 67.0844 60.1238 66.3639 60.1238 65.8743C60.1238 65.7198 60.3332 65.6941 60.5954 65.7972C61.4074 66.1319 67.5377 66.2607 69.4499 65.9517C70.4712 65.7972 71.8336 65.4369 72.4624 65.1537L72.5771 65.1039C73.431 64.7324 73.6633 64.6313 73.7248 64.6934C73.7484 64.7169 73.7473 64.7631 73.7464 64.8263V64.8478L73.7458 64.8704ZM46.4494 65.205C46.3708 65.3851 46.1089 65.5652 45.8207 65.6171C45.5586 65.6684 45.0872 66.003 44.7729 66.3381C44.3274 66.8786 44.1441 66.9299 43.5678 66.724C42.1531 66.1837 42.3627 65.4626 44.0655 65.1537C45.6897 64.8447 46.5542 64.8704 46.4494 65.205ZM48.5974 65.9004C48.5974 66.0287 47.9687 66.5183 47.2353 66.9818C46.0041 67.7541 45.6111 67.8567 43.6988 67.9599C42.3365 68.0112 41.5245 67.9343 41.5245 67.7798C41.5245 67.6253 42.1007 67.574 43.07 67.651C44.4845 67.7799 44.5895 67.7541 44.7466 67.2132C44.8251 66.8529 45.0609 66.6727 45.3754 66.724C46.1874 66.8529 46.9209 66.4665 47.2353 65.7715C47.4972 65.2306 47.6281 65.1793 48.0736 65.4108C48.3616 65.5652 48.5974 65.7972 48.5974 65.9004ZM101.986 65.6684C102.431 65.9517 102.824 66.2863 102.824 66.4152C102.824 66.6472 100.519 67.3677 100.361 67.1875C100.152 66.9299 99.9703 65.0306 100.259 65.0306C100.416 65.0306 101.514 65.3851 101.986 65.6684ZM93.84 65.2882C94.05 65.417 93.9696 65.9774 93.8645 66.0548C93.629 66.2863 92.6072 65.9517 92.6072 65.6428C92.6072 65.3338 93.3425 64.9791 93.84 65.2882ZM98.0314 66.9617C98.0314 67.245 97.1657 67.4195 97.0085 67.3677C96.8247 67.2907 96.3533 67.1875 95.9606 67.1105C94.8865 66.8786 94.993 66.0605 96.1981 66.0605C97.0624 66.0348 98.0314 66.5753 98.0314 66.9617ZM49.6454 66.9299C49.6454 67.7797 45.4015 69.7879 43.5939 69.7879C42.4937 69.7879 40.7386 69.3246 40.7386 69.0413C40.7386 68.9381 41.8912 68.758 43.3058 68.6554C45.5062 68.5265 46.0563 68.3976 47.5496 67.6253C49.4096 66.6472 49.6454 66.5696 49.6454 66.9299ZM70.2618 68.9124L70.2848 68.9144C72.3579 69.0931 72.3829 69.0951 72.1479 69.6848C71.6242 71.0495 72.5411 71.5903 75.3442 71.5903C77.3874 71.5903 78.1994 71.1013 78.1994 69.8655V69.1957L81.1596 69.3759C82.7575 69.479 85.6916 69.6592 87.6298 69.7623C89.5686 69.8912 91.8741 70.1745 92.7382 70.3802C93.603 70.586 95.1486 70.9206 96.1961 71.0752C97.5845 71.307 98.3443 71.5648 99.0518 72.1308C100.256 73.0576 102.116 73.1608 103.164 72.3627C103.689 71.9507 104.212 71.8475 105.679 71.8475H107.539L107.278 72.5173L107.24 72.6116C107.103 72.9637 107.03 73.151 107.077 73.3009C107.131 73.4708 107.341 73.5934 107.788 73.8541L107.88 73.9076C108.823 74.4998 110.368 74.5768 111.05 74.0876C111.285 73.9076 111.626 73.4698 111.81 73.1351C112.124 72.5173 113.565 72.0281 113.565 72.5429C113.565 72.6973 111.05 76.1476 110.526 76.7137C110.473 76.7655 109.976 76.5079 109.451 76.1476C107.906 75.1177 105.732 74.2422 104.003 73.9589C101.173 73.4954 97.0869 73.3665 93.8384 73.6498C92.0835 73.7787 89.9613 73.9589 89.1232 74.0363L87.6038 74.1652L87.787 72.9032C87.9181 71.8475 87.8658 71.5648 87.3944 71.1013C86.1891 69.9168 84.7485 70.6635 84.7485 72.4916C84.7485 73.1095 84.6175 73.7017 84.4602 73.7787C83.7265 74.2422 81.0547 74.1909 78.5137 73.6756C74.2701 72.8262 72.8028 72.7488 70.9167 73.2639C70.0263 73.5211 69.2139 73.6498 69.1355 73.573C69.0306 73.4954 69.2139 73.1351 69.4761 72.7749C70.1308 71.9763 69.9736 70.7148 69.2139 70.1745C68.533 69.711 66.8302 69.6592 66.4896 70.0969C66.3325 70.2771 66.0182 70.9982 65.756 71.7192C65.4939 72.414 65.1796 73.1095 65.0751 73.2121C64.9702 73.3409 63.6606 73.3152 62.1932 73.1608C60.5432 73.0063 58.9975 72.9806 58.29 73.1095C57.1637 73.3409 57.0849 73.3152 56.3256 72.4397C55.7753 71.7962 55.3037 71.5129 54.78 71.5129C53.7841 71.5129 52.789 72.0794 52.789 72.646C52.789 72.9032 52.6839 73.1608 52.5796 73.2383C52.4745 73.3152 49.8287 73.4184 46.7375 73.5211C43.6725 73.5985 40.1099 73.7274 38.8524 73.8044C36.8091 73.9331 36.5471 73.9076 36.3114 73.4441C35.6564 72.2083 32.9844 72.0794 32.2248 73.2383C31.8056 73.8818 30.7839 74.4223 30.0504 74.4223C29.4742 74.4223 25.9638 76.1733 24.3396 77.2547C23.6847 77.7181 23.1084 78.0271 23.0822 77.9752C23.0298 77.9495 22.9251 77.4605 22.8202 76.9457C22.663 76.0445 22.7154 75.9413 23.4489 75.478C23.8942 75.2203 24.9946 74.8601 25.8852 74.6799C26.7759 74.5255 27.8237 74.2165 28.2429 74.0107C28.8454 73.7017 28.9239 73.5472 28.6883 73.1351C27.0395 72.4973 26.5171 72.1939 28.4802 72.1113C28.6965 72.102 28.9862 72.0845 29.351 72.063L29.353 72.0625H29.3546C30.9787 71.9656 34.0913 71.7797 38.8786 71.8218C44.5108 71.8737 44.7729 71.8994 46.0041 72.4916C46.6852 72.8519 47.5759 73.1351 47.9426 73.1351C48.6237 73.1351 51.217 71.6674 51.217 71.2815C51.217 70.895 52.3174 70.5604 55.9585 69.8912C59.1809 69.2988 62.2982 68.99 67.0661 68.8098C67.6421 68.7837 69.0828 68.8355 70.2618 68.9124ZM76.2611 69.4277C76.8109 69.6848 77.1515 70.0199 77.1515 70.3545C77.1515 70.7923 76.9681 70.8437 75.1342 70.7661C72.9599 70.6891 72.5934 70.4058 73.4581 69.5566C74.1129 68.9124 75.056 68.8611 76.2611 69.4277ZM68.8734 70.9724L68.9168 71.0145C69.3982 71.4867 69.4013 71.4898 68.6379 72.4658C68.2708 72.9293 67.9826 73.573 67.9826 73.8561C67.9826 74.3453 68.1398 74.4223 68.9783 74.4223C69.502 74.4223 70.4712 74.2422 71.1266 74.0107C72.4624 73.5472 74.4795 73.6243 77.047 74.2935C80.0594 75.0401 82.1026 75.1947 83.8577 74.7312L85.4822 74.3196L85.5865 72.8262C85.7177 71.0495 85.901 70.818 86.6346 71.5129C87.1322 72.0281 87.1583 72.1051 86.7395 72.9032C86.163 74.0363 86.2153 74.6024 86.8967 74.7569C87.2111 74.8601 89.0711 74.7831 91.0093 74.6286C99.3134 73.9589 104.134 74.3453 105.025 75.7612C105.627 76.7137 103.505 78.4904 100.466 79.5718C98.973 80.1384 98.397 80.1897 95.6463 80.1384C93.9173 80.0866 91.6641 79.9577 90.6688 79.8033C81.7094 78.6193 78.802 78.5674 57.5042 79.1596C53.5487 79.2629 48.5974 79.5205 46.5018 79.752C44.406 79.984 41.0005 80.164 38.9048 80.1897C35.1587 80.2154 35.0802 80.1897 33.3774 79.4174C31.6747 78.6193 30.2601 77.2547 30.2601 76.4304C30.2601 75.89 30.8363 75.478 32.0151 75.0658C32.67 74.8344 33.0106 74.5768 33.0106 74.2422C33.0368 73.4698 33.4035 73.1351 34.2157 73.1351C34.8181 73.1351 35.1063 73.3152 35.4469 73.9331C35.6155 74.2257 35.7203 74.4074 35.8779 74.5132C36.1363 74.6871 36.5369 74.6568 37.595 74.5768C38.5381 74.4998 42.3889 74.3453 46.1612 74.2678L53.0244 74.0876L53.3388 73.3409C53.627 72.6204 54.2824 72.1051 54.8583 72.1051C55.0155 72.1051 55.4348 72.5686 55.8014 73.1095L56.4828 74.1133L59.1548 73.9844C60.7264 73.9076 62.4031 73.9589 63.2413 74.139C64.9441 74.4998 65.8871 74.139 66.2537 73.0063C66.9351 70.895 67.1706 70.5604 67.8254 70.5604C68.1663 70.5604 68.664 70.7406 68.8734 70.9724ZM49.9073 71.2815C49.9073 71.6416 47.9687 72.5429 47.4972 72.4397C46.9995 72.3114 46.9209 72.1308 47.2353 71.6929C47.5496 71.2039 49.9073 70.8437 49.9073 71.2815ZM101.383 71.8475C101.462 71.9763 101.357 72.1051 101.147 72.1051C100.938 72.1051 100.676 71.9763 100.597 71.8475C100.519 71.6929 100.624 71.5903 100.833 71.5903C101.043 71.5903 101.304 71.6929 101.383 71.8475ZM91.4286 71.1526C90.7999 71.6161 91.0621 72.7488 91.8741 72.9545C92.4767 73.1089 93.6557 72.5429 93.6557 72.1051C93.6557 71.7187 92.66 70.8174 92.2673 70.8174C92.0835 70.8174 91.7169 70.9719 91.4286 71.1526ZM92.6339 71.9763C92.6077 72.3623 92.0051 72.2853 91.8741 71.8988C91.7957 71.6674 91.9262 71.5642 92.1884 71.6416C92.4506 71.6674 92.6339 71.8218 92.6339 71.9763ZM2.87187 66.6676C4.16962 66.6676 5.22164 65.6336 5.22164 64.3582C5.22164 63.0829 4.16962 62.0487 2.87187 62.0487C1.57413 62.0487 0.522095 63.0829 0.522095 64.3582C0.522095 65.6336 1.57413 66.6676 2.87187 66.6676ZM138.375 64.3582C138.375 65.6336 137.323 66.6676 136.025 66.6676C134.728 66.6676 133.676 65.6336 133.676 64.3582C133.676 63.0829 134.728 62.0487 136.025 62.0487C137.323 62.0487 138.375 63.0829 138.375 64.3582Z" fill="#F8F8F8" stroke="#F8F8F8" stroke-width="0.379147"/>
<path d="M3.81196 107.004C3.72492 107.004 3.65095 106.975 3.59004 106.915C3.52911 106.855 3.49866 106.778 3.49866 106.684V103.707C3.49866 103.613 3.52911 103.536 3.59004 103.476C3.65095 103.416 3.72492 103.386 3.81196 103.386H4.05999C4.26885 103.386 4.44727 103.288 4.59522 103.091C4.74316 102.895 4.86066 102.617 4.94768 102.257C5.0347 101.889 5.09998 101.449 5.1435 100.936C5.18701 100.414 5.20877 99.8323 5.20877 99.1909V96.5479C5.20877 96.4539 5.23921 96.3769 5.30015 96.3168C5.36108 96.2568 5.43502 96.2271 5.52207 96.2271H11.3965C11.4922 96.2271 11.5705 96.2568 11.6315 96.3168C11.6924 96.3769 11.7229 96.4539 11.7229 96.5479V103.386H12.3364C12.4321 103.386 12.5105 103.416 12.5714 103.476C12.6323 103.536 12.6628 103.613 12.6628 103.707V106.684C12.6628 106.769 12.6323 106.842 12.5714 106.902C12.5105 106.97 12.4321 107.004 12.3364 107.004H10.9135C10.8178 107.004 10.7395 106.97 10.6785 106.902C10.6176 106.842 10.5871 106.769 10.5871 106.684V105.208H5.57428V106.684C5.57428 106.769 5.53945 106.842 5.46985 106.902C5.40891 106.97 5.3306 107.004 5.23487 107.004H3.81196ZM6.55336 103.386H9.64723V98.049H7.21913V99.4474C7.21913 100.431 7.16257 101.244 7.04943 101.885C6.93627 102.527 6.77095 103.027 6.55336 103.386Z" fill="#F8F8F8"/>
<path d="M18.3373 105.336C17.5453 105.336 16.8622 105.208 16.2878 104.951C15.7134 104.694 15.2652 104.31 14.9432 103.796C14.6211 103.274 14.4471 102.62 14.421 101.833C14.4123 101.465 14.408 101.102 14.408 100.743C14.408 100.375 14.4123 100.003 14.421 99.6265C14.4471 98.8566 14.6211 98.2111 14.9432 97.6892C15.2739 97.159 15.7265 96.7613 16.3008 96.496C16.8838 96.2305 17.5626 96.0981 18.3373 96.0981C19.1032 96.0981 19.7733 96.2305 20.3477 96.496C20.9306 96.7613 21.3876 97.159 21.7183 97.6892C22.049 98.2111 22.2231 98.8566 22.2405 99.6265C22.258 100.003 22.2666 100.375 22.2666 100.743C22.2666 101.102 22.258 101.465 22.2405 101.833C22.2144 102.62 22.0403 103.274 21.7183 103.796C21.3963 104.31 20.9481 104.694 20.3738 104.951C19.7993 105.208 19.1205 105.336 18.3373 105.336ZM18.3373 103.681C18.8421 103.681 19.2554 103.531 19.5775 103.232C19.9081 102.924 20.0822 102.436 20.0997 101.769C20.117 101.393 20.1257 101.042 20.1257 100.717C20.1257 100.383 20.117 100.033 20.0997 99.665C20.0909 99.2201 20.0082 98.8566 19.8516 98.5744C19.695 98.2922 19.4861 98.0868 19.225 97.9585C18.9725 97.8215 18.6766 97.7533 18.3373 97.7533C17.9978 97.7533 17.6976 97.8215 17.4365 97.9585C17.1755 98.0868 16.9665 98.2922 16.8099 98.5744C16.662 98.8566 16.5793 99.2201 16.5619 99.665C16.5531 100.033 16.5488 100.383 16.5488 100.717C16.5488 101.042 16.5531 101.393 16.5619 101.769C16.5881 102.436 16.762 102.924 17.084 103.232C17.406 103.531 17.8237 103.681 18.3373 103.681Z" fill="#F8F8F8"/>
<path d="M24.8661 105.208C24.7704 105.208 24.6921 105.178 24.6312 105.118C24.5702 105.058 24.5398 104.981 24.5398 104.887V96.5479C24.5398 96.4539 24.5702 96.3769 24.6312 96.3168C24.6921 96.2568 24.7704 96.2271 24.8661 96.2271H30.9756C31.0713 96.2271 31.1497 96.2568 31.2106 96.3168C31.2715 96.3769 31.3019 96.4539 31.3019 96.5479V97.6383C31.3019 97.7241 31.2715 97.7964 31.2106 97.8565C31.1497 97.9165 31.0713 97.9462 30.9756 97.9462H26.6154V99.7425H28.6389C29.6484 99.7425 30.4404 99.9862 31.0147 100.474C31.5978 100.961 31.8894 101.62 31.8894 102.45C31.8894 102.818 31.8154 103.168 31.6674 103.502C31.5281 103.835 31.3237 104.13 31.0538 104.387C30.784 104.644 30.4447 104.845 30.0356 104.99C29.6353 105.135 29.1698 105.208 28.6389 105.208H24.8661ZM26.6154 103.707H28.443C28.7214 103.707 28.9564 103.647 29.148 103.528C29.3482 103.408 29.4961 103.249 29.5918 103.053C29.6963 102.856 29.7484 102.646 29.7484 102.424C29.7484 102.082 29.6353 101.795 29.4091 101.564C29.1914 101.333 28.8695 101.218 28.443 101.218H26.6154V103.707Z" fill="#F8F8F8"/>
<path d="M34.0475 105.208C33.9517 105.208 33.8735 105.178 33.8126 105.118C33.7515 105.058 33.7212 104.981 33.7212 104.887V96.5479C33.7212 96.4539 33.7515 96.3769 33.8126 96.3168C33.8735 96.2568 33.9517 96.2271 34.0475 96.2271H37.6113C38.3162 96.2271 38.9255 96.3338 39.4389 96.5479C39.9611 96.7619 40.3657 97.0867 40.6529 97.5228C40.9488 97.9504 41.0968 98.4851 41.0968 99.1267C41.0968 99.7768 40.9488 100.316 40.6529 100.743C40.3657 101.163 39.9611 101.475 39.4389 101.68C38.9255 101.885 38.3162 101.988 37.6113 101.988H35.862V104.887C35.862 104.981 35.8316 105.058 35.7707 105.118C35.7098 105.178 35.6314 105.208 35.5357 105.208H34.0475ZM35.8229 100.397H37.546C37.9899 100.397 38.3337 100.29 38.5773 100.076C38.8296 99.8621 38.9559 99.5413 38.9559 99.1139C38.9559 98.7377 38.8428 98.4297 38.6165 98.19C38.3989 97.9504 38.0421 97.8308 37.546 97.8308H35.8229V100.397Z" fill="#F8F8F8"/>
<path d="M43.4073 105.208C43.3115 105.208 43.2332 105.178 43.1723 105.118C43.1113 105.058 43.0808 104.981 43.0808 104.887V96.5479C43.0808 96.4539 43.1113 96.3769 43.1723 96.3168C43.2332 96.2568 43.3115 96.2271 43.4073 96.2271H49.3209C49.4166 96.2271 49.4949 96.2568 49.5559 96.3168C49.6168 96.3769 49.6472 96.4539 49.6472 96.5479V97.5741C49.6472 97.66 49.6168 97.7322 49.5559 97.7923C49.4949 97.8523 49.4166 97.8821 49.3209 97.8821H45.0913V99.8965H49.0336C49.1295 99.8965 49.2077 99.9263 49.2686 99.9862C49.3295 100.046 49.36 100.123 49.36 100.217V101.167C49.36 101.252 49.3295 101.325 49.2686 101.385C49.2077 101.445 49.1295 101.475 49.0336 101.475H45.0913V103.553H49.4252C49.5211 103.553 49.5993 103.583 49.6602 103.643C49.7211 103.703 49.7516 103.78 49.7516 103.874V104.887C49.7516 104.981 49.7211 105.058 49.6602 105.118C49.5993 105.178 49.5211 105.208 49.4252 105.208H43.4073Z" fill="#F8F8F8"/>
<path d="M57.8268 105.208C57.7313 105.208 57.6529 105.178 57.5918 105.118C57.5312 105.058 57.5005 104.981 57.5005 104.887V98.0104H55.1245C55.0373 98.0104 54.9637 97.9806 54.9026 97.9207C54.8415 97.8606 54.8113 97.7883 54.8113 97.7025V96.5479C54.8113 96.4539 54.8415 96.3769 54.9026 96.3168C54.9637 96.2568 55.0373 96.2271 55.1245 96.2271H61.965C62.0611 96.2271 62.1388 96.2568 62.2 96.3168C62.261 96.3769 62.2914 96.4539 62.2914 96.5479V97.7025C62.2914 97.7883 62.261 97.8606 62.2 97.9207C62.1388 97.9806 62.0611 98.0104 61.965 98.0104H59.6022V104.887C59.6022 104.981 59.5719 105.058 59.5108 105.118C59.4496 105.178 59.3714 105.208 59.2758 105.208H57.8268Z" fill="#F8F8F8"/>
<path d="M63.665 105.208C63.5866 105.208 63.5214 105.183 63.4691 105.131C63.4169 105.071 63.3907 105.007 63.3907 104.939C63.3907 104.896 63.3949 104.858 63.4039 104.823L66.5108 96.5734C66.5369 96.4795 66.5892 96.3979 66.6674 96.3297C66.7458 96.2614 66.8543 96.2271 66.9937 96.2271H68.6647C68.8042 96.2271 68.9127 96.2614 68.9911 96.3297C69.0695 96.3979 69.1216 96.4795 69.1477 96.5734L72.2547 104.823C72.2635 104.858 72.2677 104.896 72.2677 104.939C72.2677 105.007 72.2416 105.071 72.1894 105.131C72.1373 105.183 72.0719 105.208 71.9936 105.208H70.636C70.5054 105.208 70.4098 105.178 70.3488 105.118C70.2877 105.058 70.2485 105.003 70.2313 104.952L69.6699 103.515H65.9886L65.4272 104.952C65.41 105.003 65.3709 105.058 65.3097 105.118C65.2487 105.178 65.1531 105.208 65.0226 105.208H63.665ZM66.4717 101.859H69.1738L67.8293 98.1644L66.4717 101.859Z" fill="#F8F8F8"/>
<path d="M81.2071 105.336C80.3889 105.336 79.6928 105.203 79.1185 104.938C78.553 104.665 78.1133 104.271 77.8 103.758C77.4866 103.236 77.3128 102.603 77.2778 101.859C77.269 101.508 77.2648 101.132 77.2648 100.73C77.2648 100.328 77.269 99.9432 77.2778 99.5751C77.3128 98.8397 77.4866 98.2152 77.8 97.702C78.1221 97.1801 78.5702 96.7822 79.1446 96.5087C79.719 96.2353 80.4067 96.0981 81.2071 96.0981C81.7904 96.0981 82.321 96.1711 82.7997 96.3163C83.2786 96.4616 83.6916 96.6714 84.0399 96.9449C84.3882 97.2185 84.6577 97.5393 84.8494 97.9072C85.041 98.2753 85.1454 98.6858 85.1626 99.139C85.1626 99.2159 85.1324 99.28 85.0712 99.3313C85.019 99.3828 84.9537 99.4083 84.8755 99.4083H83.3872C83.2828 99.4083 83.2003 99.3828 83.1392 99.3313C83.0782 99.28 83.0305 99.1943 82.9956 99.0748C82.8651 98.5703 82.6473 98.2238 82.3429 98.0355C82.0385 97.8471 81.6599 97.7533 81.2071 97.7533C80.6677 97.7533 80.2412 97.8986 79.9278 98.1894C79.6146 98.4805 79.4449 98.9634 79.4187 99.6393C79.3926 100.341 79.3926 101.059 79.4187 101.795C79.4449 102.471 79.6146 102.954 79.9278 103.245C80.2412 103.536 80.6677 103.681 81.2071 103.681C81.6599 103.681 82.0385 103.587 82.3429 103.399C82.6561 103.202 82.8739 102.856 82.9956 102.359C83.0305 102.231 83.0782 102.145 83.1392 102.103C83.2003 102.051 83.2828 102.026 83.3872 102.026H84.8755C84.9537 102.026 85.019 102.051 85.0712 102.103C85.1324 102.154 85.1626 102.218 85.1626 102.295C85.1454 102.748 85.041 103.159 84.8494 103.527C84.6577 103.895 84.3882 104.216 84.0399 104.489C83.6916 104.763 83.2786 104.973 82.7997 105.118C82.321 105.263 81.7904 105.336 81.2071 105.336Z" fill="#F8F8F8"/>
<path d="M87.6085 105.208C87.5213 105.208 87.443 105.178 87.3735 105.118C87.3124 105.058 87.2821 104.981 87.2821 104.887V96.5479C87.2821 96.4539 87.3124 96.3769 87.3735 96.3168C87.443 96.2568 87.5213 96.2271 87.6085 96.2271H88.8226C88.9531 96.2271 89.0487 96.2614 89.1097 96.3297C89.1792 96.3979 89.2272 96.4493 89.2533 96.4837L91.6553 100.833L94.0835 96.4837C94.1007 96.4493 94.1398 96.3979 94.201 96.3297C94.2704 96.2614 94.3706 96.2271 94.5012 96.2271H95.7152C95.8108 96.2271 95.889 96.2568 95.9502 96.3168C96.0113 96.3769 96.0416 96.4539 96.0416 96.5479V104.887C96.0416 104.981 96.0113 105.058 95.9502 105.118C95.889 105.178 95.8108 105.208 95.7152 105.208H94.3837C94.2966 105.208 94.2229 105.178 94.1617 105.118C94.1007 105.058 94.0704 104.981 94.0704 104.887V99.704L92.4125 102.758C92.3692 102.835 92.3122 102.903 92.2427 102.963C92.1733 103.023 92.0819 103.053 91.9686 103.053H91.3551C91.2418 103.053 91.1504 103.023 91.081 102.963C91.0115 102.903 90.9545 102.835 90.9112 102.758L89.2533 99.704V104.887C89.2533 104.981 89.223 105.058 89.162 105.118C89.1009 105.178 89.0273 105.208 88.94 105.208H87.6085Z" fill="#F8F8F8"/>
<path d="M98.0951 105.208C98.0169 105.208 97.9517 105.183 97.8994 105.131C97.8472 105.071 97.821 105.007 97.821 104.939C97.821 104.896 97.8258 104.858 97.8342 104.823L100.941 96.5734C100.967 96.4795 101.019 96.3979 101.098 96.3297C101.176 96.2614 101.285 96.2271 101.424 96.2271H103.095C103.234 96.2271 103.343 96.2614 103.421 96.3297C103.5 96.3979 103.552 96.4795 103.578 96.5734L106.685 104.823C106.694 104.858 106.698 104.896 106.698 104.939C106.698 105.007 106.672 105.071 106.62 105.131C106.567 105.183 106.502 105.208 106.424 105.208H105.066C104.936 105.208 104.84 105.178 104.779 105.118C104.718 105.058 104.679 105.003 104.662 104.952L104.1 103.515H100.419L99.8575 104.952C99.8403 105.003 99.8011 105.058 99.74 105.118C99.6795 105.178 99.5834 105.208 99.4528 105.208H98.0951ZM100.902 101.859H103.604L102.259 98.1644L100.902 101.859Z" fill="#F8F8F8"/>
<path d="M113.697 105.208C113.609 105.208 113.536 105.178 113.475 105.118C113.414 105.058 113.383 104.981 113.383 104.887V102.001C113.244 102.12 113.066 102.223 112.848 102.309C112.63 102.386 112.391 102.446 112.13 102.488C111.878 102.523 111.625 102.54 111.373 102.54C110.276 102.54 109.463 102.279 108.932 101.757C108.41 101.235 108.149 100.448 108.149 99.3961V96.5479C108.149 96.4539 108.179 96.3769 108.24 96.3168C108.301 96.2568 108.375 96.2271 108.462 96.2271H109.898C109.993 96.2271 110.072 96.2568 110.133 96.3168C110.194 96.3769 110.224 96.4539 110.224 96.5479V99.3063C110.224 99.7682 110.342 100.111 110.577 100.333C110.812 100.555 111.212 100.666 111.778 100.666C111.943 100.666 112.117 100.653 112.3 100.628C112.482 100.593 112.656 100.542 112.822 100.474C112.988 100.406 113.122 100.311 113.227 100.192C113.331 100.072 113.383 99.9221 113.383 99.7425V96.5479C113.383 96.4539 113.414 96.3769 113.475 96.3168C113.536 96.2568 113.609 96.2271 113.697 96.2271H115.133C115.228 96.2271 115.306 96.2568 115.368 96.3168C115.429 96.3769 115.459 96.4539 115.459 96.5479V104.887C115.459 104.981 115.429 105.058 115.368 105.118C115.306 105.178 115.228 105.208 115.133 105.208H113.697Z" fill="#F8F8F8"/>
<path d="M118.416 105.208C118.32 105.208 118.242 105.178 118.181 105.118C118.12 105.058 118.09 104.981 118.09 104.887V96.5479C118.09 96.4539 118.12 96.3769 118.181 96.3168C118.242 96.2568 118.32 96.2271 118.416 96.2271H119.839C119.934 96.2271 120.013 96.2568 120.074 96.3168C120.135 96.3769 120.165 96.4539 120.165 96.5479V99.7553H123.703V96.5479C123.703 96.4539 123.733 96.3769 123.794 96.3168C123.855 96.2568 123.934 96.2271 124.029 96.2271H125.452C125.548 96.2271 125.626 96.2568 125.687 96.3168C125.748 96.3769 125.779 96.4539 125.779 96.5479V104.887C125.779 104.981 125.748 105.058 125.687 105.118C125.626 105.178 125.548 105.208 125.452 105.208H124.029C123.934 105.208 123.855 105.178 123.794 105.118C123.733 105.058 123.703 104.981 123.703 104.887V101.577H120.165V104.887C120.165 104.981 120.135 105.058 120.074 105.118C120.013 105.178 119.934 105.208 119.839 105.208H118.416Z" fill="#F8F8F8"/>
<path d="M131.997 105.336C131.205 105.336 130.522 105.208 129.947 104.951C129.373 104.694 128.924 104.31 128.603 103.796C128.28 103.274 128.107 102.62 128.081 101.833C128.072 101.465 128.067 101.102 128.067 100.743C128.067 100.375 128.072 100.003 128.081 99.6265C128.107 98.8566 128.28 98.2111 128.603 97.6892C128.933 97.159 129.386 96.7613 129.96 96.496C130.543 96.2305 131.222 96.0981 131.997 96.0981C132.762 96.0981 133.433 96.2305 134.007 96.496C134.59 96.7613 135.047 97.159 135.378 97.6892C135.708 98.2111 135.882 98.8566 135.901 99.6265C135.917 100.003 135.926 100.375 135.926 100.743C135.926 101.102 135.917 101.465 135.901 101.833C135.874 102.62 135.699 103.274 135.378 103.796C135.056 104.31 134.608 104.694 134.033 104.951C133.459 105.208 132.78 105.336 131.997 105.336ZM131.997 103.681C132.501 103.681 132.915 103.531 133.237 103.232C133.567 102.924 133.741 102.436 133.759 101.769C133.776 101.393 133.785 101.042 133.785 100.717C133.785 100.383 133.776 100.033 133.759 99.665C133.75 99.2201 133.668 98.8566 133.511 98.5744C133.354 98.2922 133.146 98.0868 132.884 97.9585C132.632 97.8215 132.336 97.7533 131.997 97.7533C131.657 97.7533 131.357 97.8215 131.096 97.9585C130.835 98.0868 130.626 98.2922 130.469 98.5744C130.321 98.8566 130.239 99.2201 130.221 99.665C130.213 100.033 130.208 100.383 130.208 100.717C130.208 101.042 130.213 101.393 130.221 101.769C130.247 102.436 130.421 102.924 130.744 103.232C131.065 103.531 131.483 103.681 131.997 103.681Z" fill="#F8F8F8"/>
<path d="M71.5807 16.8796C71.4432 16.8683 71.3349 16.816 71.2545 16.723C71.1748 16.6299 71.1407 16.5159 71.152 16.3809L72.1896 4.41316C72.2009 4.27815 72.2545 4.17126 72.3494 4.09254C72.4442 4.0138 72.5603 3.98009 72.6978 3.99138L78.2602 4.44915C79.2966 4.53442 80.1333 4.75155 80.7692 5.1006C81.4056 5.44966 81.8564 5.90705 82.1217 6.47284C82.3994 7.03963 82.5072 7.68513 82.4441 8.4093C82.4051 8.86347 82.2829 9.25522 82.0786 9.58448C81.8863 9.9148 81.6558 10.1802 81.3867 10.3806C81.1303 10.582 80.8853 10.7287 80.651 10.8206C81.1189 11.0816 81.5115 11.4848 81.8286 12.0302C82.1599 12.5643 82.2952 13.1811 82.2342 13.8808C82.1672 14.6541 81.9341 15.3148 81.5342 15.8628C81.1344 16.411 80.5775 16.8164 79.8632 17.079C79.1487 17.3416 78.2986 17.4323 77.3118 17.3512L71.5807 16.8796ZM74.2771 14.932L77.1429 15.1678C77.7544 15.2183 78.2309 15.0905 78.5722 14.7847C78.9138 14.4667 79.1051 14.0745 79.1457 13.608C79.1868 13.1294 79.0593 12.7171 78.7622 12.3712C78.4788 12.0142 78.0374 11.8109 77.4378 11.7616L74.5724 11.5258L74.2771 14.932ZM74.756 9.40844L77.453 9.63037C78.0398 9.67868 78.489 9.57346 78.8009 9.31479C79.1259 9.04487 79.3084 8.6828 79.3475 8.22868C79.387 7.77451 79.2686 7.40009 78.9919 7.10542C78.7296 6.79942 78.305 6.62229 77.7179 6.57404L75.021 6.35211L74.756 9.40844Z" fill="#F8F8F8"/>
<path d="M102.241 25.3505C102.129 25.2716 102.063 25.172 102.042 25.0518C102.022 24.9315 102.052 24.8163 102.133 24.7061L109.248 14.9432C109.328 14.8331 109.43 14.768 109.552 14.7483C109.675 14.7282 109.791 14.7577 109.904 14.8367L111.6 16.0309C111.712 16.1098 111.778 16.2095 111.798 16.3297C111.818 16.45 111.789 16.5652 111.708 16.6754L105.786 24.8011L110.524 28.1364C110.636 28.2153 110.702 28.3149 110.722 28.4351C110.742 28.5554 110.712 28.6706 110.632 28.7808L109.713 30.0425C109.632 30.1527 109.531 30.2177 109.409 30.2376C109.286 30.2575 109.169 30.2279 109.057 30.149L102.241 25.3505Z" fill="#F8F8F8"/>
<path d="M112.885 32.9791C112.793 32.8779 112.751 32.7663 112.758 32.6446C112.765 32.523 112.82 32.4171 112.924 32.327L122.051 24.3431C122.154 24.2531 122.267 24.2115 122.391 24.2185C122.515 24.2257 122.623 24.2799 122.714 24.3811L124.039 25.8439C124.131 25.9452 124.173 26.0566 124.166 26.1784C124.159 26.3001 124.103 26.4061 124 26.4961L120.799 29.2965L126.659 29.2654C126.749 29.2531 126.859 29.2638 126.99 29.2975C127.139 29.3321 127.28 29.4231 127.413 29.5704L128.926 31.2403C129.001 31.3231 129.03 31.4207 129.015 31.5333C129.009 31.6376 128.968 31.7226 128.893 31.7881C128.827 31.8454 128.755 31.8761 128.675 31.8803L121.222 32.0427L120.009 39.9298C120.005 39.9994 119.966 40.0669 119.891 40.1324C119.816 40.198 119.721 40.2318 119.605 40.2338C119.499 40.2277 119.408 40.1833 119.333 40.1005L117.771 38.3754C117.621 38.2098 117.546 38.0528 117.546 37.9044C117.546 37.7562 117.547 37.6559 117.551 37.6038L118.383 31.4092L114.873 34.48C114.77 34.57 114.657 34.6116 114.533 34.6045C114.409 34.5973 114.301 34.5432 114.21 34.4421L112.885 32.9791Z" fill="#F8F8F8"/>
<path d="M122.177 43.1121C122.125 43.0141 122.114 42.9152 122.145 42.8153C122.188 42.7097 122.254 42.6339 122.342 42.5879C122.398 42.5592 122.45 42.5387 122.501 42.5267L135.279 40.8704C135.419 40.84 135.558 40.8507 135.7 40.9026C135.841 40.9547 135.959 41.0679 136.052 41.2421L137.176 43.3337C137.269 43.5079 137.297 43.6671 137.262 43.8111C137.226 43.9551 137.155 44.0752 137.051 44.171L128.45 53.6049C128.411 53.6387 128.364 53.67 128.309 53.6987C128.22 53.745 128.12 53.7553 128.007 53.7301C127.905 53.6992 127.828 53.6347 127.775 53.5365L126.863 51.8374C126.775 51.6741 126.749 51.534 126.786 51.4175C126.823 51.3011 126.869 51.2147 126.923 51.1584L128.408 49.49L125.934 44.8822L123.694 45.1455C123.616 45.1582 123.518 45.1465 123.399 45.1105C123.281 45.0745 123.178 44.9748 123.09 44.8114L122.177 43.1121ZM128.403 44.3743L130.219 47.7567L134.103 43.5901L128.403 44.3743Z" fill="#F8F8F8"/>
<path d="M8.49309 41.1755C8.01234 40.9619 7.54871 40.9548 7.1022 41.1537C6.65568 41.3529 6.2657 41.7457 5.93222 42.3325C5.70565 42.7311 5.57075 43.0998 5.52753 43.4385C5.48056 43.775 5.51318 44.0722 5.62539 44.3301C5.73974 44.5842 5.92103 44.7818 6.16927 44.9228C6.37186 45.0479 6.57697 45.1073 6.78461 45.1008C6.9944 45.0907 7.2038 45.0331 7.41282 44.928C7.61808 44.8208 7.82516 44.6796 8.03401 44.5047C8.23911 44.3278 8.44149 44.1292 8.64112 43.9094L9.47933 43.0124C9.8786 42.5724 10.292 42.1953 10.7194 41.881C11.1469 41.5666 11.5856 41.3332 12.0354 41.181C12.4852 41.0285 12.9444 40.9736 13.413 41.0159C13.8837 41.0545 14.3607 41.2087 14.8443 41.4786C15.5493 41.8843 16.0597 42.4133 16.3757 43.0656C16.6901 43.7119 16.7999 44.4511 16.7053 45.283C16.609 46.109 16.2936 46.9922 15.7592 47.9324C15.2292 48.8652 14.6245 49.5964 13.9453 50.126C13.2683 50.6518 12.5395 50.9492 11.7589 51.018C10.9767 51.081 10.1647 50.8858 9.32277 50.4321L10.6662 48.0683C11.0686 48.2621 11.4551 48.335 11.8258 48.2869C12.1948 48.2329 12.5392 48.0779 12.859 47.8217C13.1771 47.5596 13.4559 47.218 13.6953 46.7967C13.9304 46.3831 14.0744 45.9896 14.1272 45.6165C14.182 45.2398 14.1505 44.9058 14.0323 44.6147C13.914 44.3236 13.7159 44.099 13.4375 43.9408C13.178 43.7934 12.916 43.7464 12.6516 43.8002C12.3893 43.8501 12.1128 43.9865 11.8219 44.2093C11.5332 44.4285 11.2184 44.7198 10.8774 45.0832L9.84645 46.1618C9.05587 47.0013 8.24826 47.5599 7.42363 47.8376C6.599 48.1153 5.76087 48.0097 4.90923 47.5206C4.20753 47.1269 3.70217 46.5933 3.39313 45.9201C3.08623 45.2431 2.97421 44.4902 3.05706 43.6615C3.13991 42.8329 3.42074 41.9973 3.89956 41.1548C4.38694 40.2973 4.95899 39.6322 5.61575 39.1595C6.27466 38.683 6.96703 38.4147 7.6929 38.3546C8.41876 38.2944 9.12904 38.4543 9.82373 38.8342L8.49309 41.1755Z" fill="#F8F8F8"/>
<path d="M23.9556 36.9258C23.2433 37.764 22.4849 38.3801 21.6806 38.7736C20.8668 39.1589 20.0305 39.2758 19.1708 39.1245C18.3021 38.9649 17.4253 38.4997 16.5408 37.7292L10.8415 32.7672C10.7392 32.6776 10.6837 32.5713 10.6751 32.4483C10.6666 32.3247 10.7069 32.2105 10.796 32.1054L12.1195 30.5481C12.2086 30.4432 12.314 30.386 12.4359 30.3759C12.5578 30.3658 12.6699 30.4057 12.7724 30.4948L18.4575 35.4449C19.1466 36.0452 19.8005 36.3242 20.4189 36.2829C21.0375 36.2413 21.6018 35.9202 22.1119 35.3201C22.6138 34.7294 22.8389 34.1215 22.7869 33.4961C22.7349 32.8707 22.3645 32.2582 21.6755 31.6578L15.9903 26.7078C15.8878 26.6188 15.8323 26.5124 15.8239 26.3888C15.8234 26.256 15.8637 26.1418 15.9446 26.0466L17.2804 24.4747C17.3613 24.3795 17.4628 24.3267 17.5845 24.317C17.7065 24.3068 17.8187 24.3464 17.9212 24.4356L23.6202 29.3978C24.5048 30.1683 25.0901 30.9761 25.3761 31.822C25.6526 32.6597 25.6675 33.5094 25.4206 34.3724C25.1645 35.2267 24.6763 36.0777 23.9556 36.9258Z" fill="#F8F8F8"/>
<path d="M91.1091 21.3819C90.0649 21.036 89.2093 20.5639 88.543 19.9659C87.8806 19.3561 87.4586 18.6245 87.2765 17.7708C87.0987 16.9055 87.2011 15.9184 87.5837 14.8095L90.0463 7.66531C90.0911 7.53691 90.1688 7.44561 90.2796 7.39142C90.3909 7.33721 90.5119 7.33173 90.6427 7.37498L92.5826 8.01788C92.7134 8.06113 92.806 8.13739 92.8609 8.2466C92.9162 8.35587 92.9212 8.4747 92.8769 8.60313L90.4201 15.7295C90.1219 16.5935 90.1087 17.3043 90.3787 17.8623C90.6493 18.4201 91.1586 18.8228 91.9062 19.0706C92.642 19.3144 93.29 19.295 93.8501 19.0123C94.4104 18.7296 94.8393 18.1564 95.1375 17.2927L97.5942 10.1661C97.6384 10.0377 97.7163 9.94637 97.8277 9.89221C97.9506 9.84193 98.0716 9.83644 98.1901 9.87578L100.148 10.5246C100.267 10.5639 100.354 10.6382 100.408 10.7474C100.464 10.8566 100.469 10.9755 100.425 11.1039L97.9618 18.2479C97.5794 19.3569 97.05 20.2025 96.3731 20.7847C95.7001 21.3552 94.9181 21.6878 94.0256 21.7824C93.1375 21.8654 92.1654 21.7319 91.1091 21.3819Z" fill="#F8F8F8"/>
<path d="M30.5971 30.1456L22.4922 19.6133L26.6476 16.4157C27.4465 15.8009 28.2444 15.4299 29.0414 15.3023C29.836 15.1714 30.5876 15.2615 31.2968 15.573C32.0066 15.8782 32.6306 16.3807 33.1688 17.0801C33.707 17.7795 34.031 18.5127 34.1409 19.2797C34.2508 20.0467 34.1342 20.7996 33.7912 21.5385C33.4515 22.2748 32.8772 22.9541 32.068 23.5768L29.4196 25.6149L28.0464 23.8303L30.3349 22.0693C30.7634 21.7395 31.0599 21.3941 31.2241 21.033C31.3892 20.6657 31.4386 20.2974 31.3727 19.9279C31.3075 19.5523 31.1416 19.1913 30.8751 18.845C30.606 18.4954 30.3009 18.2443 29.9598 18.0919C29.6195 17.9334 29.2535 17.8903 28.8615 17.9628C28.4669 18.0316 28.0537 18.2323 27.6216 18.5647L26.12 19.7203L32.8239 28.4321L30.5971 30.1456Z" fill="#F8F8F8"/>
<path d="M41.1757 22.5222C41.0536 22.5837 40.9334 22.5956 40.8152 22.5578C40.6971 22.5199 40.6062 22.4408 40.5427 22.3199L34.914 11.6054C34.8504 11.4845 34.8375 11.3661 34.8747 11.2499C34.9122 11.1339 34.9919 11.0451 35.114 10.9835L42.6618 7.18269C42.784 7.12121 42.9041 7.10925 43.0223 7.147C43.1406 7.18479 43.2314 7.26407 43.2949 7.38492L43.9875 8.7037C44.0453 8.81351 44.0556 8.92659 44.0181 9.04258C43.9809 9.15876 43.901 9.24756 43.7789 9.30908L38.3805 12.0276L39.7399 14.6155L44.7719 12.0816C44.894 12.0201 45.0142 12.0083 45.1324 12.046C45.2505 12.0838 45.3415 12.1631 45.4049 12.2839L46.0458 13.5038C46.1036 13.6136 46.1137 13.7266 46.0764 13.8427C46.039 13.9589 45.9593 14.0477 45.8369 14.1091L40.8052 16.6431L42.2079 19.3134L47.7398 16.5279C47.8619 16.4663 47.9821 16.4544 48.1003 16.4921C48.2184 16.5299 48.3093 16.6092 48.3727 16.7301L49.0568 18.0324C49.1203 18.1533 49.1335 18.2717 49.0961 18.3877C49.0587 18.504 48.979 18.5928 48.8568 18.6542L41.1757 22.5222Z" fill="#F8F8F8"/>
<path d="M53.0514 17.9485L50.6451 4.8784L55.8016 3.92903C56.7887 3.7473 57.6637 3.76876 58.4264 3.99343C59.1927 4.21307 59.8179 4.61043 60.3021 5.1855C60.7896 5.75554 61.113 6.47241 61.2721 7.33609C61.4318 8.20404 61.3821 8.98518 61.1229 9.67954C60.8627 10.3697 60.4081 10.946 59.7586 11.4087C59.1135 11.8706 58.2889 12.194 57.2848 12.3788L53.8322 13.0145L53.4233 10.7936L56.4292 10.2402C56.9567 10.143 57.3816 9.99004 57.7039 9.78115C58.0261 9.57226 58.2457 9.30749 58.3626 8.98685C58.4838 8.66541 58.5048 8.28984 58.4257 7.86013C58.3459 7.42616 58.1913 7.07632 57.962 6.81061C57.7369 6.54413 57.4338 6.36681 57.0524 6.27865C56.6746 6.18547 56.2198 6.18782 55.6879 6.28574L53.8243 6.62884L55.8148 17.4397L53.0514 17.9485ZM59.0147 10.7011L63.3582 16.0509L60.3076 16.6125L56.0343 11.2498L59.0147 10.7011Z" fill="#F8F8F8"/>
</g>
</svg>
