<svg width="20" height="20" viewBox="0 0 20 20" fill="none" xmlns="http://www.w3.org/2000/svg"><g clip-path="url(.clip0_388_41001)"><path fill-rule="evenodd" clip-rule="evenodd" d="M7.40639 17.7293C7.02713 18.2996 6.56999 18.987 5.96687 19.1048C5.31099 19.2323 4.81165 18.6353 4.40933 18.1542C4.33501 18.0653 4.26399 17.9804 4.19591 17.9047C3.29811 16.9062 2.39638 15.9101 1.48965 14.9198C1.25457 14.6633 1.261 14.3082 1.48965 14.0524C2.01426 13.4653 2.56236 12.8996 3.11036 12.334C3.26471 12.1747 3.41905 12.0153 3.57285 11.8556C3.70302 11.7205 3.83096 11.5827 3.95891 11.4448C4.42798 10.9395 4.8973 10.4339 5.47778 10.0628C4.64821 9.36974 3.82401 8.67057 3.00052 7.96998C2.85313 7.84477 2.677 7.71289 2.49172 7.57417C1.97815 7.18966 1.39431 6.75254 1.15775 6.25869C0.675195 5.25126 1.98104 4.16834 2.8921 3.41282C3.11959 3.22416 3.32247 3.05592 3.46674 2.91436C3.59766 2.78593 3.73299 2.64316 3.8726 2.49588C4.73615 1.58488 5.76323 0.501362 6.91897 1.57284C7.326 1.95041 7.65341 2.46765 7.97039 2.96843C8.11471 3.19643 8.25687 3.42102 8.4034 3.62745C8.96109 4.41236 9.50055 5.20406 10.0068 6.02112C10.1641 5.30703 10.7122 4.79679 11.2475 4.29842C11.3759 4.17893 11.5035 4.06012 11.6248 3.93935C12.3926 3.17587 13.1843 2.45563 14.0289 1.77826C14.1321 1.55998 14.3836 1.39778 14.6269 1.54533C16.0049 2.38097 17.2128 3.42024 18.2935 4.61386C18.5329 4.87823 18.5468 5.27015 18.2939 5.53167C16.9602 6.91106 15.7673 8.38548 14.5823 9.8892C16.2164 11.0424 17.7923 12.2689 19.3003 13.5862C19.57 13.8223 19.5364 14.2739 19.3003 14.5143C17.8244 16.0166 16.3164 17.4817 14.7798 18.9219C14.5355 19.1512 14.171 19.1505 13.9274 18.9219C13.7317 18.7382 13.5357 18.5545 13.3395 18.3708C12.0463 17.1594 10.7476 15.9429 9.51913 14.6679C9.08736 15.4874 8.51358 16.2382 7.95056 16.9749C7.87023 17.08 7.79011 17.1848 7.71066 17.2895C7.61443 17.4165 7.51352 17.5682 7.40639 17.7293ZM4.51995 12.802C3.94012 13.3789 3.35814 13.9545 2.76687 14.52C3.16965 14.9825 3.57358 15.4443 3.97756 15.9061L4.27487 16.246C4.367 16.3513 4.45896 16.4567 4.55092 16.5622C4.7535 16.7945 4.95608 17.0269 5.16053 17.2574C5.23591 17.3426 5.29334 17.4151 5.34061 17.4749C5.52093 17.7028 5.5533 17.7437 5.87005 17.5832C6.11093 17.4603 6.36859 17.0771 6.58923 16.7489C6.69059 16.5982 6.78414 16.459 6.86467 16.3621C7.01907 16.1762 7.17501 15.9916 7.33095 15.807C7.46477 15.6486 7.59857 15.4902 7.73139 15.331C8.2387 14.723 8.72386 14.1535 9.35407 13.6733L9.35801 13.6723C9.5813 13.4011 9.99358 13.2796 10.3312 13.5929C11.6359 14.8052 12.8778 16.0948 14.1152 17.3798L14.36 17.6339C15.5154 16.43 16.6894 15.246 17.8837 14.0802C17.6834 13.8977 17.4793 13.7193 17.2752 13.5409C17.1106 13.397 16.946 13.2531 16.7834 13.1071L16.488 12.8428C15.5064 11.9644 14.3138 10.8972 13.3633 10.0814C13.2197 9.95851 13.2268 9.7956 13.2833 9.64698C13.2729 9.52801 13.2893 9.40582 13.3708 9.28864C14.4276 7.7717 15.6644 6.38409 16.9573 5.06258C16.6597 4.71282 16.3432 4.38271 16.0263 4.05367L16.0191 4.04659C15.6357 3.66816 14.8566 2.8993 14.4511 2.54995C13.7806 3.1798 13.1211 3.82645 12.5184 4.52133C12.3294 4.73896 12.159 4.98354 11.988 5.22899C11.6186 5.75914 11.2463 6.29334 10.6788 6.5688C10.5745 6.61953 10.4705 6.62346 10.3726 6.60488C10.5809 6.97965 10.0647 7.37085 9.76421 7.06111C9.19759 6.47662 8.66885 5.85928 8.15224 5.23192C7.82356 4.8275 7.208 4.06618 6.88217 3.65961C6.63102 3.29699 6.11621 2.56496 5.74072 2.66249C5.43712 2.74161 5.00007 3.26649 4.65526 3.6806C4.51276 3.85173 4.38602 4.00395 4.29095 4.09797C4.11931 4.26796 3.93168 4.43752 3.74145 4.60943C3.35394 4.95962 2.95563 5.31957 2.65969 5.7128C2.63975 5.73938 2.62659 5.74688 2.61309 5.75458C2.60627 5.75847 2.59936 5.76241 2.59145 5.76889C2.59897 5.77206 2.60608 5.77444 2.61315 5.7768C2.63629 5.78452 2.65896 5.79209 2.69399 5.82712C2.84872 5.98138 3.02435 6.12142 3.19849 6.26028C3.2849 6.32918 3.37094 6.39779 3.45388 6.46769L3.91234 6.85387C4.83627 7.63196 5.76031 8.41016 6.67568 9.19861C7.15334 9.61054 6.83609 10.1886 6.36557 10.3433C6.41523 10.4844 6.4281 10.6366 6.34128 10.7863C5.98468 11.4 5.4628 11.8974 4.94632 12.3897C4.80255 12.5267 4.6592 12.6633 4.51995 12.802Z" fill="white"></path></g><defs><clipPath id="clip0_388_41001"><rect width="20" height="20" fill="white"></rect></clipPath></defs></svg>