<svg width="80" height="12" viewBox="0 0 80 12" fill="none" xmlns="http://www.w3.org/2000/svg">
<g clip-path="url(#clip0_98_2001)">
<path d="M54.5762 0.476074C53.5685 0.476985 52.5837 0.770858 51.7463 1.32054C50.9089 1.87023 50.2564 2.65105 49.8714 3.5643C49.4864 4.47755 49.3862 5.48224 49.5834 6.45135C49.7805 7.42047 50.2662 8.3105 50.9791 9.00896C51.692 9.70741 52.6 10.1829 53.5884 10.3754C54.5768 10.5678 55.6012 10.4686 56.5321 10.0902C57.463 9.71182 58.2587 9.07128 58.8184 8.24955C59.3782 7.42781 59.6769 6.46178 59.6769 5.47357C59.6754 4.14782 59.1373 2.87688 58.1809 1.93986C57.2246 1.00285 55.9281 0.476379 54.5762 0.476074ZM54.5762 9.70727C53.7221 9.70727 52.8871 9.45887 52.1769 8.99349C51.4667 8.5281 50.9133 7.86664 50.5864 7.09276C50.2596 6.31887 50.1742 5.46733 50.3409 4.64581C50.5076 3.8243 50.919 3.06972 51.5231 2.47752C52.1271 1.88531 52.8967 1.48207 53.7344 1.3188C54.5722 1.15552 55.4405 1.23955 56.2296 1.56025C57.0186 1.88096 57.693 2.42393 58.1673 3.1205C58.6417 3.81707 58.8948 4.63594 58.8945 5.47357C58.8905 6.5954 58.4342 7.67014 57.6252 8.46329C56.8162 9.25644 55.7201 9.70362 54.5762 9.70727Z" fill="white"/>
<path fill-rule="evenodd" clip-rule="evenodd" d="M54.5762 0.00244141C53.4728 0.00244143 52.3943 0.32328 51.4768 0.924387C50.5594 1.5255 49.8444 2.37988 49.4221 3.3795C48.9998 4.37912 48.8893 5.47909 49.1044 6.54033C49.3196 7.60156 49.8508 8.5764 50.6309 9.34158C51.411 10.1068 52.405 10.6279 53.4871 10.8391C54.5692 11.0504 55.6909 10.9422 56.7103 10.5283C57.7297 10.1144 58.6011 9.41331 59.2142 8.51377C59.8274 7.61422 60.1548 6.55658 60.155 5.47457C60.1538 4.02385 59.5656 2.63287 58.5197 1.60695C57.4738 0.581019 56.0555 0.00396669 54.5762 0.00244141ZM54.5762 9.23363C53.8175 9.23363 53.0759 9.013 52.4451 8.59965C51.8144 8.18629 51.3228 7.59878 51.0325 6.91141C50.7422 6.22405 50.6663 5.4677 50.8144 4.73804C50.9625 4.00837 51.3279 3.33816 51.8645 2.81217C52.401 2.28618 53.0845 1.92803 53.8286 1.78303C54.5727 1.63803 55.3439 1.71268 56.0448 1.99755C56.7456 2.28241 57.3446 2.76469 57.7659 3.3834C58.1872 4.00211 58.4119 4.72944 58.4117 5.47342C58.4077 6.46967 58.0023 7.42398 57.2838 8.12834C56.5653 8.8327 55.5921 9.22999 54.5762 9.23363Z" fill="white"/>
<path d="M73.5529 1.5172V5.08848H78.2296V5.86495H73.5529V9.42932H78.9168V10.1908H72.7905V0.769531H78.9168V1.5172H73.5529Z" fill="white"/>
<path d="M69.6175 10.2061H68.7952L63.1482 2.05898V10.2061H62.3564V0.759491H63.2081L63.2528 0.818244L68.8258 8.86285V0.754883H69.6175V10.2061Z" fill="white"/>
<path d="M47.6677 0.754883V1.53135H44.3055V10.2061H43.5138V1.53135H40.1528V0.754883H47.6677Z" fill="white"/>
<path d="M38.3388 7.81789C38.3256 8.20435 38.2237 8.58292 38.0407 8.9254C37.8576 9.26788 37.5981 9.56544 37.2815 9.79592C36.6518 10.2556 35.8295 10.486 34.9167 10.486C34.8518 10.4878 34.7868 10.4828 34.7229 10.471C33.7361 10.4411 32.8703 10.1335 32.243 9.56206C31.7193 9.08541 31.3861 8.44125 31.3032 7.74531V7.58633H32.0833L32.095 7.72918C32.1824 8.24104 32.4402 8.71012 32.828 9.06323C33.3062 9.48833 33.9628 9.70721 34.7699 9.73716C35.5769 9.76712 36.2642 9.59086 36.7576 9.23833C36.9924 9.0787 37.1852 8.86671 37.3202 8.61977C37.4552 8.37284 37.5285 8.09801 37.5341 7.81789C37.5646 7.18773 37.2803 6.70388 36.6976 6.32025C36.1596 5.97464 35.4277 5.76382 34.8451 5.58756L34.5314 5.50001L34.3023 5.42973C33.7643 5.26845 33.1065 5.06339 32.5684 4.69704C31.9117 4.25697 31.5828 3.67059 31.6122 2.95288C31.619 2.59202 31.7151 2.23819 31.8921 1.92175C32.069 1.60532 32.3217 1.33573 32.6283 1.13613C33.2416 0.711032 34.1073 0.476018 35.0342 0.505971C36.4991 0.564724 37.6492 1.28244 38.1273 2.44022L38.1426 2.484L37.3802 2.68906C37.0043 1.82504 36.1126 1.28244 35.0072 1.25364C34.2154 1.23866 33.5728 1.39994 33.1276 1.70754C32.9095 1.8489 32.7298 2.04029 32.6041 2.26512C32.4784 2.48995 32.4105 2.74144 32.4063 2.99781C32.3922 3.48166 32.6307 3.86298 33.184 4.18439C33.6915 4.47816 34.3787 4.6982 35.0072 4.87561L35.1717 4.91939C35.799 5.11062 36.5907 5.34448 37.2333 5.76958C37.9946 6.235 38.3834 6.93889 38.3388 7.81789Z" fill="white"/>
<path d="M24.1244 0.754886H21.1206V10.2015H24.1244C26.7981 10.2015 28.9796 8.07717 28.9796 5.4782C28.9709 4.22154 28.4554 3.01935 27.5456 2.1343C26.6359 1.24926 25.4059 0.753335 24.1244 0.754886ZM24.1244 9.44463H21.8924V1.51753H24.1244C24.661 1.50856 25.194 1.60445 25.6924 1.79961C26.1907 1.99477 26.6445 2.28529 27.0272 2.65423C27.4099 3.02317 27.7138 3.46314 27.9213 3.94848C28.1288 4.43382 28.2356 4.95481 28.2356 5.48108C28.2356 6.00734 28.1288 6.52834 27.9213 7.01368C27.7138 7.49902 27.4099 7.93899 27.0272 8.30793C26.6445 8.67687 26.1907 8.96739 25.6924 9.16255C25.194 9.35771 24.661 9.4536 24.1244 9.44463Z" fill="white"/>
<path fill-rule="evenodd" clip-rule="evenodd" d="M74.0357 1.99071V4.61848H78.7123V6.34306H74.0357V8.95471H79.3995V10.6655H72.3076V0.294922H79.3995V1.99071H74.0357Z" fill="white"/>
<path fill-rule="evenodd" clip-rule="evenodd" d="M70.1016 0.28125V10.6794H68.4687L63.6311 3.59448V10.6794H61.8726V0.28125H63.4491L63.6464 0.538152L68.343 7.31668V0.28125H70.1016Z" fill="white"/>
<path fill-rule="evenodd" clip-rule="evenodd" d="M48.1515 0.28125V2.00583H44.7894V10.6794H43.0308V2.00583H39.6687V0.28125H48.1515Z" fill="white"/>
<path fill-rule="evenodd" clip-rule="evenodd" d="M38.8218 7.83605C38.8051 8.29167 38.6844 8.73781 38.4685 9.14157C38.2525 9.54533 37.9469 9.8964 37.5742 10.1689C36.8482 10.6942 35.9202 10.95 34.9263 10.95H34.9205C34.8418 10.9509 34.7633 10.9455 34.6855 10.9338C33.6283 10.8958 32.6497 10.5583 31.9284 9.89702C31.3196 9.34432 30.9318 8.5968 30.8347 7.78881V7.76001V7.11257H32.5428L32.5898 7.669C32.662 8.06916 32.8648 8.43547 33.1678 8.71274C33.539 9.04107 34.0747 9.23691 34.8018 9.26341C35.529 9.2899 36.1046 9.12862 36.4876 8.85559C36.6625 8.73851 36.8063 8.58201 36.9069 8.3992C37.0074 8.2164 37.0619 8.01262 37.0656 7.80494V7.79572C37.0867 7.35911 36.9105 7.02156 36.4441 6.71743C36.0059 6.43057 35.4033 6.2497 34.8253 6.07575L34.7219 6.04464L34.4024 5.95478L34.1581 5.8776C33.6271 5.71862 32.9034 5.49628 32.2973 5.08385C31.5231 4.56659 31.0967 3.83505 31.1319 2.93532C31.1415 2.50111 31.2575 2.07553 31.4702 1.69456C31.6828 1.31358 31.9858 0.988393 32.3537 0.746469C33.0667 0.252249 34.0418 -0.0011969 35.0556 0.0310599C36.6732 0.0955734 38.0148 0.899689 38.5798 2.26023L38.5857 2.27406L38.7666 2.8086L37.1055 3.25558L36.9399 2.87426C36.652 2.21185 35.9472 1.75219 34.9957 1.7303C34.2697 1.71648 33.7399 1.86739 33.4027 2.0978C33.246 2.19764 33.1172 2.33418 33.0277 2.49508C32.9383 2.65597 32.8912 2.83618 32.8905 3.01942C32.8821 3.15475 32.917 3.28927 32.9904 3.4042C33.1053 3.56182 33.2556 3.69148 33.4297 3.78321C33.8797 4.04242 34.5117 4.24402 35.1366 4.42374L35.3034 4.46752H35.3105L35.3763 4.48825C35.9824 4.67143 36.8071 4.92142 37.4908 5.37301C38.3965 5.92483 38.8747 6.7854 38.8218 7.83605Z" fill="white"/>
<path fill-rule="evenodd" clip-rule="evenodd" d="M24.1246 0.281253H20.6379V10.6795H24.1246C27.0614 10.6795 29.4638 8.3466 29.4638 5.48726C29.4573 4.10333 28.8917 2.77834 27.8909 1.80255C26.8902 0.826756 25.5358 0.279714 24.1246 0.281253ZM24.1246 8.96984H22.3813V1.99086H24.1246C25.0683 1.99086 25.9734 2.3585 26.6407 3.01291C27.308 3.66732 27.6829 4.55488 27.6829 5.48035C27.6829 6.40582 27.308 7.29339 26.6407 7.94779C25.9734 8.6022 25.0683 8.96984 24.1246 8.96984Z" fill="white"/>
<path fill-rule="evenodd" clip-rule="evenodd" d="M13.2323 1.99071V4.61848H17.8937V6.34306H13.2323V8.95471H18.5809V10.6655H11.4878V0.294922H18.5809V1.99071H13.2323Z" fill="white"/>
<path fill-rule="evenodd" clip-rule="evenodd" d="M9.66585 10.6666H7.59948L5.34397 7.03885H2.55631L1.51901 5.34537H5.81387C6.03941 5.34537 6.26275 5.30181 6.47112 5.21716C6.67949 5.13252 6.86883 5.00846 7.02831 4.85206C7.18779 4.69566 7.3143 4.50999 7.40061 4.30565C7.48692 4.1013 7.53134 3.88229 7.53134 3.66111C7.53134 3.43993 7.48692 3.22091 7.40061 3.01657C7.3143 2.81222 7.18779 2.62655 7.02831 2.47015C6.86883 2.31375 6.67949 2.18969 6.47112 2.10505C6.26275 2.02041 6.03941 1.97684 5.81387 1.97684H1.07026L0.032959 0.29834H5.81387C6.596 0.301917 7.35346 0.567147 7.96102 1.05017C8.56858 1.5332 8.98985 2.2051 9.15518 2.95478C9.32051 3.70446 9.22 4.48703 8.87026 5.17308C8.52052 5.85914 7.94251 6.40761 7.23178 6.7278L9.66585 10.6666Z" fill="white"/>
<path d="M0.352539 8.59229H2.46708V10.6659H0.352539V8.59229Z" fill="#E70000"/>
</g>
<defs>
<clipPath id="clip0_98_2001">
<rect width="80" height="11" fill="white" transform="translate(0 0.00244141)"/>
</clipPath>
</defs>
</svg>
